<svg width="17" height="16" viewBox="0 0 17 16" fill="none" xmlns="http://www.w3.org/2000/svg">
<g clip-path="url(#clip0_11778_289491)">
<path d="M3.50072 13.3335V9.3335C3.50072 7.91901 4.06262 6.56245 5.06282 5.56226C6.06301 4.56207 7.41957 4.00016 8.83405 4.00016C10.2485 4.00016 11.6051 4.56207 12.6053 5.56226C13.6055 6.56245 14.1674 7.91901 14.1674 9.3335V13.3335H14.8341V14.6668H2.83405V13.3335H3.50072ZM4.83405 9.3335H6.16739C6.16739 8.62625 6.44834 7.94798 6.94844 7.44788C7.44853 6.94778 8.12681 6.66683 8.83405 6.66683V5.3335C7.77319 5.3335 6.75577 5.75492 6.00563 6.50507C5.25548 7.25521 4.83405 8.27263 4.83405 9.3335ZM8.16739 1.3335H9.50072V3.3335H8.16739V1.3335ZM14.0194 3.2055L14.9621 4.14816L13.5487 5.56216L12.6054 4.6195L14.0194 3.2055ZM2.70605 4.14816L3.64872 3.2055L5.06272 4.61883L4.12072 5.56283L2.70605 4.14816Z" fill="#161616"/>
</g>
<defs>
<clipPath id="clip0_11778_289491">
<rect width="16" height="16" fill="white" transform="translate(0.833984)"/>
</clipPath>
</defs>
</svg>
