<svg width="17" height="16" fill="none" xmlns="http://www.w3.org/2000/svg"><g clip-path="url(#a)"><path d="M3.5 13.334v-4a5.333 5.333 0 1 1 10.667 0v4h.667v1.333h-12v-1.333h.667zm1.334-4h1.333a2.667 2.667 0 0 1 2.667-2.667V5.334a4 4 0 0 0-4 4zm3.333-8h1.334v2H8.167v-2zm5.852 1.871.943.943-1.413 1.414-.944-.942 1.414-1.415zm-11.313.943.943-.942 1.414 1.413-.942.944-1.415-1.415z" fill="#161616"/></g><defs><clipPath id="a"><path fill="#fff" transform="translate(.834)" d="M0 0h16v16H0z"/></clipPath></defs></svg>
