<svg width="81" height="80" fill="none" xmlns="http://www.w3.org/2000/svg"><path fill-rule="evenodd" clip-rule="evenodd" d="M57.334 78a1.001 1.001 0 0 1 0-2 1.001 1.001 0 0 1 0 2zM61.334 6a1.001 1.001 0 0 1 0-2 1.001 1.001 0 0 1 0 2zM27.334 78a1.001 1.001 0 0 1 0-2 1.001 1.001 0 0 1 0 2z" fill="#CACAFB"/><path d="M45.327 9.883a1 1 0 0 0-1.993.117v4l.007.117A1 1 0 0 0 45.334 14v-4l-.007-.117zM20.334 35a1 1 0 0 0-1-1h-6l-.117.007A1 1 0 0 0 13.334 36h6l.117-.007a1 1 0 0 0 .883-.993z" fill="#E1000F"/><path fill-rule="evenodd" clip-rule="evenodd" d="M40.334 34a3 3 0 1 0 0 6 3 3 0 0 0 0-6zm0 2a1 1 0 1 1 0 2 1 1 0 0 1 0-2z" fill="#E1000F"/><path d="M19.334 38a1 1 0 0 1 .117 1.993l-.117.007h-6a1 1 0 0 1-.117-1.993l.117-.007h6zM32.334 35a1 1 0 0 0-1-1h-6l-.117.007A1 1 0 0 0 25.334 36h6l.117-.007a1 1 0 0 0 .883-.993zM31.334 38a1 1 0 0 1 .117 1.993l-.117.007h-6a1 1 0 0 1-.117-1.993l.117-.007h6zM56.334 35a1 1 0 0 0-1-1h-6l-.117.007A1 1 0 0 0 49.334 36h6l.117-.007a1 1 0 0 0 .883-.993zM55.334 38a1 1 0 0 1 .117 1.993l-.117.007h-6a1 1 0 0 1-.117-1.993l.117-.007h6zM68.334 35a1 1 0 0 0-1-1h-6l-.117.007A1 1 0 0 0 61.334 36h6l.117-.007a1 1 0 0 0 .883-.993zM67.334 38a1 1 0 0 1 .117 1.993l-.117.007h-6a1 1 0 0 1-.117-1.993l.117-.007h6z" fill="#E1000F"/><path d="M41.327 9.883a1 1 0 0 0-1.993.117v4l.007.117A1 1 0 0 0 41.334 14v-4l-.007-.117zM41.327 16.883a1 1 0 0 0-1.993.117v3h-22l-.117.007a1 1 0 0 0-.883.993v5h-13l-.117.007A1 1 0 0 0 3.334 28h74l.117-.007A1 1 0 0 0 77.334 26h-13v-5l-.007-.117a1 1 0 0 0-1.993.117v5h-44v-4h35l.117-.007A1 1 0 0 0 53.334 20h-12v-3l-.007-.117zM25.334 44a1 1 0 0 1 .993.883l.007.117v20a1 1 0 0 1-1.993.117L24.334 65V45a1 1 0 0 1 1-1zM22.327 48.883a1 1 0 0 0-1.993.117v19h-8V49l-.007-.117a1 1 0 0 0-1.993.117v19h-3l-.117.007A1 1 0 0 0 7.334 70h14a1 1 0 0 0 1-1V49l-.007-.117z" fill="#000091"/><path d="M15.334 44a1 1 0 0 1 .993.883l.007.117v16a1 1 0 0 1-1.993.117L14.334 61V45a1 1 0 0 1 1-1zM59.334 20a1 1 0 0 1 .117 1.993l-.117.007h-2a1 1 0 0 1-.117-1.993l.117-.007h2zM7.334 30a1 1 0 0 1 .993.883l.007.117v34a1 1 0 0 1-1.993.117L6.334 65V31a1 1 0 0 1 1-1z" fill="#000091"/><path fill-rule="evenodd" clip-rule="evenodd" d="M48.327 48.883a1 1 0 0 0-.993-.883h-14l-.117.007a1 1 0 0 0-.883.993v15h-3l-.117.007A1 1 0 0 0 29.334 66h22l.117-.007A1 1 0 0 0 51.334 64h-3V49l-.007-.117zM39.334 64h-5V49.999h12V64h-5v-9l-.007-.117a1 1 0 0 0-1.993.117v9z" fill="#000091"/><path d="M45.334 44a1 1 0 0 1 .117 1.993l-.117.007h-10a1 1 0 0 1-.117-1.993l.117-.007h10zM55.334 44a1 1 0 0 0-.993.883l-.007.117v20a1 1 0 0 0 1.993.117l.007-.117V45a1 1 0 0 0-1-1zM58.34 48.883a1 1 0 0 1 1.994.117v12l-.007.117A1 1 0 0 1 58.334 61V49l.007-.117zM65.334 44a1 1 0 0 0-.993.883l-.007.117v20a1 1 0 0 0 1.993.117l.007-.117V45a1 1 0 0 0-1-1z" fill="#000091"/><path d="M68.34 48.883a1 1 0 0 1 1.994.117v20a1 1 0 0 1-1 1h-44a1 1 0 0 1-.117-1.993l.117-.007h43V49l.007-.117zM73.334 30a1 1 0 0 1 .993.883l.007.117v38a1 1 0 0 1-1.993.117L72.334 69V31a1 1 0 0 1 1-1z" fill="#000091"/></svg>