<svg width="17" height="16" fill="none" xmlns="http://www.w3.org/2000/svg"><g clip-path="url(#a)"><path d="M2.5 9.334 5.167 11l2-2.333 2 2.667L10.5 9.667l2 .333-2-2-1.333 1.667-2-3.333-2.334 2.5L2.5 6.667V1.995c0-.358.298-.662.665-.662h6.668v4A.667.667 0 0 0 10.5 6h4v7.995a.666.666 0 0 1-.662.672H3.162a.662.662 0 0 1-.662-.662V9.334zm12-4.667h-3.333V1.335L14.5 4.667z" fill="#161616"/></g><defs><clipPath id="a"><path fill="#fff" transform="translate(.5)" d="M0 0h16v16H0z"/></clipPath></defs></svg>