<svg width="16" height="16" viewBox="0 0 16 16" fill="none" xmlns="http://www.w3.org/2000/svg"><path d="M12.223 12.226h-1.776V9.441c0-.664-.014-1.518-.927-1.518-.926 0-1.067.722-1.067 1.47v2.833H6.675V6.5h1.707v.78h.023c.239-.45.819-.925 1.686-.925 1.8 0 2.133 1.186 2.133 2.728v3.143ZM4.67 5.716a1.03 1.03 0 0 1-.395-1.985 1.032 1.032 0 1 1 .394 1.986Zm.89 6.51H3.777V6.5H5.56v5.726ZM13.113 2H2.886A.874.874 0 0 0 2 2.865v10.27c0 .478.396.865.885.865h10.226c.489 0 .889-.387.889-.865V2.865c0-.478-.4-.865-.89-.865h.003Z" fill="#000091"/></svg>