<svg width="80" height="80" fill="none" xmlns="http://www.w3.org/2000/svg"><path d="M5.108 52.985a4.865 4.865 0 0 1-2.893-.954C1.138 51.26.461 50.092.246 48.8a4.944 4.944 0 0 1 4.123-5.661c1.323-.216 2.615.122 3.692.892 1.077.769 1.754 1.938 1.97 3.23a4.944 4.944 0 0 1-4.123 5.662c-.277.062-.524.062-.8.062zm-2.924-4.493c.124.77.554 1.477 1.17 1.939a2.971 2.971 0 0 0 2.215.523c1.63-.246 2.739-1.785 2.462-3.385a3.052 3.052 0 0 0-1.17-1.938 2.97 2.97 0 0 0-2.215-.523c-1.6.246-2.708 1.784-2.462 3.384zM20.646 12.43c0-3.476-2.83-6.276-6.277-6.276-3.446 0-6.277 2.8-6.277 6.277 0 3.446 2.8 6.277 6.277 6.277.708 0 1.385-.154 2-.37l2.37 5.047 1.784-.831-2.4-5.17c1.508-1.138 2.523-2.923 2.523-4.953zm-10.585 0a4.288 4.288 0 0 1 4.277-4.276 4.288 4.288 0 0 1 4.277 4.277c0 2.338-1.877 4.277-4.246 4.277-2.369 0-4.307-1.908-4.307-4.277zM49.046 15.446l-6.03-2.4c.03-.215.061-.4.061-.615a4.95 4.95 0 0 0-4.954-4.954 4.95 4.95 0 0 0-4.954 4.954 4.95 4.95 0 0 0 4.954 4.954c1.816 0 3.385-.985 4.246-2.462l5.939 2.37.738-1.847zm-10.923-.061a2.955 2.955 0 1 1 .002-5.91 2.955 2.955 0 0 1-.002 5.91z" fill="#E1000F"/><path d="m55.23 50.062 4.924-13.539-1.846-.677-4.954 13.6c-1.108-.307-2.277-.523-3.477-.523-7.323 0-13.293 5.97-13.293 13.292 0 7.323 5.97 13.293 13.293 13.293 7.323 0 13.292-5.97 13.292-13.293 0-5.446-3.261-10.092-7.938-12.153zm-5.353 22.892c-2.4 0-4.616-.8-6.4-2.123.246-1.016 1.015-3.108 3.477-4.923.8.4 1.661.646 2.615.646.954 0 1.877-.277 2.677-.677 2.83 2.062 3.446 4.492 3.57 5.292a10.706 10.706 0 0 1-5.94 1.785zM46.369 60.83c0-1.754 1.446-3.2 3.2-3.2 1.754 0 3.2 1.446 3.2 3.2 0 1.754-1.446 3.2-3.2 3.2a3.217 3.217 0 0 1-3.2-3.2zm11.57 8.461c-.493-1.415-1.54-3.353-3.724-5.107.677-.954 1.108-2.093 1.108-3.354a5.765 5.765 0 0 0-5.754-5.754 5.765 5.765 0 0 0-5.754 5.754c0 1.292.431 2.461 1.139 3.415-1.939 1.57-2.954 3.262-3.508 4.616a10.75 10.75 0 0 1-2.308-6.647c0-5.938 4.831-10.738 10.739-10.738 5.907 0 10.738 4.83 10.738 10.738 0 2.708-1.015 5.2-2.677 7.077z" fill="#00008F"/><path d="M42.83 52.677 37.293 46c2.123-2.37 3.477-5.446 3.477-8.892 0-7.323-5.969-13.293-13.292-13.293-7.323 0-13.323 6-13.323 13.323 0 7.324 5.969 13.293 13.292 13.293 3.2 0 6.092-1.17 8.4-3.077l5.477 6.584 1.508-1.261zM16.709 37.139c0-5.939 4.83-10.739 10.738-10.739 5.908 0 10.739 4.83 10.739 10.739 0 2.707-1.016 5.2-2.708 7.107-.492-1.415-1.539-3.354-3.723-5.108.677-.953 1.107-2.092 1.107-3.353a5.765 5.765 0 0 0-5.753-5.754 5.765 5.765 0 0 0-5.754 5.754c0 1.292.43 2.461 1.138 3.415-1.938 1.57-2.954 3.262-3.507 4.615a10.934 10.934 0 0 1-2.277-6.676zm13.6-1.385c0 1.754-1.447 3.2-3.2 3.2a3.217 3.217 0 0 1-3.2-3.2c0-1.754 1.446-3.2 3.2-3.2 1.753 0 3.2 1.446 3.2 3.2zm-2.862 12.123c-2.4 0-4.615-.8-6.4-2.123.246-1.015 1.015-3.108 3.477-4.923.8.4 1.662.646 2.615.646.954 0 1.877-.277 2.677-.677 2.831 2.062 3.446 4.492 3.57 5.292a10.707 10.707 0 0 1-5.939 1.785z" fill="#00008F"/><path d="M31.077 68.123c-.43-1.97-1.97-3.446-3.846-3.815V52h-1.97v12.308h-.03a4.882 4.882 0 0 0-3.108 2.153 4.953 4.953 0 0 0-.677 3.724c.492 2.307 2.554 3.907 4.83 3.907.34 0 .678-.03 1.016-.123a4.882 4.882 0 0 0 3.108-2.154c.708-1.076.954-2.4.677-3.692zm-2.339 2.646c-.43.677-1.107 1.108-1.877 1.292a2.954 2.954 0 0 1-3.507-2.276c-.154-.77-.031-1.57.4-2.246.43-.677 1.107-1.108 1.877-1.293 1.6-.338 3.169.677 3.507 2.277.154.8.031 1.57-.4 2.246z" fill="#E1000F"/><path d="M76.369 21.323c0-7.323-5.97-13.292-13.292-13.292-7.323 0-13.293 5.969-13.293 13.292 0 1.846.4 3.63 1.077 5.23L38.8 31.139l.708 1.847 12.338-4.677c2.338 3.784 6.492 6.307 11.262 6.307 1.846 0 3.6-.369 5.2-1.077l3.2 9.539 1.876-.615-3.323-9.847c3.754-2.369 6.308-6.523 6.308-11.292zm-24.062 0c0-5.938 4.831-10.77 10.77-10.77 5.938 0 10.738 4.832 10.738 10.74 0 2.707-1.015 5.2-2.707 7.107-.493-1.415-1.539-3.385-3.724-5.108.677-.954 1.108-2.092 1.108-3.354a5.765 5.765 0 0 0-5.754-5.753 5.765 5.765 0 0 0-5.754 5.754c0 1.292.431 2.461 1.139 3.415-1.939 1.57-2.954 3.261-3.508 4.615-1.415-1.846-2.308-4.154-2.308-6.646zm13.631-1.384c0 1.753-1.446 3.2-3.2 3.2a3.217 3.217 0 0 1-3.2-3.2c0-1.754 1.446-3.2 3.2-3.2 1.754 0 3.2 1.415 3.2 3.2zm-9.261 10c.246-1.016 1.015-3.108 3.477-4.924.8.4 1.661.646 2.615.646.954 0 1.877-.276 2.677-.676 2.83 2.061 3.446 4.492 3.57 5.292a10.53 10.53 0 0 1-5.909 1.785c-2.43 0-4.646-.8-6.43-2.124zM16.576 41.89l-5.286 2.638.88 1.762 5.286-2.639-.88-1.762z" fill="#00008F"/><path d="M75.046 44.4a4.95 4.95 0 0 0-4.954 4.954c0 .954.277 1.815.739 2.554l-6 4.523L66.06 58l6.123-4.615c.8.584 1.785.923 2.862.923A4.95 4.95 0 0 0 80 49.354a4.95 4.95 0 0 0-4.954-4.954zm0 7.938a2.955 2.955 0 1 1 .002-5.909 2.955 2.955 0 0 1-.002 5.91z" fill="#E1000F"/></svg>