<svg width="81" height="80" fill="none" xmlns="http://www.w3.org/2000/svg"><path fill-rule="evenodd" clip-rule="evenodd" d="M15.666 14a1.001 1.001 0 0 1 0-2 1.001 1.001 0 0 1 0 2zM5.667 70a1.001 1.001 0 0 1 0-2 1.001 1.001 0 0 1 0 2zM75.666 64a1.001 1.001 0 0 1 0-2 1.001 1.001 0 0 1 0 2zM59.666 12a1.001 1.001 0 0 1 0-2 1.001 1.001 0 0 1 0 2z" fill="#CACAFB"/><path d="M14.673 37.602c.08-.924.902-1.602 1.85-1.602h3.143l.117.007a1 1 0 0 1 .883.993l-.006.117a1 1 0 0 1-.994.883h-3v4h3l.117.007A1 1 0 0 1 19.666 44h-3.142l-.149-.006c-.933-.07-1.709-.795-1.709-1.744v-4.5l.007-.148zM28.66 37.602c-.08-.924-.902-1.602-1.85-1.602h-3.143l-.117.007a1 1 0 0 0-.884.993l.007.117a1 1 0 0 0 .994.883h3v4h-3l-.117.007A1 1 0 0 0 23.666 44h3.143l.149-.006c.933-.07 1.709-.795 1.709-1.744v-4.5l-.007-.148zM64.81 36c.948 0 1.77.678 1.85 1.602l.007.148v4.5c0 .949-.776 1.674-1.709 1.744l-.149.006h-3.142a1 1 0 0 1-.117-1.993l.117-.007h3v-4h-3a1 1 0 0 1-.994-.883L60.666 37a1 1 0 0 1 .884-.993l.117-.007h3.142zM52.673 37.602c.08-.924.902-1.602 1.85-1.602h3.143l.117.007a1 1 0 0 1 .883.993l-.006.117a1 1 0 0 1-.993.883h-3v4h3l.116.007A1 1 0 0 1 57.666 44h-3.142l-.149-.006c-.933-.07-1.709-.795-1.709-1.744v-4.5l.007-.148z" fill="#E1000F"/><path fill-rule="evenodd" clip-rule="evenodd" d="M14.666 48a2 2 0 0 0-2 2v6a2 2 0 0 0 2 2h4a2 2 0 0 0 2-2v-6a2 2 0 0 0-2-2h-4zm4 8v-6h-4v6h4zM24.666 48a2 2 0 0 0-2 2v6a2 2 0 0 0 2 2h4a2 2 0 0 0 2-2v-6a2 2 0 0 0-2-2h-4zm4 8v-6h-4v6h4zM52.666 48a2 2 0 0 0-2 2v6a2 2 0 0 0 2 2h4a2 2 0 0 0 2-2v-6a2 2 0 0 0-2-2h-4zm4 8v-6h-4v6h4zM62.666 48a2 2 0 0 0-2 2v6a2 2 0 0 0 2 2h4a2 2 0 0 0 2-2v-6a2 2 0 0 0-2-2h-4zm4 8v-6h-4v6h4z" fill="#E1000F"/><path d="M36.374 12.293a1 1 0 0 0-1.415 0l-14 14-.083.094a1 1 0 0 0 1.498 1.32l14-14 .083-.094a1 1 0 0 0-.083-1.32zM41.251 14.189a1 1 0 0 0-1.27.083L29.285 24.339l-.086.092a1 1 0 0 0 .043 1.322l.091.086a1 1 0 0 0 1.322-.043l10.01-9.423 16.027 15.083.128.111a2 2 0 0 0 1.243.433h9.603l.117-.007A1 1 0 0 0 67.666 30h-9.603L41.352 14.272l-.1-.083zM71.666 30a1 1 0 0 0-.993.883l-.007.117v33h-9a1 1 0 0 0-.993.883l-.007.117a1 1 0 0 0 .884.993l.117.007h10a1 1 0 0 0 .993-.883l.007-.117V31a1 1 0 0 0-1-1zM21.666 64a1 1 0 0 1 .117 1.993l-.117.007h-8a1 1 0 0 1-.116-1.993l.116-.007h8zM10.666 65a1 1 0 1 1-2 0 1 1 0 0 1 2 0z" fill="#000091"/><path fill-rule="evenodd" clip-rule="evenodd" d="M52.666 61a1 1 0 0 0-1-1h-3V45l-.006-.117a1 1 0 0 0-.993-.883h-14l-.117.007a1 1 0 0 0-.883.993v15h-3l-.117.007A1 1 0 0 0 29.666 62h22l.117-.007a1 1 0 0 0 .883-.993zm-11-10v9h5V45.999h-12V60h5v-9a1 1 0 0 1 1.994-.117l.007.117z" fill="#000091"/><path d="M41.666 30a1 1 0 0 1 .117 1.993l-.117.007h-2a1 1 0 0 1-1-1v-2a1 1 0 0 1 1.994-.117l.007.117v1h1z" fill="#000091"/><path fill-rule="evenodd" clip-rule="evenodd" d="M34.666 30a6 6 0 1 1 12 0 6 6 0 0 1-12 0zm6-4a4 4 0 1 1 0 8 4 4 0 0 1 0-8z" fill="#000091"/><path d="M46.666 41a1 1 0 0 0-1-1h-10l-.116.007A1 1 0 0 0 35.667 42h10l.116-.007a1 1 0 0 0 .883-.993zM56.666 65a1 1 0 0 0-1-1h-30l-.116.007A1 1 0 0 0 25.666 66h30l.117-.007a1 1 0 0 0 .883-.993zM24.96 28.293a1 1 0 0 1 1.497 1.32l-.083.094-2 2a1 1 0 0 1-.576.284l-.131.009h-13v29a1 1 0 0 1-.884.993L9.666 62a1 1 0 0 1-.993-.883L8.666 61V31a1 1 0 0 1 .884-.993L9.666 30H23.25l1.71-1.707zM67.666 26a1 1 0 0 1 .117 1.993l-.117.007h-8a1 1 0 0 1-.116-1.993l.117-.007h8zM71.666 28a1 1 0 1 0 0-2 1 1 0 0 0 0 2z" fill="#000091"/></svg>