<svg width="17" height="16" viewBox="0 0 17 16" fill="none" xmlns="http://www.w3.org/2000/svg">
<g clip-path="url(#clip0_11778_289433)">
<path d="M2.6885 1.88384L8.1665 0.666504L13.6445 1.88384C13.7925 1.91675 13.9249 1.99915 14.0198 2.11744C14.1147 2.23573 14.1665 2.38285 14.1665 2.5345V9.1925C14.1665 9.85099 14.0038 10.4993 13.6931 11.0798C13.3823 11.6604 12.9331 12.1553 12.3852 12.5205L8.1665 15.3332L3.94784 12.5205C3.40002 12.1553 2.95081 11.6606 2.64007 11.0801C2.32933 10.4997 2.16666 9.85155 2.1665 9.19317V2.5345C2.16653 2.38285 2.21826 2.23573 2.31316 2.11744C2.40806 1.99915 2.54046 1.91675 2.6885 1.88384V1.88384ZM8.1665 7.33317C8.60853 7.33317 9.03245 7.15758 9.34502 6.84501C9.65758 6.53245 9.83317 6.10853 9.83317 5.6665C9.83317 5.22448 9.65758 4.80055 9.34502 4.48799C9.03245 4.17543 8.60853 3.99984 8.1665 3.99984C7.72448 3.99984 7.30055 4.17543 6.98799 4.48799C6.67543 4.80055 6.49984 5.22448 6.49984 5.6665C6.49984 6.10853 6.67543 6.53245 6.98799 6.84501C7.30055 7.15758 7.72448 7.33317 8.1665 7.33317ZM5.1845 10.6665H11.1485C11.0677 9.9321 10.7187 9.25335 10.1685 8.76032C9.61819 8.26728 8.90534 7.99464 8.1665 7.99464C7.42767 7.99464 6.71482 8.26728 6.16456 8.76032C5.61429 9.25335 5.26532 9.9321 5.1845 10.6665V10.6665Z" fill="#161616"/>
</g>
<defs>
<clipPath id="clip0_11778_289433">
<rect width="16" height="16" fill="white" transform="translate(0.166504)"/>
</clipPath>
</defs>
</svg>
