<svg width="17" height="16" fill="none" xmlns="http://www.w3.org/2000/svg"><g clip-path="url(#a)"><path d="M2.688 1.884 8.166.667l5.479 1.217a.667.667 0 0 1 .521.65v6.659a4 4 0 0 1-1.78 3.328l-4.22 2.812-4.218-2.813a4 4 0 0 1-1.781-3.327V2.534a.667.667 0 0 1 .522-.65zm5.478 5.45a1.667 1.667 0 1 0 0-3.334 1.667 1.667 0 0 0 0 3.333zm-2.982 3.332h5.965a3 3 0 0 0-5.964 0z" fill="#161616"/></g><defs><clipPath id="a"><path fill="#fff" transform="translate(.167)" d="M0 0h16v16H0z"/></clipPath></defs></svg>