<svg width="17" height="16" fill="none" xmlns="http://www.w3.org/2000/svg"><g clip-path="url(#a)"><path d="M8.5 7.333a3.333 3.333 0 0 1 3.334 3.334v4H5.167v-4A3.333 3.333 0 0 1 8.5 7.334zM4.026 9.338a4.655 4.655 0 0 0-.187 1.1l-.006.229v4h-2v-3a2.333 2.333 0 0 1 2.08-2.32l.113-.01zm8.949 0a2.334 2.334 0 0 1 2.192 2.329v3h-2v-4c0-.462-.067-.908-.192-1.33zM4.167 5.334a1.667 1.667 0 1 1 0 3.333 1.667 1.667 0 0 1 0-3.333zm8.667 0a1.667 1.667 0 1 1 0 3.333 1.667 1.667 0 0 1 0-3.333zm-4.334-4a2.667 2.667 0 1 1 0 5.333 2.667 2.667 0 0 1 0-5.333z" fill="#161616"/></g><defs><clipPath id="a"><path fill="#fff" transform="translate(.5)" d="M0 0h16v16H0z"/></clipPath></defs></svg>