<svg width="182" height="90" viewBox="0 0 182 90" fill="none" xmlns="http://www.w3.org/2000/svg">
<path d="M56.8326 0H35.3829C35.4544 0.0239143 35.523 0.0559193 35.5873 0.0953971L36.127 0.383973C36.4139 0.518133 36.66 0.726372 36.8403 0.98736C36.914 1.10184 37.0281 1.3284 36.952 1.47865C36.8759 1.66945 36.8403 1.96995 36.6501 2.04627C36.4001 2.14855 36.1256 2.17508 35.8608 2.12259C35.7069 2.11569 35.5544 2.09006 35.4066 2.04627C35.9725 2.27284 36.5003 2.53756 36.8759 3.06702C36.914 3.14333 37.0661 3.18149 37.2159 3.18149C37.254 3.18149 37.254 3.25543 37.254 3.29358C37.1779 3.3699 37.1042 3.40806 37.1398 3.52015H37.254C37.4418 3.44384 37.4037 3.06702 37.6676 3.18149C37.76 3.23851 37.8273 3.32876 37.8555 3.43382C37.8838 3.53888 37.871 3.6508 37.8198 3.74672C37.678 3.88423 37.5262 4.01098 37.3657 4.12592C37.3481 4.16782 37.3391 4.21283 37.3391 4.25829C37.3391 4.30375 37.3481 4.34875 37.3657 4.39065C37.4611 4.52606 37.526 4.68068 37.5559 4.84379C37.6676 5.10851 37.7057 5.4114 37.8198 5.67374C37.9978 6.2236 38.0869 6.79848 38.0837 7.37658C38.0837 7.67708 37.9315 7.94181 38.0457 8.24469C38.1452 8.52783 38.2845 8.79525 38.4593 9.03887C38.61 9.23088 38.7482 9.43243 38.873 9.64226C39.0989 10.0215 39.515 10.3983 39.3271 10.8538C39.213 11.1185 38.7993 11.0923 38.5354 11.2306C38.3096 11.419 38.4974 11.7219 38.6091 11.9103C38.7993 12.2514 38.3833 12.4779 38.1194 12.5924C38.1954 12.7045 38.3571 12.6663 38.3833 12.7427C38.4213 12.9311 38.6091 13.0456 38.4974 13.234C38.3452 13.4605 37.8935 13.575 38.1194 13.9137C38.2715 14.1784 38.174 14.4717 38.0837 14.746C38.0265 14.89 37.9343 15.0173 37.8156 15.1164C37.6968 15.2155 37.5552 15.2833 37.4037 15.3136C37.172 15.3809 36.9278 15.3931 36.6905 15.3494C36.6179 15.3068 36.5366 15.2815 36.4527 15.2755C35.8132 15.1991 35.1713 15.0107 34.5317 15.0107C34.3504 15.039 34.1731 15.0895 34.0039 15.161C33.8401 15.2823 33.6873 15.418 33.5475 15.5664V15.5664L33.4666 15.657L33.4167 15.7167C33.4167 15.7167 33.3953 15.7405 33.3858 15.7548C33.2762 15.8928 33.1769 16.0387 33.0886 16.1913L33.072 16.2199L33.0434 16.2724C32.9238 16.4928 32.8281 16.7254 32.7581 16.9664C32.5014 17.8321 32.6131 18.5738 32.7938 18.7551C32.8437 18.8052 34.0372 19.1748 34.8693 19.5445C35.1767 19.6754 35.4746 19.8276 35.7609 20H56.8231L56.8326 0Z" fill="#E1000F"/>
<path d="M36.6581 7.29545C36.8079 7.3336 37.0338 7.3336 37.0338 7.40992C36.9601 7.71281 36.506 7.78674 36.2801 8.08963H36.1684C36.0543 8.16594 36.0923 8.35435 35.9782 8.35435C35.8645 8.32904 35.7457 8.34246 35.6406 8.39251C35.7078 8.47617 35.7947 8.54176 35.8935 8.58339C35.9923 8.62502 36.0998 8.64138 36.2064 8.63101C36.2379 8.64266 36.2653 8.66334 36.2852 8.69048C36.305 8.71761 36.3165 8.75001 36.3182 8.78364C36.3473 8.78077 36.3744 8.76718 36.3942 8.74548C36.4323 8.74548 36.4703 8.74548 36.4703 8.78364V8.93389C36.3562 9.08414 36.1684 9.01021 36.0162 9.04598C36.3005 9.1224 36.5997 9.1224 36.884 9.04598C37.1217 8.97205 36.884 8.59285 37.0338 8.40444C36.9601 8.40444 37.0338 8.29235 36.9601 8.29235C37.0338 8.21603 37.1099 8.10155 37.1859 8.05385C37.2298 8.05512 37.2734 8.04556 37.3128 8.02602C37.3522 8.00648 37.3862 7.97755 37.4118 7.94176C37.4118 7.86544 37.2596 7.82728 37.2977 7.75335C37.5235 7.60072 37.7114 7.37415 37.6377 7.14758C37.5996 7.03549 37.2977 7.03549 37.1099 6.95917C36.897 6.91563 36.6765 6.92879 36.4703 6.99733C36.2773 7.02917 36.0879 7.07949 35.9045 7.14758C35.6484 7.23572 35.4077 7.36369 35.1912 7.52678C35.4601 7.42502 35.7368 7.34526 36.0186 7.28829C36.2312 7.26345 36.4461 7.26585 36.6581 7.29545V7.29545Z" fill="#9D9D9C"/>
<path d="M24.667 17.6485C24.8809 17.4338 25.0973 17.2049 25.3136 16.9735C25.7009 16.5147 26.1204 16.0843 26.569 15.6857C26.6991 15.5674 26.8364 15.4575 26.9803 15.3565C27.0159 15.3208 27.0159 15.2445 27.054 15.2063C26.8661 15.2826 26.752 15.4448 26.5642 15.5092C26.5262 15.5092 26.4905 15.471 26.5262 15.4329L26.9303 15.13H26.9042C26.8662 15.13 26.8661 15.0942 26.8661 15.056C26.3764 14.9797 25.9984 15.3208 25.6608 15.6213C25.5847 15.6594 25.5086 15.5855 25.4729 15.5855C24.9071 15.7739 24.4934 16.2652 23.9276 16.4918V16.4083C23.7017 16.4846 23.4806 16.6206 23.25 16.673C22.9356 16.7236 22.6164 16.7364 22.299 16.7112C21.8383 16.7641 21.3811 16.8437 20.9296 16.9497H20.8915C20.6429 17.0142 20.4033 17.1095 20.1783 17.2335L20.1521 17.2478C20.1359 17.2702 20.1184 17.2917 20.0998 17.3122C20.0293 17.4074 19.9413 17.4884 19.8407 17.5507C19.6158 17.6923 19.4063 17.8569 19.2154 18.042C19.1984 18.055 19.1774 18.0618 19.156 18.0611C18.9539 18.2566 18.7542 18.4522 18.5473 18.643C18.5119 18.6603 18.4718 18.6653 18.4332 18.6573V18.6573C18.4403 18.6448 18.4482 18.6329 18.457 18.6215C18.4879 18.5667 18.5188 18.5142 18.5521 18.4617C18.5854 18.4093 18.6258 18.3449 18.6638 18.2852C18.7019 18.2256 18.7684 18.1302 18.8255 18.0467C18.832 18.0401 18.8357 18.0311 18.8357 18.0217C18.8357 18.0123 18.832 18.0033 18.8255 17.9967C18.8112 17.9837 18.7924 17.9768 18.7732 17.9776C18.9658 17.7957 19.1779 17.6358 19.4056 17.5006V17.5006C19.3794 17.5006 19.3438 17.5006 19.3628 17.4648C19.3818 17.429 19.4056 17.3957 19.427 17.3599L19.4413 17.3265L19.4127 17.2979C19.3496 17.3337 19.29 17.3752 19.2344 17.4219C19.1441 17.503 19.0727 17.6604 18.9372 17.6604H18.8802C18.8657 17.6589 18.8519 17.654 18.8398 17.6461V17.6461C18.8452 17.6345 18.8515 17.6233 18.8588 17.6127L18.8754 17.5817L18.8897 17.5554L18.9158 17.5078L18.9372 17.472C18.9515 17.4434 18.9681 17.4171 18.9848 17.3885L19.0086 17.348L19.049 17.2812C19.068 17.2478 19.049 17.2239 19.0204 17.212C19.0897 17.1203 19.1771 17.044 19.2772 16.9878V16.9878C19.4199 16.9139 19.5649 16.8257 19.7099 16.7493L19.7717 16.6945C19.5599 16.7672 19.3585 16.8674 19.1726 16.9926C19.1498 17.0009 19.1282 17.0121 19.1084 17.026C19.091 17.0299 19.0729 17.0289 19.0561 17.023C19.0393 17.0171 19.0244 17.0065 19.0133 16.9926C19.0105 16.9833 19.0105 16.9733 19.0133 16.964C19.0513 16.8877 19.1631 16.8495 19.2511 16.7756C19.2891 16.7756 19.3248 16.7756 19.3248 16.8137C20.5325 15.8598 22.1777 16.0983 23.5828 15.6046L23.9228 15.3661C24.1106 15.2922 24.2604 15.1037 24.4887 14.9893C24.7922 14.7783 25.0172 14.4721 25.1282 14.1188C25.1237 14.0907 25.1104 14.0648 25.0902 14.0448C24.6145 14.5574 24.0508 14.9799 23.4259 15.2922C22.6342 15.7071 21.7617 15.6308 20.9391 15.7453C20.9771 15.669 21.0508 15.669 21.1269 15.669C21.1269 15.5569 21.203 15.5187 21.2791 15.4424H21.3908C21.4288 15.4424 21.4288 15.3661 21.4669 15.3661C21.5406 15.3661 21.6547 15.3303 21.6167 15.3303C21.5049 15.1777 21.2791 15.4424 21.0889 15.3303C21.1649 15.254 21.1269 15.1395 21.203 15.1037H21.3528C21.3608 15.0459 21.3875 14.9923 21.4288 14.9511C21.9947 14.6101 22.5225 14.3477 23.0479 14.0448C22.9362 14.0448 22.8601 14.1569 22.7483 14.083C22.822 14.083 22.7483 13.9685 22.822 13.9685C23.2381 13.8564 23.5757 13.6275 23.9918 13.4772C23.8396 13.4772 23.7279 13.5917 23.5757 13.4772C23.6518 13.4391 23.6898 13.3651 23.8135 13.3651V13.2507C23.8135 13.2125 23.8515 13.2125 23.8895 13.2125C23.8607 13.2085 23.834 13.1951 23.8135 13.1743C23.8515 13.1004 23.9656 13.1362 24.0512 13.0622C24.0155 13.0622 23.9395 13.0622 23.9395 13.0241C24.0691 12.8904 24.2436 12.8096 24.4292 12.7975C24.3912 12.7212 24.2771 12.7975 24.2771 12.7212C24.2771 12.683 24.3151 12.683 24.3531 12.683H24.2771C24.2034 12.6449 24.2414 12.571 24.2414 12.5328C24.4792 12.2681 24.4792 11.927 24.579 11.6265C24.541 11.6265 24.5053 11.6265 24.5053 11.5884C24.1273 12.0033 23.5258 12.1536 22.9599 12.3038H22.7555C22.6519 12.3436 22.5411 12.3608 22.4304 12.3542C22.3197 12.3476 22.2117 12.3175 22.1136 12.2657C21.977 12.1722 21.8497 12.066 21.7332 11.9485C21.4351 11.7603 21.1159 11.6082 20.7822 11.4953C19.846 11.1885 18.8636 11.048 17.8792 11.0804C18.2953 10.8419 18.7518 10.8419 19.1987 10.7012C19.8383 10.5128 20.4422 10.2862 21.1198 10.3244C20.9953 10.3053 20.8686 10.3053 20.7441 10.3244C20.2163 10.2862 19.6885 10.4364 19.1227 10.5628C18.747 10.6368 18.4094 10.7894 18.0314 10.8657C17.8055 10.9397 17.6914 11.1662 17.4275 11.1305V11.016C17.8055 10.5628 18.2573 10.1097 18.854 10.062C19.534 9.94753 20.1735 10.062 20.8511 10.1359C21.3325 10.1885 21.8093 10.277 22.2776 10.4007C22.4678 10.4007 22.5153 10.7036 22.6556 10.7417C22.8934 10.818 23.1073 10.7417 23.3332 10.892C23.3332 10.818 23.2952 10.7417 23.3332 10.6654C23.4854 10.5151 23.6732 10.7036 23.823 10.6272C24.1249 10.4388 23.5591 10.1002 23.4093 9.83544C23.4133 9.80651 23.4267 9.7797 23.4473 9.75912C23.7469 10.0238 23.9751 10.3267 24.3508 10.5151C24.5386 10.5915 24.9903 10.7036 24.9166 10.477C24.7288 10.062 24.3508 9.72096 24.0488 9.34415V9.19151C23.9751 9.19151 23.9751 9.15335 23.9371 9.11758V8.96494C23.7849 8.88862 23.823 8.73837 23.7469 8.62628C23.6351 8.43549 23.7112 8.17076 23.6351 7.94419C23.5662 7.73528 23.516 7.52057 23.4854 7.30265C23.3974 6.65633 23.2452 6.0911 23.1596 5.48533C23.0836 4.76985 23.5733 4.19986 23.9133 3.55831C24.1586 3.07286 24.5216 2.65706 24.9689 2.34915C25.1169 1.89921 25.3602 1.48672 25.6822 1.14C26.0084 0.803874 26.4057 0.545513 26.8448 0.383973C27.1752 0.237702 27.5133 0.109523 27.8576 0L2 0V20H20.3067C21.0199 19.4825 21.7332 19.2368 22.7412 18.7408C23.2191 18.507 24.3008 18.011 24.667 17.6485ZM18.8802 14.9344C18.8065 14.9344 18.6424 14.9726 18.6923 14.8963C18.7304 14.7078 18.9943 14.7078 19.1441 14.6315C19.2201 14.5934 19.3319 14.5194 19.408 14.5576C19.484 14.6697 19.5958 14.6315 19.6719 14.7078C19.4389 14.9344 19.1369 14.8223 18.8802 14.9344ZM13.11 14.1021C13.0892 14.0826 13.0758 14.0564 13.072 14.0281C13.5346 13.4262 13.9383 12.7809 14.2773 12.1011C14.7554 11.8182 15.1856 11.4608 15.5517 11.0422C16.1455 10.3596 16.8606 9.79348 17.6605 9.37276C17.9814 9.27128 18.3274 9.28392 18.64 9.40854C18.5283 9.56117 18.3381 9.52301 18.1883 9.64703C18.1679 9.64955 18.1471 9.64766 18.1274 9.64149C18.1077 9.63532 18.0896 9.62501 18.0742 9.61126C18.0886 9.5962 18.0995 9.57812 18.1061 9.55832C18.1127 9.53852 18.1148 9.5175 18.1122 9.49678C17.7366 9.91176 17.2088 10.1026 16.9069 10.5938C16.6881 10.9707 16.5383 11.4477 16.0486 11.5717C15.8964 11.6098 16.0866 11.4572 16.0105 11.4953C14.8384 12.2132 14.0134 13.0837 13.11 14.1021ZM16.2364 11.6098C16.1984 11.6838 16.1579 11.6933 16.1223 11.7601C16.0938 11.8279 16.0401 11.8818 15.9725 11.9103C15.9345 11.9103 15.8964 11.9103 15.8964 11.8722C15.9147 11.795 15.9519 11.7236 16.0046 11.6645C16.0573 11.6053 16.1239 11.5603 16.1984 11.5335C16.2364 11.5335 16.2364 11.5717 16.2364 11.6098ZM17.9862 17.2716C17.9637 17.3146 17.932 17.352 17.8935 17.3813C17.9411 17.3813 17.9743 17.4124 17.9434 17.441C17.8631 17.5261 17.7659 17.5935 17.6581 17.6389C17.6384 17.6417 17.6184 17.6417 17.5987 17.6389C17.5535 17.6842 17.506 17.7272 17.4584 17.7701C17.4109 17.813 17.2064 17.7701 17.2706 17.7248C17.3348 17.6795 17.4537 17.5483 17.5488 17.4624C17.6011 17.4124 17.6581 17.367 17.7057 17.3122C17.7289 17.2802 17.756 17.2514 17.7865 17.2263C17.8174 17.2144 18.0171 17.1977 17.9862 17.2716V17.2716ZM17.311 16.9592C17.1708 17.0594 17.0305 17.1596 16.8807 17.2454C16.7309 17.3313 16.5502 17.4124 16.3838 17.4839C16.3766 17.4741 16.3662 17.4673 16.3544 17.4646C16.3426 17.462 16.3302 17.4638 16.3196 17.4696C16.1809 17.5478 16.0537 17.645 15.9416 17.7582C15.923 17.7744 15.9055 17.792 15.8893 17.8106L15.837 17.8631C15.8108 17.8893 15.7847 17.9156 15.7538 17.9513C15.741 17.9722 15.724 17.99 15.7038 18.0038C15.6801 18.0181 15.6159 18.0181 15.623 17.9752L15.5564 18.0086C15.5359 18.0183 15.516 18.0294 15.497 18.042C15.4885 18.0395 15.4794 18.0395 15.4708 18.042C15.4624 18.0387 15.4531 18.0387 15.4447 18.042C15.3971 18.0777 15.352 18.1159 15.3068 18.1565C15.2278 18.2294 15.1554 18.3092 15.0905 18.3949V18.3949L15.0786 18.4093V18.4259L15.0524 18.4617C15.0439 18.4702 15.0332 18.476 15.0215 18.4784L15.0072 18.4546C15.0027 18.4486 14.9988 18.4422 14.9954 18.4355C14.9954 18.4164 14.974 18.3973 14.9644 18.3759C14.9636 18.3695 14.9636 18.3631 14.9644 18.3568C15.0049 18.3139 15.0429 18.2685 15.0833 18.2208L15.1214 18.1731L15.1237 18.1254L15.1451 18.0968C15.1879 18.042 15.226 17.9895 15.264 17.937L15.2806 17.9132C15.2997 17.887 15.3163 17.8583 15.333 17.8321C15.3478 17.8074 15.3613 17.782 15.3734 17.7558V17.7558V17.7415L15.409 17.6532C15.4081 17.6445 15.4081 17.6357 15.409 17.627C15.4083 17.6135 15.4083 17.6 15.409 17.5865V17.5865L15.4233 17.5316C15.4252 17.5275 15.4262 17.523 15.4262 17.5185C15.4262 17.514 15.4252 17.5095 15.4233 17.5054C15.4666 17.4323 15.5167 17.3637 15.5731 17.3003L15.5564 17.3122C15.5018 17.3456 15.4661 17.3957 15.4162 17.4314C15.3662 17.4672 15.2997 17.4124 15.3472 17.3766C15.3774 17.3522 15.4059 17.3259 15.4328 17.2979V17.2979C15.4928 17.2302 15.5571 17.1664 15.6254 17.1071C15.6682 17.0761 15.7062 17.0475 15.7395 17.0188C15.7462 17.0146 15.7519 17.0089 15.7561 17.0021C15.7827 16.9687 15.8113 16.9368 15.8417 16.9067V16.9067C16.2007 16.5562 16.8094 16.5729 17.2849 16.3511C17.4727 16.2747 17.6986 16.3868 17.8864 16.3511C18.0046 16.3398 18.1234 16.3656 18.2264 16.425C17.9292 16.5562 17.6201 16.766 17.311 16.9592ZM18.0813 14.3358C18.0457 14.2976 18.1955 14.3358 18.2335 14.2595H17.9292C17.8911 14.2595 17.8911 14.2213 17.8911 14.1832C17.7033 14.2213 17.4774 14.2976 17.2896 14.3358C17.0257 14.4097 16.7999 14.5981 16.4979 14.6745C16.0842 14.8271 15.7443 15.1658 15.2925 15.3184C15.2545 15.3184 15.2545 15.2802 15.2545 15.2421C15.2925 15.1276 15.4423 15.0918 15.5184 14.9773C15.5184 14.9392 15.5184 14.901 15.4804 14.901C15.7823 14.486 16.1936 14.2595 16.574 13.9184V13.8063C16.6857 13.6537 16.8736 13.5798 16.9496 13.389C17.0268 13.231 17.1625 13.1095 17.3277 13.0503C17.2896 13.0122 17.2135 13.0122 17.2135 12.9358C17.0638 12.9358 16.9116 13.0122 16.7618 12.8977C16.8285 12.8337 16.9103 12.7877 16.9996 12.7641C16.9651 12.7574 16.9345 12.7378 16.914 12.7093C16.8759 12.633 16.9877 12.5495 17.1018 12.5209C17.254 12.4827 17.4418 12.4827 17.5559 12.3682C17.292 12.3325 16.9901 12.4446 16.7262 12.2943C16.8882 11.8086 17.2282 11.4029 17.6772 11.1591C17.7152 11.1591 17.7913 11.1591 17.7913 11.1972C17.7945 11.2862 17.7658 11.3734 17.7104 11.443C17.655 11.5126 17.5766 11.5599 17.4893 11.5764C17.7986 11.6146 18.102 11.6907 18.3928 11.803C18.3547 11.8769 18.281 11.8412 18.243 11.8412C18.4308 11.9533 18.6567 11.8769 18.8445 12.0296C18.7328 12.1417 18.6068 12.0296 18.5069 12.0296C19.6742 12.3682 20.9177 12.633 21.8972 13.389C21.0697 13.7676 20.196 14.0347 19.2986 14.1832C19.1965 14.1895 19.094 14.1766 18.9967 14.145C18.9967 14.1832 18.9967 14.2595 18.9586 14.2595C18.8285 14.2438 18.6968 14.2706 18.583 14.3358C18.5072 14.382 18.4201 14.406 18.3315 14.4052C18.2428 14.4043 18.1562 14.3787 18.0813 14.331V14.3358Z" fill="#000091"/>
<path d="M8.925 42.627C9.611 42.627 10.248 42.515 10.836 42.291C11.424 42.053 11.928 41.738 12.348 41.346V38.868H8.61V36.159H15.33V42.417C14.644 43.327 13.748 44.055 12.642 44.601C11.536 45.147 10.297 45.42 8.925 45.42C7.735 45.42 6.643 45.21 5.649 44.79C4.669 44.37 3.829 43.81 3.129 43.11C2.429 42.41 1.883 41.591 1.491 40.653C1.099 39.701 0.903 38.7 0.903 37.65C0.903 36.6 1.092 35.606 1.47 34.668C1.848 33.716 2.38 32.89 3.066 32.19C3.752 31.49 4.578 30.93 5.544 30.51C6.51 30.09 7.567 29.88 8.715 29.88C10.045 29.88 11.242 30.16 12.306 30.72C13.37 31.266 14.238 31.98 14.91 32.862L12.558 34.689C12.138 34.087 11.599 33.604 10.941 33.24C10.297 32.862 9.555 32.673 8.715 32.673C8.029 32.673 7.392 32.806 6.804 33.072C6.216 33.324 5.712 33.674 5.292 34.122C4.886 34.556 4.564 35.081 4.326 35.697C4.088 36.299 3.969 36.95 3.969 37.65C3.969 38.35 4.088 39.008 4.326 39.624C4.578 40.226 4.921 40.751 5.355 41.199C5.803 41.633 6.328 41.983 6.93 42.249C7.546 42.501 8.211 42.627 8.925 42.627ZM25.3624 29.88C26.5104 29.88 27.5604 30.09 28.5124 30.51C29.4784 30.93 30.3044 31.49 30.9904 32.19C31.6764 32.89 32.2084 33.716 32.5864 34.668C32.9644 35.606 33.1534 36.6 33.1534 37.65C33.1534 38.7 32.9644 39.701 32.5864 40.653C32.2084 41.591 31.6764 42.41 30.9904 43.11C30.3044 43.81 29.4784 44.37 28.5124 44.79C27.5604 45.21 26.5104 45.42 25.3624 45.42C24.2144 45.42 23.1574 45.21 22.1914 44.79C21.2254 44.37 20.3994 43.81 19.7134 43.11C19.0274 42.41 18.4954 41.591 18.1174 40.653C17.7394 39.701 17.5504 38.7 17.5504 37.65C17.5504 36.6 17.7394 35.606 18.1174 34.668C18.4954 33.716 19.0274 32.89 19.7134 32.19C20.3994 31.49 21.2254 30.93 22.1914 30.51C23.1574 30.09 24.2144 29.88 25.3624 29.88ZM25.3624 42.627C26.0484 42.627 26.6784 42.501 27.2524 42.249C27.8404 41.983 28.3374 41.633 28.7434 41.199C29.1634 40.751 29.4924 40.226 29.7304 39.624C29.9684 39.008 30.0874 38.35 30.0874 37.65C30.0874 36.95 29.9684 36.299 29.7304 35.697C29.4924 35.081 29.1634 34.556 28.7434 34.122C28.3374 33.674 27.8404 33.324 27.2524 33.072C26.6784 32.806 26.0484 32.673 25.3624 32.673C24.6764 32.673 24.0394 32.806 23.4514 33.072C22.8634 33.324 22.3594 33.674 21.9394 34.122C21.5334 34.556 21.2114 35.081 20.9734 35.697C20.7354 36.299 20.6164 36.95 20.6164 37.65C20.6164 38.35 20.7354 39.008 20.9734 39.624C21.2114 40.226 21.5334 40.751 21.9394 41.199C22.3594 41.633 22.8634 41.983 23.4514 42.249C24.0394 42.501 24.6764 42.627 25.3624 42.627ZM44.6806 39.498V30.3H47.6626V39.246C47.6626 41.164 47.1236 42.676 46.0456 43.782C44.9816 44.874 43.5326 45.42 41.6986 45.42C39.8646 45.42 38.4156 44.874 37.3516 43.782C36.2876 42.676 35.7556 41.164 35.7556 39.246V30.3H38.7376V39.498C38.7376 40.478 39.0036 41.248 39.5356 41.808C40.0676 42.354 40.7956 42.627 41.7196 42.627C42.6296 42.627 43.3506 42.354 43.8826 41.808C44.4146 41.248 44.6806 40.478 44.6806 39.498ZM49.519 30.3H52.69L57.037 41.787L61.384 30.3H64.555L58.99 45H55.084L49.519 30.3ZM66.825 45V30.3H75.393V32.841H69.807V36.243H74.553V38.784H69.807V42.459H75.393V45H66.825ZM78.8581 45V30.3H83.3521C84.9621 30.3 86.2361 30.692 87.1741 31.476C88.1121 32.26 88.5811 33.331 88.5811 34.689C88.5811 35.571 88.3711 36.341 87.9511 36.999C87.5451 37.643 86.9711 38.14 86.2291 38.49L90.8491 45H87.2791L83.3731 39.057H81.8401V45H78.8581ZM83.5201 32.841H81.8401V36.516H83.5201C84.1501 36.516 84.6401 36.355 84.9901 36.033C85.3401 35.711 85.5151 35.249 85.5151 34.647C85.5151 34.087 85.3401 33.646 84.9901 33.324C84.6401 33.002 84.1501 32.841 83.5201 32.841ZM92.696 45V30.3H96.518L103.091 40.821V30.3H106.073V45H102.251L95.678 34.437V45H92.696ZM110.184 45V30.3H118.752V32.841H113.166V36.243H117.912V38.784H113.166V42.459H118.752V45H110.184ZM122.217 45V30.3H125.976L129.525 36.348L133.074 30.3H136.833V45H133.851V34.542L130.575 39.96H128.475L125.199 34.542V45H122.217ZM140.936 45V30.3H149.504V32.841H143.918V36.243H148.664V38.784H143.918V42.459H149.504V45H140.936ZM152.969 45V30.3H156.791L163.364 40.821V30.3H166.346V45H162.524L155.951 34.437V45H152.969ZM168.945 33.009V30.3H180.999V33.009H176.463V45H173.481V33.009H168.945Z" fill="black"/>
<path d="M49.77 84.8654C50.1696 84.8654 50.5136 85.1684 50.33 85.9354L48.471 86.3666C48.794 85.5041 49.3308 84.8654 49.7607 84.8654H49.77ZM50.7831 87.8561H50.4183C49.9535 88.4063 49.4609 88.8375 48.9659 88.8375C48.471 88.8375 48.2014 88.5368 48.2014 87.8561C48.2025 87.5804 48.2313 87.3055 48.2874 87.0356L51.2688 86.0542C51.8497 84.6719 51.1503 84.0682 50.3393 84.0682C48.9287 84.0682 47.3184 86.4319 47.3184 88.4972C47.3184 89.4296 47.7599 89.9331 48.4477 89.9331C49.2564 89.9331 50.0953 89.1452 50.7715 87.8492L50.7831 87.8561ZM50.1813 83.5111L52.2727 81.546V81.3129H51.141L49.8513 83.5041L50.1813 83.5111ZM43.7467 84.891H44.7366L43.1844 89.1988C43.0449 89.5648 43.2401 89.9331 43.6166 89.9331C44.5089 89.9331 45.952 89.0473 46.4562 87.8352H46.1774C45.7777 88.2571 45.0155 88.8189 44.3579 88.9378L45.8009 84.8887H47.2765L47.4601 84.2733H46.0287L46.5771 82.7208H46.0078L44.9853 84.2733L43.77 84.4458L43.7467 84.891ZM42.4105 84.6859C42.4402 84.6222 42.4542 84.5523 42.4515 84.4821C42.4487 84.4118 42.4292 84.3433 42.3946 84.2821C42.3601 84.221 42.3114 84.169 42.2527 84.1306C42.194 84.0921 42.127 84.0684 42.0573 84.0612C41.1952 84.0612 40.1727 84.8374 39.7638 85.926H40.0728C40.3517 85.5274 40.8257 85.0845 41.2672 85.0076L39.6081 89.3131C39.5755 89.3767 39.5593 89.4476 39.5609 89.5191C39.5624 89.5907 39.5817 89.6607 39.617 89.7229C39.6522 89.7851 39.7024 89.8376 39.7629 89.8755C39.8234 89.9134 39.8924 89.9356 39.9636 89.9401C40.7816 89.9401 41.739 89.1522 42.148 88.0753H41.8691C41.5879 88.4739 41.1139 88.9168 40.6747 88.9914L42.4105 84.6859ZM42.7126 82.5274C42.8059 82.5277 42.8983 82.5095 42.9846 82.4739C43.0708 82.4383 43.1492 82.386 43.2153 82.3199C43.2814 82.2539 43.3338 82.1754 43.3695 82.089C43.4053 82.0026 43.4237 81.91 43.4237 81.8164C43.4237 81.6272 43.3488 81.4458 43.2154 81.312C43.0821 81.1782 42.9012 81.1031 42.7126 81.1031C42.524 81.1031 42.3432 81.1782 42.2098 81.312C42.0765 81.4458 42.0016 81.6272 42.0016 81.8164C42 81.9104 42.0173 82.0037 42.0525 82.0909C42.0877 82.178 42.1401 82.2571 42.2064 82.3235C42.2728 82.3899 42.3519 82.4421 42.4388 82.4771C42.5258 82.5122 42.6189 82.5293 42.7126 82.5274V82.5274ZM33.2316 89.1336C33.0178 89.6208 33.2316 89.9331 33.7173 89.9331C34.0077 89.9331 34.1356 89.8562 34.2541 89.5438L35.395 86.5135C35.9225 85.8654 37.0101 85.1754 37.44 85.1754C37.7514 85.1754 37.7095 85.4342 37.505 85.8235L35.7715 89.1988C35.7306 89.2741 35.7098 89.3587 35.7111 89.4445C35.7125 89.5302 35.7359 89.6141 35.7792 89.6881C35.8225 89.762 35.8841 89.8234 35.9581 89.8664C36.0321 89.9093 36.1159 89.9323 36.2014 89.9331C37.0635 89.9331 38.086 89.1545 38.495 88.0683H38.2138C37.9349 88.4669 37.4609 88.9098 37.0194 88.9844L38.5252 85.9307C38.7001 85.6084 38.8002 85.2506 38.818 84.8841C38.8296 84.7753 38.8172 84.6652 38.7815 84.5618C38.7459 84.4584 38.688 84.3641 38.6118 84.2857C38.5357 84.2074 38.4433 84.1468 38.3411 84.1084C38.239 84.07 38.1296 84.0547 38.0209 84.0635C37.2773 84.0635 36.5244 84.905 35.6321 85.94V85.1428C35.6321 84.5694 35.4485 84.0635 34.9349 84.0635C34.6119 84.0635 34.3005 84.3433 34.0054 84.7419V84.8514C34.5631 84.8188 34.8118 85.6603 34.4144 86.5461L33.2316 89.1336ZM33.2107 85.3782C33.4152 84.6789 33.3083 84.0612 32.7692 84.0612C32.1348 84.0612 31.9744 84.5461 31.3284 85.9377V85.1405C31.3284 84.567 31.1449 84.0612 30.6313 84.0612C30.0294 84.0612 29.4694 84.9936 29.0604 85.926H29.3393C29.6297 85.5041 29.8993 85.257 30.1154 85.257C30.3734 85.257 30.5128 85.6556 30.1154 86.5414L28.9535 89.1312C28.7397 89.6184 28.9535 89.9308 29.4392 89.9308C29.7297 89.9308 29.8575 89.8539 29.976 89.5415L31.117 86.5111C31.44 86.1125 31.7304 85.7652 32.0976 85.3782H33.2107ZM26.6042 84.8584C27.0016 84.8584 27.3478 85.1615 27.1642 85.9284L25.3052 86.3596C25.6282 85.4971 26.1673 84.8584 26.5972 84.8584H26.6042ZM27.6197 87.8492H27.292C26.8273 88.3993 26.3346 88.8305 25.8397 88.8305C25.3447 88.8305 25.0775 88.5298 25.0775 87.8492C25.0774 87.5734 25.1062 87.2984 25.1634 87.0286L28.1425 86.0473C28.7235 84.6649 28.024 84.0612 27.213 84.0612C25.8048 84.0612 24.1921 86.4249 24.1921 88.4902C24.1921 89.4226 24.6336 89.9261 25.3215 89.9261C26.1278 89.9261 26.969 89.1382 27.6452 87.8422L27.6197 87.8492ZM20.6205 84.898H21.6104L20.0395 89.1988C19.9001 89.5648 20.093 89.9331 20.4694 89.9331C21.3641 89.9331 22.7932 89.0473 23.3114 87.8352H23.0302C22.6328 88.2571 21.8683 88.8189 21.213 88.9378L22.6445 84.898H24.1201L24.3013 84.2826H22.8768L23.4253 82.7302H22.8583L21.8358 84.2826L20.6205 84.4551V84.898ZM15.1875 88.2664C15.1875 86.94 16.6607 85.1381 17.4903 85.1381C17.6605 85.1365 17.83 85.1576 17.9946 85.2011L17.1348 87.5018C16.6398 88.1056 15.8753 88.8398 15.5081 88.8398C15.3036 88.8398 15.1758 88.6674 15.1758 88.2664H15.1875ZM19.7049 83.8374L19.2541 83.8048L18.7475 84.3013H18.6406C16.1867 84.3013 14.0674 87.0659 14.0674 89.073C14.0568 89.1918 14.0722 89.3114 14.1127 89.4236C14.1531 89.5358 14.2176 89.6377 14.3016 89.7221C14.3856 89.8066 14.487 89.8715 14.5987 89.9124C14.7104 89.9533 14.8296 89.9691 14.9481 89.9588C15.5848 89.9588 16.2076 89.052 16.907 88.0799L16.8745 88.4249C16.7885 89.418 17.0906 89.9588 17.6065 89.9588C18.2084 89.9588 18.7684 89.0263 19.1774 88.0939H18.8985C18.6197 88.4995 18.3501 88.7326 18.134 88.7326C17.9179 88.7326 17.7483 88.3224 18.134 87.4482L19.7049 83.8374ZM14.4764 85.4039C14.6809 84.7046 14.5717 84.0868 14.0349 84.0868C13.4005 84.0868 13.2378 84.5717 12.5918 85.9633V85.1661C12.5918 84.5927 12.4105 84.0868 11.8947 84.0868C11.2928 84.0868 10.7328 85.0193 10.3238 85.9517H10.605C10.8954 85.5298 11.1627 85.2827 11.3788 85.2827C11.6367 85.2827 11.7761 85.6813 11.3788 86.5671L10.2169 89.1569C10.0008 89.6441 10.2169 89.9564 10.7002 89.9564C10.7635 89.9674 10.8283 89.9655 10.8908 89.9509C10.9534 89.9364 11.0124 89.9094 11.0643 89.8716C11.1163 89.8338 11.1602 89.7859 11.1935 89.7308C11.2267 89.6758 11.2486 89.6145 11.2579 89.5508L12.3989 86.5205C12.7219 86.1218 13.0124 85.7745 13.3772 85.3876L14.4764 85.4039ZM6.24555 89.7233L6.35244 89.39C4.92099 89.1196 4.72579 89.1196 5.30906 87.5531L5.89001 85.9447H7.4725C8.18126 85.9447 8.19287 86.2361 8.08366 87.0146H8.49264L9.44074 84.4132H9.03176C8.67622 85.0286 8.39737 85.4808 7.62122 85.4808H6.06197L6.88923 83.2034C7.1495 82.4807 7.29822 82.3292 8.26724 82.3292H8.96437C9.9636 82.3292 10.0821 82.5996 10.0821 83.6136H10.4795L10.8141 81.8444H4.86754L4.75136 82.1777C5.90163 82.4108 6.00852 82.525 5.47173 84.0146L4.189 87.5531C3.65221 89.0333 3.42448 89.1522 2.0976 89.39L2 89.7233H6.24555Z" fill="black"/>
<path d="M35.3625 71.3733C35.7599 71.3733 36.1061 71.6763 35.9225 72.4409L34.0635 72.8745C34.3865 72.0097 34.9256 71.3733 35.3555 71.3733H35.3625ZM36.378 74.364H36.0132C35.5484 74.9141 35.0535 75.3454 34.5585 75.3454C34.0635 75.3454 33.7963 75.0424 33.7963 74.364C33.7972 74.0883 33.826 73.8134 33.8823 73.5435L36.8614 72.5598C37.4423 71.1798 36.7428 70.5737 35.9318 70.5737C34.5236 70.5737 32.9109 72.9374 32.9109 75.0027C32.9109 75.9352 33.3524 76.4363 34.0403 76.4363C34.8466 76.4363 35.6878 75.6484 36.3641 74.3547L36.378 74.364ZM35.7715 70.0143L37.8629 68.0492V67.8161H36.7335L35.4415 70.0073L35.7715 70.0143ZM29.337 71.3966H30.3269L28.756 75.7044C28.6166 76.0703 28.8095 76.4363 29.1859 76.4363C30.0806 76.4363 31.5213 75.5529 32.0279 74.3384H31.7467C31.3493 74.7603 30.5848 75.3198 29.9295 75.4386L31.3703 71.3919H32.8691L33.0527 70.7765H31.6212L32.1696 69.2217H31.598L30.5755 70.7765L29.3602 70.949L29.337 71.3966ZM28.0031 71.1915C28.0327 71.1274 28.0467 71.0572 28.0438 70.9867C28.0409 70.9162 28.0212 70.8474 27.9864 70.786C27.9516 70.7247 27.9027 70.6726 27.8438 70.634C27.7848 70.5955 27.7176 70.5716 27.6476 70.5644C26.7878 70.5644 25.7653 71.343 25.3563 72.4292H25.6654C25.9466 72.0306 26.4183 71.5877 26.8598 71.5131L25.2006 75.8209C25.168 75.8845 25.1517 75.9552 25.1532 76.0266C25.1547 76.0981 25.174 76.168 25.2094 76.2301C25.2447 76.2922 25.2949 76.3444 25.3555 76.382C25.416 76.4197 25.485 76.4416 25.5562 76.4457C26.3741 76.4457 27.3315 75.6578 27.7405 74.5808H27.4593C27.1805 74.9818 26.7064 75.4247 26.2649 75.4992L28.0031 71.1915ZM28.3052 69.0329C28.4458 69.0329 28.5833 68.9911 28.7002 68.9127C28.8172 68.8343 28.9083 68.7229 28.9621 68.5926C29.016 68.4622 29.03 68.3188 29.0026 68.1804C28.9752 68.0421 28.9075 67.915 28.808 67.8152C28.7086 67.7155 28.5819 67.6475 28.4439 67.62C28.306 67.5925 28.163 67.6066 28.0331 67.6606C27.9031 67.7146 27.7921 67.806 27.714 67.9233C27.6358 68.0406 27.5941 68.1785 27.5941 68.3196C27.5938 68.4134 27.612 68.5063 27.6476 68.5929C27.6832 68.6796 27.7356 68.7584 27.8017 68.8247C27.8678 68.891 27.9463 68.9435 28.0327 68.9792C28.1191 69.015 28.2117 69.0332 28.3052 69.0329V69.0329ZM22.6003 75.4969L25.6026 67.6063L25.505 67.4874L23.6228 67.7042V67.9373L23.9899 68.217C24.3222 68.4758 24.2223 68.7252 23.9133 69.5248L21.5686 75.7137C21.5275 75.7888 21.5065 75.8733 21.5078 75.959C21.5091 76.0447 21.5326 76.1285 21.576 76.2023C21.6193 76.2761 21.6811 76.3374 21.7551 76.38C21.8292 76.4227 21.9131 76.4453 21.9985 76.4457C22.8583 76.4457 23.7738 75.6694 24.1828 74.5808H23.9016C23.5839 75.0258 23.1252 75.3496 22.6003 75.4992V75.4969ZM16.8978 74.765C16.8978 73.4363 18.371 71.6344 19.2006 71.6344C19.3717 71.6321 19.5422 71.6541 19.7072 71.6996L18.8451 73.998C18.3501 74.6041 17.5856 75.3361 17.2324 75.3361C17.0279 75.3361 16.8978 75.1636 16.8978 74.765V74.765ZM21.4268 70.336L20.976 70.3033L20.4694 70.7835H20.3625C17.9086 70.7835 15.7893 73.5528 15.7893 75.5622C15.779 75.681 15.7948 75.8007 15.8355 75.9127C15.8763 76.0248 15.941 76.1265 16.0252 76.2107C16.1094 76.2949 16.211 76.3596 16.3228 76.4002C16.4346 76.4408 16.5539 76.4563 16.6724 76.4457C17.3067 76.4457 17.9318 75.5389 18.6313 74.5691L18.5988 74.9141C18.5128 75.9072 18.8126 76.4457 19.3284 76.4457C19.9326 76.4457 20.4903 75.5132 20.9016 74.5808H20.6205C20.33 75.0027 20.0604 75.2498 19.8466 75.2498C19.6328 75.2498 19.4586 74.8396 19.8466 73.9654L21.4268 70.336ZM10.4725 77.4946C10.4725 76.9212 11.0232 76.5622 11.8087 76.2522C12.186 76.4249 12.5741 76.5728 12.9706 76.6951C13.7885 76.9655 14.0999 77.0727 14.0999 77.3221C14.0999 77.8489 13.2076 78.2545 11.9899 78.2545C10.9698 78.2545 10.4725 78.0378 10.4725 77.4993V77.4946ZM12.701 74.0027C12.3455 74.0027 12.206 73.6997 12.206 73.3547C12.206 72.3943 12.7219 70.9793 13.5306 70.9793C13.8838 70.9793 14.0256 71.2824 14.0256 71.6274C14.0256 72.5878 13.5074 74.0027 12.701 74.0027ZM15.0248 76.9608C15.0248 76.2615 14.4113 76.0284 13.4098 75.7184C12.55 75.4596 12.1619 75.385 12.1619 75.103C12.1619 74.8699 12.3455 74.6064 12.7103 74.4036C13.3261 74.3577 13.9035 74.0858 14.3321 73.6399C14.7608 73.194 15.0107 72.6053 15.0341 71.9863C15.0362 71.7821 14.9959 71.5796 14.9156 71.3919H16.11L16.2913 70.7765H14.4113C14.1819 70.6354 13.9182 70.5604 13.6491 70.5597C13.0121 70.5668 12.4019 70.8179 11.9435 71.2617C11.4851 71.7055 11.2132 72.3084 11.1836 72.9467C11.1691 73.2839 11.2766 73.6149 11.4863 73.8788C11.6959 74.1427 11.9937 74.3217 12.3246 74.3827C11.6274 74.695 11.237 75.061 11.237 75.4946C11.233 75.6083 11.2575 75.7213 11.3082 75.8231C11.359 75.9249 11.4344 76.0123 11.5275 76.0773C9.9148 76.5436 9.27808 77.0914 9.27808 77.8583C9.27808 78.6252 10.2587 78.9422 11.4206 78.9422C13.3888 78.9422 15.0364 77.8723 15.0364 76.9771L15.0248 76.9608ZM7.51433 72.3453C8.22541 72.3453 8.2347 72.6367 8.12781 73.4129H8.5368L9.48257 70.8115H9.07591C8.72037 71.4269 8.4392 71.8814 7.66538 71.8814H6.1038L6.88923 69.7112C7.1495 68.9886 7.29822 68.8464 8.26724 68.8464H8.96437C9.9636 68.8464 10.0821 69.1168 10.0821 70.1215H10.4795L10.8141 68.3499H4.86755L4.75136 68.6856C5.90163 68.9187 6.00852 69.0306 5.47173 70.5201L4.189 74.061C3.65221 75.5389 3.42448 75.6578 2.0976 75.8955L2 76.2312H8.61116L9.79628 74.3524H9.34315C8.59024 75.0657 7.64446 75.751 6.32223 75.751C4.56778 75.751 4.73044 75.6764 5.31139 74.068L5.93416 72.3523L7.51433 72.3453ZM8.37645 67.8231L10.4679 66.3755V66.1424H9.20372L8.04183 67.8161L8.37645 67.8231Z" fill="black"/>
<path d="M34.6631 57.8812C35.0604 57.8812 35.4067 58.1819 35.2231 58.9488L33.3641 59.3801C33.6871 58.5176 34.2262 57.8812 34.6561 57.8812H34.6631ZM35.6785 60.8696H35.3114C34.8466 61.4221 34.354 61.8533 33.859 61.8533C33.3641 61.8533 33.0968 61.5503 33.0968 60.8696C33.0969 60.5938 33.1258 60.3188 33.1828 60.0491L36.1619 59.0677C36.7428 57.6854 36.0434 57.0816 35.2324 57.0816C33.8242 57.0816 32.2115 59.4453 32.2115 61.5106C32.2115 62.4431 32.653 62.9466 33.3408 62.9466C34.1472 62.9466 34.9884 62.1587 35.6762 60.8626L35.6785 60.8696ZM35.0837 56.5245L37.1751 54.5595V54.3263H36.0457L34.7537 56.5175L35.0837 56.5245ZM28.9187 57.9138H29.7041L28.1332 62.2193C27.9938 62.5876 28.1867 62.9536 28.5631 62.9536C29.4555 62.9536 30.8869 62.0678 31.4051 60.8556H31.1239C30.7266 61.2752 29.962 61.837 29.3067 61.9559L30.7475 57.9092H32.2231L32.4043 57.2938H30.9729L31.5236 55.739H30.952L29.9295 57.2938L28.9187 57.4663V57.9138ZM28.1448 58.3987C28.3493 57.6994 28.2401 57.0816 27.7033 57.0816C27.0666 57.0816 26.9063 57.5665 26.2603 58.9605V58.1609C26.2603 57.5898 26.0767 57.0816 25.5631 57.0816C24.9613 57.0816 24.4012 58.0141 23.9923 58.9465H24.2711C24.5616 58.5269 24.8288 58.2775 25.0449 58.2775C25.3029 58.2775 25.4423 58.6761 25.0449 59.5619L23.883 62.1517C23.6669 62.6389 23.883 62.9512 24.3664 62.9512C24.4889 62.9683 24.6133 62.9374 24.7137 62.8649C24.8141 62.7924 24.8828 62.6839 24.9055 62.562L26.0465 59.5316C26.3672 59.133 26.66 58.788 27.0248 58.3987H28.1448ZM21.536 57.8812C21.9357 57.8812 22.2796 58.1819 22.0961 58.9488L20.237 59.3801C20.56 58.5176 21.0968 57.8812 21.5267 57.8812H21.536ZM22.5492 60.8696H22.2029C21.7382 61.4221 21.2455 61.8533 20.7506 61.8533C20.2556 61.8533 19.9861 61.5503 19.9861 60.8696C19.9872 60.5939 20.016 60.319 20.072 60.0491L23.0534 59.0677C23.6344 57.6854 22.9349 57.0816 22.1239 57.0816C20.7134 57.0816 19.103 59.4453 19.103 61.5106C19.103 62.4431 19.5445 62.9466 20.2324 62.9466C21.0411 62.9466 21.8799 62.1587 22.5562 60.8626L22.5492 60.8696ZM15.2502 62.0724C14.9597 62.0724 14.5391 61.802 14.5391 61.5643C14.6161 61.2811 14.7132 61.0037 14.8296 60.7344L15.3153 59.45C15.8311 58.8346 16.6166 58.1749 17.0581 58.1749C17.3277 58.1749 17.5229 58.3474 17.5229 58.7483C17.5229 59.9139 16.4237 62.0724 15.2409 62.0724H15.2502ZM18.6313 58.2728C18.6313 57.3987 18.3083 57.0747 17.7018 57.0747C16.9489 57.0747 16.2401 57.8742 15.529 58.8439L17.3253 54.1072L17.2533 54L15.3687 54.2145V54.4476L15.7359 54.7296C16.0682 54.9884 15.9682 55.2588 15.6592 56.035L13.7235 61.0444C13.5938 61.3403 13.4896 61.6468 13.4121 61.9605C13.4121 62.4804 14.1092 62.9652 14.7459 62.9652C16.2099 62.9652 18.6522 60.3218 18.6522 58.2915L18.6313 58.2728ZM12.7986 57.7204C12.8282 57.6563 12.8422 57.5861 12.8393 57.5156C12.8364 57.4451 12.8167 57.3763 12.7819 57.3149C12.7471 57.2536 12.6982 57.2015 12.6393 57.1629C12.5803 57.1244 12.5131 57.1005 12.4431 57.0933C11.5809 57.0933 10.5585 57.8695 10.1518 58.9581H10.4307C10.7095 58.5595 11.1836 58.1166 11.6251 58.0397L9.97754 62.3382C9.94761 62.4011 9.93333 62.4703 9.9359 62.5399C9.93848 62.6096 9.95785 62.6775 9.99234 62.738C10.0268 62.7985 10.0754 62.8497 10.134 62.8873C10.1925 62.9248 10.2592 62.9476 10.3284 62.9536C11.1464 62.9536 12.1038 62.1657 12.5128 61.0887H12.2339C11.9551 61.485 11.4903 61.9256 11.0442 62.0048L12.7986 57.7204ZM13.0984 55.5595C13.193 55.5604 13.2869 55.5423 13.3745 55.5063C13.462 55.4703 13.5415 55.417 13.6082 55.3496C13.6749 55.2823 13.7275 55.2022 13.7629 55.1141C13.7982 55.0261 13.8157 54.9318 13.8141 54.8368C13.8123 54.6482 13.7368 54.4679 13.6038 54.3345C13.4709 54.2011 13.291 54.1254 13.103 54.1235C13.0098 54.1235 12.9174 54.142 12.8313 54.1779C12.7451 54.2138 12.6669 54.2663 12.601 54.3326C12.5352 54.3989 12.483 54.4775 12.4476 54.5641C12.4121 54.6506 12.394 54.7433 12.3943 54.8368C12.3927 54.9306 12.41 55.0238 12.445 55.1108C12.4801 55.1977 12.5322 55.2768 12.5984 55.3431C12.6645 55.4094 12.7432 55.4617 12.8299 55.4969C12.9166 55.5321 13.0095 55.5494 13.103 55.5478L13.0984 55.5595ZM8.76685 54.8485H4.84663L4.73741 55.1842C5.8993 55.4173 5.9969 55.5292 5.46011 57.0187L4.189 60.5689C3.65221 62.0468 3.42448 62.1657 2.0976 62.4034L2 62.7368H7.96747L9.25717 60.429H8.80635C8.07436 61.2379 7.21224 62.2519 5.89001 62.2519C4.88846 62.2519 4.76995 62.0794 5.30906 60.5689L6.57785 57.0304C7.10535 55.5501 7.34237 55.4313 8.66925 55.1958L8.76685 54.8485Z" fill="black"/>
</svg>
