<svg width="422" height="152" viewBox="0 0 422 152" fill="none" xmlns="http://www.w3.org/2000/svg">
<path fill-rule="evenodd" clip-rule="evenodd" d="M328.865 117.688V33.1843H318.372V118.377L328.865 117.688Z" fill="white"/>
<path fill-rule="evenodd" clip-rule="evenodd" d="M328.865 32.4191H318.372C317.95 32.4191 317.608 32.7617 317.608 33.1843V118.377C317.608 118.819 317.981 119.169 318.422 119.14L328.914 118.452C329.316 118.425 329.629 118.091 329.629 117.688V33.1843C329.629 32.7617 329.286 32.4191 328.865 32.4191ZM328.101 33.9492V116.971L319.136 117.56V33.9492H328.101Z" fill="#2E186A"/>
<rect x="117.737" y="33.1843" width="205.881" height="117.127" fill="white"/>
<path fill-rule="evenodd" clip-rule="evenodd" d="M323.618 32.4191H117.737C117.315 32.4191 116.973 32.7617 116.973 33.1843V150.311C116.973 150.734 117.315 151.077 117.737 151.077H323.618C324.04 151.077 324.382 150.734 324.382 150.311V33.1843C324.382 32.7617 324.04 32.4191 323.618 32.4191ZM322.854 33.9495V149.546H118.501V33.9495H322.854Z" fill="#2E186A"/>
<rect x="159.886" y="78.4843" width="8.60808" height="8.62128" fill="#FEBA91"/>
<rect x="159.886" y="87.131" width="8.60808" height="8.62127" fill="#FE7624"/>
<rect x="293.795" y="62.1854" width="8.60809" height="8.62128" fill="#FEBA91"/>
<rect x="293.795" y="70.8323" width="8.60809" height="8.62127" fill="#FE7624"/>
<rect x="131.948" y="76.3417" width="8.60809" height="8.62127" fill="#FEBA91"/>
<rect x="131.948" y="84.963" width="8.60809" height="8.62127" fill="#FE7624"/>
<rect x="131.948" y="93.6097" width="8.60809" height="8.62126" fill="#FEBA91"/>
<rect x="194.14" y="76.9028" width="8.60809" height="8.62128" fill="#FEBA91"/>
<rect x="194.14" y="85.5496" width="8.60809" height="8.6213" fill="#FEBA91"/>
<rect x="194.14" y="94.1709" width="8.60809" height="8.62128" fill="#FE7624"/>
<rect x="281.011" y="57.3136" width="8.60806" height="8.62128" fill="#FE7624"/>
<rect x="281.011" y="65.9349" width="8.60806" height="8.62127" fill="#FEBA91"/>
<rect x="281.011" y="74.5562" width="8.60806" height="8.62128" fill="#FE7624"/>
<rect x="250.729" y="87.5391" width="8.60814" height="8.62128" fill="#FEBA91"/>
<rect x="250.729" y="96.1604" width="8.60814" height="8.62128" fill="#FEBA91"/>
<rect x="250.729" y="104.807" width="8.60814" height="8.62128" fill="#FEBA91"/>
<rect x="250.729" y="113.428" width="8.60814" height="8.62127" fill="#FE7624"/>
<rect x="267.131" y="74.5817" width="8.60815" height="8.62127" fill="#FEBA91"/>
<rect x="267.131" y="83.2284" width="8.60815" height="8.62127" fill="#FE7624"/>
<rect x="267.131" y="91.8497" width="8.60815" height="8.62128" fill="#FEBA91"/>
<rect x="267.131" y="100.497" width="8.60815" height="8.62127" fill="#FEBA91"/>
<rect x="183.317" y="70.1436" width="8.60806" height="8.62127" fill="#FEBA91"/>
<rect x="205.728" y="70.1436" width="8.60815" height="8.62127" fill="#FE7624"/>
<rect x="205.728" y="78.7649" width="8.60815" height="8.62127" fill="#FE7624"/>
<rect x="205.728" y="87.4116" width="8.60815" height="8.62128" fill="#FE7624"/>
<rect x="205.728" y="96.033" width="8.60815" height="8.62129" fill="#FEBA91"/>
<rect x="205.728" y="104.68" width="8.60815" height="8.62125" fill="#FE7624"/>
<rect x="205.728" y="113.301" width="8.60815" height="8.62129" fill="#FEBA91"/>
<rect x="238.454" y="85.6261" width="8.60812" height="8.62128" fill="#FEBA91"/>
<rect x="238.454" y="137.43" width="8.60812" height="8.62128" fill="#FEBA91"/>
<rect x="238.454" y="94.2729" width="8.60812" height="8.62127" fill="#FE7624"/>
<rect x="238.454" y="102.894" width="8.60812" height="8.6213" fill="#FEBA91"/>
<rect x="238.454" y="111.541" width="8.60812" height="8.62127" fill="#FE7624"/>
<rect x="238.454" y="120.162" width="8.60812" height="8.62128" fill="#FEBA91"/>
<rect x="238.454" y="128.809" width="8.60812" height="8.62128" fill="#FE7624"/>
<rect x="145.93" y="72.7961" width="8.60811" height="8.62128" fill="#FEBA91"/>
<rect x="145.93" y="81.4429" width="8.60811" height="8.6213" fill="#FE7624"/>
<rect x="145.93" y="90.0642" width="8.60811" height="8.62129" fill="#FE7624"/>
<rect x="145.93" y="98.6345" width="8.60811" height="8.62128" fill="#FEBA91"/>
<rect x="169.437" y="119.014" width="8.60805" height="8.62128" fill="#FEBA91"/>
<rect x="180.362" y="119.014" width="8.60809" height="8.62128" fill="#FE7624"/>
<rect x="263.973" y="125.187" width="8.60815" height="8.6213" fill="#FEBA91"/>
<rect x="274.364" y="125.187" width="8.60803" height="8.6213" fill="#FE7624"/>
<rect x="263.973" y="135.696" width="8.60815" height="8.62131" fill="#FEBA91"/>
<rect x="183.011" y="129.651" width="8.60809" height="8.62129" fill="#FE7624"/>
<rect x="172.289" y="129.651" width="8.60811" height="8.62129" fill="#FE7624"/>
<rect x="160.548" y="129.651" width="8.60809" height="8.62129" fill="#FEBA91"/>
<path fill-rule="evenodd" clip-rule="evenodd" d="M166.024 63.2057C166.431 63.2057 166.764 63.5242 166.787 63.9259L166.788 63.9709V75.2449C166.788 75.6675 166.446 76.0101 166.024 76.0101C165.617 76.0101 165.285 75.6915 165.261 75.2898L165.26 75.2449V64.7358H135.743V72.7962C135.743 73.2037 135.425 73.5369 135.024 73.5601L134.979 73.5614C134.572 73.5614 134.239 73.2429 134.216 72.8412L134.215 72.7962V63.9709C134.215 63.5634 134.533 63.2303 134.934 63.207L134.979 63.2057H166.024Z" fill="#2E186A"/>
<path fill-rule="evenodd" clip-rule="evenodd" d="M150.514 48.1567C150.921 48.1567 151.254 48.4753 151.277 48.877L151.278 48.9219V70.0415C151.278 70.4641 150.936 70.8067 150.514 70.8067C150.107 70.8067 149.775 70.4882 149.751 70.0865L149.75 70.0415V48.9219C149.75 48.4993 150.092 48.1567 150.514 48.1567Z" fill="#2E186A"/>
<path fill-rule="evenodd" clip-rule="evenodd" d="M210.949 59.8644C211.356 59.8644 211.689 60.1829 211.712 60.5846L211.713 60.6296V67.0318C211.713 67.4544 211.371 67.797 210.949 67.797C210.542 67.797 210.21 67.4784 210.186 67.0767L210.185 67.0318L210.185 61.3948H188.385V67.0318C188.385 67.4393 188.067 67.7724 187.665 67.7957L187.621 67.797C187.214 67.797 186.881 67.4784 186.858 67.0767L186.857 67.0318V60.6296C186.857 60.2221 187.175 59.889 187.576 59.8657L187.621 59.8644H210.949Z" fill="#2E186A"/>
<path fill-rule="evenodd" clip-rule="evenodd" d="M199.285 47.6976C199.692 47.6976 200.024 48.0162 200.048 48.4179L200.049 48.4628V72.8983C200.049 73.3209 199.707 73.6635 199.285 73.6635C198.878 73.6635 198.545 73.3449 198.522 72.9433L198.521 72.8983V48.4628C198.521 48.0402 198.863 47.6976 199.285 47.6976Z" fill="#2E186A"/>
<path fill-rule="evenodd" clip-rule="evenodd" d="M166.024 43.387C166.446 43.387 166.788 43.7296 166.788 44.1522C166.788 44.5597 166.47 44.8928 166.069 44.9161L166.024 44.9174H134.979C134.557 44.9174 134.215 44.5748 134.215 44.1522C134.215 43.7446 134.533 43.4115 134.934 43.3883L134.979 43.387H166.024Z" fill="#FE7624"/>
<path fill-rule="evenodd" clip-rule="evenodd" d="M210.949 44.8663C211.371 44.8663 211.713 45.2089 211.713 45.6315C211.713 46.039 211.395 46.3722 210.994 46.3954L210.949 46.3967H188.537C188.116 46.3967 187.773 46.0541 187.773 45.6315C187.773 45.224 188.092 44.8909 188.493 44.8676L188.537 44.8663H210.949Z" fill="#FE7624"/>
<path fill-rule="evenodd" clip-rule="evenodd" d="M289.542 40.8363C289.964 40.8363 290.306 41.1789 290.306 41.6015C290.306 42.009 289.988 42.3421 289.587 42.3654L289.542 42.3667H267.131C266.709 42.3667 266.367 42.0241 266.367 41.6015C266.367 41.194 266.685 40.8609 267.086 40.8376L267.131 40.8363H289.542Z" fill="#FE7624"/>
<path fill-rule="evenodd" clip-rule="evenodd" d="M193.3 113.429C193.722 113.429 194.064 113.771 194.064 114.194C194.064 114.601 193.746 114.934 193.345 114.958L193.3 114.959H170.201C169.779 114.959 169.437 114.616 169.437 114.194C169.437 113.786 169.755 113.453 170.156 113.43L170.201 113.429H193.3Z" fill="#FE7624"/>
<path fill-rule="evenodd" clip-rule="evenodd" d="M314.221 92.8446C314.642 92.8446 314.985 93.1872 314.985 93.6098C314.985 94.0173 314.666 94.3504 314.265 94.3737L314.221 94.375H295.12C294.698 94.375 294.356 94.0324 294.356 93.6098C294.356 93.2023 294.674 92.8692 295.075 92.8459L295.12 92.8446H314.221Z" fill="#2E186A"/>
<path fill-rule="evenodd" clip-rule="evenodd" d="M278.668 119.55C279.09 119.55 279.432 119.893 279.432 120.315C279.432 120.723 279.114 121.056 278.713 121.079L278.668 121.081H268.277C267.855 121.081 267.513 120.738 267.513 120.315C267.513 119.908 267.831 119.575 268.232 119.551L268.277 119.55H278.668Z" fill="#FE7624"/>
<path fill-rule="evenodd" clip-rule="evenodd" d="M254.27 74.3777C254.676 74.3777 255.009 74.6962 255.032 75.0979L255.034 75.1429V84.6314C255.034 85.054 254.692 85.3966 254.27 85.3966C253.863 85.3966 253.53 85.078 253.507 84.6764L253.506 84.6314V75.9081H242.223L242.223 82.2083C242.223 82.6158 241.905 82.9489 241.504 82.9722L241.459 82.9735C241.052 82.9735 240.72 82.6549 240.697 82.2532L240.695 82.2083V75.1429C240.695 74.7354 241.013 74.4023 241.414 74.379L241.459 74.3777H254.27Z" fill="#2E186A"/>
<path fill-rule="evenodd" clip-rule="evenodd" d="M298.125 48.7434C298.532 48.7434 298.864 49.062 298.888 49.4636L298.889 49.5086V59.3032C298.889 59.7258 298.547 60.0684 298.125 60.0684C297.718 60.0684 297.385 59.7498 297.362 59.3482L297.361 59.3032L297.361 50.2738H248.616V57.1606C248.616 57.5681 248.298 57.9013 247.897 57.9245L247.852 57.9258C247.445 57.9258 247.112 57.6073 247.089 57.2056L247.088 57.1606V49.5086C247.088 49.1011 247.406 48.768 247.807 48.7447L247.852 48.7434H298.125Z" fill="#2E186A"/>
<path fill-rule="evenodd" clip-rule="evenodd" d="M247.852 67.2103C248.259 67.2103 248.591 67.5289 248.615 67.9306L248.616 67.9755V75.1429C248.616 75.5655 248.274 75.9081 247.852 75.9081C247.445 75.9081 247.112 75.5896 247.089 75.1879L247.088 75.1429V67.9755C247.088 67.5529 247.43 67.2103 247.852 67.2103Z" fill="#2E186A"/>
<path fill-rule="evenodd" clip-rule="evenodd" d="M271.384 48.7434C271.791 48.7434 272.123 49.062 272.147 49.4636L272.148 49.5086V70.8323C272.148 71.2549 271.806 71.5975 271.384 71.5975C270.977 71.5975 270.644 71.2789 270.621 70.8772L270.62 70.8323V49.5086C270.62 49.086 270.962 48.7434 271.384 48.7434Z" fill="#2E186A"/>
<path fill-rule="evenodd" clip-rule="evenodd" d="M284.78 48.7434C285.187 48.7434 285.519 49.062 285.543 49.4636L285.544 49.5086V53.6662C285.544 54.0888 285.202 54.4314 284.78 54.4314C284.373 54.4314 284.04 54.1129 284.017 53.7112L284.016 53.6662V49.5086C284.016 49.086 284.358 48.7434 284.78 48.7434Z" fill="#2E186A"/>
<path fill-rule="evenodd" clip-rule="evenodd" d="M277.471 43.7695C277.878 43.7695 278.21 44.0881 278.233 44.4898L278.235 44.5347V48.6923C278.235 49.115 277.893 49.4575 277.471 49.4575C277.064 49.4575 276.731 49.139 276.708 48.7373L276.707 48.6923V44.5347C276.707 44.1121 277.049 43.7695 277.471 43.7695Z" fill="#2E186A"/>
<path fill-rule="evenodd" clip-rule="evenodd" d="M257.657 60.0939C258.079 60.0939 258.421 60.4365 258.421 60.8591C258.421 61.2666 258.103 61.5997 257.702 61.623L257.657 61.6243H239.32C238.898 61.6243 238.556 61.2817 238.556 60.8591C238.556 60.4516 238.874 60.1184 239.275 60.0952L239.32 60.0939H257.657Z" fill="#FE7624"/>
<path fill-rule="evenodd" clip-rule="evenodd" d="M253.531 63.4098C253.953 63.4098 254.295 63.7524 254.295 64.175C254.295 64.5825 253.977 64.9156 253.576 64.9389L253.531 64.9402H243.446C243.024 64.9402 242.682 64.5976 242.682 64.175C242.682 63.7675 243 63.4344 243.401 63.4111L243.446 63.4098H253.531Z" fill="#FE7624"/>
<rect x="56.9203" y="50.3247" width="38.7873" height="41.8311" fill="white"/>
<path fill-rule="evenodd" clip-rule="evenodd" d="M95.7076 49.5596H56.9203C56.4983 49.5596 56.1562 49.9022 56.1562 50.3248V92.1558C56.1562 92.5784 56.4983 92.921 56.9203 92.921H95.7076C96.1296 92.921 96.4716 92.5784 96.4716 92.1558V50.3248C96.4716 49.9022 96.1296 49.5596 95.7076 49.5596ZM94.9436 51.0897V91.3904H57.6843V51.0897H94.9436Z" fill="#000091"/>
<path fill-rule="evenodd" clip-rule="evenodd" d="M77.8038 58.9971C77.1161 58.9971 76.454 59.0736 75.7918 59.1757L77.9311 71.3169L73.8308 82.9479C75.1806 83.4326 76.6323 83.6621 78.0585 83.6621C84.8074 83.5856 90.3084 77.9741 90.232 71.2148C90.1811 64.4301 84.5782 58.9206 77.8038 58.9971Z" fill="#000091"/>
<path fill-rule="evenodd" clip-rule="evenodd" d="M63.058 71.776C63.1089 76.9283 66.3943 81.5195 71.2331 83.254L75.3844 71.6484L63.058 71.776Z" fill="#FEBA91"/>
<path fill-rule="evenodd" clip-rule="evenodd" d="M72.5575 56.931C69.6796 57.4412 67.0819 58.9461 65.2228 61.1907C63.3636 63.4353 62.3449 66.2665 62.3959 69.1998L74.6968 69.0722L72.5575 56.931Z" fill="#FE7624"/>
<path fill-rule="evenodd" clip-rule="evenodd" d="M107.321 59.7113C107.728 59.7113 108.06 60.0299 108.084 60.4315L108.085 60.4765L108.085 88.9165H131.413C131.82 88.9165 132.153 89.2351 132.176 89.6368L132.177 89.6817C132.177 90.0893 131.859 90.4224 131.458 90.4456L131.413 90.4469H107.321C106.914 90.4469 106.581 90.1284 106.558 89.7267L106.557 89.6817L106.557 61.2417H95.7076C95.3007 61.2417 94.9681 60.9232 94.9449 60.5215L94.9436 60.4765C94.9436 60.069 95.2617 59.7359 95.6627 59.7126L95.7076 59.7113H107.321Z" fill="#000091"/>
<path fill-rule="evenodd" clip-rule="evenodd" d="M131.413 91.8498C132.609 91.8498 133.578 90.8791 133.578 89.6817C133.578 88.4844 132.609 87.5137 131.413 87.5137C130.218 87.5137 129.249 88.4844 129.249 89.6817C129.249 90.8791 130.218 91.8498 131.413 91.8498Z" fill="#000091"/>
<rect x="297.972" y="92.5896" width="87.6599" height="58.0789" fill="white"/>
<path fill-rule="evenodd" clip-rule="evenodd" d="M385.632 91.8243H297.972C297.55 91.8243 297.208 92.1669 297.208 92.5895V150.668C297.208 151.091 297.55 151.434 297.972 151.434H385.632C386.054 151.434 386.396 151.091 386.396 150.668V92.5895C386.396 92.1669 386.054 91.8243 385.632 91.8243ZM384.868 93.3547V149.903H298.736V93.3547H384.868Z" fill="#000091"/>
<rect x="292.191" y="92.5896" width="87.6599" height="58.0789" fill="white"/>
<path fill-rule="evenodd" clip-rule="evenodd" d="M379.851 91.8243H292.191C291.769 91.8243 291.427 92.1669 291.427 92.5895V150.668C291.427 151.091 291.769 151.434 292.191 151.434H379.851C380.273 151.434 380.615 151.091 380.615 150.668V92.5895C380.615 92.1669 380.273 91.8243 379.851 91.8243ZM379.086 93.3547V149.903H292.955V93.3547H379.086Z" fill="#000091"/>
<path fill-rule="evenodd" clip-rule="evenodd" d="M370.3 134.446H301.69C301.334 134.446 301.054 134.166 301.054 133.808C301.054 133.451 301.334 133.171 301.69 133.171H370.3C370.657 133.171 370.937 133.451 370.937 133.808C370.937 134.166 370.657 134.446 370.3 134.446Z" fill="#000091"/>
<path fill-rule="evenodd" clip-rule="evenodd" d="M370.3 126.233H301.69C301.334 126.233 301.054 125.952 301.054 125.595C301.054 125.238 301.334 124.958 301.69 124.958H370.3C370.657 124.958 370.937 125.238 370.937 125.595C370.937 125.952 370.657 126.233 370.3 126.233Z" fill="#000091"/>
<path fill-rule="evenodd" clip-rule="evenodd" d="M370.3 118.02H301.69C301.334 118.02 301.054 117.739 301.054 117.382C301.054 117.025 301.334 116.744 301.69 116.744H370.3C370.657 116.744 370.937 117.025 370.937 117.382C370.937 117.739 370.657 118.02 370.3 118.02Z" fill="#000091"/>
<path fill-rule="evenodd" clip-rule="evenodd" d="M370.3 109.832H301.69C301.334 109.832 301.054 109.552 301.054 109.194C301.054 108.837 301.334 108.557 301.69 108.557H370.3C370.657 108.557 370.937 108.837 370.937 109.194C370.937 109.552 370.657 109.832 370.3 109.832Z" fill="#000091"/>
<rect width="9.60092" height="37.4931" transform="matrix(0.999948 -0.010241 0.0102098 0.999948 339.505 103.996)" fill="#000091"/>
<rect width="9.65178" height="24.0262" transform="matrix(0.999948 -0.0102411 0.0102097 0.999948 355.872 117.463)" fill="#FE7624"/>
<rect width="9.65181" height="24.0262" transform="matrix(0.999948 -0.010241 0.0102097 0.999948 323.403 117.463)" fill="#FE7624"/>
<path fill-rule="evenodd" clip-rule="evenodd" d="M317.2 141.384L307.599 141.486L307.446 129.957L317.073 129.855L317.2 141.384Z" fill="#FE7624"/>
<path fill-rule="evenodd" clip-rule="evenodd" d="M301.69 100.344C302.097 100.344 302.43 100.662 302.453 101.064L302.454 101.109L302.454 140.721H370.3C370.707 140.721 371.04 141.039 371.063 141.441L371.064 141.486C371.064 141.893 370.746 142.227 370.345 142.25L370.3 142.251H301.69C301.284 142.251 300.951 141.933 300.928 141.531L300.926 141.486V101.109C300.926 100.686 301.268 100.344 301.69 100.344Z" fill="#FE7624"/>
<path fill-rule="evenodd" clip-rule="evenodd" d="M314.679 143.093C315.101 143.093 315.443 143.435 315.443 143.858C315.443 144.266 315.125 144.599 314.724 144.622L314.679 144.623H309.025C308.603 144.623 308.261 144.281 308.261 143.858C308.261 143.451 308.579 143.117 308.98 143.094L309.025 143.093H314.679Z" fill="#FE7624"/>
<path fill-rule="evenodd" clip-rule="evenodd" d="M331.233 143.093C331.655 143.093 331.997 143.435 331.997 143.858C331.997 144.266 331.679 144.599 331.278 144.622L331.233 144.623H325.579C325.157 144.623 324.815 144.281 324.815 143.858C324.815 143.451 325.133 143.117 325.534 143.094L325.579 143.093H331.233Z" fill="#FE7624"/>
<path fill-rule="evenodd" clip-rule="evenodd" d="M347.43 143.093C347.852 143.093 348.195 143.435 348.195 143.858C348.195 144.266 347.876 144.599 347.475 144.622L347.43 144.623H341.802C341.38 144.623 341.038 144.281 341.038 143.858C341.038 143.451 341.356 143.117 341.757 143.094L341.802 143.093H347.43Z" fill="#5D21D1"/>
<path fill-rule="evenodd" clip-rule="evenodd" d="M363.705 143.093C364.126 143.093 364.469 143.435 364.469 143.858C364.469 144.266 364.15 144.599 363.749 144.622L363.705 144.623H358.051C357.629 144.623 357.287 144.281 357.287 143.858C357.287 143.451 357.605 143.117 358.006 143.094L358.051 143.093H363.705Z" fill="#FE7624"/>
<path fill-rule="evenodd" clip-rule="evenodd" d="M298.864 110.597C298.507 110.597 298.227 110.317 298.227 109.96V108.965C298.227 108.608 298.507 108.327 298.864 108.327C299.22 108.327 299.5 108.608 299.5 108.965V109.96C299.5 110.317 299.195 110.597 298.864 110.597Z" fill="#000091"/>
<path fill-rule="evenodd" clip-rule="evenodd" d="M298.864 118.53C298.507 118.53 298.227 118.249 298.227 117.892V116.897C298.227 116.54 298.507 116.26 298.864 116.26C299.22 116.26 299.5 116.54 299.5 116.897V117.892C299.5 118.249 299.195 118.53 298.864 118.53Z" fill="#000091"/>
<path fill-rule="evenodd" clip-rule="evenodd" d="M298.864 127.228C298.507 127.228 298.227 126.947 298.227 126.59V125.595C298.227 125.238 298.507 124.958 298.864 124.958C299.22 124.958 299.5 125.238 299.5 125.595V126.59C299.5 126.947 299.195 127.228 298.864 127.228Z" fill="#000091"/>
<path fill-rule="evenodd" clip-rule="evenodd" d="M298.864 135.441C298.507 135.441 298.227 135.16 298.227 134.803V133.808C298.227 133.451 298.507 133.171 298.864 133.171C299.22 133.171 299.5 133.451 299.5 133.808V134.803C299.5 135.16 299.195 135.441 298.864 135.441Z" fill="#000091"/>
<path fill-rule="evenodd" clip-rule="evenodd" d="M309.407 65.9094C309.814 65.9094 310.147 66.228 310.17 66.6297L310.171 66.6746V92.0794C310.171 92.502 309.829 92.8446 309.407 92.8446C309 92.8446 308.668 92.526 308.644 92.1243L308.643 92.0794V67.4396L302.684 67.4398C302.277 67.4398 301.944 67.1213 301.921 66.7196L301.92 66.6746C301.92 66.2671 302.238 65.934 302.639 65.9107L302.684 65.9094H309.407Z" fill="#000091"/>
<path fill-rule="evenodd" clip-rule="evenodd" d="M302.684 68.8427C303.879 68.8427 304.848 67.8721 304.848 66.6747C304.848 65.4773 303.879 64.5066 302.684 64.5066C301.488 64.5066 300.519 65.4773 300.519 66.6747C300.519 67.8721 301.488 68.8427 302.684 68.8427Z" fill="#000091"/>
<path fill-rule="evenodd" clip-rule="evenodd" d="M167.756 101.823L100.801 102.384C99.9098 102.384 99.1458 102.996 98.9421 103.864L87.125 143.858H63.6948C63.6948 143.858 62.3195 150.898 70.2909 150.898C74.3148 150.898 156.932 150.898 156.932 150.898C157.823 150.898 158.587 150.286 158.791 149.419L169.64 104.17C169.921 102.996 169.004 101.823 167.756 101.823Z" fill="#000091"/>
<path fill-rule="evenodd" clip-rule="evenodd" d="M162.891 101.823L95.9368 102.384C95.0455 102.384 94.2814 102.996 94.0777 103.864L82.2607 143.884H58.8304C58.8304 143.884 57.4551 150.923 65.4265 150.923C69.4504 150.923 152.068 150.923 152.068 150.923C152.959 150.923 153.723 150.311 153.927 149.444L164.776 104.195C165.056 102.996 164.139 101.823 162.891 101.823Z" fill="#000091"/>
<path fill-rule="evenodd" clip-rule="evenodd" d="M87.7108 140.058L96.3189 108.761C96.5736 107.69 97.5413 106.924 98.6365 106.924L156.448 106.363C157.976 106.363 159.122 107.792 158.766 109.296L151.355 141.205C151.1 142.277 150.132 143.042 149.037 143.042L90.0538 142.991C88.5003 142.991 87.3543 141.537 87.7108 140.058Z" fill="white"/>
<path fill-rule="evenodd" clip-rule="evenodd" d="M149.699 111.098C150.042 110.881 150.493 110.972 150.727 111.298L150.753 111.337L152.281 113.76C152.493 114.097 152.411 114.538 152.099 114.776L152.06 114.804L149.59 116.462C149.239 116.697 148.765 116.603 148.53 116.252C148.304 115.914 148.382 115.461 148.701 115.218L148.739 115.191L150.592 113.947L149.461 112.154C149.244 111.81 149.335 111.359 149.66 111.124L149.699 111.098Z" fill="#FE7624"/>
<path fill-rule="evenodd" clip-rule="evenodd" d="M144.358 111.502C144.704 111.288 145.153 111.384 145.384 111.713L145.409 111.752L147.447 115.068C147.668 115.428 147.556 115.899 147.196 116.121C146.85 116.334 146.401 116.238 146.171 115.909L146.145 115.87L144.108 112.554C143.887 112.194 143.999 111.723 144.358 111.502Z" fill="#FE7624"/>
<path fill-rule="evenodd" clip-rule="evenodd" d="M142.022 111.371C142.355 111.111 142.835 111.171 143.094 111.504C143.344 111.824 143.299 112.281 142.999 112.547L142.962 112.578L141.216 113.942L142.226 115.387C142.459 115.72 142.39 116.174 142.077 116.424L142.039 116.453C141.706 116.686 141.253 116.617 141.004 116.304L140.975 116.265L139.548 114.225C139.325 113.904 139.379 113.469 139.667 113.213L139.704 113.182L142.022 111.371Z" fill="#FE7624"/>
<path fill-rule="evenodd" clip-rule="evenodd" d="M139.207 136.844C139.628 136.844 139.971 137.186 139.971 137.609C139.971 138.016 139.652 138.35 139.251 138.373L139.207 138.374H133.807C133.385 138.374 133.043 138.032 133.043 137.609C133.043 137.201 133.361 136.868 133.762 136.845L133.807 136.844H139.207Z" fill="#FE7624"/>
<path fill-rule="evenodd" clip-rule="evenodd" d="M130.038 136.869C130.46 136.869 130.802 137.212 130.802 137.634C130.802 138.042 130.484 138.375 130.083 138.398L130.038 138.4H119.036C118.614 138.4 118.272 138.057 118.272 137.634C118.272 137.227 118.59 136.894 118.991 136.871L119.036 136.869H130.038Z" fill="#FE7624"/>
<path fill-rule="evenodd" clip-rule="evenodd" d="M115.394 136.869C115.816 136.869 116.158 137.212 116.158 137.634C116.158 138.042 115.84 138.375 115.439 138.398L115.394 138.4H94.4088C93.9868 138.4 93.6448 138.057 93.6448 137.634C93.6448 137.227 93.9628 136.894 94.3639 136.871L94.4088 136.869H115.394Z" fill="#FE7624"/>
<path fill-rule="evenodd" clip-rule="evenodd" d="M146.974 133.63C147.396 133.63 147.738 133.972 147.738 134.395C147.738 134.803 147.42 135.136 147.019 135.159L146.974 135.16H143.663C143.241 135.16 142.899 134.818 142.899 134.395C142.899 133.988 143.217 133.654 143.619 133.631L143.663 133.63H146.974Z" fill="#FE7624"/>
<path fill-rule="evenodd" clip-rule="evenodd" d="M139.945 133.63C140.367 133.63 140.709 133.972 140.709 134.395C140.709 134.803 140.391 135.136 139.99 135.159L139.945 135.16H134.546C134.124 135.16 133.782 134.818 133.782 134.395C133.782 133.988 134.1 133.654 134.501 133.631L134.546 133.63H139.945Z" fill="#FE7624"/>
<path fill-rule="evenodd" clip-rule="evenodd" d="M130.827 133.63C131.249 133.63 131.591 133.972 131.592 134.395C131.592 134.802 131.274 135.135 130.873 135.159L130.828 135.16L94.0019 135.186C93.5799 135.186 93.2376 134.844 93.2373 134.421C93.237 134.014 93.5549 133.68 93.9559 133.657L94.0008 133.655L130.827 133.63Z" fill="#FE7624"/>
<path fill-rule="evenodd" clip-rule="evenodd" d="M147.713 130.416C148.135 130.416 148.477 130.759 148.477 131.181C148.477 131.589 148.159 131.922 147.758 131.945L147.713 131.947H140.225C139.803 131.947 139.461 131.604 139.461 131.181C139.461 130.774 139.779 130.441 140.18 130.417L140.225 130.416H147.713Z" fill="#FE7624"/>
<path fill-rule="evenodd" clip-rule="evenodd" d="M136.685 130.416C137.107 130.416 137.449 130.759 137.449 131.181C137.449 131.589 137.131 131.922 136.73 131.945L136.685 131.947H126.727C126.305 131.947 125.963 131.604 125.963 131.181C125.963 130.774 126.281 130.441 126.683 130.417L126.727 130.416H136.685Z" fill="#FE7624"/>
<path fill-rule="evenodd" clip-rule="evenodd" d="M116.642 130.416C117.064 130.416 117.406 130.759 117.406 131.181C117.406 131.589 117.088 131.922 116.687 131.945L116.642 131.947H104.29C103.868 131.947 103.526 131.604 103.526 131.181C103.526 130.774 103.844 130.441 104.245 130.417L104.29 130.416H116.642Z" fill="#FE7624"/>
<path fill-rule="evenodd" clip-rule="evenodd" d="M123.187 130.416C123.609 130.416 123.951 130.759 123.951 131.181C123.951 131.589 123.633 131.922 123.232 131.945L123.187 131.947H119.698C119.276 131.947 118.934 131.604 118.934 131.181C118.934 130.774 119.252 130.441 119.653 130.417L119.698 130.416H123.187Z" fill="#FE7624"/>
<path fill-rule="evenodd" clip-rule="evenodd" d="M148.451 127.177C148.873 127.177 149.215 127.519 149.215 127.942C149.215 128.349 148.897 128.683 148.496 128.706L148.451 128.707H138.162C137.74 128.707 137.398 128.365 137.398 127.942C137.398 127.534 137.716 127.201 138.117 127.178L138.162 127.177H148.451Z" fill="#FE7624"/>
<path fill-rule="evenodd" clip-rule="evenodd" d="M135.029 127.177C135.451 127.176 135.793 127.519 135.794 127.941C135.794 128.349 135.476 128.682 135.075 128.706L135.031 128.707L108.85 128.733C108.428 128.733 108.085 128.391 108.085 127.968C108.085 127.561 108.402 127.227 108.803 127.204L108.848 127.202L135.029 127.177Z" fill="#FE7624"/>
<path fill-rule="evenodd" clip-rule="evenodd" d="M105.716 127.202C106.138 127.202 106.48 127.545 106.48 127.967C106.48 128.375 106.162 128.708 105.761 128.731L105.716 128.733H95.5039C95.0819 128.733 94.7399 128.39 94.7399 127.967C94.7399 127.56 95.0579 127.227 95.459 127.204L95.5039 127.202H105.716Z" fill="#FE7624"/>
<path fill-rule="evenodd" clip-rule="evenodd" d="M143.103 123.963C143.525 123.963 143.867 124.305 143.867 124.728C143.867 125.136 143.549 125.469 143.148 125.492L143.103 125.493H139.13C138.708 125.493 138.366 125.151 138.366 124.728C138.366 124.321 138.684 123.987 139.085 123.964L139.13 123.963H143.103Z" fill="#FE7624"/>
<path fill-rule="evenodd" clip-rule="evenodd" d="M136.583 123.963C137.005 123.962 137.347 124.305 137.347 124.727C137.348 125.135 137.03 125.468 136.629 125.492L136.584 125.493L112.212 125.519C111.79 125.519 111.447 125.177 111.447 124.754C111.446 124.347 111.764 124.013 112.165 123.99L112.21 123.988L136.583 123.963Z" fill="#FE7624"/>
<path fill-rule="evenodd" clip-rule="evenodd" d="M149.19 123.963C149.612 123.963 149.954 124.305 149.954 124.728C149.954 125.136 149.636 125.469 149.235 125.492L149.19 125.493H145.65C145.228 125.493 144.886 125.151 144.886 124.728C144.886 124.321 145.204 123.987 145.605 123.964L145.65 123.963H149.19Z" fill="#FE7624"/>
<path fill-rule="evenodd" clip-rule="evenodd" d="M149.776 121.438C150.198 121.438 150.54 121.78 150.54 122.203C150.54 122.61 150.222 122.944 149.821 122.967L149.776 122.968H131.031C130.609 122.968 130.267 122.626 130.267 122.203C130.267 121.795 130.585 121.462 130.986 121.439L131.031 121.438H149.776Z" fill="#FE7624"/>
<path fill-rule="evenodd" clip-rule="evenodd" d="M128.178 121.438C128.6 121.437 128.943 121.78 128.943 122.202C128.943 122.61 128.626 122.943 128.224 122.967L128.18 122.968L96.345 122.994C95.923 122.994 95.5807 122.652 95.5803 122.229C95.58 121.822 95.8978 121.488 96.2989 121.465L96.3437 121.463L128.178 121.438Z" fill="#FE7624"/>
<path fill-rule="evenodd" clip-rule="evenodd" d="M150.487 118.377C150.909 118.376 151.252 118.718 151.253 119.14C151.254 119.548 150.936 119.882 150.535 119.906L150.491 119.907L140.202 119.933C139.78 119.934 139.437 119.592 139.436 119.17C139.435 118.762 139.752 118.428 140.153 118.404L140.198 118.402L150.487 118.377Z" fill="#FE7624"/>
<path fill-rule="evenodd" clip-rule="evenodd" d="M136.711 118.402C137.133 118.402 137.475 118.745 137.475 119.168C137.475 119.575 137.157 119.908 136.755 119.932L136.711 119.933H129.07C128.648 119.933 128.306 119.59 128.306 119.168C128.306 118.76 128.624 118.427 129.025 118.404L129.07 118.402H136.711Z" fill="#FE7624"/>
<path fill-rule="evenodd" clip-rule="evenodd" d="M125.836 118.402C126.258 118.402 126.6 118.745 126.6 119.168C126.6 119.575 126.282 119.908 125.881 119.932L125.836 119.933H121.481C121.059 119.933 120.717 119.59 120.717 119.168C120.717 118.76 121.035 118.427 121.436 118.404L121.481 118.402H125.836Z" fill="#FE7624"/>
<path fill-rule="evenodd" clip-rule="evenodd" d="M118.247 118.402C118.669 118.402 119.011 118.745 119.011 119.168C119.011 119.575 118.693 119.908 118.291 119.932L118.247 119.933H108.849C108.427 119.933 108.085 119.59 108.085 119.168C108.085 118.76 108.403 118.427 108.804 118.404L108.849 118.402H118.247Z" fill="#FE7624"/>
<path fill-rule="evenodd" clip-rule="evenodd" d="M105.615 118.402C106.037 118.402 106.379 118.745 106.379 119.168C106.379 119.575 106.061 119.908 105.659 119.932L105.615 119.933H103.093C102.671 119.933 102.329 119.59 102.329 119.168C102.329 118.76 102.647 118.427 103.048 118.404L103.093 118.402H105.615Z" fill="#FE7624"/>
<path fill-rule="evenodd" clip-rule="evenodd" d="M163.579 101.236C165.272 101.236 166.54 102.826 166.194 104.495L166.178 104.563L154.667 149.634C154.562 150.043 154.146 150.29 153.737 150.185C153.343 150.084 153.1 149.693 153.177 149.298L153.187 149.254L164.694 104.199C164.859 103.494 164.331 102.799 163.628 102.768L163.579 102.767C163.157 102.767 162.815 102.424 162.815 102.002C162.815 101.579 163.157 101.236 163.579 101.236Z" fill="white"/>
<path fill-rule="evenodd" clip-rule="evenodd" d="M244.509 7.62659L244.554 7.62753L244.885 7.64098L245.823 7.66734C245.913 7.6706 245.993 7.67413 246.082 7.67855C246.503 7.69965 246.828 8.05893 246.807 8.48101C246.786 8.90309 246.427 9.22815 246.005 9.20705L245.674 9.1936L244.736 9.16724C244.646 9.16398 244.566 9.16045 244.477 9.15603C244.056 9.13493 243.731 8.77565 243.752 8.35357C243.773 7.94656 244.107 7.62977 244.509 7.62659Z" fill="#FE7624"/>
<path fill-rule="evenodd" clip-rule="evenodd" d="M249.059 9.2844L251.217 9.32563C251.5 9.33067 251.789 9.33571 252.087 9.34077C252.508 9.34796 252.856 9.01124 252.863 8.5887C252.871 8.16615 252.534 7.81778 252.113 7.81059L249.878 7.77005C249.612 7.76488 249.35 7.75965 249.09 7.75431C248.668 7.74566 248.319 8.08116 248.31 8.50368C248.302 8.9262 248.637 9.27574 249.059 9.2844ZM255.111 9.38977L258.137 9.4391C258.559 9.44643 258.907 9.10983 258.914 8.68729C258.921 8.26474 258.585 7.91625 258.164 7.90892L255.135 7.85955C254.713 7.8529 254.366 8.19005 254.359 8.61261C254.353 9.03517 254.689 9.38311 255.111 9.38977ZM261.16 9.49864L262.03 9.51943C262.786 9.53841 263.498 9.55884 264.179 9.58129C264.601 9.59519 264.954 9.26404 264.968 8.84166C264.982 8.41928 264.651 8.06561 264.229 8.05171L263.177 8.0193C262.548 8.0012 261.891 7.98444 261.195 7.96863C260.773 7.95904 260.423 8.29377 260.414 8.71627C260.404 9.13877 260.738 9.48905 261.16 9.49864ZM267.188 9.70351C268.247 9.75589 269.242 9.81652 270.19 9.88697C270.611 9.91825 270.977 9.60195 271.008 9.1805C271.04 8.75905 270.724 8.39204 270.303 8.36076C269.342 8.28934 268.334 8.22795 267.263 8.17496C266.842 8.15411 266.483 8.47938 266.463 8.90147C266.442 9.32357 266.767 9.68265 267.188 9.70351ZM273.174 10.1589C274.212 10.2731 275.197 10.4042 276.136 10.5544C276.553 10.621 276.945 10.3367 277.011 9.91939C277.078 9.50206 276.794 9.10976 276.377 9.04315C275.412 8.88889 274.403 8.75445 273.341 8.63763C272.922 8.59149 272.544 8.89463 272.498 9.31471C272.452 9.7348 272.755 10.1127 273.174 10.1589ZM279.06 11.1161C280.059 11.3438 281.01 11.6012 281.919 11.8912C282.321 12.0194 282.751 11.797 282.879 11.3943C283.007 10.9916 282.784 10.5612 282.382 10.433C281.431 10.1296 280.439 9.86096 279.399 9.62388C278.988 9.53008 278.578 9.78809 278.485 10.2002C278.391 10.6122 278.649 11.0223 279.06 11.1161ZM284.68 12.9274C285.591 13.3255 286.462 13.7676 287.299 14.2578C287.663 14.4711 288.131 14.3481 288.344 13.9833C288.557 13.6184 288.434 13.1498 288.07 12.9365C287.181 12.4158 286.256 11.9466 285.291 11.5248C284.905 11.3557 284.454 11.5326 284.286 11.9199C284.117 12.3072 284.293 12.7583 284.68 12.9274ZM289.74 15.8943C290.507 16.4795 291.249 17.1172 291.969 17.8115C292.273 18.1046 292.756 18.0954 293.049 17.791C293.342 17.4865 293.333 17.0021 293.029 16.709C292.266 15.974 291.48 15.2979 290.666 14.6768C290.33 14.4208 289.85 14.4857 289.595 14.822C289.339 15.1582 289.404 15.6383 289.74 15.8943ZM293.982 19.9666C294.599 20.6963 295.202 21.4769 295.794 22.3117C296.038 22.6563 296.515 22.7374 296.859 22.4927C297.203 22.2481 297.284 21.7704 297.04 21.4258C296.423 20.5561 295.794 19.741 295.148 18.9776C294.875 18.6551 294.393 18.615 294.071 18.8881C293.749 19.1612 293.709 19.6441 293.982 19.9666ZM297.424 24.7961C297.923 25.6156 298.416 26.4797 298.903 27.3908C299.103 27.7633 299.566 27.9035 299.938 27.704C300.31 27.5044 300.45 27.0406 300.25 26.6681C299.75 25.7322 299.243 24.8433 298.728 23.9989C298.509 23.6382 298.038 23.5242 297.678 23.7443C297.318 23.9645 297.204 24.4354 297.424 24.7961ZM300.255 30.0663C300.672 30.9382 301.086 31.8483 301.498 32.7983C301.666 33.1859 302.116 33.3636 302.503 33.1952C302.89 33.0268 303.067 32.5761 302.899 32.1885C302.48 31.2216 302.058 30.2945 301.633 29.4054C301.451 29.0242 300.995 28.8632 300.614 29.0457C300.233 29.2282 300.073 29.6851 300.255 30.0663ZM302.652 35.5746L302.808 35.9694L302.965 36.3683C303.234 37.0598 303.515 37.7377 303.807 38.4039C303.976 38.7908 304.427 38.9668 304.814 38.7968C305.2 38.6269 305.376 38.1755 305.206 37.7885C304.922 37.1418 304.65 36.4835 304.388 35.8115L304.176 35.2734C304.141 35.1843 304.106 35.0955 304.071 35.0071C303.914 34.6146 303.47 34.4235 303.078 34.5802C302.686 34.7369 302.495 35.1821 302.652 35.5746ZM305.128 41.1843C305.603 42.1087 306.101 43.0069 306.623 43.8786C306.84 44.2411 307.31 44.3587 307.671 44.1413C308.033 43.924 308.151 43.454 307.934 43.0915C307.429 42.2484 306.946 41.3792 306.487 40.4842C306.294 40.1084 305.833 39.9605 305.458 40.1538C305.082 40.3471 304.935 40.8085 305.128 41.1843ZM308.298 46.4712C308.891 47.3231 309.509 48.1452 310.149 48.9372C310.415 49.2656 310.896 49.3161 311.224 49.05C311.552 48.784 311.602 48.3021 311.337 47.9737C310.719 47.2103 310.124 46.4176 309.551 45.5958C309.31 45.2491 308.834 45.1641 308.488 45.4058C308.142 45.6475 308.057 46.1245 308.298 46.4712ZM312.176 51.2594C312.886 52.0142 313.62 52.7356 314.377 53.4231C314.689 53.7072 315.172 53.6838 315.456 53.3709C315.74 53.058 315.716 52.5741 315.404 52.29C314.677 51.6291 313.971 50.9355 313.288 50.2095C312.998 49.902 312.515 49.8878 312.208 50.1777C311.901 50.4676 311.886 50.9519 312.176 51.2594ZM316.754 55.4173C317.573 56.0499 318.413 56.6458 319.272 57.2046C319.626 57.4347 320.1 57.3338 320.329 56.9793C320.559 56.6248 320.458 56.1509 320.104 55.9209C319.28 55.3847 318.473 54.8127 317.687 54.2055C317.353 53.9474 316.873 54.0094 316.616 54.3441C316.358 54.6787 316.42 55.1592 316.754 55.4173ZM321.922 58.7764C322.832 59.2666 323.759 59.7175 324.701 60.1284C325.088 60.2972 325.538 60.1199 325.706 59.7324C325.875 59.345 325.698 58.8941 325.311 58.7253C324.408 58.3312 323.519 57.8989 322.646 57.4287C322.275 57.2284 321.811 57.3678 321.611 57.7399C321.411 58.1121 321.551 58.5761 321.922 58.7764ZM327.587 61.2467C328.564 61.5793 329.553 61.8704 330.551 62.1197C330.96 62.2219 331.375 61.9724 331.477 61.5624C331.579 61.1523 331.33 60.737 330.921 60.6347C329.964 60.3957 329.015 60.1166 328.078 59.7977C327.679 59.6617 327.245 59.8759 327.109 60.276C326.973 60.6761 327.187 61.1107 327.587 61.2467ZM339.741 63.2228C340.775 63.2162 341.806 63.1656 342.829 63.0716C343.249 63.0329 343.558 62.6605 343.52 62.2396C343.481 61.8188 343.109 61.5089 342.689 61.5476C341.709 61.6376 340.722 61.6861 339.731 61.6924C339.309 61.6952 338.969 62.04 338.972 62.4626C338.975 62.8852 339.319 63.2255 339.741 63.2228ZM345.881 62.6577C346.902 62.4737 347.909 62.2455 348.899 61.9741C349.306 61.8625 349.546 61.4416 349.434 61.034C349.323 60.6264 348.902 60.3864 348.495 60.498C347.55 60.7574 346.587 60.9755 345.61 61.1514C345.195 61.2263 344.919 61.6241 344.993 62.04C345.068 62.456 345.465 62.7325 345.881 62.6577ZM351.848 61.0171C352.823 60.6496 353.772 60.2384 354.693 59.785C355.072 59.5985 355.228 59.1399 355.042 58.7606C354.856 58.3814 354.398 58.2251 354.019 58.4116C353.143 58.8431 352.238 59.2347 351.31 59.5848C350.915 59.7337 350.715 60.175 350.864 60.5705C351.013 60.9661 351.453 61.166 351.848 61.0171ZM357.41 58.2711C358.296 57.7158 359.145 57.1183 359.953 56.4808C360.285 56.2193 360.342 55.7381 360.081 55.4062C359.82 55.0742 359.339 55.017 359.008 55.2785C358.243 55.8818 357.439 56.4476 356.6 56.9739C356.242 57.1981 356.134 57.6702 356.357 58.0285C356.581 58.3867 357.053 58.4953 357.41 58.2711ZM362.3 54.442C363.063 53.7131 363.762 52.9193 364.388 52.07C364.639 51.7302 364.567 51.251 364.228 50.9998C363.889 50.7486 363.41 50.8205 363.16 51.1604C362.585 51.939 361.944 52.6668 361.245 53.335C360.94 53.6268 360.929 54.1112 361.22 54.4169C361.512 54.7225 361.995 54.7338 362.3 54.442ZM366.041 49.3703C366.512 48.4262 366.901 47.4422 367.203 46.4282C367.323 46.0231 367.093 45.597 366.688 45.4765C366.284 45.3559 365.858 45.5865 365.738 45.9915C365.462 46.9201 365.106 47.8214 364.674 48.6862C364.486 49.0642 364.639 49.5238 365.016 49.7128C365.394 49.9017 365.853 49.7484 366.041 49.3703ZM367.837 43.3296C367.917 42.6353 367.957 41.9343 367.958 41.2289C367.958 40.8664 367.948 40.5137 367.928 40.1613C367.904 39.7393 367.543 39.4168 367.121 39.4408C366.7 39.4649 366.378 39.8264 366.402 40.2483C366.42 40.5717 366.429 40.8954 366.429 41.2285C366.429 41.875 366.392 42.5176 366.319 43.1538C366.27 43.5737 366.571 43.9533 366.99 44.0018C367.409 44.0504 367.788 43.7494 367.837 43.3296ZM367.476 37.0269C367.234 35.9952 366.904 34.9899 366.49 34.0204C366.323 33.632 365.874 33.452 365.486 33.6184C365.099 33.7848 364.919 34.2346 365.085 34.6231C365.465 35.5108 365.767 36.4313 365.988 37.3761C366.084 37.7876 366.496 38.043 366.906 37.9466C367.317 37.8501 367.572 37.4384 367.476 37.0269ZM365.003 31.2395C364.427 30.355 363.776 29.5218 363.056 28.7494C362.769 28.4403 362.285 28.4234 361.977 28.7117C361.668 28.9999 361.651 29.4841 361.939 29.7932C362.598 30.5012 363.196 31.265 363.723 32.0756C363.954 32.4296 364.427 32.5294 364.781 32.2985C365.134 32.0676 365.234 31.5935 365.003 31.2395ZM360.702 26.6232C359.861 25.9863 358.967 25.4231 358.029 24.9406C357.653 24.7476 357.193 24.8959 357 25.2719C356.807 25.6478 356.955 26.1091 357.331 26.3021C358.19 26.7441 359.01 27.2602 359.781 27.8439C360.118 28.0988 360.597 28.0321 360.851 27.695C361.106 27.3579 361.039 26.878 360.702 26.6232ZM355.115 23.7493C354.111 23.4374 353.079 23.2126 352.028 23.0784C351.61 23.025 351.227 23.3215 351.174 23.7407C351.12 24.1599 351.417 24.5431 351.835 24.5965C352.798 24.7195 353.743 24.9254 354.662 25.211C355.065 25.3362 355.494 25.1105 355.619 24.7069C355.744 24.3033 355.518 23.8745 355.115 23.7493ZM348.861 22.9495C347.801 22.9973 346.755 23.1361 345.731 23.3631C345.319 23.4545 345.059 23.863 345.15 24.2757C345.242 24.6883 345.649 24.9487 346.061 24.8573C346.999 24.6494 347.958 24.5222 348.93 24.4783C349.352 24.4593 349.678 24.1017 349.659 23.6795C349.64 23.2573 349.283 22.9305 348.861 22.9495ZM342.714 24.3157C341.739 24.7203 340.801 25.2092 339.912 25.7761C339.556 26.003 339.451 26.4759 339.678 26.8325C339.904 27.189 340.376 27.2941 340.732 27.0672C341.547 26.5479 342.406 26.1001 343.299 25.7295C343.688 25.5678 343.874 25.1201 343.712 24.7297C343.55 24.3393 343.104 24.1539 342.714 24.3157ZM337.405 27.6974C336.626 28.4087 335.909 29.1862 335.263 30.0208C335.005 30.3548 335.065 30.8355 335.399 31.0944C335.732 31.3533 336.212 31.2924 336.471 30.9584C337.063 30.1933 337.72 29.4804 338.434 28.8282C338.746 28.5435 338.768 28.0595 338.484 27.7472C338.2 27.4349 337.717 27.4126 337.405 27.6974ZM333.556 32.6685C333.062 33.601 332.65 34.5753 332.324 35.5816C332.194 35.9836 332.414 36.4151 332.816 36.5455C333.217 36.6758 333.648 36.4556 333.778 36.0536C334.076 35.1318 334.454 34.2394 334.906 33.3851C335.104 33.0117 334.962 32.5485 334.589 32.3507C334.216 32.1528 333.753 32.2951 333.556 32.6685ZM331.573 38.6141C331.386 39.5732 331.223 40.5933 331.096 41.6658C331.046 42.0855 331.345 42.4662 331.764 42.5162C332.183 42.5662 332.563 42.2665 332.613 41.8469C332.736 40.8133 332.892 39.8309 333.073 38.9085C333.154 38.4938 332.884 38.0917 332.47 38.0104C332.056 37.9291 331.654 38.1994 331.573 38.6141ZM330.842 44.7427C330.794 45.7641 330.784 46.7939 330.813 47.8293C330.825 48.2517 331.176 48.5846 331.598 48.5727C332.02 48.5608 332.352 48.2087 332.34 47.7863C332.312 46.7896 332.322 45.7977 332.368 44.8136C332.388 44.3915 332.062 44.0334 331.64 44.0138C331.219 43.9942 330.861 44.3206 330.842 44.7427ZM331.019 50.9106C331.129 51.938 331.281 52.9587 331.476 53.9706C331.556 54.3856 331.957 54.657 332.371 54.5768C332.785 54.4966 333.056 54.0952 332.976 53.6803C332.789 52.7111 332.644 51.7328 332.539 50.7474C332.494 50.3272 332.117 50.0231 331.698 50.0681C331.278 50.1132 330.974 50.4904 331.019 50.9106ZM332.198 56.9878C332.485 57.9832 332.816 58.9629 333.195 59.9255C333.35 60.3187 333.793 60.5119 334.186 60.357C334.579 60.2021 334.771 59.7578 334.617 59.3646C334.256 58.4475 333.94 57.5134 333.667 56.5639C333.55 56.1579 333.126 55.9235 332.721 56.0406C332.315 56.1576 332.081 56.5817 332.198 56.9878ZM334.475 62.7624C334.945 63.6807 335.462 64.5777 336.026 65.4521C336.256 65.807 336.729 65.9086 337.083 65.6791C337.437 65.4496 337.539 64.9759 337.31 64.621C336.773 63.7897 336.281 62.937 335.834 62.064C335.642 61.688 335.181 61.5395 334.806 61.7323C334.43 61.9252 334.282 62.3864 334.475 62.7624ZM337.839 67.9726C338.477 68.773 339.159 69.5496 339.888 70.3014C340.182 70.6047 340.665 70.612 340.968 70.3177C341.271 70.0234 341.278 69.5389 340.984 69.2356C340.29 68.5193 339.64 67.7797 339.033 67.0178C338.77 66.6875 338.289 66.6335 337.959 66.8972C337.629 67.1608 337.575 67.6423 337.839 67.9726ZM342.14 72.4202C342.909 73.0814 343.719 73.7189 344.571 74.3321C344.913 74.5789 345.391 74.5008 345.637 74.1577C345.883 73.8147 345.805 73.3365 345.463 73.0897C344.647 72.5019 343.871 71.8913 343.134 71.2585C342.814 70.9834 342.332 71.0204 342.057 71.3412C341.782 71.662 341.819 72.1451 342.14 72.4202ZM347.152 76.0397C348.013 76.5628 348.909 77.0642 349.841 77.5432C350.216 77.7362 350.677 77.5879 350.869 77.212C351.062 76.836 350.914 76.3748 350.539 76.1818C349.639 75.7191 348.774 75.2354 347.944 74.7311C347.583 74.512 347.113 74.6272 346.894 74.9886C346.676 75.3499 346.791 75.8205 347.152 76.0397ZM352.626 78.8624C353.545 79.2631 354.495 79.6445 355.475 80.0061C355.871 80.1521 356.311 79.9491 356.456 79.5525C356.602 79.156 356.4 78.7161 356.004 78.57C355.051 78.2184 354.128 77.848 353.235 77.459C352.848 77.2904 352.398 77.4679 352.23 77.8554C352.061 78.243 352.239 78.6938 352.626 78.8624ZM358.376 80.9905C359.331 81.2881 360.312 81.5686 361.319 81.8318C361.728 81.9386 362.145 81.6936 362.251 81.2847C362.358 80.8758 362.113 80.4578 361.705 80.351C360.721 80.0938 359.762 79.8197 358.829 79.5291C358.427 79.4036 357.998 79.629 357.873 80.0326C357.748 80.4361 357.973 80.865 358.376 80.9905ZM364.295 82.5426C365.272 82.755 366.271 82.9522 367.292 83.1343C367.708 83.2083 368.104 82.9311 368.178 82.515C368.252 82.0989 367.975 81.7016 367.56 81.6276C366.557 81.4488 365.577 81.2553 364.619 81.047C364.207 80.9574 363.8 81.2196 363.71 81.6326C363.621 82.0456 363.883 82.453 364.295 82.5426ZM370.303 83.6175C371.292 83.7593 372.3 83.8879 373.328 84.0029C373.747 84.0499 374.125 83.7475 374.172 83.3275C374.219 82.9075 373.917 82.529 373.498 82.482C372.486 82.3687 371.493 82.2421 370.519 82.1025C370.102 82.0426 369.715 82.3332 369.655 82.7516C369.595 83.1699 369.885 83.5576 370.303 83.6175Z" fill="#FE7624"/>
<path fill-rule="evenodd" clip-rule="evenodd" d="M333.586 62.7444C334.605 62.9101 335.628 63.0328 336.653 63.1126C337.073 63.1453 337.441 62.8303 337.474 62.409C337.506 61.9876 337.192 61.6195 336.771 61.5868C335.789 61.5103 334.807 61.3926 333.831 61.2338C333.414 61.166 333.022 61.4493 332.954 61.8664C332.886 62.2836 333.169 62.6766 333.586 62.7444Z" fill="#FE7624"/>
<path fill-rule="evenodd" clip-rule="evenodd" d="M375.449 83.433C375.491 83.0125 375.865 82.7057 376.285 82.7478L376.485 82.7667C376.609 82.7776 376.748 82.7886 376.958 82.8044L377.508 82.8472C377.617 82.8564 377.71 82.865 377.813 82.8753C378.233 82.9173 378.539 83.2923 378.497 83.7128C378.455 84.1333 378.081 84.4401 377.661 84.3981L377.461 84.3792C377.337 84.3683 377.198 84.3572 376.988 84.3414L376.438 84.2986C376.329 84.2895 376.236 84.2809 376.133 84.2706C375.713 84.2285 375.407 83.8535 375.449 83.433Z" fill="#FE7624"/>
<path fill-rule="evenodd" clip-rule="evenodd" d="M236.035 19.4361L219.073 3.23936L248.234 0L244.083 6.22365L245.687 13.0084L241.128 11.172L236.035 19.4361Z" fill="#FE7624"/>
<path fill-rule="evenodd" clip-rule="evenodd" d="M221.396 3.26686L243.247 4.87378C243.668 4.90473 243.984 5.27149 243.953 5.69297C243.923 6.09939 243.582 6.40828 243.18 6.40208L243.135 6.40008L221.284 4.79316C220.863 4.76221 220.547 4.39545 220.578 3.97397C220.608 3.56755 220.949 3.25866 221.351 3.26486L221.396 3.26686Z" fill="white"/>
<path fill-rule="evenodd" clip-rule="evenodd" d="M220.625 3.76063C220.768 3.37921 221.183 3.17959 221.566 3.29924L221.609 3.31386L240.429 10.4047C240.824 10.5535 241.024 10.9948 240.876 11.3904C240.732 11.7718 240.317 11.9714 239.934 11.8518L239.891 11.8371L221.071 4.74626C220.676 4.59746 220.476 4.15618 220.625 3.76063Z" fill="white"/>
</svg>
