<svg width="347" height="145" viewBox="0 0 347 145" fill="none" xmlns="http://www.w3.org/2000/svg">
<g clip-path="url(#clip0_1218_129856)">
<path d="M67.4253 60.5974C64.2041 59.6572 60.4776 59.0835 56.1351 59.019C56.1351 59.019 54.4843 65.0285 56.5015 72.5378" stroke="#3C4A71" stroke-width="1.20793" stroke-linecap="round" stroke-linejoin="round"/>
<path d="M67.4834 73.4822C66.6566 69.2134 66.6286 64.8283 67.4009 60.5493" stroke="#3C4A71" stroke-width="1.20793" stroke-linecap="round" stroke-linejoin="round"/>
<path d="M67.4014 60.5492C68.712 53.1788 72.4868 44.9105 80.3343 36.0564C80.3343 36.0564 88.7193 40.4694 94.9623 49.857" stroke="#3C4A71" stroke-width="1.20793" stroke-linecap="round" stroke-linejoin="round"/>
<path d="M85.3867 66.8204C88.171 57.2939 94.9998 46.7366 109.92 37.7556C109.92 37.7556 115.508 42.9276 118.74 52.1984" stroke="#3C4A71" stroke-width="1.20793" stroke-linecap="round" stroke-linejoin="round"/>
<path d="M110.638 71.4125C109.738 66.5808 107.215 61.0304 102.066 54.8115C102.066 54.8115 67.1603 70.6495 84.6633 92.0218" stroke="#3C4A71" stroke-width="1.20793" stroke-linecap="round" stroke-linejoin="round"/>
<path d="M79.7512 79.0829C73.8283 75.0323 66.0452 71.93 56.5166 72.7675" stroke="#3C4A71" stroke-width="1.20793" stroke-linecap="round" stroke-linejoin="round"/>
<path d="M56.5169 72.7676C53.6574 73.0299 50.8346 73.6002 48.0977 74.4687C48.0977 74.4687 53.1045 86.0347 64.6403 93.1232" stroke="#3C4A71" stroke-width="1.20793" stroke-linecap="round" stroke-linejoin="round"/>
<path d="M103.227 92.0242H66.631C66.122 92.0205 65.6323 92.219 65.2695 92.5761C64.9067 92.9332 64.7005 93.4197 64.6963 93.9287V100.882C64.7005 101.391 64.9067 101.878 65.2695 102.235C65.6323 102.592 66.122 102.791 66.631 102.787H69.8521L77.9171 137.668" stroke="#3C4A71" stroke-width="1.20793" stroke-linecap="round" stroke-linejoin="round"/>
<path d="M109.934 144.336L113.072 130.762" stroke="#3C4A71" stroke-width="1.20793" stroke-linecap="round" stroke-linejoin="round"/>
<path d="M284.403 138.835L281.182 108.335C281.183 107.769 281.039 107.212 280.764 106.718C280.489 106.223 280.092 105.807 279.611 105.508C279.13 105.21 278.58 105.04 278.015 105.014C277.45 104.988 276.887 105.107 276.38 105.36C272.259 107.425 266.836 112.893 265.859 127.354" stroke="#3C4A71" stroke-width="1.20793" stroke-linecap="round" stroke-linejoin="round"/>
<path d="M256.647 120.928H266.679" stroke="#3C4A71" stroke-width="1.20793" stroke-linecap="round" stroke-linejoin="round"/>
<path d="M286.663 144.321C286.663 144.321 284.39 126.689 253.527 125.92" stroke="#3C4A71" stroke-width="1.20793" stroke-linecap="round" stroke-linejoin="round"/>
<path d="M235.191 144.265L257.457 122.001C257.457 122.001 225.944 95.7525 219.004 90.0873C211.857 84.249 201.103 71.7268 186.374 82.2116C180.618 86.3085 170.204 94.8949 159.894 104.558L159.965 104.568L159.683 104.756C157.126 107.153 154.579 109.616 152.113 112.088C151.572 117.211 149.585 126.206 146.009 124.793C144.846 124.334 143.63 122.593 142.512 122.309C141.787 123.138 141.085 123.96 140.404 124.775C139.853 126.754 137.848 130.974 135.661 130.889C131.703 136.478 129.527 141.247 130.358 144.315" stroke="#3C4A71" stroke-width="1.20793" stroke-linecap="round" stroke-linejoin="round"/>
<path d="M209.379 144.265L197.552 122.367C189.756 136.57 185.492 142.097 182.998 144.015" stroke="#3C4A71" stroke-width="1.20793" stroke-linecap="round" stroke-linejoin="round"/>
<path d="M161.795 56.7324C155.618 55.3231 142.921 54.9809 137.356 57.7974L125.092 60.2595C120.787 58.7315 115.561 59.5871 111.573 64.5396C103.339 74.7628 95.6846 112.559 95.6846 112.559L110.985 113.968L112.394 111.15C112.394 111.15 107.085 144.424 115.372 144.424C115.656 144.424 122.217 144.372 130.362 144.303C129.531 141.235 131.705 136.466 135.663 130.877C135.567 130.875 135.471 130.865 135.377 130.845C133.219 130.384 130.872 127.964 130.312 124.848C128.552 124 129.617 124.658 128.122 124.008C126.285 123.394 124.604 122.391 123.191 121.067C122.243 123.08 121.591 125.556 122.096 127.71C122.132 127.866 122.105 128.03 122.021 128.165C121.937 128.301 121.803 128.398 121.647 128.435C121.602 128.447 121.555 128.453 121.508 128.453C121.372 128.453 121.24 128.407 121.133 128.322C121.026 128.237 120.951 128.119 120.92 127.986C120.3 125.357 121.122 122.414 122.293 120.11C121.869 119.6 121.489 119.055 121.158 118.48C118.317 121.987 117.57 126.855 117.56 126.917C117.539 127.062 117.466 127.194 117.355 127.289C117.244 127.384 117.102 127.436 116.956 127.435C116.927 127.437 116.897 127.437 116.868 127.435C116.789 127.423 116.714 127.397 116.645 127.356C116.577 127.315 116.518 127.262 116.47 127.198C116.423 127.135 116.388 127.062 116.369 126.986C116.349 126.909 116.345 126.829 116.356 126.75C116.397 126.472 117.22 121.075 120.552 117.308C118.47 112.605 119.545 107.288 120.457 105.883C122.086 103.379 122.358 103.6 122.358 103.6C121.434 100.639 119.281 101.031 118.146 101.45C118.075 101.472 117.999 101.473 117.927 101.455C117.855 101.436 117.789 101.397 117.738 101.343C117.686 101.29 117.65 101.222 117.635 101.15C117.619 101.077 117.624 101.001 117.649 100.931C121.77 90.4497 133.296 98.0094 133.296 98.0094L135.627 97.1155C135.462 92.5214 135.949 86.9025 136.776 86.0589C138.687 84.1081 146.859 93.1897 146.859 93.1897C152.781 92.0603 158.841 90.9531 164.219 90.1196C164.48 88.0762 164.674 86.0046 164.746 84.0316C167.842 85.759 170.943 87.444 173.91 89.0324L177.48 88.7264L175.937 90.0934L176.139 90.2021C180.205 86.83 183.763 84.0558 186.366 82.2036C188.283 80.8016 190.407 79.7073 192.661 78.9603C183.386 70.847 168.116 58.1698 161.795 56.7324Z" fill="#3C4A71"/>
<path d="M145.36 124.417L145.341 124.405L145.36 124.417Z" fill="#3C4A71"/>
<path d="M145.801 124.685L145.782 124.675L145.801 124.685Z" fill="#3C4A71"/>
<path d="M146.519 124.914L146.418 124.898L146.519 124.914Z" fill="#3C4A71"/>
<path d="M146.344 124.886L146.229 124.856L146.344 124.886Z" fill="#3C4A71"/>
<path d="M146.184 124.842C146.127 124.823 146.068 124.805 146.012 124.781C146.068 124.805 146.127 124.819 146.184 124.842Z" fill="#3C4A71"/>
<path d="M145.136 124.248L145.117 124.234L145.136 124.248Z" fill="#3C4A71"/>
<path d="M144.486 123.688C144.259 123.487 144.031 123.285 143.808 123.084C144.031 123.279 144.259 123.485 144.486 123.688Z" fill="#3C4A71"/>
<path d="M144.702 123.88L144.671 123.853L144.702 123.88Z" fill="#3C4A71"/>
<path d="M144.915 124.063C144.909 124.059 144.903 124.054 144.898 124.048C144.903 124.054 144.909 124.059 144.915 124.063V124.063Z" fill="#3C4A71"/>
<path d="M147.316 124.838L147.231 124.864L147.316 124.838Z" fill="#3C4A71"/>
<path d="M147.768 124.628L147.685 124.677L147.768 124.628Z" fill="#3C4A71"/>
<path d="M147.47 124.781L147.385 124.813L147.47 124.781Z" fill="#3C4A71"/>
<path d="M147.915 124.532L147.832 124.588L147.915 124.532Z" fill="#3C4A71"/>
<path d="M148.202 124.3C148.174 124.326 148.146 124.353 148.115 124.377C148.156 124.353 148.174 124.326 148.202 124.3Z" fill="#3C4A71"/>
<path d="M147.62 124.711L147.537 124.751L147.62 124.711Z" fill="#3C4A71"/>
<path d="M147.161 124.882L147.074 124.9L147.161 124.882Z" fill="#3C4A71"/>
<path d="M143.803 123.086C143.731 123.024 143.66 122.965 143.588 122.909C143.66 122.965 143.727 123.024 143.803 123.086Z" fill="#3C4A71"/>
<path d="M161.898 102.686C161.898 102.644 161.916 102.604 161.926 102.561L159.722 104.522C159.806 104.532 159.889 104.542 159.967 104.556L159.897 104.546C160.564 103.921 161.231 103.301 161.898 102.686Z" fill="#3C4A71"/>
<path d="M138.333 129.047C138.325 129.061 138.315 129.074 138.305 129.086C138.315 129.074 138.325 129.061 138.333 129.047V129.047Z" fill="#3C4A71"/>
<path d="M138.157 129.285L138.145 129.299L138.157 129.285Z" fill="#3C4A71"/>
<path d="M138.505 128.81C138.505 128.824 138.485 128.84 138.472 128.854C138.46 128.869 138.493 128.824 138.505 128.81Z" fill="#3C4A71"/>
<path d="M138.812 128.334L138.802 128.353L138.812 128.334Z" fill="#3C4A71"/>
<path d="M138.665 128.566L138.639 128.609L138.665 128.566Z" fill="#3C4A71"/>
<path d="M148.357 124.163L148.264 124.254L148.357 124.163Z" fill="#3C4A71"/>
<path d="M137.083 130.374L137.061 130.39L137.083 130.374Z" fill="#3C4A71"/>
<path d="M136.882 130.507L136.857 130.523L136.882 130.507Z" fill="#3C4A71"/>
<path d="M140.52 124.296C140.494 124.433 140.456 124.592 140.407 124.767C141.088 123.954 141.79 123.132 142.515 122.301C141.796 122.114 141.11 122.534 140.52 124.296Z" fill="#3C4A71"/>
<path d="M142.72 122.365C142.654 122.338 142.587 122.315 142.519 122.297C142.587 122.315 142.654 122.338 142.72 122.365Z" fill="#3C4A71"/>
<path d="M143.586 122.907C143.513 122.848 143.441 122.794 143.37 122.742C143.441 122.794 143.513 122.848 143.586 122.907Z" fill="#3C4A71"/>
<path d="M143.148 122.591C143.016 122.505 142.877 122.431 142.731 122.369C142.877 122.431 143.016 122.505 143.148 122.591V122.591Z" fill="#3C4A71"/>
<path d="M143.368 122.74C143.297 122.69 143.226 122.642 143.156 122.595C143.227 122.641 143.298 122.689 143.368 122.74Z" fill="#3C4A71"/>
<path d="M139.636 126.794L139.609 126.852L139.636 126.794Z" fill="#3C4A71"/>
<path d="M139.86 126.291C139.86 126.303 139.86 126.313 139.845 126.326C139.831 126.338 139.855 126.303 139.86 126.291Z" fill="#3C4A71"/>
<path d="M139.509 127.06C139.502 127.077 139.495 127.093 139.486 127.109C139.495 127.093 139.502 127.077 139.509 127.06Z" fill="#3C4A71"/>
<path d="M139.753 126.537C139.746 126.554 139.739 126.571 139.73 126.588C139.739 126.571 139.746 126.554 139.753 126.537V126.537Z" fill="#3C4A71"/>
<path d="M148.06 124.417L147.975 124.481L148.06 124.417Z" fill="#3C4A71"/>
<path d="M151.329 116.932L151.305 117.037L151.329 116.932Z" fill="#3C4A71"/>
<path d="M151.391 116.642C151.391 116.674 151.377 116.707 151.371 116.739C151.377 116.707 151.377 116.674 151.391 116.642Z" fill="#3C4A71"/>
<path d="M151.504 116.088C151.505 116.106 151.505 116.125 151.504 116.143C151.505 116.125 151.505 116.106 151.504 116.088V116.088Z" fill="#3C4A71"/>
<path d="M151.45 116.364C151.45 116.39 151.44 116.419 151.434 116.447C151.44 116.413 151.444 116.384 151.45 116.364Z" fill="#3C4A71"/>
<path d="M151.264 117.221C151.253 117.26 151.245 117.298 151.237 117.337C151.245 117.298 151.253 117.26 151.264 117.221Z" fill="#3C4A71"/>
<path d="M151.125 117.805L151.095 117.933L151.125 117.805Z" fill="#3C4A71"/>
<path d="M150.974 118.391C150.962 118.436 150.95 118.478 150.939 118.523C150.954 118.478 150.974 118.436 150.974 118.391Z" fill="#3C4A71"/>
<path d="M151.195 117.513C151.185 117.554 151.177 117.594 151.167 117.635C151.175 117.594 151.185 117.554 151.195 117.513Z" fill="#3C4A71"/>
<path d="M151.053 118.099C151.053 118.142 151.031 118.184 151.021 118.227C151.031 118.176 151.043 118.142 151.053 118.099Z" fill="#3C4A71"/>
<path d="M152.063 112.555V112.577C152.063 112.577 152.061 112.563 152.063 112.555Z" fill="#3C4A71"/>
<path d="M152.198 111.186C152.176 111.466 152.149 111.764 152.115 112.076C154.581 109.604 157.128 107.141 159.685 104.744L158.811 105.327L152.198 111.186Z" fill="#3C4A71"/>
<path d="M148.392 124.12L148.507 123.996L148.392 124.12Z" fill="#3C4A71"/>
<path d="M150.9 118.681L150.863 118.815L150.9 118.681Z" fill="#3C4A71"/>
<path d="M149.279 122.897C149.257 122.937 149.234 122.976 149.21 123.014C149.234 122.976 149.257 122.937 149.279 122.897Z" fill="#3C4A71"/>
<path d="M149.396 122.688L149.331 122.807L149.396 122.688Z" fill="#3C4A71"/>
<path d="M149.163 123.1C149.138 123.139 149.114 123.175 149.092 123.213C149.112 123.175 149.136 123.139 149.163 123.1Z" fill="#3C4A71"/>
<path d="M149.511 122.47L149.448 122.591L149.511 122.47Z" fill="#3C4A71"/>
<path d="M149.623 122.245C149.603 122.287 149.583 122.33 149.561 122.37C149.583 122.33 149.603 122.287 149.623 122.245Z" fill="#3C4A71"/>
<path d="M149.038 123.293L148.961 123.411L149.038 123.293Z" fill="#3C4A71"/>
<path d="M148.787 123.652C148.754 123.696 148.72 123.739 148.688 123.781C148.72 123.739 148.76 123.696 148.787 123.652Z" fill="#3C4A71"/>
<path d="M149.734 122.013L149.673 122.143L149.734 122.013Z" fill="#3C4A71"/>
<path d="M148.657 123.813C148.614 123.865 148.57 123.918 148.525 123.969C148.57 123.924 148.614 123.871 148.657 123.813Z" fill="#3C4A71"/>
<path d="M148.913 123.477C148.887 123.517 148.858 123.553 148.83 123.592C148.858 123.553 148.887 123.517 148.913 123.477Z" fill="#3C4A71"/>
<path d="M150.05 121.274C150.03 121.321 150.011 121.369 149.993 121.416C150.011 121.369 150.03 121.321 150.05 121.274Z" fill="#3C4A71"/>
<path d="M150.346 120.477L150.291 120.637L150.346 120.477Z" fill="#3C4A71"/>
<path d="M150.451 120.173C150.429 120.237 150.409 120.302 150.387 120.374C150.409 120.302 150.429 120.237 150.451 120.173Z" fill="#3C4A71"/>
<path d="M150.572 119.821C150.556 119.873 150.538 119.926 150.521 119.979C150.532 119.926 150.55 119.873 150.572 119.821Z" fill="#3C4A71"/>
<path d="M150.652 119.541L150.609 119.682L150.652 119.541Z" fill="#3C4A71"/>
<path d="M149.841 121.773L149.782 121.905L149.841 121.773Z" fill="#3C4A71"/>
<path d="M150.737 119.257L150.698 119.392C150.71 119.346 150.725 119.301 150.737 119.257Z" fill="#3C4A71"/>
<path d="M150.819 118.981C150.807 119.026 150.794 119.07 150.78 119.115C150.794 119.06 150.807 119.016 150.819 118.981Z" fill="#3C4A71"/>
<path d="M150.25 120.749C150.232 120.801 150.214 120.852 150.193 120.903C150.214 120.852 150.232 120.793 150.25 120.749Z" fill="#3C4A71"/>
<path d="M149.945 121.526C149.927 121.572 149.907 121.619 149.889 121.663C149.907 121.619 149.927 121.572 149.945 121.526Z" fill="#3C4A71"/>
<path d="M150.151 121.014L150.095 121.16L150.151 121.014Z" fill="#3C4A71"/>
<path d="M216.815 42.6602L215.891 42.7125C215.367 42.7409 214.861 42.916 214.431 43.2178C214.001 43.5196 213.664 43.9361 213.459 44.4197L212.638 45.8048" stroke="#3C4A71" stroke-width="1.20793" stroke-linecap="round" stroke-linejoin="round"/>
<path d="M228.133 43.0567C228.737 42.9883 229.214 43.0567 229.478 43.3667C230.485 44.5304 230.16 45.9215 227.143 47.1234" stroke="#3C4A71" stroke-width="1.20793" stroke-linecap="round" stroke-linejoin="round"/>
<path d="M226.926 47.2241C227.667 47.0852 228.291 47.1235 228.601 47.4859C229.67 48.732 229.231 50.2379 225.581 51.4942" stroke="#3C4A71" stroke-width="1.20793" stroke-linecap="round" stroke-linejoin="round"/>
<path d="M225.78 50.27C226.487 50.3888 227.028 50.6284 227.189 51.0552C227.703 52.3678 227.105 53.4952 224.483 53.777" stroke="#3C4A71" stroke-width="1.20793" stroke-linecap="round" stroke-linejoin="round"/>
<path d="M229.429 39.2578L220.629 35.8152C220.276 35.6766 219.883 35.6836 219.535 35.8345C219.188 35.9855 218.914 36.2681 218.775 36.6204L215.252 45.6075C215.65 45.6 216.049 45.6412 216.437 45.7303L219.322 38.3719C219.462 38.0196 219.735 37.737 220.083 37.586C220.431 37.4351 220.824 37.4281 221.177 37.5667L227.168 39.9141C227.52 40.054 227.803 40.3279 227.954 40.6758C228.105 41.0237 228.112 41.4173 227.973 41.7703L221.69 57.7995C221.621 57.9743 221.519 58.1338 221.388 58.2689C221.258 58.4041 221.102 58.5121 220.93 58.5869C220.758 58.6617 220.572 58.7018 220.385 58.7049C220.197 58.708 220.01 58.6739 219.836 58.6048L213.842 56.2574C213.49 56.1174 213.207 55.8435 213.056 55.4956C212.905 55.1477 212.899 54.7542 213.037 54.4012L214.871 49.7205C213.9 50.519 213.102 51.5067 212.526 52.6235V52.5792L211.318 55.6756C211.179 56.0283 211.186 56.4215 211.337 56.7691C211.488 57.1167 211.771 57.3902 212.123 57.5297L220.923 60.9784C221.276 61.1175 221.67 61.1109 222.018 60.9599C222.366 60.8089 222.64 60.5259 222.779 60.1731L230.248 41.118C230.317 40.9421 230.35 40.7543 230.347 40.5655C230.343 40.3766 230.301 40.1904 230.225 40.0175C230.149 39.8446 230.039 39.6885 229.903 39.5581C229.766 39.4278 229.605 39.3257 229.429 39.2578V39.2578Z" fill="#FEAD7C"/>
<path d="M210.843 83.1037C214.748 75.3649 217.764 66.0699 218.751 60.5557" stroke="#3C4A71" stroke-width="1.20793" stroke-linecap="round" stroke-linejoin="round"/>
<path d="M212.528 52.6297C213.109 51.5021 213.916 50.5063 214.899 49.7044C220.685 49.3018 219.163 47.0651 217.47 46.1249C215.719 45.1526 213.226 45.1485 211.594 46.7289L210.879 47.5342C209.268 49.2032 209.387 55.1502 209.387 55.1502C206.357 60.6141 201.334 70.2675 194.419 78.1552" stroke="#3C4A71" stroke-width="1.20793" stroke-linecap="round" stroke-linejoin="round"/>
<path d="M145.438 48.7198L144.329 56.7083L149.217 56.4063C149.217 56.4063 151.401 67.8917 139.151 69.6251C130.613 70.833 130.178 58.0631 130.178 58.0631L130.456 37.6672" stroke="#3C4A71" stroke-width="1.20793" stroke-linecap="round" stroke-linejoin="round"/>
<path d="M130.477 35.7768C130.477 35.7768 122.638 38.0356 122.003 30.48C121.52 24.7504 127.036 24.2008 129.726 24.2712" stroke="#3C4A71" stroke-width="1.20793" stroke-linecap="round" stroke-linejoin="round"/>
<path d="M159.818 27.4662C160.056 30.9189 159.384 46.9099 148.673 48.5466C137.963 50.1834 130.397 40.4756 128.98 30.2263C127.563 19.9771 131.799 11.2014 138.569 10.0056C145.339 8.80973 158.091 2.46407 159.818 27.4662Z" stroke="#3C4A71" stroke-width="1.20793" stroke-linecap="round" stroke-linejoin="round"/>
<path d="M149.653 33.7316L152.887 33.6048L150.33 20.6316" stroke="#3C4A71" stroke-width="1.20793" stroke-linecap="round" stroke-linejoin="round"/>
<path d="M142.749 22.864C142.749 22.864 144.921 20.2911 147.049 21.8896" stroke="#3C4A71" stroke-width="1.20793" stroke-linecap="round" stroke-linejoin="round"/>
<path d="M153.59 22.2277C153.59 22.2277 156.086 19.983 157.973 21.8694" stroke="#3C4A71" stroke-width="1.20793" stroke-linecap="round" stroke-linejoin="round"/>
<path d="M148.113 28.8941C148.126 27.9558 147.657 27.1882 147.065 27.1796C146.472 27.171 145.981 27.9247 145.967 28.863C145.953 29.8014 146.423 30.569 147.015 30.5776C147.608 30.5861 148.099 29.8324 148.113 28.8941Z" fill="#3C4A71"/>
<path d="M158.414 29.4139C158.427 28.4756 157.958 27.708 157.365 27.6994C156.773 27.6908 156.281 28.4445 156.268 29.3828C156.254 30.3211 156.724 31.0887 157.316 31.0973C157.909 31.1059 158.4 30.3522 158.414 29.4139Z" fill="#3C4A71"/>
<path d="M149.909 27.0628C150.16 21.9877 147.32 17.7231 143.565 17.5375C139.811 17.3519 136.564 21.3156 136.313 26.3906C136.062 31.4657 138.902 35.7303 142.657 35.9159C146.411 36.1015 149.659 32.1378 149.909 27.0628Z" stroke="#FEAD7C" stroke-width="0.905948" stroke-linecap="round" stroke-linejoin="round"/>
<path d="M167.872 27.5559C168.123 22.4809 165.283 18.2163 161.528 18.0307C157.774 17.8451 154.526 21.8088 154.276 26.8838C154.025 31.9589 156.865 36.2235 160.62 36.4091C164.374 36.5947 167.621 32.631 167.872 27.5559Z" stroke="#FEAD7C" stroke-width="0.905948" stroke-linecap="round" stroke-linejoin="round"/>
<path d="M154.384 24.6135L150.13 24.4846" stroke="#FEAD7C" stroke-width="0.905948" stroke-linecap="round" stroke-linejoin="round"/>
<path d="M136.725 23.2405L126.8 24.3155" stroke="#FEAD7C" stroke-width="0.905948" stroke-linecap="round" stroke-linejoin="round"/>
<path d="M146.485 38.9033C146.485 38.9033 148.43 40.4857 150.385 39.8999Z" fill="white"/>
<path d="M146.485 38.9033C146.485 38.9033 148.43 40.4857 150.385 39.8999" stroke="#3C4A71" stroke-width="1.20793" stroke-linecap="round" stroke-linejoin="round"/>
<path d="M166.408 11.3827C162.287 -5.70346 140.291 -0.442923 136.86 7.0845C122.425 3.78483 116.706 14.316 113.96 21.1146C111.302 27.6938 112.81 33.9549 116.055 41.0193C117.922 45.082 126.001 42.2655 130.363 41.7602L130.384 35.801C129.508 36.0245 122.596 37.5545 122.002 30.4801C121.781 27.8971 122.788 26.3731 124.197 25.4732C124.716 26.2 125.701 26.51 127.346 26.1617C133.033 24.9538 136.218 19.4819 137.718 15.9346L163.688 14.9864C164.12 14.9694 164.542 14.8567 164.925 14.6565C165.308 14.4564 165.642 14.1737 165.902 13.8288C166.162 13.484 166.342 13.0857 166.43 12.6627C166.518 12.2397 166.51 11.8025 166.408 11.3827V11.3827Z" fill="#3C4A71"/>
<path d="M135.026 53.0433C136.267 46.7796 132.856 40.8263 127.406 39.7462C121.955 38.6661 116.531 42.8682 115.29 49.1318C114.048 55.3955 117.46 61.3488 122.91 62.4289C128.36 63.509 133.785 59.3069 135.026 53.0433Z" fill="#3C4A71"/>
<path d="M143.398 65.974C145.244 61.7295 143.747 56.986 140.053 55.379C136.359 53.7721 131.867 55.9103 130.021 60.1548C128.175 64.3993 129.672 69.1428 133.366 70.7497C137.06 72.3566 141.551 70.2185 143.398 65.974Z" fill="#3C4A71"/>
<path d="M148.423 77.2252C151.065 74.0485 150.966 69.61 148.202 67.3114C145.439 65.0128 141.057 65.7247 138.415 68.9013C135.773 72.0779 135.871 76.5164 138.635 78.815C141.399 81.1136 145.781 80.4018 148.423 77.2252Z" fill="#3C4A71"/>
<path d="M146.074 87.5871C148.372 89.4735 152.009 88.8775 154.198 86.2563C156.386 83.6351 156.3 79.9771 153.996 78.0907C151.693 76.2043 147.979 76.6191 145.791 79.2403C143.602 81.8615 143.777 85.6987 146.074 87.5871Z" fill="#3C4A71"/>
<path d="M131.111 60.8112L135.166 54.0347" stroke="#FEAD7C" stroke-width="1.61057" stroke-linecap="round" stroke-linejoin="round"/>
<path d="M138.709 69.9895L143.901 65.7939" stroke="#FEAD7C" stroke-width="1.61057" stroke-linecap="round" stroke-linejoin="round"/>
<path d="M145.602 79.2503L147.454 78.3081" stroke="#FEAD7C" stroke-width="1.61057" stroke-linecap="round" stroke-linejoin="round"/>
<path d="M150.424 87.8085L152.395 87.1421" stroke="#FEAD7C" stroke-width="1.61057" stroke-linecap="round" stroke-linejoin="round"/>
<path d="M82.3097 134.853C82.3097 134.853 73.0993 139.786 70.5465 141.114C67.9938 142.443 68.0864 144.124 68.0864 144.124" stroke="#3C4A71" stroke-width="1.20793" stroke-linecap="round" stroke-linejoin="round"/>
<path d="M96.398 112.072L89.8168 135.727L84.6247 134.72C83.8395 134.622 83.0426 134.684 82.2816 134.901C81.5206 135.117 80.8112 135.485 80.1957 135.983L70.7335 142.936C70.6227 143.018 70.5405 143.133 70.4987 143.265C70.4569 143.396 70.4575 143.538 70.5005 143.669C70.5435 143.8 70.6267 143.914 70.7383 143.995C70.8499 144.076 70.9842 144.12 71.1221 144.12C77.0732 144.104 91.6287 144.068 94.1352 144.12C97.5577 144.195 99.4863 142.826 102.361 135.528C103.875 131.685 107.31 121.363 110.557 113.193L96.398 112.072Z" stroke="#3C4A71" stroke-width="1.20793" stroke-linecap="round" stroke-linejoin="round"/>
<path d="M73.582 144.132C73.582 144.132 80.8296 140.186 81.9127 139.703C82.9958 139.22 86.7726 139.759 86.7726 139.759" stroke="#3C4A71" stroke-width="1.20793" stroke-linecap="round" stroke-linejoin="round"/>
<path d="M80.7115 143.776C80.7115 143.776 80.1277 141.273 82.459 140.909C84.7903 140.545 87.9329 140.019 90.085 138.141" stroke="#3C4A71" stroke-width="1.20793" stroke-linecap="round" stroke-linejoin="round"/>
<path d="M136.577 87.6836C136.577 87.6836 143.859 91.1926 142.937 95.3499" stroke="#3C4A71" stroke-width="1.20793" stroke-linecap="round" stroke-linejoin="round"/>
<path d="M69.6621 102.896H117.375" stroke="#3C4A71" stroke-width="1.20793" stroke-linecap="round" stroke-linejoin="round"/>
<path d="M130.253 111.331L132.166 111.935C132.301 111.974 132.447 111.958 132.572 111.891C132.696 111.824 132.79 111.711 132.832 111.576L133.402 109.791C133.436 109.697 133.442 109.595 133.417 109.499C133.393 109.402 133.339 109.315 133.264 109.249C133.189 109.184 133.096 109.143 132.996 109.132C132.897 109.12 132.797 109.14 132.709 109.187L130.235 110.381C130.141 110.421 130.062 110.488 130.007 110.574C129.951 110.66 129.923 110.76 129.925 110.862C129.927 110.964 129.959 111.063 130.018 111.146C130.076 111.23 130.158 111.294 130.253 111.331V111.331Z" fill="#3C4A71"/>
<path d="M134.665 112.136C134.816 114.81 133.121 112.811 132.402 111.605C132.805 112.857 132.89 115.096 131.454 113.797" stroke="#3C4A71" stroke-width="1.20793" stroke-linecap="round" stroke-linejoin="round"/>
<path d="M148.165 124.286C147.986 123.833 146.498 118.196 147.139 115.011" stroke="#3C4A71" stroke-width="1.20793" stroke-linecap="round" stroke-linejoin="round"/>
<path d="M143.332 116.314C143.266 116.428 144.3 122.2 146.475 124.848" stroke="#3C4A71" stroke-width="1.20793" stroke-linecap="round" stroke-linejoin="round"/>
<path d="M160.032 104.567C156.299 103.937 144.361 106.884 141.635 112.972C138.909 119.06 141.81 123.096 146.054 124.777" stroke="#3C4A71" stroke-width="1.20793" stroke-linecap="round" stroke-linejoin="round"/>
<path d="M136.759 122.315C136.759 122.315 135.621 128.258 136.32 130.77" stroke="#3C4A71" stroke-width="1.20793" stroke-linecap="round" stroke-linejoin="round"/>
<path d="M133.054 122.202C133.054 122.202 132.891 128.763 134.762 130.714" stroke="#3C4A71" stroke-width="1.20793" stroke-linecap="round" stroke-linejoin="round"/>
<path d="M140.482 118.596C138.532 117.636 132.128 116.474 130.648 120.883C130.354 121.763 129.748 124.016 129.75 124.847" stroke="#3C4A71" stroke-width="1.20793" stroke-linecap="round" stroke-linejoin="round"/>
<path d="M137.131 104.796C137.131 104.796 136.994 106.964 134.848 105.978" stroke="#3C4A71" stroke-width="1.20793" stroke-linecap="round" stroke-linejoin="round"/>
<path d="M129 108.18C129 108.18 128.863 110.348 126.717 109.362" stroke="#3C4A71" stroke-width="1.20793" stroke-linecap="round" stroke-linejoin="round"/>
<path d="M120.484 100.554C120.484 100.554 123.838 97.0449 130.496 99.7487" stroke="#3C4A71" stroke-width="1.20793" stroke-linecap="round" stroke-linejoin="round"/>
<path d="M211.169 18.2939H199.025C198.613 18.3014 198.22 18.4722 197.934 18.7689C197.647 19.0656 197.49 19.4639 197.497 19.8763V29.0345C197.49 29.4448 197.646 29.8414 197.93 30.1377C198.213 30.4341 198.603 30.6063 199.013 30.6169L207.433 30.7457L212.701 36.2035V19.8763C212.705 19.6717 212.668 19.4684 212.593 19.278C212.518 19.0876 212.406 18.9139 212.264 18.7669C212.121 18.6199 211.951 18.5024 211.764 18.4213C211.576 18.3401 211.374 18.2968 211.169 18.2939ZM207.084 24.8812C207.085 24.8946 207.085 24.9081 207.084 24.9215C207.084 26.1294 206.025 27.1199 204.723 27.1199C203.42 27.1199 202.361 26.1334 202.361 24.9215V23.2666C202.361 22.0587 203.42 21.0661 204.723 21.0661C206.025 21.0661 207.084 22.0526 207.084 23.2666C207.085 23.28 207.085 23.2935 207.084 23.3069V24.8792V24.8812Z" fill="#FEAD7C"/>
<path d="M345.608 144.396H1.3916" stroke="#3C4A71" stroke-width="1.20793" stroke-linecap="round" stroke-linejoin="round"/>
</g>
<defs>
<clipPath id="clip0_1218_129856">
<rect width="345.424" height="145" fill="white" transform="translate(0.788086)"/>
</clipPath>
</defs>
</svg>
