<svg width="180" height="88" viewBox="0 0 180 88" fill="none" xmlns="http://www.w3.org/2000/svg">
<path fill-rule="evenodd" clip-rule="evenodd" d="M28.2163 40.1404C27.4555 43.0787 28.8019 46.8976 32.1613 50.2654L32.2637 50.3674C34.7921 52.8684 36.9624 54.5961 38.7986 55.6684L38.9352 55.7473C40.2461 56.4966 41.291 56.8551 42.0872 56.9255C42.4714 56.9627 42.8509 56.8406 43.1546 56.5876C43.5174 56.2748 43.7028 55.8198 43.6536 55.3551L43.6494 55.3194C42.7774 47.3949 39.1571 40.2287 34.1932 37.5934C31.4709 36.1453 28.9477 37.3159 28.2163 40.1404ZM33.9119 38.1228C38.6226 40.6237 42.1304 47.499 43.0279 55.159L43.0543 55.3914C43.0912 55.6719 42.9843 55.9432 42.767 56.1305C42.5882 56.2794 42.3669 56.3506 42.1425 56.3289C41.4106 56.2641 40.4039 55.912 39.1008 55.151C37.3318 54.118 35.2283 52.4477 32.7699 50.0251L32.685 49.9413C29.3922 46.6886 28.0863 43.0336 28.7965 40.2907C29.4321 37.8358 31.5369 36.8594 33.9119 38.1228Z" fill="#2F4077"/>
<path fill-rule="evenodd" clip-rule="evenodd" d="M29.5246 38.2969C29.6364 38.184 29.8157 38.1785 29.9339 38.2812L29.9581 38.3043L30.1138 38.4605C30.2355 38.5835 30.3748 38.7257 30.5303 38.8862L30.7214 39.0843C31.1822 39.5636 31.6883 40.1028 32.2293 40.6949C33.9375 42.5646 35.6458 44.5781 37.2408 46.6595C39.1518 49.1532 40.7693 51.5766 42.0003 53.8684C42.387 54.5884 42.7333 55.2915 43.037 55.9765C43.1041 56.1278 43.0358 56.3048 42.8845 56.3719C42.7332 56.4389 42.5562 56.3707 42.4891 56.2194C42.1917 55.5487 41.8521 54.8591 41.4723 54.152C40.2582 51.8916 38.6579 49.494 36.7651 47.024C35.2381 45.0313 33.6053 43.0999 31.9687 41.2988L31.7868 41.0992C31.2211 40.48 30.6939 39.9192 30.2176 39.4251L30.0094 39.2101C29.9504 39.1494 29.8941 39.0917 29.8405 39.0371L29.6035 38.7972L29.5269 38.7207C29.4092 38.6043 29.4082 38.4146 29.5246 38.2969Z" fill="#2F4077"/>
<path fill-rule="evenodd" clip-rule="evenodd" d="M31.3852 48.2065L31.5079 48.2044C31.7074 48.2028 31.966 48.2076 32.2769 48.223L32.3358 48.226C32.895 48.2554 33.5047 48.3131 34.1538 48.4057C35.9332 48.6596 37.7337 49.1327 39.465 49.879C39.617 49.9445 39.6871 50.1208 39.6216 50.2728C39.5561 50.4247 39.3798 50.4948 39.2278 50.4293C37.5488 49.7057 35.799 49.2458 34.0692 48.999C33.4383 48.909 32.8462 48.853 32.3043 48.8245L32.1923 48.819C31.9183 48.8063 31.6903 48.8023 31.514 48.8037L31.4055 48.8055C31.2401 48.8111 31.1015 48.6816 31.0959 48.5162C31.0903 48.3508 31.2198 48.2121 31.3852 48.2065Z" fill="#2F4077"/>
<path fill-rule="evenodd" clip-rule="evenodd" d="M35.7033 39.1559C35.8474 39.0746 36.0302 39.1255 36.1115 39.2697L36.197 39.4234C36.2282 39.4798 36.2625 39.5423 36.2998 39.6107L36.4055 39.8057C36.5259 40.0289 36.6558 40.2733 36.7932 40.5365C37.3033 41.5138 37.8134 42.5496 38.2898 43.5988C38.6667 44.4289 39.0069 45.234 39.3016 46.0023L39.3647 46.1681C40.1745 48.3123 40.5788 50.0428 40.464 51.2422C40.4482 51.407 40.3018 51.5277 40.1371 51.512C39.9723 51.4962 39.8516 51.3498 39.8674 51.1851C39.9738 50.0736 39.5626 48.3564 38.742 46.2169C38.4519 45.4605 38.1163 44.6663 37.7441 43.8465C37.2726 42.8082 36.7672 41.782 36.2619 40.8138L36.1415 40.5843C36.0495 40.4099 35.9616 40.245 35.8782 40.0905L35.7519 39.8579L35.6076 39.5964C35.5996 39.5821 35.5936 39.5714 35.5895 39.5641C35.5082 39.42 35.5591 39.2372 35.7033 39.1559Z" fill="#2F4077"/>
<path fill-rule="evenodd" clip-rule="evenodd" d="M36.0317 52.7128L36.0563 52.7114L36.2098 52.7085C36.561 52.705 37.0095 52.7187 37.5225 52.7615C38.3669 52.8319 39.2017 52.9682 39.9852 53.1865C40.7346 53.3954 41.4063 53.6716 41.9807 54.0243C42.1218 54.1109 42.1659 54.2955 42.0793 54.4365C41.9927 54.5775 41.8082 54.6217 41.6671 54.5351C41.1444 54.2141 40.5233 53.9587 39.8243 53.7639C39.0806 53.5566 38.282 53.4263 37.4727 53.3588C36.9574 53.3158 36.5111 53.3034 36.1718 53.3084L36.0716 53.3106C35.9062 53.3167 35.7671 53.1877 35.761 53.0223C35.755 52.8628 35.8748 52.7278 36.0317 52.7128Z" fill="#2F4077"/>
<path fill-rule="evenodd" clip-rule="evenodd" d="M58.352 24.9575C54.969 25.1069 51.7967 28.2731 50.1364 33.8093L50.0866 33.9778L50.0099 34.2415C48.8588 38.2262 48.263 41.5125 48.1252 44.1675L48.1208 44.2548C48.0226 46.2842 48.1984 47.7891 48.541 48.8385C48.6916 49.3019 48.9831 49.6966 49.3689 49.9538C49.8589 50.2845 50.4275 50.3428 50.8893 50.0862C58.476 45.9599 63.8431 38.6675 63.9289 31.4085C63.9789 27.494 61.5586 24.8159 58.352 24.9575ZM63.3296 31.4011C63.2466 38.4192 58.0141 45.5289 50.6006 49.561C50.3467 49.702 50.0172 49.6683 49.7028 49.456C49.43 49.2742 49.2207 48.9908 49.1109 48.6528C48.7919 47.6759 48.6246 46.2434 48.7194 44.2837L48.7283 44.1119C48.8736 41.4914 49.4724 38.2351 50.6237 34.2767L50.6618 34.1459C51.4879 31.3154 52.6953 29.1272 54.1639 27.6463C55.4724 26.3268 56.9463 25.6194 58.3784 25.5562C61.2216 25.4307 63.3755 27.8138 63.3296 31.4011Z" fill="#2F4077"/>
<path fill-rule="evenodd" clip-rule="evenodd" d="M60.7912 26.2863C60.9373 26.2084 61.1188 26.2637 61.1966 26.4097C61.2745 26.5558 61.2192 26.7373 61.0732 26.8151C57.9977 28.4549 55.4452 32.3863 53.4 37.9113C52.4232 40.55 51.6267 43.3797 50.9975 46.2097L50.9384 46.4781C50.7636 47.278 50.6133 48.029 50.4865 48.718L50.4451 48.9454C50.4061 49.1618 50.3717 49.3598 50.3418 49.5384L50.2858 49.8817L50.2709 49.9784C50.2466 50.1421 50.0942 50.2552 49.9305 50.2309C49.7727 50.2074 49.6619 50.0649 49.676 49.9079L49.6801 49.8769L49.7156 49.6522L49.7407 49.499C49.7668 49.3421 49.7964 49.1696 49.8297 48.9823L49.8553 48.8392C50.0052 48.0063 50.1904 47.0786 50.4125 46.0797C51.0471 43.225 51.8507 40.3701 52.8379 37.7032C54.9298 32.052 57.552 28.0133 60.7912 26.2863Z" fill="#2F4077"/>
<path fill-rule="evenodd" clip-rule="evenodd" d="M63.1081 32.31C63.2594 32.2429 63.4365 32.3111 63.5036 32.4624C63.5707 32.6136 63.5025 32.7907 63.3513 32.8578C61.8192 33.5378 60.0562 34.3906 58.3497 35.3287L58.176 35.4247C55.7859 36.7502 53.9489 38.0137 52.922 39.1297C52.81 39.2515 52.6204 39.2594 52.4986 39.1473C52.3768 39.0352 52.3689 38.8457 52.481 38.7239C53.5751 37.5349 55.4869 36.2248 57.9709 34.8531L58.061 34.8035C59.7844 33.8561 61.5618 32.9963 63.1081 32.31Z" fill="#2F4077"/>
<path fill-rule="evenodd" clip-rule="evenodd" d="M50.4853 33.9448C50.5007 33.78 50.6467 33.6588 50.8114 33.6742C50.9762 33.6895 51.0974 33.8355 51.0821 34.0003L51.0595 34.2487C50.6997 38.2905 50.8043 41.5223 51.6414 42.621C51.7417 42.7527 51.7163 42.9407 51.5846 43.041C51.453 43.1413 51.265 43.1159 51.1647 42.9842C50.6033 42.2474 50.3347 40.8289 50.2806 38.8528C50.2403 37.3789 50.3227 35.6948 50.4853 33.9448Z" fill="#2F4077"/>
<path fill-rule="evenodd" clip-rule="evenodd" d="M59.8959 41.1107C60.0251 41.0072 60.2137 41.0281 60.3171 41.1573C60.4206 41.2865 60.3997 41.4751 60.2705 41.5785C59.3399 42.3236 57.9983 43.0939 56.3493 43.8728C55.2047 44.4135 53.9797 44.9266 52.755 45.396L52.5594 45.4706C52.2371 45.5928 51.9339 45.7047 51.6542 45.8053L51.3938 45.8981L51.1195 45.9935C50.9627 46.0466 50.7926 45.9626 50.7395 45.8058C50.6884 45.6547 50.7647 45.4911 50.9107 45.432L51.2361 45.3182L51.3691 45.2708C51.7224 45.1444 52.1163 44.9989 52.5405 44.8363C53.7522 44.372 54.9638 43.8645 56.0933 43.3309C57.7036 42.5702 59.0091 41.8208 59.8959 41.1107Z" fill="#2F4077"/>
<path fill-rule="evenodd" clip-rule="evenodd" d="M54.6147 54.7511C54.7797 54.7372 54.9246 54.8596 54.9385 55.0245C54.9524 55.1894 54.83 55.3344 54.6651 55.3483C53.175 55.4739 51.9103 56.1294 50.8475 57.2044C50.0329 58.0284 49.3909 59.0412 48.9102 60.1164C48.8427 60.2675 48.6654 60.3352 48.5144 60.2677C48.3633 60.2002 48.2955 60.0229 48.3631 59.8718C48.8709 58.7358 49.5503 57.6641 50.4213 56.7831C51.5791 55.6119 52.973 54.8895 54.6147 54.7511Z" fill="#2F4077"/>
<path fill-rule="evenodd" clip-rule="evenodd" d="M54.7647 54.9191C55.1145 54.871 55.2803 53.9768 55.1351 52.922C54.9899 51.8672 54.5886 51.0512 54.2388 51.0993C53.889 51.1475 53.7232 52.0416 53.8684 53.0964C54.0137 54.1512 54.4149 54.9673 54.7647 54.9191Z" fill="#E4794A"/>
<path fill-rule="evenodd" clip-rule="evenodd" d="M56.5072 54.2556C57.2649 53.6396 57.7155 52.939 57.5137 52.6907C57.3119 52.4424 56.534 52.7405 55.7763 53.3564C55.0186 53.9724 54.5679 54.673 54.7698 54.9213C54.9716 55.1695 55.7495 54.8715 56.5072 54.2556Z" fill="#E4794A"/>
<path fill-rule="evenodd" clip-rule="evenodd" d="M54.7631 54.8693C54.9251 54.5556 54.2896 53.9052 53.3436 53.4166C52.3976 52.9281 51.4993 52.7863 51.3373 53.1C51.1753 53.4137 51.8108 54.0641 52.7568 54.5527C53.7028 55.0412 54.6011 55.183 54.7631 54.8693Z" fill="#E4794A"/>
<path fill-rule="evenodd" clip-rule="evenodd" d="M57.8801 56.6078C58.0322 56.3263 57.4591 55.7218 56.6 55.2576C55.7409 54.7934 54.9212 54.6453 54.7691 54.9268C54.617 55.2083 55.1901 55.8128 56.0492 56.277C56.9082 56.7412 57.728 56.8893 57.8801 56.6078Z" fill="#E4794A"/>
<path fill-rule="evenodd" clip-rule="evenodd" d="M54.5404 56.77C54.9506 55.8839 55.0477 55.0566 54.7573 54.9221C54.467 54.7877 53.899 55.3971 53.4888 56.2832C53.0786 57.1693 52.9815 57.9967 53.2719 58.1311C53.5622 58.2655 54.1302 57.6561 54.5404 56.77Z" fill="#E4794A"/>
<path fill-rule="evenodd" clip-rule="evenodd" d="M38.5823 32.1381C38.6849 32.0084 38.8734 31.9864 39.0032 32.0891L39.0395 32.1186C39.055 32.1314 39.0738 32.1471 39.0958 32.1658L39.1517 32.2138C39.2096 32.2641 39.2735 32.3211 39.3431 32.3849C39.6064 32.6263 39.899 32.9171 40.2134 33.258C41.1089 34.2288 42.0032 35.4079 42.8372 36.8007C44.3862 39.3875 45.5472 42.4088 46.1617 45.8775C46.9153 50.1306 46.8077 54.8564 45.6828 60.0663C45.6479 60.228 45.4884 60.3309 45.3266 60.2959C45.1649 60.261 45.062 60.1015 45.097 59.9398C46.2056 54.8051 46.3114 50.1578 45.5716 45.982C44.9701 42.5872 43.8355 39.6343 42.3231 37.1086C41.5108 35.7523 40.6413 34.6058 39.7729 33.6643C39.47 33.336 39.1893 33.0569 38.9381 32.8267L38.8746 32.7689C38.813 32.7134 38.7573 32.6646 38.7077 32.6225L38.6429 32.5684C38.6382 32.5646 38.6343 32.5615 38.6313 32.5591C38.5015 32.4564 38.4796 32.2679 38.5823 32.1381Z" fill="#2F4077"/>
<path fill-rule="evenodd" clip-rule="evenodd" d="M39.6899 32.9452C40.2902 32.5947 40.1996 31.3219 39.4875 30.1023C38.7755 28.8826 37.7116 28.178 37.1113 28.5285C36.511 28.879 36.6017 30.1518 37.3137 31.3714C38.0258 32.5911 39.0897 33.2956 39.6899 32.9452Z" fill="#E4794A"/>
<path fill-rule="evenodd" clip-rule="evenodd" d="M39.8453 32.9304C39.8592 32.2355 38.7258 31.6493 37.3138 31.6212C35.9018 31.593 34.7459 32.1336 34.7321 32.8286C34.7183 33.5235 35.8517 34.1097 37.2636 34.1378C38.6756 34.166 39.8315 33.6254 39.8453 32.9304Z" fill="#E4794A"/>
<path fill-rule="evenodd" clip-rule="evenodd" d="M42.1241 31.8353C42.8869 30.8283 43.106 29.7096 42.6135 29.3365C42.121 28.9634 41.1034 29.4773 40.3406 30.4843C39.5778 31.4913 39.3587 32.61 39.8512 32.9831C40.3437 33.3562 41.3613 32.8423 42.1241 31.8353Z" fill="#E4794A"/>
<path fill-rule="evenodd" clip-rule="evenodd" d="M40.9051 36.6077C41.4675 36.352 41.4996 35.2124 40.9767 34.0624C40.4538 32.9124 39.574 32.1875 39.0116 32.4432C38.4491 32.6989 38.417 33.8385 38.9399 34.9885C39.4628 36.1385 40.3426 36.8634 40.9051 36.6077Z" fill="#E4794A"/>
<path fill-rule="evenodd" clip-rule="evenodd" d="M42.8931 33.1407C42.9517 32.5866 42.0786 32.04 40.9429 31.9199C39.8072 31.7997 38.8391 32.1515 38.7804 32.7057C38.7218 33.2598 39.595 33.8064 40.7306 33.9265C41.8663 34.0466 42.8344 33.6948 42.8931 33.1407Z" fill="#E4794A"/>
<path fill-rule="evenodd" clip-rule="evenodd" d="M57.4267 59.7432H36.1905C34.9347 59.7432 34.0506 61.1115 34.3599 62.4859L39.0545 83.5019C39.0851 83.6388 39.2066 83.7362 39.347 83.7362H54.2602C54.4005 83.7362 54.5221 83.6388 54.5527 83.5019L59.2474 62.4855C59.5561 61.1137 58.6745 59.7432 57.4267 59.7432ZM57.4267 60.3425L57.4528 60.3428C58.2707 60.3633 58.8905 61.3412 58.6626 62.3544L54.0201 83.1369H39.587L34.9447 62.3548C34.7138 61.3288 35.351 60.3425 36.1905 60.3425H57.4267Z" fill="#2F4077"/>
<path fill-rule="evenodd" clip-rule="evenodd" d="M160.191 30.3068L156.146 30.3367C156.675 30.5964 157.135 30.996 157.464 31.5154C158.073 32.4643 158.143 33.643 157.664 34.6619L136.448 79.5315H141.582L162.878 34.522C163.817 32.5542 162.369 30.2868 160.191 30.3068Z" fill="#2F4077"/>
<path fill-rule="evenodd" clip-rule="evenodd" d="M105.962 33.6331L150.222 33.2135C152.01 33.2036 153.199 34.9816 152.43 36.5198L134.65 74.1975C133.741 76.0554 131.853 77.2441 129.785 77.2541L70.7316 77.5538C69.2633 77.5638 68.2944 76.0255 68.9436 74.707L79.0822 55.1389L75.3364 54.9591L63.2201 79.7912L18.0308 79.8312C18.0308 79.8312 17.0219 86.4438 25.4525 86.8533L59.8239 86.7434L59.724 86.9432L119.017 86.7335V81.819C119.017 80.5804 120.016 79.5815 121.255 79.5815H135.998C135.978 79.5116 135.978 79.4317 136.008 79.3617L157.234 34.4422C157.624 33.6131 157.564 32.6542 157.075 31.875C156.585 31.1059 155.746 30.6464 154.837 30.6464C154.827 30.6464 154.827 30.6464 154.817 30.6464C154.667 30.6464 154.548 30.5366 154.518 30.3867L106.871 30.8262" fill="#2F4077"/>
<path fill-rule="evenodd" clip-rule="evenodd" d="M129.725 53.971H119.147C118.458 53.971 118.178 53.4116 118.518 52.7224L121.295 47.1187C121.634 46.4295 122.473 45.8701 123.173 45.8701H133.751C134.44 45.8701 134.72 46.4295 134.38 47.1187L131.603 52.7224C131.254 53.4116 130.415 53.971 129.725 53.971Z" fill="#E4794A"/>
<path fill-rule="evenodd" clip-rule="evenodd" d="M130.784 45.5703C131.422 45.5703 131.729 46.1105 131.464 46.6881L131.452 46.7126L128.134 53.3884C127.882 53.8791 127.29 54.2606 126.759 54.2606C126.593 54.2606 126.459 54.1264 126.459 53.9609C126.459 53.8013 126.584 53.6709 126.741 53.6617L126.759 53.6612C127.051 53.6612 127.428 53.424 127.586 53.1425L127.599 53.1183L130.914 46.4479C131.012 46.2466 130.97 46.1696 130.784 46.1696C130.619 46.1696 130.484 46.0355 130.484 45.87C130.484 45.7045 130.619 45.5703 130.784 45.5703Z" fill="#2F4077"/>
<path fill-rule="evenodd" clip-rule="evenodd" d="M128.916 53.8809L126.259 50.9542C126.029 50.7045 125.62 50.7744 125.49 51.0841L123.692 55.1395C123.532 55.4991 123.852 55.8787 124.231 55.7788L125.75 55.3992L125.92 58.1961C125.94 58.5956 126.319 58.8753 126.709 58.7954L127.817 58.5557C128.197 58.4758 128.427 58.0762 128.297 57.7066L127.358 54.9897L128.696 54.6501C129.026 54.5602 129.146 54.1406 128.916 53.8809Z" fill="#2F4077"/>
<path fill-rule="evenodd" clip-rule="evenodd" d="M127.178 61.043H115.331C114.871 61.043 114.353 61.3787 114.127 61.8131L112.706 64.6651C112.444 65.205 112.708 65.7277 113.294 65.7277H125.14C125.601 65.7277 126.122 65.3783 126.354 64.939L127.766 62.1056C128.028 61.5656 127.764 61.043 127.178 61.043ZM115.331 61.6423H127.178C127.29 61.6423 127.308 61.6775 127.228 61.841L125.821 64.6651C125.691 64.9108 125.367 65.1284 125.14 65.1284H113.294L113.271 65.1278C113.18 65.1227 113.17 65.0815 113.244 64.9297L114.651 62.1056C114.772 61.8567 115.097 61.6423 115.331 61.6423Z" fill="#2F4077"/>
<path fill-rule="evenodd" clip-rule="evenodd" d="M152.35 36.2012C152.516 36.2012 152.65 36.3353 152.65 36.5008C152.65 36.6604 152.525 36.7909 152.368 36.8L152.35 36.8005H88.7518C88.5863 36.8005 88.4521 36.6663 88.4521 36.5008C88.4521 36.3412 88.5769 36.2108 88.7342 36.2017L88.7518 36.2012H152.35Z" fill="#2F4077"/>
<path fill-rule="evenodd" clip-rule="evenodd" d="M140.678 33.3439C140.745 33.1922 140.921 33.1229 141.073 33.1892C141.219 33.253 141.289 33.4196 141.234 33.5674L141.228 33.5837L139.919 36.5804C139.853 36.732 139.676 36.8013 139.525 36.7351C139.378 36.6712 139.309 36.5047 139.363 36.3569L139.37 36.3405L140.678 33.3439Z" fill="#2F4077"/>
<path fill-rule="evenodd" clip-rule="evenodd" d="M130.997 33.3872C131.072 33.2398 131.253 33.1812 131.4 33.2564C131.542 33.3288 131.602 33.4988 131.539 33.643L131.531 33.6595L130.003 36.6561C129.928 36.8036 129.747 36.8621 129.6 36.7869C129.458 36.7145 129.398 36.5445 129.461 36.4004L129.469 36.3839L130.997 33.3872Z" fill="#2F4077"/>
<path fill-rule="evenodd" clip-rule="evenodd" d="M143.898 39.4171C145.439 39.4056 146.476 40.9321 145.847 42.2831L131.533 72.0123C130.811 73.4875 129.313 74.4377 127.669 74.4671L127.619 74.4677L76.1585 74.6376C74.8484 74.6494 73.9782 73.2832 74.5348 72.0967L74.5521 72.0608L83.4821 55.0799C83.5591 54.9334 83.7403 54.8771 83.8868 54.9541C84.0278 55.0283 84.0852 55.1991 84.0205 55.3424L84.0125 55.3588L75.0859 72.3332C74.7001 73.1126 75.2646 74.027 76.1275 74.0382L127.616 73.8684C129.035 73.8593 130.337 73.0529 130.973 71.7933L130.994 71.7507L145.289 42.0618C145.753 41.1169 145.037 40.03 143.935 40.0165L143.902 40.0164L104.076 40.2661C103.911 40.2672 103.776 40.1339 103.775 39.9684C103.774 39.8088 103.898 39.6775 104.055 39.6674L104.073 39.6668L143.898 39.4171Z" fill="#2F4077"/>
<path fill-rule="evenodd" clip-rule="evenodd" d="M150.233 79.2412H121.135C119.731 79.2412 118.598 80.3743 118.598 81.7784V86.7628C118.598 86.9283 118.732 87.0624 118.898 87.0624H152.47C152.636 87.0624 152.77 86.9283 152.77 86.7628V81.7784C152.77 80.3743 151.637 79.2412 150.233 79.2412ZM150.233 79.8405L150.267 79.8408C151.324 79.859 152.17 80.7167 152.17 81.7784L152.17 86.4631H119.197V81.7784C119.197 80.7053 120.062 79.8405 121.135 79.8405H150.233Z" fill="#2F4077"/>
<path fill-rule="evenodd" clip-rule="evenodd" d="M113.684 45.0508H103.845V53.801C103.845 54.5501 103.236 55.1694 102.476 55.1694H86.824L81.47 65.4579C80.7008 66.8163 81.1903 67.9251 82.5488 67.9251H100.818C102.177 67.9251 103.905 66.8163 104.674 65.4579L114.773 47.528C115.532 46.1595 115.042 45.0508 113.684 45.0508Z" fill="#2F4077"/>
<path fill-rule="evenodd" clip-rule="evenodd" d="M114.872 16.0337C112.455 8.9217 109.808 7.45335 107.94 7.97276C106.072 8.49218 101.008 11.0094 102.766 13.3068C104.524 15.6042 107.061 23.5653 107.061 23.5653C99.7392 24.8238 93.1666 27.4609 92.2077 27.8604C92.4674 28.1701 96.4529 33.2744 91.049 35.3021C87.5029 36.6306 83.5674 34.8826 81.22 32.6551L83.2977 31.3965C82.4786 31.7161 79.3621 33.0346 76.2456 35.8215C72.6097 39.0678 65.2379 46.3896 63.2602 49.2165C61.622 51.5638 62.6009 54.2408 63.4799 54.97C64.3589 55.6992 65.7873 57.6869 72.28 55.4894C73.5186 55.0699 74.6873 54.7303 75.7661 54.4506C75.6662 54.2608 75.6063 54.041 75.6063 53.8013V39.0479C75.6063 38.2987 76.2156 37.6794 76.9748 37.6794H102.476C103.225 37.6794 103.845 38.2887 103.845 39.0479V53.8013C103.845 54.5505 103.235 55.1698 102.476 55.1698H83.6673L91.6583 62.9211C91.6583 62.9211 94.2154 65.0886 95.3841 66.1474C95.454 66.3372 95.5539 66.4871 95.6838 66.587C97.3519 67.8955 99.5095 67.9254 102.117 67.1064C103.385 66.7068 104.454 65.8278 105.083 64.6491L114.682 46.6294C115.012 46.0101 114.682 45.2509 114.003 45.0611L110.987 44.242C106.731 42.5839 103.325 35.9114 103.325 35.9114C110.917 33.2943 116.86 26.2822 116.86 26.2822C116.86 26.2822 117.29 23.1557 114.872 16.0337Z" fill="#2F4077"/>
<path fill-rule="evenodd" clip-rule="evenodd" d="M102.476 37.3799H76.9748C76.0532 37.3799 75.3066 38.1302 75.3066 39.048V53.8014C75.3066 54.723 76.057 55.4696 76.9748 55.4696H102.476C103.394 55.4696 104.144 54.723 104.144 53.8014V39.048C104.144 38.1265 103.394 37.3799 102.476 37.3799ZM76.9747 37.9792H102.476C103.064 37.9792 103.545 38.4581 103.545 39.048V53.8014C103.545 54.3913 103.064 54.8702 102.476 54.8702H76.9747C76.3872 54.8702 75.9059 54.3913 75.9059 53.8014V39.048C75.9059 38.4605 76.3848 37.9792 76.9747 37.9792Z" fill="#2F4077"/>
<path fill-rule="evenodd" clip-rule="evenodd" d="M93.1364 42.9934H88.182C87.7625 42.9934 87.4229 42.6538 87.4229 42.2342V40.3763C87.4229 39.9568 87.7625 39.6172 88.182 39.6172H93.1364C93.556 39.6172 93.8956 39.9568 93.8956 40.3763V42.2342C93.8956 42.6538 93.556 42.9934 93.1364 42.9934Z" fill="#E4794A"/>
<path fill-rule="evenodd" clip-rule="evenodd" d="M94.745 37.3799C95.7928 37.3799 96.6441 38.1803 96.6625 39.1846L96.6628 39.2178V53.6216C96.6628 54.6384 95.7975 55.4596 94.745 55.4596C94.5795 55.4596 94.4453 55.3254 94.4453 55.1599C94.4453 54.9944 94.5795 54.8603 94.745 54.8603C95.4628 54.8603 96.0464 54.3163 96.0631 53.6511L96.0635 53.6216V39.2178C96.0635 38.5357 95.4796 37.9792 94.745 37.9792C94.5795 37.9792 94.4453 37.845 94.4453 37.6795C94.4453 37.514 94.5795 37.3799 94.745 37.3799Z" fill="#2F4077"/>
<path fill-rule="evenodd" clip-rule="evenodd" d="M76.918 26.0022C77.0122 25.8661 77.1989 25.8322 77.335 25.9264C77.471 26.0206 77.505 26.2072 77.4108 26.3433C77.0746 26.8289 76.8747 27.5261 76.8747 28.2804C76.8747 29.6836 77.5489 30.7838 78.3125 30.8077C78.4779 30.8128 78.6078 30.9511 78.6026 31.1166C78.5975 31.282 78.4592 31.4119 78.2938 31.4067C77.1354 31.3705 76.2754 29.967 76.2754 28.2804C76.2754 27.4087 76.5095 26.5923 76.918 26.0022Z" fill="#E4794A"/>
<path fill-rule="evenodd" clip-rule="evenodd" d="M91.7711 20.2991C91.9311 20.2568 92.0952 20.3521 92.1375 20.5121C92.2362 20.8849 92.2873 21.2806 92.2873 21.6876C92.2873 23.3902 91.4018 24.8141 90.2296 24.8141C90.144 24.8141 90.0648 24.8064 89.9575 24.7911C89.7937 24.7677 89.6798 24.6159 89.7032 24.452C89.7267 24.2882 89.8784 24.1744 90.0423 24.1978L90.0929 24.2046C90.148 24.2115 90.1901 24.2147 90.2296 24.2147C90.9955 24.2147 91.688 23.1012 91.688 21.6876C91.688 21.3322 91.6435 20.988 91.5581 20.6655C91.5158 20.5055 91.6112 20.3415 91.7711 20.2991Z" fill="#E4794A"/>
<path fill-rule="evenodd" clip-rule="evenodd" d="M88.6733 26.452C88.8221 26.3943 88.9888 26.4634 89.0542 26.6068L89.061 26.623L89.8877 28.7549L92.0565 27.5958C92.1746 27.5327 92.3193 27.5558 92.4119 27.6505L92.4247 27.6645C92.5848 27.8501 92.8755 28.2565 93.1416 28.7076C93.5542 29.4068 93.8704 30.1355 94.0357 30.8627C94.5092 32.9454 93.6733 34.6371 91.1542 35.5824C89.4177 36.233 87.5065 36.2079 85.5939 35.5972C83.906 35.0582 82.2832 34.0766 81.0138 32.8721C80.8751 32.7405 80.8943 32.5162 81.0487 32.4089L81.0646 32.3986L83.0706 31.1806L81.1992 27.2498C81.1307 27.1059 81.1871 26.9347 81.3248 26.8587L81.341 26.8504C81.4849 26.7819 81.656 26.8382 81.732 26.9759L81.7404 26.9921L83.7281 31.1674C83.7916 31.3007 83.7483 31.4593 83.6285 31.5424L83.6131 31.5524L81.7168 32.7037L81.751 32.7341C84.3622 35.0318 87.9208 36.1032 90.8514 35.055L90.9438 35.0212C93.1733 34.1846 93.8603 32.7944 93.4513 30.9956C93.3014 30.3359 93.0089 29.662 92.6255 29.0122C92.4846 28.7734 92.3392 28.5516 92.198 28.3542L92.1504 28.2883L92.117 28.243L89.8718 29.4429C89.7186 29.5248 89.5297 29.4595 89.4583 29.304L89.4511 29.287L88.5022 26.8397C88.4424 26.6854 88.519 26.5118 88.6733 26.452Z" fill="#2F4077"/>
<path fill-rule="evenodd" clip-rule="evenodd" d="M63.2603 49.2061C61.2825 51.3037 62.601 54.2304 63.48 54.9596C64.359 55.6888 65.7874 57.6765 72.2801 55.479C76.4555 54.0606 79.8616 53.5212 81.7495 53.3114C81.7495 53.3114 83.4976 48.8864 82.2889 45.4403C82.2889 45.4403 75.7962 45.3404 70.9516 47.3282" fill="#2F4077"/>
<path fill-rule="evenodd" clip-rule="evenodd" d="M88.6574 45.7416C89.6237 45.6296 90.1624 46.4662 89.3903 47.095L89.3417 47.1335L88.4181 47.8627C88.2882 47.9653 88.0998 47.9431 87.9972 47.8132C87.8947 47.6833 87.9168 47.4949 88.0467 47.3923L88.9968 46.6423C89.0848 46.5734 89.1331 46.5106 89.1482 46.4632C89.1544 46.4441 89.1536 46.437 89.1477 46.4278C89.1338 46.4057 89.0983 46.3799 89.0396 46.3599C88.9581 46.3321 88.8506 46.3226 88.7284 46.3367L88.6939 46.3417C88.179 46.4265 86.3814 47.1149 85.2522 47.6396C85.1021 47.7093 84.9239 47.6442 84.8541 47.4941C84.7844 47.344 84.8495 47.1658 84.9996 47.096L85.1308 47.0357C86.3475 46.4809 88.1258 45.8069 88.6574 45.7416Z" fill="#2F4077"/>
<path fill-rule="evenodd" clip-rule="evenodd" d="M82.7775 47.4565C84.5221 47.0316 86.3724 47.0406 88.2181 47.3651C89.3964 47.5723 90.467 47.8964 90.9883 48.1218C91.2963 48.255 91.4923 48.6022 91.4516 48.9386C91.4039 49.3321 91.0678 49.5942 90.5542 49.6252C90.503 49.6276 90.4451 49.6286 90.3805 49.6281L90.3233 49.6273L90.4617 49.6736C90.9133 49.8268 91.2039 49.9505 91.2972 50.0391L91.3044 50.0463C91.5844 50.3353 91.5259 50.763 91.222 51.0423C90.9428 51.2989 90.5116 51.3941 90.0462 51.2842L89.6282 51.1809L89.8107 51.2685C90.1173 51.4169 90.3133 51.5205 90.3937 51.5787L90.4012 51.5843C90.6722 51.7898 90.5837 52.0926 90.343 52.2813C90.1903 52.401 89.9585 52.4993 89.6857 52.5611C89.5158 52.5995 89.3367 52.6233 89.151 52.6314L89.1082 52.6328L89.1132 52.6516C89.1303 52.7238 89.1269 52.8009 89.1021 52.8762L89.0948 52.8966C89.0526 53.0072 88.9698 53.1022 88.8573 53.1872C88.664 53.3333 88.3747 53.4534 88.0456 53.5212C87.2893 53.6771 86.4461 53.5522 85.6679 53.0909L85.6084 53.0548L85.5513 53.0744C85.3926 53.1281 85.2145 53.1815 85.0206 53.2314C84.2765 53.4228 83.5172 53.5098 82.7997 53.4324C82.5102 53.4012 82.2342 53.3431 81.974 53.2559C81.8171 53.2032 81.7325 53.0334 81.7852 52.8765C81.8378 52.7196 82.0077 52.635 82.1646 52.6876C82.3821 52.7606 82.6159 52.8097 82.864 52.8365C83.4999 52.9051 84.1911 52.8259 84.8713 52.651C85.0279 52.6107 85.173 52.568 85.3041 52.525L85.3594 52.5066C85.3896 52.4964 85.4176 52.4867 85.4433 52.4775L85.5337 52.4439C85.6259 52.4069 85.7305 52.418 85.8128 52.4736C86.5042 52.9399 87.2597 53.0713 87.9246 52.9342C88.0938 52.8994 88.2444 52.848 88.3599 52.7909L88.3852 52.778L88.3047 52.7393C88.1423 52.6627 87.9217 52.566 87.6582 52.4562L87.4252 52.3602L87.229 52.281L86.9843 52.1836C86.7359 52.0855 86.4777 51.9856 86.2195 51.8872L85.7609 51.7145C85.5292 51.6286 85.4951 51.315 85.703 51.1814C85.736 51.1602 85.7711 51.1465 85.8077 51.1386L85.8265 51.1352C86.0487 51.1024 86.5767 51.2638 87.7217 51.7576C88.3739 52.0389 89.0272 52.0957 89.5534 51.9765C89.6214 51.9611 89.6844 51.9431 89.7407 51.9237L89.7668 51.9143L89.6645 51.8639C89.4036 51.7363 89.0224 51.5574 88.5589 51.3452L88.2581 51.2082L87.9837 51.0839C87.7057 50.9584 87.4175 50.8293 87.1279 50.7003L86.4036 50.3793C86.0737 50.2341 86.2347 49.7428 86.5785 49.8102L86.5962 49.8141L90.1554 50.6939C90.4495 50.77 90.6863 50.7206 90.8165 50.601C90.8768 50.5456 90.8922 50.505 90.8826 50.478L90.8804 50.4731L90.8795 50.4726C90.8614 50.4628 90.8359 50.4506 90.804 50.4366L90.7841 50.428C90.7041 50.394 90.5953 50.353 90.4603 50.3061L90.3427 50.2659C90.0948 50.1826 89.7807 50.0847 89.4107 49.975L89.2853 49.938C88.5389 49.7186 87.6204 49.4659 86.7874 49.246C86.4288 49.1513 86.5297 48.6239 86.8881 48.6575L86.9354 48.6638L87.2146 48.7027L87.3235 48.7175C87.5908 48.7537 87.8685 48.7899 88.1469 48.8244L88.314 48.8449C88.4975 48.8672 88.6756 48.888 88.8469 48.907L89.007 48.9245C89.7234 49.0014 90.2582 49.0394 90.5217 49.0267C90.7631 49.0122 90.8468 48.9469 90.8566 48.8665C90.8656 48.792 90.8131 48.699 90.7505 48.6719L90.698 48.6501C90.5367 48.5848 90.2476 48.4833 89.9156 48.3828C89.366 48.2164 88.759 48.0687 88.1143 47.9554C86.3443 47.6441 84.5749 47.6356 82.9193 48.0388C82.7585 48.0779 82.5964 47.9793 82.5572 47.8185C82.5181 47.6577 82.6167 47.4956 82.7775 47.4565Z" fill="#2F4077"/>
<path fill-rule="evenodd" clip-rule="evenodd" d="M77.6675 22.4607C77.831 22.435 77.9844 22.5467 78.0101 22.7102C78.0358 22.8737 77.9241 23.027 77.7607 23.0528C77.0022 23.1721 76.4455 23.7881 76.4455 24.5148C76.4455 25.3249 77.1474 25.9931 78.0138 25.9931C78.5352 25.9931 79.0228 25.7378 79.3192 25.328C79.4162 25.1939 79.6036 25.1639 79.7377 25.2609C79.8717 25.3579 79.9018 25.5452 79.8048 25.6793C79.397 26.2431 78.7298 26.5924 78.0138 26.5924C76.8228 26.5924 75.8462 25.6627 75.8462 24.5148C75.8462 23.4859 76.6243 22.6248 77.6675 22.4607Z" fill="#2F4077"/>
<path fill-rule="evenodd" clip-rule="evenodd" d="M89.3408 16.3633C90.5318 16.3633 91.5084 17.293 91.5084 18.4409C91.5084 19.4523 90.7482 20.3093 89.7208 20.4844C89.5577 20.5122 89.4029 20.4025 89.3751 20.2393C89.3473 20.0762 89.457 19.9214 89.6201 19.8936C90.3654 19.7665 90.9091 19.1537 90.9091 18.4409C90.9091 17.6308 90.2072 16.9626 89.3408 16.9626C88.9219 16.9626 88.5223 17.1233 88.2277 17.4006C88.1072 17.514 87.9175 17.5083 87.8041 17.3877C87.6907 17.2672 87.6964 17.0776 87.8169 16.9641C88.2219 16.583 88.7681 16.3633 89.3408 16.3633Z" fill="#2F4077"/>
<path fill-rule="evenodd" clip-rule="evenodd" d="M78.9487 14.6975C76.1538 16.7206 75.9955 21.2143 78.5429 24.7334C81.0903 28.2526 85.4085 29.5058 88.2034 27.4827C90.9983 25.4596 91.1566 20.9659 88.6092 17.4468C86.0619 13.9277 81.7436 12.6744 78.9487 14.6975ZM79.3001 15.183C81.7966 13.3759 85.7539 14.5244 88.1237 17.7982C90.4935 21.072 90.3484 25.1901 87.852 26.9972C85.3555 28.8043 81.3982 27.6557 79.0284 24.3819C76.6586 21.1081 76.8037 16.9901 79.3001 15.183Z" fill="#2F4077"/>
<path fill-rule="evenodd" clip-rule="evenodd" d="M86.6356 22.4638C86.1233 23.1338 85.3027 23.6161 84.08 23.7258C83.5538 23.7822 83.2991 24.4016 83.6548 24.7947C84.0159 25.2026 84.4361 25.5348 84.9069 25.7306C85.5276 25.9888 86.184 25.9849 86.8453 25.6621C87.5267 25.3293 87.8962 24.8016 87.9823 24.1471C88.0465 23.6598 87.9518 23.1401 87.753 22.6189C87.5671 22.1541 86.9508 22.0617 86.6463 22.4498L86.6356 22.4638ZM87.1947 22.8371C87.5861 23.8628 87.4777 24.6863 86.5823 25.1235C85.6724 25.5677 84.8288 25.2168 84.1014 24.3951C84.0783 24.3695 84.0958 24.3269 84.1387 24.3223C85.5084 24.1994 86.4708 23.6443 87.0832 22.8646L87.116 22.8221C87.1348 22.7962 87.181 22.8026 87.1947 22.8371Z" fill="#2F4077"/>
<path fill-rule="evenodd" clip-rule="evenodd" d="M83.6437 19.0514C83.7652 18.9486 83.9447 18.9592 84.0533 19.0725L84.066 19.0866L86.2636 21.6837C86.3839 21.8259 86.3461 22.0407 86.1885 22.1345L86.1724 22.1435L84.9737 22.7628C84.8267 22.8387 84.6459 22.7811 84.5699 22.6341C84.4968 22.4925 84.5475 22.3196 84.6826 22.2392L84.6986 22.2303L85.563 21.7835L83.6085 19.4737C83.5057 19.3522 83.5163 19.1727 83.6296 19.0641L83.6437 19.0514Z" fill="#2F4077"/>
<path fill-rule="evenodd" clip-rule="evenodd" d="M80.0217 18.8003C80.4328 18.3163 80.9736 18.082 81.6159 18.2741C81.7745 18.3215 81.8646 18.4885 81.8171 18.6471C81.7697 18.8056 81.6027 18.8957 81.4442 18.8483C81.0615 18.7339 80.7498 18.8689 80.4784 19.1883C80.4015 19.2789 80.3349 19.3772 80.2797 19.4753C80.2581 19.5137 80.2417 19.5456 80.2307 19.5686L80.2182 19.5961C80.1542 19.7487 79.9786 19.8205 79.8259 19.7565C79.6733 19.6925 79.6015 19.5169 79.6655 19.3643L79.6788 19.334C79.6967 19.2949 79.7228 19.2429 79.7574 19.1814C79.8303 19.0518 79.918 18.9223 80.0217 18.8003Z" fill="#2F4077"/>
<path fill-rule="evenodd" clip-rule="evenodd" d="M84.1096 16.7471C84.6238 16.4153 85.1765 16.3034 85.7086 16.5723C85.7862 16.6115 85.8616 16.6586 85.9349 16.7135C86.0673 16.8128 86.0941 17.0006 85.9948 17.133C85.8955 17.2654 85.7077 17.2922 85.5753 17.1929C85.5299 17.1589 85.4842 17.1305 85.4382 17.1072C85.1325 16.9527 84.7884 17.0224 84.4346 17.2507C84.354 17.3027 84.2802 17.3587 84.2154 17.4144L84.1896 17.437C84.1701 17.4544 84.1557 17.468 84.1469 17.4767L84.1423 17.4814C84.0271 17.6002 83.8374 17.6032 83.7185 17.488C83.5997 17.3728 83.5968 17.1831 83.7119 17.0643L83.7318 17.0444C83.7545 17.0223 83.7856 16.9936 83.8246 16.96C83.9092 16.8873 84.0045 16.8149 84.1096 16.7471Z" fill="#2F4077"/>
<path fill-rule="evenodd" clip-rule="evenodd" d="M82.1005 21.5833C82.328 21.4839 82.3923 21.1287 82.2442 20.79C82.0961 20.4514 81.7916 20.2575 81.5642 20.357C81.3367 20.4565 81.2724 20.8116 81.4205 21.1503C81.5686 21.4889 81.8731 21.6828 82.1005 21.5833Z" fill="#2F4077"/>
<path fill-rule="evenodd" clip-rule="evenodd" d="M86.3519 19.8463C86.5677 19.7235 86.5922 19.3597 86.4068 19.0336C86.2213 18.7076 85.896 18.5427 85.6803 18.6655C85.4645 18.7882 85.4399 19.152 85.6254 19.4781C85.8108 19.8042 86.1361 19.969 86.3519 19.8463Z" fill="#2F4077"/>
<path fill-rule="evenodd" clip-rule="evenodd" d="M74.2082 14.9855C75.6765 12.9478 74.5777 5.07664 67.7454 1.75037C60.8332 -1.62584 58.0863 4.95677 57.5369 6.63489C56.9975 8.313 57.457 12.2985 63.1606 14.3762C68.8642 16.4539 72.53 17.3129 74.2082 14.9855Z" fill="#2F4077"/>
<path fill-rule="evenodd" clip-rule="evenodd" d="M75.7764 17.702L73.6488 16.3135C72.8897 15.8141 72.6899 14.8252 73.2093 14.106L73.2992 13.9862C73.8186 13.257 74.8574 13.0772 75.6266 13.5666L77.7542 14.9551L75.7764 17.702Z" fill="#E4794A"/>
<path fill-rule="evenodd" clip-rule="evenodd" d="M89.3413 14.0465C89.3413 14.0465 88.0827 7.01441 78.6433 13.1475C77.0851 14.0165 75.5268 15.7946 74.9275 17.7124C73.9985 20.6791 76.0262 25.1441 78.1139 24.5148C78.2837 24.4648 78.4535 24.4049 78.6233 24.335C78.5534 24.2351 78.4835 24.1252 78.4136 24.0153C78.1738 23.6258 77.9641 23.2362 77.7843 22.8366C79.9618 20.5892 78.3137 16.7435 78.1439 16.3939C78.923 16.5737 79.782 16.8733 79.9918 17.8023L86.035 15.375C87.0638 16.0742 87.9928 17.0232 88.722 18.1919C88.732 18.2018 88.742 18.2218 88.752 18.2318C88.9317 17.183 88.3724 15.9444 87.2936 14.8656L89.3413 14.0465Z" fill="#2F4077"/>
<path fill-rule="evenodd" clip-rule="evenodd" d="M103.66 2.8481C103.947 2.19174 104.411 1.90386 104.854 2.16749C105.195 2.36995 105.378 2.86147 105.335 3.38348L105.332 3.41832C105.303 3.69848 105.43 4.19368 105.683 4.84808C105.742 5.00248 105.665 5.17595 105.511 5.23555C105.357 5.29514 105.183 5.21828 105.124 5.06388C104.844 4.34089 104.701 3.79233 104.733 3.38913L104.735 3.35759C104.768 3.03351 104.667 2.75352 104.548 2.68266C104.528 2.67041 104.517 2.67057 104.484 2.69136C104.402 2.74226 104.304 2.87285 104.211 3.08513C104.016 3.54407 103.973 4.08218 104.042 4.63913C104.063 4.80335 103.946 4.95312 103.782 4.97365C103.618 4.99417 103.468 4.87769 103.448 4.71347C103.366 4.06041 103.418 3.4203 103.66 2.8481Z" fill="#2F4077"/>
<path fill-rule="evenodd" clip-rule="evenodd" d="M101.372 4.47923L101.37 4.4797C100.809 4.65135 100.529 5.03196 100.803 5.43149L100.819 5.45308C100.904 5.56617 101.032 5.66156 101.192 5.73621L101.228 5.75265C101.098 5.78319 101.003 5.81632 100.946 5.85235C100.604 6.07751 100.565 6.51212 100.802 6.85381L100.82 6.87848C100.91 7.00048 101.03 7.10199 101.172 7.17883L101.18 7.18334L101.17 7.18779C100.783 7.35334 100.697 7.88218 100.991 8.24191L101.008 8.2621C101.175 8.45496 101.428 8.5813 101.761 8.635L101.78 8.63791L101.777 8.64163C101.527 8.91337 101.628 9.38375 102.012 9.63636L102.036 9.65184C102.452 9.91024 103.105 9.92769 103.944 9.66766L103.962 9.66206L105.626 12.4417C105.693 12.555 105.827 12.6105 105.955 12.5785C107.525 12.1862 108.839 11.2523 109.594 9.82045C109.649 9.71574 109.637 9.58836 109.564 9.49536L109.359 9.23463C107.167 6.45898 105.753 4.80008 105.285 4.65059C104.139 4.28618 102.063 4.27176 101.372 4.47923ZM102.979 4.94851C103.788 4.95412 104.542 5.04313 105.103 5.22158L105.112 5.22493C105.408 5.34627 106.888 7.08243 108.739 9.41694L108.97 9.70977L108.946 9.7516C108.302 10.8353 107.275 11.5716 106.046 11.9328L106.023 11.9395L104.352 9.1472C104.278 9.02434 104.128 8.97068 103.993 9.01914C103.175 9.31327 102.612 9.31383 102.342 9.13574L102.325 9.1245C102.284 9.09459 102.26 9.06531 102.248 9.04171L102.247 9.03902L102.279 9.02693C102.417 8.9768 102.679 8.90296 103.028 8.81572L103.252 8.76093C103.299 8.74958 103.347 8.73807 103.396 8.72643C103.639 8.66869 103.898 8.60974 104.159 8.552L104.394 8.5005L104.696 8.43568C104.929 8.3867 105.014 8.09883 104.846 7.93053C104.794 7.87851 104.733 7.85186 104.658 7.83656C104.435 7.79097 103.911 7.82483 102.911 7.98218L102.698 8.01652C102.007 8.1297 101.599 8.04005 101.455 7.86318C101.421 7.82129 101.41 7.78077 101.415 7.74797L101.418 7.73815L101.419 7.73359L101.428 7.73088L101.449 7.72472C101.571 7.69152 101.883 7.63675 102.308 7.57574L102.482 7.55124C102.618 7.53248 102.764 7.51317 102.917 7.49342L103.187 7.45921C103.461 7.42505 103.746 7.39113 104.03 7.35839L104.536 7.30164C104.916 7.26066 104.881 6.69812 104.5 6.70408L101.942 6.74403C101.621 6.75819 101.396 6.6586 101.294 6.51186C101.235 6.42723 101.24 6.37657 101.273 6.35506C101.324 6.32249 101.748 6.25721 102.339 6.20989L102.498 6.19776C103.039 6.15835 103.695 6.12909 104.331 6.11463C104.703 6.10617 104.726 5.5679 104.369 5.51862L103.901 5.47845L101.972 5.31661C101.785 5.30192 101.619 5.26476 101.489 5.21204L101.467 5.20296C101.418 5.18164 101.379 5.1595 101.349 5.13915L101.344 5.1354L101.351 5.13153C101.389 5.10988 101.444 5.08549 101.517 5.06167L101.544 5.05324C101.734 4.99614 102.349 4.94413 102.979 4.94851Z" fill="#2F4077"/>
<path fill-rule="evenodd" clip-rule="evenodd" d="M78.3335 25.1543C79.5057 25.1543 80.3912 26.5782 80.3912 28.2808C80.3912 29.9664 79.5233 31.3788 78.3686 31.4068L78.3335 31.4073H78.3036C78.1381 31.4073 78.0039 31.2731 78.0039 31.1076C78.0039 30.948 78.1287 30.8176 78.286 30.8085L78.3036 30.8079H78.3335C79.0994 30.8079 79.7919 29.6945 79.7919 28.2808C79.7919 26.8815 79.1134 25.7764 78.357 25.754L78.3335 25.7536C78.168 25.7536 78.0339 25.6195 78.0339 25.454C78.0339 25.2885 78.168 25.1543 78.3335 25.1543Z" fill="#E4794A"/>
<path fill-rule="evenodd" clip-rule="evenodd" d="M90.2201 18.5615C91.0983 18.5615 91.834 19.3594 92.1286 20.5152C92.1695 20.6756 92.0726 20.8387 91.9123 20.8796C91.7519 20.9205 91.5888 20.8236 91.5479 20.6633C91.3173 19.7585 90.7921 19.1789 90.2457 19.1613L90.2201 19.1609C90.0546 19.1609 89.9204 19.0267 89.9204 18.8612C89.9204 18.6957 90.0546 18.5615 90.2201 18.5615Z" fill="#E4794A"/>
<path fill-rule="evenodd" clip-rule="evenodd" d="M113.683 44.7607C115.278 44.7607 115.884 46.1063 115.049 47.6285L115.023 47.6747L104.924 65.6051C104.111 67.0408 102.314 68.201 100.852 68.224L100.808 68.2244H82.5384C80.9441 68.2244 80.3381 66.8789 81.1731 65.3561L81.1956 65.3155L85.1294 57.7675C85.2031 57.6262 85.3736 57.5681 85.5172 57.6323L85.5336 57.6402C85.675 57.7139 85.733 57.8844 85.6688 58.028L85.6609 58.0445L81.7253 65.596L81.7203 65.6051C81.0634 66.7655 81.4212 67.6081 82.5053 67.6248L82.5384 67.6251H100.808C102.038 67.6251 103.649 66.602 104.379 65.3509L104.402 65.3104L114.501 47.38C115.165 46.2079 114.793 45.3601 113.683 45.3601C113.518 45.3601 113.384 45.2259 113.384 45.0604C113.384 44.8949 113.518 44.7607 113.683 44.7607Z" fill="#2F4077"/>
<path fill-rule="evenodd" clip-rule="evenodd" d="M178.939 86.2041C179.104 86.2035 179.239 86.3371 179.24 86.5026C179.24 86.6622 179.116 86.7931 178.959 86.8028L178.941 86.8034L1.04108 87.5026C0.875577 87.5033 0.740887 87.3697 0.740237 87.2042C0.73961 87.0446 0.863848 86.9136 1.02111 86.9039L1.03872 86.9033L178.939 86.2041Z" fill="#2F4077"/>
</svg>
