<svg width="200" height="109" viewBox="0 0 200 109" fill="none" xmlns="http://www.w3.org/2000/svg">
<path fill-rule="evenodd" clip-rule="evenodd" d="M85.6365 107.914H20.0547V61.4919C20.0547 51.4547 28.1969 43.3125 38.2341 43.3125H85.6365V107.914Z" fill="#465F9D"/>
<path fill-rule="evenodd" clip-rule="evenodd" d="M90.8772 107.611C90.8772 107.611 89.9624 73.618 90.1453 65.8026C90.3414 56.9024 84.8523 48.2767 82.9311 46.6953C81.2451 45.3099 68.6855 46.4862 65.6143 46.7998C66.5291 49.8188 68.5026 54.1056 72.5933 59.8561C73.3774 60.7709 74.1485 61.8034 74.8804 62.9404C78.2784 68.2596 80.84 76.1404 80.461 87.7852C81.7549 100.436 80.6832 107.454 80.6832 107.454L90.8772 107.611Z" fill="white"/>
<path fill-rule="evenodd" clip-rule="evenodd" d="M129.262 54.6026L121.067 27.4837C119.865 24.8437 118.78 25.9808 118.323 25.1574C117.277 23.2362 116.859 22.3867 116.859 22.3867C113.017 25.641 105.358 24.2164 105.358 24.2164C105.358 24.2164 105.293 24.9222 105.24 27.0655C105.188 29.2089 102.796 28.8952 103.071 31.7443L106.665 50.9954L96.68 48.8651C95.2685 41.1412 88.6554 28.2026 64.4903 34.6719C50.5061 39.6251 49.918 47.4014 53.8257 54.0798C51.983 54.3673 47.5002 56.8897 38.038 70.2596C24.4067 89.4976 25.0602 107.455 51.5647 107.912C56.0214 107.991 103.672 107.847 103.672 107.847L102.195 78.6632C133.431 81.6037 132.542 68.2731 129.262 54.6026ZM80.657 107.429C80.657 107.429 81.7287 100.41 80.4348 87.7594C80.5263 84.7404 80.4348 81.9828 80.1734 79.4604C80.1734 79.4342 80.1734 79.4081 80.1604 79.3689C80.1342 79.1337 80.1081 78.8984 80.082 78.6632C80.082 78.624 80.0689 78.5717 80.0689 78.5325C80.0428 78.3103 80.0166 78.0881 79.9905 77.879C79.9774 77.8267 79.9774 77.7744 79.9643 77.7222C79.9382 77.5131 79.899 77.304 79.8729 77.0948C79.8598 77.0295 79.8598 76.9772 79.8467 76.9119C79.8206 76.7158 79.7814 76.5067 79.7552 76.3107C79.7422 76.2453 79.7291 76.1931 79.7291 76.1277C79.6899 75.9317 79.6637 75.7356 79.6245 75.5527C79.6115 75.4873 79.5984 75.422 79.5853 75.3697C79.5461 75.1867 79.5069 74.9907 79.4808 74.8077C79.4677 74.7424 79.4546 74.677 79.4416 74.6247C79.4024 74.4418 79.3631 74.2588 79.3239 74.0758C79.3109 74.0105 79.2978 73.9582 79.2847 73.8929C79.2455 73.7099 79.2063 73.5269 79.154 73.357C79.141 73.2917 79.1279 73.2394 79.1148 73.174C79.0756 72.9911 79.0233 72.8212 78.9841 72.6513C78.9711 72.599 78.958 72.5337 78.9449 72.4814C78.8927 72.3115 78.8534 72.1285 78.8012 71.9586C78.7881 71.9063 78.775 71.854 78.762 71.8018C78.7097 71.6319 78.6574 71.462 78.6182 71.2921C78.6051 71.2398 78.5921 71.1875 78.579 71.1483C78.5267 70.9784 78.4744 70.8085 78.4222 70.6386C78.4091 70.5863 78.396 70.5471 78.3829 70.5079C78.3307 70.338 78.2784 70.1681 78.2131 69.9982C78.2 69.959 78.1869 69.9198 78.1738 69.8806C78.1085 69.7107 78.0562 69.5408 77.9909 69.3709C77.9778 69.3317 77.9647 69.3055 77.9517 69.2794C77.8863 69.1095 77.821 68.9265 77.7556 68.7566C77.7426 68.7305 77.7426 68.7043 77.7295 68.6913C77.6641 68.5083 77.5988 68.3384 77.5204 68.1554C77.5204 68.1424 77.5073 68.1293 77.5073 68.1162C76.7231 66.1689 75.8344 64.4699 74.8804 62.9669C74.7889 62.8362 74.7105 62.6925 74.619 62.5618C74.619 62.5487 74.6059 62.5356 74.6059 62.5356C74.5275 62.418 74.436 62.2873 74.3576 62.1697C74.3445 62.1566 74.3315 62.1305 74.3184 62.1174C74.24 61.9998 74.1616 61.8822 74.0701 61.7645C74.057 61.7384 74.0439 61.7253 74.0309 61.6992C73.9525 61.5816 73.861 61.464 73.7826 61.3594C73.7695 61.3463 73.7564 61.3333 73.7433 61.3071C73.6519 61.1895 73.5734 61.0719 73.482 60.9673C73.482 60.9542 73.4689 60.9542 73.4689 60.9412C73.1814 60.5752 72.8938 60.2093 72.6063 59.8695C68.5156 54.1059 66.5552 49.8192 65.6273 46.8133C68.6986 46.4996 81.2582 45.3364 82.9441 46.7087C83.7414 47.3622 85.1398 49.2049 86.4859 51.7796C86.5513 51.8972 86.6035 52.0018 86.6689 52.1194V52.1325C86.9041 52.603 87.1394 53.0865 87.3746 53.5962C87.3746 53.5962 87.3746 53.5962 87.3746 53.6093C87.4269 53.7269 87.4792 53.8445 87.5315 53.9752C87.5445 53.9883 87.5445 54.0014 87.5576 54.0275C87.6099 54.1451 87.6491 54.2497 87.7014 54.3673C87.7144 54.3804 87.7144 54.4065 87.7275 54.4196C87.7798 54.5372 87.8321 54.6548 87.8843 54.7855C87.8843 54.7986 87.8974 54.7986 87.8974 54.8117C88.002 55.0731 88.1196 55.3475 88.2241 55.622C88.2241 55.622 88.2241 55.622 88.2241 55.635C88.2764 55.7657 88.3156 55.8964 88.3679 56.0271C88.381 56.0533 88.381 56.0794 88.394 56.1055C88.4332 56.2101 88.4725 56.3146 88.5117 56.4323C88.5247 56.4715 88.5378 56.4976 88.5509 56.5368C88.5901 56.6414 88.6293 56.7459 88.6554 56.8505C88.6685 56.8897 88.6816 56.9158 88.6946 56.955C88.7338 57.0727 88.773 57.1903 88.8123 57.3079C88.8253 57.334 88.8253 57.3471 88.8384 57.3733C88.9299 57.6608 89.0083 57.9352 89.0998 58.2228C89.1129 58.2489 89.1129 58.2881 89.1259 58.3142C89.1521 58.4188 89.1913 58.5364 89.2174 58.641C89.2305 58.6802 89.2435 58.7325 89.2566 58.7717C89.2828 58.8762 89.3089 58.9677 89.335 59.0723C89.3481 59.1245 89.3612 59.1637 89.3742 59.216C89.4004 59.3206 89.4265 59.4121 89.4527 59.5166C89.4657 59.5558 89.4788 59.6081 89.4919 59.6473C89.518 59.7649 89.5441 59.8826 89.5703 59.9871C89.5833 60.0133 89.5833 60.0525 89.5964 60.0786C89.6226 60.2224 89.6618 60.3792 89.6879 60.523C89.6879 60.5491 89.701 60.5622 89.701 60.5883C89.7271 60.7059 89.7532 60.8366 89.7663 60.9542C89.7794 61.0065 89.7794 61.0457 89.7925 61.098C89.8055 61.2026 89.8317 61.294 89.8447 61.3986C89.8578 61.4509 89.8578 61.5032 89.8709 61.5554C89.8839 61.6469 89.897 61.7515 89.9101 61.843C89.9231 61.8952 89.9231 61.9475 89.9362 62.0129C89.9493 62.1174 89.9624 62.2089 89.9754 62.3135C89.9885 62.3657 89.9885 62.418 90.0016 62.4703C90.0146 62.5879 90.0277 62.7186 90.0408 62.8362C90.0408 62.8624 90.0408 62.8885 90.0538 62.9146C90.0669 63.0584 90.08 63.2152 90.093 63.3721C90.093 63.4113 90.1061 63.4505 90.1061 63.5028C90.1192 63.6073 90.1192 63.7249 90.1323 63.8295C90.1323 63.8818 90.1453 63.9341 90.1453 63.9994C90.1453 64.0909 90.1584 64.1954 90.1584 64.2869C90.1584 64.3392 90.1584 64.4045 90.1715 64.4568C90.1715 64.5483 90.1845 64.6529 90.1845 64.7443C90.1845 64.7966 90.1845 64.862 90.1845 64.9142C90.1845 65.0188 90.1845 65.1234 90.1845 65.2279C90.1845 65.2802 90.1845 65.3325 90.1845 65.3717C90.1845 65.5285 90.1845 65.6723 90.1845 65.8291C90.1845 65.9075 90.1845 65.999 90.1845 66.0905C90.1845 66.1166 90.1845 66.1297 90.1845 66.1558C90.1845 66.2473 90.1845 66.3388 90.1845 66.4303C90.1845 66.4434 90.1845 66.4434 90.1845 66.4564C90.1845 66.5479 90.1845 66.6394 90.1845 66.7309C90.1845 66.757 90.1845 66.7832 90.1845 66.7962C90.1845 66.9008 90.1845 67.0053 90.1845 67.1099C90.1845 67.123 90.1845 67.136 90.1845 67.1491C90.1845 67.2537 90.1845 67.3451 90.1845 67.4497C90.1845 67.4758 90.1845 67.502 90.1845 67.5281C90.1845 67.6457 90.1845 67.7634 90.1845 67.881C90.1845 67.8941 90.1845 67.9202 90.1845 67.9333C90.1845 68.0378 90.1845 68.1424 90.1845 68.26C90.1845 68.2861 90.1845 68.3123 90.1845 68.3384C90.1845 68.4691 90.1845 68.5867 90.1845 68.7174C90.1845 68.7436 90.1845 68.7566 90.1845 68.7828C90.1845 68.9004 90.1845 69.018 90.1845 69.1356C90.1845 69.1618 90.1845 69.1879 90.1845 69.2141C90.1845 69.3447 90.1845 69.4754 90.1845 69.6192C90.1845 69.6453 90.1845 69.6845 90.1845 69.7107C90.1845 69.8414 90.1845 69.959 90.1845 70.0897C90.1845 70.1158 90.1845 70.1289 90.1845 70.155C90.1845 70.2988 90.1845 70.4426 90.1845 70.5994C90.1845 70.6386 90.1845 70.6647 90.1845 70.7039C90.1845 70.8346 90.1845 70.9784 90.1845 71.1222C90.1845 71.1352 90.1845 71.1614 90.1845 71.1744C90.1845 71.3313 90.1845 71.4881 90.1845 71.6449C90.1845 71.6842 90.1845 71.7103 90.1845 71.7495C90.1845 71.9063 90.1845 72.0632 90.1845 72.2331C90.1845 72.3899 90.1845 72.5598 90.1845 72.7297C90.1845 72.7689 90.1845 72.8081 90.1845 72.8473C90.1845 73.1871 90.1976 73.5269 90.1976 73.8667C90.1976 73.9059 90.1976 73.9451 90.1976 73.9843C90.1976 74.1542 90.1976 74.3241 90.1976 74.494C90.1976 74.5202 90.1976 74.5463 90.1976 74.5594C90.1976 74.7162 90.1976 74.8861 90.1976 75.043C90.1976 75.0822 90.1976 75.1083 90.1976 75.1475C90.1976 75.3305 90.1976 75.5135 90.2107 75.7095C90.2107 75.7226 90.2107 75.7356 90.2107 75.7356C90.2107 75.9055 90.2107 76.0885 90.2237 76.2584C90.2237 76.2976 90.2237 76.3368 90.2237 76.376C90.2237 76.559 90.2237 76.742 90.2368 76.9249C90.2368 76.9641 90.2368 76.9903 90.2368 77.0295C90.2368 77.1863 90.2368 77.3562 90.2499 77.5131C90.2499 77.5523 90.2499 77.5915 90.2499 77.6307C90.2499 77.8267 90.2499 78.0097 90.263 78.2057C90.263 78.2319 90.263 78.258 90.263 78.2972C90.263 78.4671 90.263 78.6501 90.276 78.82C90.276 78.8592 90.276 78.8853 90.276 78.9245C90.276 79.1206 90.276 79.3036 90.2891 79.4996C90.2891 79.5388 90.2891 79.578 90.2891 79.6172C90.2891 79.8002 90.2891 79.9832 90.3022 80.1661C90.3022 80.1923 90.3022 80.2053 90.3022 80.2315C90.3022 80.4275 90.3152 80.6366 90.3152 80.8327C90.3152 80.8719 90.3152 80.9111 90.3152 80.9503C90.3152 81.1202 90.3152 81.3032 90.3283 81.4731C90.3283 81.4992 90.3283 81.5384 90.3283 81.5645C90.3283 81.7737 90.3414 81.9828 90.3414 82.1788C90.3414 82.2049 90.3414 82.2311 90.3414 82.2572C90.5635 94.1764 90.9295 107.612 90.9295 107.612L80.657 107.429Z" fill="#E4794A"/>
<path fill-rule="evenodd" clip-rule="evenodd" d="M101.346 49.8459C99.7645 49.1924 98.0394 48.9702 96.6671 48.748C96.9677 50.3686 97.0461 51.7801 97.0069 52.7342C96.7063 59.6217 93.635 62.2878 92.9946 64.8233C101.281 61.7651 101.921 53.6882 101.346 49.8459Z" fill="#2F4077"/>
<path fill-rule="evenodd" clip-rule="evenodd" d="M53.7344 53.8965C51.591 54.8375 48.6374 56.1313 46.1411 59.9345C49.6437 58.4969 61.6805 69.266 70.2148 66.822C66.2548 66.4169 57.629 60.7187 53.7344 53.8965Z" fill="#2F4077"/>
<path fill-rule="evenodd" clip-rule="evenodd" d="M72.7457 66.954C72.9978 66.8329 73.2988 66.932 73.4311 67.1749L73.4585 67.2306L73.5646 67.456L73.6614 67.6646C73.8202 68.0089 73.9956 68.3979 74.1838 68.826L74.2311 68.9338C74.8199 70.2784 75.4087 71.718 75.9585 73.1956C76.529 74.7289 77.0248 76.2171 77.4243 77.629C77.9401 79.4523 78.2819 81.1008 78.4196 82.5357C78.4472 82.8231 78.2366 83.0784 77.9492 83.106C77.6618 83.1336 77.4064 82.923 77.3789 82.6356C77.2479 81.2708 76.9183 79.6812 76.4182 77.9136C76.027 76.5309 75.5398 75.0688 74.9786 73.5602C74.4362 72.1024 73.8547 70.6808 73.2734 69.3533L73.135 69.039C72.9839 68.6981 72.8422 68.3848 72.7119 68.1025L72.5751 67.8083L72.5009 67.6516C72.3759 67.3914 72.4855 67.0791 72.7457 66.954Z" fill="#2F4077"/>
<path fill-rule="evenodd" clip-rule="evenodd" d="M92.0971 65.2178C92.3766 65.2343 92.5918 65.4675 92.589 65.7444L92.5764 65.9993C92.5674 66.1884 92.5584 66.408 92.5501 66.6553C92.4536 69.5035 92.5161 72.6903 92.8554 75.694C93.054 77.4527 93.3392 79.0302 93.7195 80.3792C93.7979 80.657 93.6361 80.9458 93.3582 81.0242C93.0803 81.1025 92.7915 80.9408 92.7132 80.6629C92.3159 79.2537 92.021 77.6223 91.8164 75.8113C91.4799 72.8315 91.4107 69.6894 91.4975 66.8554L91.5109 66.456C91.5167 66.2963 91.5228 66.1492 91.5289 66.0156L91.5444 65.7088C91.5609 65.4293 91.7941 65.2141 92.071 65.2169L92.0971 65.2178Z" fill="#2F4077"/>
<path fill-rule="evenodd" clip-rule="evenodd" d="M106.404 50.7034C106.559 50.5521 106.807 50.555 106.958 50.7099C107.046 50.7995 107.104 50.9139 107.159 51.0714L107.179 51.1293C107.218 51.2495 107.257 51.3973 107.303 51.5922L107.359 51.8409C107.41 52.075 107.513 52.5584 107.537 52.6675C107.734 53.5671 107.913 54.257 108.147 54.938C109.006 57.4404 110.299 58.8185 112.304 58.7863C112.521 58.7828 112.699 58.9555 112.703 59.172C112.706 59.3886 112.533 59.5669 112.317 59.5704C109.891 59.6093 108.361 57.9793 107.405 55.1925C107.17 54.5073 106.989 53.8212 106.796 52.9498L106.573 51.9187L106.541 51.7781C106.493 51.5732 106.455 51.4311 106.42 51.3318C106.409 51.3015 106.399 51.2769 106.391 51.2586L106.385 51.2461C106.382 51.2416 106.385 51.245 106.397 51.2578C106.246 51.1029 106.249 50.8547 106.404 50.7034Z" fill="#2F4077"/>
<path fill-rule="evenodd" clip-rule="evenodd" d="M98.8887 84.1386L89.322 86.099L88.7339 76.4277" fill="white"/>
<path fill-rule="evenodd" clip-rule="evenodd" d="M88.7101 76.0359C88.9185 76.0232 89.0988 76.1758 89.1232 76.3805L89.1252 76.4034L89.6859 85.6237L98.81 83.754C99.0146 83.7121 99.2146 83.8378 99.2676 84.037L99.2728 84.0594C99.3148 84.264 99.1891 84.464 98.9899 84.517L98.9675 84.5222L89.4007 86.4826C89.1746 86.529 88.9595 86.3712 88.9327 86.1452L88.9307 86.1223L88.3425 76.451C88.3294 76.2349 88.494 76.049 88.7101 76.0359Z" fill="#2F4077"/>
<path fill-rule="evenodd" clip-rule="evenodd" d="M95.7128 83.3155C95.5821 84.6486 94.798 87.4585 95.8174 89.3143C96.314 90.2161 96.5623 92.0458 96.5623 92.0458L102.587 93.5619C103.097 95.5223 104.221 99.2993 105.07 99.247C106.273 99.1686 105.632 91.6407 105.463 89.3274C105.384 88.1381 104.548 84.3349 103.868 82.4007C102.979 79.8783 98.9409 72.1936 90.7073 75.0035L84.7607 76.4542" fill="white"/>
<path fill-rule="evenodd" clip-rule="evenodd" d="M90.6953 74.5936C94.4697 73.3426 97.6881 74.1165 100.301 76.4074C102.147 78.0262 103.548 80.3121 104.238 82.2705L104.282 82.3963C104.924 84.2823 105.751 87.9403 105.851 89.2546L105.935 90.387C105.957 90.6925 105.977 90.9706 105.996 91.2527L106.02 91.6113C106.074 92.4394 106.115 93.2069 106.142 93.9385L106.15 94.1736C106.197 95.571 106.185 96.7279 106.102 97.6035L106.091 97.7227C105.964 98.9365 105.71 99.598 105.095 99.6381C104.434 99.6788 103.933 98.8659 103.335 97.2986C102.983 96.374 102.629 95.2313 102.318 94.0763L102.267 93.8854L96.4667 92.4258C96.3196 92.3888 96.2077 92.2705 96.1781 92.1231L96.1739 92.0983L96.1545 91.9672L96.1367 91.8562C96.1242 91.7795 96.1101 91.6978 96.0946 91.612C96.0281 91.2446 95.9484 90.8776 95.8561 90.5373C95.7451 90.1285 95.6236 89.7886 95.4963 89.5449L95.4738 89.5029C95.0706 88.7688 94.9016 87.88 94.91 86.8319C94.9152 86.1812 94.9817 85.5425 95.1133 84.6858L95.2444 83.8596L95.2743 83.6614C95.2965 83.5088 95.3121 83.3856 95.3227 83.277C95.3438 83.0615 95.5357 82.904 95.7512 82.9251C95.9667 82.9462 96.1242 83.138 96.1031 83.3535L96.0954 83.4279C96.0842 83.5292 96.0697 83.6404 96.0509 83.7702L96.004 84.0769C95.9743 84.2641 95.919 84.6085 95.9036 84.7072L95.8744 84.8971C95.7574 85.6729 95.6988 86.256 95.6942 86.8382C95.687 87.7346 95.8227 88.4777 96.1306 89.0683L96.1609 89.125C96.3318 89.4352 96.4804 89.8441 96.6128 90.3319C96.7118 90.6963 96.7961 91.0845 96.8662 91.4723C96.8785 91.5401 96.8899 91.6054 96.9004 91.668L96.9104 91.7288L102.683 93.1814C102.814 93.2143 102.918 93.3119 102.96 93.4388L102.967 93.463C103.297 94.7311 103.685 96.0152 104.068 97.0193L104.126 97.1699C104.339 97.7123 104.542 98.1465 104.73 98.4504C104.824 98.6027 104.911 98.7171 104.985 98.7897L105.011 98.8134L105.03 98.8296L105.04 98.8146C105.062 98.7785 105.085 98.7298 105.108 98.669L105.119 98.6376C105.207 98.3911 105.276 98.0159 105.322 97.5296C105.405 96.6469 105.413 95.4392 105.358 93.9675L105.346 93.655C105.32 93.0252 105.283 92.3658 105.238 91.6617L105.214 91.3058C105.2 91.0954 105.185 90.8871 105.169 90.6678L105.065 89.2683C104.953 87.9582 104.117 84.2927 103.498 82.5307C102.85 80.6906 101.518 78.5179 99.7836 76.997C97.3482 74.8614 94.3817 74.1635 90.834 75.3743L90.8172 75.3796L90.8003 75.3841L84.8537 76.8348C84.6434 76.8861 84.4312 76.7572 84.3799 76.5468C84.3304 76.344 84.4485 76.1395 84.6457 76.0791L84.6679 76.073L90.5981 74.6262L90.6953 74.5936Z" fill="#2F4077"/>
<path fill-rule="evenodd" clip-rule="evenodd" d="M103.685 89.1973C103.685 89.1973 103.045 94.6602 101.215 95.0785C99.3853 95.4967 99.2808 93.9545 99.2808 93.9545" fill="white"/>
<path fill-rule="evenodd" clip-rule="evenodd" d="M103.731 88.8074C103.938 88.8317 104.089 89.0137 104.077 89.2195L104.073 89.2515L104.066 89.3131C104.059 89.3688 104.05 89.4332 104.04 89.5055L104.017 89.6641C103.992 89.8269 103.964 90.0019 103.932 90.1868C103.809 90.8918 103.655 91.5971 103.466 92.2581L103.424 92.4019C102.909 94.1349 102.247 95.2444 101.302 95.4602C100.258 95.6988 99.5316 95.402 99.1434 94.7533C99.0435 94.5862 98.9754 94.41 98.9324 94.2341C98.9061 94.1265 98.8936 94.0391 98.8896 93.9806C98.8749 93.7645 99.0382 93.5775 99.2542 93.5629C99.4626 93.5487 99.6439 93.7 99.6697 93.9046L99.6719 93.9275C99.673 93.9437 99.6793 93.9871 99.6941 94.0477C99.7196 94.1521 99.7598 94.2562 99.8164 94.3507C100.028 94.7036 100.41 94.8598 101.128 94.6958C101.704 94.5641 102.27 93.5834 102.712 92.042C102.893 91.4109 103.041 90.7319 103.159 90.0526L103.189 89.8774C103.213 89.7342 103.234 89.5982 103.252 89.471L103.274 89.3167L103.296 89.1512C103.321 88.9361 103.516 88.7822 103.731 88.8074Z" fill="#2F4077"/>
<path fill-rule="evenodd" clip-rule="evenodd" d="M101.49 89C101.49 89 100.51 93.8095 98.6537 94.097C96.7979 94.3846 96.7979 92.8424 96.7979 92.8424" fill="white"/>
<path fill-rule="evenodd" clip-rule="evenodd" d="M101.568 88.6154C101.78 88.6586 101.917 88.8657 101.874 89.0779L101.861 89.14C101.85 89.1885 101.838 89.2446 101.823 89.3075C101.782 89.4865 101.732 89.6854 101.675 89.8996C101.511 90.512 101.315 91.1248 101.087 91.6993L101.032 91.8376C100.406 93.3658 99.6649 94.3367 98.7137 94.4841C97.6838 94.6436 96.9863 94.32 96.6319 93.6762C96.5322 93.4951 96.4693 93.3045 96.4344 93.1143C96.4131 92.9985 96.4058 92.9047 96.4058 92.842C96.4058 92.6254 96.5813 92.4499 96.7978 92.4499C97.0066 92.4499 97.1773 92.6131 97.1893 92.8189L97.1905 92.8582C97.192 92.8818 97.1963 92.9218 97.2057 92.9728C97.2263 93.0851 97.2632 93.1969 97.3189 93.2981C97.5108 93.6468 97.8827 93.8193 98.5937 93.7092C99.1949 93.616 99.8195 92.7697 100.358 91.4103C100.574 90.8669 100.761 90.2819 100.918 89.6966L100.957 89.5456C100.989 89.4223 101.018 89.3052 101.044 89.1956L101.075 89.0629L101.106 88.9213C101.149 88.7091 101.356 88.5722 101.568 88.6154Z" fill="#2F4077"/>
<path fill-rule="evenodd" clip-rule="evenodd" d="M98.784 88.713C98.784 88.713 97.5032 94.4766 95.4513 92.294C93.3994 90.1114 93.6085 88.9875 93.6085 88.9875C93.6085 88.9875 94.6018 87.4061 96.1832 89.9285" fill="white"/>
<path fill-rule="evenodd" clip-rule="evenodd" d="M93.5776 88.4433C94.3975 87.7514 95.4629 88.0415 96.5155 89.7204C96.6305 89.9039 96.575 90.1458 96.3916 90.2609C96.2081 90.3759 95.9661 90.3204 95.8511 90.1369C95.3793 89.3844 94.9609 89.0059 94.6169 88.9123C94.4122 88.8565 94.2415 88.9092 94.0834 89.0426C94.0538 89.0676 94.028 89.0924 94.0065 89.1151L93.9958 89.1267L93.9966 89.1416C93.9984 89.1657 94.0012 89.193 94.0055 89.2235L94.0103 89.2551C94.0355 89.4131 94.0895 89.6007 94.1801 89.8183C94.4378 90.437 94.9361 91.1737 95.7371 92.0256C96.1506 92.4655 96.4452 92.4927 96.7811 92.2193C97.1239 91.9403 97.4673 91.3697 97.7798 90.6026C97.9553 90.1717 98.11 89.7074 98.2419 89.2428L98.28 89.1062C98.3044 89.0172 98.3267 88.9324 98.3469 88.8526L98.378 88.7273L98.4013 88.6282C98.4483 88.4168 98.6578 88.2835 98.8691 88.3305C99.073 88.3758 99.2042 88.5721 99.1712 88.7756L99.1654 88.8048L99.1403 88.9114C99.1349 88.9338 99.129 88.9577 99.1227 88.9829L99.0906 89.1096C99.0625 89.2182 99.031 89.3345 98.9962 89.4569C98.857 89.9473 98.6935 90.438 98.506 90.8984C98.1479 91.7777 97.7464 92.4446 97.2762 92.8274C96.6143 93.3662 95.8553 93.2962 95.1658 92.5628C94.3034 91.6455 93.7524 90.831 93.4562 90.1197C93.2591 89.6464 93.1949 89.2731 93.2128 89.0058L93.2153 88.9754C93.2175 88.9515 93.2203 88.9316 93.2232 88.916C93.2322 88.8674 93.2504 88.821 93.2766 88.7791C93.3349 88.6864 93.4341 88.5644 93.5776 88.4433Z" fill="#2F4077"/>
<path fill-rule="evenodd" clip-rule="evenodd" d="M60.0725 77.579C66.4373 76.3113 79.1537 73.6321 80.1992 73.6843C83.1006 73.802 86.3287 74.364 87.2697 74.4685C89.4523 74.7168 90.3933 74.7822 90.3933 74.7822C88.838 79.5655 93.0594 86.1263 93.0594 86.1263C93.0594 86.1263 92.4321 86.4531 90.4717 87.3156C88.5113 88.1782 89.583 91.9814 86.8384 92.7917C85.7406 93.1184 64.699 104.031 59.2622 105.142" fill="#E4794A"/>
<path fill-rule="evenodd" clip-rule="evenodd" d="M89.0213 89.1712C84.3948 85.4203 82.8395 75.9842 84.7868 73.9193C84.8653 73.2658 86.3682 74.3636 87.27 74.4682C89.4526 74.7165 90.3936 74.7819 90.3936 74.7819C89.5049 77.5003 90.4981 80.7937 91.5045 83.1331C92.0926 84.5316 92.7068 85.6294 93.0074 86.1391C92.8375 86.2306 92.1318 86.5704 90.4589 87.3022C89.5049 87.7335 89.3088 88.4523 89.0213 89.1712Z" fill="#2F4077"/>
<path fill-rule="evenodd" clip-rule="evenodd" d="M52.3424 74.6183C53.7441 74.151 55.6054 73.8764 57.2411 74.0247C59.5084 74.2303 61.2152 75.2027 62.0397 77.0946C62.1262 77.2931 62.0354 77.5241 61.8369 77.6107C61.6384 77.6972 61.4073 77.6064 61.3208 77.4079C60.6257 75.8128 59.1773 74.9876 57.1703 74.8057C55.6516 74.668 53.896 74.927 52.5904 75.3622C52.385 75.4307 52.1629 75.3197 52.0944 75.1142C52.026 74.9088 52.137 74.6868 52.3424 74.6183Z" fill="#2F4077"/>
<path fill-rule="evenodd" clip-rule="evenodd" d="M69.3149 75.1905C79.4362 73.1906 85.5155 72.6227 86.5386 74.1737C86.5465 74.1856 86.5536 74.1979 86.5601 74.2105L86.5694 74.2298L91.3789 84.9989C91.4255 85.1032 91.4241 85.2223 91.376 85.325L91.3613 85.3534L91.2756 85.5109L91.2127 85.6281C91.1587 85.7292 91.1008 85.8388 91.0398 85.9556C90.7957 86.4229 90.5516 86.9107 90.3241 87.394C90.209 87.6385 90.101 87.8759 90.0014 88.1044C89.6235 88.9707 89.3833 89.6677 89.3237 90.1084L89.3192 90.1446C89.1175 91.8664 88.4836 92.5579 85.3934 94.1645L83.2309 95.2867L82.5243 95.6514C81.7076 96.0717 80.9117 96.4764 80.0773 96.8946C77.1329 98.3702 74.194 99.7684 71.2176 101.084C67.9668 102.521 64.834 103.785 61.8579 104.84C57.7408 106.3 54.0278 107.32 50.8024 107.829C50.5885 107.863 50.3877 107.717 50.354 107.503C50.3202 107.289 50.4663 107.088 50.6801 107.055C53.852 106.554 57.5207 105.546 61.596 104.101C64.552 103.054 67.6668 101.796 70.9006 100.367C73.8644 99.0567 76.7922 97.6638 79.726 96.1936C80.5578 95.7767 81.3513 95.3732 82.1657 94.9541L85.1099 93.4281C87.8609 91.9951 88.3568 91.4721 88.5298 90.139L88.5403 90.0537C88.6027 89.5165 88.8647 88.7488 89.2826 87.7909C89.3854 87.5552 89.4965 87.311 89.6146 87.0601C89.8471 86.5661 90.0959 86.0688 90.3447 85.5925L90.4531 85.3864L90.5837 85.1416L85.8687 74.5841L85.8616 74.5748C85.471 74.0902 83.6021 73.9399 80.6187 74.2057L80.4337 74.2226C77.6039 74.4869 73.8748 75.0888 69.4669 75.9598C67.9566 76.2583 66.3857 76.5846 64.7682 76.9346C62.04 77.5248 59.3019 78.1547 56.6723 78.787L55.8595 78.9833C55.0651 79.1761 54.3316 79.3568 53.6695 79.5222L53.2249 79.6336L52.564 79.8011C52.3542 79.855 52.1405 79.7286 52.0867 79.5189C52.0347 79.3166 52.1503 79.1107 52.3467 79.048L52.3768 79.0395L53.3476 78.7943L54.1666 78.5906C54.6875 78.4618 55.2448 78.3254 55.8346 78.1825L55.9962 78.1434C58.7811 77.47 61.697 76.7967 64.6024 76.1681C66.2243 75.8173 67.7998 75.4899 69.3149 75.1905Z" fill="#2F4077"/>
<path fill-rule="evenodd" clip-rule="evenodd" d="M86.1198 47.4028L71.8351 48.0432L70.698 42.3972L66.2675 37.457C66.2675 37.457 66.0715 43.103 65.9277 47.7556C66.6858 49.9251 68.437 52.918 70.5151 56.2638C73.8085 58.002 77.9123 60.1846 83.4145 63.9877C84.8782 61.5699 86.2113 52.9442 86.1198 47.4028Z" fill="white"/>
<path fill-rule="evenodd" clip-rule="evenodd" d="M65.8757 37.4417L65.7993 39.6728C65.7649 40.6863 65.7306 41.7111 65.697 42.7251L65.5775 46.4119C65.5629 46.8715 65.549 47.3153 65.5358 47.7418C65.5343 47.7898 65.5417 47.8378 65.5576 47.8832L65.5994 48.0011C66.2966 49.9391 67.6874 52.4524 70.182 56.4689C70.2187 56.528 70.2705 56.5763 70.332 56.6087L71.0341 56.9804C75.8053 59.5145 78.8723 61.323 83.1915 64.3085C83.3773 64.4369 83.6329 64.3822 83.7499 64.189C85.2282 61.7472 86.6067 53.1413 86.5118 47.3945L86.5108 47.3719C86.4954 47.1619 86.3153 46.9998 86.1022 47.0093L72.153 47.6347L71.0824 42.3181C71.0686 42.2494 71.0366 42.1858 70.9899 42.1337L66.5594 37.1935C66.3237 36.9307 65.8879 37.0888 65.8757 37.4417ZM66.6258 38.4419L70.3347 42.5776L71.4507 48.1188L71.4559 48.1413C71.5026 48.3188 71.6672 48.4414 71.8526 48.4331L85.7318 47.8107L85.7322 47.92C85.7386 53.2333 84.553 60.744 83.2862 63.3949L83.2765 63.4147L83.1707 63.3421C79.0148 60.4918 75.9534 58.7014 71.2381 56.2009L70.792 55.9648L70.4881 55.4734C68.2723 51.8799 67.0036 49.5613 66.3583 47.7938L66.3219 47.6926L66.415 44.7579L66.4976 42.2433L66.6258 38.4419Z" fill="#2F4077"/>
<path fill-rule="evenodd" clip-rule="evenodd" d="M64.7388 30.8828C64.7388 30.8828 59.7202 30.9743 60.6089 35.4701C61.5107 39.966 67.0651 37.3652 67.0651 37.3652L66.3202 30.9743L64.7388 30.8828Z" fill="white"/>
<path fill-rule="evenodd" clip-rule="evenodd" d="M64.7613 30.4909C64.7514 30.4903 64.7414 30.4901 64.7315 30.4903L64.6781 30.4918C64.5261 30.4977 64.2981 30.5177 64.0165 30.5616C63.4897 30.6438 62.9622 30.7841 62.4657 30.9982C60.6925 31.7628 59.7703 33.2499 60.2241 35.5457C60.6276 37.5573 61.9301 38.4795 63.77 38.5045C64.5452 38.5151 65.3644 38.3665 66.1796 38.1133C66.4193 38.0388 66.6437 37.9597 66.8489 37.8798L66.9357 37.8456C67.0743 37.7901 67.1748 37.7462 67.2312 37.7198C67.3841 37.6482 67.474 37.4869 67.4544 37.3193L66.7095 30.9284C66.6874 30.7393 66.5327 30.5934 66.3427 30.5824L64.7613 30.4909ZM64.7333 31.2744L65.9687 31.3459L66.6415 37.1184L66.6442 37.1174C66.4345 37.2014 66.2 37.2856 65.947 37.3642C65.2041 37.595 64.4623 37.7295 63.7807 37.7202C62.288 37.6999 61.3183 37.0134 60.9932 35.3923C60.6161 33.4848 61.3232 32.3445 62.7762 31.718C63.2062 31.5326 63.6714 31.4088 64.1372 31.3362C64.3006 31.3108 64.4518 31.2936 64.5868 31.2832L64.6772 31.277L64.7333 31.2744Z" fill="#2F4077"/>
<path fill-rule="evenodd" clip-rule="evenodd" d="M79.0494 16.716C80.3694 16.6115 89.4395 16.0364 90.4327 23.6036C91.426 31.1707 90.3543 39.522 89.5179 43.3382C88.6814 47.1545 71.3123 45.3901 70.3321 45.0503C69.3519 44.7105 68.1757 43.5604 68.1757 43.5604L65.7971 31.9418C65.7971 31.9287 64.8169 17.8923 79.0494 16.716Z" fill="white"/>
<path fill-rule="evenodd" clip-rule="evenodd" d="M65.4019 31.8957L65.4049 31.9403C65.4049 31.9667 65.4076 31.9931 65.4129 32.019L67.7915 43.6376C67.8072 43.7143 67.8455 43.7845 67.9015 43.8393L67.9793 43.9133L68.0558 43.984C68.096 44.0208 68.1391 44.0595 68.1848 44.1C68.4024 44.2925 68.6365 44.4849 68.8792 44.6653C69.168 44.88 69.4503 45.0634 69.7212 45.2062C69.8878 45.294 70.0486 45.3655 70.2036 45.4193C70.9904 45.692 76.0302 46.129 79.8625 46.1431L79.9783 46.1434C85.8179 46.1517 89.4685 45.3933 89.9008 43.4207L89.9496 43.1942C90.4199 40.9776 90.8348 37.9814 91.0525 34.9037C91.3336 30.9293 91.2804 27.0477 90.8214 23.5511C90.3605 20.0398 88.225 17.9086 84.9791 16.9068C83.8054 16.5446 82.5486 16.3515 81.2636 16.2909C80.4023 16.2502 79.6813 16.2712 79.0183 16.3237C72.8781 16.8312 68.9864 19.6902 66.9393 24.124C66.2277 25.6651 65.7849 27.3092 65.5587 28.9746C65.4122 30.0534 65.3731 30.9956 65.3956 31.7313L65.398 31.8042C65.3993 31.8378 65.4006 31.8682 65.4019 31.8957ZM81.2267 17.0742C82.4501 17.1319 83.6432 17.3152 84.7479 17.6561C87.7219 18.574 89.6267 20.475 90.0439 23.6531C90.4954 27.0928 90.5479 30.923 90.2703 34.8484C90.0477 37.9952 89.6167 41.0542 89.1348 43.2528C88.8301 44.6432 85.3467 45.3669 79.9794 45.3592L79.7523 45.3584C76.0183 45.3364 71.1321 44.9112 70.4605 44.6784C70.3454 44.6385 70.2202 44.5828 70.0868 44.5124C69.8553 44.3905 69.6057 44.2283 69.3469 44.0359C69.1236 43.8699 68.9063 43.6913 68.7044 43.5127L68.6232 43.44L68.5349 43.3591L66.1866 31.8869L66.1816 31.7753C66.1558 31.0718 66.1908 30.1472 66.3357 29.0801C66.5521 27.4875 66.9749 25.9175 67.6512 24.4527C69.5827 20.2694 73.2315 17.5888 79.0816 17.1053C79.7128 17.0553 80.4024 17.0353 81.2267 17.0742Z" fill="#2F4077"/>
<path fill-rule="evenodd" clip-rule="evenodd" d="M67.4439 31.8359C68.2803 32.6724 70.5283 37.4819 71.0772 39.7167C71.0772 39.7167 76.6447 37.8347 84.63 37.7171C84.63 37.7171 88.9821 37.8086 90.7203 38.3183C90.7203 38.3183 90.3413 46.2514 86.8126 50.3682C83.2839 54.472 75.8344 53.3219 72.3318 50.8518C68.8292 48.3817 68.2542 47.2054 67.4439 44.5524C66.6336 41.8993 64.4902 32.045 64.4902 32.045L67.4439 31.8359Z" fill="#869ECE"/>
<path fill-rule="evenodd" clip-rule="evenodd" d="M82.1338 44.5785C82.1338 44.5785 84.2641 44.1472 85.1397 45.0098L82.1338 44.5785Z" fill="white"/>
<path fill-rule="evenodd" clip-rule="evenodd" d="M82.4313 44.1356C82.9053 44.0757 83.3962 44.0573 83.8622 44.1061C84.5125 44.1742 85.0458 44.3668 85.4149 44.7304C85.5692 44.8824 85.5711 45.1307 85.4191 45.2849C85.2672 45.4392 85.0189 45.441 84.8646 45.2891C84.6448 45.0725 84.2704 44.9373 83.7805 44.886C83.3827 44.8443 82.9488 44.8606 82.5295 44.9136C82.4593 44.9224 82.3942 44.9318 82.3353 44.9412L82.2291 44.9594C82.2217 44.9608 82.2158 44.9619 82.2117 44.9628C81.9994 45.0057 81.7925 44.8685 81.7496 44.6563C81.7066 44.444 81.8438 44.2372 82.0561 44.1942L82.1407 44.1784C82.2151 44.1655 82.3134 44.1505 82.4313 44.1356Z" fill="#2F4077"/>
<path fill-rule="evenodd" clip-rule="evenodd" d="M65.1699 33.5354C65.1699 33.5354 62.8044 29.876 61.9026 26.0859C61.04 22.518 62.6998 18.7802 66.0063 17.1727C68.777 15.8396 70.8289 16.8851 70.8289 16.8851C70.8289 16.8851 67.8883 11.8927 72.2927 7.47523C73.8479 5.91998 75.9913 5.05741 78.1869 5.12275C83.5584 5.27958 85.2313 9.8277 85.2313 9.8277C85.2313 9.8277 90.9818 -0.745367 102.783 5.51483C103.973 6.14216 105.319 7.90652 105.959 9.09582C109.854 16.2839 97.0067 24.7921 90.3283 25.4586C82.9834 26.2035 78.6836 24.975 76.318 23.1845C78.0693 24.2301 76.0958 35.2214 65.1699 33.5354Z" fill="#2F4077"/>
<path fill-rule="evenodd" clip-rule="evenodd" d="M84.8083 34.2701C85.0158 34.2466 85.2037 34.3896 85.2387 34.5928L85.242 34.6156L86.0261 41.5423C86.0562 41.8078 85.8185 42.0225 85.5607 41.9711L85.5386 41.9661L83.1077 41.3387C82.898 41.2846 82.7719 41.0708 82.826 40.8611C82.8782 40.6589 83.0789 40.5345 83.2811 40.5743L83.3036 40.5795L85.1829 41.0644L84.4628 34.7038C84.4393 34.4963 84.5823 34.3084 84.7855 34.2734L84.8083 34.2701Z" fill="#2F4077"/>
<path fill-rule="evenodd" clip-rule="evenodd" d="M87.4011 36.5413C87.7908 36.5413 88.1068 36.0498 88.1068 35.4435C88.1068 34.8372 87.7908 34.3457 87.4011 34.3457C87.0113 34.3457 86.6953 34.8372 86.6953 35.4435C86.6953 36.0498 87.0113 36.5413 87.4011 36.5413Z" fill="#2F4077"/>
<path fill-rule="evenodd" clip-rule="evenodd" d="M80.5788 36.4105C80.9686 36.4105 81.2845 35.919 81.2845 35.3127C81.2845 34.7064 80.9686 34.2148 80.5788 34.2148C80.189 34.2148 79.873 34.7064 79.873 35.3127C79.873 35.919 80.189 36.4105 80.5788 36.4105Z" fill="#2F4077"/>
<path fill-rule="evenodd" clip-rule="evenodd" d="M77.923 28.6455C78.6686 28.0993 79.5795 27.8281 80.6365 27.986C80.8507 28.018 80.9984 28.2175 80.9664 28.4317C80.9344 28.6458 80.7349 28.7935 80.5207 28.7615C79.6826 28.6364 78.9747 28.8471 78.3864 29.2781C78.2206 29.3995 78.0777 29.5296 77.9589 29.6587L77.9207 29.701C77.8855 29.7409 77.8594 29.7729 77.8425 29.795L77.8288 29.8137C77.7048 29.9912 77.4604 30.0346 77.2829 29.9107C77.1053 29.7867 77.0619 29.5423 77.1859 29.3647C77.2229 29.3117 77.2882 29.2294 77.382 29.1276C77.5338 28.9626 77.7141 28.7985 77.923 28.6455Z" fill="#2F4077"/>
<path fill-rule="evenodd" clip-rule="evenodd" d="M87.2228 27.843C87.6257 27.7799 88.0536 27.7779 88.4662 27.8799C89.1624 28.0519 89.686 28.4978 89.9186 29.2508C89.9826 29.4577 89.8667 29.6772 89.6598 29.7412C89.4529 29.8051 89.2333 29.6892 89.1694 29.4823C89.0228 29.0078 88.7206 28.7505 88.2781 28.6411C87.9816 28.5678 87.6527 28.5694 87.344 28.6177L87.2953 28.6258C87.2577 28.6323 87.2278 28.6384 87.2067 28.6431L87.1857 28.6482C86.9761 28.7027 86.762 28.577 86.7075 28.3674C86.653 28.1578 86.7788 27.9438 86.9883 27.8893C87.0372 27.8766 87.1173 27.8595 87.2228 27.843Z" fill="#2F4077"/>
<path fill-rule="evenodd" clip-rule="evenodd" d="M104.508 19.4609L106.717 28.3481L116.414 25.4728" fill="white"/>
<path fill-rule="evenodd" clip-rule="evenodd" d="M104.414 19.08C104.616 19.0297 104.821 19.1469 104.883 19.3438L104.889 19.366L106.999 27.8551L116.303 25.0965C116.503 25.0372 116.713 25.1451 116.783 25.3391L116.79 25.361C116.85 25.5611 116.742 25.7712 116.548 25.8411L116.526 25.8483L106.829 28.7236C106.622 28.7849 106.406 28.6676 106.343 28.4643L106.337 28.4422L104.128 19.5551C104.076 19.345 104.204 19.1323 104.414 19.08Z" fill="#2F4077"/>
<path fill-rule="evenodd" clip-rule="evenodd" d="M107.619 20.1533C106.521 20.8721 102.417 22.8195 100.352 22.7672C99.3459 22.741 97.6469 23.3684 97.6469 23.3684L93.6085 18.8464C91.6873 19.2908 87.9103 20.0226 87.5704 19.2646C87.0869 18.1929 93.8829 15.3438 95.9609 14.442C97.0196 13.9715 100.692 12.9652 102.679 12.6777C105.253 12.2987 114.65 12.0634 115.944 20.4408L117.329 25.6163L108.102 28.3478" fill="white"/>
<path fill-rule="evenodd" clip-rule="evenodd" d="M102.622 12.2898C104.711 11.9822 107.513 12.1054 109.915 12.9035C113.373 14.0522 115.683 16.4359 116.313 20.2645L116.328 20.359L117.708 25.5149C117.761 25.7126 117.653 25.9162 117.463 25.9849L117.441 25.9922L108.214 28.7237C108.006 28.7852 107.788 28.6667 107.727 28.4591C107.667 28.2588 107.775 28.0488 107.969 27.979L107.991 27.9718L116.852 25.3486L115.565 20.5422C115.564 20.5354 115.562 20.5285 115.56 20.5216L115.557 20.5007C115.003 16.9151 112.898 14.7205 109.668 13.6477C107.432 12.9048 104.801 12.7786 102.833 13.0517L102.735 13.0657C100.913 13.3295 97.299 14.2907 96.1541 14.7855L94.8471 15.3512C94.7078 15.4118 94.5731 15.4707 94.4371 15.5305L94.12 15.6702C93.4413 15.9705 92.8147 16.2555 92.2179 16.5373C91.6798 16.7914 91.1819 17.0356 90.7271 17.2696L90.5562 17.358C89.6856 17.8119 89.002 18.2163 88.5381 18.5597C88.2819 18.7493 88.1003 18.9153 88.0017 19.0468C87.9922 19.0594 87.9839 19.0712 87.9766 19.0822L87.9618 19.1055L87.985 19.1148C88.0813 19.1505 88.2272 19.1769 88.4154 19.1905C88.7941 19.2177 89.3158 19.1914 89.951 19.117C90.9936 18.9948 92.2835 18.7505 93.5203 18.4644C93.6511 18.4341 93.7876 18.473 93.8827 18.5659L93.9011 18.5852L97.7651 22.9118L97.7933 22.9025C97.9737 22.8421 98.1653 22.7818 98.3631 22.7242L98.4825 22.69C98.759 22.6121 99.0281 22.5455 99.2839 22.4935C99.6699 22.4152 100.012 22.3728 100.305 22.3743L100.362 22.3752C101.228 22.3971 102.606 22.0259 104.202 21.3855L104.42 21.2972C105.628 20.7995 106.842 20.1934 107.404 19.8253C107.585 19.7067 107.828 19.7574 107.947 19.9385C108.066 20.1197 108.015 20.3627 107.834 20.4813C107.189 20.9035 105.816 21.5831 104.494 22.1133C102.836 22.7786 101.397 23.1701 100.397 23.1601L100.342 23.1591C100.106 23.153 99.7985 23.1892 99.4399 23.262C99.2046 23.3098 98.954 23.3718 98.6952 23.4448C98.5059 23.4981 98.321 23.5547 98.1459 23.6118L98.0421 23.6461C97.9991 23.6605 97.9587 23.6742 97.9211 23.6872L97.7829 23.7362C97.6402 23.7889 97.4808 23.7541 97.3731 23.6488L97.3547 23.6295L93.4703 19.28L93.4157 19.2925C92.2878 19.5461 91.1348 19.7612 90.1628 19.8813L90.0423 19.8958C88.4117 20.0869 87.4796 20.0199 87.2133 19.4259C86.8577 18.6378 87.9384 17.8274 90.2965 16.6093L90.3683 16.5723C90.8317 16.3339 91.3374 16.0859 91.883 15.8283L92.1635 15.6966C92.729 15.4326 93.3222 15.1648 93.9611 14.8832L94.6184 14.5955L95.8819 14.0492C97.1339 13.5206 100.755 12.5599 102.622 12.2898Z" fill="#2F4077"/>
<path fill-rule="evenodd" clip-rule="evenodd" d="M96.9154 15.918C96.9154 15.918 92.4849 18.937 92.9423 20.7144C93.3997 22.4788 94.7851 21.8906 94.7851 21.8906" fill="white"/>
<path fill-rule="evenodd" clip-rule="evenodd" d="M97.2394 15.6987C97.3613 15.8776 97.3151 16.1215 97.1362 16.2435L97.0244 16.3215L96.971 16.3594C96.8369 16.4551 96.6872 16.5648 96.5259 16.6868C96.065 17.0353 95.6043 17.4112 95.1755 17.7996C94.6414 18.2833 94.1963 18.7512 93.8711 19.186C93.4212 19.7874 93.2355 20.2821 93.3219 20.6175C93.4578 21.142 93.6747 21.4185 93.9439 21.5321C94.1295 21.6104 94.3404 21.6103 94.5406 21.5592C94.5601 21.5543 94.5781 21.5491 94.5942 21.544L94.6319 21.5312C94.8312 21.4466 95.0614 21.5396 95.146 21.7389C95.2306 21.9382 95.1376 22.1684 94.9383 22.253C94.8932 22.2722 94.8239 22.2963 94.7342 22.3191C94.3825 22.4087 94.005 22.4091 93.6389 22.2545C93.131 22.0402 92.757 21.5633 92.5626 20.8136C92.4019 20.1893 92.6645 19.4899 93.2431 18.7163C93.6026 18.2357 94.0806 17.7331 94.6491 17.2183C95.0967 16.813 95.5749 16.4228 96.053 16.0613L96.1762 15.9688C96.2567 15.9088 96.3341 15.8519 96.4078 15.7985L96.5719 15.6811L96.6946 15.5955C96.8736 15.4735 97.1175 15.5197 97.2394 15.6987Z" fill="#2F4077"/>
<path fill-rule="evenodd" clip-rule="evenodd" d="M98.0652 17.7227C98.0652 17.7227 94.3535 20.7547 94.9416 22.4799C95.5297 24.205 96.8628 23.5124 96.8628 23.5124" fill="white"/>
<path fill-rule="evenodd" clip-rule="evenodd" d="M98.3691 17.4741C98.5008 17.6354 98.4829 17.8699 98.3322 18.0095L98.3097 18.0289L98.2356 18.0909L98.1835 18.1353C98.0774 18.2261 97.9589 18.3304 97.8312 18.4465C97.4661 18.7783 97.101 19.1368 96.7613 19.5079C96.3211 19.9887 95.9576 20.4539 95.6977 20.8856C95.326 21.5032 95.195 22.0069 95.313 22.3529C95.472 22.8194 95.6842 23.0773 95.929 23.1893C96.1276 23.2802 96.3524 23.275 96.5701 23.2065L96.6104 23.1931C96.6408 23.1824 96.6632 23.1731 96.6759 23.1671L96.6823 23.164C96.8744 23.0641 97.1111 23.1389 97.211 23.3311C97.3108 23.5232 97.236 23.7599 97.0438 23.8598C96.9917 23.8869 96.9106 23.9215 96.8053 23.9546C96.4188 24.0761 96.0035 24.0858 95.6027 23.9024C95.1487 23.6946 94.7956 23.2654 94.5708 22.6059C94.3611 21.9909 94.5466 21.2775 95.0259 20.4812C95.3161 19.999 95.7102 19.4946 96.1829 18.9784C96.5403 18.588 96.9221 18.2131 97.3038 17.8662L97.416 17.7651C97.4892 17.6997 97.559 17.6384 97.6249 17.5815L97.7022 17.5151L97.8174 17.4185C97.9851 17.2815 98.2321 17.3064 98.3691 17.4741Z" fill="#2F4077"/>
<path fill-rule="evenodd" clip-rule="evenodd" d="M99.542 19.918C99.542 19.918 95.1377 23.6297 97.9607 24.4138C100.784 25.198 101.646 24.5053 101.646 24.5053C101.646 24.5053 102.574 22.937 99.6597 22.7148" fill="white"/>
<path fill-rule="evenodd" clip-rule="evenodd" d="M99.2894 19.6177C99.4549 19.4781 99.7023 19.4992 99.8418 19.6648C99.9814 19.8304 99.9603 20.0778 99.7947 20.2173L99.7271 20.2756L99.6928 20.3057C99.6091 20.3795 99.5157 20.4641 99.4149 20.5582C99.1268 20.8271 98.8388 21.1168 98.5709 21.4154C98.2484 21.7749 97.9781 22.1222 97.7778 22.4445L97.7305 22.522C97.2197 23.3756 97.2926 23.8208 98.0656 24.0355C99.5898 24.4589 100.612 24.478 101.223 24.2741C101.263 24.2607 101.298 24.2471 101.328 24.2339L101.343 24.2272L101.348 24.2151C101.402 24.0657 101.412 23.9164 101.363 23.7861L101.352 23.7584C101.208 23.4407 100.693 23.1863 99.6298 23.1053C99.4139 23.0888 99.2522 22.9004 99.2687 22.6845C99.2852 22.4686 99.4735 22.3069 99.6895 22.3234C101.008 22.4239 101.781 22.8055 102.066 23.4346C102.225 23.7854 102.206 24.1463 102.085 24.4814C102.05 24.5793 102.013 24.6549 101.984 24.7045C101.96 24.7451 101.928 24.781 101.892 24.8105C101.812 24.8748 101.674 24.9502 101.471 25.0179C100.699 25.2756 99.5207 25.2536 97.8557 24.7911C96.4366 24.3969 96.3125 23.3172 97.1117 22.0307C97.3391 21.6647 97.6364 21.2828 97.9872 20.8917C98.2719 20.5744 98.5759 20.2686 98.8798 19.9849L98.9836 19.8889C99.0174 19.858 99.0502 19.8282 99.082 19.7997L99.2286 19.6699C99.2552 19.6467 99.2757 19.6292 99.2894 19.6177Z" fill="#2F4077"/>
<path fill-rule="evenodd" clip-rule="evenodd" d="M104.064 29.092C105.92 31.5491 118.479 29.6932 120.544 26.5174C119.551 25.1582 118.767 25.9292 118.323 25.132C117.277 23.2108 116.859 22.3613 116.859 22.3613C114.676 24.2172 111.252 24.5439 108.704 24.4916C107.188 24.4786 105.933 24.3217 105.345 24.2433C105.332 24.4393 105.279 25.2235 105.227 27.0401C105.214 28.0988 104.626 28.5692 104.064 29.092Z" fill="#2F4077"/>
<path fill-rule="evenodd" clip-rule="evenodd" d="M172.639 71.2793H121.826C121.159 71.2793 120.584 71.7367 120.427 72.3902L113.357 102.293H94.9419C94.9419 102.293 93.9225 107.56 99.8691 107.56H164.745C165.412 107.56 165.987 107.102 166.144 106.449L174.037 73.0437C174.246 72.1419 173.567 71.2793 172.639 71.2793Z" fill="#465F9D"/>
<path fill-rule="evenodd" clip-rule="evenodd" d="M168.444 84.1143C165.228 84.1143 162.706 81.3697 162.967 78.1678C163.164 75.8022 163.19 74.3385 163.438 73.2406C163.778 71.7246 166.692 69.6466 170.103 67.1373C171.894 65.8303 173.135 64.6018 173.828 63.4648C174.521 62.3278 174.874 60.9293 174.874 59.2565C174.874 57.1915 174.22 55.5579 172.9 54.3686C171.593 53.1792 169.999 52.5911 168.13 52.5911C164.418 52.5911 161.935 54.5515 160.654 58.4854C159.805 61.0992 157.178 62.6937 154.459 62.3147C150.839 61.805 148.683 58.041 150.029 54.643C151.244 51.5717 152.983 49.0624 155.244 47.102C158.994 43.8608 163.595 42.2402 169.005 42.2402C174.534 42.2402 179.173 43.8347 182.911 47.0105C186.649 50.1994 188.531 54.2379 188.531 59.1258C188.531 65.1899 185.421 70.2608 179.186 74.3385C176.481 76.1289 174.834 77.5274 174.259 78.5337C174.063 78.8735 173.906 79.3048 173.776 79.8406C173.201 82.3369 171.005 84.1143 168.444 84.1143ZM169.188 100.49H168.692C165.202 100.49 162.366 97.6541 162.366 94.1646C162.366 90.6751 165.202 87.839 168.692 87.839H169.188C172.678 87.839 175.514 90.6751 175.514 94.1646C175.514 97.6672 172.691 100.49 169.188 100.49Z" fill="#E4794A"/>
<path fill-rule="evenodd" clip-rule="evenodd" d="M39.3712 30.5962C38.6523 30.9098 37.829 30.5439 37.5807 29.7989C37.3977 29.25 37.267 28.9233 37.2147 28.6619C37.1494 28.296 37.5937 27.551 38.1034 26.6623C38.3779 26.2049 38.5347 25.8128 38.5739 25.4861C38.6262 25.1724 38.5609 24.8195 38.404 24.4536C38.208 23.9962 37.9074 23.6956 37.5022 23.5649C37.0971 23.4211 36.6919 23.4472 36.2737 23.6302C35.4504 23.9831 35.0844 24.6627 35.1759 25.656C35.2413 26.3225 34.81 26.9237 34.1696 27.1066C33.3201 27.3419 32.4706 26.7146 32.4444 25.8259C32.4183 25.0286 32.562 24.2967 32.8757 23.6433C33.3985 22.5585 34.2611 21.7613 35.4634 21.2385C36.6919 20.7027 37.8682 20.6112 39.0183 20.9641C40.1553 21.3169 40.9656 22.0227 41.4361 23.1074C42.0242 24.4536 41.8151 25.8781 40.8218 27.3811C40.3906 28.0346 40.1684 28.5051 40.1292 28.7795C40.1161 28.871 40.1292 28.9886 40.1422 29.1193C40.2599 29.7466 39.9462 30.3478 39.3712 30.5962ZM41.1094 34.1641L40.9918 34.2163C40.2207 34.5562 39.3189 34.1902 38.9791 33.4191C38.6393 32.648 39.0052 31.7463 39.7763 31.4065L39.8939 31.3542C40.665 31.0144 41.5668 31.3803 41.9066 32.1514C42.2464 32.9225 41.8935 33.8243 41.1094 34.1641Z" fill="#E4794A"/>
<path fill-rule="evenodd" clip-rule="evenodd" d="M46.3242 13.8666C45.2656 13.8143 44.4815 12.8602 44.6252 11.8147C44.7298 11.0436 44.769 10.56 44.8735 10.1941C45.0173 9.69747 46.0106 9.07014 47.1868 8.29905C47.8011 7.89391 48.2324 7.5149 48.4807 7.16202C48.729 6.79608 48.8728 6.35173 48.8989 5.78975C48.9381 5.11014 48.7551 4.56123 48.3369 4.14301C47.9318 3.7248 47.409 3.50262 46.7947 3.46341C45.5662 3.39806 44.7167 3.99925 44.2201 5.26698C43.8934 6.11648 42.9916 6.58698 42.1029 6.41707C40.9266 6.18183 40.2732 4.90103 40.7829 3.80321C41.2403 2.80995 41.8545 2.01272 42.6387 1.41153C43.9326 0.418263 45.4747 -0.0391631 47.2652 0.0653914C49.0819 0.169946 50.5848 0.771134 51.7611 1.89509C52.9373 3.01905 53.4862 4.37826 53.3947 5.98579C53.2902 7.98539 52.1662 9.59292 50.0359 10.8345C49.108 11.3703 48.546 11.8016 48.3369 12.1284C48.2716 12.2329 48.2062 12.3767 48.1539 12.5466C47.9318 13.3699 47.1737 13.9058 46.3242 13.8666ZM46.272 19.2773L46.1021 19.2642C44.952 19.1989 44.0633 18.2187 44.1286 17.0686C44.1939 15.9185 45.1741 15.0297 46.3242 15.0951L46.4941 15.1082C47.6442 15.1735 48.533 16.1537 48.4676 17.3038C48.4153 18.4539 47.4221 19.3426 46.272 19.2773Z" fill="#E4794A"/>
<path fill-rule="evenodd" clip-rule="evenodd" d="M198.895 107.494C199.112 107.494 199.287 107.67 199.287 107.886C199.287 108.095 199.124 108.266 198.918 108.278L198.895 108.278H1.0913C0.874759 108.278 0.699219 108.103 0.699219 107.886C0.699219 107.677 0.862444 107.507 1.06826 107.495L1.0913 107.494H198.895Z" fill="#2F4077"/>
</svg>
