<svg xmlns="http://www.w3.org/2000/svg" xml:space="preserve" width="732.66" height="732.661"><defs><clipPath id="a" clipPathUnits="userSpaceOnUse"><path d="M0 680.315h680.315V0H0Z"/></clipPath></defs><g clip-path="url(#a)" transform="matrix(1.33333 0 0 -1.33333 -85.42 818.03)"><path d="M0 0c0-149.597-121.272-270.869-270.868-270.869S-541.736-149.597-541.736 0c0 149.598 121.272 270.87 270.868 270.87S0 149.598 0 0" style="fill:#fff;fill-opacity:1;fill-rule:nonzero;stroke:none" transform="translate(609.78 336.141)"/><path d="M0 0c-143.167 0-259.645-116.478-259.645-259.645 0-143.17 116.478-259.644 259.645-259.644 143.17 0 259.645 116.474 259.645 259.644C259.645-116.478 143.17 0 0 0m0-534.393c-151.497 0-274.748 123.251-274.748 274.748C-274.748-108.148-151.497 15.103 0 15.103c151.496 0 274.747-123.251 274.747-274.748 0-151.497-123.251-274.748-274.747-274.748" style="fill:#169b62;fill-opacity:1;fill-rule:nonzero;stroke:none" transform="translate(338.813 598.42)"/><path d="M0 0c-74.001 0-134.206-60.205-134.206-134.206 0-74.001 60.205-134.206 134.206-134.206 74.001 0 134.206 60.205 134.206 134.206C134.206-60.205 74.001 0 0 0m0-274.073c-77.125 0-139.867 62.742-139.867 139.867S-77.125 5.662 0 5.662s139.867-62.743 139.867-139.868S77.125-274.073 0-274.073" style="fill:#169b62;fill-opacity:1;fill-rule:nonzero;stroke:none" transform="translate(338.813 472.98)"/><path d="m0 0-45.983-79.647-43.161 24.915 45.984 79.65z" style="fill:#e1000f;fill-opacity:1;fill-rule:nonzero;stroke:none" transform="translate(519.072 345.318)"/><path d="m0 0-45.983-79.65-43.161 24.918 45.984 79.65z" style="fill:#fff;fill-opacity:1;fill-rule:nonzero;stroke:none" transform="translate(475.912 370.236)"/><path d="m0 0-45.982-79.647-43.161 24.915 45.983 79.65z" style="fill:#000091;fill-opacity:1;fill-rule:nonzero;stroke:none" transform="translate(432.754 395.153)"/><path d="m0 0-45.983-79.647 129.477-74.755 45.984 79.651zm1.866-6.962 120.65-69.655-40.887-70.823-120.65 69.656z" style="fill:#000091;fill-opacity:1;fill-rule:nonzero;stroke:none" transform="translate(389.594 420.07)"/><path d="m0 0-4.905 2.832 91.429 158.352 4.904-2.829z" style="fill:#000091;fill-opacity:1;fill-rule:nonzero;stroke:none" transform="translate(304.736 264.605)"/><path d="m0 0-129.478-74.755-45.986 79.651 129.481 74.751Z" style="fill:#000091;fill-opacity:1;fill-rule:nonzero;stroke:none" transform="translate(334.017 340.774)"/><path d="m0 0 1.623 3.495 3.692-.429-2.802 2.467 1.681 3.383L.951 7.038l-2.777 2.428.711-3.616-3.282-1.894 3.662-.297Z" style="fill:#ffe910;fill-opacity:1;fill-rule:nonzero;stroke:none" transform="translate(260.066 312.027)"/><path d="m0 0 1.604 3.437 3.708-.371-2.766 2.486 1.647 3.364L.948 7.041l-2.789 2.367.726-3.561-3.246-1.872 3.635-.259Z" style="fill:#ffe910;fill-opacity:1;fill-rule:nonzero;stroke:none" transform="translate(230.996 364)"/><path d="m0 0 1.608 3.437 3.777-.326-2.762 2.483 1.732 3.312L1.067 7.01l-2.851 2.386.711-3.625-3.281-1.894 3.598-.186Z" style="fill:#ffe910;fill-opacity:1;fill-rule:nonzero;stroke:none" transform="translate(218.492 322.699)"/><path d="m0 0 1.607 3.437 3.741-.346-2.747 2.543 1.674 3.23-3.248-1.878-2.811 2.407.678-3.641-3.249-1.875 3.598-.185Z" style="fill:#ffe910;fill-opacity:1;fill-rule:nonzero;stroke:none" transform="translate(272.38 353.91)"/><path d="m0 0 1.647 3.455 3.737-.35-2.765 2.486 1.672 3.331-3.249-1.878L-1.79 9.49l.696-3.68-3.285-1.896 3.643-.255Z" style="fill:#ffe910;fill-opacity:1;fill-rule:nonzero;stroke:none" transform="translate(246.724 368.362)"/><path d="m0 0 1.647 3.461 3.738-.349-2.784 2.522 1.671 3.324-3.251-1.872L-1.79 9.49l.638-3.664-3.245-1.869 3.677-.241Z" style="fill:#ffe910;fill-opacity:1;fill-rule:nonzero;stroke:none" transform="translate(261.794 364.321)"/><path d="m0 0 1.628 3.397 3.778-.325-2.769 2.486L4.33 8.94 1.045 7.044l-2.817 2.413.675-3.647-3.279-1.896 3.662-.292Z" style="fill:#ffe910;fill-opacity:1;fill-rule:nonzero;stroke:none" transform="translate(275.433 338.997)"/><path d="m0 0 1.623 3.491 3.762-.386-2.784 2.529 1.705 3.343-3.245-1.873L-1.79 9.49l.675-3.643-3.246-1.872 3.641-.258Z" style="fill:#ffe910;fill-opacity:1;fill-rule:nonzero;stroke:none" transform="translate(271.2 323.668)"/><path d="m0 0 1.623 3.494 3.795-.364-2.817 2.504 1.705 3.345-3.285-1.893-2.811 2.407.675-3.64-3.288-1.897 3.646-.261Z" style="fill:#ffe910;fill-opacity:1;fill-rule:nonzero;stroke:none" transform="translate(245.085 308.587)"/><path d="m0 0 1.629 3.403 3.72-.313-2.745 2.449 1.687 3.386-3.282-1.897-2.793 2.368.654-3.604-3.249-1.878 3.659-.292Z" style="fill:#ffe910;fill-opacity:1;fill-rule:nonzero;stroke:none" transform="translate(230.362 312.875)"/><path d="m0 0 1.604 3.437 3.784-.329-2.787 2.526 1.705 3.345-3.282-1.896-2.85 2.386.674-3.644-3.242-1.871 3.641-.259Z" style="fill:#ffe910;fill-opacity:1;fill-rule:nonzero;stroke:none" transform="translate(214.54 337.04)"/><path d="m0 0 1.607 3.437 3.741-.347-2.762 2.486 1.665 3.321-3.239-1.868-2.878 2.422.736-3.659-3.283-1.896 3.644-.262Z" style="fill:#ffe910;fill-opacity:1;fill-rule:nonzero;stroke:none" transform="translate(218.326 351.867)"/><path d="m0 0-91.425 158.355 4.904 2.829L4.905 2.832Z" style="fill:#000091;fill-opacity:1;fill-rule:nonzero;stroke:none" transform="translate(372.951 264.605)"/><path d="m0 0 19.63 34.342 9.932-5.677L16.765 6.272l13.969-7.986 10.873 19.023 9.934-5.676L40.668-7.39 65.75-21.728l-6.833-11.954Z" style="fill:#169b62;fill-opacity:1;fill-rule:nonzero;stroke:none" transform="translate(131.833 438.432)"/><path d="m0 0 11.228-13.477 5.956 4.965c4.467 3.723 4.905 8.497 1.368 12.742-3.288 3.947-8.126 4.458-12.596.735Zm-17.896-.018L-1.96 13.255c11.468 9.554 23.444 9.563 31.509-.115 5.272-6.33 6.126-13.568 2.814-20.491l35.539-9.496-12.438-10.362-31.479 9.472-5.436-4.525 17.555-21.077-10.575-8.81z" style="fill:#169b62;fill-opacity:1;fill-rule:nonzero;stroke:none" transform="translate(192.69 500.391)"/><path d="m0 0-15.437 22.335-2.577-27.027zm-27.434 32.63 17.449 4.547 41.968-59.199-14.167-3.689L7.083-10.277l-26.27-6.841-1.838-18.713-14.167-3.689z" style="fill:#169b62;fill-opacity:1;fill-rule:nonzero;stroke:none" transform="translate(299.854 525.66)"/><path d="m0 0 17.275-3.592 19.723-54.212L46.986-9.77l13.481-2.808-13.818-66.443-17.279 3.595L9.651-21.22-.34-69.251l-13.48 2.804z" style="fill:#169b62;fill-opacity:1;fill-rule:nonzero;stroke:none" transform="translate(355.19 569.407)"/><path d="m0 0 3.376-13.265c-10.089-2.786-21.366-.817-31.038 6.795-16.829 13.246-18.136 35.241-6.148 50.471 11.988 15.231 33.676 19.124 50.505 5.877 9.669-7.611 14.173-18.184 13.951-28.494l-13.745.088c.374 6.737-2.087 13.483-8.18 18.281-10.049 7.911-23.38 5.704-31.415-4.5-8.032-10.208-7.047-23.685 3.006-31.595C-13.599-1.14-6.464-1.945 0 0" style="fill:#169b62;fill-opacity:1;fill-rule:nonzero;stroke:none" transform="translate(468.505 467.75)"/><path d="m0 0 19.139-34.606L9.132-40.14-3.349-17.583l-14.079-7.782 10.603-19.169-10.01-5.536-10.6 19.169-15.266-8.442 12.477-22.563-10.009-5.534-19.139 34.603z" style="fill:#169b62;fill-opacity:1;fill-rule:nonzero;stroke:none" transform="translate(529.493 467.373)"/><path d="m0 0-15.705-7.812 3.453-6.941c2.588-5.209 7.138-6.731 12.085-4.272 4.598 2.285 6.211 6.882 3.619 12.088zm4.111 17.419 9.239-18.57c6.645-13.362 3.895-25.019-7.388-30.631-7.378-3.668-14.613-2.832-20.585 1.993l-17.449-32.388-7.208 14.495 16.486 28.444-3.151 6.333-24.56-12.219-6.129 12.325z" style="fill:#169b62;fill-opacity:1;fill-rule:nonzero;stroke:none" transform="translate(177.56 269.934)"/><path d="m0 0 28.452-27.462-7.94-8.232L1.96-17.79-9.214-29.364 6.545-44.58l-7.94-8.226-15.762 15.209-12.116-12.552 18.552-17.906-7.946-8.228-28.453 27.465z" style="fill:#169b62;fill-opacity:1;fill-rule:nonzero;stroke:none" transform="translate(212.01 233.689)"/><path d="m0 0 12.374-6.02-24.216-49.76 23.176-11.281-5.466-11.24-35.557 17.303z" style="fill:#169b62;fill-opacity:1;fill-rule:nonzero;stroke:none" transform="translate(252.376 198.872)"/><path d="m0 0-7.171 26.174-11.378-24.639Zm-15.084 39.86 17.965-1.483 20.011-69.74-14.59 1.2-5.017 18.12-27.048 2.237-7.928-17.045-14.587 1.206z" style="fill:#169b62;fill-opacity:1;fill-rule:nonzero;stroke:none" transform="translate(331.646 136.559)"/><path d="m0 0 16.564 6.072 45.361-35.599-16.881 46.044 12.921 4.737 23.356-63.696-16.561-6.076-45.366 35.603 16.883-46.044-12.921-4.737Z" style="fill:#169b62;fill-opacity:1;fill-rule:nonzero;stroke:none" transform="translate(365.855 174.42)"/><path d="m0 0 13.571 1.753c1.557-10.35-1.756-21.311-10.477-29.996-15.179-15.114-37.174-13.766-50.852-.03-13.678 13.735-14.935 35.739.243 50.854 8.722 8.682 19.762 11.885 29.969 10.42l-1.741-13.635c-6.643 1.179-13.638-.45-19.132-5.92-9.065-9.031-8.478-22.529.687-31.733 9.165-9.202 22.666-9.85 31.731-.821C-.507-13.635 1.149-6.649 0 0" style="fill:#169b62;fill-opacity:1;fill-rule:nonzero;stroke:none" transform="translate(503.53 204.662)"/><path d="m0 0 16.249 36.056 10.426-4.696L16.082 7.853 30.753 1.24l9.001 19.971 10.427-4.692-8.998-19.977 15.904-7.166 10.591 23.506 10.428-4.701-16.248-36.053Z" style="fill:#169b62;fill-opacity:1;fill-rule:nonzero;stroke:none" transform="translate(480.399 254.761)"/></g></svg>