<svg width="23" height="23" viewBox="0 0 23 23" fill="none" xmlns="http://www.w3.org/2000/svg">
<path d="M18.6091 3.98106L18.5669 4.02801L18.5199 4.01862L18.473 4.11252L18.426 4.08435L18.3838 4.13599L18.2899 4.11721L18.2758 4.08435L18.2711 4.04209L18.2242 4.01393L18.135 4.02332L18.0551 3.98576L18.0364 3.95759V3.92942L18.0035 3.91534V3.90125L17.9894 3.88717L17.9566 3.89186L17.9237 3.8637H17.8955L17.9002 3.91064L17.8721 3.92942L17.8674 3.89656L17.811 3.92003L17.7359 3.89656L17.6796 3.94351L17.6702 4.00454L17.5763 3.95759L17.4214 4.04679L17.3838 3.98576L17.412 3.95759L17.3791 3.91534L17.3885 3.86839L17.2852 3.74163L17.2101 3.71816L17.1538 3.74163L17.1491 3.72755L17.1725 3.64774L17.1068 3.56793L16.9237 3.55384L16.8768 3.49751L16.8439 3.5022L16.7735 3.37075L16.6514 3.34258L16.5998 3.28155L16.5716 3.28624L16.4871 3.3238L16.3791 3.30502L16.4026 3.24399L16.3791 3.14071L16.4261 2.99987L16.3604 2.92006L16.2665 2.89658L16.2618 2.86841L16.304 2.80269L16.3087 2.71349L16.3369 2.68532L16.3181 2.62429L16.3416 2.59143L16.3369 2.53039L16.3838 2.54448L16.3744 2.46936L16.4167 2.4365L16.3838 2.39425L16.3228 2.38486L16.304 2.35669L16.2665 2.40364L16.2101 2.42711L16.1866 2.50223L16.1162 2.53509L16.0881 2.58673L16.0787 2.6149L16.0974 2.66185L16.0787 2.7933L15.919 2.84025L15.8064 2.92475L15.6749 2.93883L15.5388 2.92006L15.473 2.8825L15.3416 2.90597L15.3228 3.01395L15.3698 3.0562L15.3792 3.13132L15.3275 3.2393L15.3181 3.30033L15.3228 3.3285L15.3087 3.37544L15.3557 3.39892L15.3604 3.42709L15.3228 3.49281L15.2806 3.53037L15.2712 3.57262L15.1726 3.64304L15.1491 3.74633L15.0599 3.74163L15.0177 3.7745L15.0036 3.78858L15.0928 3.90595L15.0505 3.96698L15.0834 4.00923L15.0881 4.0374L15.0317 4.07026L15.0411 4.16416L15.074 4.2158L15.0317 4.25336L15.0411 4.32847L15.0224 4.44584H15.0083L14.9566 4.40828L14.8956 4.39889L14.844 4.32847L14.8064 4.36134L14.7595 4.33786L14.7125 4.34256L14.7031 4.37542L14.7313 4.39889L14.7266 4.47401L14.6468 4.45054L14.5904 4.46931L14.3745 4.5679L14.3792 4.61016L14.4261 4.77447L14.398 4.83081L14.4449 4.85898H14.4637L14.4825 4.91531L14.5435 4.9247V4.95287L14.4919 5.00451L14.4449 4.97634L14.3416 5.00451L14.3041 5.06554L14.3557 5.17822L14.29 5.22986L14.2759 5.27681L14.3228 5.29089L14.398 5.2815L14.4308 5.33784L14.3604 5.3754L14.3416 5.4646L14.2947 5.46929L14.2994 5.51624L14.2712 5.53032L14.2477 5.59605L14.1726 5.61483L14.1397 5.70872L14.1116 5.7275V5.75567L14.1069 5.84487L14.0177 5.86834L14.0365 5.91059L13.9942 5.94815L13.9707 5.9951L14.0787 6.05613L14.0928 6.17819L14.0365 6.23922L14.0693 6.26739L14.0599 6.31434L14.1491 6.29087L14.243 6.35659L14.1585 6.39415V6.42232L14.0881 6.47396L14.1116 6.56316L14.0693 6.58194L13.9942 6.58663L14.0318 6.67583L13.9473 6.72748L13.9848 6.7979L13.9754 6.85893L14.0083 6.8871L13.9989 6.94813L14.0224 7.01855L14.0928 6.99977L14.1538 7.02324L14.3416 7.27206L14.3322 7.33309L14.3369 7.38004L14.2853 7.47394L14.3041 7.48802L14.3322 7.46924L14.3745 7.46455L14.4449 7.57722L14.52 7.55375L14.5294 7.51149L14.5764 7.52088L14.567 7.61008L14.6468 7.64764L14.7219 7.83543L14.7876 7.90585L14.7782 7.93402L14.7501 7.93871V7.98097L14.797 7.99505L14.8252 7.96219L14.858 7.97158V8.01852L14.8533 8.12181L15.0317 8.10772L15.0928 8.1312L15.135 8.07956L15.2148 8.11711L15.2946 8.05139L15.3604 8.08894L15.3557 8.03261L15.3838 8.01383L15.4355 8.11242L15.5247 8.11711L15.5341 8.06078L15.5622 8.042L15.6233 8.05139L15.7266 8.00913L15.8017 8.03261L15.966 8.00444L15.9754 7.97158L15.9425 7.91524L16.0082 7.84951L16.0693 7.84482L16.1773 7.87768L16.2383 7.87299L16.2852 7.90116L16.3744 7.90585L16.4073 7.9481L16.3791 7.98097L16.3838 8.00913L16.473 8.01852L16.5059 8.05608L16.4542 8.13589V8.15467L16.5012 8.17814L16.5294 8.1312L16.5716 8.1265L16.628 8.23918L16.6749 8.26734L16.6796 8.32368L16.7265 8.35185L16.7312 8.3941L16.6233 8.49738L16.689 8.54903L16.7078 8.60536L16.6843 8.67109L16.7031 8.71334L16.8017 8.67109L16.8486 8.69926L16.858 8.75559L16.966 8.80724L17.0646 8.73682L17.0833 8.79785L17.196 8.87766L17.1866 8.93399L17.2195 8.97625L17.3181 8.91052L17.3791 8.93399L17.4214 8.91522V8.86827L17.4824 8.72743L17.5528 8.72273L17.5998 8.70395L17.6749 8.72743L17.7406 8.64762L17.7735 8.65701L17.8063 8.71334L17.9566 8.68517L17.9472 8.61006L17.9847 8.50208L17.98 8.47391L17.9331 8.45044L17.9378 8.35654L17.9659 8.34246L18.027 8.33307L18.0645 8.24387L18.1678 8.24856L18.2007 8.14059L18.2758 8.10303L18.2711 8.06078L18.3227 7.99505L18.3321 7.93402L18.3462 7.91524H18.3744L18.3932 7.94341L18.3556 8.01852H18.3838L18.426 7.97158L18.4683 7.96688L18.5481 7.84012L18.6936 7.79318L18.7265 7.83543L18.75 7.89646L18.7359 7.93871L18.8157 7.97627L18.8345 8.00444H18.8767L18.9612 7.9481L19.0223 7.95749L19.1396 7.93402L19.2194 7.97158L19.2711 8.042V8.07017L19.3039 8.11242L19.4072 8.05608L19.4589 7.97627L19.5152 7.95749L19.5622 7.99974L19.5997 8.05608L19.8344 8.18284L19.8532 8.23918L19.9049 8.28143L19.9471 8.24856L19.9518 8.29082L19.9847 8.34715L20.1067 8.38002L20.2476 8.44105L20.2804 8.4833L20.2711 8.54433L20.3039 8.58659L20.2992 8.6617L20.2711 8.68048L20.2476 8.74151V8.78846L20.2804 8.81193L20.3415 8.79315L20.3884 8.81663L20.4401 8.91991L20.4917 8.97155L20.4823 9.03258L20.5762 9.07014L20.5715 9.17343V9.18751L20.6607 9.1969L20.6936 9.23915L20.8391 9.17812H20.8532L20.872 9.1922L20.9283 9.20159L20.9987 9.14995L21.0551 9.08422L21.0081 9.06075L21.0034 9.02789L21.0832 9.06545L21.1349 9.00442L21.1584 8.93869L21.1302 8.91522L21.21 8.8448V8.81663L21.2523 8.81193L21.2616 8.76498V8.73682L21.2241 8.66639L21.1255 8.58659L21.1208 8.49738L21.1584 8.43166L21.1677 8.38941L21.1302 8.28612L21.1771 8.1312L21.1677 8.042L21.2053 7.98097L21.1959 7.89177L21.2616 7.77909L21.2429 7.72276L21.1584 7.62417L21.1677 7.43168V7.4176L21.2569 7.24389L21.3133 7.0608L21.3227 6.96691L21.3461 6.91996L21.4166 6.85423L21.3837 6.69461L21.4307 6.53969L21.4353 6.45049L21.4917 6.38476L21.4729 6.19228L21.5339 6.05144L21.6044 5.98571L21.7217 5.84017L21.7311 5.73689L21.8015 5.7275L21.825 5.65238L21.9001 5.62891L21.9377 5.56788L22.0644 5.21108L22.1396 5.17352L21.9142 5.13596L21.8485 5.11249L21.8156 5.07024L21.6936 5.03738L21.6278 4.98573L21.5856 4.99982L21.5433 5.00921L21.5011 5.04207L21.3884 4.97634L21.318 5.02799L21.2288 5.00921L21.1865 5.02329L21.1255 5.0139L21.0879 4.96226L20.9847 4.95287L20.9377 4.91531L20.8673 4.81672L20.8767 4.76978L20.8438 4.74161L20.8016 4.751L20.7358 4.70874L20.6513 4.73222V4.76039L20.6279 4.80733L20.5856 4.82611L20.5293 4.89184L20.4354 4.85428L20.3649 4.89184L20.3321 4.86837L20.2898 4.88245L20.2429 4.84489H20.2147L20.21 4.80264L20.1631 4.82142L20.1725 4.87776L20.1302 4.91531L20.0739 4.78386L20.0833 4.72752H20.0363L19.9894 4.68527L19.9424 4.68997L19.8955 4.65241L19.8532 4.68527L19.7781 4.6618L19.764 4.68058L19.7875 4.76508L19.764 4.82611L19.656 4.80733L19.595 4.81203L19.5481 4.76039L19.5715 4.70874L19.5528 4.68058L19.5246 4.68527L19.5105 4.67119L19.487 4.60077L19.4542 4.5726L19.4495 4.53035L19.3556 4.46462L19.2852 4.35195V4.33317H19.3133L19.3274 4.31439L19.2899 4.25805L19.2288 4.22049L19.2241 4.19233L19.2523 4.17355L19.0316 4.04679L18.9753 4.06557L18.9284 4.05148L18.9331 4.08435L18.8673 4.06087L18.8063 4.02332L18.7734 3.97637L18.7124 3.95289L18.6091 3.98106Z" fill="#000091"/>
<path d="M15.0803 2.00465L14.977 1.88258L14.7751 1.9577L14.6812 1.91075H14.531L14.5075 1.93892L14.4981 2.00465L14.47 2.01873L14.3996 1.90606L14.3761 1.84503L14.3996 1.75583L14.3714 1.62437L14.3057 1.53987L14.2305 1.51639L14.1273 1.53987L14.1085 1.53048L14.1507 1.46475L14.1179 1.45536L14.0709 1.44128L14.0334 1.50701L13.916 1.54456L13.7752 1.45536L13.7564 1.4272V1.27696L13.7 1.11734L13.7235 1.0704L13.7188 1.01406L13.7 0.971807L13.639 0.976502L13.5827 0.859134L13.531 0.788713L13.4888 0.784018L13.4606 0.812187L13.3292 0.826271L13.2118 0.877913L13.1789 0.985891L13.1508 1.01875L13.0709 0.981197L13.0569 0.953028L12.9958 0.957723L12.963 0.934249L12.9442 0.877913L12.8597 0.793408L12.8409 0.718292L12.808 0.708903L12.7048 0.704208L12.6531 0.619703L12.6672 0.450693L12.6343 0.441304L12.7001 0.361494L12.6625 0.25821L12.6156 0.220652L12.5639 0L12.4231 0.0704208L12.2775 0.117368L12.2306 0.0891997L12.1132 0.145536L12.0099 0.140842L11.963 0.173705L11.9677 0.201873L11.9207 0.164315L11.8503 0.215957L11.7893 0.206568L11.3057 0.33802L11.1837 0.42722L11.1039 0.50703L11.0006 0.563367L11.0241 0.798103L11.0006 0.891997L10.963 0.938944L10.9536 0.999976L10.9818 1.30983L11.0194 1.41311L10.9771 1.43189L10.9302 1.73235L10.9677 1.79338L11.0475 1.82625L11.0663 1.88728L11.0334 1.84503L10.9302 1.85441L10.8832 2.05159L10.9208 2.10793L10.9818 2.12201L11.0241 2.2206L11.1133 2.25347L11.1179 2.3145L11.0898 2.33328L11.0241 2.29102L10.9677 2.30041L10.9161 2.22999L10.8597 2.24877L10.8081 2.3145L10.733 2.49759L10.625 2.60088L10.6719 2.62435L10.6954 2.59149L10.7424 2.60088L10.7518 2.67599L10.8316 2.74641L10.9677 2.91073L11.0945 2.99054L11.1602 3.07035L11.1931 3.26283L11.2682 3.40837L11.2071 3.41306L11.1978 3.46001L11.1555 3.47409L11.1414 3.53513L11.1179 3.56799L11.1367 3.60085L11.1884 3.56329L11.2071 3.57738L11.1414 3.69944L11.1649 3.76047L11.1273 3.8215L11.1602 3.84967L11.1649 3.95296L11.2025 3.98112L11.1461 4.06093L11.1931 4.08441L11.2353 4.03746L11.2682 4.07971L11.2447 4.14074L11.1649 4.22055L11.1414 4.30036L11.1743 4.32853L11.1602 4.34262L11.2118 4.41304L11.2306 4.48346V4.60552L11.2588 4.61491L11.2776 4.66186L11.2541 4.70881H11.2212L11.2025 4.66655L11.132 4.67125L11.1039 4.72289L11.1086 4.76514L11.1649 4.77453L11.132 4.83556L11.1978 4.90598L11.2682 4.88251L11.348 4.92007L11.409 4.91537L11.4231 4.94354L11.5686 4.90129L11.6109 4.91537L11.7423 4.82617L11.7752 4.86843L11.8691 4.90598L11.8879 4.93415L11.9865 4.92007L12.0052 4.93885L11.9818 4.98579L12.0804 4.96232L12.1367 4.8919L12.2071 4.99049L12.2353 4.9764L12.3386 4.99518L12.3433 5.02335H12.3714L12.4512 5.06091L12.4419 5.10316H12.4559L12.5029 5.11255L12.5123 5.0703L12.5404 5.0656L12.5451 5.12664L12.5968 5.17828L12.6813 5.11255L12.7423 5.15011L12.7752 5.19706L12.7799 5.20645L12.8221 5.17358L12.855 5.21584L12.9254 5.19706L12.9207 5.15011L12.963 5.13133L13.0616 5.19706L13.132 5.1595L13.1789 5.18767L13.2353 5.15011L13.2681 5.19236L13.3104 5.14541L13.3855 5.15011L13.409 5.07499L13.5639 5.12194L13.5498 5.16419L13.6061 5.26748L13.5686 5.34259L13.6296 5.35198L13.7141 5.45057L13.7517 5.53508L13.808 5.5163L13.8456 5.61489L13.916 5.58202L13.9442 5.6947L14.0521 5.74634L14.0568 5.79329L14.1132 5.75573V5.72756L14.1413 5.70878L14.1742 5.61489L14.2493 5.59611L14.2728 5.53038L14.301 5.5163L14.2963 5.46935L14.3432 5.46466L14.362 5.37546L14.4324 5.3379L14.3996 5.28156L14.3244 5.29095L14.2775 5.27687L14.2916 5.22992L14.3573 5.17828L14.3057 5.0656L14.3432 5.00457L14.4465 4.9764L14.4934 5.00457L14.5451 4.95293V4.92476L14.4841 4.91537L14.4653 4.85904H14.4465L14.3996 4.83087L14.4277 4.77453L14.3808 4.61022L14.3761 4.56796L14.592 4.46937L14.6484 4.4506L14.7282 4.47407L14.7329 4.39895L14.7047 4.37548L14.7141 4.34262L14.761 4.33792L14.808 4.3614L14.8456 4.32853L14.8972 4.39895L14.9582 4.40834L15.0099 4.4459H15.024L15.0427 4.32853L15.0333 4.25342L15.0756 4.21586L15.0427 4.16422L15.0333 4.07032L15.0897 4.03746L15.085 4.00929L15.0521 3.96704L15.0944 3.90601L15.0052 3.78864L15.0193 3.77456L15.0615 3.74169L15.1507 3.74639L15.1742 3.6431L15.2728 3.57268L15.2822 3.53043L15.3244 3.49287L15.362 3.42715L15.3573 3.39898L15.3103 3.3755L15.3244 3.32856L15.3197 3.30039L15.3291 3.23936L15.3808 3.13138L15.3714 3.05626L15.3244 3.01401L15.3432 2.90603L15.2822 2.91542V2.88256L15.2493 2.87317V2.85909H15.2024L15.1883 2.8497L15.2164 2.81683L15.1789 2.7605L15.2024 2.69477L15.3291 2.61496L15.2962 2.53984L15.2728 2.45064H15.1648L15.207 2.38492L15.193 2.24877L15.3009 2.1361L15.2822 2.09385L15.2211 2.06568L15.193 2.08446L15.2117 2.12671L15.1836 2.1314L15.146 2.08915L15.1413 2.02812L15.0803 2.00465Z" fill="#000091"/>
<path d="M15.976 7.97173L15.9666 8.00459L15.8023 8.03276L15.7272 8.00929L15.6239 8.05154L15.5629 8.04215L15.5347 8.06093L15.5253 8.11726L15.4361 8.11257L15.3845 8.01398L15.3563 8.03276L15.361 8.0891L15.2953 8.05154L15.2155 8.11726L15.1357 8.07971L15.0934 8.13135L15.0324 8.10787L14.854 8.12196L14.8587 8.01867V7.97173L14.8258 7.96234L14.7976 7.9952L14.7507 7.98112V7.93886L14.7789 7.93417L14.7882 7.906L14.7225 7.83558L14.6474 7.64779L14.5676 7.61023L14.577 7.52103L14.53 7.51164L14.5206 7.5539L14.4455 7.57737L14.3751 7.4647L14.3329 7.46939L14.3047 7.48817L14.2859 7.47409L14.3375 7.38019L14.3329 7.33325L14.3422 7.27221L14.1545 7.02339L14.0934 6.99992L14.023 7.0187L13.9995 6.94828L13.9385 6.9248L13.915 6.98584L13.8681 6.99053L13.7648 6.98584L13.7225 7.00461L13.6474 7.00931L13.5864 6.98584L13.5113 7.00461L13.469 7.04217L13.3798 7.03278L13.3329 7.15954L13.3376 7.22996L13.3704 7.25813L13.3751 7.30508L13.3329 7.32386L13.2953 7.41306L13.2531 7.41775L13.1967 7.46939L13.1826 7.48348L13.1873 7.53042L13.3282 7.60554L13.3188 7.65249L13.347 7.66657L13.3892 7.76516L13.5019 7.87314L13.4737 7.906L13.4925 7.93417L13.516 8.00929L13.4784 8.0844L13.3094 8.22055L13.3047 8.29566L13.3376 8.33792L13.3094 8.38486L13.3282 8.42712L13.3376 8.48815L13.2765 8.50693L13.192 8.55857H13.0747L13.0465 8.57265L13.0418 8.68063L13.0841 8.67594L13.1028 8.71819L13.1498 8.76044L13.1592 8.81678L13.2061 8.85903L13.1826 8.90598L13.1873 8.98109L13.2531 9.0609L13.2108 9.07968L13.1498 9.07029L13.0371 9.11255V9.14071L13.07 9.18297L13.1686 9.39892L13.07 9.63366L13.0747 9.67591L13.2531 9.84023L13.2625 9.94351L13.347 10.2064L13.3282 10.3426L13.408 10.4083L13.4268 10.4505L13.408 10.5726L13.4315 10.643L13.3798 10.7557L13.4033 10.8261L13.4127 10.9012L13.347 11.0421L13.3704 11.1125L13.4033 11.1547L13.516 11.2205L13.5817 11.305L13.6286 11.3285L13.6756 11.3238L13.7883 11.2533H13.8164L13.8493 11.3097L13.8962 11.3191L13.9432 11.3144L13.9807 11.2486L14.0559 11.258L14.0606 11.305L14.0934 11.3144L14.084 11.3754L14.1122 11.4036L14.1451 11.3989L14.2108 11.3191L14.2718 11.3285L14.2624 11.2393L14.3094 11.2486L14.3516 11.2158L14.3141 11.1594L14.3282 11.1454L14.408 11.1641L14.3939 11.1829L14.4314 11.2533L14.5676 11.4787L14.5582 11.5115L14.5911 11.5397L14.6098 11.6101L14.6005 11.6571L14.6192 11.6853L14.699 11.7369L14.7742 11.7322L14.854 11.8261L14.976 11.8167L15.0699 11.8965L15.0746 11.9388L15.0418 12.0655L15.0605 12.2392L14.9995 12.2627L14.9619 12.3096L14.9009 12.3284L14.9103 12.4364L14.8915 12.5256L14.9385 12.5491L15.0277 12.5585L15.0652 12.643L15.1403 12.6383L15.2671 12.5632L15.3328 12.6195L15.3939 12.6289L15.4173 12.5819L15.4502 12.5773L15.4831 12.6054L15.5394 12.6007V12.6148L15.53 12.6618L15.577 12.6711L15.6755 12.6007L15.7319 12.596V12.5538L15.7694 12.5021L15.7788 12.427L15.8117 12.305L15.9009 12.3143L15.9807 12.3801L16.0417 12.3613L16.0793 12.3096L16.1168 12.366L16.1779 12.3754L16.2107 12.2815L16.2999 12.2768L16.3375 12.3472L16.2952 12.366L16.2999 12.3942L16.3938 12.4599L16.3657 12.4787L16.3844 12.5068L16.3704 12.5538L16.3751 12.5819L16.422 12.6054L16.483 12.6007L16.5957 12.2158L16.6004 12.1266L16.652 12.0186L16.6567 11.9153L16.7272 11.7275L16.76 11.7557L16.8023 11.7228L16.8492 11.7322L16.8962 11.7698L16.9572 11.7979L17.0182 11.7604L17.0464 11.7745L17.0887 11.7369H17.1309L17.145 11.7181L17.1919 11.7463L17.2295 11.8167L17.2624 11.859L17.3281 11.8824L17.4032 11.8871L17.4173 11.9153L17.4079 11.9763L17.5065 12.0421L17.5253 12.1172L17.5816 12.2017L17.6051 12.1547L17.6379 12.197L17.6849 12.2064L17.6802 12.2956L17.7271 12.3378L17.8163 12.3143L17.9102 12.2439L17.9525 12.1829L17.9947 12.15L18.0276 12.1735L18.1215 12.2251L18.1591 12.3284L18.4126 12.305L18.483 12.2533L18.7318 11.9153L18.7741 11.8496L18.7647 11.7791L18.882 11.6007L18.8633 11.5444L18.8163 11.5022L18.8257 11.474L19.098 11.1923L19.2107 11.1219L19.3797 10.9717L19.3891 10.9294L19.3515 10.8731L19.3891 10.7651L19.3938 10.6712L19.3421 10.5726L19.436 10.4599H19.4642L19.6801 10.3801L19.7177 10.3003L19.8163 10.244L19.7834 10.2017L19.8116 10.1548L19.8538 10.1219L19.8632 10.075L19.9618 10.0233L20.0557 9.92473L20.0416 9.91065L20.2059 9.73225L20.1919 9.61488L20.2811 9.57732L20.3045 9.5116L20.3468 9.49282L20.375 9.45995L20.3562 9.4177L20.3045 9.39423L20.0745 9.44587L20.0839 9.38484L20.1074 9.35198L20.1214 9.31911L20.1637 9.30033L20.159 9.244L20.2576 9.17358L20.2341 9.07029L20.2905 9.05151L20.3984 9.08438L20.4829 9.03274L20.4923 8.9717L20.4407 8.92006L20.389 8.81678L20.3421 8.7933L20.2811 8.81208L20.2482 8.78861V8.74166L20.2717 8.68063L20.2998 8.66185L20.3045 8.58674L20.2717 8.54448L20.2811 8.48345L20.2482 8.4412L20.1074 8.38017L19.9853 8.34731L19.9524 8.29097L19.9477 8.24872L19.9055 8.28158L19.8538 8.23933L19.8351 8.18299L19.6003 8.05623L19.5628 7.9999L19.5158 7.95764L19.4595 7.97642L19.4078 8.05623L19.3046 8.11257L19.2717 8.07032V8.04215L19.2201 7.97173L19.1402 7.93417L19.0229 7.95764L18.9618 7.94825L18.8773 8.00459H18.8351L18.8163 7.97642L18.7365 7.93886L18.7506 7.89661L18.7271 7.83558L18.6942 7.79333L18.5487 7.84028L18.4689 7.96703L18.4267 7.97173L18.3844 8.01867H18.3562L18.3938 7.94356L18.375 7.91539H18.3468L18.3328 7.93417L18.3234 7.9952L18.2717 8.06093L18.2764 8.10318L18.2013 8.14074L18.1684 8.24872L18.0652 8.24402L18.0276 8.33322L17.9666 8.34261L17.9384 8.35669L17.9337 8.45059L17.9807 8.47406L17.9853 8.50223L17.9478 8.61021L17.9572 8.68533L17.8069 8.71349L17.7741 8.65716L17.7412 8.64777L17.6755 8.72758L17.6004 8.7041L17.5534 8.72288L17.483 8.72758L17.422 8.86842V8.91537L17.3797 8.93415L17.3187 8.91067L17.2201 8.9764L17.1872 8.93415L17.1966 8.87781L17.084 8.798L17.0652 8.73697L16.9666 8.80739L16.8586 8.75575L16.8492 8.69941L16.8023 8.67124L16.7037 8.71349L16.6849 8.67124L16.7084 8.60552L16.6896 8.54918L16.6239 8.49754L16.7319 8.39425L16.7272 8.352L16.6802 8.32383L16.6755 8.2675L16.6286 8.23933L16.5722 8.12665L16.53 8.13135L16.5018 8.1783L16.4549 8.15482V8.13604L16.5065 8.05623L16.4736 8.01867L16.3844 8.00929L16.3798 7.98112L16.4079 7.94825L16.3751 7.906L16.2859 7.90131L16.2389 7.87314L16.1779 7.87783L16.0699 7.84497L16.0089 7.84966L15.9431 7.91539L15.976 7.97173Z" fill="#000091"/>
<path d="M20.0521 11.9575L20.0849 11.8214L19.8267 11.7697L19.545 11.7791L19.3901 11.8824L19.2305 11.9293L19.0896 12.0467L19.0662 12.0936V12.1077L19.0521 12.1265L19.0286 12.1735L19.0756 12.1969L19.0662 12.258L19.1131 12.3143L19.1882 12.319L19.1788 12.38L19.0521 12.4551L18.9957 12.5021L18.9723 12.5631L18.9019 12.6148L18.7657 12.6007L18.7281 12.6335L18.653 12.6242L18.5779 12.6476L18.6249 12.5209L18.592 12.4786L18.6014 12.4364L18.7047 12.38L18.8033 12.3566L18.8361 12.3706L18.8643 12.3378L18.8267 12.2486L18.8596 12.1594L18.9253 12.0608V12.0326L18.7986 11.9387L18.7328 11.9152L18.484 12.2533L18.4136 12.3049L18.1601 12.3284L18.1225 12.2251L18.0286 12.1735L17.9958 12.15L17.9535 12.1828L17.9113 12.2439L17.8174 12.3143L17.7282 12.3378L17.6812 12.2955L17.6859 12.2063L17.639 12.1969L17.6061 12.1547L17.5826 12.2016L17.5263 12.1171L17.5075 12.042L17.4089 11.9763L17.4183 11.9152L17.4042 11.8871L17.3291 11.8824L17.2634 11.8589L17.2305 11.8167L17.193 11.7462L17.146 11.7181L17.1319 11.7368H17.0897L17.0474 11.7744L17.0193 11.7603L16.9582 11.7979L16.8972 11.7697L16.8503 11.7322L16.8033 11.7228L16.7611 11.7556L16.7282 11.7275L16.6578 11.9152L16.6531 12.0185L16.6014 12.1265L16.5967 12.2157L16.4841 12.6007L16.423 12.6054L16.3761 12.5819L16.3714 12.5537L16.3855 12.5068L16.3667 12.4786L16.3949 12.4598L16.301 12.3941L16.2963 12.3659L16.3385 12.3472L16.301 12.2767L16.2118 12.2814L16.1789 12.3753L16.1179 12.3659L16.0803 12.3096L16.0428 12.3612L15.9817 12.38L15.9019 12.3143L15.8127 12.3049L15.7799 12.427L15.7705 12.5021L15.7329 12.5537V12.596L15.6766 12.6007L15.578 12.6711L15.531 12.6617L15.5404 12.6148V12.6007L15.4841 12.6054L15.4512 12.5772L15.4184 12.5819L15.3949 12.6288L15.3339 12.6195L15.2681 12.5631L15.1414 12.6382L15.0663 12.6429L15.0287 12.5584L14.9395 12.549L14.8926 12.5256L14.9113 12.4364L14.902 12.3284L14.963 12.3096L15.0005 12.2627L15.0616 12.2392L15.0428 12.0655L15.0757 11.9387L15.071 11.8965L14.9771 11.8167L14.855 11.826L14.7752 11.7322L14.7001 11.7368L14.6203 11.6852L14.6015 11.657L14.6109 11.6101L14.5921 11.5397L14.5592 11.5115L14.5686 11.4786L14.4325 11.2533L14.3949 11.1829L14.409 11.1641L14.3292 11.1453L14.3151 11.1594L14.3527 11.2157L14.3104 11.2486L14.2635 11.2392L14.2729 11.3284L14.2118 11.319L14.1461 11.3988L14.1132 11.4035L14.0851 11.3754L14.0945 11.3143L14.0616 11.3049L14.0569 11.258L13.9818 11.2486L13.9442 11.3143L13.8973 11.319L13.8503 11.3096L13.8175 11.2533H13.7893L13.6766 11.3237L13.6297 11.3284L13.5827 11.3049L13.517 11.2204L13.4043 11.1547L13.3715 11.1124L13.348 11.042L13.2447 11.0186L13.2165 11.0514L13.1555 11.0561L13.0335 11.1735L13.0241 11.2204L12.9443 11.197L12.8738 11.2345L12.8269 11.1782L12.7799 11.1829L12.7705 11.2298L12.7565 11.2439L12.7142 11.2768L12.6297 11.3143L12.6485 11.3613L12.6344 11.3894L12.5875 11.366L12.5311 11.3988L12.5781 11.4411L12.5452 11.535L12.5921 11.5725L12.6015 11.6617L12.4889 11.7322L12.456 11.7228L12.4137 11.7415L12.395 11.7134L12.3245 11.7322L12.1461 11.765L12.1086 11.812L12.0945 11.8589L12.0663 11.8636L12.0429 11.9106L12.0194 11.9998L12.0288 12.089L12.1039 12.1265L12.0663 12.1735L12.0851 12.2345L12.1649 12.272L12.2072 12.2392L12.2541 12.2908L12.2588 12.3378L12.3199 12.3331L12.3668 12.3566L12.3903 12.4317L12.4231 12.4692L12.4513 12.6054L12.5123 12.6429L12.5217 12.718L12.4983 12.7932L12.5029 12.8683L12.5264 12.9528L12.5921 13.0091L12.5687 13.0983L12.5921 13.1593L12.5358 13.1922L12.4936 13.2579L12.4842 13.319L12.4184 13.3847L12.3903 13.4316L12.3152 13.4223H12.3011L12.3058 13.4692L12.2776 13.5021L12.2213 13.5068L12.2072 13.5208L12.2729 13.6194L12.2964 13.6945L12.3105 13.6899L12.3762 13.7321L12.4419 13.8307L12.4513 13.887L12.4231 13.934L12.4419 13.9621L12.4325 14.0091L12.3715 14.0138L12.3386 14.1218L12.3903 14.2063L12.4231 14.2485L12.3762 14.5678L12.4419 14.6194L12.4466 14.6523L12.3574 14.6898L12.1837 14.5865H12.1415L12.1602 14.6476L12.1321 14.7978L12.0569 14.8213L12.0194 14.8964L11.9771 14.9011L11.9255 14.995L11.841 15.0795L11.8316 15.1124L11.8504 15.1687L11.902 15.225L11.8692 15.2391L11.8457 15.2861L11.8175 15.2908L11.8222 15.3377L11.7987 15.4269L11.7377 15.4175L11.6579 15.502L11.6955 15.5865L11.7283 15.6288L11.733 15.6757L11.6016 15.6992L11.6203 15.7555L11.625 15.8025L11.6767 15.8588L11.6344 15.8917V15.9339L11.7753 16.1311L11.7847 16.2062L11.7518 16.2391L11.7471 16.3283L11.7283 16.4034L11.7565 16.4175L11.7894 16.4597L11.7847 16.5677L11.8504 16.6334L11.8645 16.6147L11.8598 16.5724L11.8692 16.5442L11.9865 16.502L12.0804 16.4926L12.0992 16.5489L12.1274 16.563L12.1743 16.5442L12.2635 16.5677L12.3058 16.5442H12.3668L12.3903 16.4503L12.4983 16.3611L12.4936 16.2719L12.517 16.2156L12.5734 16.1781L12.5921 16.056L12.6297 15.9903L12.672 15.9715L12.7095 15.9105L12.7377 15.8917H12.7705L12.8222 15.8119L12.8879 15.8635L12.8832 16.0137L12.9583 15.9809L13.0475 15.9856L13.0522 16.0278L13.0945 16.1734L13.1273 16.2015L13.1696 16.1827L13.1884 16.225L13.179 16.2532L13.1461 16.2626L13.179 16.3001L13.1696 16.3471L13.1931 16.4316L13.2306 16.5208L13.2776 16.5583L13.3386 16.3893L13.3809 16.3705L13.3621 16.3283L13.3856 16.2673L13.409 16.1593L13.4466 16.0795L13.4888 16.0748L13.5076 15.9386L13.564 15.9058L13.6156 15.9762L13.6625 16.0043L13.733 15.948L13.7236 15.8917L13.7517 15.8588L13.7611 15.8166L13.8269 15.84L13.9536 15.7696L13.963 15.7227L13.9771 15.718L13.9959 15.7602L14.0616 15.7837L14.071 15.9058L14.1461 16.0889L14.179 16.1311L14.2541 16.0982L14.3527 16.0748L14.3855 16.0842L14.4043 15.9621L14.4653 15.9574L14.4935 15.9668L14.5311 16.0278L14.5217 16.0842L14.6672 16.0748L14.7048 16.1452L14.7705 16.1968L14.7893 16.2391L14.8456 16.2203L14.8362 16.2813L14.916 16.3189L14.8926 16.3799L14.9254 16.4222L14.916 16.4691L14.9536 16.5536L14.9583 16.6287L15.0005 16.732L15.0616 16.7696L15.1179 16.8963L15.1273 16.9855L15.1461 17.0278L15.2259 17.0654L15.2306 17.1264L15.2775 17.1639L15.2353 17.2015L15.2588 17.2719L15.2494 17.333L15.2353 17.3658L15.2541 17.3752L15.3996 17.347L15.4325 17.3893L15.4935 17.3987L15.5123 17.4268L15.639 17.5207L15.6813 17.4738L15.7047 17.394L15.747 17.3752L15.7705 17.3283L15.8878 17.3189L15.8925 17.347L15.8878 17.4362L15.963 17.4597L15.9911 17.4409L15.9958 17.3236L16.085 17.3142L16.1648 17.3658L16.1977 17.4081L16.3057 17.4738L16.3338 17.455L16.3526 17.4973V17.333L16.4183 17.3564L16.5498 17.347L16.5967 17.3705L16.6437 17.4128L16.6531 17.4879L16.6766 17.5724L16.6906 17.5865L16.7892 17.502L16.8784 17.4973L17.1038 17.3846L17.1554 17.4409L17.2024 17.4362L17.315 17.3658L17.3197 17.4081L17.2775 17.4597L17.3103 17.502L17.301 17.5583V17.5771L17.3948 17.6099L17.4418 17.6052L17.4653 17.5583L17.5732 17.6099L17.6812 17.6146L17.7282 17.6381L17.7376 17.7461L17.8268 17.7649L17.8643 17.8353L17.9394 17.8447L18.0803 17.7414L18.0615 17.6991L18.1038 17.6522L18.1319 17.6475L18.193 17.6851L18.2023 17.7461L18.2775 17.7555L18.2728 17.7085L18.2117 17.6851L18.2211 17.6522L18.2634 17.6334L18.2775 17.6193L18.2634 17.455L18.1836 17.4175L18.1789 17.3752L18.146 17.333L18.1554 17.286H18.0239L17.9629 17.2578L17.9019 17.2672L17.8033 17.1827L17.8174 17.1405L17.7798 17.0701L17.808 17.0513L17.869 17.0607L17.8972 17.0419L17.8455 16.9715L17.8502 16.8682L18.0944 16.9339L18.1225 16.9198L18.1507 16.8729L18.1883 16.8353L18.0897 16.7414L18.1648 16.5677L18.1554 16.4785L18.3056 16.4832L18.362 16.4503L18.423 16.441L18.4887 16.3611L18.4699 16.333L18.4418 16.3189L18.4887 16.1781L18.5967 16.2015L18.7094 16.1593L18.7657 16.1076L18.7141 16.056L18.7986 16.0043L18.8267 15.9715L18.9065 16.009L19.0286 15.8917L19.2399 15.9011L19.3244 15.8494L19.3901 15.9011L19.4324 15.8964L19.4277 15.6757L19.3807 15.6522L19.3525 15.5349L19.3244 15.5208L19.2352 15.5443L19.1554 15.4926L19.1741 15.3706L19.2023 15.3518L19.1929 15.2626L19.2352 15.2016L19.2962 15.2391L19.3854 15.2156L19.4324 15.272L19.4417 15.3471L19.592 15.3753L19.653 15.3565L19.6436 15.2814L19.6859 15.2344L19.761 15.2532L19.8173 15.1922L19.8737 15.2016L19.9065 15.2109L19.9769 15.1734L20.0051 15.1452L20.1225 15.1358L20.1647 15.0842L20.3197 15.1452L20.376 15.1217L20.3854 15.0466L20.4699 15.0232L20.5215 14.9293L20.653 14.887L20.6999 14.9152L20.7985 14.8166L20.8032 14.7415L20.7657 14.6241L20.8455 14.5255L20.8783 14.4034L20.7516 14.3424L20.7187 14.2861L20.7281 14.2532L20.6389 14.2485L20.6342 14.2016L20.5403 14.1687L20.5215 14.0936L20.5121 13.9903L20.4746 13.9481L20.5121 13.826L20.4464 13.8025L20.376 13.8072L20.3244 13.7415L20.2305 13.718L20.16 13.6194L20.1366 13.488L20.146 13.4269L20.1413 13.3847L20.1694 13.3518L20.2117 13.3331L20.2445 13.3565L20.268 13.3096L20.329 13.319L20.3713 13.3002L20.4699 13.2345L20.5074 13.1406L20.5497 13.1077L20.5262 13.0185L20.4934 12.9903L20.5028 12.9434L20.437 12.8917L20.3337 12.7509L20.268 12.8025L20.2352 12.7932L20.2305 12.7603L20.2586 12.7133L20.2399 12.6711L20.2633 12.596H20.1131L20.0802 12.5537L20.0755 12.5068L20.099 12.4598L20.0943 12.3847L20.1694 12.258L20.1835 12.2157L20.1788 12.1828L20.0333 12.0655L20.0145 12.0185L20.0521 11.9575ZM16.9723 17.0841L17.024 17.1217V17.1686L17.0568 17.1639L17.0897 17.1921L17.1319 17.1874V17.2015L17.1085 17.2344L17.0474 17.2391L17.038 17.286L17.024 17.3189L17.0287 17.333L16.9958 17.3517L16.9864 17.3658L16.9911 17.4268L16.9723 17.4128L16.9301 17.3987L16.8643 17.3752L16.808 17.3987L16.8033 17.3658L16.7892 17.3377L16.8127 17.3048L16.7658 17.2813L16.808 17.2344L16.8362 17.2156L16.8315 17.1546L16.8409 17.1264L16.916 17.0888V17.1076L16.9442 17.0701L16.9582 17.0841H16.9723Z" fill="#000091"/>
<path d="M14.8448 16.2202L14.7885 16.239L14.7697 16.1967L14.704 16.1451L14.6664 16.0747L14.5209 16.084L14.5303 16.0277L14.4927 15.9667L14.4645 15.9573L14.4035 15.962L14.3847 16.084L14.3519 16.0747L14.2533 16.0981L14.1782 16.131L14.1453 16.0887L14.0702 15.9056L14.0608 15.7836L13.9951 15.7601L13.9763 15.7179L13.9622 15.7225L13.9528 15.7695L13.8261 15.8399L13.7603 15.8164L13.7509 15.8587L13.7228 15.8916L13.7322 15.9479L13.6617 16.0042L13.6148 15.9761L13.5631 15.9056L13.5068 15.9385L13.488 16.0747L13.4458 16.0793L13.4082 16.1592L13.3847 16.2671L13.3613 16.3282L13.3801 16.3704L13.3378 16.3892L13.2768 16.5582L13.2298 16.5207L13.1923 16.4315L13.1688 16.3469L13.1782 16.3L13.1453 16.2624L13.1782 16.2531L13.1876 16.2249L13.1688 16.1826L13.1265 16.2014L13.0937 16.1732L13.0514 16.0277L13.0467 15.9855L12.9575 15.9808L12.8824 16.0136L12.8871 15.8634L12.8214 15.8117L12.7697 15.8916H12.7369L12.7087 15.9103L12.6712 15.9714L12.6289 15.9901L12.5913 16.0559L12.5726 16.1779L12.5162 16.2155L12.4928 16.2718L12.4974 16.361L12.3895 16.4502L12.366 16.5441H12.305L12.2627 16.5676L12.1735 16.5441L12.1266 16.5629L12.0984 16.5488L12.0796 16.4925L11.9857 16.5019L11.8684 16.5441L11.859 16.5723L11.8637 16.6145L11.8496 16.6333L11.7838 16.5676L11.7885 16.4596L11.7557 16.4174L11.7275 16.4033L11.7463 16.3282L11.751 16.239L11.7838 16.2061L11.7745 16.131L11.6336 15.9338V15.8916L11.6759 15.8587L11.6242 15.8024L11.6195 15.7554L11.6008 15.6991L11.5538 15.6897L11.4646 15.6991L11.3801 15.7507L11.3613 15.7085L11.3144 15.6991L11.2768 15.746L11.1735 15.7836L11.1501 15.8164L11.089 15.8071L11.0703 15.8211L11.0233 15.7836V15.7507L10.9576 15.6991L10.9059 15.6287L10.8261 15.5488L10.7181 15.5254L10.6618 15.5488L10.6243 15.5066L10.5116 15.577L10.4834 15.5629L10.413 15.6146L10.4224 15.7225L10.4599 15.8211L10.4036 15.854L10.4552 15.9103L10.4599 15.9385L10.413 15.9432L10.3895 16.0042L10.3144 16.0277L10.3097 16.1028L10.1923 16.1451L10.197 16.192L10.2299 16.2296L10.1783 16.3376L10.1313 16.3329L10.0374 16.4127L9.90596 16.4549L9.91535 16.5441L9.82145 16.6427L9.81207 16.7037L9.7792 16.6897L9.66653 16.7789L9.63836 16.7648H9.61019L9.66183 16.8634L9.65245 16.9244L9.67122 16.9526L9.67592 17.0277L9.72756 17.084L9.71817 17.1591L9.73695 17.2014L9.70878 17.2342L9.61958 17.2296L9.5163 17.2389L9.48344 17.1826H9.43649L9.4271 17.2155L9.43179 17.2765L9.38015 17.3563L9.4271 17.3939L9.47405 17.3892L9.52569 17.4596L9.49283 17.4784L9.47405 17.5864L9.43649 17.6615L9.35198 17.6849V17.7178L9.39893 17.7272L9.40362 17.8023L9.36607 17.8352L9.23931 17.7882L9.22992 17.8446L9.1595 17.8821L9.12194 17.9619V17.976L9.14072 17.9901H9.12664L9.06561 18.0089L8.9811 18.0652L8.88251 17.9854L8.84965 17.9432L8.76514 17.9948L8.72289 17.9995L8.61491 17.9948L8.54919 18.0605L8.45999 18.0981L8.34262 18.1075L8.31445 18.1403L8.21117 18.1075L8.15952 18.0652L8.10319 18.084L8.03746 18.1685H8.01868L7.9999 18.1262L7.88254 18.1497L7.85906 18.2108L7.88254 18.314L7.84498 18.3657L7.79803 18.3516L7.71822 18.2859L7.75578 18.2201L7.69005 18.1403L7.61024 18.2342L7.56329 18.2389L7.56799 18.2718L7.52104 18.2436L7.41776 18.253L7.36142 18.3046L7.31917 18.3234L7.30508 18.3516L7.38489 18.3892V18.422L7.36142 18.4549L7.3802 18.5112L7.37081 18.5722L7.30978 18.5769L7.33795 18.6943L7.32386 18.7272L7.35673 18.7366V18.7506L7.25814 18.8211L7.27692 18.8633L7.25344 18.8962L7.26753 18.9243L7.27222 18.9525L7.21589 19.0042L7.18772 19.0089L7.2065 19.0511L7.25344 19.0746L7.23936 19.1074L7.25814 19.1497L7.37551 19.1262L7.40837 19.1497L7.53043 19.1544L7.53982 19.2436L7.61963 19.2952L7.62902 19.3985L7.66188 19.4549L7.59146 19.4924L7.58207 19.5394L7.60085 19.5957H7.61494L7.63841 19.5487L7.69944 19.5441L7.70414 19.5863L7.69944 19.7084L7.737 19.7788L7.70883 19.8117L7.65249 19.8304L7.61024 19.8774L7.61494 19.9102L7.6478 19.9525L7.65249 19.9947L7.58677 20.0886L7.53982 20.0933L7.55391 20.1966L7.49287 20.2201L7.46471 20.206L7.39898 20.3187L7.31447 20.3562L7.2957 20.5206L7.25814 20.5534L7.18302 20.5487L7.17363 20.6051L7.12669 20.6238V20.7882L7.04688 20.8586L7.07035 20.9759L7.06096 21.0229L7.25344 21.1543L7.34264 21.1872L7.43184 21.328L7.56329 21.436L7.61024 21.4642L7.72761 21.436L7.98582 21.3515L8.12666 21.4126L8.16422 21.4689L8.19708 21.5111L8.23933 21.4924L8.30506 21.4126L8.35201 21.4219L8.46468 21.4877L8.54919 21.4642L8.61491 21.4877L8.6243 21.4736L8.65247 21.4548L8.74636 21.4783L8.77453 21.4595L8.8966 21.4924L8.91537 21.5064H8.92946L8.92476 21.4736L8.93885 21.4595L8.92007 21.4313L8.93415 21.4126L8.92007 21.4032L8.90129 21.3562L8.86843 21.3327L8.90598 21.2811L8.87312 21.2576L8.91537 21.206L8.90598 21.1168L8.94824 21.0839L9.00457 21.0651L9.11725 21.1309L9.26748 21.159L9.39893 21.2529L9.46935 21.2295L9.5163 21.2717L9.69939 21.2858L9.75103 21.3374L9.7792 21.3656L9.80268 21.4219L9.8684 21.4783L9.96699 21.436L10.028 21.4642L10.2064 21.4595L10.2111 21.5064L10.2628 21.544L10.2815 21.5863L10.3144 21.6285L10.3379 21.7036L10.366 21.76L10.4271 21.7412L10.4224 21.6802L10.4505 21.6473L10.5069 21.6567L10.582 21.6332L10.6806 21.6989L10.92 21.7365L10.9247 21.7975L11.0233 21.8492L10.9951 21.8679H10.9623L10.9247 21.9149L10.9294 21.9618L10.9012 21.9947V22.0229L10.92 22.051L11.1031 22.0792L11.2158 22.1731L11.305 22.1637L11.3425 22.2529L11.366 22.3515L11.4646 22.4219L11.582 22.3937L11.7134 22.2482L11.8214 22.2529L11.92 22.2107L12.0092 22.2341L12.1219 22.2999L12.2486 22.3327L12.3472 22.4548L12.4411 22.4783L12.4693 22.4736L12.5068 22.4266L12.704 22.4548L12.7181 22.4407L12.6805 22.3515L12.7228 22.3045L12.751 22.2858L12.8495 22.2482L12.8965 22.2717L12.9434 22.267L13.0373 22.1684L13.0937 22.1496L13.1876 22.159L13.2251 22.1074L13.2768 22.1449L13.4082 22.1355L13.5068 22.2435L13.5678 22.2247L13.6711 22.2294L13.6336 22.1308L13.5866 22.1027L13.5913 22.0135L13.4974 21.99L13.4317 21.9243L13.4082 21.6708V21.1919L13.4364 20.9947L13.4035 20.9384L13.4129 20.8774L13.4552 20.713L13.6101 20.4267L13.7838 20.2342L13.9246 20.1168L14.0796 20.0417L14.2908 20.0652L14.535 19.8023L14.6664 19.7459L14.6899 19.699L14.8072 19.6426L14.9293 19.5112L15.0279 19.4455L15.211 19.3516L15.3753 19.3375L15.4363 19.361L15.4551 19.4032L15.441 19.422H15.427L15.4129 19.4549H15.3988L15.4363 19.5112L15.4692 19.5394L15.4974 19.5487L15.6194 19.5816L15.657 19.4736L15.7838 19.4032L15.7791 19.361L15.826 19.3844L15.9528 19.314L15.9809 19.2671L16.0514 19.2436L16.0607 19.1826L16.0185 19.1873L15.9856 19.1591L16.0232 19.0699L16.0795 19.0323L16.0889 18.9713L16.1875 18.9478L16.2955 18.9807L16.3565 18.976L16.333 18.8915L16.3941 18.7366L16.4035 18.6755L16.3847 18.6145L16.4081 18.5676L16.3753 18.5253L16.4739 18.4737L16.5537 18.3751L16.6804 18.2765L16.6898 18.2154L16.7321 18.2108L16.7462 18.1638L16.61 18.0136L16.5772 17.9572L16.502 17.9619L16.4833 17.9056L16.4927 17.7084L16.4692 17.638L16.4128 17.6286L16.4081 17.5817L16.3518 17.4972L16.333 17.4549L16.3049 17.4737L16.1969 17.408L16.164 17.3657L16.0842 17.3141L15.995 17.3234L15.9903 17.4408L15.9622 17.4596L15.887 17.4361L15.8917 17.3469L15.887 17.3188L15.7697 17.3281L15.7462 17.3751L15.7039 17.3939L15.6805 17.4737L15.6382 17.5206L15.5115 17.4267L15.4927 17.3986L15.4316 17.3892L15.3988 17.3469L15.2532 17.3751L15.2345 17.3657L15.2486 17.3328L15.2579 17.2718L15.2345 17.2014L15.2767 17.1638L15.2298 17.1263L15.2251 17.0652L15.1453 17.0277L15.1265 16.9854L15.1171 16.8962L15.0608 16.7695L14.9997 16.7319L14.9575 16.6286L14.9528 16.5535L14.9152 16.469L14.9246 16.4221L14.8918 16.3798L14.9152 16.3188L14.8354 16.2812L14.8448 16.2202ZM11.4552 22.1684L11.4411 22.1825L11.3942 22.1731L11.366 22.159L11.3472 22.1449L11.3566 22.1027L11.3848 22.0839L11.3989 22.051L11.4317 22.0792L11.4036 22.1121L11.4224 22.1402L11.4552 22.1684Z" fill="#000091"/>
<path d="M16.4172 17.3564L16.3515 17.3329V17.4972L16.4079 17.5818L16.4125 17.6287L16.4689 17.6381L16.4924 17.7085L16.483 17.9057L16.5017 17.962L16.5769 17.9573L16.6097 18.0137L16.7459 18.1639L16.7318 18.2108L16.6895 18.2155L16.6801 18.2766L16.5534 18.3752L16.4736 18.4737L16.375 18.5254L16.4079 18.5676L16.3844 18.6146L16.4032 18.6756L16.3938 18.7367L16.3327 18.8916L16.3562 18.9761L16.2952 18.9808L16.1872 18.9479L16.0886 18.9714L16.0792 19.0324L16.0229 19.07L15.9853 19.1592L16.0182 19.1873L16.0604 19.1827L16.0511 19.2437L15.9806 19.2672L15.9525 19.3141L15.8257 19.3845L15.7788 19.3611L15.7835 19.4033L15.6567 19.4737L15.6191 19.5817L15.9525 19.6146L16.0558 19.5864L16.2201 19.6005L16.2858 19.6427L16.3046 19.685V19.7132L16.2529 19.7789L16.3187 19.8305L16.436 19.8493L16.6473 19.8446L16.7693 19.8962L16.8539 19.8258L16.8022 19.7742L16.7881 19.746L16.7975 19.685L16.8257 19.6662L16.821 19.638L16.882 19.6615L16.9384 19.624L16.9994 19.6474L17.0182 19.6615L17.0369 19.6897L17.0651 19.7038L17.0557 19.7366L17.159 19.8869L17.5017 19.8728L17.6567 19.7977L17.7224 19.8493L17.7552 19.9103L17.7505 19.9854L17.7881 20.07L17.7505 20.131V20.1638L17.9618 20.1732L18.0369 20.1967L18.0933 20.1592L18.1637 20.2437L18.2247 20.2812L18.281 20.2202L18.3562 20.2249L18.4078 20.3094L18.5299 20.3422L18.6097 20.3986L18.6191 20.5019L18.6848 20.5394L18.7411 20.5206L18.7928 20.4549L18.7881 20.3939L18.8162 20.3751L18.9853 20.408L19.051 20.4596H19.1965L19.22 20.5206L19.2059 20.5629L19.2669 20.5723L19.2857 20.4361L19.3561 20.3704L19.4876 20.3469L19.6425 20.4033L19.6754 20.3141L19.7176 20.2765L19.9242 20.2296L20.0369 20.1451L20.1589 20.1779L20.2247 20.0981L20.2153 20.0089L20.2528 19.9291L20.2247 19.9197L20.0932 19.9432L20.0744 19.915L20.2951 19.7179L20.3514 19.5348L20.5298 19.5301L20.6566 19.4456L20.6801 19.3657L20.7223 19.3188L20.6988 19.2625L20.7552 19.1967L20.8256 19.1733L20.8725 19.2014L20.9711 19.1169L21.0509 19.1686L21.0368 19.0043L21.0462 18.9432L21.0838 18.8963L21.173 18.8869L21.2528 18.793L21.342 18.7836L21.3702 18.7648L21.389 18.793L21.4265 18.7179L21.558 18.6897L21.5439 18.6756L21.5814 18.6287L21.5955 18.624L21.6378 18.5911L21.6706 18.6052L21.6941 18.5583L21.7504 18.5207L21.6894 18.347L21.6847 18.3047L21.7974 18.2202L21.8162 18.1123L21.957 18.009L21.9852 17.962L21.9617 17.8916L22.0321 17.84L22.0556 17.793L22.0368 17.732L21.9664 17.6193L21.957 17.5019L21.9101 17.5066L21.8537 17.5724L21.6519 17.6052L21.511 17.6756L21.4077 17.685L21.3561 17.6334L21.2199 17.6287L21.1683 17.5583L21.1073 17.5489L21.0134 17.4832L20.9664 17.4879L20.8584 17.4221L20.7833 17.4456L20.7364 17.4221L20.6847 17.3048L20.6331 17.2672L20.5345 17.1404L20.4876 17.117L20.497 17.07L20.4876 16.9667L20.5721 16.9151L20.4547 16.8024L20.4031 16.6898L20.4406 16.624L20.4829 16.6053L20.5251 16.5583L20.5486 16.4973L20.5862 16.4315L20.5486 16.347L20.5768 16.3001L20.6143 16.2672H20.7786L20.7599 16.1921L20.7129 16.1827L20.6941 16.1405L20.6707 16.0513L20.6378 16.009L20.6566 15.9198L20.6237 15.8776L20.5017 15.8306L20.4594 15.8635L20.3702 15.8541L20.1636 15.7273L20.1777 15.5771L20.1308 15.5208L20.1402 15.4597L20.0885 15.4316L19.9993 15.4269L19.9758 15.3236L19.9054 15.2109L19.8726 15.2015L19.8162 15.1921L19.7599 15.2532L19.6848 15.2344L19.6425 15.2813L19.6519 15.3565L19.5909 15.3752L19.4406 15.3471L19.4313 15.2719L19.3843 15.2156L19.2951 15.2391L19.2341 15.2015L19.1918 15.2626L19.2012 15.3518L19.173 15.3705L19.1543 15.4926L19.2341 15.5442L19.3233 15.5208L19.3514 15.5349L19.3796 15.6522L19.4266 15.6757L19.4313 15.8963L19.389 15.901L19.3233 15.8494L19.2388 15.901L19.0275 15.8917L18.9054 16.009L18.8256 15.9715L18.7975 16.0043L18.713 16.056L18.7646 16.1076L18.7083 16.1593L18.5956 16.2015L18.4876 16.178L18.4407 16.3189L18.4688 16.333L18.4876 16.3611L18.4219 16.4409L18.3609 16.4503L18.3045 16.4832L18.1543 16.4785L18.1637 16.5677L18.0886 16.7414L18.1872 16.8353L18.1496 16.8728L18.1214 16.9198L18.0933 16.9339L17.8491 16.8682L17.8444 16.9714L17.8961 17.0419L17.8679 17.0606L17.8069 17.0512L17.7787 17.07L17.8163 17.1404L17.8022 17.1827L17.9008 17.2672L17.9618 17.2578L18.0228 17.286H18.1543L18.1449 17.3329L18.1778 17.3752L18.1825 17.4174L18.2623 17.455L18.2764 17.6193L18.2623 17.6334L18.22 17.6522L18.2106 17.685L18.2717 17.7085L18.2764 17.7555L18.2012 17.7461L18.1918 17.685L18.1308 17.6475L18.1026 17.6522L18.0604 17.6991L18.0792 17.7414L17.9383 17.8447L17.8632 17.8353L17.8257 17.7648L17.7365 17.7461L17.7271 17.6381L17.6801 17.6146L17.5721 17.6099L17.4642 17.5583L17.4407 17.6052L17.3937 17.6099L17.2999 17.5771V17.5583L17.3092 17.5019L17.2764 17.4597L17.3186 17.408L17.3139 17.3658L17.2013 17.4362L17.1543 17.4409L17.1027 17.3846L16.8773 17.4972L16.7881 17.5019L16.6895 17.5864L16.6755 17.5724L16.652 17.4879L16.6426 17.4127L16.5956 17.3705L16.5487 17.347L16.4172 17.3564Z" fill="#000091"/>
<path d="M11.2055 3.41288L11.2666 3.40819L11.1914 3.26265L11.1586 3.07017L11.0929 2.99036L10.9661 2.91055L10.8299 2.74623L10.7501 2.67581L10.7407 2.6007L10.6938 2.59131L10.6703 2.62417L10.6234 2.6007L10.553 2.63826L10.3135 2.83543L10.1023 2.94811L10.0131 2.97158L9.90978 2.96689L9.60462 3.06548H9.46848L9.28069 3.11242L8.84408 3.37533L8.63751 3.44105L8.59995 3.488L8.57179 3.50678L8.53892 3.62884L8.38869 3.95747L8.48728 4.05137V4.08423L8.58118 4.10301L8.59526 4.11709L8.89572 4.13587L9.11637 4.05606L9.14454 4.07015L9.15863 4.06545L9.24313 4.17812L9.34642 4.16873L9.29008 4.2016L9.26191 4.20629L9.14454 4.07954L9.11637 4.05606L8.94267 4.14526L8.63282 4.18751L8.50137 4.23446L8.40278 4.30019L8.25254 4.43164L8.09292 4.49267L7.88636 4.51145L7.86288 4.56309L7.82533 4.50206L7.59059 4.3753L6.89577 4.27671L6.67512 4.16404L6.44977 4.18282L6.39813 4.24854L6.38874 4.2908L6.35588 4.24854L6.29485 4.23916L6.30424 4.1969L6.31363 4.16404L6.30893 4.10301L6.17278 3.91053L6.09767 3.7509L6.13523 3.65701L6.16339 3.64293L6.20095 3.59128L6.22912 3.5772L6.22443 3.488L6.18217 3.37063L5.97091 3.32838L5.85354 3.35655L5.76904 3.43636L5.60942 3.45514L5.48266 3.37533L5.28079 3.31899L5.22914 3.24857L5.17281 3.27204L5.093 3.21571L5.07891 3.23449L5.07422 3.34246L5.1822 3.4035L5.22445 3.488L5.21976 3.61006L5.13995 3.72274L5.19159 3.80724L5.21976 3.93869L5.21506 4.05606L5.23384 4.11709L5.25262 4.12648L5.29957 4.15465L5.36529 4.23916L5.41224 4.24854L5.40285 4.30958L5.50144 4.5537L5.54369 4.52084L5.57655 4.54901L5.54839 4.57718L5.56247 4.72741L5.58125 4.77435L5.55308 4.80252L5.5343 4.89642L5.55308 5.10298L5.59064 5.03726H5.61881L5.59064 5.18749L5.58125 5.2673L5.60003 5.31894L5.59064 5.36589L5.57655 5.37058L5.50144 5.53959L5.539 5.6241V5.77433L5.60472 5.83067L5.64228 5.91517L5.67514 5.94334L5.74087 6.00907L5.82537 5.97151L5.83007 6.01845L5.84885 6.04662L5.66106 6.10765L5.52022 6.07479L5.55778 6.14521L5.56247 6.19216L5.58125 6.23441L5.57186 6.28136L5.64697 6.43629L5.70801 6.45976L5.74087 6.5161L5.81598 6.52548L5.91457 6.44098L5.985 6.40342L6.00847 6.34239L6.05542 6.32361L6.34649 6.43159H6.37466L6.47325 6.47854L6.5155 6.47384L6.55775 6.4269L6.58592 6.44098L6.63756 6.47854L6.70798 6.47384L6.77371 6.53957L6.7784 6.58652L6.83943 6.58182L6.85821 6.63816L6.93333 6.61468L6.91455 6.58652L6.92863 6.57243L7.00375 6.56774L7.02722 6.53487L7.046 6.56304L7.05539 6.63346L7.15398 6.58182L7.2244 6.55835L7.30891 6.49262L7.35585 6.50201L7.39811 6.48323L7.50608 6.50201L7.56712 6.55835L7.63754 6.47854L7.71265 6.49732L7.7549 6.45037L7.73613 6.40812L7.7596 6.36117L7.82063 6.37056L7.91922 6.46445L7.89105 6.5114L7.91922 6.64285L7.96617 6.67102L8.07415 6.67572V6.85412L8.15865 6.81656L8.19621 6.85881L8.25724 6.8682L8.28071 6.80717L8.32297 6.78839L8.36052 6.72266L8.42156 6.71797L8.43094 6.67102L8.46381 6.68511L8.4732 6.65224H8.48728L8.61873 6.60999L8.67976 6.61938L8.77366 6.68511L8.81122 6.75553L8.81591 6.76961L8.80183 6.80247L8.80652 6.84473V6.99496L8.83939 7.03721L8.86755 7.05129L8.9145 7.07477L8.99431 7.08416L9.0084 7.09824L8.99901 7.14049L9.03187 7.18275L9.07882 7.225L9.23374 7.26725L9.22905 7.225L9.25722 7.20622L9.30416 7.23439L9.42623 7.4034L9.44031 7.41279L9.45439 7.3987L9.51073 7.37992L9.56707 7.34237L9.49665 7.20152L9.52012 7.14049L9.48726 7.11232H9.45909L9.46848 7.05129L9.50604 7.00435L9.67035 6.97618L9.72199 6.92454L9.77833 6.85881L9.78772 6.81656L9.82528 6.76492L9.79711 6.74144L9.77833 6.68041L9.8018 6.64755L9.78772 6.61938L9.82528 6.54426L9.75955 6.5161L9.75486 6.47384L9.64688 6.39403L9.6234 6.32361L9.57646 6.30953L9.59054 6.26728L9.57646 6.16399L9.65157 6.12643L9.68913 6.06071L9.70321 6.04662L9.76425 6.0701L9.84875 6.01845L9.95203 6.00907L9.98959 5.95742L10.0835 5.96681L10.107 5.87292L10.1492 5.88231L10.168 5.92926L10.2619 5.94803L10.3041 5.92926L10.337 5.95742L10.3933 5.93864L10.4544 5.94803L10.5248 5.89639L10.5013 5.80719L10.5154 5.77433L10.6797 5.65696L10.6938 5.61001L10.6703 5.53959L10.6938 5.50673L10.7548 5.49734L10.7501 5.441L10.7783 5.40814L10.7032 5.39875L10.7267 5.32364L10.6938 5.28138L10.6844 5.20627L10.6985 5.19218L10.7407 5.20157L10.783 5.15463H10.9473L11.0224 5.01378L11.0647 4.81191L11.1069 4.76496L11.1022 4.72271L11.1304 4.67107L11.2008 4.66638L11.2196 4.70863H11.2525L11.2759 4.66168L11.2572 4.61473L11.229 4.60534V4.48328L11.2102 4.41286L11.1586 4.34244L11.1727 4.32836L11.1398 4.30019L11.1633 4.22038L11.2431 4.14057L11.2666 4.07954L11.2337 4.03728L11.1914 4.08423L11.1445 4.06076L11.2008 3.98095L11.1633 3.95278L11.1586 3.84949L11.1257 3.82133L11.1633 3.76029L11.1398 3.69926L11.2055 3.5772L11.1867 3.56312L11.1351 3.60067L11.1163 3.56781L11.1398 3.53495L11.1539 3.47392L11.1961 3.45983L11.2055 3.41288ZM11.0975 3.86827L11.1116 3.85419L11.1304 3.86827V3.88236L11.1163 3.89644L11.0975 3.86827Z" fill="#000091"/>
<path d="M10.7841 5.1548L10.7419 5.20175L10.6996 5.19236L10.6855 5.20644L10.6949 5.28156L10.7278 5.32381L10.7043 5.39892L10.7794 5.40831L10.7513 5.44118L10.756 5.49751L10.7747 5.53038L10.8217 5.55385L10.8264 5.5961L10.8593 5.63836L10.8358 5.6853L10.8827 5.71347V5.75572L10.9015 5.76981L10.8874 5.78859L10.8921 5.83084L10.8827 5.90595L10.8921 5.96699L10.9391 5.97637L10.9531 6.00454L10.8874 6.09844L10.8733 6.11722L10.925 6.15477L10.9297 6.21581L10.9766 6.25806L11.0142 6.34256L11.1081 6.34726L11.0987 6.44115L11.1738 6.44585L11.2114 6.50218L11.2067 6.61016L11.2442 6.72284L11.2912 6.73692L11.324 6.77448L11.371 6.80265L11.4179 6.79795L11.4414 6.751L11.479 6.82142L11.4696 6.88246L11.5306 6.90593L11.5353 6.95288L11.5541 6.99513L11.5306 7.05616L11.5494 7.09841L11.5071 7.15006L11.5259 7.19231L11.5728 7.2017L11.648 7.197L11.7653 7.15475L11.7794 7.16883L11.8545 7.17353L11.8498 7.13128L11.8827 7.12658L11.9343 7.06555L11.9954 7.10311L12.0048 7.16414L12.047 7.14067H12.0893L12.1315 7.08902L12.1972 7.14536L12.2677 7.12189L12.3099 7.26742L12.4367 7.32845L12.4602 7.41765L12.4648 7.4646L12.4555 7.52563L12.3991 7.54441L12.3428 7.61014L12.3616 7.61953L12.4508 7.61483L12.5212 7.59136L12.7653 7.62892L12.9202 7.52563L12.9484 7.53502L12.9531 7.58197L12.986 7.61014L13.0705 7.5538L13.1878 7.53033L13.1831 7.48338L13.1972 7.4693L13.2536 7.41765L13.2958 7.41296L13.3334 7.32376L13.3756 7.30498L13.3709 7.25803L13.3381 7.22987L13.3334 7.15944L13.3803 7.03269L13.4695 7.04208L13.5118 7.00452L13.5869 6.98574L13.6479 7.00921L13.723 7.00452L13.7653 6.98574L13.8686 6.99044L13.9155 6.98574L13.939 6.92471L14 6.94818L14.0094 6.88715L13.9765 6.85898L13.9859 6.79795L13.9484 6.72753L14.0329 6.67589L13.9953 6.58669L14.0704 6.58199L14.1127 6.56322L14.0892 6.47402L14.1596 6.42237V6.3942L14.2441 6.35665L14.1503 6.29092L14.0611 6.31439L14.0704 6.26745L14.0376 6.23928L14.0939 6.17825L14.0798 6.05619L13.9719 5.99515L13.9953 5.94821L14.0376 5.91065L14.0188 5.8684L14.108 5.84492L14.1127 5.75572L14.0564 5.79328L14.0517 5.74633L13.9437 5.69469L13.9155 5.58202L13.8451 5.61488L13.8075 5.51629L13.7512 5.53507L13.7136 5.45057L13.6291 5.35198L13.5681 5.34259L13.6057 5.26747L13.5493 5.16419L13.5634 5.12194L13.4085 5.07499L13.385 5.1501L13.3099 5.14541L13.2676 5.19236L13.2348 5.1501L13.1784 5.18766L13.1315 5.15949L13.0611 5.19705L12.9625 5.13133L12.9202 5.1501L12.9249 5.19705L12.8545 5.21583L12.8216 5.17358L12.7794 5.20644L12.7747 5.19705L12.7418 5.1501L12.6808 5.11255L12.5963 5.17827L12.5447 5.12663L12.54 5.0656L12.5118 5.07029L12.5024 5.11255L12.4555 5.10316H12.4414L12.4508 5.0609L12.371 5.02335H12.3428L12.3381 4.99518L12.2348 4.9764L12.2066 4.99048L12.1362 4.89189L12.0799 4.96231L11.9813 4.98579L12.0048 4.93884L11.986 4.92006L11.8874 4.93415L11.8686 4.90598L11.7747 4.86842L11.7419 4.82617L11.6104 4.91537L11.5682 4.90128L11.4226 4.94354L11.4085 4.91537L11.3475 4.92006L11.2677 4.8825L11.1973 4.90598L11.1315 4.83556L11.1644 4.77453L11.1081 4.76514L11.0658 4.81208L11.0236 5.01396L10.9485 5.1548H10.7841Z" fill="#000091"/>
<path d="M10.7556 5.49756L10.6946 5.50695L10.6711 5.53981L10.6946 5.61023L10.6805 5.65718L10.5162 5.77455L10.5021 5.80741L10.5255 5.89661L10.4551 5.94825L10.3941 5.93886L10.3378 5.95764L10.3049 5.92947L10.2626 5.94825L10.1687 5.92947L10.15 5.88253L10.1077 5.87314L10.0842 5.96703L9.99034 5.95764L9.95279 6.00928L9.8495 6.01867L9.765 6.07031L9.70397 6.04684L9.68988 6.06093L9.65233 6.12665L9.57721 6.16421L9.59129 6.26749L9.57721 6.30975L9.62416 6.32383L9.64763 6.39425L9.75561 6.47406L9.7603 6.51631L9.82603 6.54448L9.78847 6.6196L9.80256 6.64777L9.77908 6.68063L9.79786 6.74166L9.82603 6.76513L9.78847 6.81677L9.77908 6.85903L9.72275 6.92475L9.6711 6.9764L9.50679 7.00456L9.46923 7.05151L9.45984 7.11254H9.48801L9.52087 7.14071L9.4974 7.20174L9.56782 7.34258L9.51148 7.38014L9.53026 7.40831L9.5819 7.45995L9.65702 7.46934L9.70397 7.51159L9.69458 7.53976L9.60538 7.54915L9.5819 7.62427L9.56782 7.64305L9.5819 7.65713L9.57251 7.6853L9.51148 7.70877L9.50209 7.75102L9.50679 7.79797L9.56782 7.82145L9.53496 7.92942L9.57251 8.02801L9.53026 8.06557L9.51148 8.15477L9.45984 8.11721L9.43637 8.14538V8.29561L9.30961 8.42706L9.30022 8.47401L9.18755 8.51626L9.12182 8.61016L9.12652 8.67119L9.15469 8.6665L9.1406 8.69936L9.11243 8.71344L8.89648 8.77917L8.85892 8.84489L8.81197 8.83081L8.77911 8.79325L8.74624 8.77917L8.73685 8.81203L8.72277 8.82612L8.73685 8.85428L8.77911 8.93879L8.73216 8.95757L8.53029 8.84489L8.48803 8.86367L8.49273 8.92001L8.45048 8.95757L8.427 9.03268L8.45987 9.07494L8.45048 9.12188L8.427 9.18291L8.38475 9.24395L8.38006 9.31906L8.35658 9.38479L8.36128 9.44112L8.31902 9.49277L8.29555 9.53971L8.2533 9.57258L8.20166 9.66647L8.14062 9.98571L8.18288 10.0843L8.23921 10.0796L8.30494 10.15L8.34719 10.1312L8.38475 10.1876L8.35658 10.2204H8.3425L8.34719 10.2486L8.39414 10.2768L8.46456 10.2392L8.49742 10.2533V10.2956L8.55845 10.2909L8.56315 10.3331L8.54907 10.5021L8.56784 10.5726L8.58662 10.6007L8.67582 10.5632L8.7838 10.6148L8.89648 10.5444L8.93873 10.5397L9.06079 10.5585L9.07018 10.5115L9.04201 10.4834L9.03262 10.427L9.10774 10.4317L9.1453 10.474L9.2345 10.5115L9.25797 10.6007L9.25327 10.704L9.33778 10.8026L9.4035 10.8402L9.44576 10.9857L9.53026 11.1124L9.59599 11.15L9.63355 11.2345L9.60538 11.2815L9.61477 11.3566L9.57251 11.4082L9.59599 11.4786L9.69458 11.5584L9.78378 11.5819L9.78847 11.657H9.91054L9.99034 11.7275L10.0044 11.873L10.0702 11.9434L10.1171 11.9387L10.0514 12.0467L10.1077 12.042L10.1453 12.0983L10.2016 12.0796L10.2814 12.0889L10.319 12.0232L10.3612 12.0185L10.4598 12.1171L10.4786 12.1594L10.6194 12.042L10.6711 11.9622L10.7039 11.9904L10.718 12.0326L10.8354 11.9763L10.8401 12.0373L10.873 12.0608H10.887L10.9575 11.9951L11.0091 12.0514L11.0373 12.0608L11.0889 11.9669L11.0842 11.9246L11.1124 11.9059L11.1593 11.9012L11.2344 11.9669L11.3518 11.9434L11.3894 11.9528L11.4927 11.9434L11.6898 12.0138L11.8213 11.9904L12.0185 11.9997L12.0419 11.9105L12.0654 11.8636L12.0936 11.8589L12.1077 11.812L12.1452 11.765L12.3236 11.7321L12.394 11.7134L12.4128 11.7415L12.4551 11.7228L12.4879 11.7321L12.6006 11.6617L12.5912 11.5725L12.5443 11.535L12.5771 11.4411L12.5302 11.3988L12.5865 11.366L12.6335 11.3894L12.6476 11.3613L12.6288 11.3143L12.7133 11.2768L12.7555 11.2439L12.7696 11.2298L12.779 11.1829L12.826 11.1782L12.8729 11.2345L12.9433 11.197L13.0231 11.2204L13.0325 11.1735L13.1546 11.0561L13.2156 11.0514L13.2438 11.0186L13.3471 11.042L13.4128 10.9012L13.4034 10.8261L13.3799 10.7556L13.4316 10.643L13.4081 10.5726L13.4269 10.4505L13.4081 10.4082L13.3283 10.3425L13.3471 10.2064L13.2626 9.94346L13.2532 9.84018L13.0748 9.67586L13.0701 9.63361L13.1687 9.39887L13.0701 9.18291L13.0372 9.14066V9.11249L13.1499 9.07024L13.2109 9.07963L13.2532 9.06085L13.1875 8.98104L13.1828 8.90593L13.2062 8.85898L13.1593 8.81673L13.1499 8.76039L13.1029 8.71814L13.0842 8.67588L13.0419 8.68058L13.0466 8.5726L13.0748 8.55852H13.1921L13.2766 8.50687L13.3377 8.4881L13.3283 8.42706L13.3095 8.38481L13.3377 8.33786L13.3048 8.29561L13.3095 8.2205L13.4785 8.08435L13.5161 8.00923L13.4926 7.93412L13.4738 7.90595L13.502 7.87309L13.3893 7.76511L13.3471 7.66652L13.3189 7.65244L13.3283 7.60549L13.1875 7.53037L13.0701 7.55385L12.9856 7.61018L12.9527 7.58201L12.948 7.53507L12.9199 7.52568L12.7649 7.62896L12.5208 7.5914L12.4504 7.61488L12.3612 7.61957L12.3424 7.61018L12.3987 7.54446L12.4551 7.52568L12.4645 7.46465L12.4598 7.4177L12.4363 7.3285L12.3095 7.26747L12.2673 7.12193L12.1969 7.14541L12.1311 7.08907L12.0889 7.14071H12.0466L12.0044 7.16418L11.995 7.10315L11.934 7.0656L11.8823 7.12663L11.8495 7.13132L11.8541 7.17357L11.779 7.16888L11.765 7.1548L11.6476 7.19705L11.5725 7.20174L11.5255 7.19235L11.5067 7.1501L11.549 7.09846L11.5302 7.05621L11.5537 6.99517L11.5349 6.95292L11.5302 6.90597L11.4692 6.8825L11.4786 6.82147L11.441 6.75105L11.4175 6.798L11.3706 6.80269L11.3236 6.77452L11.2908 6.73696L11.2438 6.72288L11.2063 6.61021L11.211 6.50223L11.1734 6.44589L11.0983 6.4412L11.1077 6.3473L11.0138 6.34261L10.9762 6.2581L10.9293 6.21585L10.9246 6.15482L10.873 6.11726L10.887 6.09848L10.9528 6.00459L10.9387 5.97642L10.8917 5.96703L10.8823 5.906L10.8917 5.83088L10.887 5.78863L10.9011 5.76985L10.8823 5.75577V5.71352L10.8354 5.68535L10.8589 5.6384L10.826 5.59615L10.8213 5.5539L10.7744 5.53042L10.7556 5.49756Z" fill="#000091"/>
<path d="M7.82129 6.37072L7.76026 6.36133L7.73679 6.40828L7.75557 6.45053L7.71331 6.49748L7.6382 6.4787L7.56778 6.55851L7.50675 6.50217L7.39877 6.48339L7.35651 6.50217L7.30957 6.49278L7.22506 6.55851L7.15464 6.58198L7.05605 6.63362L7.04666 6.5632L7.02788 6.53503L7.00441 6.5679L6.9293 6.57259L6.91521 6.58667L6.93399 6.61484L6.85887 6.63832L6.8401 6.58198L6.77906 6.58667L6.77437 6.53973L6.70864 6.474L6.63822 6.4787L6.58658 6.44114L6.55841 6.42705L6.51616 6.474L6.47391 6.4787L6.37532 6.43175H6.34715L6.33776 6.4787L6.34715 6.5679L6.32368 6.64301L6.36123 6.76038L6.35184 6.78855L6.36123 6.89183L6.29551 6.99042L6.27203 7.05145L6.28142 7.1829L6.3002 7.22985L6.29551 7.30497L6.31429 7.34722L6.32837 7.51153L6.36123 7.56787L6.35654 7.65707L6.36593 7.74627L6.29551 7.78383L6.20161 7.77444L6.17814 7.8073L6.13589 7.82608L6.08894 7.98101L6.04669 8.01387L6.05138 8.0749L6.00913 8.10776L5.99974 8.1688L5.96218 8.21574L5.95279 8.29086L5.75561 8.23452L5.69928 8.15002L5.56313 8.13124L5.54905 8.13593L5.56783 8.17819L5.55844 8.20635L5.36595 8.258L5.29553 8.29086L5.2345 8.41762L5.15939 8.40823L5.11713 8.44578L4.86831 8.40823L4.6993 8.48334V8.46926L4.68052 8.44109L4.6101 8.49273L4.55377 8.49743L4.5256 8.53029H4.48335L4.45518 8.58193L4.47396 8.62418L4.4364 8.67113L4.4317 8.82136L4.40353 8.84014L4.37537 8.82606L4.3472 8.84484L4.30495 8.91995L4.27678 8.91056L4.27208 8.86361L4.17349 8.90587L4.15472 8.89178V8.86361L4.09368 8.85423L4.02796 8.97629H3.89651L3.85895 8.93404L3.82139 8.9669L3.78853 8.99976L3.79792 9.07488L3.74158 9.09366L3.62891 9.16408L3.68055 9.24858L3.68994 9.33778L3.73688 9.36126L3.7228 9.39412L3.64769 9.37064L3.6336 9.37534V9.38942L3.80731 9.47862L3.84956 9.44107L3.89181 9.43637L4.05143 9.55843L4.21105 9.48332L4.26739 9.43168L4.38476 9.4082L4.44109 9.40351L4.56316 9.4082L4.67113 9.44107L4.81667 9.56313L4.79789 9.57721L4.68991 9.4974L4.50682 9.45515L4.44579 9.47862L4.28617 9.50679L4.24861 9.56782L4.27208 9.65702L4.24861 9.75092L4.22514 9.78378L4.1641 9.78847L4.12185 9.82134L4.41762 9.9434L4.4364 9.95748L4.51621 10.0514L4.55377 10.1406L4.46926 10.1781L4.40823 10.319L4.39415 10.3331L4.31434 10.4176L4.28617 10.4645L4.22983 10.4833L4.24391 10.6335L4.258 10.6758L4.45987 10.8776L4.53029 10.995L4.57724 11.0185L4.68052 11.2016L4.77442 11.5208L4.84953 11.5443L5.09366 11.7462L5.27675 11.8025L5.36595 11.948L5.56313 11.9715L5.64764 12.0842L5.66172 12.0983V12.0701L5.6758 12.0654L5.78848 12.1593L5.84012 12.0513L6.04669 12.0607L6.08894 11.9997L6.15936 11.9762L6.22039 11.9856L6.29081 11.948L6.29551 11.995L6.25795 12.056L6.29081 12.0842L6.40818 12.0607L6.43635 12.0701L6.46452 12.0232L6.53963 12.0326V12.0607L6.62414 12.1264L6.66639 12.1218L6.70864 12.0889L6.72273 12.0748L6.81193 12.0936L6.89643 11.9997L6.96685 11.9903L7.0091 11.9293L6.89643 11.8635L6.85887 11.9105L6.8401 11.9011L6.83071 11.8119L6.88704 11.7462L6.84479 11.6006L6.85418 11.5678L6.90113 11.5631L6.91052 11.5208L6.88704 11.4457L6.89174 11.3283L6.87296 11.2814L6.83071 11.2861L6.84948 11.211L6.80254 11.1546L6.82601 11.1077L6.77437 11.0232L6.76967 10.995L6.75559 10.9809L6.72273 10.9387L6.73212 10.8917L6.75559 10.8307V10.8166L6.64292 10.7509L6.55841 10.6241L6.58189 10.549L6.49738 10.4363L6.4833 10.4692L6.4786 10.4082L6.44574 10.3988L6.45982 10.38L6.50677 10.3894L6.65231 10.3331L6.77437 10.38L6.78845 10.3659L6.85887 10.3425L6.95277 10.3659L7.06544 10.2814L7.07014 10.1875L7.17342 10.15L7.20159 10.1641L7.1922 10.2063L7.30957 10.1969L7.35182 10.15L7.4551 10.1547L7.60064 10.1265L7.67576 10.1312L7.7227 10.1124L7.78373 10.1359L7.74618 10.2157L7.80721 10.2392L7.84946 10.2204L7.85885 10.1734L7.88702 10.1453L7.98091 10.1641L7.97152 10.0749L8.03725 9.98096L8.0795 9.96218L8.14053 9.98565L8.20156 9.66641L8.25321 9.57252L8.29546 9.53965L8.31893 9.49271L8.36119 9.44107L8.35649 9.38473L8.37996 9.319L8.38466 9.24389L8.42691 9.18286L8.45039 9.12182L8.45977 9.07488L8.42691 9.03262L8.45039 8.95751L8.49264 8.91995L8.48794 8.86361L8.5302 8.84484L8.73207 8.95751L8.77902 8.93873L8.73676 8.85423L8.72268 8.82606L8.73676 8.81197L8.74615 8.77911L8.77902 8.79319L8.81188 8.83075L8.85883 8.84484L8.89638 8.77911L9.11234 8.71338L9.14051 8.6993L9.15459 8.66644L9.12642 8.67113L9.12173 8.6101L9.18746 8.51621L9.30013 8.47395L9.30952 8.42701L9.43628 8.29555V8.14532L9.45975 8.11715L9.51139 8.15471L9.53017 8.06551L9.57242 8.02795L9.53487 7.92937L9.56773 7.82139L9.5067 7.79791L9.502 7.75097L9.51139 7.70871L9.57242 7.68524L9.58181 7.65707L9.56773 7.64299L9.58181 7.62421L9.60529 7.54909L9.69449 7.5397L9.70388 7.51153L9.65693 7.46928L9.58181 7.45989L9.53017 7.40825L9.51139 7.38008L9.45506 7.39886L9.44097 7.41295L9.42689 7.40356L9.30482 7.23455L9.25788 7.20638L9.22971 7.22516L9.2344 7.26741L9.07948 7.22516L9.03253 7.1829L8.99967 7.14065L9.00906 7.0984L8.99497 7.08432L8.91516 7.07493L8.86822 7.05145L8.84005 7.03737L8.80718 6.99512V6.84488L8.80249 6.80263L8.81657 6.76977L8.81188 6.75569L8.77432 6.68526L8.68043 6.61954L8.61939 6.61015L8.48794 6.6524H8.47386L8.46447 6.68526L8.43161 6.67118L8.42222 6.71813L8.36119 6.72282L8.32363 6.78855L8.28137 6.80733L8.2579 6.86836L8.19687 6.85897L8.15931 6.81672L8.07481 6.85427V6.67587L7.96683 6.67118L7.91988 6.64301L7.89171 6.51156L7.91988 6.46461L7.82129 6.37072Z" fill="#000091"/>
<path d="M2.58679 5.31909L2.42717 5.3942L2.32858 5.29561L2.25347 5.305L2.20182 5.36604L2.15488 5.37073L2.15018 5.44585L2.20182 5.54913L2.1314 5.58199L2.12671 5.67589L2.07976 5.69467L2.03281 5.6665L1.99526 5.71814L2.00465 5.67119L1.98587 5.62894L1.74174 5.55852L1.6854 5.61016L1.62437 5.751L1.55395 5.6665L1.49762 5.65711L1.46945 5.52566L1.45067 5.49749L1.38025 5.52096L1.30983 5.5726L1.14082 5.55382L1.02814 5.64302L0.943639 5.64772L0.896692 5.63833L0.877913 5.59608L0.816882 5.5726L0.629093 5.64772H0.478862L0.436609 5.69467L0.323936 5.751L0.220652 5.77448L0.107979 5.8449L0.0704208 5.92471L0.0657262 6.02799L0.018779 6.14066L0.0281684 6.24395L0 6.2909L0.0657262 6.35662L0.183094 6.33315L0.291073 6.36601L0.492946 6.30498L0.657261 6.27212V6.2862L0.619703 6.36601L0.610314 6.41296L0.657261 6.43643L0.802797 6.40826L0.812187 6.48338L0.887302 6.5491L0.877913 6.56788L0.784019 6.54441L0.671345 6.57258L0.469472 6.53033L0.422525 6.50216L0.403746 6.43174L0.370883 6.41765L0.333325 6.49746L0.291073 6.54441L0.361494 6.62891L0.375578 6.77915L0.497641 6.67586L0.718292 6.76037L0.76524 6.8167L0.802797 6.87304L0.784019 6.9951L0.727682 7.04205L0.591535 7.01388L0.131452 7.05613L0.0610315 7.10778L0.267599 7.22045L0.361494 7.25801L0.502335 7.36129L0.577451 7.49274L0.600924 7.59133L0.610314 7.68053L0.58684 7.76034V7.78851L0.741766 7.83546L0.84505 7.82607L0.910776 7.77443L0.906081 7.69931L0.920165 7.68523H1.05631L1.19246 7.71809L1.22532 7.7134L1.26288 7.65236L1.29105 7.63359L1.35677 7.70401L1.41311 7.8026L1.47884 7.8871L1.58682 7.91996L1.67602 7.91057L1.76991 7.9763L1.953 8.01855L2.00934 7.97161L2.01404 7.86363L2.03751 7.81668L2.01404 7.88241L2.02812 8.01386L2.10324 8.16878L2.15018 8.19695L2.2253 8.20634L2.33797 8.13592L2.32858 8.21104L2.40839 8.24859L2.50698 8.35657L2.64782 8.58192L2.84031 8.56314L2.95298 8.62887L2.97176 8.52558L3.05157 8.56314L3.15016 8.52089L3.28161 8.49272L3.40837 8.57253L3.31917 8.69929H3.15485L3.08913 8.67581L3.06096 8.69459L3.14546 8.80727L3.21119 8.84482L3.40367 8.82604L3.51635 8.74154L3.58677 8.71807L3.61024 8.79318L3.72761 8.79788L3.79333 8.84952L3.74169 8.94341V8.97628L3.78864 8.99975L3.8215 8.96689L3.85906 8.93402L3.89662 8.97628H4.02807L4.0938 8.85421L4.15483 8.8636V8.89177L4.17361 8.90585L4.2722 8.8636L4.27689 8.91055L4.30506 8.91994L4.34731 8.84482L4.37548 8.82604L4.40365 8.84013L4.43182 8.82135L4.43651 8.67112L4.47407 8.62417L4.45529 8.58192L4.48346 8.53028H4.52571L4.55388 8.49741L4.61022 8.49272L4.68064 8.44108L4.69942 8.46925V8.48333L4.86843 8.40821L5.11725 8.44577L5.1595 8.40821L5.23461 8.4176L5.29565 8.29085L5.36607 8.25798L5.55855 8.20634L5.56794 8.17817L5.54916 8.13592L5.56324 8.13123L5.69939 8.15L5.75573 8.23451L5.95291 8.29085L5.9623 8.21573L5.99985 8.16878L6.00924 8.10775L6.0515 8.07489L6.0468 8.01386L6.08905 7.98099L6.136 7.82607L6.17825 7.80729L6.20173 7.77443L6.29562 7.78382L6.36604 7.74626L6.35665 7.65706L6.36135 7.56786L6.32848 7.51152L6.3144 7.34721L6.29562 7.30496L6.30032 7.22984L6.28154 7.18289L6.27215 7.05144L6.29562 6.99041L6.36135 6.89182L6.35196 6.78854L6.36135 6.76037L6.32379 6.643L6.34726 6.56788L6.33787 6.47868L6.34726 6.43174L6.05619 6.32376L6.00924 6.34254L5.98577 6.40357L5.91535 6.44113L5.81676 6.52563L5.74164 6.51624L5.70878 6.45991L5.64775 6.43643L5.57263 6.28151L5.58202 6.23456L5.56324 6.19231L5.55855 6.14536L5.52099 6.07494L5.28626 6.1125L5.08908 6.08433L5.04213 6.06085L5.02335 6.00452L5.03274 5.95757L5.07499 5.90593L5.05621 5.84959L4.96701 5.87307L4.92007 5.86368L4.87782 5.88245H4.86373L4.83556 5.90123L4.75106 5.98104L4.77453 6.09841L4.82148 6.12658L4.84026 6.14066L4.81209 6.15475L4.84026 6.25803H4.86843L4.81209 6.31906L4.79801 6.2909L4.82148 6.24395L4.76984 6.19231L4.78392 6.14536L4.75106 6.11719L4.72758 6.02799L4.68064 5.99043L4.55857 5.99982L4.54449 6.0186L4.58205 6.07494L4.5351 6.06085L4.49285 6.1125L4.43651 6.10311L4.36609 5.99043L4.2722 5.98104L4.28159 5.90593L4.24872 5.86368L4.10788 5.93879L3.9999 5.9341L3.96234 5.99513L3.84967 6.05146L3.70883 6.18292L3.63841 6.19231L3.59616 6.25334L3.53982 6.1125L3.39428 5.99043L3.3802 5.8402L3.21588 5.6618L3.22058 5.5726L3.09382 5.50688L3.07974 5.47871L3.10321 5.45054V5.41768L3.00932 5.3989L2.98584 5.29561L2.97176 5.28153L2.86847 5.305L2.79805 5.35665L2.77458 5.28623L2.7558 5.25806L2.69008 5.3097L2.58679 5.31909Z" fill="#000091"/>
<path d="M6.44503 10.3988L6.4779 10.4082L6.48259 10.4692L6.49667 10.4363L6.58118 10.549L6.55771 10.6241L6.64221 10.7509L6.75488 10.8166V10.8307L6.73141 10.8917L6.72202 10.9387L6.75488 10.9809L6.76897 10.995L6.77366 11.0232L6.8253 11.1077L6.80183 11.1546L6.84878 11.211L6.83 11.2861L6.87225 11.2814L6.89103 11.3283L6.88634 11.4457L6.90981 11.5208L6.90042 11.5631L6.85347 11.5678L6.84408 11.6006L6.88634 11.7462L6.83 11.8119L6.83939 11.9011L6.85817 11.9105L6.89572 11.8635L7.0084 11.9292L6.96615 11.9903L6.89572 11.9997L6.81122 12.0936L6.72202 12.0748L6.70794 12.0889L6.66568 12.1217L6.62343 12.1264L6.53893 12.0607V12.0325L6.46381 12.0231L6.43564 12.0701L6.40747 12.0607L6.29011 12.0842L6.25724 12.056L6.2948 11.995L6.29011 11.948L6.21969 11.9856L6.15865 11.9762L6.08823 11.9997L6.04598 12.0607L5.97556 12.0983L5.9427 12.2062L5.83472 12.3189L5.78308 12.4316L5.80185 12.4738L5.90044 12.5396L6.0272 12.779L5.96617 13.1311L5.86289 13.2766L5.90514 13.4034L6.00842 13.5442L5.78308 13.3987L5.69857 13.455V13.6193L6.03659 13.8541L6.15396 13.9949L6.36522 14.1827L6.50137 14.3799L6.57179 14.6287L6.63282 15.117L6.67977 15.3235L6.63282 15.2954L6.58118 15.2249L6.46381 14.7414L6.384 14.5536L5.98964 14.1452L5.97556 14.009L5.90044 14.0325L5.82533 14.1592L5.78777 14.2531L5.50139 16.3235L5.52017 16.3376L5.5812 16.1827L5.69857 16.0371L5.86289 16.1874L5.91922 16.3L5.82063 16.3564L5.74552 16.347L5.67979 16.3094L5.62346 16.3329L5.4967 16.5817L5.48731 16.7883L5.29482 17.793L5.28074 17.8117L5.00845 18.8821L4.6986 19.4032L4.57184 19.5018L4.52959 19.4924L4.41222 19.5206L4.3418 19.5863L4.42161 19.6521L4.44508 19.7413L4.56245 19.699L4.63756 19.7225L4.64695 19.8117L4.66573 19.8399V19.8539L4.72676 19.8633L4.74085 19.8492L4.76432 19.7694L4.86761 19.76L4.94742 19.8258L5.03662 19.8352L5.06948 19.8633L5.09295 19.9337L5.08826 20.037L5.01314 20.1967L4.91455 20.3093L4.97089 20.4079L5.11173 20.4549L5.1352 20.4079L5.15398 20.2858L5.19624 20.253L5.25257 20.2483L5.21971 20.3563L5.28544 20.422L5.38872 20.4126L5.48731 20.4783L5.52017 20.5206L5.57651 20.5159L5.64223 20.5675L5.75021 20.591L5.87697 20.6802L5.95209 20.6755L6.10232 20.7084L6.23377 20.6802L6.27133 20.7365L6.2948 20.807L6.26663 20.8257L6.28541 20.868L6.31358 20.8962L6.39339 20.9337L6.49198 21.0276L6.51545 21.1027L6.5624 21.1262L6.59526 21.1685L6.6516 21.1356L6.68916 21.0699L6.80183 21.1356L6.90511 21.1403L7.06004 21.0229L7.06943 20.976L7.04596 20.8586L7.12577 20.7882V20.6239L7.17271 20.6051L7.1821 20.5488L7.25722 20.5534L7.29478 20.5206L7.31355 20.3563L7.39806 20.3187L7.46379 20.206L7.49195 20.2201L7.55299 20.1967L7.5389 20.0934L7.58585 20.0887L7.65158 19.9948L7.64688 19.9525L7.61402 19.9103L7.60932 19.8774L7.65158 19.8305L7.70791 19.8117L7.73608 19.7788L7.69852 19.7084L7.70322 19.5863L7.69852 19.5441L7.63749 19.5488L7.61402 19.5957H7.59993L7.58115 19.5394L7.59054 19.4924L7.66096 19.4549L7.6281 19.3985L7.61871 19.2953L7.5389 19.2436L7.52951 19.1544L7.40745 19.1497L7.37459 19.1263L7.25722 19.1497L7.23844 19.1075L7.25252 19.0746L7.20558 19.0511L7.1868 19.0089L7.21497 19.0042L7.2713 18.9525L7.26661 18.9244L7.25252 18.8962L7.276 18.8633L7.25722 18.8211L7.35581 18.7507V18.7366L7.32294 18.7272L7.33703 18.6943L7.30886 18.577L7.36989 18.5723L7.37928 18.5112L7.3605 18.4549L7.38398 18.422V18.3892L7.30417 18.3516L7.31825 18.3235L7.3605 18.3047L7.41684 18.253L7.52012 18.2436L7.56707 18.2718L7.56238 18.239L7.60932 18.2343L7.68913 18.1404L7.75486 18.2202L7.7173 18.2859L7.79711 18.3516L7.84406 18.3657L7.88162 18.3141L7.85814 18.2108L7.88162 18.1498L7.99898 18.1263L8.01776 18.1685H8.03654L8.10227 18.084L8.1586 18.0652L8.21025 18.1075L8.31353 18.1404L8.3417 18.1075L8.45907 18.0981L8.54827 18.0606L8.61399 17.9948L8.72197 17.9995L8.76422 17.9948L8.84873 17.9432L8.88159 17.9854L8.98018 18.0652L9.06469 18.0089L9.12572 17.9901H9.1398L9.12102 17.976V17.962L9.15858 17.8822L9.229 17.8446L9.23839 17.7883L9.36515 17.8352L9.40271 17.8023L9.39801 17.7272L9.35106 17.7178V17.685L9.43557 17.6615L9.47313 17.5864L9.49191 17.4784L9.52477 17.4596L9.47313 17.3892L9.42618 17.3939L9.37923 17.3563L9.43087 17.2765L9.42618 17.2155L9.43557 17.1826H9.48252L9.51538 17.239L9.61866 17.2296L9.70786 17.2343L9.73603 17.2014L9.71725 17.1592L9.72664 17.0841L9.675 17.0277L9.67031 16.9526L9.65153 16.9244L9.66092 16.8634L9.60927 16.7648H9.63744L9.66561 16.7789L9.77828 16.6897L9.81115 16.7038L9.82054 16.6427L9.91443 16.5442L9.90504 16.455L10.0365 16.4127L10.1304 16.3329L10.1773 16.3376L10.229 16.2296L10.1961 16.1921L10.1914 16.1451L10.3088 16.1029L10.3135 16.0277L10.3886 16.0043L10.4121 15.9432L10.459 15.9385L10.4543 15.9104L10.4027 15.854L10.459 15.8212L10.4215 15.7226L10.4121 15.6146L10.4825 15.563L10.5107 15.577L10.6233 15.5066L10.6609 15.5489L10.7172 15.5254L10.8252 15.5489L10.905 15.6287L10.9567 15.6991L11.0224 15.7508V15.7836L11.0693 15.8212L11.0881 15.8071L11.1491 15.8165L11.1726 15.7836L11.2759 15.7461L11.3135 15.6991L11.3604 15.7085L11.3792 15.7508L11.4637 15.6991L11.5529 15.6897L11.5998 15.6991L11.7313 15.6756L11.7266 15.6287L11.6937 15.5864L11.6562 15.5019L11.736 15.4174L11.797 15.4268L11.8205 15.3376L11.8158 15.2907L11.844 15.286L11.8674 15.239L11.9003 15.2249L11.8487 15.1686L11.8299 15.1123L11.8393 15.0794L11.9238 14.9949L11.9754 14.901L12.0177 14.8963L12.0552 14.8212L12.1303 14.7977L12.1585 14.6475L12.1397 14.5865H12.182L12.3557 14.6897L12.4449 14.6522L12.4402 14.6193L12.3745 14.5677L12.4214 14.2484L12.3885 14.2062L12.3369 14.1217L12.3698 14.0137L12.4308 14.009L12.4402 13.9621L12.4214 13.9339L12.4496 13.8869L12.4402 13.8306L12.3745 13.732L12.3087 13.6898L12.2947 13.6945L12.2712 13.6193L12.2055 13.5208L12.2195 13.5067L12.2759 13.502L12.304 13.4691L12.2993 13.4222H12.3134L12.3885 13.4316L12.4167 13.3846L12.4824 13.3189L12.4918 13.2579L12.5341 13.1921L12.5904 13.1593L12.5669 13.0982L12.5904 13.009L12.5247 12.9527L12.5012 12.8682L12.4965 12.7931L12.52 12.718L12.5106 12.6428L12.4496 12.6053L12.4214 12.4691L12.3885 12.4316L12.3651 12.3565L12.3181 12.333L12.2571 12.3377L12.2524 12.2907L12.2055 12.2391L12.1632 12.272L12.0834 12.2344L12.0646 12.1734L12.1022 12.1264L12.0271 12.0889L12.0177 11.9997L11.8205 11.9903L11.689 12.0138L11.4919 11.9433L11.3886 11.9527L11.351 11.9433L11.2336 11.9668L11.1585 11.9011L11.1116 11.9058L11.0834 11.9246L11.0881 11.9668L11.0365 12.0607L11.0083 12.0513L10.9567 11.995L10.8862 12.0607H10.8722L10.8393 12.0372L10.8346 11.9762L10.7172 12.0325L10.7031 11.9903L10.6703 11.9621L10.6186 12.0419L10.4778 12.1593L10.459 12.117L10.3604 12.0184L10.3182 12.0231L10.2806 12.0889L10.2008 12.0795L10.1445 12.0983L10.1069 12.0419L10.0506 12.0466L10.1163 11.9386L10.0694 11.9433L10.0036 11.8729L9.98955 11.7274L9.90974 11.657H9.78767L9.78298 11.5818L9.69378 11.5584L9.59519 11.4786L9.57172 11.4081L9.61397 11.3565L9.60458 11.2814L9.63275 11.2344L9.59519 11.1499L9.52946 11.1124L9.44496 10.9856L9.40271 10.8401L9.33698 10.8025L9.25247 10.7039L9.25717 10.6006L9.2337 10.5114L9.1445 10.4739L9.10694 10.4316L9.03182 10.4269L9.04121 10.4833L9.06938 10.5114L9.05999 10.5584L8.93793 10.5396L8.89568 10.5443L8.783 10.6147L8.67502 10.5631L8.58582 10.6006L8.56705 10.5725L8.54827 10.5021L8.56235 10.333L8.55766 10.2908L8.49662 10.2955V10.2532L8.46376 10.2391L8.39334 10.2767L8.34639 10.2485L8.3417 10.2204H8.35578L8.38395 10.1875L8.34639 10.1312L8.30414 10.1499L8.23842 10.0795L8.18208 10.0842L8.13983 9.98563L8.07879 9.96216L8.03654 9.98094L7.97082 10.0748L7.98021 10.164L7.88631 10.1453L7.85814 10.1734L7.84875 10.2204L7.8065 10.2391L7.74547 10.2157L7.78303 10.1359L7.722 10.1124L7.67505 10.1312L7.59993 10.1265L7.4544 10.1546L7.35111 10.1499L7.30886 10.1969L7.19149 10.2063L7.20088 10.164L7.17271 10.1499L7.06943 10.1875L7.06474 10.2814L6.95206 10.3659L6.85817 10.3424L6.78775 10.3659L6.77366 10.38L6.6516 10.333L6.50606 10.3894L6.45912 10.38L6.44503 10.3988ZM7.52012 19.6943L7.55299 19.7225L7.57176 19.7647L7.56238 19.8539L7.50604 19.8586L7.52012 19.8868L7.52951 19.9901L7.52012 20.0089H7.48726L7.49195 20.0229L7.45909 20.0276L7.44031 19.9854L7.43562 19.9244L7.48726 19.8445L7.48256 19.8023L7.52951 19.7976L7.52482 19.7507L7.49195 19.7272L7.52012 19.6943Z" fill="#000091"/>
</svg>
