<svg width="383" height="238" viewBox="0 0 383 238" fill="none" xmlns="http://www.w3.org/2000/svg"><path fill-rule="evenodd" clip-rule="evenodd" d="M231.533 148.509a.852.852 0 0 1 .05 1.702l-.05.002H104.239a.853.853 0 0 1-.05-1.703l.05-.001h127.294Zm0-15.195a.853.853 0 0 1 .05 1.703l-.05.002H104.239a.853.853 0 0 1-.05-1.703l.05-.002h127.294Zm0-15.194a.852.852 0 0 1 .05 1.702l-.05.002H104.239a.853.853 0 0 1-.05-1.703l.05-.001h127.294Zm0-15.195a.853.853 0 0 1 .05 1.703l-.05.001H104.239a.852.852 0 0 1-.05-1.702l.05-.002h127.294Z" fill="#869ECE"/><path fill="#E4794A" d="m174.386 94.18 17.825-.182.71 69.348-17.825.182zm30.379 24.877 17.94-.183.454 44.471-17.939.184zm-60.247.001 17.94-.183.454 44.471-17.939.184z"/><path fill-rule="evenodd" clip-rule="evenodd" d="m133.041 163.362-17.855.171-.256-21.301 17.827-.199.284 21.329Z" fill="#E4794A"/><path fill-rule="evenodd" clip-rule="evenodd" d="M104.239 87.986c.454 0 .825.355.851.802l.002.05v73.843h126.441c.454 0 .825.355.851.802l.002.05a.852.852 0 0 1-.803.85l-.05.002H104.239a.853.853 0 0 1-.852-.802l-.001-.05V88.838c0-.47.382-.852.853-.852Z" fill="#2F4077"/><path fill-rule="evenodd" clip-rule="evenodd" d="M128.351 167.111a.853.853 0 0 1 .05 1.703l-.05.001h-10.492a.852.852 0 0 1-.05-1.702l.05-.002h10.492Zm30.678 0a.853.853 0 0 1 .05 1.703l-.05.001h-10.463a.852.852 0 0 1-.05-1.702l.05-.002h10.463Zm30.082 0a.853.853 0 0 1 .05 1.703l-.05.001h-10.463a.852.852 0 0 1-.05-1.702l.05-.002h10.463Zm30.167 0a.853.853 0 0 1 .05 1.703l-.05.001h-10.491a.852.852 0 0 1-.051-1.702l.051-.002h10.491Z" fill="#E4794A"/><path fill-rule="evenodd" clip-rule="evenodd" d="M98.979 102.556c.454 0 .826.355.852.802v1.868a.853.853 0 0 1-1.704.05l-.001-.05v-1.818c0-.47.382-.852.853-.852Zm0 14.655c.454 0 .826.355.852.802v1.868a.853.853 0 0 1-1.704.05l-.001-.05v-1.818c0-.471.382-.852.853-.852Zm0 16.103c.454 0 .826.355.852.802v1.868a.852.852 0 0 1-1.704.05l-.001-.05v-1.818c0-.47.382-.852.853-.852Zm0 15.195c.454 0 .826.354.852.802v1.867a.853.853 0 0 1-1.704.051l-.001-.051v-1.817c0-.471.382-.852.853-.852Z" fill="#2F4077"/><path fill-rule="evenodd" clip-rule="evenodd" d="M302.929 71.712c-5.573 9.43-15.866 15.763-27.637 15.763-17.714 0-32.072-14.343-32.072-32.036 0-17.694 14.358-32.037 32.072-32.037a31.914 31.914 0 0 1 24.879 11.843l15.894-12.098c-9.525-11.985-24.254-19.682-40.773-19.682-28.746 0-52.061 23.289-52.061 52.002 0 28.713 23.315 52.002 52.061 52.002 20.528 0 38.271-11.871 46.744-29.11l-19.107-6.647Z" fill="#465F9D"/><path fill-rule="evenodd" clip-rule="evenodd" d="M325.675 74.183a43.985 43.985 0 0 0 4.606-15.82c1.109-11.274-2.161-21.981-8.416-30.445l-15.78 9.77c4.236 5.084 6.483 11.786 5.8 18.886a25.286 25.286 0 0 1-3.07 9.913l16.86 7.696Z" fill="#FAA184"/><path fill-rule="evenodd" clip-rule="evenodd" d="M240.291 78.897a.853.853 0 0 1 .05 1.703l-.05.002h-29.485a.853.853 0 0 1-.05-1.703l.05-.002h29.485Zm108.642-40.471a.853.853 0 0 1 .05 1.703l-.05.001h-26.642a.853.853 0 0 1-.05-1.702l.05-.002h26.642ZM221.468 83.073a.852.852 0 0 1 .051 1.702l-.051.002h-10.662a.853.853 0 0 1-.05-1.703l.05-.001h10.662Zm127.465-41.608a.853.853 0 0 1 .05 1.703l-.05.001h-10.634a.853.853 0 0 1-.05-1.702l.05-.002h10.634Z" fill="#2F4077"/><path fill-rule="evenodd" clip-rule="evenodd" d="M275.32 87.447c5.602 0 10.862-1.42 15.439-3.948l1.564-30.673-29.172-.568 1.109-2.414-20.017-2.386a31.906 31.906 0 0 0-.995 7.952c0 17.694 14.359 32.037 32.072 32.037Zm-50.724-43.795-28.831-9.997-9.98 17.325 38.726 15.876a52.273 52.273 0 0 1-1.28-11.446c.029-4.032.512-7.98 1.365-11.758Z" fill="#E4794A"/><path fill-rule="evenodd" clip-rule="evenodd" d="M206.484 29.196c0 0 6.142.114 5.687-2.385-.455-2.5-5.801-.426-11.999-3.834-4.862-2.67-20.045-1.136-19.107 10.792.796 10.281 11.828 20.051 11.828 20.051l20.045-2.783c0 0-14.387-13.036-11.089-14.968 3.299-1.93 4.635-6.873 4.635-6.873Z" fill="#fff"/><path fill-rule="evenodd" clip-rule="evenodd" d="M188.154 22.097c-5.245 1.885-8.334 5.855-7.952 11.564l.012.173c.352 4.544 2.578 9.252 6.059 13.902a51.23 51.23 0 0 0 4.151 4.865l.293.302c.337.343.655.657.952.942l.293.277.283.262.082.073a.851.851 0 0 0 .683.207l20.045-2.784a.851.851 0 0 0 .456-1.474l-.49-.451-.407-.38c-.281-.264-.581-.548-.895-.849a111.237 111.237 0 0 1-3.951-3.964 73.78 73.78 0 0 1-1.725-1.89l-.274-.315c-1.398-1.614-2.437-3.005-3.03-4.094-.323-.592-.498-1.07-.525-1.394-.014-.173-.001-.22.052-.256l.014-.009c1.266-.74 2.333-1.894 3.231-3.343.547-.883.999-1.824 1.362-2.765l.041-.105c.052-.138.1-.268.143-.389l.056-.162.059-.001c.152-.005.309-.013.472-.022a15.21 15.21 0 0 0 2.158-.268c.903-.186 1.648-.455 2.206-.844.778-.543 1.17-1.323 1.001-2.247-.156-.86-.702-1.433-1.557-1.758l-.121-.044c-.511-.178-1.088-.276-2.098-.385l-1.689-.179c-1.097-.122-1.554-.199-2.396-.38a16.547 16.547 0 0 1-4.356-1.569l-.209-.113c-2.83-1.554-8.157-1.669-12.429-.133Zm11.607 1.626a18.173 18.173 0 0 0 5.028 1.855l.412.087c.863.175 1.441.25 3.081.42l.735.077c1.774.193 2.238.384 2.314.801.077.425-.513.837-1.873 1.117-.585.12-1.24.196-1.914.236-.197.011-.387.02-.566.024l-.192.004h-.29a.853.853 0 0 0-.836.63l-.043.148-.045.143c-.079.245-.175.52-.29.817a15.032 15.032 0 0 1-1.222 2.483c-.733 1.183-1.579 2.113-2.528 2.7l-.114.07c-1.267.74-1.149 2.16-.177 3.943.705 1.294 1.908 2.883 3.52 4.718.549.624 1.139 1.27 1.766 1.935a114.165 114.165 0 0 0 4.011 4.026l.314.299.193.183-17.872 2.481-.148-.139-.055-.051a49.67 49.67 0 0 1-5.331-6.014c-3.254-4.348-5.337-8.714-5.708-12.822l-.016-.192c-.391-4.975 2.195-8.34 6.817-10.002 3.84-1.38 8.663-1.276 11.029.023Z" fill="#2F4077"/><path fill="#FAA184" d="M87.635 31.752h130.222v29.622H87.635z"/><path fill-rule="evenodd" clip-rule="evenodd" d="M102.818 55.07c4.695 0 8.501-3.802 8.501-8.492 0-4.69-3.806-8.492-8.501-8.492-4.695 0-8.502 3.802-8.502 8.492 0 4.69 3.807 8.492 8.502 8.492Zm102.557-15.564a.853.853 0 0 1 .05 1.703h-82.278a.853.853 0 0 1-.05-1.702l.05-.001h82.228Zm0 4.544a.853.853 0 0 1 .05 1.703l-.05.001h-82.228a.853.853 0 0 1-.05-1.702l.05-.002h82.228Zm0 4.544a.853.853 0 0 1 .05 1.703l-.05.001h-82.228a.853.853 0 0 1-.05-1.702l.05-.002h82.228Zm-47.938 4.544a.853.853 0 0 1 .05 1.703l-.05.001h-34.29a.853.853 0 0 1-.05-1.702l.05-.002h34.29Z" fill="#fff"/><path fill-rule="evenodd" clip-rule="evenodd" d="M200.457 23.118c4.578 1.818 9.923 7.583 10.321 8.69.427 1.137-.91 2.983-2.729 1.336-1.848-1.648-5.118-5.254-5.118-5.254 2.161 3.152 4.691 7.213 4.72 8.094 0 1.335-2.332 1.874-3.754-.313l-4.236-6.077c0 0 4.094 7.299 4.293 8.378.199 1.08-2.274 2.755-4.549-1.931-2.275-4.687-2.758-4.743-2.758-4.743 0 0 2.502 5.822 2.73 7.128.227 1.307-4.18 1.62-5.801-4.402 0 0-3.127 2.3-5.715-2.045" fill="#fff"/><path fill-rule="evenodd" clip-rule="evenodd" d="M199.664 22.804a.854.854 0 0 1 1.108-.477c2.173.863 4.633 2.6 6.991 4.777l.205.19c1.834 1.718 3.341 3.47 3.608 4.216.347.924.001 2.059-.795 2.681-.854.668-1.979.61-3.014-.174l-.019-.014.033.063c.436.851.693 1.502.72 1.881l.002.037c0 1.155-.963 1.971-2.164 2.016a3.133 3.133 0 0 1-1.549-.358l-.048-.025.005.015c.016.056.029.107.039.152l.007.034c.215 1.165-.888 2.25-2.217 2.202-.804-.03-1.593-.429-2.331-1.19l-.031-.034-.012.053c-.123.51-.542.902-1.103 1.085l-.065.02c-.633.185-1.413.118-2.182-.19-1.556-.623-2.887-2.1-3.727-4.351l-.067-.184-.041.015c-1.459.51-3.049.297-4.498-1.056l-.085-.08a8.133 8.133 0 0 1-1.306-1.693.853.853 0 0 1 1.466-.871c.33.554.674.997 1.027 1.34 1.038 1.004 2.065 1.093 3.058.663.179-.078.308-.152.372-.195l.019-.014a.854.854 0 0 1 1.33.465c.651 2.422 1.808 3.867 3.087 4.38.378.151.726.196.969.157l.025-.004-.047-.163c-.158-.528-.474-1.396-.904-2.492l-.224-.566-.078-.193a147.79 147.79 0 0 0-.747-1.823l-.501-1.192-.117-.273a.852.852 0 0 1 .883-1.182l.049.007c.655.127 1.452 1.29 3.123 4.69l.254.52c.888 1.829 1.787 2.623 2.466 2.648a.544.544 0 0 0 .41-.14.28.28 0 0 0 .054-.068l.006-.013-.002-.008c-.1-.372-.797-1.803-1.817-3.728l-.231-.434c-.334-.627-.686-1.277-1.043-1.929l-.648-1.178-.451-.809c-.521-.93.784-1.765 1.415-.943l.03.04 4.251 6.1c.493.759 1.117 1.11 1.663 1.09.351-.013.522-.158.523-.285-.007-.195-.561-1.312-1.441-2.787l-.24-.398a99.986 99.986 0 0 0-2.89-4.456c-.592-.862.585-1.81 1.302-1.088l.567.617.33.357c.655.706 1.321 1.411 1.959 2.069l.331.34.368.372c.597.6 1.116 1.099 1.537 1.475.534.483.873.52 1.108.336.221-.172.33-.528.246-.752-.05-.14-.4-.626-.92-1.232l-.059-.068a31.775 31.775 0 0 0-2.39-2.441c-2.219-2.047-4.521-3.674-6.464-4.446a.852.852 0 0 1-.478-1.106Z" fill="#2F4077"/><path fill-rule="evenodd" clip-rule="evenodd" d="M263.264 145.129v3.408a.853.853 0 0 0 1.706 0v-3.408a.853.853 0 0 0-1.706 0Zm0 6.817v3.408a.853.853 0 0 0 1.706 0v-3.408a.852.852 0 0 0-1.706 0Zm0 6.816v3.408a.853.853 0 0 0 1.706 0v-3.408a.852.852 0 0 0-1.706 0Zm0 6.816v3.408a.852.852 0 0 0 1.706 0v-3.408a.852.852 0 0 0-1.706 0Zm0 6.816v3.408a.852.852 0 0 0 1.706 0v-3.408a.853.853 0 0 0-1.706 0Zm0 6.817v3.408a.853.853 0 0 0 1.706 0v-3.408a.853.853 0 0 0-1.706 0Zm0 6.816v3.408a.853.853 0 0 0 1.706 0v-3.408a.852.852 0 0 0-1.706 0Zm0 6.816v3.408a.852.852 0 0 0 1.706 0v-3.408a.852.852 0 0 0-1.706 0Zm0 6.816v3.408a.852.852 0 0 0 1.706 0v-3.408a.853.853 0 0 0-1.706 0Zm0 6.816v3.409a.853.853 0 0 0 1.706 0v-3.409a.853.853 0 0 0-1.706 0Zm0 6.817v3.408a.853.853 0 0 0 1.706 0v-3.408a.852.852 0 0 0-1.706 0Zm0 6.816v3.408a.852.852 0 0 0 1.706 0v-3.408a.852.852 0 0 0-1.706 0Zm0 6.816v3.408a.852.852 0 0 0 1.706 0v-3.408a.853.853 0 0 0-1.706 0Zm0 6.816v2.982a.852.852 0 0 0 1.706 0v-2.982a.853.853 0 0 0-1.706 0Zm-43.303-40.783v3.408a.853.853 0 0 0 1.706 0v-3.408a.853.853 0 0 0-1.706 0Zm0 6.816v3.408a.853.853 0 0 0 1.706 0v-3.408a.852.852 0 0 0-1.706 0Zm0 6.816v3.408a.852.852 0 0 0 1.706 0v-3.408a.852.852 0 0 0-1.706 0Zm0 6.816v3.408a.852.852 0 0 0 1.706 0v-3.408a.853.853 0 0 0-1.706 0Zm0 6.816v3.409a.853.853 0 0 0 1.706 0v-3.409a.853.853 0 0 0-1.706 0Zm0 6.817v3.408a.853.853 0 0 0 1.706 0v-3.408a.852.852 0 0 0-1.706 0Zm0 6.816v2.868a.852.852 0 0 0 1.706 0v-2.868a.852.852 0 0 0-1.706 0Zm-35.996-15.28v3.408a.852.852 0 0 0 1.706 0v-3.408a.853.853 0 0 0-1.706 0Zm0 6.816v3.409a.853.853 0 0 0 1.706 0v-3.409a.853.853 0 0 0-1.706 0Zm0 6.817v3.408a.853.853 0 0 0 1.706 0v-3.408a.852.852 0 0 0-1.706 0Zm128.857-106.163v3.408a.852.852 0 0 0 1.706 0v-3.408a.852.852 0 0 0-1.706 0Zm0 6.816v3.408a.852.852 0 0 0 1.706 0v-3.408a.853.853 0 0 0-1.706 0Zm0 6.816v3.408a.853.853 0 0 0 1.706 0v-3.408a.853.853 0 0 0-1.706 0Zm0 6.817v3.408a.853.853 0 0 0 1.706 0v-3.408a.852.852 0 0 0-1.706 0Zm0 6.816v3.408a.852.852 0 0 0 1.706 0v-3.408a.852.852 0 0 0-1.706 0Zm0 6.816v3.408a.852.852 0 0 0 1.706 0v-3.408a.852.852 0 0 0-1.706 0Zm0 6.816v3.408a.852.852 0 0 0 1.706 0v-3.408a.853.853 0 0 0-1.706 0Zm0 6.817v3.408a.853.853 0 0 0 1.706 0v-3.408a.853.853 0 0 0-1.706 0Zm0 6.816v3.408a.853.853 0 0 0 1.706 0v-3.408a.852.852 0 0 0-1.706 0Zm0 6.816v3.408a.852.852 0 0 0 1.706 0v-3.408a.852.852 0 0 0-1.706 0Zm0 6.816v3.408a.852.852 0 0 0 1.706 0v-3.408a.853.853 0 0 0-1.706 0Zm0 6.816v3.409a.853.853 0 0 0 1.706 0v-3.409a.853.853 0 0 0-1.706 0Zm0 6.817v3.408a.853.853 0 0 0 1.706 0v-3.408a.852.852 0 0 0-1.706 0Zm0 6.816v3.408a.852.852 0 0 0 1.706 0v-3.408a.852.852 0 0 0-1.706 0Zm0 6.816v3.408a.852.852 0 0 0 1.706 0v-3.408a.853.853 0 0 0-1.706 0Zm0 6.816v3.408a.852.852 0 0 0 1.706 0v-3.408a.853.853 0 0 0-1.706 0Zm0 6.817v1.618a.852.852 0 0 0 1.706 0v-1.618a.852.852 0 0 0-1.706 0Z" fill="#E4794A"/><path opacity=".41" fill-rule="evenodd" clip-rule="evenodd" d="M323.343 124.737c-80.153 7.697-82.825 61.46-101.648 68.219-18.822 6.76-18.51 16.643-34.659 22.977-9.98 3.919-20.643 21.386-26.756 20.392l.74.653h162.578l-.255-112.241Z" fill="#FAA184"/><path fill-rule="evenodd" clip-rule="evenodd" d="M281.432 134.393c.199.085-2.189-5.396-5.288-6.504-3.1-1.079.426-4.686 3.923-2.414 3.498 2.272 4.208 4.857 4.208 4.857" fill="#fff"/><path fill-rule="evenodd" clip-rule="evenodd" d="M275.095 124.764c1.387-1.121 3.563-1.221 5.438-.003.389.253.755.516 1.1.789 1.222.964 2.128 2.006 2.764 3.056.227.374.404.726.537 1.045.084.203.137.357.164.456a.852.852 0 0 1-1.63.499l-.024-.076-.005-.015a3.414 3.414 0 0 0-.08-.209 6.136 6.136 0 0 0-.422-.818c-.532-.879-1.304-1.766-2.362-2.602a13.025 13.025 0 0 0-.973-.696c-1.258-.818-2.625-.755-3.433-.102-.543.439-.51.731.262 1 1.581.565 3.029 2.038 4.312 4.042.452.704.853 1.435 1.155 2.077l.08.174c.077.169.141.322.19.45l.023.062c.039.107.067.198.084.283.023.11.032.206.011.34-.079.513-.618.905-1.19.661a.852.852 0 0 1-.512-.694l-.002-.023-.011-.03a7.052 7.052 0 0 0-.15-.354l-.067-.144a17.057 17.057 0 0 0-1.048-1.884c-1.097-1.713-2.312-2.949-3.443-3.354-2.087-.726-2.305-2.687-.768-3.93Z" fill="#2F4077"/><path fill-rule="evenodd" clip-rule="evenodd" d="M283.935 125.333c-1.991 1.619-4.891 4.8-4.635 7.356.37 3.692 3.981 7.214 12.027 7.242 13.136.029 12.027-17.779 12.027-17.779l.029-10.025-16.093 2.329-.455 10.849" fill="#fff"/><path fill-rule="evenodd" clip-rule="evenodd" d="M303.26 111.284c.499-.072.947.3.974.796l.002.05-.029 9.996.009.207.002.056c.088 2.615-.185 5.808-1.132 8.902-1.805 5.893-5.583 9.506-11.762 9.493-7.686-.027-12.398-3.271-12.873-8.01-.255-2.552 2-5.706 4.945-8.101a.854.854 0 0 1 1.2.123.85.85 0 0 1-.123 1.198c-2.53 2.059-4.504 4.818-4.324 6.611.376 3.758 4.288 6.45 11.18 6.475 5.324.011 8.52-3.046 10.125-8.287.501-1.635.811-3.391.964-5.179.099-1.159.122-2.191.1-3.023l-.013-.342-.002-.043-.002-.056.026-9.038-14.415 2.086-.425 10.143a.852.852 0 0 1-.838.816l-.05-.001a.851.851 0 0 1-.817-.836l.001-.051.455-10.849a.85.85 0 0 1 .679-.798l.05-.009 16.093-2.329Z" fill="#2F4077"/><path fill-rule="evenodd" clip-rule="evenodd" d="M323.289 123.889a.853.853 0 1 1 .164 1.696c-18.52 1.784-33.766 6.103-46.379 12.681-10.582 5.519-19.067 12.459-26.482 21.025-3.623 4.185-6.694 8.352-10.519 14.057l-.795 1.193c-.902 1.362-3.063 4.63-3.898 5.873l-.407.603c-1.404 2.068-2.563 3.681-3.681 5.1l-.116.146c-3.125 3.94-5.964 6.346-9.164 7.495-7.331 2.632-11.715 5.522-17.021 10.503l-.61.577-1.828 1.751c-2.527 2.411-4.024 3.721-5.983 5.151-2.621 1.912-5.474 3.498-8.882 4.862l-.312.123c-3.381 1.328-6.692 4.105-11.594 9.27l-4.075 4.345-.387.405c-1.289 1.346-2.331 2.371-3.306 3.238-2.695 2.394-4.828 3.501-6.79 3.182a.852.852 0 1 1 .274-1.682c1.296.211 3.044-.697 5.382-2.773l.218-.195c.839-.76 1.749-1.657 2.848-2.8l.624-.655c.914-.967 3.219-3.439 3.637-3.882l.515-.543c4.918-5.165 8.306-7.999 11.906-9.446l.124-.05c3.411-1.337 6.229-2.89 8.811-4.775l.225-.165c1.816-1.342 3.272-2.629 5.742-4.991l1.445-1.385.448-.426.21-.199c5.549-5.239 10.142-8.293 17.802-11.044 2.846-1.022 5.458-3.236 8.404-6.949l.339-.432c1.059-1.363 2.176-2.929 3.529-4.928l1.073-1.604c1.262-1.898 3.15-4.755 3.445-5.197l.432-.646c3.86-5.757 6.968-9.975 10.645-14.222 7.549-8.721 16.201-15.798 26.982-21.42 12.815-6.684 28.273-11.062 47.005-12.867Z" fill="#E4794A"/><path fill-rule="evenodd" clip-rule="evenodd" d="M184.818 218.574a2.074 2.074 0 1 0 0-4.147 2.074 2.074 0 1 0 0 4.147Zm79.3-71.372a2.074 2.074 0 1 0 0-4.146 2.074 2.074 0 1 0 0 4.146Zm-43.304 47.827a2.074 2.074 0 1 0 0-4.146 2.075 2.075 0 0 0-2.076 2.073c0 1.145.93 2.073 2.076 2.073Zm92.861-67.225a2.074 2.074 0 1 0 0-4.146 2.074 2.074 0 1 0 0 4.146Z" fill="#465F9D"/><path fill-rule="evenodd" clip-rule="evenodd" d="M287.12 127.208c.057-2.954-1.99-3.266-4.549-.767-1.28 1.25-2.872 3.408-3.27 5.34" fill="#fff"/><path fill-rule="evenodd" clip-rule="evenodd" d="M281.974 125.832c3.037-2.966 6.073-2.469 5.998 1.393a.852.852 0 0 1-1.705-.033c.02-1.061-.23-1.514-.579-1.571-.518-.085-1.448.381-2.521 1.43-1.432 1.397-2.718 3.38-3.031 4.902a.853.853 0 0 1-1.671-.344c.393-1.906 1.856-4.162 3.509-5.777Z" fill="#2F4077"/><path fill-rule="evenodd" clip-rule="evenodd" d="M283.452 133.172c-.37-1.931.625-4.061 1.933-5.481 2.332-2.528 3.725-3.181 4.407-.426" fill="#fff"/><path fill-rule="evenodd" clip-rule="evenodd" d="M288.051 124.659c1.304-.242 2.14.67 2.569 2.401a.852.852 0 1 1-1.656.409c-.138-.558-.298-.915-.449-1.08-.06-.065-.073-.069-.152-.055-.433.081-1.217.706-2.35 1.934-1.291 1.401-2.007 3.262-1.723 4.744a.853.853 0 0 1-1.676.32c-.397-2.076.517-4.452 2.144-6.219l.195-.209c1.283-1.365 2.213-2.08 3.098-2.245Z" fill="#2F4077"/><path fill-rule="evenodd" clip-rule="evenodd" d="M288.399 136.154c0 0-1.735-2.641-.796-5.708.909-3.067 3.696-5.084 4.918-2.755" fill="#fff"/><path fill-rule="evenodd" clip-rule="evenodd" d="M289.496 126.321c1.439-.892 2.964-.583 3.781.974a.852.852 0 0 1-1.485.837l-.026-.045c-.331-.632-.733-.713-1.372-.318-.804.498-1.588 1.619-1.975 2.926-.42 1.372-.272 2.762.237 4.056.087.222.179.425.271.605l.056.106c.039.074.072.131.096.172l.033.053a.85.85 0 0 1-.245 1.18.854.854 0 0 1-1.181-.245 7.065 7.065 0 0 1-.618-1.248c-.638-1.623-.827-3.393-.283-5.17.498-1.679 1.526-3.15 2.711-3.883Z" fill="#2F4077"/><path fill-rule="evenodd" clip-rule="evenodd" d="M292.494 136.154c0 0-1.877-2.698-1.45-5.339.426-2.641 2.53-4.43 3.781-2.641 0 0-.114 3.01 1.535 3.38" fill="#fff"/><path fill-rule="evenodd" clip-rule="evenodd" d="M292.111 127.152c1.163-.875 2.536-.721 3.413.534a.84.84 0 0 1 .153.458l-.001.189c.001.118.006.263.018.423.024.319.071.631.144.915.156.609.391.954.67 1.041l.039.01a.852.852 0 0 1-.373 1.663c-1.066-.239-1.683-1.101-1.989-2.292a6.979 6.979 0 0 1-.192-1.208 8.444 8.444 0 0 1-.017-.291l-.004-.119-.006-.007c-.233-.229-.464-.215-.784.013l-.044.032c-.575.433-1.08 1.365-1.253 2.438l-.019.134c-.13 1.031.128 2.184.648 3.337.152.337.316.648.478.923l.06.1.074.121.068.102a.853.853 0 0 1-1.401.972l-.045-.065a11.327 11.327 0 0 1-.789-1.453c-.638-1.413-.961-2.858-.786-4.25l.028-.193c.239-1.482.958-2.81 1.91-3.527Z" fill="#2F4077"/><path fill-rule="evenodd" clip-rule="evenodd" d="m282.939 51.037 1.166 35.416 1.763 36.381 19.249-.511-1.649-38.2-1.166-21.442c-1.763-6.333-5.544-9.798-9.809-10.366l-9.554-1.278Z" fill="#E4794A"/><path fill-rule="evenodd" clip-rule="evenodd" d="m257.947 44.76 2.474 5.51-3.696-.795c-.398.71-5.175 11.02 6.397 13.689 7.592 1.732 16.406-4.43 20.386-10.054l-6.425-1.164-5.26-12.61-13.876 5.424Z" fill="#fff"/><path fill-rule="evenodd" clip-rule="evenodd" d="m257.636 43.967-.047.02a.851.851 0 0 0-.42 1.122l1.784 3.974-2.049-.441a.854.854 0 0 0-.924.416c-.232.415-.594 1.295-.87 2.242-.418 1.433-.624 2.905-.527 4.342.275 4.074 2.894 7.094 8.347 8.352 3.776.862 8.006-.05 12.154-2.354 3.62-2.01 6.965-4.993 9.121-8.038l.028-.043a.852.852 0 0 0-.573-1.287l-5.969-1.082-5.081-12.182a.854.854 0 0 0-1.099-.466l-13.875 5.425Zm13.72-3.534 4.939 11.84.024.053a.85.85 0 0 0 .611.458l5.059.917-.048.059c-1.989 2.433-4.746 4.758-7.686 6.39-3.809 2.116-7.628 2.94-10.943 2.183-4.724-1.09-6.802-3.486-7.027-6.806-.082-1.217.097-2.496.463-3.751l.052-.174c.105-.344.22-.671.339-.972l.073-.18 3.029.653.047.009a.852.852 0 0 0 .911-1.19l-2.107-4.695 12.264-4.794Z" fill="#2F4077"/><path fill-rule="evenodd" clip-rule="evenodd" d="m273.017 35.899 1.08.71c0 0 6.483 3.522 8.53-3.01 1.535-4.97-3.213-6.533-5.601-6.987" fill="#fff"/><path fill-rule="evenodd" clip-rule="evenodd" d="M276.188 26.453a.853.853 0 0 1 .998-.678c1.782.339 3.426.965 4.656 1.98 1.754 1.449 2.399 3.511 1.599 6.098-.842 2.69-2.484 4.142-4.64 4.48-1.265.2-2.582 0-3.866-.445l-.203-.073a8.207 8.207 0 0 1-1.042-.457l-.031-.018-.03-.02-1.081-.71a.852.852 0 0 1 .894-1.45l.044.027 1.047.688.098.049.125.059c.219.1.468.2.74.295 1.041.362 2.094.52 3.04.372 1.506-.236 2.626-1.227 3.276-3.303.592-1.916.171-3.264-1.057-4.279-.966-.797-2.364-1.329-3.888-1.62a.852.852 0 0 1-.679-.995Z" fill="#2F4077"/><path fill-rule="evenodd" clip-rule="evenodd" d="M249.815 23.573c-.881 3.01-3.412 17.24 5.744 20.76 9.126 3.523 17.713-3.55 20.955-12.325 3.241-8.776 1.222-17.325-4.521-19.71-5.744-2.386-15.781-10.452-22.178 11.275Z" fill="#fff"/><path fill-rule="evenodd" clip-rule="evenodd" d="M259.961 8.226c-4.535 1.044-8.141 5.674-10.881 14.829l-.083.279c-.753 2.571-1.263 6.805-.923 10.505.508 5.527 2.75 9.586 7.179 11.29 4.588 1.77 9.296 1.1 13.459-1.635 3.789-2.488 6.892-6.56 8.602-11.191 3.37-9.123 1.271-18.19-4.993-20.792l-.16-.068a28.045 28.045 0 0 1-1.14-.522l-1.717-.83c-3.856-1.837-6.5-2.52-9.343-1.865Zm-9.365 15.72.038-.133c2.594-8.81 5.854-13.04 9.71-13.927 2.28-.524 4.538.022 7.876 1.579l.478.226 1.467.71a29.75 29.75 0 0 0 1.501.683c5.267 2.188 7.136 10.267 4.048 18.629-1.589 4.3-4.466 8.077-7.939 10.358-3.72 2.443-7.856 3.032-11.909 1.468-3.717-1.43-5.639-4.908-6.093-9.855-.313-3.408.148-7.346.823-9.738Z" fill="#2F4077"/><path fill-rule="evenodd" clip-rule="evenodd" d="M259.142 35.132a6.761 6.761 0 0 1-4.066-.568.572.572 0 0 0-.825.426c-.199 1.136-.142 3.096 2.332 3.664 2.587.625 3.127-1.647 3.241-2.897.028-.37-.313-.71-.682-.625Zm-.384-16.104a.854.854 0 0 1 1.582.637l-.019.047-4.404 10.047 1.875.487c.44.115.71.551.622.99l-.011.05a.852.852 0 0 1-.991.62l-.049-.01-2.843-.739a.853.853 0 0 1-.587-1.118l.02-.048 4.805-10.963Zm3.072 1.327c1.47-.668 2.806-.189 3.871.93.237.249.442.512.619.776l.075.115a4.1 4.1 0 0 1 .154.262.852.852 0 0 1-1.484.838l-.058-.103a4.117 4.117 0 0 0-.542-.714c-.596-.626-1.194-.854-1.862-.582l-.067.029a.853.853 0 0 1-.706-1.551Zm-9.773-2.697c1.422-.908 2.856-.573 4.083.457.407.343.705.684.881.93a.854.854 0 0 1-1.357 1.032l-.066-.087a4.148 4.148 0 0 0-.556-.57c-.718-.603-1.388-.76-2.067-.326a.852.852 0 1 1-.918-1.436Zm10.306 10.185c.171-.83-.114-1.59-.637-1.697-.523-.108-1.085.478-1.256 1.307-.171.83.114 1.59.637 1.697.523.108 1.086-.478 1.256-1.307Zm-9.344-1.79c.171-.83-.115-1.59-.638-1.697-.523-.107-1.085.478-1.256 1.308-.171.83.114 1.59.637 1.697.523.107 1.086-.478 1.257-1.308Zm32.057 35.521c2.533-2.745 2.031-7.323-1.121-10.225-3.152-2.903-7.761-3.03-10.294-.285-2.533 2.745-2.031 7.323 1.121 10.225 3.152 2.902 7.761 3.03 10.294.285Z" fill="#2F4077"/><path fill-rule="evenodd" clip-rule="evenodd" d="M281.604 72.254c2.256-2.445 1.801-6.53-1.016-9.124-2.817-2.594-6.931-2.715-9.187-.27-2.256 2.445-1.802 6.53 1.016 9.124 2.817 2.594 6.93 2.715 9.187.27Z" fill="#2F4077"/><path fill-rule="evenodd" clip-rule="evenodd" d="M274.723 81.028c-1.934 1.96-5.346 1.76-7.62-.426-2.275-2.216-2.559-5.567-.626-7.555 1.933-1.96 5.402-1.931 7.677.256 2.275 2.187 2.502 5.765.569 7.725Z" fill="#2F4077"/><path fill-rule="evenodd" clip-rule="evenodd" d="M270.884 89.123c-2.473 1.334-2.872 3.095-2.672 4.515.085.653-.683 1.08-1.166.653-2.872-2.556-7.251-7.497-3.696-11.53 1.677-1.903 4.719-2.159 7.051-.37 2.303 1.79 2.729 5.539.483 6.731Z" fill="#2F4077"/><path fill-rule="evenodd" clip-rule="evenodd" d="M275.912 49.022c.181-.58.786-.911 1.368-.761l.057.016 6.994 2.187a1.136 1.136 0 0 1-.623 2.184l-.056-.016-6.995-2.187a1.135 1.135 0 0 1-.745-1.423Zm-1.851 11.884a1.138 1.138 0 0 1 1.417-.667l.055.02 5.772 2.243a1.135 1.135 0 0 1-.769 2.138l-.056-.02-5.771-2.244a1.135 1.135 0 0 1-.648-1.47Zm-2.748 10.934a1.14 1.14 0 0 1 1.494-.466l.054.029 1.677.937a1.136 1.136 0 0 1-1.057 2.01l-.053-.027-1.678-.938a1.135 1.135 0 0 1-.437-1.546Zm-4.065 8.715c.268-.546.916-.78 1.469-.543l.053.025 1.735.852a1.135 1.135 0 0 1-.951 2.063l-.053-.024-1.734-.852a1.135 1.135 0 0 1-.519-1.521Z" fill="#E4794A"/><path fill-rule="evenodd" clip-rule="evenodd" d="M289.024 36.75c-1.848-1.788-4.151-2.84-6.426-3.066-1.62 4.941-5.828 3.976-7.62 3.294-2.417 3.465-1.706 8.634 1.877 12.127 3.952 3.834 9.866 4.175 13.25.767 3.383-3.408 2.843-9.287-1.081-13.121Z" fill="#2F4077"/><path fill-rule="evenodd" clip-rule="evenodd" d="M288.94 21.869c-.683-4.544-8.644-11.872-14.871-11.815-8.018-8.123-19.96-16.245-26.926-1.988-.739 1.505.114 3.323 1.706 3.72l28.916 8.578c.37 1.96.427 4.146.086 6.418 2.502.654 6.17 2.358 4.776 6.788-1.905 6.135-7.705 3.437-8.444 3.067-1.194 1.846-2.644 3.522-4.265 4.885 5.658 3.352 12.027 5.397 15.496.796 4.236-5.595 4.464-14.116 3.526-20.45Z" fill="#2F4077"/><path fill-rule="evenodd" clip-rule="evenodd" d="M258.014 25.033c-.824 4.846 1.455 9.337 5.21 9.973 3.755.636 7.391-2.852 8.215-7.698.824-4.845-1.454-9.336-5.209-9.973-3.755-.636-7.391 2.852-8.216 7.698Zm1.262.214c.717-4.218 3.777-7.153 6.739-6.651 2.963.502 4.88 4.281 4.163 8.498-.718 4.218-3.777 7.154-6.74 6.652-2.962-.502-4.88-4.282-4.162-8.5Zm-17.222-3.29c-.825 4.845 1.454 9.336 5.209 9.973 3.755.636 7.391-2.852 8.215-7.698.824-4.845-1.454-9.336-5.209-9.973-3.755-.636-7.391 2.852-8.215 7.698Zm1.261.214c.717-4.218 3.777-7.154 6.739-6.651 2.963.502 4.88 4.28 4.163 8.498-.717 4.218-3.777 7.154-6.74 6.651-2.962-.502-4.88-4.28-4.162-8.498Z" fill="#E4794A"/><path fill-rule="evenodd" clip-rule="evenodd" d="M254.533 21.978a.64.64 0 0 1 .701-.517l.046.007 3.781.71a.64.64 0 0 1-.191 1.263l-.045-.007-3.782-.71a.638.638 0 0 1-.51-.746Zm15.887 2.159a.64.64 0 0 1 .766-.416l.044.013 8.558 2.869a.638.638 0 0 1-.363 1.224l-.044-.013-8.558-2.868a.64.64 0 0 1-.403-.81Z" fill="#E4794A"/><path fill-rule="evenodd" clip-rule="evenodd" d="m122.464 119.255.057 11.815 15.041.881v-11.19c0 0 3.383-1.932 2.246-8.038-1.137-6.106-18.737-4.09-19.704-.369-.967 3.72 2.36 6.901 2.36 6.901Z" fill="#fff"/><path fill-rule="evenodd" clip-rule="evenodd" d="m129.854 108.002-.316.016c-5.159.282-9.674 1.867-10.259 4.122-.537 2.066 0 4.099 1.198 5.975.301.47.622.895.945 1.269l.103.118.088.098.055 11.474c.002.45.354.82.803.847l15.041.88.05.002a.853.853 0 0 0 .853-.852v-10.756l.089-.075c.344-.294.683-.661.996-1.108 1.239-1.766 1.745-4.23 1.147-7.445-.624-3.346-5.02-4.82-10.793-4.565Zm9.116 4.877c.516 2.771.105 4.77-.867 6.155a4.243 4.243 0 0 1-.708.792c-.064.054-.122.1-.175.138l-.081.057-.049.03a.851.851 0 0 0-.381.71v10.286l-13.339-.781-.053-11.015a.85.85 0 0 0-.223-.57l-.123-.125-.096-.103a9.338 9.338 0 0 1-.96-1.255c-.966-1.513-1.384-3.094-.985-4.63.325-1.252 4.449-2.662 9-2.863 4.996-.221 8.634.998 9.04 3.174Z" fill="#2F4077"/><path fill="#E4794A" d="M121.839 93.581h16.406v21.869h-16.406z"/><path fill-rule="evenodd" clip-rule="evenodd" d="M122.436 119.17c-3.099-.937-2.389-7.071-1.934-8.577.313-1.022 1.024-3.465.967-5.282-.028-.796 1.109-1.704 1.877-1.392.938.369 1.819 1.96 1.99 6.93 2.388 2.698 3.27 5.652 3.27 5.652" fill="#fff"/><path fill-rule="evenodd" clip-rule="evenodd" d="m120.62 105.47-.003-.129c-.051-1.414 1.709-2.757 3.042-2.215 1.521.599 2.312 2.812 2.511 7.213l.007.178.184.219.187.232a18.006 18.006 0 0 1 2.659 4.67l.052.138c.082.222.136.386.164.481a.852.852 0 0 1-1.619.534l-.055-.169a12.258 12.258 0 0 0-.069-.197l-.022-.06a16.315 16.315 0 0 0-2.449-4.34 14.291 14.291 0 0 0-.512-.612.852.852 0 0 1-.213-.535c-.078-2.27-.309-3.897-.663-4.948-.259-.765-.534-1.119-.797-1.222-.159-.065-.71.356-.702.576.049 1.579-.353 3.431-1.003 5.555-.268.889-.455 2.709-.332 4.185.152 1.828.712 2.991 1.637 3.311l.059.02a.85.85 0 1 1-.494 1.631c-1.811-.548-2.696-2.333-2.903-4.821-.14-1.687.069-3.723.401-4.821.577-1.888.947-3.565.933-4.874Z" fill="#2F4077"/><path fill-rule="evenodd" clip-rule="evenodd" d="M132.245 107.554c-1.678-3.635 5.544-6.645 5.544-6.645 1.45-.682 4.237 1.562-.113 3.663" fill="#fff"/><path fill-rule="evenodd" clip-rule="evenodd" d="M137.491 100.109c1.151-.494 2.675.089 3.194 1.237.637 1.407-.341 2.884-2.638 3.993a.853.853 0 1 1-.742-1.534c1.57-.759 1.99-1.393 1.826-1.757-.132-.292-.639-.49-.94-.384l-.038.016-.213.093-.046.021c-.187.085-.398.186-.624.301a16.68 16.68 0 0 0-1.896 1.114c-1.997 1.369-2.888 2.721-2.381 3.928l.027.061a.851.851 0 1 1-1.549.713c-1.033-2.238.296-4.295 2.937-6.107a18.458 18.458 0 0 1 2.673-1.512l.25-.114.16-.069Z" fill="#2F4077"/><path fill-rule="evenodd" clip-rule="evenodd" d="M132.018 111.474c-1.678-3.636 5.8-6.959 5.8-6.959 0 0 2.417-1.363 3.014.909.483 1.79-2.246 2.471-2.275 2.556" fill="#fff"/><path fill-rule="evenodd" clip-rule="evenodd" d="M139.435 103.262c1.071.055 1.897.713 2.22 1.94.35 1.295-.316 2.283-1.502 2.975a6.84 6.84 0 0 1-.906.436l-.259.102-.009.006a.849.849 0 0 1-.644.082l-.048-.014a.853.853 0 0 1-.54-1.078.783.783 0 0 1 .342-.446c.029-.019.056-.035.083-.05l.04-.021a3.36 3.36 0 0 1 .096-.042l.301-.119c.259-.105.478-.207.683-.327.599-.349.819-.676.714-1.065-.133-.509-.323-.66-.66-.678-.224-.011-.498.045-.779.149l-.099.038a2.804 2.804 0 0 0-.211.096l-.02.011a.714.714 0 0 1-.073.037l-.121.056-.115.055a17.93 17.93 0 0 0-.654.332c-.679.361-1.357.77-1.986 1.215-2.081 1.472-3.027 2.9-2.523 4.105l.027.06a.853.853 0 1 1-1.55.713c-1.03-2.234.341-4.344 3.06-6.268a20.178 20.178 0 0 1 2.17-1.329l.252-.132c.164-.084.319-.162.463-.231l.156-.074.1-.047c.11-.059.263-.131.449-.204l.082-.031a3.747 3.747 0 0 1 1.348-.256l.113.004Z" fill="#2F4077"/><path fill-rule="evenodd" clip-rule="evenodd" d="M133.325 115.563c-.91-.142-1.222-1.136-1.222-1.136-1.678-3.635 7.335-6.873 7.335-6.873 0 0 3.583 1.193.853 3.806" fill="#fff"/><path fill-rule="evenodd" clip-rule="evenodd" d="M139.149 106.752a.857.857 0 0 1 .559-.006l.072.025a5.066 5.066 0 0 1 1.082.562c1.61 1.109 1.9 2.841.019 4.642a.853.853 0 0 1-1.18-1.23l.116-.113c.923-.925.82-1.384.076-1.897a3.218 3.218 0 0 0-.407-.236l-.061-.029c-.208.082-.436.174-.68.277l-.148.064a24.74 24.74 0 0 0-2.506 1.242c-2.504 1.439-3.697 2.847-3.237 3.965l.044.103.018.051c.017.054.078.183.175.307a.6.6 0 0 0 .321.233l.045.009a.853.853 0 1 1-.264 1.684c-.606-.095-1.087-.418-1.446-.876a2.857 2.857 0 0 1-.416-.724l-.025-.07-.016-.035c-.516-1.201-.218-2.419.694-3.553l.064-.079c.734-.881 1.829-1.708 3.193-2.492a26.396 26.396 0 0 1 2.68-1.33c.266-.115.516-.218.747-.309l.249-.098.232-.087Z" fill="#2F4077"/><path fill-rule="evenodd" clip-rule="evenodd" d="M140.178 111.53c0 0-8.473 3.579-5.857 5.993 1.706 1.363 7.023-1.988 6.994-3.635-.028-1.676-.455-2.216-1.137-2.358Z" fill="#fff"/><path fill-rule="evenodd" clip-rule="evenodd" d="m139.846 110.745-.29.128-.233.105a27.811 27.811 0 0 0-2.765 1.451c-1.507.908-2.611 1.808-3.176 2.732-.639 1.044-.56 2.138.36 2.988l.046.039c1.151.92 3.086.531 5.102-.613 1.889-1.072 3.299-2.492 3.278-3.702-.032-1.898-.584-2.92-1.816-3.177a.86.86 0 0 0-.506.049Zm.342 1.712.009.009c.162.163.25.548.266 1.436.006.357-1.042 1.412-2.416 2.191l-.095.053c-1.386.767-2.639 1.021-3.07.732l-.009-.007-.041-.041c-.218-.232-.211-.427.006-.782.383-.626 1.313-1.383 2.601-2.159a26.33 26.33 0 0 1 2.116-1.136l.247-.118.234-.108.152-.07Z" fill="#2F4077"/><path fill-rule="evenodd" clip-rule="evenodd" d="m119.65 123.658-3.952 24.311-16.037 7.072-.028-.029-43.104 17.524c-5.317 2.726-8.047 9.798-8.7 15.734l-6.569 40.272c-.739 4.516 2.36 8.748 6.881 9.401l54.62-.909c0 0 .312-1.59.796-3.777l18.765 3.067-9.638-54.501 22.064-11.815c2.53-1.363 3.667-5.68 3.81-8.549l1.677-37.801H119.65Z" fill="#465F9D"/><path fill-rule="evenodd" clip-rule="evenodd" d="M86.24 175.205c4.635-1.022 7.649-5.169 6.625-9.798l-2.985-13.49c-1.024-4.63-5.63-7.555-10.264-6.533-4.635 1.023-7.564 5.624-6.54 10.253l2.9 13.036c1.024 4.63 5.602 7.555 10.264 6.532Z" fill="#fff"/><path fill-rule="evenodd" clip-rule="evenodd" d="m79.585 144.52-.153.032c-5.092 1.124-8.314 6.178-7.188 11.269l2.9 13.037c1.114 5.036 6.056 8.238 11.127 7.212l.146-.031c5.177-1.142 8.392-5.794 7.282-10.816l-2.986-13.49c-1.112-5.03-6.077-8.242-11.128-7.213Zm9.463 7.58 2.985 13.491c.901 4.074-1.701 7.839-5.976 8.782l-.132.028c-4.153.841-8.202-1.784-9.115-5.912l-2.9-13.037-.027-.125c-.834-4.087 1.735-8.117 5.793-9.082l.122-.029.135-.028c4.132-.841 8.204 1.792 9.115 5.912Zm-1.983-25.262c0 0-7.279 12.298 1.223 15.99 0 0 3.696 1.448 5.345-.057 0 0-2.587-1.534-1.535-3.55 0 0 3.98 6.504 8.842 2.272 0 0-3.582-1.96-4.89-5.822-2.73-8.066-6.767-11.673-8.985-8.833Z" fill="#2F4077"/><path fill-rule="evenodd" clip-rule="evenodd" d="M67.276 145.526c0 0-6.88-13.377 6.625-20.534 1.251-.653 9.951-5.055 14.103 1.96 2.786 4.686 4.805 10.111 6.084 14.399 0 .029 2.53 8.094.825 13.604-1.706 5.51-8.871 7.413-13.307 6.447-4.435-.965-5.516-1.874-7.42-4.146-1.906-2.244-6.91-11.701-6.91-11.73Z" fill="#fff"/><path fill-rule="evenodd" clip-rule="evenodd" d="m68.404 145.839-.314-.594c.644 1.238.04.046.04.281a.85.85 0 0 0-.07-.337l-.088-.181-.069-.151a17.382 17.382 0 0 1-.69-1.828c-1.014-3.214-1.207-6.571-.08-9.679 1.1-3.032 3.405-5.611 7.168-7.605.595-.311 1.24-.609 2.047-.911 1.198-.448 2.416-.763 3.608-.89 3.116-.334 5.596.629 7.244 3.326l.07.117.165.28c2.356 4.031 4.341 8.918 5.836 13.927l.02-.006.225.89c.15.6.327 1.329.445 1.896.447 2.151.707 4.298.69 6.288-.015 1.518-.193 2.879-.553 4.041-.712 2.299-2.555 4.062-5.137 5.115-2.325.948-5.05 1.214-7.173.752l-.302-.067c-3.505-.783-4.606-1.413-6.413-3.519l-.234-.275c-.775-.913-2.208-3.246-3.988-6.405l-.09-.161a229.778 229.778 0 0 1-1.719-3.115l-.523-.973a29.26 29.26 0 0 1-.115-.216Zm26.509-4.707v.003l-.007-.027c-1.53-5.131-3.565-10.139-5.998-14.302l-.17-.288c-2.021-3.416-5.188-4.673-8.964-4.269-1.348.145-2.7.495-4.024.989a19.37 19.37 0 0 0-2.244.999c-4.134 2.191-6.73 5.095-7.977 8.533-1.274 3.512-1.06 7.232.057 10.772.2.634.416 1.21.631 1.718l.033.075c.116.271.209.466.268.58l.035-.018.027.062.062.135c1.032 2.211 5.42 9.923 6.848 11.659l.045.054c2.247 2.68 3.625 3.499 7.89 4.428 2.466.536 5.542.237 8.18-.839 3.024-1.233 5.247-3.359 6.123-6.189.414-1.336.613-2.857.628-4.53.02-2.126-.255-4.388-.725-6.649a39.152 39.152 0 0 0-.44-1.89l-.057-.216a35.569 35.569 0 0 0-.102-.373l-.12-.417Z" fill="#2F4077"/><path fill-rule="evenodd" clip-rule="evenodd" d="M87.376 138.089a.853.853 0 0 1 1.088.431l.02.046 2.9 7.299a.852.852 0 0 1-.45 1.095l-.047.019-2.389.88a.853.853 0 0 1-.637-1.58l.047-.018 1.568-.579-2.578-6.487a.853.853 0 0 1 .432-1.087l.046-.019Zm3.426 1.065c.39-.167.5-.782.245-1.373-.253-.591-.775-.934-1.165-.767-.39.167-.5.781-.246 1.372.254.591.776.935 1.166.768Zm-6.815 3.054c.413-.091.637-.674.498-1.302-.139-.628-.587-1.063-1.001-.972-.414.091-.637.674-.498 1.302.138.628.586 1.063 1 .972Zm-3.6-6.492a.853.853 0 0 1 .383 1.66l-.049.011a2.555 2.555 0 0 0-1.481.844 2.756 2.756 0 0 0-.476.785l-.03.085a.853.853 0 0 1-1.648-.442 3.32 3.32 0 0 1 .198-.517 4.42 4.42 0 0 1 .665-1.026 4.257 4.257 0 0 1 2.438-1.4Zm6.858-3.509c.794-.479 1.612-.753 2.436-.691.504.038.98.204 1.406.508a.852.852 0 0 1-.947 1.417l-.044-.03a1.04 1.04 0 0 0-.543-.196c-.406-.03-.907.137-1.425.45a5.02 5.02 0 0 0-.4.269l-.09.069c-.049.038-.088.071-.118.095l-.048.042a.853.853 0 0 1-1.154-1.255 6.04 6.04 0 0 1 .927-.678Z" fill="#2F4077"/><path fill-rule="evenodd" clip-rule="evenodd" d="M75.208 132.405c0 0 8.502 18.887-4.321 22.834 0 0-7.45 2.471-9.582.029 0 0 5.118-3.749 3.952-6.816 0 0-5.232 7.725-11.373 3.635 0 0 8.814-2.812 6.824-10.849-1.422-5.737 11.8-13.264 14.5-8.833Z" fill="#2F4077"/><path fill-rule="evenodd" clip-rule="evenodd" d="m52.86 141.55 7.28-3.692c-.91-5.425-.342-13.803 9.837-18.517 15.923-7.385 21.723 8.52 21.723 8.52l-36.451 18.404a2.612 2.612 0 0 1-3.526-1.165c-.682-1.306-.17-2.868 1.138-3.55Z" fill="#E4794A"/><path fill-rule="evenodd" clip-rule="evenodd" d="M83.943 150.14a.854.854 0 0 1 1.167.039l.037.039c.063.071.228.215.484.367.936.555 2.111.628 3.604-.137a.851.851 0 1 1 .779 1.516c-2.034 1.043-3.83.93-5.254.086a4.339 4.339 0 0 1-.64-.46 2.731 2.731 0 0 1-.255-.247.852.852 0 0 1 .078-1.203Z" fill="#2F4077"/><path fill-rule="evenodd" clip-rule="evenodd" d="M114.077 225.077c0 0 4.891-.284 10.094.625 3.099.54 8.359 1.448 8.899 2.244 1.251 1.874-3.497 2.84-5.743 1.278" fill="#fff"/><path fill-rule="evenodd" clip-rule="evenodd" d="M114.559 224.204c2.888-.092 6.338.061 9.758.659l2.161.381.853.158.346.066c2.053.393 3.587.75 4.596 1.098.765.265 1.239.513 1.506.907.515.772.455 1.62-.136 2.26-.435.472-1.124.796-1.955.973-1.65.353-3.591.092-4.849-.783a.851.851 0 0 1-.213-1.186.855.855 0 0 1 1.188-.213c.833.58 2.296.777 3.517.516.486-.104.854-.269 1.028-.431l.03-.031c.034-.037.046-.042.03-.072l-.021-.033-.042-.026-.058-.032a4.395 4.395 0 0 0-.583-.238c-.826-.286-2.12-.595-3.833-.933l-1.035-.199c-.748-.14-1.479-.27-2.824-.504-3.185-.556-6.42-.712-9.147-.641l-.422.013-.328.015a.853.853 0 0 1-.149-1.697l.068-.006.267-.012.247-.009Z" fill="#2F4077"/><path fill-rule="evenodd" clip-rule="evenodd" d="M127.185 231.865c4.407 1.335 4.89.341 3.952-1.59-.54-1.108-7.848-4.09-9.298-4.516-1.45-.426-9.269-.994-9.269-.994l-5.857-.625c-1.649 3.664-3.014 10.139-3.469 12.326 8.359-.255 19.761-.17 19.761-.17 4.379.284 2.929-1.676 1.137-2.329-1.819-.653-5.118-2.187-5.601-2.073 0 0 4.72 1.334 6.852 2.669 1.507.597 3.213-.426 3.355-.909.171-.482-1.222-1.789-3.525-2.953-2.303-1.165-5.289-2.187-5.289-2.187" fill="#fff"/><path fill-rule="evenodd" clip-rule="evenodd" d="M105.935 223.791a.853.853 0 0 1 .816-.502l.052.004 5.856.624.384.029.751.058 1.165.095c.695.058 1.384.118 2.047.179l.789.076c.969.094 1.813.187 2.5.276l.372.049c.648.091 1.116.176 1.413.263l.173.053c.925.298 2.924 1.095 4.688 1.883l.524.236c2.572 1.174 4.074 2.04 4.439 2.789.686 1.412.743 2.515-.309 3.128-.454.264-1.069.35-1.891.269l-.13-.014.004.016c.048.202.047.398-.009.585l-.002.008c-.243.824-1.447 1.517-2.729 1.661l-.097.009-.002.055c-.038.603-.461 1.062-1.111 1.305l-.071.025c-.556.189-1.325.258-2.328.212l-.256-.014-1.225-.007-1.235-.004c-3.538-.01-7.375.003-11.057.052l-1.353.02c-1.747.028-3.366.064-4.833.109a.853.853 0 0 1-.861-1.025l.118-.565c1.064-5.046 2.121-9.078 3.408-11.937Zm6.544 1.821-5.232-.558-.02.047c-1.019 2.468-1.917 5.841-2.805 9.927l-.12.555 1.167-.028c.705-.016 1.437-.03 2.194-.043l1.121-.018c4.104-.06 8.434-.073 12.356-.06l1.871.01.049.001c.82.054 1.423.023 1.799-.066l.013-.003-.038-.036-.051-.044a3.142 3.142 0 0 0-.929-.527l-.165-.06a43.168 43.168 0 0 1-1.379-.542l-1.868-.766-.283-.114-.305-.1-.34-.108-.31-.098a37.376 37.376 0 0 0-.293-.089l-.603-.179c-.846-.239-.819-1.447.037-1.649l.082-.017c.395-.075.761.013 2.171.578l.172.069.311.104c.465.157.925.319 1.371.485l.332.126c1.159.444 2.126.879 2.867 1.315l.115.068.02.008c.422.142.915.118 1.401-.049l.091-.033c.171-.066.329-.145.46-.228l.024-.016-.013-.015a4.029 4.029 0 0 0-.327-.323l-.068-.059c-.597-.518-1.483-1.093-2.517-1.616-.395-.2-.828-.404-1.294-.611a49.955 49.955 0 0 0-2.674-1.09l-.461-.172a44.78 44.78 0 0 0-.421-.152l-.33-.116a.852.852 0 0 1 .506-1.627l.063.02.335.118.285.103a54.958 54.958 0 0 1 3.391 1.359c.49.218.949.434 1.371.648.717.362 1.369.74 1.93 1.121l.05.034.133.04.293.083c.716.198 1.307.321 1.776.375l.087.01c.39.038.653.022.788-.017l.018-.006v-.011c-.01-.181-.099-.468-.274-.841l-.039-.081c-.106-.217-1.74-1.138-3.892-2.11l-.465-.208c-1.724-.761-3.623-1.512-4.366-1.739l-.049-.015c-.209-.061-.658-.14-1.291-.226l-.368-.048a93.524 93.524 0 0 0-2.701-.29c-.775-.074-1.593-.146-2.421-.215l-1.314-.107-1.024-.078Z" fill="#2F4077"/><path fill-rule="evenodd" clip-rule="evenodd" d="M75.925 198.951a.852.852 0 0 1 .791.86l-.002.051-1.107 15.376 31.519 3.71a.854.854 0 0 1 .752.896l-.005.05a.852.852 0 0 1-.897.751l-.05-.004-32.328-3.806a.852.852 0 0 1-.753-.857l.002-.05 1.166-16.189a.853.853 0 0 1 .862-.791l.05.003Z" fill="#fff"/><path fill-rule="evenodd" clip-rule="evenodd" d="M382 235.87a.853.853 0 0 1 .05 1.703l-.05.001H1.17a.852.852 0 0 1-.05-1.702l.05-.002H382Z" fill="#2F4077"/></svg>