<svg width="310" height="145" viewBox="0 0 310 145" fill="none" xmlns="http://www.w3.org/2000/svg">
<path fill-rule="evenodd" clip-rule="evenodd" d="M214.923 60.5843C244.854 58.8579 249.138 76.9341 248.006 90.6841C246.854 104.759 243.823 143.207 243.823 143.207C244.005 143.41 172.724 143.41 172.926 143.207C172.926 143.207 175.776 104.759 176.928 90.6841C178.06 76.9341 185.254 58.8376 214.923 60.5843Z" fill="#E4794A"/>
<path fill-rule="evenodd" clip-rule="evenodd" d="M237.595 97.3651L234.971 131.337C234.581 136.35 234.276 140.201 234.019 143.358C233.992 143.693 233.699 143.943 233.365 143.916C233.032 143.888 232.783 143.594 232.81 143.259L233.333 136.728C233.557 133.887 233.814 130.591 234.116 126.691L236.577 94.8353L236.913 90.6139C237.473 83.7853 236.564 77.6394 233.819 72.7369C230.452 66.7253 224.461 62.8334 215.403 61.5329C215.071 61.4853 214.841 61.1767 214.888 60.8435C214.936 60.5104 215.243 60.2789 215.574 60.3265C224.995 61.679 231.318 65.7866 234.875 72.1392C237.727 77.232 238.681 83.5358 238.139 90.5023L237.688 96.1756C237.658 96.5587 237.627 96.9551 237.595 97.3651Z" fill="#2F4077"/>
<path fill-rule="evenodd" clip-rule="evenodd" d="M176.928 108.68C176.928 108.659 160.8 111.219 160.8 111.219L159.082 127.406L159.689 140.12C163.165 140.201 166.924 139.958 170.905 139.227C173.411 138.759 176.099 136.606 176.827 134.149C178.019 130.067 178.302 118.815 176.928 108.68Z" fill="white"/>
<path fill-rule="evenodd" clip-rule="evenodd" d="M177.023 108.078L176.952 108.07L176.902 108.071C176.89 108.071 176.887 108.071 176.877 108.072L176.822 108.078L176.657 108.102L173.725 108.558L166.223 109.742L160.706 110.616C160.435 110.659 160.226 110.88 160.197 111.154L158.479 127.341C158.476 127.372 158.475 127.403 158.477 127.435L159.083 140.149C159.098 140.468 159.356 140.722 159.674 140.729C163.401 140.816 167.185 140.529 171.014 139.826C173.818 139.303 176.633 136.938 177.408 134.322L177.447 134.186C178.717 129.614 178.823 118.147 177.528 108.597L177.519 108.598L177.515 108.572C177.493 108.456 177.484 108.438 177.436 108.348L177.314 108.222C177.266 108.173 177.256 108.167 177.228 108.15L177.114 108.103C177.069 108.085 177.057 108.083 177.023 108.078ZM176.407 109.372L176.439 109.621C177.606 118.934 177.457 129.828 176.245 133.977C175.606 136.135 173.165 138.185 170.795 138.627L170.454 138.689C167.052 139.291 163.687 139.559 160.366 139.522L160.267 139.521L159.69 127.424L161.354 111.747L173.661 109.801L176.407 109.372Z" fill="#2F4077"/>
<path fill-rule="evenodd" clip-rule="evenodd" d="M165.893 143.817L169.127 124.867C169.127 124.867 166.095 121.069 166.338 115.707C166.358 115.362 166.378 114.996 166.419 114.631C166.398 114.55 160.032 112.478 159.668 111.706C159.911 107.339 163.448 95.7423 169.672 93.0613C171.673 92.1271 176.503 90.746 177.494 90.4007C182.102 88.8368 191.782 86.2777 200.189 87.9635C200.189 87.9635 213.043 90.0757 215.913 91.7818C217.469 92.7161 225.25 97.7733 226.725 111.767C226.745 111.991 213.286 116.723 213.286 116.723L211.952 143.796" fill="#465F9D"/>
<path fill-rule="evenodd" clip-rule="evenodd" d="M185.557 81.5453L185.436 88.9992L182.809 89.5069C182.364 90.1569 177.393 97.7935 188.629 98.7684C195.966 99.4184 204.05 95.0923 208.395 89.9538L201.2 87.9837L199.037 74.1523L185.557 81.5453Z" fill="white"/>
<path fill-rule="evenodd" clip-rule="evenodd" d="M185.267 81.0089L185.232 81.0297C185.061 81.1392 184.954 81.3282 184.951 81.5338L184.838 88.4925L182.694 88.9071C182.538 88.9373 182.399 89.0283 182.309 89.1602C182.021 89.5812 181.689 90.16 181.394 90.8483C180.932 91.9241 180.681 93.0042 180.733 94.045C180.881 96.9894 183.359 98.9212 188.577 99.374C195.664 100.002 204.031 96.0539 208.857 90.3468L208.88 90.3181C209.135 89.9779 208.971 89.4784 208.554 89.3644L201.738 87.4977L199.636 74.0563C199.571 73.6398 199.115 73.4141 198.747 73.616L185.267 81.0089ZM198.572 75.1001L200.601 88.0767L200.608 88.1158C200.657 88.3349 200.823 88.5104 201.041 88.57L207.291 90.2815L207.22 90.3582C202.552 95.3453 195.021 98.7215 188.683 98.16C184.008 97.7544 182.057 96.2335 181.944 93.9836C181.902 93.1545 182.113 92.2494 182.507 91.3309C182.655 90.9861 182.821 90.6581 182.996 90.3543L183.035 90.2864C183.074 90.2199 183.111 90.1577 183.147 90.1L183.175 90.0552L185.551 89.596L185.587 89.5878C185.85 89.5201 186.038 89.2834 186.042 89.0076L186.158 81.9086L198.572 75.1001Z" fill="#2F4077"/>
<rect width="3.38179" height="5.95919" transform="matrix(0.769965 0.638086 -0.634335 0.773058 212.286 43.1074)" fill="#E4794A"/>
<path fill-rule="evenodd" clip-rule="evenodd" d="M217.145 45.8389C220.427 45.8389 223.087 43.1655 223.087 39.8677C223.087 36.5699 220.427 33.8965 217.145 33.8965C213.864 33.8965 211.204 36.5699 211.204 39.8677C211.204 43.1655 213.864 45.8389 217.145 45.8389Z" fill="#2F4077"/>
<path fill-rule="evenodd" clip-rule="evenodd" d="M210.517 45.4331C206.091 42.4272 200.998 40.1525 195.561 40.6196C178.807 42.8334 174.745 53.4557 178.928 60.0362C181.556 52.4402 183.779 49.9217 187.073 48.9671C188.245 54.3087 196.592 62.3922 205.08 64.9513C205.1 64.931 202.817 72.6083 202.089 72.3443C201.826 72.7505 199.118 76.4266 199.118 76.4266L200.836 84.9976L219.934 87.3333C221.086 87.6379 222.299 86.7646 222.339 85.5866C222.562 78.2952 224.623 55.3446 210.517 45.4331Z" fill="#2F4077"/>
<path fill-rule="evenodd" clip-rule="evenodd" d="M199.704 74.1315L200.755 74.6798C200.755 74.6798 207.121 77.3608 209.001 71.2677C210.436 66.637 205.788 65.6011 203.443 65.3574" fill="white"/>
<path fill-rule="evenodd" clip-rule="evenodd" d="M202.84 65.2947C202.875 64.96 203.172 64.7167 203.506 64.7513C205.237 64.9313 206.799 65.3597 207.979 66.1629C209.669 67.3127 210.31 69.0938 209.58 71.4481C208.818 73.9192 207.291 75.2986 205.262 75.7313C204.038 75.9924 202.75 75.8895 201.509 75.563L201.355 75.5214C200.982 75.4174 200.697 75.3158 200.521 75.2418L200.498 75.2317L200.476 75.2206L199.425 74.6722C199.128 74.5171 199.012 74.1493 199.166 73.8507C199.315 73.5631 199.66 73.4445 199.95 73.5746L199.984 73.5907L201.01 74.1264L201.067 74.1483C201.093 74.1583 201.125 74.1699 201.161 74.1829L201.199 74.1963C201.381 74.26 201.588 74.3241 201.816 74.3841C202.89 74.6666 203.998 74.7551 205.01 74.5392C206.613 74.1974 207.791 73.1334 208.422 71.0865C208.991 69.2493 208.55 68.0233 207.299 67.1719C206.32 66.5057 204.931 66.1246 203.381 65.9635C203.048 65.9289 202.806 65.6294 202.84 65.2947Z" fill="#2F4077"/>
<path fill-rule="evenodd" clip-rule="evenodd" d="M178.929 60.0563C181.556 52.4602 183.658 50.2261 186.952 49.2715C188.104 54.5319 195.379 62.1888 204.858 64.9307C204.757 66.0478 204.878 65.0526 204.595 66.2509C204.211 67.4492 203.787 68.81 203.362 69.9474C201.483 74.1516 199.118 76.467 199.118 76.467C195.662 80.1431 190.974 82.3773 185.719 81.5039C176.564 79.9807 177.433 66.6774 177.958 63.8137C178.201 62.3716 178.908 60.0563 178.929 60.0563C178.908 60.0563 178.908 60.0563 178.929 60.0563Z" fill="white"/>
<path fill-rule="evenodd" clip-rule="evenodd" d="M186.672 48.7193C182.983 49.8305 180.87 52.5876 178.356 59.8563L178.358 59.8569L178.327 59.9409C178.097 60.5911 177.58 62.5099 177.384 63.5804L177.361 63.7122C176.919 66.1165 176.891 70.0285 177.617 73.2945C178.697 78.1517 181.265 81.3805 185.62 82.1052L185.775 82.1301C190.827 82.9149 195.648 80.9804 199.443 77.0078L199.552 76.8932L199.611 76.8332C199.705 76.7373 199.834 76.5989 199.993 76.4184C200.32 76.0487 200.674 75.614 201.046 75.1158C202.095 73.7072 203.081 72.0637 203.915 70.1972L203.93 70.1614C204.118 69.6567 204.312 69.0965 204.538 68.4106L204.738 67.7947L205.172 66.4378L205.179 66.4149L205.236 66.1839C205.266 66.0616 205.291 65.9709 205.311 65.9074L205.333 65.8419L205.346 65.8146L205.35 65.8047C205.386 65.7215 205.4 65.6682 205.41 65.5735L205.462 64.986C205.488 64.695 205.305 64.4262 205.026 64.3453C200.647 63.0787 196.503 60.6618 193.193 57.5976C190.166 54.7948 188.097 51.6654 187.544 49.1407C187.469 48.797 187.12 48.5887 186.784 48.6862L186.672 48.7193ZM186.447 50.0807L186.527 50.0507L186.529 50.0578C187.318 52.7133 189.423 55.7633 192.372 58.4938L192.524 58.634C195.79 61.6167 199.813 63.9936 204.088 65.3347L204.211 65.373L204.21 65.3809L204.192 65.4282C204.183 65.4525 204.174 65.4788 204.165 65.5078L204.155 65.5387C204.122 65.6446 204.083 65.788 204.036 65.9809L204.011 66.0857L203.515 67.6335L203.346 68.1504C203.156 68.7256 202.989 69.2076 202.829 69.6413L202.802 69.7137L202.809 69.6978C202.013 71.4785 201.073 73.0456 200.075 74.3854C199.725 74.8557 199.392 75.2642 199.087 75.6092L198.983 75.7249C198.95 75.7616 198.918 75.7964 198.888 75.8295L198.779 75.9447L198.678 76.0487C195.089 79.8664 190.553 81.6898 185.818 80.9029C182.028 80.2724 179.783 77.4493 178.8 73.0287C178.112 69.9345 178.14 66.1854 178.555 63.9243C178.658 63.3112 178.856 62.4849 179.102 61.5886L179.165 61.3639C179.217 61.1788 179.269 61.0002 179.317 60.8369L179.415 60.5121L179.481 60.3052L179.486 60.2959C179.492 60.283 179.497 60.2698 179.501 60.2564L179.636 59.8702C181.827 53.6385 183.61 51.155 186.447 50.0807Z" fill="#2F4077"/>
<path fill-rule="evenodd" clip-rule="evenodd" d="M185.996 58.3414C186.135 58.0351 186.494 57.8999 186.799 58.0393C187.093 58.1738 187.228 58.5145 187.113 58.8133L187.1 58.8463L182.971 67.9591L184.864 68.4648C185.176 68.5481 185.367 68.8613 185.303 69.1752L185.295 69.2101C185.212 69.5237 184.9 69.7149 184.588 69.6507L184.553 69.6425L181.966 68.952C181.615 68.8583 181.427 68.4794 181.556 68.144L181.57 68.1106L185.996 58.3414Z" fill="#2F4077"/>
<path fill-rule="evenodd" clip-rule="evenodd" d="M190.071 58.3627C191.349 57.9265 192.438 58.3954 193.271 59.3871C193.474 59.6297 193.648 59.8871 193.793 60.1447C193.882 60.3017 193.943 60.4275 193.977 60.5077C194.108 60.8172 193.965 61.1752 193.657 61.3075C193.361 61.435 193.019 61.306 192.877 61.0192L192.836 60.9316C192.814 60.8856 192.781 60.822 192.738 60.7453C192.628 60.5496 192.496 60.3537 192.344 60.1732C191.802 59.5274 191.195 59.2661 190.461 59.5165C190.144 59.6248 189.8 59.4542 189.692 59.1356C189.585 58.817 189.754 58.4709 190.071 58.3627Z" fill="#2F4077"/>
<path fill-rule="evenodd" clip-rule="evenodd" d="M186.981 72.3864C187.214 72.1448 187.598 72.1388 187.839 72.373C188.079 72.6072 188.085 72.9929 187.852 73.2345C187.389 73.715 186.797 73.9945 186.12 74.1044C185.477 74.209 184.809 74.1562 184.162 74.007L184.044 73.9786C183.854 73.9312 183.707 73.885 183.611 73.85C183.297 73.7345 183.135 73.3847 183.25 73.0686C183.361 72.7638 183.688 72.6017 183.994 72.694L184.08 72.723C184.093 72.7272 184.108 72.7319 184.125 72.7372C184.216 72.7649 184.319 72.793 184.433 72.8193C184.94 72.9363 185.46 72.9773 185.927 72.9015C186.335 72.8352 186.672 72.6834 186.933 72.4343L186.981 72.3864Z" fill="#2F4077"/>
<path fill-rule="evenodd" clip-rule="evenodd" d="M180.206 56.2389C181.194 55.8013 182.209 56.0342 183.158 56.6538C183.508 56.8827 183.773 57.1124 183.931 57.2767C184.164 57.5183 184.158 57.9041 183.918 58.1383C183.687 58.3631 183.324 58.3665 183.089 58.1526L183.026 58.0909C183.001 58.0667 182.965 58.0339 182.919 57.9945C182.794 57.886 182.652 57.7769 182.497 57.6756C181.856 57.2573 181.235 57.1148 180.695 57.354C180.583 57.4038 180.472 57.4706 180.361 57.5562L180.306 57.6006C180.049 57.8157 179.667 57.7803 179.453 57.5215C179.239 57.2628 179.274 56.8786 179.531 56.6635C179.745 56.4848 179.971 56.3433 180.206 56.2389Z" fill="#2F4077"/>
<path fill-rule="evenodd" clip-rule="evenodd" d="M189.804 62.9232C189.97 62.1788 189.716 61.4881 189.236 61.3803C188.757 61.2726 188.234 61.7887 188.068 62.533C187.903 63.2774 188.157 63.9682 188.636 64.0759C189.116 64.1837 189.638 63.6676 189.804 62.9232Z" fill="#2F4077"/>
<path fill-rule="evenodd" clip-rule="evenodd" d="M181.518 61.3392C181.683 60.5948 181.429 59.9041 180.95 59.7963C180.471 59.6886 179.948 60.2047 179.782 60.9491C179.616 61.6934 179.871 62.3842 180.35 62.492C180.829 62.5997 181.352 62.0836 181.518 61.3392Z" fill="#2F4077"/>
<path fill-rule="evenodd" clip-rule="evenodd" d="M186.461 61.7036C185.486 66.0123 187.362 70.1753 190.758 70.9558C194.155 71.7362 197.636 68.804 198.611 64.4954C199.586 60.1867 197.71 56.0236 194.313 55.2431C190.917 54.4627 187.436 57.3949 186.461 61.7036ZM187.644 61.9755C188.484 58.2619 191.384 55.819 194.045 56.4303C196.705 57.0415 198.268 60.5099 197.428 64.2235C196.588 67.937 193.687 70.3799 191.027 69.7686C188.367 69.1574 186.804 65.689 187.644 61.9755Z" fill="#E4794A"/>
<path fill-rule="evenodd" clip-rule="evenodd" d="M171.795 58.8833C170.82 63.1919 172.696 67.355 176.093 68.1355C179.489 68.9159 182.971 65.9837 183.945 61.675C184.92 57.3664 183.044 53.2033 179.648 52.4228C176.251 51.6424 172.77 54.5746 171.795 58.8833ZM172.978 59.1551C173.818 55.4416 176.719 52.9987 179.379 53.61C182.039 54.2212 183.602 57.6896 182.762 61.4032C181.922 65.1167 179.022 67.5596 176.361 66.9483C173.701 66.3371 172.138 62.8687 172.978 59.1551Z" fill="#E4794A"/>
<path fill-rule="evenodd" clip-rule="evenodd" d="M183.193 60.3667C183.276 60.0532 183.588 59.8621 183.9 59.9265L183.935 59.9347L187.35 60.8487C187.674 60.9353 187.866 61.2691 187.78 61.5943C187.697 61.9078 187.385 62.0989 187.073 62.0345L187.038 62.0263L183.623 61.1123C183.299 61.0257 183.107 60.6919 183.193 60.3667Z" fill="#E4794A"/>
<path fill-rule="evenodd" clip-rule="evenodd" d="M197.702 62.8673C197.816 62.5636 198.145 62.4049 198.45 62.5003L198.483 62.5119L205.617 65.2132C205.931 65.3319 206.089 65.6833 205.971 65.9982C205.857 66.3019 205.528 66.4607 205.224 66.3652L205.19 66.3536L198.056 63.6523C197.742 63.5337 197.584 63.1822 197.702 62.8673Z" fill="#E4794A"/>
<path fill-rule="evenodd" clip-rule="evenodd" d="M63.8732 32.3324C63.8732 31.9262 60.6598 27.1939 59.6695 25.6097C58.6793 24.0255 61.064 22.6037 62.6606 24.98C64.237 27.3563 65.3081 29.4686 65.3081 29.4686" fill="white"/>
<path fill-rule="evenodd" clip-rule="evenodd" d="M59.9797 23.2392C61.0404 22.8345 62.294 23.3448 63.165 24.6412C63.8635 25.6941 64.5152 26.7709 65.1031 27.8144L65.2369 28.0535C65.3457 28.2489 65.4473 28.4346 65.5414 28.6092L65.6834 28.8748L65.8333 29.1619C65.8396 29.1741 65.8446 29.1839 65.8483 29.1911C66.0003 29.491 65.8817 29.8579 65.5834 30.0107C65.2961 30.1578 64.9469 30.0527 64.7856 29.777L64.7624 29.7337L64.6705 29.5565C64.6433 29.5047 64.6136 29.4484 64.5813 29.3878L64.475 29.1893C64.3468 28.9514 64.2041 28.6921 64.0478 28.4148C63.4736 27.3955 62.8369 26.3435 62.1581 25.3202C61.5846 24.4666 60.9046 24.1898 60.4102 24.3785C60.0414 24.5192 59.9221 24.8675 60.1829 25.2847L60.3119 25.4892C60.425 25.6671 60.5629 25.8811 60.7339 26.1441L62.2048 28.3935C63.9726 31.1033 64.4795 31.9276 64.4795 32.3315C64.4795 32.6681 64.208 32.9408 63.8732 32.9408C63.5861 32.9408 63.3457 32.7404 63.2829 32.4712L63.276 32.438L63.2702 32.4245C63.2536 32.3869 63.2292 32.337 63.1974 32.2762L63.1557 32.1982C63.056 32.0148 62.9117 31.7689 62.7255 31.4646L62.4789 31.0665C62.221 30.6543 61.9097 30.1681 61.5268 29.5781L59.6332 26.679C59.4304 26.3662 59.277 26.1264 59.1561 25.933C58.4855 24.8602 58.8997 23.6513 59.9797 23.2392Z" fill="#2F4077"/>
<path fill-rule="evenodd" clip-rule="evenodd" d="M67.0259 39.2185C67.0259 39.2185 64.1965 34.5268 63.9338 32.5973C63.671 30.6679 63.3679 21.5282 63.7721 20.6143C64.1763 19.7003 65.8537 19.7003 65.8941 21.9141C65.9345 24.1279 65.8941 28.8602 65.8941 28.8602" fill="white"/>
<path fill-rule="evenodd" clip-rule="evenodd" d="M63.218 20.3668C63.5479 19.6208 64.3939 19.2507 65.1649 19.5145C65.9815 19.7939 66.4777 20.6646 66.5003 21.903L66.5081 22.4411C66.5144 22.9922 66.5177 23.6624 66.5183 24.4308L66.5177 25.4152C66.5172 25.7123 66.5163 26.0148 66.5152 26.3204L66.5085 27.7004L66.5004 28.8655C66.4975 29.202 66.2237 29.4724 65.8889 29.4695C65.566 29.4668 65.3043 29.2108 65.2886 28.8908L65.2886 28.761L65.2968 27.5479L65.3026 26.3162C65.3037 26.0113 65.3046 25.7095 65.3051 25.4132L65.3049 23.9312C65.3028 23.1211 65.2973 22.442 65.2879 21.9253C65.2739 21.1567 65.049 20.7621 64.7741 20.6681C64.5963 20.6073 64.4008 20.6927 64.3261 20.8617C64.0354 21.519 64.2278 30.263 64.5344 32.5147C64.6115 33.0806 64.9756 34.0355 65.5542 35.2353C65.6951 35.5274 65.8469 35.8305 66.0081 36.1425C66.2881 36.6844 66.5853 37.2316 66.8853 37.7643L67.0655 38.082C67.1376 38.2083 67.2068 38.3283 67.2724 38.4412L67.5444 38.9027C67.7179 39.1905 67.6265 39.5652 67.3401 39.7396C67.0644 39.9075 66.7084 39.8285 66.5274 39.5655L66.4709 39.4734L66.3704 39.3038C66.2627 39.121 66.1429 38.9146 66.0139 38.6888C65.6453 38.0435 65.2766 37.371 64.932 36.7042C64.7658 36.3826 64.609 36.0694 64.463 35.7667L64.3539 35.5382C63.785 34.334 63.4268 33.3686 63.333 32.68L63.3147 32.5347C63.1901 31.4776 63.0616 28.9715 63.0023 26.4831L62.9891 25.8735C62.9303 22.8723 62.9862 20.8911 63.218 20.3668Z" fill="#2F4077"/>
<path fill-rule="evenodd" clip-rule="evenodd" d="M65.0049 35.9281C64.3582 33.6533 63.9338 31.8254 64.0146 31.2161C64.2571 29.2257 66.46 20.3298 67.228 19.6392C67.996 18.9487 69.4107 20.4922 68.8246 22.6655L67.3493 28.9616C67.3493 28.9616 69.5926 22.1577 70.118 21.4468C70.6435 20.736 72.7655 21.8124 71.1689 25.9151C69.5724 29.9975 69.7542 30.424 69.7542 30.424C69.7542 30.424 71.9167 25.5698 72.5432 24.7574C73.1697 23.945 75.2311 25.976 72.5634 30.2615L79.0508 44.0319L68.9054 48.297C68.9054 48.297 66.4398 41.0463 65.0049 35.9281Z" fill="white"/>
<path fill-rule="evenodd" clip-rule="evenodd" d="M66.8238 19.1843C67.5282 18.5509 68.4751 18.8845 69.0396 19.7412C69.3079 20.1484 69.4807 20.6437 69.5431 21.186L69.5461 21.2147L69.5572 21.196C69.5783 21.1606 69.5983 21.1293 69.6173 21.1022L69.6314 21.0827C70.2236 20.2814 71.404 20.5912 71.9649 21.5713C72.3277 22.2053 72.4477 23.0562 72.2985 24.0891L72.287 24.165L72.3169 24.1439C72.6479 23.9203 73.0728 23.9154 73.4505 24.1217L73.4956 24.1474C73.9003 24.3891 74.2115 24.8498 74.3729 25.4339C74.7131 26.6654 74.3934 28.3065 73.3268 30.1669L73.2512 30.2966L79.5989 43.7703C79.7416 44.0732 79.6137 44.4324 79.3184 44.5779L79.2849 44.5932L69.1395 48.8583C68.827 48.9897 68.4707 48.8381 68.3444 48.5272L68.3271 48.4794L67.8798 47.1477C67.7792 46.846 67.6736 46.5278 67.5637 46.1952C66.988 44.4528 66.4122 42.6709 65.8747 40.952L65.6963 40.3792C65.6376 40.19 65.5797 40.0026 65.5227 39.8171L65.3161 39.1416C65.0241 38.1807 64.7597 37.2852 64.5267 36.4655L64.3189 35.7295C63.6605 33.3775 63.3371 31.8455 63.4089 31.1746L63.4129 31.1412C63.5366 30.126 64.1355 27.4523 64.8068 24.9023L64.9331 24.4267C65.7269 21.4634 66.3535 19.6072 66.8238 19.1843ZM67.6833 20.0893L67.6609 20.0817C67.6476 20.078 67.645 20.0811 67.6323 20.0925C67.1272 20.5467 64.9469 28.7733 64.6248 31.2233L64.6156 31.2958C64.5586 31.726 64.891 33.2842 65.5265 35.5427L65.6928 36.1314C65.9414 37.0061 66.2266 37.9693 66.5435 39.0077L66.6812 39.4574C66.7947 39.8265 66.9116 40.2032 67.0315 40.5867C67.5 42.0847 67.9979 43.6316 68.4994 45.1583L68.9277 46.4544L69.2709 47.482L78.2312 43.715L72.0155 30.5214C71.933 30.3462 71.9386 30.1428 72.0288 29.9733L72.0495 29.9375C73.1477 28.1734 73.4689 26.7169 73.2045 25.7599C73.1421 25.5339 73.0518 25.3669 72.9632 25.2693L72.9414 25.2465L72.8864 25.335C72.6589 25.7097 72.2836 26.4389 71.8193 27.4037L71.7061 27.6398L71.6321 27.7951C71.3706 28.3455 71.0986 28.9308 70.8288 29.5205L70.4632 30.3255L70.3077 30.6722C70.0917 31.1568 69.4052 31.1513 69.197 30.6632C69.1752 30.6121 69.161 30.5597 69.1523 30.505C69.0756 30.0188 69.4408 28.6674 70.6043 25.6924C71.2532 24.025 71.2844 22.8266 70.9137 22.1788C70.8132 22.0033 70.6971 21.9004 70.5993 21.8645L70.5744 21.8565L70.5469 21.9064C70.3694 22.2432 69.981 23.2319 69.4891 24.5988L69.3592 24.962L69.2123 25.3768L69.0167 25.9354C68.8524 26.4072 68.6854 26.8932 68.5187 27.3834L68.1894 28.3585L67.9248 29.1525C67.6855 29.8783 66.6171 29.5875 66.7516 28.8574L66.7592 28.8212L68.2345 22.525L68.2394 22.5053C68.4631 21.6759 68.3545 20.9087 68.0286 20.414C67.9108 20.2352 67.7818 20.124 67.6833 20.0893Z" fill="#2F4077"/>
<path fill-rule="evenodd" clip-rule="evenodd" d="M162.134 89.7701C162.134 89.7701 166.156 87.8204 167.732 87.7391C169.309 87.6579 176.786 88.1656 177.494 88.5718C178.201 88.978 178.059 90.3591 176.261 90.1967C174.442 90.0545 170.642 89.6077 170.642 89.6077" fill="white"/>
<path fill-rule="evenodd" clip-rule="evenodd" d="M167.701 87.1312L167.826 87.1258C169.975 87.0518 177.037 87.6084 177.794 88.0434C178.422 88.4036 178.67 89.1909 178.368 89.8524C178.058 90.5311 177.291 90.8827 176.284 90.8104L175.977 90.7854C175.48 90.7437 174.85 90.6827 174.113 90.6061L173.393 90.53C172.909 90.4781 172.413 90.4233 171.92 90.3679L170.572 90.2134C170.239 90.1743 170.001 89.8716 170.04 89.5374C170.078 89.2151 170.359 88.9811 170.677 88.9999L171.566 89.1015L172.546 89.2118C172.71 89.2299 172.874 89.2479 173.036 89.2657L173.989 89.368L174.819 89.4533C175.302 89.5017 175.726 89.5414 176.081 89.5713L176.315 89.5903C176.896 89.6428 177.188 89.5134 177.266 89.3437C177.307 89.2542 177.273 89.1476 177.193 89.1014C176.704 88.8209 169.647 88.2696 167.817 88.3457L167.763 88.3482C167.306 88.3718 166.491 88.6053 165.459 88.997C165.198 89.0957 164.928 89.203 164.649 89.3178C164.116 89.537 163.578 89.7722 163.064 90.0075L162.807 90.1263L162.397 90.3195C162.096 90.4657 161.733 90.3385 161.588 90.0354C161.442 89.7323 161.569 89.3681 161.871 89.2219L162.059 89.132C162.208 89.0614 162.377 88.9829 162.562 88.8984C163.089 88.657 163.641 88.4156 164.189 88.19C164.478 88.0711 164.759 87.9596 165.031 87.8568L165.249 87.7749C166.292 87.3897 167.12 87.1611 167.701 87.1312Z" fill="#2F4077"/>
<path fill-rule="evenodd" clip-rule="evenodd" d="M156.152 89.6487C156.152 89.6487 160.699 89.1612 164.943 88.3691L156.152 89.6487Z" fill="white"/>
<path fill-rule="evenodd" clip-rule="evenodd" d="M164.832 87.7701C165.162 87.7087 165.478 87.9271 165.539 88.2579C165.6 88.5888 165.383 88.9068 165.054 88.9682C164.791 89.0173 164.523 89.066 164.25 89.1142C162.617 89.4027 160.878 89.665 159.131 89.8974L158.338 90.0007C157.891 90.0579 157.468 90.1098 157.075 90.1563L156.216 90.2546C155.883 90.2903 155.584 90.048 155.549 89.7134C155.513 89.3787 155.754 89.0785 156.087 89.0429L156.586 88.9868L157.102 88.926C157.557 88.8715 158.049 88.8101 158.572 88.742C160.437 88.4989 162.301 88.2212 164.04 87.914C164.309 87.8664 164.573 87.8185 164.832 87.7701Z" fill="#2F4077"/>
<path fill-rule="evenodd" clip-rule="evenodd" d="M162.377 89.0593C164.256 88.7141 168.399 87.7188 168.884 87.8407C170.481 88.2063 177.494 90.7857 177.979 91.4559C178.464 92.1465 177.11 93.162 175.392 92.4918L170.42 90.7451C170.42 90.7451 175.735 93.162 176.261 93.6495C176.786 94.1369 175.735 95.782 172.562 94.1166C169.389 92.4715 169.026 92.573 169.026 92.573C169.026 92.573 172.765 94.7462 173.391 95.3352C174.018 95.9242 172.178 97.4272 168.925 94.8681L162.558 97.285C161.083 97.2241 150.15 93.7104 150.837 92.7152C151.524 91.72 156.273 85.0176 156.273 85.0176L162.377 89.0593Z" fill="white"/>
<path fill-rule="evenodd" clip-rule="evenodd" d="M168.825 95.557L168.903 95.6139C170.333 96.6486 171.657 97.0565 172.711 96.8835C173.227 96.7987 173.654 96.5702 173.903 96.2328L173.931 96.1926C174.104 95.9358 174.16 95.638 174.09 95.3642L174.086 95.3494L174.099 95.3526C174.862 95.5203 175.519 95.481 176.044 95.2475L176.09 95.2262C176.899 94.8395 177.27 93.9444 176.794 93.3346L176.774 93.3092L176.801 93.3071C177.16 93.2737 177.496 93.1783 177.79 93.0252C178.581 92.6136 178.963 91.8012 178.474 91.1046C178.154 90.662 176.732 90.0012 174.404 89.096L174.065 88.965C172.044 88.1879 169.921 87.4613 169.062 87.2567L168.988 87.2397C168.648 87.1698 167.964 87.2759 166.176 87.6475L163.126 88.2918C162.912 88.336 162.749 88.3687 162.596 88.3983L162.506 88.4153L156.607 84.5088C156.345 84.3353 155.997 84.3921 155.802 84.6342L155.47 85.1002L150.773 91.7463C150.57 92.0349 150.423 92.2448 150.339 92.3678C150.004 92.8529 150.237 93.2918 150.702 93.669C150.973 93.8888 151.374 94.1257 151.903 94.3872C152.825 94.8428 154.142 95.3745 155.684 95.9246L155.884 95.9958C158.696 96.9896 161.721 97.8602 162.534 97.8938C162.615 97.8971 162.696 97.884 162.773 97.855L168.825 95.557ZM156.428 85.8497L162.043 89.5681C162.173 89.6545 162.332 89.6869 162.486 89.6587L162.873 89.5856C163.042 89.5527 163.227 89.5154 163.476 89.4635L166.207 88.8858C166.792 88.764 167.227 88.6769 167.613 88.6055L167.837 88.5649C168.104 88.5177 168.323 88.4834 168.493 88.4625C168.577 88.4522 168.647 88.4454 168.702 88.4421L168.762 88.4397L168.771 88.4397L168.865 88.4629C169.675 88.6699 171.518 89.2991 173.325 89.986L173.72 90.1374L174.087 90.2803C175.775 90.9436 177.114 91.5493 177.426 91.7616L177.45 91.7787L177.435 91.7965C177.394 91.842 177.326 91.8946 177.232 91.9431C176.85 92.1421 176.282 92.1673 175.678 91.949L175.592 91.9166L170.62 90.1699C169.902 89.9175 169.479 90.9463 170.137 91.2844L171.086 91.721L171.6 91.96C172.028 92.1594 172.451 92.3586 172.858 92.5528L173.351 92.7891C173.946 93.0762 174.46 93.3308 174.873 93.5442L175.087 93.6557L175.26 93.7483C175.406 93.8273 175.53 93.8969 175.627 93.9535L175.733 94.0173L175.722 94.0278C175.684 94.063 175.628 94.1 175.553 94.1332C175.045 94.359 174.145 94.2439 172.925 93.6189L172.463 93.3805C170.343 92.2958 169.375 91.9319 168.976 91.9655L168.959 91.9672C168.914 91.9735 168.914 91.9735 168.863 91.9859C168.357 92.1272 168.261 92.7986 168.691 93.0814L168.771 93.1291L169.414 93.507C169.859 93.7707 170.304 94.0376 170.727 94.2957L171.135 94.5459L171.456 94.7461C171.96 95.0619 172.367 95.3277 172.641 95.521L172.767 95.612L172.745 95.621C172.682 95.6448 172.605 95.666 172.515 95.6808C171.747 95.8071 170.616 95.4247 169.298 94.3882L169.264 94.3633C169.102 94.2529 168.895 94.2279 168.71 94.2981L162.472 96.6663L162.446 96.663C161.569 96.5457 158.669 95.6968 156.089 94.7762L155.802 94.6728C154.472 94.1915 153.335 93.7299 152.524 93.3357L152.364 93.2565L152.21 93.1781C151.939 93.0369 151.723 92.9092 151.569 92.8L151.535 92.7753L153.011 90.679L156.428 85.8497Z" fill="#2F4077"/>
<path fill-rule="evenodd" clip-rule="evenodd" d="M143.46 9.54582C143.46 9.54582 131.273 0.548363 129.758 1.05612L122.947 0.446812C115.004 -0.264049 107.992 5.62594 107.264 13.6079L98.4323 57.6812L138.691 63.0431L142.369 21.6101C142.631 21.4883 142.894 21.3461 143.137 21.1836C146.047 19.2135 146.067 14.3187 143.46 9.54582Z" fill="#2F4077"/>
<path fill-rule="evenodd" clip-rule="evenodd" d="M161.022 85.9731L147.401 76.346L151.382 63.185C152.938 56.4216 151.605 47.871 144.349 45.3728C140.853 44.1745 139.681 43.8496 139.276 43.7074C139.276 43.7074 116.48 37.5331 113.65 36.4566C111.71 35.7255 103.545 36.0504 97.5631 41.7779L84.366 51.9331L77.7371 32.6992L62.0542 39.1579L72.3815 70.0499C72.3815 70.0499 75.7768 82.0126 84.851 77.585L98.7555 69.4812C98.8566 74.1322 98.897 80.5909 96.5122 87.3339C92.9957 97.2657 91.197 107.725 91.2172 118.246C91.2374 130.9 91.2778 142.578 91.2778 142.578L150.756 143.106C150.756 143.106 140.954 97.9359 140.954 94.0363C140.914 93.752 140.914 93.4473 140.893 93.1427C145.926 96.3517 152.17 99.1951 152.17 99.1951L161.022 85.9731Z" fill="#E4794A"/>
<path fill-rule="evenodd" clip-rule="evenodd" d="M141.417 53.3021C141.737 53.2004 142.077 53.3779 142.179 53.6987L142.688 55.2859C143.099 56.5557 143.596 58.0854 143.729 58.5067L143.836 58.8463C144.344 60.4629 144.703 61.724 144.983 62.9212C145.727 66.0939 145.863 68.6866 145.302 71.2001C144.557 74.5307 142.559 77.6846 138.986 81.0065L138.845 81.1363L143.045 102.795C143.106 103.114 142.909 103.423 142.6 103.502L142.565 103.51C142.248 103.572 141.941 103.374 141.862 103.063L141.854 103.028L137.59 81.0324C137.549 80.8223 137.621 80.6062 137.78 80.463C141.427 77.1651 143.407 74.115 144.119 70.9331C144.635 68.6223 144.507 66.208 143.803 63.2005L143.745 62.9587C143.471 61.8245 143.12 60.6054 142.627 59.0452L142.32 58.0889C141.93 56.8815 141.254 54.8007 141.023 54.0671C140.921 53.7464 141.098 53.4038 141.417 53.3021Z" fill="#2F4077"/>
<path fill-rule="evenodd" clip-rule="evenodd" d="M99.5437 69.5613L111.468 62.1074L99.5437 69.5613Z" fill="white"/>
<path fill-rule="evenodd" clip-rule="evenodd" d="M111.147 61.5901C111.432 61.4123 111.805 61.4999 111.982 61.7856C112.153 62.0608 112.078 62.4194 111.819 62.6043L111.788 62.6248L99.8639 70.0787C99.5795 70.2564 99.2057 70.1689 99.0288 69.8831C98.8585 69.608 98.933 69.2494 99.1926 69.0645L99.2234 69.0439L111.147 61.5901Z" fill="#2F4077"/>
<path fill-rule="evenodd" clip-rule="evenodd" d="M84.7005 51.7363C84.9646 51.5293 85.3456 51.5767 85.5515 51.8421L85.6496 51.9723L85.6971 52.0369C85.8088 52.1895 85.9329 52.3648 86.0661 52.5607C86.4459 53.1189 86.8254 53.7316 87.1802 54.3815C87.885 55.6727 88.4042 56.9472 88.6589 58.1575C88.9161 59.3795 88.8929 60.4937 88.5315 61.4677C88.4145 61.783 88.0653 61.9433 87.7516 61.8258C87.4378 61.7082 87.2783 61.3573 87.3953 61.042C87.6673 60.309 87.6857 59.4226 87.4725 58.4097C87.2457 57.332 86.7694 56.1626 86.117 54.9676C85.7826 54.355 85.4237 53.7756 85.0651 53.2485L84.9602 53.0958C84.8918 52.9973 84.8267 52.9055 84.7655 52.821L84.6151 52.6174C84.6072 52.6069 84.6006 52.5983 84.5953 52.5915C84.3893 52.3261 84.4365 51.9432 84.7005 51.7363Z" fill="#2F4077"/>
<path fill-rule="evenodd" clip-rule="evenodd" d="M133.901 33.5722L134.022 42.5087L138.69 43.9102C138.893 44.7023 137.094 58.2492 125.231 54.7762C117.45 52.5014 114.58 43.8289 114.115 36.9031L120.603 39.0763L120.178 22.3203L133.901 33.5722Z" fill="white"/>
<path fill-rule="evenodd" clip-rule="evenodd" d="M119.572 22.3351L119.974 38.2227L114.307 36.3243C113.898 36.1873 113.481 36.511 113.51 36.9434C113.774 40.8741 114.737 44.7246 116.394 47.8681C118.378 51.6348 121.267 54.2512 125.061 55.3605C130.548 56.9666 134.507 55.2522 136.998 51.2659C137.885 49.8479 138.526 48.2217 138.93 46.5756L138.969 46.4104C139.247 45.2297 139.373 44.1308 139.278 43.7581L139.267 43.7197C139.205 43.5308 139.055 43.383 138.864 43.3256L134.622 42.0522L134.507 33.5632C134.505 33.383 134.423 33.2132 134.284 33.0994L120.561 21.8474C120.16 21.5181 119.559 21.8143 119.572 22.3351ZM120.818 23.6304L133.298 33.8639L133.416 42.5163L133.417 42.5541C133.436 42.8044 133.607 43.0192 133.848 43.0918L138.086 44.3637L138.083 44.4014C138.076 44.4844 138.067 44.5754 138.055 44.6728C137.998 45.14 137.896 45.6976 137.752 46.2839C137.377 47.8118 136.783 49.3192 135.972 50.6177C133.758 54.1601 130.345 55.6379 125.4 54.1904C121.944 53.18 119.305 50.79 117.465 47.2979L117.38 47.1347C116.003 44.4574 115.139 41.2282 114.806 37.8871L114.794 37.7722L120.411 39.6536C120.81 39.7872 121.219 39.4823 121.209 39.06L120.818 23.6304Z" fill="#2F4077"/>
<path fill-rule="evenodd" clip-rule="evenodd" d="M114.909 25.6594C115.06 25.3595 115.425 25.24 115.724 25.3925C116.022 25.545 116.141 25.9118 115.989 26.2118C115.427 27.3232 115.224 28.8727 115.463 30.4968C115.907 33.4914 117.682 35.6404 119.318 35.4451C119.651 35.4054 119.952 35.6441 119.992 35.9782C120.031 36.3124 119.794 36.6155 119.461 36.6552C117.027 36.9459 114.792 34.2409 114.263 30.6757C113.989 28.8124 114.226 27.0088 114.909 25.6594Z" fill="#E4794A"/>
<path fill-rule="evenodd" clip-rule="evenodd" d="M142.414 24.888C142.566 24.588 142.931 24.4685 143.23 24.621C143.528 24.7735 143.647 25.1403 143.495 25.4403C142.933 26.5517 142.73 28.1012 142.968 29.7253C143.413 32.7199 145.188 34.8689 146.824 34.6736C147.157 34.6339 147.458 34.8726 147.498 35.2068C147.537 35.5409 147.3 35.844 146.967 35.8837C144.533 36.1744 142.298 33.4694 141.769 29.9042C141.495 28.041 141.732 26.2373 142.414 24.888Z" fill="#E4794A"/>
<path fill-rule="evenodd" clip-rule="evenodd" d="M121.155 24.3023C122.194 22.1537 121.215 19.521 118.966 18.4219C116.718 17.3229 114.052 18.1738 113.012 20.3224C111.972 22.4711 112.952 25.1038 115.201 26.2028C117.449 27.3019 120.115 26.451 121.155 24.3023Z" fill="white"/>
<path fill-rule="evenodd" clip-rule="evenodd" d="M112.463 20.0515C111.276 22.5065 112.394 25.5005 114.94 26.7463C117.486 27.9921 120.517 27.0286 121.704 24.5735C122.891 22.1185 121.773 19.1245 119.227 17.8787C116.681 16.6329 113.649 17.5964 112.463 20.0515ZM113.554 20.5856C114.443 18.7478 116.743 18.0168 118.698 18.9735C120.653 19.9302 121.501 22.2017 120.613 24.0394C119.724 25.8772 117.424 26.6082 115.469 25.6515C113.514 24.6949 112.666 22.4233 113.554 20.5856Z" fill="#2F4077"/>
<path fill-rule="evenodd" clip-rule="evenodd" d="M148.248 22.7736C149.166 20.8771 148.299 18.5522 146.311 17.5808C144.324 16.6093 141.969 17.3592 141.051 19.2556C140.133 21.1521 141 23.477 142.988 24.4484C144.975 25.4199 147.33 24.67 148.248 22.7736Z" fill="white"/>
<path fill-rule="evenodd" clip-rule="evenodd" d="M140.502 18.9843C139.436 21.1876 140.442 23.8736 142.726 24.9916C145.011 26.1095 147.732 25.2468 148.797 23.0435C149.863 20.8401 148.857 18.1541 146.573 17.0362C144.288 15.9183 141.567 16.781 140.502 18.9843ZM141.593 19.5184C142.36 17.9328 144.349 17.3021 146.043 18.131C147.737 18.9599 148.472 20.9237 147.706 22.5094C146.939 24.095 144.95 24.7257 143.256 23.8968C141.562 23.0678 140.827 21.104 141.593 19.5184Z" fill="#2F4077"/>
<path fill-rule="evenodd" clip-rule="evenodd" d="M134.053 36.3005C140.737 35.1206 144.92 27.0979 143.397 18.3813C141.873 9.66468 135.22 3.55492 128.536 4.73478C121.852 5.91463 117.669 13.9373 119.192 22.6539C120.716 31.3706 127.369 37.4803 134.053 36.3005Z" fill="white"/>
<path fill-rule="evenodd" clip-rule="evenodd" d="M128.442 4.14518C121.383 5.39524 117.014 13.756 118.584 22.7699C120.155 31.7837 127.088 38.1428 134.147 36.8927C141.206 35.6426 145.575 27.2819 144.005 18.268C142.434 9.25414 135.5 2.89511 128.442 4.14518ZM128.651 5.34455C134.971 4.22521 141.344 10.07 142.809 18.4797C144.275 26.8894 140.259 34.574 133.938 35.6933C127.618 36.8127 121.245 30.9679 119.779 22.5582C118.314 14.1485 122.33 6.46389 128.651 5.34455Z" fill="#2F4077"/>
<path fill-rule="evenodd" clip-rule="evenodd" d="M133.71 16.8765C134.023 16.7962 134.341 16.9764 134.438 17.2817L134.448 17.3161L136.126 23.9199C136.277 24.5292 135.837 25.1374 135.23 25.1634L132.784 25.2252C132.449 25.2337 132.171 24.9679 132.163 24.6315C132.155 24.3071 132.4 24.0355 132.718 24.0089L132.754 24.007L134.883 23.9532L133.273 17.6176C133.193 17.3032 133.372 16.9835 133.676 16.8864L133.71 16.8765Z" fill="#2F4077"/>
<path fill-rule="evenodd" clip-rule="evenodd" d="M126.568 13.1941C127.528 12.6555 128.545 12.4586 129.531 12.8427C129.878 12.9781 130.206 13.1836 130.509 13.4608C130.757 13.6871 130.775 14.0725 130.55 14.3215C130.325 14.5705 129.941 14.5888 129.693 14.3625C129.499 14.185 129.299 14.0594 129.092 13.9789C128.504 13.7496 127.835 13.8793 127.158 14.2583C126.999 14.3476 126.853 14.4435 126.726 14.5387L126.653 14.5939C126.64 14.6046 126.628 14.6142 126.617 14.6226L126.583 14.6518C126.332 14.8751 125.949 14.852 125.727 14.6002C125.505 14.3484 125.528 13.9633 125.778 13.7401C125.94 13.5956 126.211 13.3941 126.568 13.1941Z" fill="#2F4077"/>
<path fill-rule="evenodd" clip-rule="evenodd" d="M136.191 12.9549C136.836 12.8089 137.507 12.7679 138.154 12.9011C139.06 13.0873 139.798 13.5998 140.258 14.4814C140.414 14.7794 140.299 15.1477 140.003 15.304C139.717 15.4544 139.367 15.3534 139.202 15.0796L139.184 15.0472C138.902 14.5069 138.476 14.2111 137.911 14.0949C137.457 14.0015 136.949 14.0324 136.458 14.1437C136.378 14.1617 136.305 14.1807 136.238 14.1997L136.124 14.2348L136.108 14.2403C135.793 14.3551 135.446 14.1918 135.331 13.8755C135.217 13.5591 135.38 13.2096 135.695 13.0948C135.798 13.057 135.969 13.0053 136.191 12.9549Z" fill="#2F4077"/>
<path fill-rule="evenodd" clip-rule="evenodd" d="M131.302 20.3213C131.334 19.5255 130.926 18.8628 130.39 18.8411C129.855 18.8194 129.395 19.4469 129.363 20.2427C129.331 21.0385 129.739 21.7012 130.275 21.7229C130.81 21.7446 131.27 21.1171 131.302 20.3213Z" fill="#2F4077"/>
<path fill-rule="evenodd" clip-rule="evenodd" d="M138.516 21.9141C139.04 21.8801 139.423 21.2083 139.372 20.4136C139.321 19.6188 138.855 19.0021 138.331 19.0361C137.808 19.0701 137.425 19.7419 137.476 20.5367C137.527 21.3314 137.993 21.9481 138.516 21.9141Z" fill="#2F4077"/>
<path fill-rule="evenodd" clip-rule="evenodd" d="M126.868 25.3436C126.972 28.8194 128.234 30.5616 130.287 30.7444C131.06 30.8132 131.86 30.6482 132.646 30.3352C133.04 30.1783 133.345 30.02 133.528 29.908C133.902 29.6799 133.92 29.142 133.563 28.8892L127.823 24.8272C127.414 24.538 126.853 24.8417 126.868 25.3436ZM128.179 26.5695L132.004 29.2763C131.444 29.4765 130.891 29.5748 130.394 29.5305C129.278 29.4312 128.5 28.6206 128.204 26.7402L128.179 26.5695Z" fill="#2F4077"/>
<path fill-rule="evenodd" clip-rule="evenodd" d="M145.494 22.3465C147.896 21.9914 149.868 24.8222 150.426 28.6287C150.954 32.2335 149.53 35.5161 147.065 35.8805L147.021 35.8853L146.976 35.887H146.896C146.561 35.887 146.289 35.6142 146.289 35.2777C146.289 34.9532 146.542 34.6879 146.86 34.6694L146.896 34.6683L146.929 34.6681L146.938 34.6668C148.547 34.3814 149.642 31.8513 149.239 28.8968L149.226 28.8062C148.754 25.58 147.185 23.3282 145.67 23.5521C145.339 23.6011 145.031 23.3709 144.982 23.038C144.933 22.705 145.162 22.3954 145.494 22.3465Z" fill="#E4794A"/>
<path fill-rule="evenodd" clip-rule="evenodd" d="M117.624 23.443C120.094 23.078 122.393 25.8021 122.92 29.4205C123.448 33.0254 122.025 36.3079 119.559 36.6723L119.515 36.6772L119.471 36.6788H119.39C119.055 36.6788 118.784 36.406 118.784 36.0695C118.784 35.745 119.036 35.4797 119.354 35.4612L119.39 35.4602L119.423 35.46L119.432 35.4586C121.041 35.1732 122.137 32.6431 121.733 29.6881L121.72 29.5975C121.278 26.5604 119.458 24.4037 117.801 24.6486C117.469 24.6976 117.161 24.4674 117.113 24.1344C117.064 23.8015 117.293 23.4919 117.624 23.443Z" fill="#E4794A"/>
<path fill-rule="evenodd" clip-rule="evenodd" d="M127.252 0.872407L127.231 0.913028C123.129 1.48172 118.521 3.35026 115.934 6.07184C112.902 9.30118 112.761 15.0287 114.378 18.7252C115.651 17.8315 117.409 17.669 118.965 18.4205C119.046 18.4611 119.127 18.5017 119.188 18.5424C125.21 16.0848 125.291 6.88426 125.291 6.07184C126.625 7.14829 128.343 8.99653 127.878 10.9869L149.341 12.5102C149.341 12.5305 153.747 -3.39276 127.252 0.872407ZM124.301 6.5796C124.584 6.35619 124.867 6.17339 125.17 5.9906C125.19 6.01091 125.21 6.03122 125.231 6.03122L124.301 6.5796Z" fill="#2F4077"/>
<path fill-rule="evenodd" clip-rule="evenodd" d="M189.135 137.297H163.124L155.647 104.353C155.485 103.643 154.879 103.135 154.171 103.135H98.412C97.4217 103.135 96.7144 104.089 96.9367 105.085L105.283 141.887C105.445 142.598 106.051 143.105 106.759 143.105C106.759 143.105 180.727 143.105 183.92 143.105C190.226 143.105 189.135 137.297 189.135 137.297Z" fill="#465F9D"/>
<path fill-rule="evenodd" clip-rule="evenodd" d="M208.031 112.863L209.506 126.004C209.506 126.004 187.7 128.908 177.999 129.761C177.554 129.802 169.369 135.001 170.258 135.428C175.533 137.946 169.591 140.282 176.544 139.348C176.544 139.348 199.017 141.846 219.874 138.007C222.38 137.54 225.068 135.387 225.795 132.93C227.008 128.867 227.291 117.595 225.896 107.481C225.937 107.44 208.031 112.863 208.031 112.863Z" fill="white"/>
<path fill-rule="evenodd" clip-rule="evenodd" d="M225.883 106.871L225.817 106.876C225.805 106.877 225.799 106.878 225.79 106.88L225.739 106.891L225.664 106.911L225.269 107.027L222.605 107.824L216.755 109.588L207.856 112.279L207.821 112.291C207.561 112.387 207.397 112.651 207.428 112.931L208.837 125.478L205.365 125.932L204.665 126.023C201.051 126.49 197.355 126.958 193.79 127.394L192.345 127.57L190.499 127.792C185.219 128.422 180.924 128.892 177.946 129.154C177.547 129.191 175.385 130.514 173.288 131.946L172.94 132.184C171.993 132.84 171.198 133.43 170.64 133.901C170.272 134.212 170.004 134.472 169.836 134.693C169.712 134.856 169.63 135.009 169.598 135.184C169.538 135.511 169.689 135.83 169.997 135.977C171.02 136.466 171.613 136.948 171.903 137.431C172.087 137.738 172.137 137.969 172.157 138.464L172.159 138.534C172.188 139.374 172.359 139.792 173.081 140.033L173.116 140.044C173.708 140.228 174.681 140.204 176.411 139.98L176.551 139.961L177 140.007C177.163 140.023 177.341 140.04 177.532 140.058L178.303 140.126C179.155 140.199 180.099 140.272 181.128 140.34L181.35 140.355C192.429 141.081 204.443 140.933 215.746 139.3C217.186 139.092 218.599 138.861 219.983 138.606C222.787 138.084 225.602 135.719 226.377 133.103L226.416 132.968C227.707 128.424 227.812 116.938 226.497 107.397L226.479 107.399L226.478 107.396C226.457 107.176 226.419 107.143 226.224 106.967L226.028 106.893C225.941 106.863 225.927 106.865 225.883 106.871ZM225.389 108.262L225.41 108.422C226.595 117.725 226.445 128.633 225.215 132.754C224.575 134.916 222.133 136.966 219.763 137.408C218.396 137.66 216.999 137.888 215.574 138.094C204.367 139.712 192.431 139.86 181.429 139.139L180.991 139.11C179.91 139.036 178.926 138.959 178.051 138.881L177.423 138.823C177.245 138.807 177.082 138.791 176.933 138.776L176.61 138.742C176.562 138.736 176.512 138.737 176.463 138.744L176.175 138.781C174.68 138.972 173.847 138.992 173.485 138.883L173.429 138.865C173.392 138.852 173.384 138.834 173.378 138.715L173.371 138.492C173.346 137.757 173.268 137.346 172.941 136.802L172.903 136.739C172.547 136.178 171.97 135.667 171.124 135.19L171.06 135.155L171.073 135.142C171.17 135.051 171.286 134.947 171.42 134.835L171.551 134.726C172.136 134.245 172.975 133.632 173.969 132.954C174.846 132.356 175.803 131.734 176.629 131.224L176.792 131.124C177.165 130.896 177.49 130.703 177.739 130.563L177.795 130.532C177.904 130.472 177.994 130.424 178.062 130.39L178.121 130.362L178.572 130.321C181.71 130.035 186.143 129.543 191.545 128.894L192.969 128.722C193.289 128.683 193.611 128.643 193.936 128.604C197.18 128.207 200.532 127.784 203.831 127.359L206.855 126.967L209.586 126.608L209.621 126.602C209.93 126.543 210.144 126.253 210.109 125.935L208.69 113.299L223.908 108.704L225.389 108.262Z" fill="#2F4077"/>
<path fill-rule="evenodd" clip-rule="evenodd" d="M168.824 137.439C166.398 140.241 163.529 141.054 163.933 139.246C164.074 138.576 169.834 132.686 171.936 131.65C173.553 130.858 175.978 130.005 179.313 129.619" fill="white"/>
<path fill-rule="evenodd" clip-rule="evenodd" d="M164.516 139.42C164.504 139.484 164.499 139.535 164.5 139.572L164.501 139.594L164.514 139.597C164.609 139.614 164.806 139.595 165.073 139.51L165.124 139.494C166.066 139.176 167.297 138.274 168.366 137.039C168.586 136.785 168.969 136.758 169.221 136.979C169.474 137.2 169.501 137.584 169.281 137.838C168.079 139.227 166.675 140.256 165.51 140.649C164.107 141.123 163.022 140.54 163.34 139.12C163.56 138.075 169.669 132.089 171.67 131.102C173.705 130.106 176.231 129.362 179.243 129.014C179.576 128.975 179.877 129.215 179.915 129.549C179.953 129.884 179.715 130.186 179.382 130.224C176.506 130.557 174.113 131.261 172.203 132.197C171.33 132.628 169.555 134.128 167.622 136.022L167.385 136.256C166.676 136.958 166.01 137.652 165.484 138.234L165.277 138.466C165.062 138.71 164.882 138.923 164.746 139.097L164.71 139.143C164.644 139.229 164.591 139.302 164.553 139.36L164.524 139.405C164.519 139.411 164.519 139.408 164.522 139.392L164.516 139.42Z" fill="#2F4077"/>
<path fill-rule="evenodd" clip-rule="evenodd" d="M172.906 135.082C172.906 135.082 170.501 135.651 169.026 137.255C167.55 138.88 166.419 139.896 166.681 140.241C166.924 140.586 168.5 140.952 169.511 140.017C170.804 138.332 174.482 137.215 174.482 137.215C174.078 137.255 171.532 138.108 170.299 139.164C169.086 140.2 168.44 142.231 171.754 140.728C171.754 140.728 175.149 139.713 176.463 139.286" fill="white"/>
<path fill-rule="evenodd" clip-rule="evenodd" d="M172.767 134.489C173.093 134.412 173.419 134.615 173.496 134.943C173.573 135.27 173.371 135.598 173.045 135.675L173.016 135.682C172.982 135.691 172.929 135.706 172.859 135.726C172.7 135.772 172.522 135.829 172.33 135.899C171.779 136.098 171.229 136.353 170.72 136.665C170.235 136.962 169.813 137.297 169.474 137.666L168.918 138.266C168.433 138.787 167.816 139.447 167.658 139.629L167.568 139.735C167.525 139.785 167.487 139.832 167.452 139.876L167.401 139.942L167.444 139.953C167.542 139.974 167.649 139.99 167.76 139.997L167.828 140C168.294 140.015 168.729 139.887 169.055 139.61L169.069 139.597L169.086 139.575C169.143 139.505 169.203 139.435 169.266 139.367L169.321 139.307L169.327 139.301C169.482 139.105 169.659 138.917 169.853 138.747L169.906 138.701C170.998 137.765 173.569 136.694 174.422 136.608C175.139 136.536 175.353 137.549 174.693 137.786L174.441 137.868L174.256 137.931C174.128 137.976 173.992 138.025 173.848 138.079C173.234 138.309 172.621 138.573 172.052 138.867C171.301 139.256 170.692 139.663 170.276 140.071L170.255 140.092L170.229 140.126C170.082 140.323 169.979 140.51 169.938 140.637L169.932 140.654L169.95 140.654C170.239 140.651 170.711 140.52 171.349 140.242L171.505 140.173L171.542 140.157L171.599 140.139L172.396 139.9L173.69 139.508L174.939 139.127C175.505 138.952 175.96 138.809 176.277 138.707C176.595 138.603 176.937 138.779 177.04 139.099C177.143 139.419 176.968 139.763 176.649 139.866L176.149 140.026C175.909 140.101 175.632 140.187 175.321 140.283L174.54 140.523L173.528 140.83L171.964 141.301L171.909 141.326C171.13 141.672 170.507 141.853 170.023 141.872L169.965 141.873C169.375 141.88 168.92 141.62 168.764 141.13L168.753 141.094L168.745 141.096C167.747 141.371 166.641 141.18 166.213 140.629L166.2 140.611C165.961 140.297 165.997 139.955 166.175 139.606L166.198 139.564C166.303 139.372 166.461 139.158 166.691 138.89L166.745 138.827C167.001 138.533 168.283 137.17 168.58 136.842C169.004 136.381 169.513 135.977 170.088 135.625C170.674 135.266 171.296 134.978 171.919 134.753L172.056 134.704C172.366 134.596 172.612 134.526 172.767 134.489Z" fill="#2F4077"/>
<path fill-rule="evenodd" clip-rule="evenodd" d="M255.928 45.2107C263.552 45.2107 269.732 39 269.732 31.3387C269.732 23.6775 263.552 17.4668 255.928 17.4668C248.305 17.4668 242.125 23.6775 242.125 31.3387C242.125 39 248.305 45.2107 255.928 45.2107Z" fill="white"/>
<path fill-rule="evenodd" clip-rule="evenodd" d="M255.929 16.8574C247.97 16.8574 241.519 23.3409 241.519 31.3387C241.519 39.3364 247.97 45.8199 255.929 45.8199C263.887 45.8199 270.338 39.3364 270.338 31.3387C270.338 23.3409 263.887 16.8574 255.929 16.8574ZM255.928 18.076C263.217 18.076 269.126 24.0139 269.126 31.3387C269.126 38.6634 263.217 44.6013 255.928 44.6013C248.64 44.6013 242.731 38.6634 242.731 31.3387C242.731 24.0139 248.64 18.076 255.928 18.076Z" fill="#465F9D"/>
<path fill-rule="evenodd" clip-rule="evenodd" d="M261.711 22.4472C261.897 22.1679 262.274 22.0937 262.552 22.2814C262.82 22.4622 262.898 22.82 262.737 23.0956L262.717 23.127L256.998 31.6777C256.826 31.9339 256.493 32.0193 256.222 31.8821L256.188 31.8638L249.479 27.9236C249.19 27.7538 249.092 27.3807 249.261 27.0901C249.424 26.8104 249.774 26.7092 250.058 26.8537L250.091 26.8715L256.309 30.5229L261.711 22.4472Z" fill="#465F9D"/>
<path fill-rule="evenodd" clip-rule="evenodd" d="M112.842 143.104H69.633C69.1076 143.104 68.663 142.678 68.663 142.129V133.315C68.663 132.787 69.0874 132.34 69.633 132.34H112.842C113.367 132.34 113.812 132.766 113.812 133.315V142.129C113.812 142.678 113.367 143.104 112.842 143.104Z" fill="#2F4077"/>
<path fill-rule="evenodd" clip-rule="evenodd" d="M107.83 140.646C109.058 140.646 110.053 139.61 110.053 138.331C110.053 137.052 109.058 136.016 107.83 136.016C106.602 136.016 105.607 137.052 105.607 138.331C105.607 139.61 106.602 140.646 107.83 140.646Z" fill="white"/>
<path fill-rule="evenodd" clip-rule="evenodd" d="M95.5827 140.647H72.8262C72.3614 140.647 71.9774 140.261 71.9774 139.794V136.849C71.9774 136.382 72.3614 135.996 72.8262 135.996H95.5827C96.0475 135.996 96.4315 136.382 96.4315 136.849V139.794C96.4315 140.282 96.0475 140.647 95.5827 140.647Z" fill="white"/>
<path fill-rule="evenodd" clip-rule="evenodd" d="M119.956 132.3H76.7469C76.2215 132.3 75.7769 131.873 75.7769 131.325V122.51C75.7769 121.982 76.2013 121.535 76.7469 121.535H119.956C120.481 121.535 120.926 121.962 120.926 122.51V131.325C120.926 131.853 120.502 132.3 119.956 132.3Z" fill="#FAA184"/>
<path fill-rule="evenodd" clip-rule="evenodd" d="M114.964 129.842C116.192 129.842 117.187 128.805 117.187 127.526C117.187 126.248 116.192 125.211 114.964 125.211C113.736 125.211 112.741 126.248 112.741 127.526C112.741 128.805 113.736 129.842 114.964 129.842Z" fill="white"/>
<path fill-rule="evenodd" clip-rule="evenodd" d="M102.717 129.842H79.9401C79.4753 129.842 79.0913 129.457 79.0913 128.989V126.044C79.0913 125.577 79.4753 125.191 79.9401 125.191H102.697C103.161 125.191 103.545 125.577 103.545 126.044V128.989C103.545 129.477 103.182 129.842 102.717 129.842Z" fill="white"/>
<path fill-rule="evenodd" clip-rule="evenodd" d="M308.939 142.861C309.274 142.861 309.546 143.134 309.546 143.471C309.546 143.795 309.293 144.06 308.975 144.079L308.939 144.08H1.08079C0.745937 144.08 0.474487 143.807 0.474487 143.471C0.474487 143.146 0.726894 142.881 1.04516 142.862L1.08079 142.861H308.939Z" fill="#2F4077"/>
</svg>
