<svg xmlns="http://www.w3.org/2000/svg" width="1172" height="196" fill="none"><path stroke="url(#a)" stroke-linecap="round" stroke-opacity=".1" stroke-width="30" d="M27 168.66s161.717-1.571 262 0c154.437 2.418 229.074 3.752 383.5 0 153.677-3.734 484.5 0 484.5 0"/><path fill="#161616" d="M648.378 67.2h1.4l3.388 8.47 3.388-8.47h1.4l-3.92 9.8h-1.736l-3.92-9.8Zm13.659 2.464c2.268 0 3.822 1.75 3.822 3.808s-1.554 3.808-3.822 3.808c-2.282 0-3.822-1.75-3.822-3.808s1.54-3.808 3.822-3.808Zm.014 6.496c1.47 0 2.548-1.232 2.548-2.688 0-1.47-1.078-2.688-2.548-2.688-1.512 0-2.59 1.218-2.59 2.688 0 1.47 1.078 2.688 2.59 2.688Zm4.773-.126.84-.714c.49.616 1.078.966 1.792.966.784 0 1.232-.476 1.232-1.092 0-1.582-3.528-1.022-3.528-3.514 0-1.106.938-2.016 2.296-2.016 1.008 0 1.876.476 2.366 1.162l-.826.7c-.378-.532-.91-.868-1.526-.868-.756 0-1.162.448-1.162.994 0 1.582 3.542 1.078 3.542 3.486-.014 1.316-1.064 2.142-2.38 2.142-1.12 0-2.002-.448-2.646-1.246Zm10.135-2.562c0-2.058 1.414-3.808 3.626-3.808 1.05 0 1.876.406 2.506 1.12V66.5h1.19V77h-1.19v-.84c-.63.714-1.456 1.12-2.506 1.12-2.212 0-3.626-1.75-3.626-3.808Zm1.26 0c0 1.498 1.008 2.688 2.506 2.688.98 0 1.848-.476 2.366-1.302v-2.772c-.546-.84-1.4-1.302-2.366-1.302-1.498 0-2.506 1.19-2.506 2.688Zm11.79-3.808c2.268 0 3.822 1.75 3.822 3.808s-1.554 3.808-3.822 3.808c-2.282 0-3.822-1.75-3.822-3.808s1.54-3.808 3.822-3.808Zm.014 6.496c1.47 0 2.548-1.232 2.548-2.688 0-1.47-1.078-2.688-2.548-2.688-1.512 0-2.59 1.218-2.59 2.688 0 1.47 1.078 2.688 2.59 2.688Zm5.721.84v-7.056h1.19v.798c.574-.63 1.302-1.078 2.352-1.078 1.582 0 2.758 1.064 2.758 3.066V77h-1.19v-4.228c0-1.26-.714-1.988-1.806-1.988-1.022 0-1.666.588-2.114 1.33V77h-1.19Zm8.696 0v-7.056h1.19v.798c.574-.63 1.302-1.078 2.352-1.078 1.582 0 2.758 1.064 2.758 3.066V77h-1.19v-4.228c0-1.26-.714-1.988-1.806-1.988-1.022 0-1.666.588-2.114 1.33V77h-1.19Zm12.279-8.176h-1.162l1.456-2.324h1.344l-1.638 2.324Zm2.688 7.014c-.658.882-1.708 1.442-3.024 1.442-2.38 0-3.85-1.75-3.85-3.808 0-2.142 1.372-3.808 3.556-3.808 1.918 0 3.164 1.344 3.164 3.08 0 .28-.042.546-.084.742h-5.418c.042 1.694 1.12 2.716 2.632 2.716.91 0 1.68-.42 2.142-1.05l.882.686Zm-3.346-5.166c-1.162 0-1.974.686-2.226 1.904h4.228c-.042-1.036-.756-1.904-2.002-1.904Zm11.453 5.166c-.658.882-1.708 1.442-3.024 1.442-2.38 0-3.85-1.75-3.85-3.808 0-2.142 1.372-3.808 3.556-3.808 1.918 0 3.164 1.344 3.164 3.08 0 .28-.042.546-.084.742h-5.418c.042 1.694 1.12 2.716 2.632 2.716.91 0 1.68-.42 2.142-1.05l.882.686Zm-3.346-5.166c-1.162 0-1.974.686-2.226 1.904h4.228c-.042-1.036-.756-1.904-2.002-1.904Zm4.399 5.362.84-.714c.49.616 1.078.966 1.792.966.784 0 1.232-.476 1.232-1.092 0-1.582-3.528-1.022-3.528-3.514 0-1.106.938-2.016 2.296-2.016 1.008 0 1.876.476 2.366 1.162l-.826.7c-.378-.532-.91-.868-1.526-.868-.756 0-1.162.448-1.162.994 0 1.582 3.542 1.078 3.542 3.486-.014 1.316-1.064 2.142-2.38 2.142-1.12 0-2.002-.448-2.646-1.246Zm9.98 0 .84-.714c.49.616 1.078.966 1.792.966.784 0 1.232-.476 1.232-1.092 0-1.582-3.528-1.022-3.528-3.514 0-1.106.938-2.016 2.296-2.016 1.008 0 1.876.476 2.366 1.162l-.826.7c-.378-.532-.91-.868-1.526-.868-.756 0-1.162.448-1.162.994 0 1.582 3.542 1.078 3.542 3.486-.014 1.316-1.064 2.142-2.38 2.142-1.12 0-2.002-.448-2.646-1.246Zm10.101-6.37c2.268 0 3.822 1.75 3.822 3.808s-1.554 3.808-3.822 3.808c-2.282 0-3.822-1.75-3.822-3.808s1.54-3.808 3.822-3.808Zm.014 6.496c1.47 0 2.548-1.232 2.548-2.688 0-1.47-1.078-2.688-2.548-2.688-1.512 0-2.59 1.218-2.59 2.688 0 1.47 1.078 2.688 2.59 2.688Zm5.721.84v-7.056h1.19v.798c.574-.63 1.302-1.078 2.352-1.078 1.582 0 2.758 1.064 2.758 3.066V77h-1.19v-4.228c0-1.26-.714-1.988-1.806-1.988-1.022 0-1.666.588-2.114 1.33V77h-1.19Zm9.101-2.366v-3.612h-1.33v-1.078h1.33V68.18h1.204v1.764h2.45v1.078h-2.45v3.612c0 1.106.56 1.414 1.414 1.414.462 0 .784-.056 1.05-.168v1.064c-.336.14-.714.196-1.218.196-1.568 0-2.45-.784-2.45-2.506Zm11.039 2.576c-1.414 0-2.38-.812-2.38-2.114 0-1.064.826-1.862 2.338-2.114l2.156-.364v-.182c0-.742-.56-1.218-1.372-1.218-.686 0-1.218.322-1.596.84l-1.302-.994c.63-.868 1.666-1.4 2.954-1.4 2.044 0 3.094 1.218 3.094 2.772V77h-1.778v-.686c-.448.546-1.288.896-2.114.896Zm-.616-2.198c0 .476.378.784.98.784.812 0 1.4-.378 1.75-.938v-.994l-1.68.28c-.742.126-1.05.434-1.05.868Zm5.844 3.22c0-.7.35-1.26.98-1.722a1.468 1.468 0 0 1-.434-1.022c0-.56.238-1.008.77-1.4-.616-.462-.952-1.162-.952-1.946 0-1.372 1.064-2.478 2.828-2.478.546 0 1.022.098 1.428.28h2.576v1.512h-1.246c.07.224.098.448.098.686 0 1.386-1.036 2.506-2.856 2.506-.238 0-.462-.014-.672-.056-.154.14-.238.294-.238.448 0 .28.154.42.476.42h1.778c1.778 0 2.744.952 2.744 2.268 0 1.568-1.498 2.772-3.696 2.772-2.254 0-3.584-.784-3.584-2.268Zm3.22-4.928c.742 0 1.218-.462 1.218-1.162s-.476-1.148-1.218-1.148c-.77 0-1.232.462-1.232 1.148 0 .7.462 1.162 1.232 1.162Zm-1.54 4.676c0 .672.644 1.092 1.89 1.092 1.288 0 1.946-.476 1.946-1.176 0-.532-.322-.91-1.176-.91h-2.184c-.266.252-.476.56-.476.994Zm6.826-.98v-7.056h1.778v.7c.462-.476 1.064-.84 1.862-.84.238 0 .448.042.616.098v1.75a3.063 3.063 0 0 0-.784-.098c-.868 0-1.428.476-1.694.924V77h-1.778Zm9.489-8.176h-1.708l1.456-2.324h1.932l-1.68 2.324Zm2.394 7.028c-.658.882-1.75 1.428-3.08 1.428-2.506 0-3.92-1.75-3.92-3.808 0-2.086 1.316-3.808 3.626-3.808 1.96 0 3.248 1.33 3.248 3.178 0 .392-.056.756-.112.994h-4.942c.168 1.316.98 1.848 2.086 1.848.77 0 1.442-.336 1.82-.84l1.274 1.008Zm-3.416-4.732c-.91 0-1.512.504-1.708 1.428h3.248c-.028-.714-.546-1.428-1.54-1.428Zm4.273 7.112c0-.7.35-1.26.98-1.722a1.468 1.468 0 0 1-.434-1.022c0-.56.238-1.008.77-1.4-.616-.462-.952-1.162-.952-1.946 0-1.372 1.064-2.478 2.828-2.478.546 0 1.022.098 1.428.28h2.576v1.512h-1.246c.07.224.098.448.098.686 0 1.386-1.036 2.506-2.856 2.506-.238 0-.462-.014-.672-.056-.154.14-.238.294-.238.448 0 .28.154.42.476.42h1.778c1.778 0 2.744.952 2.744 2.268 0 1.568-1.498 2.772-3.696 2.772-2.254 0-3.584-.784-3.584-2.268Zm3.22-4.928c.742 0 1.218-.462 1.218-1.162s-.476-1.148-1.218-1.148c-.77 0-1.232.462-1.232 1.148 0 .7.462 1.162 1.232 1.162Zm-1.54 4.676c0 .672.644 1.092 1.89 1.092 1.288 0 1.946-.476 1.946-1.176 0-.532-.322-.91-1.176-.91h-2.184c-.266.252-.476.56-.476.994Zm10.587-9.156h-1.708l1.456-2.324h1.932l-1.68 2.324Zm2.394 7.028c-.658.882-1.75 1.428-3.08 1.428-2.506 0-3.92-1.75-3.92-3.808 0-2.086 1.316-3.808 3.626-3.808 1.96 0 3.248 1.33 3.248 3.178 0 .392-.056.756-.112.994h-4.942c.168 1.316.98 1.848 2.086 1.848.77 0 1.442-.336 1.82-.84l1.274 1.008Zm-3.416-4.732c-.91 0-1.512.504-1.708 1.428h3.248c-.028-.714-.546-1.428-1.54-1.428Zm11.468 4.732c-.658.882-1.75 1.428-3.08 1.428-2.506 0-3.92-1.75-3.92-3.808 0-2.086 1.316-3.808 3.626-3.808 1.96 0 3.248 1.33 3.248 3.178 0 .392-.056.756-.112.994h-4.942c.168 1.316.98 1.848 2.086 1.848.77 0 1.442-.336 1.82-.84l1.274 1.008Zm-3.416-4.732c-.91 0-1.512.504-1.708 1.428h3.248c-.028-.714-.546-1.428-1.54-1.428Zm4.316 4.858 1.176-1.064c.434.546.952.938 1.624.938.574 0 .868-.336.868-.756 0-1.232-3.374-.77-3.374-3.248 0-1.246 1.05-2.184 2.52-2.184 1.078 0 2.058.518 2.562 1.204l-1.176 1.036c-.364-.448-.826-.812-1.372-.812-.56 0-.826.308-.826.672 0 1.204 3.374.784 3.374 3.22-.028 1.484-1.218 2.296-2.548 2.296-1.26 0-2.156-.504-2.828-1.302Zm-169.078 23.86c-.658.882-1.708 1.442-3.024 1.442-2.38 0-3.85-1.75-3.85-3.808 0-2.142 1.372-3.808 3.556-3.808 1.918 0 3.164 1.344 3.164 3.08 0 .28-.042.546-.084.742h-5.418c.042 1.694 1.12 2.716 2.632 2.716.91 0 1.68-.42 2.142-1.05l.882.686Zm-3.346-5.166c-1.162 0-1.974.686-2.226 1.904h4.228c-.042-1.036-.756-1.904-2.002-1.904Zm5.574 3.962v-3.612h-1.33v-1.078h1.33V92.18h1.204v1.764h2.45v1.078h-2.45v3.612c0 1.106.56 1.414 1.414 1.414.462 0 .784-.056 1.05-.168v1.064c-.336.14-.714.196-1.218.196-1.568 0-2.45-.784-2.45-2.506Zm11.038 2.576c-1.414 0-2.38-.812-2.38-2.114 0-1.064.826-1.862 2.338-2.114l2.156-.364v-.182c0-.742-.56-1.218-1.372-1.218-.686 0-1.218.322-1.596.84l-1.302-.994c.63-.868 1.666-1.4 2.954-1.4 2.044 0 3.094 1.218 3.094 2.772V101h-1.778v-.686c-.448.546-1.288.896-2.114.896Zm-.616-2.198c0 .476.378.784.98.784.812 0 1.4-.378 1.75-.938v-.994l-1.68.28c-.742.126-1.05.434-1.05.868Zm9.932.588c.7 0 1.26-.322 1.596-.812l1.386 1.064c-.658.868-1.694 1.428-2.982 1.428-2.436 0-3.892-1.75-3.892-3.808s1.456-3.808 3.892-3.808c1.288 0 2.324.56 2.982 1.428l-1.386 1.064c-.336-.49-.896-.812-1.624-.812-1.162 0-2.016.896-2.016 2.128 0 1.246.854 2.128 2.044 2.128Zm7.424 0c.7 0 1.26-.322 1.596-.812l1.386 1.064c-.658.868-1.694 1.428-2.982 1.428-2.436 0-3.892-1.75-3.892-3.808s1.456-3.808 3.892-3.808c1.288 0 2.324.56 2.982 1.428l-1.386 1.064c-.336-.49-.896-.812-1.624-.812-1.162 0-2.016.896-2.016 2.128 0 1.246.854 2.128 2.044 2.128Zm10.532.252c-.658.882-1.75 1.428-3.08 1.428-2.506 0-3.92-1.75-3.92-3.808 0-2.086 1.316-3.808 3.626-3.808 1.96 0 3.248 1.33 3.248 3.178 0 .392-.056.756-.112.994h-4.942c.168 1.316.98 1.848 2.086 1.848.77 0 1.442-.336 1.82-.84l1.274 1.008Zm-3.416-4.732c-.91 0-1.512.504-1.708 1.428h3.248c-.028-.714-.546-1.428-1.54-1.428Zm4.315 4.858 1.176-1.064c.434.546.952.938 1.624.938.574 0 .868-.336.868-.756 0-1.232-3.374-.77-3.374-3.248 0-1.246 1.05-2.184 2.52-2.184 1.078 0 2.058.518 2.562 1.204l-1.176 1.036c-.364-.448-.826-.812-1.372-.812-.56 0-.826.308-.826.672 0 1.204 3.374.784 3.374 3.22-.028 1.484-1.218 2.296-2.548 2.296-1.26 0-2.156-.504-2.828-1.302Zm6.303 0 1.176-1.064c.434.546.952.938 1.624.938.574 0 .868-.336.868-.756 0-1.232-3.374-.77-3.374-3.248 0-1.246 1.05-2.184 2.52-2.184 1.078 0 2.058.518 2.562 1.204l-1.176 1.036c-.364-.448-.826-.812-1.372-.812-.56 0-.826.308-.826.672 0 1.204 3.374.784 3.374 3.22-.028 1.484-1.218 2.296-2.548 2.296-1.26 0-2.156-.504-2.828-1.302Zm7.911-7.266c-.63 0-1.162-.532-1.162-1.162 0-.63.532-1.162 1.162-1.162.63 0 1.148.532 1.148 1.162 0 .63-.518 1.162-1.148 1.162Zm-.896 8.288v-7.056h1.778V101h-1.778Zm11.47-3.528c0 2.058-1.344 3.808-3.584 3.808-.966 0-1.652-.308-2.198-.854V101h-1.778V90.5h1.778v4.018c.546-.546 1.232-.854 2.198-.854 2.24 0 3.584 1.75 3.584 3.808Zm-3.836-2.128c-.826 0-1.512.364-1.946 1.008v2.24c.476.658 1.148 1.008 1.946 1.008 1.204 0 1.988-.896 1.988-2.128 0-1.232-.784-2.128-1.988-2.128Zm5.463 5.656V90.5h1.778V101h-1.778Zm10.406-1.148c-.658.882-1.75 1.428-3.08 1.428-2.506 0-3.92-1.75-3.92-3.808 0-2.086 1.316-3.808 3.626-3.808 1.96 0 3.248 1.33 3.248 3.178 0 .392-.056.756-.112.994h-4.942c.168 1.316.98 1.848 2.086 1.848.77 0 1.442-.336 1.82-.84l1.274 1.008Zm-3.416-4.732c-.91 0-1.512.504-1.708 1.428h3.248c-.028-.714-.546-1.428-1.54-1.428Zm4.316 4.858 1.176-1.064c.434.546.952.938 1.624.938.574 0 .868-.336.868-.756 0-1.232-3.374-.77-3.374-3.248 0-1.246 1.05-2.184 2.52-2.184 1.078 0 2.058.518 2.562 1.204l-1.176 1.036c-.364-.448-.826-.812-1.372-.812-.56 0-.826.308-.826.672 0 1.204 3.374.784 3.374 3.22-.028 1.484-1.218 2.296-2.548 2.296-1.26 0-2.156-.504-2.828-1.302Zm15.436-2.03v-4.004h1.792v3.92c0 2.114-1.232 3.416-3.304 3.416s-3.29-1.302-3.29-3.416v-3.92h1.792v4.004c0 1.022.532 1.652 1.512 1.652.966 0 1.498-.63 1.498-1.652Zm3.76 3.052v-7.056h1.778v.56a2.867 2.867 0 0 1 2.086-.84c1.526 0 2.744 1.05 2.744 3.136v4.2h-1.792v-4.13c0-.938-.532-1.526-1.4-1.526-.896 0-1.372.602-1.638 1.05V101h-1.778Zm9.523-8.288c-.63 0-1.162-.532-1.162-1.162 0-.63.532-1.162 1.162-1.162.63 0 1.148.532 1.148 1.162 0 .63-.518 1.162-1.148 1.162Zm-.896 8.288v-7.056h1.778V101h-1.778Zm3.406-3.528c0-2.058 1.344-3.808 3.584-3.808.952 0 1.638.308 2.184.854v-.574h1.792v10.5h-1.792v-4.018c-.546.546-1.232.854-2.184.854-2.24 0-3.584-1.75-3.584-3.808Zm1.848 0c0 1.232.77 2.128 1.974 2.128.826 0 1.512-.364 1.946-1.008v-2.24c-.476-.658-1.148-1.008-1.946-1.008-1.204 0-1.974.896-1.974 2.128Zm12.492.476v-4.004h1.792v3.92c0 2.114-1.232 3.416-3.304 3.416s-3.29-1.302-3.29-3.416v-3.92h1.792v4.004c0 1.022.532 1.652 1.512 1.652.966 0 1.498-.63 1.498-1.652Zm10.256 1.904c-.658.882-1.75 1.428-3.08 1.428-2.506 0-3.92-1.75-3.92-3.808 0-2.086 1.316-3.808 3.626-3.808 1.96 0 3.248 1.33 3.248 3.178 0 .392-.056.756-.112.994h-4.942c.168 1.316.98 1.848 2.086 1.848.77 0 1.442-.336 1.82-.84l1.274 1.008Zm-3.416-4.732c-.91 0-1.512.504-1.708 1.428h3.248c-.028-.714-.546-1.428-1.54-1.428Zm5.028 5.88v-7.056h1.778v.532c.476-.462 1.078-.812 1.946-.812.896 0 1.68.392 2.142 1.148.504-.616 1.176-1.148 2.366-1.148 1.456 0 2.604 1.008 2.604 2.996V101h-1.792v-4.27c0-.854-.462-1.386-1.26-1.386-.77 0-1.19.532-1.47 1.008.013.098.013.196.013.308V101h-1.791v-4.27c0-.854-.462-1.386-1.26-1.386-.812 0-1.232.602-1.498 1.05V101h-1.778Zm19.361-1.148c-.658.882-1.75 1.428-3.08 1.428-2.506 0-3.92-1.75-3.92-3.808 0-2.086 1.316-3.808 3.626-3.808 1.96 0 3.248 1.33 3.248 3.178 0 .392-.056.756-.112.994h-4.942c.168 1.316.98 1.848 2.086 1.848.77 0 1.442-.336 1.82-.84l1.274 1.008Zm-3.416-4.732c-.91 0-1.512.504-1.708 1.428h3.248c-.028-.714-.546-1.428-1.54-1.428Zm5.027 5.88v-7.056h1.778v.56a2.867 2.867 0 0 1 2.086-.84c1.526 0 2.744 1.05 2.744 3.136v4.2h-1.792v-4.13c0-.938-.532-1.526-1.4-1.526-.896 0-1.372.602-1.638 1.05V101h-1.778Zm9.075-2.576V95.54h-1.316v-1.596h1.316V92.18h1.792v1.764h2.156v1.596h-2.156v2.884c0 .784.42 1.092 1.12 1.092.49 0 .812-.056 1.05-.154v1.554c-.35.154-.77.224-1.358.224-1.764 0-2.604-.994-2.604-2.716Zm-173.11 30.02v-10.5h1.778v.574c.546-.546 1.232-.854 2.198-.854 2.24 0 3.584 1.75 3.584 3.808s-1.344 3.808-3.584 3.808c-.966 0-1.652-.308-2.198-.854v4.018h-1.778Zm3.724-9.1c-.826 0-1.498.364-1.946 1.022v2.212c.476.672 1.134 1.022 1.946 1.022 1.204 0 1.988-.896 1.988-2.128 0-1.232-.784-2.128-1.988-2.128Zm7.287 5.866c-1.414 0-2.38-.812-2.38-2.114 0-1.064.826-1.862 2.338-2.114l2.156-.364v-.182c0-.742-.56-1.218-1.372-1.218-.686 0-1.218.322-1.596.84l-1.302-.994c.63-.868 1.666-1.4 2.954-1.4 2.044 0 3.094 1.218 3.094 2.772V125h-1.778v-.686c-.448.546-1.288.896-2.114.896Zm-.616-2.198c0 .476.378.784.98.784.812 0 1.4-.378 1.75-.938v-.994l-1.68.28c-.742.126-1.05.434-1.05.868Zm6.544 1.988v-7.056h1.778v.7c.462-.476 1.064-.84 1.862-.84.238 0 .448.042.616.098v1.75a3.063 3.063 0 0 0-.784-.098c-.868 0-1.428.476-1.694.924V125h-1.778Zm9.461 0v-10.5h1.778V125h-1.778Zm10.407-1.148c-.658.882-1.75 1.428-3.08 1.428-2.506 0-3.92-1.75-3.92-3.808 0-2.086 1.316-3.808 3.626-3.808 1.96 0 3.248 1.33 3.248 3.178 0 .392-.056.756-.112.994h-4.942c.168 1.316.98 1.848 2.086 1.848.77 0 1.442-.336 1.82-.84l1.274 1.008Zm-3.416-4.732c-.91 0-1.512.504-1.708 1.428h3.248c-.028-.714-.546-1.428-1.54-1.428Zm4.315 4.858 1.176-1.064c.434.546.952.938 1.624.938.574 0 .868-.336.868-.756 0-1.232-3.374-.77-3.374-3.248 0-1.246 1.05-2.184 2.52-2.184 1.078 0 2.058.518 2.562 1.204l-1.176 1.036c-.364-.448-.826-.812-1.372-.812-.56 0-.826.308-.826.672 0 1.204 3.374.784 3.374 3.22-.028 1.484-1.218 2.296-2.548 2.296-1.26 0-2.156-.504-2.828-1.302Zm11.684-7.266c-.63 0-1.162-.532-1.162-1.162 0-.63.532-1.162 1.162-1.162.63 0 1.148.532 1.148 1.162 0 .63-.518 1.162-1.148 1.162Zm-.896 8.288v-7.056h1.778V125h-1.778Zm3.91 0v-7.056h1.778v.56a2.867 2.867 0 0 1 2.086-.84c1.526 0 2.744 1.05 2.744 3.136v4.2h-1.792v-4.13c0-.938-.532-1.526-1.4-1.526-.896 0-1.372.602-1.638 1.05V125h-1.778Zm8.011-1.022 1.176-1.064c.434.546.952.938 1.624.938.574 0 .868-.336.868-.756 0-1.232-3.374-.77-3.374-3.248 0-1.246 1.05-2.184 2.52-2.184 1.078 0 2.058.518 2.562 1.204l-1.176 1.036c-.364-.448-.826-.812-1.372-.812-.56 0-.826.308-.826.672 0 1.204 3.374.784 3.374 3.22-.028 1.484-1.218 2.296-2.548 2.296-1.26 0-2.156-.504-2.828-1.302Zm7.572-1.554v-2.884h-1.316v-1.596h1.316v-1.764h1.792v1.764h2.156v1.596h-2.156v2.884c0 .784.42 1.092 1.12 1.092.49 0 .812-.056 1.05-.154v1.554c-.35.154-.77.224-1.358.224-1.764 0-2.604-.994-2.604-2.716Zm6.436-5.712c-.63 0-1.162-.532-1.162-1.162 0-.63.532-1.162 1.162-1.162.63 0 1.148.532 1.148 1.162 0 .63-.518 1.162-1.148 1.162Zm-.896 8.288v-7.056h1.778V125h-1.778Zm4.359-2.576v-2.884h-1.316v-1.596h1.316v-1.764h1.792v1.764h2.156v1.596h-2.156v2.884c0 .784.42 1.092 1.12 1.092.49 0 .812-.056 1.05-.154v1.554c-.35.154-.77.224-1.359.224-1.763 0-2.603-.994-2.603-2.716Zm10.174-.476v-4.004h1.792v3.92c0 2.114-1.232 3.416-3.304 3.416s-3.29-1.302-3.29-3.416v-3.92h1.792v4.004c0 1.022.532 1.652 1.512 1.652.966 0 1.498-.63 1.498-1.652Zm4.318.476v-2.884h-1.316v-1.596h1.316v-1.764h1.792v1.764h2.156v1.596h-2.156v2.884c0 .784.42 1.092 1.12 1.092.49 0 .812-.056 1.05-.154v1.554c-.35.154-.77.224-1.358.224-1.764 0-2.604-.994-2.604-2.716Zm6.436-5.712c-.63 0-1.162-.532-1.162-1.162 0-.63.532-1.162 1.162-1.162.63 0 1.148.532 1.148 1.162 0 .63-.518 1.162-1.148 1.162Zm-.896 8.288v-7.056h1.778V125h-1.778Zm7.27-7.336c2.296 0 3.864 1.694 3.864 3.808s-1.568 3.808-3.864 3.808-3.864-1.694-3.864-3.808 1.568-3.808 3.864-3.808Zm.028 5.936c1.134 0 1.988-.91 1.988-2.128 0-1.232-.854-2.128-1.988-2.128-1.176 0-2.044.896-2.044 2.128 0 1.232.868 2.128 2.044 2.128Zm5.458 1.4v-7.056h1.778v.56a2.867 2.867 0 0 1 2.086-.84c1.526 0 2.744 1.05 2.744 3.136v4.2h-1.792v-4.13c0-.938-.532-1.526-1.4-1.526-.896 0-1.372.602-1.638 1.05V125h-1.778Zm8.011-1.022 1.176-1.064c.434.546.952.938 1.624.938.574 0 .868-.336.868-.756 0-1.232-3.374-.77-3.374-3.248 0-1.246 1.05-2.184 2.52-2.184 1.078 0 2.058.518 2.562 1.204l-1.176 1.036c-.364-.448-.826-.812-1.372-.812-.56 0-.826.308-.826.672 0 1.204 3.374.784 3.374 3.22-.028 1.484-1.218 2.296-2.548 2.296-1.26 0-2.156-.504-2.828-1.302ZM346.434 69.006V67.2h8.036v1.806h-3.024V77h-1.988v-7.994h-3.024ZM355.978 77v-7.056h1.778v.7c.462-.476 1.064-.84 1.862-.84.238 0 .448.042.616.098v1.75a3.063 3.063 0 0 0-.784-.098c-.868 0-1.428.476-1.694.924V77h-1.778Zm7.334.21c-1.414 0-2.38-.812-2.38-2.114 0-1.064.826-1.862 2.338-2.114l2.156-.364v-.182c0-.742-.56-1.218-1.372-1.218-.686 0-1.218.322-1.596.84l-1.302-.994c.63-.868 1.666-1.4 2.954-1.4 2.044 0 3.094 1.218 3.094 2.772V77h-1.778v-.686c-.448.546-1.288.896-2.114.896Zm-.616-2.198c0 .476.378.784.98.784.812 0 1.4-.378 1.75-.938v-.994l-1.68.28c-.742.126-1.05.434-1.05.868ZM369.24 77v-7.056h1.778v.56a2.867 2.867 0 0 1 2.086-.84c1.526 0 2.744 1.05 2.744 3.136V77h-1.792v-4.13c0-.938-.532-1.526-1.4-1.526-.896 0-1.372.602-1.638 1.05V77h-1.778Zm8.011-1.022 1.176-1.064c.434.546.952.938 1.624.938.574 0 .868-.336.868-.756 0-1.232-3.374-.77-3.374-3.248 0-1.246 1.05-2.184 2.52-2.184 1.078 0 2.058.518 2.562 1.204l-1.176 1.036c-.364-.448-.826-.812-1.372-.812-.56 0-.826.308-.826.672 0 1.204 3.374.784 3.374 3.22-.028 1.484-1.218 2.296-2.548 2.296-1.26 0-2.156-.504-2.828-1.302ZM384.265 77v-7.056h1.778v.532c.476-.462 1.078-.812 1.946-.812.896 0 1.68.392 2.142 1.148.504-.616 1.176-1.148 2.366-1.148 1.456 0 2.604 1.008 2.604 2.996V77h-1.792v-4.27c0-.854-.462-1.386-1.26-1.386-.77 0-1.19.532-1.47 1.008.014.098.014.196.014.308V77h-1.792v-4.27c0-.854-.462-1.386-1.26-1.386-.812 0-1.232.602-1.498 1.05V77h-1.778Zm19.361-1.148c-.658.882-1.75 1.428-3.08 1.428-2.506 0-3.92-1.75-3.92-3.808 0-2.086 1.316-3.808 3.626-3.808 1.96 0 3.248 1.33 3.248 3.178 0 .392-.056.756-.112.994h-4.942c.168 1.316.98 1.848 2.086 1.848.77 0 1.442-.336 1.82-.84l1.274 1.008Zm-3.416-4.732c-.91 0-1.512.504-1.708 1.428h3.248c-.028-.714-.546-1.428-1.54-1.428Zm5.462 3.304V71.54h-1.316v-1.596h1.316V68.18h1.792v1.764h2.156v1.596h-2.156v2.884c0 .784.42 1.092 1.12 1.092.49 0 .812-.056 1.05-.154v1.554c-.35.154-.77.224-1.358.224-1.764 0-2.604-.994-2.604-2.716Zm6.098 0V71.54h-1.316v-1.596h1.316V68.18h1.792v1.764h2.156v1.596h-2.156v2.884c0 .784.42 1.092 1.12 1.092.49 0 .812-.056 1.05-.154v1.554c-.35.154-.77.224-1.358.224-1.764 0-2.604-.994-2.604-2.716Zm11.899 1.428c-.658.882-1.75 1.428-3.08 1.428-2.506 0-3.92-1.75-3.92-3.808 0-2.086 1.316-3.808 3.626-3.808 1.96 0 3.248 1.33 3.248 3.178 0 .392-.056.756-.112.994h-4.942c.168 1.316.98 1.848 2.086 1.848.77 0 1.442-.336 1.82-.84l1.274 1.008Zm-3.416-4.732c-.91 0-1.512.504-1.708 1.428h3.248c-.028-.714-.546-1.428-1.54-1.428Zm4.652 5.88v-1.596l3.584-3.864h-3.472v-1.596h5.698v1.596l-3.584 3.864h3.682V77h-5.908Zm10.664-7.056h1.316v-.742c0-1.498.994-2.702 2.758-2.702.644 0 1.19.154 1.638.392l-.756 1.484c-.21-.154-.49-.28-.854-.28-.602 0-.994.42-.994 1.064v.784h2.156v1.596h-2.156V77h-1.792v-5.46h-1.316v-1.596Zm8.051 7.266c-1.414 0-2.38-.812-2.38-2.114 0-1.064.826-1.862 2.338-2.114l2.156-.364v-.182c0-.742-.56-1.218-1.372-1.218-.686 0-1.218.322-1.596.84l-1.302-.994c.63-.868 1.666-1.4 2.954-1.4 2.044 0 3.094 1.218 3.094 2.772V77h-1.778v-.686c-.448.546-1.288.896-2.114.896Zm-.616-2.198c0 .476.378.784.98.784.812 0 1.4-.378 1.75-.938v-.994l-1.68.28c-.742.126-1.05.434-1.05.868Zm9.932.588c.7 0 1.26-.322 1.596-.812l1.386 1.064c-.658.868-1.694 1.428-2.982 1.428-2.436 0-3.892-1.75-3.892-3.808s1.456-3.808 3.892-3.808c1.288 0 2.324.56 2.982 1.428l-1.386 1.064c-.336-.49-.896-.812-1.624-.812-1.162 0-2.016.896-2.016 2.128 0 1.246.854 2.128 2.044 2.128Zm5.206-6.888c-.63 0-1.162-.532-1.162-1.162 0-.63.532-1.162 1.162-1.162.63 0 1.148.532 1.148 1.162 0 .63-.518 1.162-1.148 1.162ZM457.246 77v-7.056h1.778V77h-1.778Zm3.91 0V66.5h1.778V77h-1.778Zm10.406-1.148c-.658.882-1.75 1.428-3.08 1.428-2.506 0-3.92-1.75-3.92-3.808 0-2.086 1.316-3.808 3.626-3.808 1.96 0 3.248 1.33 3.248 3.178 0 .392-.056.756-.112.994h-4.942c.168 1.316.98 1.848 2.086 1.848.77 0 1.442-.336 1.82-.84l1.274 1.008Zm-3.416-4.732c-.91 0-1.512.504-1.708 1.428h3.248c-.028-.714-.546-1.428-1.54-1.428Zm5.027 5.88v-7.056h1.778v.532c.476-.462 1.078-.812 1.946-.812.896 0 1.68.392 2.142 1.148.504-.616 1.176-1.148 2.366-1.148 1.456 0 2.604 1.008 2.604 2.996V77h-1.792v-4.27c0-.854-.462-1.386-1.26-1.386-.77 0-1.19.532-1.47 1.008.014.098.014.196.014.308V77h-1.792v-4.27c0-.854-.462-1.386-1.26-1.386-.812 0-1.232.602-1.498 1.05V77h-1.778Zm19.362-1.148c-.658.882-1.75 1.428-3.08 1.428-2.506 0-3.92-1.75-3.92-3.808 0-2.086 1.316-3.808 3.626-3.808 1.96 0 3.248 1.33 3.248 3.178 0 .392-.056.756-.112.994h-4.942c.168 1.316.98 1.848 2.086 1.848.77 0 1.442-.336 1.82-.84l1.274 1.008Zm-3.416-4.732c-.91 0-1.512.504-1.708 1.428h3.248c-.028-.714-.546-1.428-1.54-1.428Zm5.027 5.88v-7.056h1.778v.56a2.867 2.867 0 0 1 2.086-.84c1.526 0 2.744 1.05 2.744 3.136V77h-1.792v-4.13c0-.938-.532-1.526-1.4-1.526-.896 0-1.372.602-1.638 1.05V77h-1.778Zm9.075-2.576V71.54h-1.316v-1.596h1.316V68.18h1.792v1.764h2.156v1.596h-2.156v2.884c0 .784.42 1.092 1.12 1.092.49 0 .812-.056 1.05-.154v1.554c-.35.154-.77.224-1.358.224-1.764 0-2.604-.994-2.604-2.716Zm8.306-4.48h1.904l1.834 5.04 1.82-5.04h1.918L516.427 77h-2.338l-2.562-7.056Zm11.874-.28c2.296 0 3.864 1.694 3.864 3.808s-1.568 3.808-3.864 3.808-3.864-1.694-3.864-3.808 1.568-3.808 3.864-3.808Zm.028 5.936c1.134 0 1.988-.91 1.988-2.128 0-1.232-.854-2.128-1.988-2.128-1.176 0-2.044.896-2.044 2.128 0 1.232.868 2.128 2.044 2.128Zm4.609.378 1.176-1.064c.434.546.952.938 1.624.938.574 0 .868-.336.868-.756 0-1.232-3.374-.77-3.374-3.248 0-1.246 1.05-2.184 2.52-2.184 1.078 0 2.058.518 2.562 1.204l-1.176 1.036c-.364-.448-.826-.812-1.372-.812-.56 0-.826.308-.826.672 0 1.204 3.374.784 3.374 3.22-.028 1.484-1.218 2.296-2.548 2.296-1.26 0-2.156-.504-2.828-1.302ZM353.56 99.852c-.658.882-1.75 1.428-3.08 1.428-2.506 0-3.92-1.75-3.92-3.808 0-2.086 1.316-3.808 3.626-3.808 1.96 0 3.248 1.33 3.248 3.178 0 .392-.056.756-.112.994h-4.942c.168 1.316.98 1.848 2.086 1.848.77 0 1.442-.336 1.82-.84l1.274 1.008Zm-3.416-4.732c-.91 0-1.512.504-1.708 1.428h3.248c-.028-.714-.546-1.428-1.54-1.428Zm4.159-1.176h1.316v-.742c0-1.498.994-2.702 2.758-2.702.644 0 1.19.154 1.638.392l-.756 1.484c-.21-.154-.49-.28-.854-.28-.602 0-.994.42-.994 1.064v.784h2.156v1.596h-2.156V101h-1.792v-5.46h-1.316v-1.596Zm5.961 0h1.316v-.742c0-1.498.994-2.702 2.758-2.702.644 0 1.19.154 1.638.392l-.756 1.484c-.21-.154-.49-.28-.854-.28-.602 0-.994.42-.994 1.064v.784h2.156v1.596h-2.156V101h-1.792v-5.46h-1.316v-1.596Zm12.71 5.908c-.658.882-1.75 1.428-3.08 1.428-2.506 0-3.92-1.75-3.92-3.808 0-2.086 1.316-3.808 3.626-3.808 1.96 0 3.248 1.33 3.248 3.178 0 .392-.056.756-.112.994h-4.942c.168 1.316.98 1.848 2.086 1.848.77 0 1.442-.336 1.82-.84l1.274 1.008Zm-3.416-4.732c-.91 0-1.512.504-1.708 1.428h3.248c-.028-.714-.546-1.428-1.54-1.428Zm8.361 4.48c.7 0 1.26-.322 1.596-.812l1.386 1.064c-.658.868-1.694 1.428-2.982 1.428-2.436 0-3.892-1.75-3.892-3.808s1.456-3.808 3.892-3.808c1.288 0 2.324.56 2.982 1.428l-1.386 1.064c-.336-.49-.896-.812-1.624-.812-1.162 0-2.016.896-2.016 2.128 0 1.246.854 2.128 2.044 2.128Zm4.825-1.176V95.54h-1.316v-1.596h1.316V92.18h1.792v1.764h2.156v1.596h-2.156v2.884c0 .784.42 1.092 1.12 1.092.49 0 .812-.056 1.05-.154v1.554c-.35.154-.77.224-1.358.224-1.764 0-2.604-.994-2.604-2.716Zm6.437-5.712c-.63 0-1.162-.532-1.162-1.162 0-.63.532-1.162 1.162-1.162.63 0 1.148.532 1.148 1.162 0 .63-.518 1.162-1.148 1.162Zm-.896 8.288v-7.056h1.778V101h-1.778Zm3.042-7.056h1.316v-.742c0-1.498.994-2.702 2.758-2.702.644 0 1.19.154 1.638.392l-.756 1.484c-.21-.154-.49-.28-.854-.28-.602 0-.994.42-.994 1.064v.784h2.156v1.596h-2.156V101h-1.792v-5.46h-1.316v-1.596Zm5.625 6.034 1.176-1.064c.434.546.952.938 1.624.938.574 0 .868-.336.868-.756 0-1.232-3.374-.77-3.374-3.248 0-1.246 1.05-2.184 2.52-2.184 1.078 0 2.058.518 2.562 1.204l-1.176 1.036c-.364-.448-.826-.812-1.372-.812-.56 0-.826.308-.826.672 0 1.204 3.374.784 3.374 3.22-.028 1.484-1.218 2.296-2.548 2.296-1.26 0-2.156-.504-2.828-1.302Zm12.902 1.218c-1.386 0-2.324-.77-2.324-1.974 0-1.064.812-1.82 2.31-2.072l2.38-.392v-.49c0-.98-.7-1.54-1.708-1.54a2.29 2.29 0 0 0-1.904.98l-.896-.686c.616-.84 1.61-1.358 2.842-1.358 1.792 0 2.856 1.05 2.856 2.604V101h-1.19v-.896c-.532.686-1.456 1.092-2.366 1.092Zm-1.12-2.016c0 .602.49 1.036 1.316 1.036.938 0 1.708-.448 2.17-1.204v-1.386l-2.086.35c-.966.168-1.4.602-1.4 1.204Zm11.977-1.204v-4.032h1.19v3.99c0 2.114-1.218 3.346-3.136 3.346-1.904 0-3.122-1.232-3.122-3.346v-3.99h1.19v4.032c0 1.386.742 2.184 1.946 2.184 1.176 0 1.932-.798 1.932-2.184Zm7.715.658v-3.612h-1.33v-1.078h1.33V92.18h1.204v1.764h2.45v1.078h-2.45v3.612c0 1.106.56 1.414 1.414 1.414.462 0 .784-.056 1.05-.168v1.064c-.336.14-.714.196-1.218.196-1.568 0-2.45-.784-2.45-2.506Zm7.391 2.562c-1.386 0-2.324-.77-2.324-1.974 0-1.064.812-1.82 2.31-2.072l2.38-.392v-.49c0-.98-.7-1.54-1.708-1.54a2.29 2.29 0 0 0-1.904.98l-.896-.686c.616-.84 1.61-1.358 2.842-1.358 1.792 0 2.856 1.05 2.856 2.604V101h-1.19v-.896c-.532.686-1.456 1.092-2.366 1.092Zm-1.12-2.016c0 .602.49 1.036 1.316 1.036.938 0 1.708-.448 2.17-1.204v-1.386l-2.086.35c-.966.168-1.4.602-1.4 1.204Zm14.385-1.708c0 2.058-1.414 3.808-3.626 3.808-1.05 0-1.876-.406-2.506-1.12v.84h-1.19V90.5h1.19v4.284c.63-.714 1.456-1.12 2.506-1.12 2.212 0 3.626 1.75 3.626 3.808Zm-3.766-2.688c-.98 0-1.848.476-2.366 1.302v2.772c.546.84 1.4 1.302 2.366 1.302 1.498 0 2.52-1.19 2.52-2.688 0-1.498-1.022-2.688-2.52-2.688Zm5.7 6.216V90.5h1.19V101h-1.19Zm9.977-1.162c-.658.882-1.708 1.442-3.024 1.442-2.38 0-3.85-1.75-3.85-3.808 0-2.142 1.372-3.808 3.556-3.808 1.918 0 3.164 1.344 3.164 3.08 0 .28-.042.546-.084.742h-5.418c.042 1.694 1.12 2.716 2.632 2.716.91 0 1.68-.42 2.142-1.05l.882.686Zm-3.346-5.166c-1.162 0-1.974.686-2.226 1.904h4.228c-.042-1.036-.756-1.904-2.002-1.904Zm7.072 6.524c-1.386 0-2.324-.77-2.324-1.974 0-1.064.812-1.82 2.31-2.072l2.38-.392v-.49c0-.98-.7-1.54-1.708-1.54a2.29 2.29 0 0 0-1.904.98l-.896-.686c.616-.84 1.61-1.358 2.842-1.358 1.792 0 2.856 1.05 2.856 2.604V101h-1.19v-.896c-.532.686-1.456 1.092-2.366 1.092Zm-1.12-2.016c0 .602.49 1.036 1.316 1.036.938 0 1.708-.448 2.17-1.204v-1.386l-2.086.35c-.966.168-1.4.602-1.4 1.204Zm11.977-1.204v-4.032h1.19v3.99c0 2.114-1.218 3.346-3.136 3.346-1.904 0-3.122-1.232-3.122-3.346v-3.99h1.19v4.032c0 1.386.742 2.184 1.946 2.184 1.176 0 1.932-.798 1.932-2.184Zm6.707-.504c0-2.058 1.414-3.808 3.626-3.808 1.05 0 1.876.406 2.506 1.12V90.5h1.19V101h-1.19v-.84c-.63.714-1.456 1.12-2.506 1.12-2.212 0-3.626-1.75-3.626-3.808Zm1.26 0c0 1.498 1.008 2.688 2.506 2.688.98 0 1.848-.476 2.366-1.302v-2.772c-.546-.84-1.4-1.302-2.366-1.302-1.498 0-2.506 1.19-2.506 2.688Zm14.843 2.366c-.658.882-1.708 1.442-3.024 1.442-2.38 0-3.85-1.75-3.85-3.808 0-2.142 1.372-3.808 3.556-3.808 1.918 0 3.164 1.344 3.164 3.08 0 .28-.042.546-.084.742h-5.418c.042 1.694 1.12 2.716 2.632 2.716.91 0 1.68-.42 2.142-1.05l.882.686Zm-3.346-5.166c-1.162 0-1.974.686-2.226 1.904h4.228c-.042-1.036-.756-1.904-2.002-1.904Zm16.304 2.8c0 2.058-1.414 3.808-3.626 3.808-1.05 0-1.876-.406-2.506-1.12v.84h-1.19V90.5h1.19v4.284c.63-.714 1.456-1.12 2.506-1.12 2.212 0 3.626 1.75 3.626 3.808Zm-3.766-2.688c-.98 0-1.848.476-2.366 1.302v2.772c.546.84 1.4 1.302 2.366 1.302 1.498 0 2.52-1.19 2.52-2.688 0-1.498-1.022-2.688-2.52-2.688Zm8.92-1.12c2.268 0 3.822 1.75 3.822 3.808s-1.554 3.808-3.822 3.808c-2.282 0-3.822-1.75-3.822-3.808s1.54-3.808 3.822-3.808Zm.014 6.496c1.47 0 2.548-1.232 2.548-2.688 0-1.47-1.078-2.688-2.548-2.688-1.512 0-2.59 1.218-2.59 2.688 0 1.47 1.078 2.688 2.59 2.688Zm5.721.84v-7.056h1.19v.882c.518-.616 1.162-1.022 2.058-1.022.224 0 .434.028.602.084v1.162a2.592 2.592 0 0 0-.7-.084c-.924 0-1.526.476-1.96 1.19V101h-1.19Zm4.538-3.528c0-2.058 1.414-3.808 3.626-3.808 1.05 0 1.876.406 2.506 1.12V90.5h1.19V101h-1.19v-.84c-.63.714-1.456 1.12-2.506 1.12-2.212 0-3.626-1.75-3.626-3.808Zm1.26 0c0 1.498 1.008 2.688 2.506 2.688.98 0 1.848-.476 2.366-1.302v-2.772c-.546-.84-1.4-1.302-2.366-1.302-1.498 0-2.506 1.19-2.506 2.688ZM347.792 121.15c0 2.478.826 4.424 2.352 5.936l-.868.714c-1.666-1.554-2.688-3.85-2.688-6.65 0-2.842 1.12-5.152 2.688-6.65l.868.714c-1.47 1.456-2.352 3.458-2.352 5.936Zm2.3-3.206h1.288l2.254 5.81 2.254-5.81h1.288L354.418 125h-1.568l-2.758-7.056Zm9.145-1.834a.842.842 0 0 1-.84-.84.84.84 0 0 1 .84-.826c.462 0 .826.378.826.826a.83.83 0 0 1-.826.84Zm-.602 8.89v-7.056h1.19V125h-1.19Zm5.623.196c-1.386 0-2.324-.77-2.324-1.974 0-1.064.812-1.82 2.31-2.072l2.38-.392v-.49c0-.98-.7-1.54-1.708-1.54a2.29 2.29 0 0 0-1.904.98l-.896-.686c.616-.84 1.61-1.358 2.842-1.358 1.792 0 2.856 1.05 2.856 2.604V125h-1.19v-.896c-.532.686-1.456 1.092-2.366 1.092Zm-1.12-2.016c0 .602.49 1.036 1.316 1.036.938 0 1.708-.448 2.17-1.204v-1.386l-2.086.35c-.966.168-1.4.602-1.4 1.204Zm11.131 1.82v-9.8h5.264v1.12h-3.948v3.136h3.388v1.106h-3.388v3.318h3.948V125h-5.264Zm7.889 0v-9.8h2.604c1.974 0 3.192 1.078 3.192 2.758 0 1.176-.602 2.058-1.652 2.478l3.164 4.564h-1.554l-2.842-4.312c-.098.014-.21.014-.308.014h-1.288V125h-1.316Zm2.66-8.68h-1.344v3.262h1.344c1.12 0 1.778-.602 1.778-1.652 0-.994-.658-1.61-1.778-1.61Zm6.308 8.68v-9.8h2.87c1.96 0 3.178 1.078 3.178 2.758s-1.218 2.744-3.178 2.744h-1.554V125h-1.316Zm2.898-8.68h-1.582v3.262h1.582c1.12 0 1.792-.602 1.792-1.652 0-.994-.672-1.61-1.792-1.61Zm11.841 1.344c2.268 0 3.822 1.75 3.822 3.808s-1.554 3.808-3.822 3.808c-2.282 0-3.822-1.75-3.822-3.808s1.54-3.808 3.822-3.808Zm.014 6.496c1.47 0 2.548-1.232 2.548-2.688 0-1.47-1.078-2.688-2.548-2.688-1.512 0-2.59 1.218-2.59 2.688 0 1.47 1.078 2.688 2.59 2.688Zm10.635-2.184v-4.032h1.19v3.99c0 2.114-1.218 3.346-3.136 3.346-1.904 0-3.122-1.232-3.122-3.346v-3.99h1.19v4.032c0 1.386.742 2.184 1.946 2.184 1.176 0 1.932-.798 1.932-2.184Zm6.553 2.058.84-.714c.49.616 1.078.966 1.792.966.784 0 1.232-.476 1.232-1.092 0-1.582-3.528-1.022-3.528-3.514 0-1.106.938-2.016 2.296-2.016 1.008 0 1.876.476 2.366 1.162l-.826.7c-.378-.532-.91-.868-1.526-.868-.756 0-1.162.448-1.162.994 0 1.582 3.542 1.078 3.542 3.486-.014 1.316-1.064 2.142-2.38 2.142-1.12 0-2.002-.448-2.646-1.246Zm10.101-6.37c2.268 0 3.822 1.75 3.822 3.808s-1.554 3.808-3.822 3.808c-2.282 0-3.822-1.75-3.822-3.808s1.54-3.808 3.822-3.808Zm.014 6.496c1.47 0 2.548-1.232 2.548-2.688 0-1.47-1.078-2.688-2.548-2.688-1.512 0-2.59 1.218-2.59 2.688 0 1.47 1.078 2.688 2.59 2.688Zm5.721.84v-10.5h1.19V125h-1.19Zm8.619-3.024v-4.032h1.19v3.99c0 2.114-1.218 3.346-3.136 3.346-1.904 0-3.122-1.232-3.122-3.346v-3.99h1.19v4.032c0 1.386.742 2.184 1.946 2.184 1.176 0 1.932-.798 1.932-2.184Zm3.996.658v-3.612h-1.33v-1.078h1.33v-1.764h1.204v1.764h2.45v1.078h-2.45v3.612c0 1.106.56 1.414 1.414 1.414.462 0 .784-.056 1.05-.168v1.064c-.336.14-.714.196-1.218.196-1.568 0-2.45-.784-2.45-2.506Zm6.074-6.524a.842.842 0 0 1-.84-.84.84.84 0 0 1 .84-.826c.462 0 .826.378.826.826a.83.83 0 0 1-.826.84Zm-.602 8.89v-7.056h1.19V125h-1.19Zm6.926-7.336c2.268 0 3.822 1.75 3.822 3.808s-1.554 3.808-3.822 3.808c-2.282 0-3.822-1.75-3.822-3.808s1.54-3.808 3.822-3.808Zm.014 6.496c1.47 0 2.548-1.232 2.548-2.688 0-1.47-1.078-2.688-2.548-2.688-1.512 0-2.59 1.218-2.59 2.688 0 1.47 1.078 2.688 2.59 2.688Zm5.721.84v-7.056h1.19v.798c.574-.63 1.302-1.078 2.352-1.078 1.582 0 2.758 1.064 2.758 3.066V125h-1.19v-4.228c0-1.26-.714-1.988-1.806-1.988-1.022 0-1.666.588-2.114 1.33V125h-1.19Zm12.468 0v-7.056h1.19v.77c.532-.616 1.232-1.05 2.212-1.05 1.022 0 1.862.462 2.296 1.358.56-.77 1.302-1.358 2.52-1.358 1.512 0 2.618 1.008 2.618 2.926V125h-1.19v-4.368c0-1.176-.658-1.848-1.666-1.848-.896 0-1.526.504-1.988 1.33.014.154.028.308.028.476V125h-1.19v-4.368c0-1.176-.644-1.848-1.666-1.848-.966 0-1.568.602-1.974 1.33V125h-1.19Zm15.153.196c-1.386 0-2.324-.77-2.324-1.974 0-1.064.812-1.82 2.31-2.072l2.38-.392v-.49c0-.98-.7-1.54-1.708-1.54a2.29 2.29 0 0 0-1.904.98l-.896-.686c.616-.84 1.61-1.358 2.842-1.358 1.792 0 2.856 1.05 2.856 2.604V125h-1.19v-.896c-.532.686-1.456 1.092-2.366 1.092Zm-1.12-2.016c0 .602.49 1.036 1.316 1.036.938 0 1.708-.448 2.17-1.204v-1.386l-2.086.35c-.966.168-1.4.602-1.4 1.204Zm7.063 1.82v-7.056h1.19v.798c.574-.63 1.302-1.078 2.352-1.078 1.582 0 2.758 1.064 2.758 3.066V125h-1.19v-4.228c0-1.26-.714-1.988-1.806-1.988-1.022 0-1.666.588-2.114 1.33V125h-1.19Zm13.609-3.024v-4.032h1.19v3.99c0 2.114-1.218 3.346-3.136 3.346-1.904 0-3.122-1.232-3.122-3.346v-3.99h1.19v4.032c0 1.386.742 2.184 1.946 2.184 1.176 0 1.932-.798 1.932-2.184Zm9.808 1.862c-.658.882-1.708 1.442-3.024 1.442-2.38 0-3.85-1.75-3.85-3.808 0-2.142 1.372-3.808 3.556-3.808 1.918 0 3.164 1.344 3.164 3.08 0 .28-.042.546-.084.742h-5.418c.042 1.694 1.12 2.716 2.632 2.716.91 0 1.68-.42 2.142-1.05l.882.686Zm-3.346-5.166c-1.162 0-1.974.686-2.226 1.904h4.228c-.042-1.036-.756-1.904-2.002-1.904Zm5.208 6.328v-10.5h1.19V125h-1.19Zm3.705 0v-10.5h1.19V125h-1.19Zm9.978-1.162c-.658.882-1.708 1.442-3.024 1.442-2.38 0-3.85-1.75-3.85-3.808 0-2.142 1.372-3.808 3.556-3.808 1.918 0 3.164 1.344 3.164 3.08 0 .28-.042.546-.084.742h-5.418c.042 1.694 1.12 2.716 2.632 2.716.91 0 1.68-.42 2.142-1.05l.882.686Zm-3.346-5.166c-1.162 0-1.974.686-2.226 1.904h4.228c-.042-1.036-.756-1.904-2.002-1.904Zm6.145 2.478c0-2.478-.868-4.452-2.366-5.936l.868-.714c1.61 1.526 2.688 3.822 2.688 6.65 0 2.828-1.064 5.124-2.688 6.65l-.868-.714c1.498-1.484 2.366-3.444 2.366-5.936Z"/><path fill="#3558A2" d="M345.713 49v-3.172l6.24-6.136c1.404-1.43 2.288-2.418 2.288-3.9 0-1.508-1.04-2.392-2.47-2.392-1.742 0-2.808 1.066-3.77 2.678l-2.86-1.742c1.534-2.496 3.796-4.056 6.968-4.056s5.72 2.028 5.72 5.148c0 2.496-1.638 4.42-3.432 6.162l-4.394 4.238h8.294V49h-12.584Zm316.818-5.2c0 3.458-2.834 5.72-6.63 5.72-3.432 0-5.642-1.508-7.124-4.108l3.068-1.898c1.014 2.002 2.236 2.886 4.03 2.886 1.768 0 3.094-1.066 3.094-2.756 0-1.664-1.3-2.704-3.224-2.704h-2.99v-3.12h2.756c1.534 0 2.652-.858 2.652-2.262 0-1.378-1.04-2.158-2.47-2.158-1.456 0-2.444.78-3.198 2.08l-2.86-1.768c1.326-2.158 3.38-3.432 6.318-3.432 3.328 0 5.798 1.898 5.798 4.888 0 1.69-.728 3.12-2.08 4.056 1.846.936 2.86 2.574 2.86 4.576Z"/><path fill="#161616" d="M52.442 77v-9.8h2.996c2.156 0 3.486 1.106 3.486 2.926 0 1.19-.574 2.072-1.582 2.534L60.408 77H58.07l-2.618-3.962H54.43V77h-1.988Zm3.108-8.148h-1.12v2.534h1.12c.84 0 1.33-.49 1.33-1.288 0-.742-.49-1.246-1.33-1.246Zm12.348 7c-.658.882-1.75 1.428-3.08 1.428-2.506 0-3.92-1.75-3.92-3.808 0-2.086 1.316-3.808 3.626-3.808 1.96 0 3.248 1.33 3.248 3.178 0 .392-.056.756-.112.994h-4.942c.168 1.316.98 1.848 2.086 1.848.77 0 1.442-.336 1.82-.84l1.274 1.008Zm-3.416-4.732c-.91 0-1.512.504-1.708 1.428h3.248c-.028-.714-.546-1.428-1.54-1.428ZM69.509 77v-7.056h1.778v.56a2.867 2.867 0 0 1 2.086-.84c1.526 0 2.744 1.05 2.744 3.136V77h-1.792v-4.13c0-.938-.532-1.526-1.4-1.526-.896 0-1.372.602-1.638 1.05V77H69.51Zm8.011-1.022 1.176-1.064c.434.546.952.938 1.624.938.574 0 .868-.336.868-.756 0-1.232-3.374-.77-3.374-3.248 0-1.246 1.05-2.184 2.52-2.184 1.078 0 2.058.518 2.562 1.204l-1.176 1.036c-.364-.448-.826-.812-1.372-.812-.56 0-.826.308-.826.672 0 1.204 3.374.784 3.374 3.22-.028 1.484-1.218 2.296-2.548 2.296-1.26 0-2.156-.504-2.828-1.302Zm13.483-.126c-.658.882-1.75 1.428-3.08 1.428-2.506 0-3.92-1.75-3.92-3.808 0-2.086 1.316-3.808 3.626-3.808 1.96 0 3.248 1.33 3.248 3.178 0 .392-.056.756-.112.994h-4.942c.168 1.316.98 1.848 2.086 1.848.77 0 1.442-.336 1.82-.84l1.274 1.008Zm-3.416-4.732c-.91 0-1.512.504-1.708 1.428h3.248c-.028-.714-.546-1.428-1.54-1.428Zm5.924-2.408c-.63 0-1.162-.532-1.162-1.162 0-.63.532-1.162 1.162-1.162.63 0 1.148.532 1.148 1.162 0 .63-.518 1.162-1.148 1.162ZM92.615 77v-7.056h1.778V77h-1.778Zm3.21 1.232c0-.7.35-1.26.98-1.722a1.468 1.468 0 0 1-.434-1.022c0-.56.238-1.008.77-1.4-.616-.462-.952-1.162-.952-1.946 0-1.372 1.064-2.478 2.828-2.478.546 0 1.022.098 1.428.28h2.576v1.512h-1.246c.07.224.098.448.098.686 0 1.386-1.036 2.506-2.856 2.506-.238 0-.462-.014-.672-.056-.154.14-.238.294-.238.448 0 .28.154.42.476.42h1.778c1.778 0 2.744.952 2.744 2.268 0 1.568-1.498 2.772-3.696 2.772-2.254 0-3.584-.784-3.584-2.268Zm3.22-4.928c.742 0 1.218-.462 1.218-1.162s-.476-1.148-1.218-1.148c-.77 0-1.232.462-1.232 1.148 0 .7.462 1.162 1.232 1.162Zm-1.54 4.676c0 .672.644 1.092 1.89 1.092 1.288 0 1.946-.476 1.946-1.176 0-.532-.322-.91-1.176-.91h-2.184c-.266.252-.476.56-.476.994Zm6.827-.98v-7.056h1.778v.56a2.867 2.867 0 0 1 2.086-.84c1.526 0 2.744 1.05 2.744 3.136V77h-1.792v-4.13c0-.938-.532-1.526-1.4-1.526-.896 0-1.372.602-1.638 1.05V77h-1.778Zm15.123-1.148c-.658.882-1.75 1.428-3.08 1.428-2.506 0-3.92-1.75-3.92-3.808 0-2.086 1.316-3.808 3.626-3.808 1.96 0 3.248 1.33 3.248 3.178 0 .392-.056.756-.112.994h-4.942c.168 1.316.98 1.848 2.086 1.848.77 0 1.442-.336 1.82-.84l1.274 1.008Zm-3.416-4.732c-.91 0-1.512.504-1.708 1.428h3.248c-.028-.714-.546-1.428-1.54-1.428ZM120.69 77v-1.596l3.584-3.864h-3.472v-1.596h5.698v1.596l-3.584 3.864h3.682V77h-5.908Zm11.532 0V66.5H134V77h-1.778Zm10.406-1.148c-.658.882-1.75 1.428-3.08 1.428-2.506 0-3.92-1.75-3.92-3.808 0-2.086 1.316-3.808 3.626-3.808 1.96 0 3.248 1.33 3.248 3.178 0 .392-.056.756-.112.994h-4.942c.168 1.316.98 1.848 2.086 1.848.77 0 1.442-.336 1.82-.84l1.274 1.008Zm-3.416-4.732c-.91 0-1.512.504-1.708 1.428h3.248c-.028-.714-.546-1.428-1.54-1.428Zm8.801 5.88v-7.056h1.778v.56a2.867 2.867 0 0 1 2.086-.84c1.526 0 2.744 1.05 2.744 3.136V77h-1.792v-4.13c0-.938-.532-1.526-1.4-1.526-.896 0-1.372.602-1.638 1.05V77h-1.778Zm13.275-3.052v-4.004h1.792v3.92c0 2.114-1.232 3.416-3.304 3.416s-3.29-1.302-3.29-3.416v-3.92h1.792v4.004c0 1.022.532 1.652 1.512 1.652.966 0 1.498-.63 1.498-1.652Zm3.76 3.052v-7.056h1.778v.532c.476-.462 1.078-.812 1.946-.812.896 0 1.68.392 2.142 1.148.504-.616 1.176-1.148 2.366-1.148 1.456 0 2.604 1.008 2.604 2.996V77h-1.792v-4.27c0-.854-.462-1.386-1.26-1.386-.77 0-1.19.532-1.47 1.008.014.098.014.196.014.308V77h-1.792v-4.27c0-.854-.462-1.386-1.26-1.386-.812 0-1.232.602-1.498 1.05V77h-1.778Zm16.968-8.176h-1.708l1.456-2.324h1.932l-1.68 2.324Zm2.394 7.028c-.658.882-1.75 1.428-3.08 1.428-2.506 0-3.92-1.75-3.92-3.808 0-2.086 1.316-3.808 3.626-3.808 1.96 0 3.248 1.33 3.248 3.178 0 .392-.056.756-.112.994h-4.942c.168 1.316.98 1.848 2.086 1.848.77 0 1.442-.336 1.82-.84l1.274 1.008Zm-3.416-4.732c-.91 0-1.512.504-1.708 1.428h3.248c-.028-.714-.546-1.428-1.54-1.428Zm5.027 5.88v-7.056h1.778v.7c.462-.476 1.064-.84 1.862-.84.238 0 .448.042.616.098v1.75a3.063 3.063 0 0 0-.784-.098c-.868 0-1.428.476-1.694.924V77h-1.778Zm8.747-7.336c2.296 0 3.864 1.694 3.864 3.808s-1.568 3.808-3.864 3.808-3.864-1.694-3.864-3.808 1.568-3.808 3.864-3.808Zm.028 5.936c1.134 0 1.988-.91 1.988-2.128 0-1.232-.854-2.128-1.988-2.128-1.176 0-2.044.896-2.044 2.128 0 1.232.868 2.128 2.044 2.128Zm15.279-2.268V67.2h1.988v5.964c0 2.576-1.512 4.116-3.976 4.116-2.45 0-3.962-1.54-3.962-4.116V67.2h1.988v6.132c0 1.316.742 2.086 1.988 2.086 1.218 0 1.974-.77 1.974-2.086ZM213.222 77l3.71-9.8h2.604l3.71 9.8h-2.114l-.938-2.548h-3.92L215.336 77h-2.114Zm3.668-4.242h2.688l-1.344-3.682-1.344 3.682ZM224.899 77v-9.8h1.988V77h-1.988Zm11.623-7.336c2.296 0 3.864 1.694 3.864 3.808s-1.568 3.808-3.864 3.808-3.864-1.694-3.864-3.808 1.568-3.808 3.864-3.808Zm.028 5.936c1.134 0 1.988-.91 1.988-2.128 0-1.232-.854-2.128-1.988-2.128-1.176 0-2.044.896-2.044 2.128 0 1.232.868 2.128 2.044 2.128Zm10.105-1.652v-4.004h1.792v3.92c0 2.114-1.232 3.416-3.304 3.416s-3.29-1.302-3.29-3.416v-3.92h1.792v4.004c0 1.022.532 1.652 1.512 1.652.966 0 1.498-.63 1.498-1.652ZM51.56 99.642l1.442-1.33c.588.756 1.372 1.204 2.17 1.204.784 0 1.26-.42 1.26-1.12 0-1.806-4.452-1.316-4.452-4.634 0-1.554 1.288-2.842 3.164-2.842 1.47 0 2.59.658 3.43 1.652l-1.456 1.316c-.574-.742-1.218-1.232-1.96-1.232-.7 0-1.162.448-1.162 1.036 0 1.778 4.452 1.274 4.452 4.634-.028 1.848-1.456 2.954-3.262 2.954-1.652 0-2.758-.602-3.626-1.638ZM60.672 101v-9.8h1.989v9.8h-1.989Zm4.868 0v-9.8h2.996c2.156 0 3.486 1.106 3.486 2.926 0 1.19-.574 2.072-1.582 2.534l3.066 4.34h-2.338l-2.618-3.962h-1.022V101H65.54Zm3.108-8.148h-1.12v2.534h1.12c.84 0 1.33-.49 1.33-1.288 0-.742-.49-1.246-1.33-1.246ZM74.905 101v-9.8h5.712v1.652h-3.724v2.324h3.164v1.652h-3.164v2.52h3.724V101h-5.712Zm7.36-7.994V91.2H90.3v1.806h-3.024V101h-1.988v-7.994h-3.024Zm12.91 4.466c0-2.058 1.415-3.808 3.627-3.808 1.05 0 1.876.406 2.506 1.12V90.5h1.19V101h-1.19v-.84c-.63.714-1.456 1.12-2.506 1.12-2.212 0-3.626-1.75-3.626-3.808Zm1.26 0c0 1.498 1.009 2.688 2.507 2.688.98 0 1.848-.476 2.366-1.302v-2.772c-.546-.84-1.4-1.302-2.366-1.302-1.498 0-2.506 1.19-2.506 2.688Zm14.843 2.366c-.658.882-1.708 1.442-3.024 1.442-2.38 0-3.85-1.75-3.85-3.808 0-2.142 1.372-3.808 3.556-3.808 1.918 0 3.164 1.344 3.164 3.08 0 .28-.042.546-.084.742h-5.418c.042 1.694 1.12 2.716 2.632 2.716.91 0 1.68-.42 2.142-1.05l.882.686Zm-3.346-5.166c-1.162 0-1.974.686-2.226 1.904h4.228c-.042-1.036-.756-1.904-2.002-1.904Zm7.918-.728h1.288l2.254 5.81 2.254-5.81h1.288L120.176 101h-1.568l-2.758-7.056Zm11.653-.28c2.268 0 3.822 1.75 3.822 3.808s-1.554 3.808-3.822 3.808c-2.282 0-3.822-1.75-3.822-3.808s1.54-3.808 3.822-3.808Zm.014 6.496c1.47 0 2.548-1.232 2.548-2.688 0-1.47-1.078-2.688-2.548-2.688-1.512 0-2.59 1.218-2.59 2.688 0 1.47 1.078 2.688 2.59 2.688Zm6.018-1.526v-3.612h-1.33v-1.078h1.33V92.18h1.204v1.764h2.45v1.078h-2.45v3.612c0 1.106.56 1.414 1.414 1.414.462 0 .784-.056 1.05-.168v1.064c-.336.14-.714.196-1.218.196-1.568 0-2.45-.784-2.45-2.506Zm5.473 2.366v-7.056h1.19v.882c.518-.616 1.162-1.022 2.058-1.022.224 0 .434.028.602.084v1.162a2.592 2.592 0 0 0-.7-.084c-.924 0-1.526.476-1.96 1.19V101h-1.19Zm11.413-1.162c-.658.882-1.708 1.442-3.024 1.442-2.38 0-3.85-1.75-3.85-3.808 0-2.142 1.372-3.808 3.556-3.808 1.918 0 3.164 1.344 3.164 3.08 0 .28-.042.546-.084.742h-5.418c.042 1.694 1.12 2.716 2.632 2.716.91 0 1.68-.42 2.142-1.05l.882.686Zm-3.346-5.166c-1.162 0-1.974.686-2.226 1.904h4.228c-.042-1.036-.756-1.904-2.002-1.904Zm12.202-1.008c2.268 0 3.822 1.75 3.822 3.808s-1.554 3.808-3.822 3.808c-2.282 0-3.822-1.75-3.822-3.808s1.54-3.808 3.822-3.808Zm.014 6.496c1.47 0 2.548-1.232 2.548-2.688 0-1.47-1.078-2.688-2.548-2.688-1.512 0-2.59 1.218-2.59 2.688 0 1.47 1.078 2.688 2.59 2.688Zm5.721.84v-7.056h1.19v.882c.518-.616 1.162-1.022 2.058-1.022.224 0 .434.028.602.084v1.162a2.592 2.592 0 0 0-.7-.084c-.924 0-1.526.476-1.96 1.19V101h-1.19Zm4.616 1.274c0-.714.35-1.288 1.05-1.778a1.28 1.28 0 0 1-.49-1.008c0-.56.294-1.022.84-1.372a2.433 2.433 0 0 1-.98-1.96c0-1.358 1.064-2.506 2.744-2.506.518 0 .98.112 1.358.294h2.618v1.036h-1.526c.196.35.294.756.294 1.176 0 1.344-1.05 2.492-2.744 2.492a3.6 3.6 0 0 1-.98-.14c-.294.21-.462.462-.462.728 0 .294.154.504.588.504h2.016c1.862 0 2.73.91 2.73 2.17 0 1.484-1.484 2.59-3.598 2.59-2.086 0-3.458-.812-3.458-2.226Zm3.178-4.564c1.022 0 1.61-.7 1.61-1.554 0-.868-.588-1.568-1.61-1.568-1.05 0-1.624.7-1.624 1.568 0 .868.574 1.554 1.624 1.554Zm-2.016 4.424c0 .854.882 1.372 2.282 1.372 1.484 0 2.422-.588 2.422-1.512 0-.672-.378-1.204-1.638-1.204h-2.282c-.49.364-.784.784-.784 1.344Zm9.005-.938c-1.386 0-2.324-.77-2.324-1.974 0-1.064.812-1.82 2.31-2.072l2.38-.392v-.49c0-.98-.7-1.54-1.708-1.54a2.29 2.29 0 0 0-1.904.98l-.896-.686c.616-.84 1.61-1.358 2.842-1.358 1.792 0 2.856 1.05 2.856 2.604V101h-1.19v-.896c-.532.686-1.456 1.092-2.366 1.092Zm-1.12-2.016c0 .602.49 1.036 1.316 1.036.938 0 1.708-.448 2.17-1.204v-1.386l-2.086.35c-.966.168-1.4.602-1.4 1.204Zm7.064 1.82v-7.056h1.19v.798c.574-.63 1.302-1.078 2.352-1.078 1.582 0 2.758 1.064 2.758 3.066V101h-1.19v-4.228c0-1.26-.714-1.988-1.806-1.988-1.022 0-1.666.588-2.114 1.33V101h-1.19Zm9.297-8.89a.842.842 0 0 1-.84-.84.84.84 0 0 1 .84-.826c.462 0 .826.378.826.826a.83.83 0 0 1-.826.84Zm-.602 8.89v-7.056h1.19V101h-1.19Zm2.894-.966.84-.714c.49.616 1.078.966 1.792.966.784 0 1.232-.476 1.232-1.092 0-1.582-3.528-1.022-3.528-3.514 0-1.106.938-2.016 2.296-2.016 1.008 0 1.876.476 2.366 1.162l-.826.7c-.378-.532-.91-.868-1.526-.868-.756 0-1.162.448-1.162.994 0 1.582 3.542 1.078 3.542 3.486-.014 1.316-1.064 2.142-2.38 2.142-1.12 0-2.002-.448-2.646-1.246Zm6.963.966v-7.056h1.19v.77c.532-.616 1.232-1.05 2.212-1.05 1.022 0 1.862.462 2.296 1.358.56-.77 1.302-1.358 2.52-1.358 1.512 0 2.618 1.008 2.618 2.926V101h-1.19v-4.368c0-1.176-.658-1.848-1.666-1.848-.896 0-1.526.504-1.988 1.33.014.154.028.308.028.476V101h-1.19v-4.368c0-1.176-.644-1.848-1.666-1.848-.966 0-1.568.602-1.974 1.33V101h-1.19Zm19.507-1.162c-.658.882-1.708 1.442-3.024 1.442-2.38 0-3.85-1.75-3.85-3.808 0-2.142 1.372-3.808 3.556-3.808 1.918 0 3.164 1.344 3.164 3.08 0 .28-.042.546-.084.742h-5.418c.042 1.694 1.12 2.716 2.632 2.716.91 0 1.68-.42 2.142-1.05l.882.686Zm-3.346-5.166c-1.162 0-1.974.686-2.226 1.904h4.228c-.042-1.036-.756-1.904-2.002-1.904Zm15.254 5.166c-.658.882-1.708 1.442-3.024 1.442-2.38 0-3.85-1.75-3.85-3.808 0-2.142 1.372-3.808 3.556-3.808 1.918 0 3.164 1.344 3.164 3.08 0 .28-.042.546-.084.742h-5.418c.042 1.694 1.12 2.716 2.632 2.716.91 0 1.68-.42 2.142-1.05l.882.686Zm-3.346-5.166c-1.162 0-1.974.686-2.226 1.904h4.228c-.042-1.036-.756-1.904-2.002-1.904Zm5.574 3.962v-3.612h-1.33v-1.078h1.33V92.18h1.204v1.764h2.45v1.078h-2.45v3.612c0 1.106.56 1.414 1.414 1.414.462 0 .784-.056 1.05-.168v1.064c-.336.14-.714.196-1.218.196-1.568 0-2.45-.784-2.45-2.506ZM52.26 125v-10.5h1.19V125h-1.19Zm5.623.196c-1.386 0-2.324-.77-2.324-1.974 0-1.064.812-1.82 2.31-2.072l2.38-.392v-.49c0-.98-.7-1.54-1.708-1.54a2.29 2.29 0 0 0-1.904.98l-.896-.686c.616-.84 1.61-1.358 2.842-1.358 1.792 0 2.856 1.05 2.856 2.604V125h-1.19v-.896c-.532.686-1.456 1.092-2.366 1.092Zm-1.12-2.016c0 .602.49 1.036 1.316 1.036.938 0 1.708-.448 2.17-1.204v-1.386l-2.086.35c-.966.168-1.4.602-1.4 1.204Zm7.665-7.07a.842.842 0 0 1-.84-.84.84.84 0 0 1 .84-.826c.462 0 .826.378.826.826a.83.83 0 0 1-.826.84Zm-.602 8.89v-7.056h1.19V125h-1.19Zm2.895-.966.84-.714c.49.616 1.078.966 1.792.966.784 0 1.232-.476 1.232-1.092 0-1.582-3.528-1.022-3.528-3.514 0-1.106.938-2.016 2.296-2.016 1.008 0 1.876.476 2.366 1.162l-.826.7c-.378-.532-.91-.868-1.526-.868-.756 0-1.162.448-1.162.994 0 1.582 3.542 1.078 3.542 3.486-.014 1.316-1.064 2.142-2.38 2.142-1.12 0-2.002-.448-2.646-1.246Zm6.152 0 .84-.714c.49.616 1.078.966 1.792.966.784 0 1.232-.476 1.232-1.092 0-1.582-3.528-1.022-3.528-3.514 0-1.106.938-2.016 2.296-2.016 1.008 0 1.876.476 2.366 1.162l-.826.7c-.378-.532-.91-.868-1.526-.868-.756 0-1.162.448-1.162.994 0 1.582 3.542 1.078 3.542 3.486-.014 1.316-1.064 2.142-2.38 2.142-1.12 0-2.002-.448-2.646-1.246Zm13.153-.196c-.658.882-1.708 1.442-3.024 1.442-2.38 0-3.85-1.75-3.85-3.808 0-2.142 1.372-3.808 3.556-3.808 1.918 0 3.164 1.344 3.164 3.08 0 .28-.042.546-.084.742H80.37c.042 1.694 1.12 2.716 2.632 2.716.91 0 1.68-.42 2.142-1.05l.882.686Zm-3.346-5.166c-1.162 0-1.974.686-2.226 1.904h4.228c-.042-1.036-.756-1.904-2.002-1.904ZM87.315 125v-1.078l4.158-4.9h-4.06v-1.078h5.516v1.078l-4.172 4.9h4.27V125h-5.712Zm6.662-4.158h3.78v1.148h-3.78v-1.148Zm4.114-2.898h1.288l2.254 5.81 2.254-5.81h1.288L102.417 125h-1.568l-2.758-7.056Zm11.653-.28c2.268 0 3.822 1.75 3.822 3.808s-1.554 3.808-3.822 3.808c-2.282 0-3.822-1.75-3.822-3.808s1.54-3.808 3.822-3.808Zm.014 6.496c1.47 0 2.548-1.232 2.548-2.688 0-1.47-1.078-2.688-2.548-2.688-1.512 0-2.59 1.218-2.59 2.688 0 1.47 1.078 2.688 2.59 2.688Zm10.635-2.184v-4.032h1.19v3.99c0 2.114-1.218 3.346-3.136 3.346-1.904 0-3.122-1.232-3.122-3.346v-3.99h1.19v4.032c0 1.386.742 2.184 1.946 2.184 1.176 0 1.932-.798 1.932-2.184Zm2.752 2.058.84-.714c.49.616 1.078.966 1.792.966.784 0 1.232-.476 1.232-1.092 0-1.582-3.528-1.022-3.528-3.514 0-1.106.938-2.016 2.296-2.016 1.008 0 1.876.476 2.366 1.162l-.826.7c-.378-.532-.91-.868-1.526-.868-.756 0-1.162.448-1.162.994 0 1.582 3.542 1.078 3.542 3.486-.014 1.316-1.064 2.142-2.38 2.142-1.12 0-2.002-.448-2.646-1.246Zm9.924 2.24c0-.714.35-1.288 1.05-1.778a1.28 1.28 0 0 1-.49-1.008c0-.56.294-1.022.84-1.372a2.433 2.433 0 0 1-.98-1.96c0-1.358 1.064-2.506 2.744-2.506.518 0 .98.112 1.358.294h2.618v1.036h-1.526c.196.35.294.756.294 1.176 0 1.344-1.05 2.492-2.744 2.492a3.6 3.6 0 0 1-.98-.14c-.294.21-.462.462-.462.728 0 .294.154.504.588.504h2.016c1.862 0 2.73.91 2.73 2.17 0 1.484-1.484 2.59-3.598 2.59-2.086 0-3.458-.812-3.458-2.226Zm3.178-4.564c1.022 0 1.61-.7 1.61-1.554 0-.868-.588-1.568-1.61-1.568-1.05 0-1.624.7-1.624 1.568 0 .868.574 1.554 1.624 1.554Zm-2.016 4.424c0 .854.882 1.372 2.282 1.372 1.484 0 2.422-.588 2.422-1.512 0-.672-.378-1.204-1.638-1.204h-2.282c-.49.364-.784.784-.784 1.344Zm12.343-4.158v-4.032h1.19v3.99c0 2.114-1.218 3.346-3.136 3.346-1.904 0-3.122-1.232-3.122-3.346v-3.99h1.19v4.032c0 1.386.742 2.184 1.946 2.184 1.176 0 1.932-.798 1.932-2.184Zm4.138-5.866a.842.842 0 0 1-.84-.84.84.84 0 0 1 .84-.826c.462 0 .826.378.826.826a.83.83 0 0 1-.826.84Zm-.602 8.89v-7.056h1.19V125h-1.19Zm3.103-3.528c0-2.058 1.414-3.808 3.626-3.808 1.05 0 1.876.406 2.506 1.12V114.5h1.19V125h-1.19v-.84c-.63.714-1.456 1.12-2.506 1.12-2.212 0-3.626-1.75-3.626-3.808Zm1.26 0c0 1.498 1.008 2.688 2.506 2.688.98 0 1.848-.476 2.366-1.302v-2.772c-.546-.84-1.4-1.302-2.366-1.302-1.498 0-2.506 1.19-2.506 2.688Zm14.842 2.366c-.658.882-1.708 1.442-3.024 1.442-2.38 0-3.85-1.75-3.85-3.808 0-2.142 1.372-3.808 3.556-3.808 1.918 0 3.164 1.344 3.164 3.08 0 .28-.042.546-.084.742h-5.418c.042 1.694 1.12 2.716 2.632 2.716.91 0 1.68-.42 2.142-1.05l.882.686Zm-3.346-5.166c-1.162 0-1.974.686-2.226 1.904h4.228c-.042-1.036-.756-1.904-2.002-1.904Zm5.209 6.328v-7.056h1.19v.882c.518-.616 1.162-1.022 2.058-1.022.224 0 .434.028.602.084v1.162a2.592 2.592 0 0 0-.7-.084c-.924 0-1.526.476-1.96 1.19V125h-1.19Z"/><path fill="#3558A2" d="M58.06 48.974V34.388l-3.77 2.132-1.743-2.496 5.616-3.25h3.406v18.2h-3.51Z"/><circle cx="322" cy="169" r="16" fill="#3558A2" fill-opacity=".1" transform="rotate(90 322 169)"/><circle cx="322" cy="169" r="8" fill="#3558A2" transform="rotate(90 322 169)"/><path stroke="#3558A2" stroke-dasharray="5 5" stroke-linecap="round" d="M322.5 24.5v137"/><circle cx="624" cy="168.736" r="16" fill="#3558A2" fill-opacity=".1" transform="rotate(90 624 168.736)"/><circle cx="624" cy="168.736" r="8" fill="#3558A2" transform="rotate(90 624 168.736)"/><path stroke="#3558A2" stroke-dasharray="5 5" stroke-linecap="round" d="M624.5 44.5v137"/><circle cx="884" cy="167" r="16" fill="#3558A2" fill-opacity=".1" transform="rotate(90 884 167)"/><circle cx="884" cy="167" r="8" fill="#3558A2" transform="rotate(90 884 167)"/><path stroke="#3558A2" stroke-dasharray="5 5" stroke-linecap="round" d="M884 20v169"/><g fill="#3558A2" filter="url(#b)" transform="rotate(180 28 168)"><circle cx="28" cy="168" r="16" fill-opacity=".1"/><circle cx="28" cy="168" r="8"/></g><path stroke="#3558A2" stroke-dasharray="5 5" stroke-linecap="round" d="M27.5 31.5v137"/><path fill="#161616" d="M920.524 16.166c-1.022 0-1.834-.812-1.834-1.792 0-.952.812-1.736 1.834-1.736s1.806.784 1.806 1.736a1.79 1.79 0 0 1-1.806 1.792Zm13.528 1.134c0 2.114-1.05 2.982-2.772 2.982-.266 0-.504-.014-.686-.056V19.05c.168.042.336.07.532.07.938 0 1.61-.392 1.61-1.764V8.2h1.316v9.1Zm9.019-.462c-.658.882-1.708 1.442-3.024 1.442-2.38 0-3.85-1.75-3.85-3.808 0-2.142 1.372-3.808 3.556-3.808 1.918 0 3.164 1.344 3.164 3.08 0 .28-.042.546-.084.742h-5.418c.042 1.694 1.12 2.716 2.632 2.716.91 0 1.68-.42 2.142-1.05l.882.686Zm-3.346-5.166c-1.162 0-1.974.686-2.226 1.904h4.228c-.042-1.036-.756-1.904-2.002-1.904Zm8.282 2.8c0-2.058 1.358-3.808 3.584-3.808.952 0 1.638.294 2.184.84V7.5h1.792V18h-1.792v-.56c-.546.546-1.232.84-2.184.84-2.226 0-3.584-1.75-3.584-3.808Zm1.862 0c0 1.232.77 2.128 1.974 2.128.798 0 1.456-.336 1.932-.98v-2.296c-.476-.644-1.134-.98-1.932-.98-1.204 0-1.974.896-1.974 2.128Zm11.19-3.808c2.296 0 3.864 1.694 3.864 3.808s-1.568 3.808-3.864 3.808-3.864-1.694-3.864-3.808 1.568-3.808 3.864-3.808Zm.028 5.936c1.134 0 1.988-.91 1.988-2.128 0-1.232-.854-2.128-1.988-2.128-1.176 0-2.044.896-2.044 2.128 0 1.232.868 2.128 2.044 2.128Zm5.457 1.4v-7.056h1.778v.56a2.867 2.867 0 0 1 2.086-.84c1.526 0 2.744 1.05 2.744 3.136V18h-1.792v-4.13c0-.938-.532-1.526-1.4-1.526-.896 0-1.372.602-1.638 1.05V18h-1.778Zm8.627 0v-7.056h1.778v.56a2.867 2.867 0 0 1 2.086-.84c1.526 0 2.744 1.05 2.744 3.136V18h-1.792v-4.13c0-.938-.532-1.526-1.4-1.526-.896 0-1.372.602-1.638 1.05V18h-1.778Zm15.123-1.148c-.658.882-1.75 1.428-3.08 1.428-2.506 0-3.92-1.75-3.92-3.808 0-2.086 1.316-3.808 3.626-3.808 1.96 0 3.248 1.33 3.248 3.178 0 .392-.056.756-.112.994h-4.942c.168 1.316.98 1.848 2.086 1.848.77 0 1.442-.336 1.82-.84l1.274 1.008Zm-3.416-4.732c-.91 0-1.512.504-1.708 1.428h3.248c-.028-.714-.546-1.428-1.54-1.428Zm8.297 2.352c0-2.058 1.358-3.808 3.584-3.808.952 0 1.641.294 2.181.84V7.5h1.8V18h-1.8v-.56c-.54.546-1.229.84-2.181.84-2.226 0-3.584-1.75-3.584-3.808Zm1.862 0c0 1.232.77 2.128 1.974 2.128.798 0 1.459-.336 1.929-.98v-2.296a2.295 2.295 0 0 0-1.929-.98c-1.204 0-1.974.896-1.974 2.128Zm14.323 2.38c-.66.882-1.75 1.428-3.08 1.428-2.5 0-3.92-1.75-3.92-3.808 0-2.086 1.32-3.808 3.63-3.808 1.96 0 3.25 1.33 3.25 3.178 0 .392-.06.756-.12.994h-4.94c.17 1.316.98 1.848 2.09 1.848.77 0 1.44-.336 1.82-.84l1.27 1.008Zm-3.41-4.732c-.91 0-1.52.504-1.71 1.428h3.25c-.03-.714-.55-1.428-1.54-1.428Zm8.8 5.88V7.5h1.78V18h-1.78Zm5.9.21c-1.42 0-2.38-.812-2.38-2.114 0-1.064.82-1.862 2.33-2.114l2.16-.364v-.182c0-.742-.56-1.218-1.37-1.218-.69 0-1.22.322-1.6.84l-1.3-.994c.63-.868 1.67-1.4 2.95-1.4 2.05 0 3.1 1.218 3.1 2.772V18h-1.78v-.686c-.45.546-1.29.896-2.11.896Zm-.62-2.198c0 .476.38.784.98.784.81 0 1.4-.378 1.75-.938v-.994l-1.68.28c-.74.126-1.05.434-1.05.868Zm9.31-5.068h1.9l1.84 5.04 1.82-5.04h1.92L1036.24 18h-2.34l-2.56-7.056Zm9.49-1.232c-.63 0-1.16-.532-1.16-1.162 0-.63.53-1.162 1.16-1.162.63 0 1.15.532 1.15 1.162 0 .63-.52 1.162-1.15 1.162Zm-.89 8.288v-7.056h1.77V18h-1.77Zm3.19-1.022 1.18-1.064c.43.546.95.938 1.62.938.58 0 .87-.336.87-.756 0-1.232-3.37-.77-3.37-3.248 0-1.246 1.05-2.184 2.52-2.184 1.08 0 2.06.518 2.56 1.204l-1.18 1.036c-.36-.448-.82-.812-1.37-.812-.56 0-.82.308-.82.672 0 1.204 3.37.784 3.37 3.22-.03 1.484-1.22 2.296-2.55 2.296-1.26 0-2.15-.504-2.83-1.302Zm7.91-7.266c-.63 0-1.16-.532-1.16-1.162 0-.63.53-1.162 1.16-1.162.63 0 1.15.532 1.15 1.162 0 .63-.52 1.162-1.15 1.162Zm-.89 8.288v-7.056h1.78V18h-1.78Zm11.47-3.528c0 2.058-1.35 3.808-3.59 3.808-.96 0-1.65-.308-2.19-.854V18h-1.78V7.5h1.78v4.018c.54-.546 1.23-.854 2.19-.854 2.24 0 3.59 1.75 3.59 3.808Zm-3.84-2.128c-.82 0-1.51.364-1.94 1.008v2.24c.47.658 1.14 1.008 1.94 1.008 1.21 0 1.99-.896 1.99-2.128 0-1.232-.78-2.128-1.99-2.128Zm6.36-2.632c-.63 0-1.16-.532-1.16-1.162 0-.63.53-1.162 1.16-1.162.63 0 1.15.532 1.15 1.162 0 .63-.52 1.162-1.15 1.162Zm-.89 8.288v-7.056h1.77V18h-1.77Zm3.91 0V7.5h1.77V18h-1.77Zm4.8-8.288c-.63 0-1.16-.532-1.16-1.162 0-.63.53-1.162 1.16-1.162.63 0 1.15.532 1.15 1.162 0 .63-.52 1.162-1.15 1.162Zm-.89 8.288v-7.056h1.77V18h-1.77Zm4.35-2.576V12.54h-1.31v-1.596h1.31V9.18h1.8v1.764h2.15v1.596h-2.15v2.884c0 .784.42 1.092 1.12 1.092.49 0 .81-.056 1.05-.154v1.554c-.35.154-.77.224-1.36.224-1.77 0-2.61-.994-2.61-2.716Zm9.51-5.6h-1.71l1.46-2.324h1.93l-1.68 2.324Zm2.39 7.028c-.65.882-1.75 1.428-3.08 1.428-2.5 0-3.92-1.75-3.92-3.808 0-2.086 1.32-3.808 3.63-3.808 1.96 0 3.25 1.33 3.25 3.178 0 .392-.06.756-.11.994h-4.95c.17 1.316.98 1.848 2.09 1.848.77 0 1.44-.336 1.82-.84l1.27 1.008Zm-3.41-4.732c-.91 0-1.51.504-1.71 1.428h3.25c-.03-.714-.55-1.428-1.54-1.428Zm10.91 6.076c-1.38 0-2.32-.77-2.32-1.974 0-1.064.81-1.82 2.31-2.072l2.38-.392v-.49c0-.98-.7-1.54-1.71-1.54-.81 0-1.47.378-1.9.98l-.9-.686c.62-.84 1.61-1.358 2.84-1.358 1.79 0 2.86 1.05 2.86 2.604V18h-1.19v-.896c-.53.686-1.46 1.092-2.37 1.092Zm-1.12-2.016c0 .602.49 1.036 1.32 1.036.94 0 1.71-.448 2.17-1.204v-1.386l-2.09.35c-.96.168-1.4.602-1.4 1.204Zm11.98-1.204v-4.032h1.19v3.99c0 2.114-1.22 3.346-3.14 3.346-1.9 0-3.12-1.232-3.12-3.346v-3.99h1.19v4.032c0 1.386.74 2.184 1.95 2.184 1.17 0 1.93-.798 1.93-2.184Zm3.87 3.024h-1.38l2.6-3.654-2.41-3.402h1.36l1.84 2.604 1.83-2.604h1.37l-2.42 3.402 2.6 3.654h-1.35l-2.02-2.856-2.02 2.856ZM932.26 45.444v-10.5h1.19v.84c.63-.714 1.456-1.12 2.506-1.12 2.212 0 3.626 1.75 3.626 3.808s-1.414 3.808-3.626 3.808c-1.05 0-1.876-.406-2.506-1.12v4.284h-1.19Zm3.556-9.66c-.98 0-1.834.476-2.366 1.316v2.744c.546.854 1.4 1.316 2.366 1.316 1.498 0 2.52-1.19 2.52-2.688 0-1.498-1.022-2.688-2.52-2.688Zm8.975-1.12c2.268 0 3.822 1.75 3.822 3.808s-1.554 3.808-3.822 3.808c-2.282 0-3.822-1.75-3.822-3.808s1.54-3.808 3.822-3.808Zm.014 6.496c1.47 0 2.548-1.232 2.548-2.688 0-1.47-1.078-2.688-2.548-2.688-1.512 0-2.59 1.218-2.59 2.688 0 1.47 1.078 2.688 2.59 2.688Zm10.635-2.184v-4.032h1.19v3.99c0 2.114-1.218 3.346-3.136 3.346-1.904 0-3.122-1.232-3.122-3.346v-3.99h1.19v4.032c0 1.386.742 2.184 1.946 2.184 1.176 0 1.932-.798 1.932-2.184Zm2.526-4.032h1.288l2.254 5.81 2.254-5.81h1.288L962.292 42h-1.568l-2.758-7.056Zm11.653-.28c2.268 0 3.822 1.75 3.822 3.808s-1.554 3.808-3.822 3.808c-2.282 0-3.822-1.75-3.822-3.808s1.54-3.808 3.822-3.808Zm.014 6.496c1.47 0 2.548-1.232 2.548-2.688 0-1.47-1.078-2.688-2.548-2.688-1.512 0-2.59 1.218-2.59 2.688 0 1.47 1.078 2.688 2.59 2.688Zm6.323-8.05a.842.842 0 0 1-.84-.84.84.84 0 0 1 .84-.826c.462 0 .826.378.826.826a.83.83 0 0 1-.826.84Zm-.602 8.89v-7.056h1.19V42h-1.19Zm3.705 0v-7.056h1.19v.882c.518-.616 1.162-1.022 2.058-1.022.224 0 .434.028.602.084v1.162a2.592 2.592 0 0 0-.7-.084c-.924 0-1.526.476-1.96 1.19V42h-1.19Zm4.808-.966.84-.714c.49.616 1.078.966 1.792.966.784 0 1.232-.476 1.232-1.092 0-1.582-3.528-1.022-3.528-3.514 0-1.106.938-2.016 2.296-2.016 1.008 0 1.876.476 2.366 1.162l-.826.7c-.378-.532-.91-.868-1.526-.868-.756 0-1.162.448-1.162.994 0 1.582 3.542 1.078 3.542 3.486-.014 1.316-1.064 2.142-2.38 2.142-1.12 0-2.002-.448-2.646-1.246Zm10.737 4.41v-10.5h1.19v.84c.63-.714 1.456-1.12 2.506-1.12 2.21 0 3.63 1.75 3.63 3.808s-1.42 3.808-3.63 3.808c-1.05 0-1.876-.406-2.506-1.12v4.284h-1.19Zm3.556-9.66c-.98 0-1.834.476-2.366 1.316v2.744c.546.854 1.4 1.316 2.366 1.316 1.498 0 2.52-1.19 2.52-2.688 0-1.498-1.022-2.688-2.52-2.688Zm10.6 3.192v-4.032h1.19v3.99c0 2.114-1.22 3.346-3.14 3.346-1.9 0-3.12-1.232-3.12-3.346v-3.99h1.19v4.032c0 1.386.74 2.184 1.95 2.184 1.17 0 1.93-.798 1.93-2.184Zm10.86-.504c0 2.058-1.42 3.808-3.63 3.808-1.05 0-1.87-.406-2.5-1.12V42h-1.19V31.5h1.19v4.284c.63-.714 1.45-1.12 2.5-1.12 2.21 0 3.63 1.75 3.63 3.808Zm-3.77-2.688c-.98 0-1.85.476-2.36 1.302v2.772c.54.84 1.4 1.302 2.36 1.302 1.5 0 2.52-1.19 2.52-2.688 0-1.498-1.02-2.688-2.52-2.688Zm5.7 6.216V31.5h1.19V42h-1.19Zm4.31-8.89a.844.844 0 0 1-.84-.84c0-.448.38-.826.84-.826.46 0 .82.378.82.826 0 .462-.36.84-.82.84Zm-.6 8.89v-7.056h1.19V42h-1.19Zm6.95-.84c.87 0 1.58-.42 2.02-1.036l.93.714c-.65.882-1.68 1.442-2.96 1.442-2.34 0-3.84-1.75-3.84-3.808s1.5-3.808 3.84-3.808c1.27 0 2.31.574 2.96 1.442l-.93.714a2.45 2.45 0 0 0-2.03-1.036c-1.52 0-2.59 1.19-2.59 2.688 0 1.512 1.07 2.688 2.6 2.688Zm3.77-.126.84-.714c.49.616 1.08.966 1.8.966.78 0 1.23-.476 1.23-1.092 0-1.582-3.53-1.022-3.53-3.514 0-1.106.94-2.016 2.3-2.016 1 0 1.87.476 2.36 1.162l-.82.7c-.38-.532-.91-.868-1.53-.868-.76 0-1.16.448-1.16.994 0 1.582 3.54 1.078 3.54 3.486-.01 1.316-1.06 2.142-2.38 2.142-1.12 0-2-.448-2.65-1.246Zm9.93-.056 1.17-1.064c.44.546.96.938 1.63.938.57 0 .87-.336.87-.756 0-1.232-3.38-.77-3.38-3.248 0-1.246 1.05-2.184 2.52-2.184 1.08 0 2.06.518 2.56 1.204l-1.17 1.036c-.37-.448-.83-.812-1.37-.812-.56 0-.83.308-.83.672 0 1.204 3.37.784 3.37 3.22-.02 1.484-1.21 2.296-2.54 2.296-1.26 0-2.16-.504-2.83-1.302Zm11.66-2.03v-4.004h1.79v3.92c0 2.114-1.23 3.416-3.3 3.416s-3.29-1.302-3.29-3.416v-3.92h1.79v4.004c0 1.022.53 1.652 1.51 1.652.97 0 1.5-.63 1.5-1.652Zm3.76 3.052v-7.056h1.78v.7c.46-.476 1.06-.84 1.86-.84.24 0 .45.042.62.098v1.75a3.101 3.101 0 0 0-.79-.098c-.86 0-1.42.476-1.69.924V42h-1.78Zm9.46 0v-7.056h1.78v.532c.48-.462 1.08-.812 1.95-.812.89 0 1.68.392 2.14 1.148.5-.616 1.17-1.148 2.36-1.148 1.46 0 2.61 1.008 2.61 2.996V42h-1.79v-4.27c0-.854-.47-1.386-1.26-1.386-.77 0-1.19.532-1.47 1.008.01.098.01.196.01.308V42h-1.79v-4.27c0-.854-.46-1.386-1.26-1.386-.81 0-1.23.602-1.5 1.05V42h-1.78Zm19.36-1.148c-.65.882-1.75 1.428-3.08 1.428-2.5 0-3.92-1.75-3.92-3.808 0-2.086 1.32-3.808 3.63-3.808 1.96 0 3.25 1.33 3.25 3.178 0 .392-.06.756-.11.994h-4.95c.17 1.316.98 1.848 2.09 1.848.77 0 1.44-.336 1.82-.84l1.27 1.008Zm-3.41-4.732c-.91 0-1.51.504-1.71 1.428h3.25c-.03-.714-.55-1.428-1.54-1.428Zm4.31 4.858 1.18-1.064c.43.546.95.938 1.62.938.58 0 .87-.336.87-.756 0-1.232-3.37-.77-3.37-3.248 0-1.246 1.05-2.184 2.52-2.184 1.08 0 2.06.518 2.56 1.204l-1.18 1.036c-.36-.448-.82-.812-1.37-.812-.56 0-.82.308-.82.672 0 1.204 3.37.784 3.37 3.22-.03 1.484-1.22 2.296-2.55 2.296-1.26 0-2.15-.504-2.83-1.302Zm17.29-.126c-.66.882-1.75 1.428-3.08 1.428-2.51 0-3.92-1.75-3.92-3.808 0-2.086 1.31-3.808 3.62-3.808 1.96 0 3.25 1.33 3.25 3.178 0 .392-.05.756-.11.994h-4.94c.17 1.316.98 1.848 2.08 1.848.77 0 1.45-.336 1.82-.84l1.28 1.008Zm-3.42-4.732c-.91 0-1.51.504-1.71 1.428h3.25c-.03-.714-.54-1.428-1.54-1.428Zm4.16-1.176h1.32v-.742c0-1.498.99-2.702 2.75-2.702.65 0 1.19.154 1.64.392l-.75 1.484c-.21-.154-.49-.28-.86-.28-.6 0-.99.42-.99 1.064v.784h2.15v1.596h-2.15V42h-1.79v-5.46h-1.32v-1.596Zm5.96 0h1.32v-.742c0-1.498.99-2.702 2.76-2.702.64 0 1.19.154 1.63.392l-.75 1.484c-.21-.154-.49-.28-.86-.28-.6 0-.99.42-.99 1.064v.784h2.16v1.596h-2.16V42h-1.79v-5.46h-1.32v-1.596Zm12.71 5.908c-.66.882-1.75 1.428-3.08 1.428-2.5 0-3.92-1.75-3.92-3.808 0-2.086 1.32-3.808 3.63-3.808 1.96 0 3.25 1.33 3.25 3.178 0 .392-.06.756-.12.994h-4.94c.17 1.316.98 1.848 2.09 1.848.77 0 1.44-.336 1.82-.84l1.27 1.008Zm-3.41-4.732c-.91 0-1.52.504-1.71 1.428h3.25c-.03-.714-.55-1.428-1.54-1.428Zm8.36 4.48c.7 0 1.26-.322 1.59-.812l1.39 1.064c-.66.868-1.7 1.428-2.98 1.428-2.44 0-3.9-1.75-3.9-3.808s1.46-3.808 3.9-3.808c1.28 0 2.32.56 2.98 1.428l-1.39 1.064c-.33-.49-.89-.812-1.62-.812-1.16 0-2.02.896-2.02 2.128 0 1.246.86 2.128 2.05 2.128Zm4.82-1.176V36.54h-1.31v-1.596h1.31V33.18h1.79v1.764h2.16v1.596h-2.16v2.884c0 .784.42 1.092 1.12 1.092.49 0 .82-.056 1.05-.154v1.554c-.35.154-.77.224-1.35.224-1.77 0-2.61-.994-2.61-2.716Zm6.44-5.712c-.63 0-1.16-.532-1.16-1.162 0-.63.53-1.162 1.16-1.162.63 0 1.15.532 1.15 1.162 0 .63-.52 1.162-1.15 1.162Zm-.9 8.288v-7.056h1.78V42h-1.78Zm3.04-7.056h1.32v-.742c0-1.498.99-2.702 2.76-2.702.64 0 1.19.154 1.64.392l-.76 1.484a1.41 1.41 0 0 0-.85-.28c-.61 0-1 .42-1 1.064v.784h2.16v1.596h-2.16V42h-1.79v-5.46h-1.32v-1.596Zm5.63 6.034 1.18-1.064c.43.546.95.938 1.62.938.57 0 .87-.336.87-.756 0-1.232-3.38-.77-3.38-3.248 0-1.246 1.05-2.184 2.52-2.184 1.08 0 2.06.518 2.57 1.204l-1.18 1.036c-.36-.448-.83-.812-1.37-.812-.56 0-.83.308-.83.672 0 1.204 3.38.784 3.38 3.22-.03 1.484-1.22 2.296-2.55 2.296-1.26 0-2.16-.504-2.83-1.302ZM920.524 64.166c-1.022 0-1.834-.812-1.834-1.792 0-.952.812-1.736 1.834-1.736s1.806.784 1.806 1.736a1.79 1.79 0 0 1-1.806 1.792Zm13.528 1.134c0 2.114-1.05 2.982-2.772 2.982-.266 0-.504-.014-.686-.056V67.05c.168.042.336.07.532.07.938 0 1.61-.392 1.61-1.764V56.2h1.316v9.1Zm3.264-5.348h-1.106l1.19-3.752h1.358l-1.442 3.752Zm4.669 6.244c-1.386 0-2.324-.77-2.324-1.974 0-1.064.812-1.82 2.31-2.072l2.38-.392v-.49c0-.98-.7-1.54-1.708-1.54a2.29 2.29 0 0 0-1.904.98l-.896-.686c.616-.84 1.61-1.358 2.842-1.358 1.792 0 2.856 1.05 2.856 2.604V66h-1.19v-.896c-.532.686-1.456 1.092-2.366 1.092Zm-1.12-2.016c0 .602.49 1.036 1.316 1.036.938 0 1.708-.448 2.17-1.204v-1.386l-2.086.35c-.966.168-1.4.602-1.4 1.204Zm7.665-7.07a.842.842 0 0 1-.84-.84.84.84 0 0 1 .84-.826c.462 0 .826.378.826.826a.83.83 0 0 1-.826.84Zm-.602 8.89v-7.056h1.19V66h-1.19Zm3.103-3.528c0-2.058 1.414-3.808 3.626-3.808 1.05 0 1.876.406 2.506 1.12V55.5h1.19V66h-1.19v-.84c-.63.714-1.456 1.12-2.506 1.12-2.212 0-3.626-1.75-3.626-3.808Zm1.26 0c0 1.498 1.008 2.688 2.506 2.688.98 0 1.848-.476 2.366-1.302v-2.772c-.546-.84-1.4-1.302-2.366-1.302-1.498 0-2.506 1.19-2.506 2.688Zm14.843 2.366c-.658.882-1.708 1.442-3.024 1.442-2.38 0-3.85-1.75-3.85-3.808 0-2.142 1.372-3.808 3.556-3.808 1.918 0 3.164 1.344 3.164 3.08 0 .28-.042.546-.084.742h-5.418c.042 1.694 1.12 2.716 2.632 2.716.91 0 1.68-.42 2.142-1.05l.882.686Zm-3.346-5.166c-1.162 0-1.974.686-2.226 1.904h4.228c-.042-1.036-.756-1.904-2.002-1.904Zm11.04-1.848L973.19 55.5h1.33l1.456 2.324h-1.148Zm-.14 8.372c-1.386 0-2.324-.77-2.324-1.974 0-1.064.812-1.82 2.31-2.072l2.38-.392v-.49c0-.98-.7-1.54-1.708-1.54a2.29 2.29 0 0 0-1.904.98l-.896-.686c.616-.84 1.61-1.358 2.842-1.358 1.792 0 2.856 1.05 2.856 2.604V66h-1.19v-.896c-.532.686-1.456 1.092-2.366 1.092Zm-1.12-2.016c0 .602.49 1.036 1.316 1.036.938 0 1.708-.448 2.17-1.204v-1.386l-2.086.35c-.966.168-1.4.602-1.4 1.204ZM984.209 66V55.5h1.778V66h-1.778Zm4.859-5.768h-1.652l1.26-4.032h2.016l-1.624 4.032Zm4.361 5.978c-1.414 0-2.38-.812-2.38-2.114 0-1.064.826-1.862 2.338-2.114l2.156-.364v-.182c0-.742-.56-1.218-1.372-1.218-.686 0-1.218.322-1.596.84l-1.302-.994c.63-.868 1.666-1.4 2.954-1.4 2.044 0 3.094 1.218 3.094 2.772V66h-1.778v-.686c-.448.546-1.288.896-2.114.896Zm-.616-2.198c0 .476.378.784.98.784.812 0 1.4-.378 1.75-.938v-.994l-1.68.28c-.742.126-1.05.434-1.05.868Zm9.927.588c.7 0 1.26-.322 1.6-.812l1.39 1.064c-.66.868-1.7 1.428-2.99 1.428-2.43 0-3.887-1.75-3.887-3.808s1.457-3.808 3.887-3.808c1.29 0 2.33.56 2.99 1.428l-1.39 1.064c-.34-.49-.9-.812-1.62-.812-1.17 0-2.02.896-2.02 2.128 0 1.246.85 2.128 2.04 2.128Zm7.43 0c.7 0 1.26-.322 1.59-.812l1.39 1.064c-.66.868-1.69 1.428-2.98 1.428-2.44 0-3.89-1.75-3.89-3.808s1.45-3.808 3.89-3.808c1.29 0 2.32.56 2.98 1.428l-1.39 1.064c-.33-.49-.89-.812-1.62-.812-1.16 0-2.02.896-2.02 2.128 0 1.246.86 2.128 2.05 2.128Zm7.39-5.936c2.3 0 3.87 1.694 3.87 3.808s-1.57 3.808-3.87 3.808c-2.29 0-3.86-1.694-3.86-3.808s1.57-3.808 3.86-3.808Zm.03 5.936c1.14 0 1.99-.91 1.99-2.128 0-1.232-.85-2.128-1.99-2.128-1.17 0-2.04.896-2.04 2.128 0 1.232.87 2.128 2.04 2.128Zm5.46 1.4v-7.056h1.78v.532c.47-.462 1.08-.812 1.94-.812.9 0 1.68.392 2.15 1.148.5-.616 1.17-1.148 2.36-1.148 1.46 0 2.61 1.008 2.61 2.996V66h-1.8v-4.27c0-.854-.46-1.386-1.26-1.386-.77 0-1.19.532-1.47 1.008.02.098.02.196.02.308V66h-1.79v-4.27c0-.854-.47-1.386-1.26-1.386-.82 0-1.24.602-1.5 1.05V66h-1.78Zm12.87 3.444v-10.5h1.77v.574c.55-.546 1.24-.854 2.2-.854 2.24 0 3.59 1.75 3.59 3.808s-1.35 3.808-3.59 3.808c-.96 0-1.65-.308-2.2-.854v4.018h-1.77Zm3.72-9.1c-.83 0-1.5.364-1.95 1.022v2.212c.48.672 1.14 1.022 1.95 1.022 1.2 0 1.99-.896 1.99-2.128 0-1.232-.79-2.128-1.99-2.128Zm7.29 5.866c-1.42 0-2.38-.812-2.38-2.114 0-1.064.82-1.862 2.34-2.114l2.15-.364v-.182c0-.742-.56-1.218-1.37-1.218-.69 0-1.22.322-1.6.84l-1.3-.994c.63-.868 1.67-1.4 2.96-1.4 2.04 0 3.09 1.218 3.09 2.772V66h-1.78v-.686c-.45.546-1.29.896-2.11.896Zm-.62-2.198c0 .476.38.784.98.784.81 0 1.4-.378 1.75-.938v-.994l-1.68.28c-.74.126-1.05.434-1.05.868Zm5.85 3.22c0-.7.35-1.26.98-1.722-.28-.28-.44-.658-.44-1.022 0-.56.24-1.008.77-1.4a2.396 2.396 0 0 1-.95-1.946c0-1.372 1.06-2.478 2.83-2.478.54 0 1.02.098 1.43.28h2.57v1.512h-1.24c.07.224.09.448.09.686 0 1.386-1.03 2.506-2.85 2.506-.24 0-.46-.014-.67-.056-.16.14-.24.294-.24.448 0 .28.15.42.47.42h1.78c1.78 0 2.75.952 2.75 2.268 0 1.568-1.5 2.772-3.7 2.772-2.25 0-3.58-.784-3.58-2.268Zm3.22-4.928c.74 0 1.21-.462 1.21-1.162s-.47-1.148-1.21-1.148c-.77 0-1.24.462-1.24 1.148 0 .7.47 1.162 1.24 1.162Zm-1.54 4.676c0 .672.64 1.092 1.89 1.092 1.28 0 1.94-.476 1.94-1.176 0-.532-.32-.91-1.17-.91h-2.19c-.26.252-.47.56-.47.994Zm6.82-.98v-7.056h1.78v.56c.49-.476 1.15-.84 2.09-.84 1.52 0 2.74 1.05 2.74 3.136V66h-1.79v-4.13c0-.938-.53-1.526-1.4-1.526-.9 0-1.37.602-1.64 1.05V66h-1.78Zm15.12-1.148c-.65.882-1.75 1.428-3.08 1.428-2.5 0-3.92-1.75-3.92-3.808 0-2.086 1.32-3.808 3.63-3.808 1.96 0 3.25 1.33 3.25 3.178 0 .392-.06.756-.11.994h-4.95c.17 1.316.98 1.848 2.09 1.848.77 0 1.44-.336 1.82-.84l1.27 1.008Zm-3.41-4.732c-.91 0-1.51.504-1.71 1.428h3.25c-.03-.714-.55-1.428-1.54-1.428Zm5.03 5.88v-7.056h1.77v.532c.48-.462 1.08-.812 1.95-.812.9 0 1.68.392 2.14 1.148.51-.616 1.18-1.148 2.37-1.148 1.45 0 2.6 1.008 2.6 2.996V66h-1.79v-4.27c0-.854-.46-1.386-1.26-1.386-.77 0-1.19.532-1.47 1.008.01.098.01.196.01.308V66h-1.79v-4.27c0-.854-.46-1.386-1.26-1.386-.81 0-1.23.602-1.5 1.05V66h-1.77Zm19.36-1.148c-.66.882-1.75 1.428-3.08 1.428-2.51 0-3.92-1.75-3.92-3.808 0-2.086 1.31-3.808 3.62-3.808 1.96 0 3.25 1.33 3.25 3.178 0 .392-.05.756-.11.994h-4.94c.17 1.316.98 1.848 2.08 1.848.77 0 1.45-.336 1.82-.84l1.28 1.008Zm-3.42-4.732c-.91 0-1.51.504-1.71 1.428h3.25c-.03-.714-.54-1.428-1.54-1.428Zm5.03 5.88v-7.056h1.78v.56c.49-.476 1.14-.84 2.08-.84 1.53 0 2.75 1.05 2.75 3.136V66h-1.8v-4.13c0-.938-.53-1.526-1.4-1.526-.89 0-1.37.602-1.63 1.05V66h-1.78Zm9.07-2.576V60.54h-1.31v-1.596h1.31V57.18h1.8v1.764h2.15v1.596h-2.15v2.884c0 .784.42 1.092 1.12 1.092.49 0 .81-.056 1.05-.154v1.554c-.35.154-.77.224-1.36.224-1.77 0-2.61-.994-2.61-2.716Zm8.91-.952c0-2.058 1.42-3.808 3.63-3.808 1.05 0 1.87.406 2.5 1.12V55.5h1.19V66h-1.19v-.84c-.63.714-1.45 1.12-2.5 1.12-2.21 0-3.63-1.75-3.63-3.808Zm1.26 0c0 1.498 1.01 2.688 2.51 2.688.98 0 1.85-.476 2.36-1.302v-2.772c-.54-.84-1.4-1.302-2.36-1.302-1.5 0-2.51 1.19-2.51 2.688Zm14.84 2.366c-.65.882-1.7 1.442-3.02 1.442-2.38 0-3.85-1.75-3.85-3.808 0-2.142 1.37-3.808 3.56-3.808 1.91 0 3.16 1.344 3.16 3.08 0 .28-.04.546-.08.742h-5.42c.04 1.694 1.12 2.716 2.63 2.716.91 0 1.68-.42 2.14-1.05l.88.686Zm-3.34-5.166c-1.16 0-1.98.686-2.23 1.904h4.23c-.04-1.036-.76-1.904-2-1.904Zm4.4 5.362.84-.714c.49.616 1.07.966 1.79.966.78 0 1.23-.476 1.23-1.092 0-1.582-3.53-1.022-3.53-3.514 0-1.106.94-2.016 2.3-2.016 1.01 0 1.87.476 2.36 1.162l-.82.7c-.38-.532-.91-.868-1.53-.868-.75 0-1.16.448-1.16.994 0 1.582 3.54 1.078 3.54 3.486-.01 1.316-1.06 2.142-2.38 2.142-1.12 0-2-.448-2.64-1.246ZM934.178 90.196c-1.386 0-2.324-.77-2.324-1.974 0-1.064.812-1.82 2.31-2.072l2.38-.392v-.49c0-.98-.7-1.54-1.708-1.54a2.29 2.29 0 0 0-1.904.98l-.896-.686c.616-.84 1.61-1.358 2.842-1.358 1.792 0 2.856 1.05 2.856 2.604V90h-1.19v-.896c-.532.686-1.456 1.092-2.366 1.092Zm-1.12-2.016c0 .602.49 1.036 1.316 1.036.938 0 1.708-.448 2.17-1.204v-1.386l-2.086.35c-.966.168-1.4.602-1.4 1.204Zm7.063 5.264v-10.5h1.19v.84c.63-.714 1.456-1.12 2.506-1.12 2.212 0 3.626 1.75 3.626 3.808s-1.414 3.808-3.626 3.808c-1.05 0-1.876-.406-2.506-1.12v4.284h-1.19Zm3.556-9.66c-.98 0-1.834.476-2.366 1.316v2.744c.546.854 1.4 1.316 2.366 1.316 1.498 0 2.52-1.19 2.52-2.688 0-1.498-1.022-2.688-2.52-2.688Zm5.687 9.66v-10.5h1.19v.84c.63-.714 1.456-1.12 2.506-1.12 2.212 0 3.626 1.75 3.626 3.808s-1.414 3.808-3.626 3.808c-1.05 0-1.876-.406-2.506-1.12v4.284h-1.19Zm3.556-9.66c-.98 0-1.834.476-2.366 1.316v2.744c.546.854 1.4 1.316 2.366 1.316 1.498 0 2.52-1.19 2.52-2.688 0-1.498-1.022-2.688-2.52-2.688ZM958.606 90v-7.056h1.19v.882c.518-.616 1.162-1.022 2.058-1.022.224 0 .434.028.602.084v1.162a2.592 2.592 0 0 0-.7-.084c-.924 0-1.526.476-1.96 1.19V90h-1.19Zm11.412-1.162c-.658.882-1.708 1.442-3.024 1.442-2.38 0-3.85-1.75-3.85-3.808 0-2.142 1.372-3.808 3.556-3.808 1.918 0 3.164 1.344 3.164 3.08 0 .28-.042.546-.084.742h-5.418c.042 1.694 1.12 2.716 2.632 2.716.91 0 1.68-.42 2.142-1.05l.882.686Zm-3.346-5.166c-1.162 0-1.974.686-2.226 1.904h4.228c-.042-1.036-.756-1.904-2.002-1.904ZM971.881 90v-7.056h1.19v.798c.574-.63 1.302-1.078 2.352-1.078 1.582 0 2.758 1.064 2.758 3.066V90h-1.19v-4.228c0-1.26-.714-1.988-1.806-1.988-1.022 0-1.666.588-2.114 1.33V90h-1.19Zm10.613.196c-1.386 0-2.324-.77-2.324-1.974 0-1.064.812-1.82 2.31-2.072l2.38-.392v-.49c0-.98-.7-1.54-1.708-1.54a2.29 2.29 0 0 0-1.904.98l-.896-.686c.616-.84 1.61-1.358 2.842-1.358 1.792 0 2.856 1.05 2.856 2.604V90h-1.19v-.896c-.532.686-1.456 1.092-2.366 1.092Zm-1.12-2.016c0 .602.49 1.036 1.316 1.036.938 0 1.708-.448 2.17-1.204v-1.386l-2.086.35c-.966.168-1.4.602-1.4 1.204Zm7.064 1.82v-7.056h1.19v.798c.574-.63 1.302-1.078 2.352-1.078 1.582 0 2.758 1.064 2.758 3.066V90h-1.19v-4.228c0-1.26-.714-1.988-1.806-1.988-1.022 0-1.666.588-2.114 1.33V90h-1.19Zm9.101-2.366v-3.612h-1.33v-1.078h1.33V81.18h1.204v1.764h2.447v1.078h-2.447v3.612c0 1.106.56 1.414 1.417 1.414.46 0 .78-.056 1.05-.168v1.064c-.34.14-.72.196-1.221.196-1.568 0-2.45-.784-2.45-2.506Zm4.721 1.4.84-.714c.49.616 1.07.966 1.79.966.78 0 1.23-.476 1.23-1.092 0-1.582-3.53-1.022-3.53-3.514 0-1.106.94-2.016 2.3-2.016 1.01 0 1.87.476 2.36 1.162l-.82.7c-.38-.532-.91-.868-1.53-.868-.75 0-1.16.448-1.16.994 0 1.582 3.54 1.078 3.54 3.486-.01 1.316-1.06 2.142-2.38 2.142-1.12 0-2-.448-2.64-1.246Zm17-.196c-.65.882-1.7 1.442-3.02 1.442-2.38 0-3.85-1.75-3.85-3.808 0-2.142 1.37-3.808 3.56-3.808 1.91 0 3.16 1.344 3.16 3.08 0 .28-.04.546-.08.742h-5.42c.04 1.694 1.12 2.716 2.63 2.716.91 0 1.68-.42 2.14-1.05l.88.686Zm-3.34-5.166c-1.16 0-1.98.686-2.23 1.904h4.23c-.04-1.036-.76-1.904-2-1.904Zm5.21 6.328v-7.056h1.19v.798c.57-.63 1.3-1.078 2.35-1.078 1.58 0 2.76 1.064 2.76 3.066V90h-1.19v-4.228c0-1.26-.72-1.988-1.81-1.988-1.02 0-1.66.588-2.11 1.33V90h-1.19Zm11.86-3.528c0-2.058 1.42-3.808 3.63-3.808 1.05 0 1.88.406 2.51 1.12V79.5h1.19V90h-1.19v-.84c-.63.714-1.46 1.12-2.51 1.12-2.21 0-3.63-1.75-3.63-3.808Zm1.26 0c0 1.498 1.01 2.688 2.51 2.688.98 0 1.85-.476 2.37-1.302v-2.772c-.55-.84-1.4-1.302-2.37-1.302-1.5 0-2.51 1.19-2.51 2.688Zm9.18-5.362a.837.837 0 0 1-.84-.84c0-.448.37-.826.84-.826.46 0 .82.378.82.826 0 .462-.36.84-.82.84Zm-.61 8.89v-7.056h1.19V90h-1.19Zm2.79-7.056h1.33v-.868c0-1.498.96-2.576 2.5-2.576.65 0 1.16.182 1.56.406l-.54.994a1.59 1.59 0 0 0-.99-.322c-.8 0-1.33.546-1.33 1.47v.896h2.45v1.078h-2.45V90h-1.2v-5.978h-1.33v-1.078Zm5.7 0h1.33v-.868c0-1.498.96-2.576 2.5-2.576.65 0 1.16.182 1.56.406l-.54.994a1.59 1.59 0 0 0-.99-.322c-.8 0-1.33.546-1.33 1.47v.896h2.45v1.078h-2.45V90h-1.2v-5.978h-1.33v-1.078Zm7.03-1.834a.844.844 0 0 1-.84-.84c0-.448.38-.826.84-.826a.832.832 0 0 1 0 1.666Zm-.6 8.89v-7.056h1.19V90h-1.19Zm6.95-.84c.87 0 1.59-.42 2.02-1.036l.94.714c-.66.882-1.68 1.442-2.97 1.442-2.34 0-3.84-1.75-3.84-3.808s1.5-3.808 3.84-3.808c1.27 0 2.31.574 2.97 1.442l-.94.714a2.437 2.437 0 0 0-2.03-1.036c-1.51 0-2.59 1.19-2.59 2.688 0 1.512 1.08 2.688 2.6 2.688Zm9.5-2.184v-4.032h1.19v3.99c0 2.114-1.21 3.346-3.13 3.346-1.91 0-3.12-1.232-3.12-3.346v-3.99h1.19v4.032c0 1.386.74 2.184 1.94 2.184 1.18 0 1.93-.798 1.93-2.184Zm3.54 3.024V79.5h1.19V90h-1.19Zm4.11-2.366v-3.612h-1.33v-1.078h1.33V81.18h1.2v1.764h2.45v1.078h-2.45v3.612c0 1.106.56 1.414 1.42 1.414.46 0 .78-.056 1.05-.168v1.064c-.34.14-.72.196-1.22.196-1.57 0-2.45-.784-2.45-2.506Zm8.92-5.81h-1.16l1.45-2.324h1.35l-1.64 2.324Zm2.69 7.014c-.66.882-1.71 1.442-3.03 1.442-2.38 0-3.85-1.75-3.85-3.808 0-2.142 1.38-3.808 3.56-3.808 1.92 0 3.16 1.344 3.16 3.08 0 .28-.04.546-.08.742h-5.42c.04 1.694 1.12 2.716 2.63 2.716.91 0 1.68-.42 2.15-1.05l.88.686Zm-3.35-5.166c-1.16 0-1.97.686-2.22 1.904h4.22c-.04-1.036-.75-1.904-2-1.904Zm-169.576 28.494c-1.022 0-1.834-.812-1.834-1.792 0-.952.812-1.736 1.834-1.736s1.806.784 1.806 1.736a1.79 1.79 0 0 1-1.806 1.792Zm12.03 1.834v-9.8h1.68l2.996 4.942 2.996-4.942h1.68v9.8h-1.316v-8.036l-2.856 4.676h-1.008l-2.856-4.676V114h-1.316Zm18.365-1.162c-.658.882-1.708 1.442-3.024 1.442-2.38 0-3.85-1.75-3.85-3.808 0-2.142 1.372-3.808 3.556-3.808 1.918 0 3.164 1.344 3.164 3.08 0 .28-.042.546-.084.742h-5.418c.042 1.694 1.12 2.716 2.632 2.716.91 0 1.68-.42 2.142-1.05l.882.686Zm-3.346-5.166c-1.162 0-1.974.686-2.226 1.904h4.228c-.042-1.036-.756-1.904-2.002-1.904Zm4.398 5.362.84-.714c.49.616 1.078.966 1.792.966.784 0 1.232-.476 1.232-1.092 0-1.582-3.528-1.022-3.528-3.514 0-1.106.938-2.016 2.296-2.016 1.008 0 1.876.476 2.366 1.162l-.826.7c-.378-.532-.91-.868-1.526-.868-.756 0-1.162.448-1.162.994 0 1.582 3.542 1.078 3.542 3.486-.014 1.316-1.064 2.142-2.38 2.142-1.12 0-2.002-.448-2.646-1.246Zm10.134-2.562c0-2.058 1.414-3.808 3.626-3.808 1.05 0 1.876.406 2.506 1.12V103.5h1.19V114h-1.19v-.84c-.63.714-1.456 1.12-2.506 1.12-2.212 0-3.626-1.75-3.626-3.808Zm1.26 0c0 1.498 1.008 2.688 2.506 2.688.98 0 1.848-.476 2.366-1.302v-2.772c-.546-.84-1.4-1.302-2.366-1.302-1.498 0-2.506 1.19-2.506 2.688Zm12.155-4.648h-1.162l1.456-2.324h1.344l-1.638 2.324Zm2.688 7.014c-.658.882-1.708 1.442-3.024 1.442-2.38 0-3.85-1.75-3.85-3.808 0-2.142 1.372-3.808 3.556-3.808 1.918 0 3.164 1.344 3.164 3.08 0 .28-.042.546-.084.742h-5.418c.042 1.694 1.12 2.716 2.632 2.716.91 0 1.68-.42 2.142-1.05l.882.686Zm-3.346-5.166c-1.162 0-1.974.686-2.226 1.904h4.228c-.042-1.036-.756-1.904-2.002-1.904Zm5.209 6.328v-7.056h1.19v.77c.532-.616 1.232-1.05 2.212-1.05 1.022 0 1.862.462 2.296 1.358.56-.77 1.302-1.358 2.52-1.358 1.512 0 2.618 1.008 2.618 2.926V114h-1.19v-4.368c0-1.176-.658-1.848-1.666-1.848-.896 0-1.526.504-1.988 1.33.014.154.028.308.028.476V114h-1.19v-4.368c0-1.176-.644-1.848-1.666-1.848-.966 0-1.568.602-1.974 1.33V114h-1.19Zm15.152.196c-1.386 0-2.324-.77-2.324-1.974 0-1.064.812-1.82 2.31-2.072l2.38-.392v-.49c0-.98-.7-1.54-1.708-1.54a2.29 2.29 0 0 0-1.904.98l-.896-.686c.616-.84 1.61-1.358 2.842-1.358 1.792 0 2.856 1.05 2.856 2.604V114h-1.19v-.896c-.532.686-1.456 1.092-2.366 1.092Zm-1.12-2.016c0 .602.49 1.036 1.316 1.036.938 0 1.708-.448 2.17-1.204v-1.386l-2.086.35c-.966.168-1.4.602-1.4 1.204Zm7.067 1.82v-7.056h1.19v.882c.51-.616 1.16-1.022 2.05-1.022.23 0 .44.028.61.084v1.162a2.592 2.592 0 0 0-.7-.084c-.93 0-1.53.476-1.96 1.19V114h-1.19Zm8.38-.84c.87 0 1.59-.42 2.02-1.036l.94.714c-.66.882-1.68 1.442-2.97 1.442-2.34 0-3.84-1.75-3.84-3.808s1.5-3.808 3.84-3.808c1.27 0 2.31.574 2.97 1.442l-.94.714a2.437 2.437 0 0 0-2.03-1.036c-1.51 0-2.59 1.19-2.59 2.688 0 1.512 1.08 2.688 2.6 2.688Zm4.59.84v-10.5h1.19v4.242c.57-.63 1.3-1.078 2.35-1.078 1.58 0 2.76 1.064 2.76 3.066V114h-1.19v-4.228c0-1.26-.7-1.988-1.81-1.988-1.03 0-1.66.602-2.11 1.33V114h-1.19Zm14.97-1.162c-.66.882-1.71 1.442-3.03 1.442-2.38 0-3.85-1.75-3.85-3.808 0-2.142 1.38-3.808 3.56-3.808 1.92 0 3.16 1.344 3.16 3.08 0 .28-.04.546-.08.742h-5.42c.04 1.694 1.12 2.716 2.63 2.716.91 0 1.68-.42 2.15-1.05l.88.686Zm-3.35-5.166c-1.16 0-1.97.686-2.22 1.904h4.22c-.04-1.036-.75-1.904-2-1.904Zm4.4 5.362.84-.714c.49.616 1.08.966 1.79.966.79 0 1.23-.476 1.23-1.092 0-1.582-3.52-1.022-3.52-3.514 0-1.106.93-2.016 2.29-2.016 1.01 0 1.88.476 2.37 1.162l-.83.7c-.38-.532-.91-.868-1.52-.868-.76 0-1.17.448-1.17.994 0 1.582 3.55 1.078 3.55 3.486-.02 1.316-1.07 2.142-2.38 2.142-1.12 0-2.01-.448-2.65-1.246Zm12.65 1.162c-1.38 0-2.32-.77-2.32-1.974 0-1.064.81-1.82 2.31-2.072l2.38-.392v-.49c0-.98-.7-1.54-1.71-1.54-.81 0-1.47.378-1.9.98l-.9-.686c.62-.84 1.61-1.358 2.84-1.358 1.8 0 2.86 1.05 2.86 2.604V114h-1.19v-.896c-.53.686-1.46 1.092-2.37 1.092Zm-1.12-2.016c0 .602.49 1.036 1.32 1.036.94 0 1.71-.448 2.17-1.204v-1.386l-2.09.35c-.96.168-1.4.602-1.4 1.204Zm6.47-1.708c0-2.058 1.41-3.808 3.62-3.808 1.05 0 1.88.406 2.51 1.12V103.5h1.19V114h-1.19v-.84c-.63.714-1.46 1.12-2.51 1.12-2.21 0-3.62-1.75-3.62-3.808Zm1.26 0c0 1.498 1 2.688 2.5 2.688.98 0 1.85-.476 2.37-1.302v-2.772c-.55-.84-1.4-1.302-2.37-1.302-1.5 0-2.5 1.19-2.5 2.688Zm8.57 3.528v-7.056h1.19v.77c.53-.616 1.23-1.05 2.21-1.05 1.02 0 1.86.462 2.29 1.358.56-.77 1.31-1.358 2.52-1.358 1.52 0 2.62 1.008 2.62 2.926V114h-1.19v-4.368c0-1.176-.66-1.848-1.66-1.848-.9 0-1.53.504-1.99 1.33.01.154.03.308.03.476V114h-1.19v-4.368c0-1.176-.65-1.848-1.67-1.848-.97 0-1.57.602-1.97 1.33V114h-1.19Zm13.83-8.89a.844.844 0 0 1-.84-.84c0-.448.38-.826.84-.826a.832.832 0 0 1 0 1.666Zm-.6 8.89v-7.056h1.19V114h-1.19Zm3.71 0v-7.056h1.19v.798c.57-.63 1.3-1.078 2.35-1.078 1.58 0 2.76 1.064 2.76 3.066V114h-1.19v-4.228c0-1.26-.72-1.988-1.81-1.988-1.02 0-1.67.588-2.11 1.33V114h-1.19Zm9.29-8.89a.844.844 0 0 1-.84-.84c0-.448.38-.826.84-.826.47 0 .83.378.83.826 0 .462-.36.84-.83.84Zm-.6 8.89v-7.056h1.19V114h-1.19Zm2.9-.966.84-.714c.49.616 1.07.966 1.79.966.78 0 1.23-.476 1.23-1.092 0-1.582-3.53-1.022-3.53-3.514 0-1.106.94-2.016 2.3-2.016 1.01 0 1.87.476 2.36 1.162l-.82.7c-.38-.532-.91-.868-1.53-.868-.75 0-1.16.448-1.16.994 0 1.582 3.54 1.078 3.54 3.486-.01 1.316-1.06 2.142-2.38 2.142-1.12 0-2-.448-2.64-1.246Zm7.42-1.4v-3.612h-1.33v-1.078h1.33v-1.764h1.2v1.764h2.45v1.078h-2.45v3.612c0 1.106.56 1.414 1.42 1.414.46 0 .78-.056 1.05-.168v1.064c-.34.14-.72.196-1.22.196-1.57 0-2.45-.784-2.45-2.506Zm5.47 2.366v-7.056h1.19v.882c.52-.616 1.16-1.022 2.06-1.022.22 0 .43.028.6.084v1.162a2.592 2.592 0 0 0-.7-.084c-.92 0-1.52.476-1.96 1.19V114h-1.19Zm7.17.196c-1.39 0-2.32-.77-2.32-1.974 0-1.064.81-1.82 2.31-2.072l2.38-.392v-.49c0-.98-.7-1.54-1.71-1.54-.81 0-1.47.378-1.91.98l-.89-.686c.61-.84 1.61-1.358 2.84-1.358 1.79 0 2.86 1.05 2.86 2.604V114h-1.19v-.896c-.54.686-1.46 1.092-2.37 1.092Zm-1.12-2.016c0 .602.49 1.036 1.32 1.036.93 0 1.7-.448 2.17-1.204v-1.386l-2.09.35c-.97.168-1.4.602-1.4 1.204Zm7.47-.546v-3.612h-1.33v-1.078h1.33v-1.764h1.2v1.764h2.45v1.078h-2.45v3.612c0 1.106.56 1.414 1.42 1.414.46 0 .78-.056 1.05-.168v1.064c-.34.14-.72.196-1.22.196-1.57 0-2.45-.784-2.45-2.506Zm6.07-6.524a.844.844 0 0 1-.84-.84c0-.448.38-.826.84-.826.47 0 .83.378.83.826 0 .462-.36.84-.83.84Zm-.6 8.89v-7.056h1.19V114h-1.19Zm2.64-7.056h1.29l2.26 5.81 2.25-5.81h1.29l-2.76 7.056h-1.57l-2.76-7.056Zm14.71 5.894c-.66.882-1.71 1.442-3.03 1.442-2.38 0-3.85-1.75-3.85-3.808 0-2.142 1.38-3.808 3.56-3.808 1.92 0 3.16 1.344 3.16 3.08 0 .28-.04.546-.08.742h-5.42c.04 1.694 1.12 2.716 2.63 2.716.91 0 1.68-.42 2.15-1.05l.88.686Zm-3.35-5.166c-1.16 0-1.97.686-2.22 1.904h4.22c-.04-1.036-.75-1.904-2-1.904Zm4.4 5.362.84-.714c.49.616 1.08.966 1.79.966.79 0 1.23-.476 1.23-1.092 0-1.582-3.52-1.022-3.52-3.514 0-1.106.93-2.016 2.29-2.016 1.01 0 1.88.476 2.37 1.162l-.83.7c-.38-.532-.91-.868-1.52-.868-.76 0-1.17.448-1.17.994 0 1.582 3.55 1.078 3.55 3.486-.02 1.316-1.07 2.142-2.38 2.142-1.12 0-2.01-.448-2.65-1.246Zm-205.296 24 .84-.714c.49.616 1.078.966 1.792.966.784 0 1.232-.476 1.232-1.092 0-1.582-3.528-1.022-3.528-3.514 0-1.106.938-2.016 2.296-2.016 1.008 0 1.876.476 2.366 1.162l-.826.7c-.378-.532-.91-.868-1.526-.868-.756 0-1.162.448-1.162.994 0 1.582 3.542 1.078 3.542 3.486-.014 1.316-1.064 2.142-2.38 2.142-1.12 0-2.002-.448-2.646-1.246Zm10.101-6.37c2.268 0 3.822 1.75 3.822 3.808s-1.554 3.808-3.822 3.808c-2.282 0-3.822-1.75-3.822-3.808s1.54-3.808 3.822-3.808Zm.014 6.496c1.47 0 2.548-1.232 2.548-2.688 0-1.47-1.078-2.688-2.548-2.688-1.512 0-2.59 1.218-2.59 2.688 0 1.47 1.078 2.688 2.59 2.688Zm5.721.84v-7.056h1.19v.798c.574-.63 1.302-1.078 2.352-1.078 1.582 0 2.758 1.064 2.758 3.066V138h-1.19v-4.228c0-1.26-.714-1.988-1.806-1.988-1.022 0-1.666.588-2.114 1.33V138h-1.19Zm9.101-2.366v-3.612h-1.33v-1.078h1.33v-1.764h1.204v1.764h2.45v1.078h-2.45v3.612c0 1.106.56 1.414 1.414 1.414.462 0 .784-.056 1.05-.168v1.064c-.336.14-.714.196-1.218.196-1.568 0-2.45-.784-2.45-2.506Zm8.435 1.344 1.176-1.064c.434.546.952.938 1.624.938.574 0 .868-.336.868-.756 0-1.232-3.374-.77-3.374-3.248 0-1.246 1.05-2.184 2.52-2.184 1.078 0 2.058.518 2.562 1.204l-1.176 1.036c-.364-.448-.826-.812-1.372-.812-.56 0-.826.308-.826.672 0 1.204 3.374.784 3.374 3.22-.028 1.484-1.218 2.296-2.548 2.296-1.26 0-2.156-.504-2.828-1.302Zm7.91-7.266c-.63 0-1.162-.532-1.162-1.162 0-.63.532-1.162 1.162-1.162.63 0 1.148.532 1.148 1.162 0 .63-.518 1.162-1.148 1.162ZM971.89 138v-7.056h1.778V138h-1.778Zm3.91 0v-7.056h1.778v.532c.476-.462 1.078-.812 1.946-.812.896 0 1.68.392 2.142 1.148.504-.616 1.176-1.148 2.366-1.148 1.456 0 2.604 1.008 2.604 2.996V138h-1.792v-4.27c0-.854-.462-1.386-1.26-1.386-.77 0-1.19.532-1.47 1.008.014.098.014.196.014.308V138h-1.792v-4.27c0-.854-.462-1.386-1.26-1.386-.812 0-1.232.602-1.498 1.05V138H975.8Zm12.866 3.444v-10.5h1.778v.574c.546-.546 1.232-.854 2.198-.854 2.24 0 3.584 1.75 3.584 3.808s-1.344 3.808-3.584 3.808c-.966 0-1.652-.308-2.198-.854v4.018h-1.778Zm3.724-9.1c-.826 0-1.498.364-1.946 1.022v2.212c.476.672 1.134 1.022 1.946 1.022 1.204 0 1.988-.896 1.988-2.128 0-1.232-.784-2.128-1.988-2.128Zm5.463 5.656v-10.5h1.778V138h-1.778Zm4.807-8.288c-.63 0-1.16-.532-1.16-1.162 0-.63.53-1.162 1.16-1.162.63 0 1.15.532 1.15 1.162 0 .63-.52 1.162-1.15 1.162Zm-.9 8.288v-7.056h1.78V138h-1.78Zm3.05-7.056h1.31v-.742c0-1.498 1-2.702 2.76-2.702.64 0 1.19.154 1.64.392l-.76 1.484a1.41 1.41 0 0 0-.85-.28c-.6 0-1 .42-1 1.064v.784h2.16v1.596h-2.16V138h-1.79v-5.46h-1.31v-1.596Zm7.49-1.232c-.63 0-1.16-.532-1.16-1.162 0-.63.53-1.162 1.16-1.162.63 0 1.15.532 1.15 1.162 0 .63-.52 1.162-1.15 1.162Zm-.9 8.288v-7.056h1.78V138h-1.78Zm8.01-8.176h-1.7l1.45-2.324h1.93l-1.68 2.324Zm2.4 7.028c-.66.882-1.75 1.428-3.08 1.428-2.51 0-3.92-1.75-3.92-3.808 0-2.086 1.31-3.808 3.62-3.808 1.96 0 3.25 1.33 3.25 3.178 0 .392-.05.756-.11.994h-4.94c.17 1.316.98 1.848 2.08 1.848.77 0 1.45-.336 1.82-.84l1.28 1.008Zm-3.42-4.732c-.91 0-1.51.504-1.71 1.428h3.25c-.03-.714-.54-1.428-1.54-1.428Zm11.47 4.732c-.66.882-1.75 1.428-3.08 1.428-2.51 0-3.92-1.75-3.92-3.808 0-2.086 1.32-3.808 3.63-3.808 1.96 0 3.24 1.33 3.24 3.178 0 .392-.05.756-.11.994h-4.94c.17 1.316.98 1.848 2.09 1.848.77 0 1.44-.336 1.82-.84l1.27 1.008Zm-3.42-4.732c-.91 0-1.51.504-1.7 1.428h3.24c-.02-.714-.54-1.428-1.54-1.428Zm4.32 4.858 1.18-1.064c.43.546.95.938 1.62.938.57 0 .87-.336.87-.756 0-1.232-3.38-.77-3.38-3.248 0-1.246 1.05-2.184 2.52-2.184 1.08 0 2.06.518 2.57 1.204l-1.18 1.036c-.36-.448-.83-.812-1.37-.812-.56 0-.83.308-.83.672 0 1.204 3.38.784 3.38 3.22-.03 1.484-1.22 2.296-2.55 2.296-1.26 0-2.16-.504-2.83-1.302Z"/><path stroke="#3558A2" stroke-linecap="round" stroke-width="2" d="m27 166 1119 2.004"/><defs><linearGradient id="a" x1="158.781" x2="597.679" y1="149315" y2="149315" gradientUnits="userSpaceOnUse"><stop stop-color="#E1000F"/><stop offset="1" stop-color="#3558A2"/></linearGradient><filter id="b" width="56" height="56" x="0" y="140" color-interpolation-filters="sRGB" filterUnits="userSpaceOnUse"><feFlood flood-opacity="0" result="BackgroundImageFix"/><feColorMatrix in="SourceAlpha" result="hardAlpha" values="0 0 0 0 0 0 0 0 0 0 0 0 0 0 0 0 0 0 127 0"/><feOffset/><feGaussianBlur stdDeviation="6"/><feComposite in2="hardAlpha" operator="out"/><feColorMatrix values="0 0 0 0 0.207843 0 0 0 0 0.345098 0 0 0 0 0.635294 0 0 0 1 0"/><feBlend in2="BackgroundImageFix" result="effect1_dropShadow_11506_261829"/><feBlend in="SourceGraphic" in2="effect1_dropShadow_11506_261829" result="shape"/></filter></defs></svg>