<svg xmlns="http://www.w3.org/2000/svg" width="386" height="174" fill="none"><path fill="#FAA184" d="M18.091 114.093h350.758v58.637H18.091z"/><path fill="#E4794A" fill-rule="evenodd" d="M227.905 20.839h-78.15c-1.302 0-2.362 1.003-2.362 2.233v45.465c0 1.23 1.06 2.233 2.362 2.233h30.542l-4.605 16.705h28.758l-4.459-16.705h27.914c1.301 0 2.362-1.003 2.362-2.233V23.072c.024-1.23-1.061-2.233-2.362-2.233Z" clip-rule="evenodd"/><path fill="#fff" fill-rule="evenodd" d="M220.529 66.417h-66.531c-1.471 0-2.652-1.116-2.652-2.507V26.331c0-1.39 1.181-2.507 2.652-2.507h66.531c1.47 0 2.651 1.117 2.651 2.507v37.557c0 1.39-1.181 2.53-2.651 2.53Z" clip-rule="evenodd"/><path fill="#2F4077" fill-rule="evenodd" d="M189.674 74.303c-2.325 0-4.195 1.854-4.195 4.125 0 2.27 1.87 4.124 4.195 4.124 2.324 0 4.194-1.853 4.194-4.124s-1.87-4.125-4.194-4.125Zm0 1.367a2.753 2.753 0 0 1 2.748 2.758 2.753 2.753 0 0 1-2.748 2.757 2.753 2.753 0 0 1-2.748-2.757 2.753 2.753 0 0 1 2.748-2.758ZM197.204 70.171c.376-.08.749.132.854.478l.011.039 3.857 16.157c.087.368-.157.734-.547.818-.375.08-.749-.132-.854-.478l-.01-.039-3.857-16.157c-.088-.369.156-.735.546-.818Z" clip-rule="evenodd"/><path fill="#2F4077" fill-rule="evenodd" d="M199.846 70.064c.4 0 .723.306.723.683 0 .364-.301.662-.68.683h-19.52c-.399 0-.723-.305-.723-.683 0-.364.301-.662.68-.682l.043-.001h19.477ZM223.807 20.839c1.732 0 3.142 1.345 3.181 3.005l.001.071v44.462c0 .378-.324.684-.723.684-.385 0-.7-.285-.722-.644l-.002-.04V23.915c0-.945-.786-1.709-1.735-1.709-.399 0-.723-.306-.723-.683 0-.378.324-.684.723-.684Z" clip-rule="evenodd"/><path fill="#FAA184" fill-rule="evenodd" d="M179.863 36.29h-.748c-.434 0-.795-.342-.795-.752v-1.664c0-.41.361-.752.795-.752h.748c.433 0 .795.342.795.752v1.664c0 .41-.362.752-.795.752Z" clip-rule="evenodd"/><path fill="#465F9D" fill-rule="evenodd" d="M176.319 36.29H162.41c-.602 0-1.085-.456-1.085-1.026V34.17c0-.57.483-1.026 1.085-1.026h13.909c.603 0 1.085.456 1.085 1.026v1.094c.024.57-.482 1.025-1.085 1.025ZM177.79 50.989h-15.356c-.602 0-1.084-.456-1.084-1.026V48.87c0-.57.482-1.025 1.084-1.025h15.356c.602 0 1.084.456 1.084 1.025v1.094c0 .547-.482 1.026-1.084 1.026Z" clip-rule="evenodd"/><path fill="#FAA184" fill-rule="evenodd" d="M191.891 46.09H166.87c-.603 0-1.085-.457-1.085-1.026V43.97c0-.57.482-1.026 1.085-1.026h25.021c.603 0 1.085.456 1.085 1.026v1.094c0 .57-.482 1.025-1.085 1.025ZM208.114 46.09h-12.51c-.603 0-1.085-.457-1.085-1.026V43.97c0-.57.482-1.026 1.085-1.026h12.51c.603 0 1.085.456 1.085 1.026v1.094c0 .57-.482 1.025-1.085 1.025Z" clip-rule="evenodd"/><path fill="#465F9D" fill-rule="evenodd" d="M213.369 41.19h-.747c-.434 0-.796-.343-.796-.753v-1.663c0-.41.362-.752.796-.752h.747c.434 0 .796.341.796.752v1.663c0 .433-.338.752-.796.752ZM188.372 41.19h-25.938c-.602 0-1.084-.456-1.084-1.026V39.07c0-.57.482-1.025 1.084-1.025h25.938c.602 0 1.085.456 1.085 1.025v1.094c.024.57-.483 1.026-1.085 1.026ZM196.688 36.29h-13.909c-.602 0-1.084-.456-1.084-1.026V34.17c0-.57.482-1.026 1.084-1.026h13.909c.603 0 1.085.456 1.085 1.026v1.094c0 .57-.482 1.025-1.085 1.025Z" clip-rule="evenodd"/><path fill="#E4794A" fill-rule="evenodd" d="M209.464 41.19h-17.645c-.603 0-1.109-.456-1.109-1.049v-1.094c0-.57.482-1.048 1.109-1.048h17.645c.603 0 1.109.456 1.109 1.048v1.094c0 .593-.482 1.049-1.109 1.049Z" clip-rule="evenodd"/><path fill="#2F4077" fill-rule="evenodd" d="m149.586 86.61 3.688-5.835s-3.519-14.79-5.737-22.128c-1.977-6.586-6.605-8.204-10.052-7.27l-24.587 3.943c-.193-.023-.362-.023-.531-.046-4.315-.091-11.426 14.654-13.113 23.222 2.242-.683 7.28-1.39 13.692-.592.193-.365.868-1.436 1.784-2.963.096.183.217.342.313.502 1.519 2.392 5.641 10.505 8.413 11.326l26.154.775-.313-.957c.193.045.289.022.289.022Z" clip-rule="evenodd"/><path fill="#fff" fill-rule="evenodd" d="m123.914 43.925-.723.433s-4.291 2.21-5.641-1.892c-1.012-3.099 2.121-4.079 3.712-4.375" clip-rule="evenodd"/><path fill="#2F4077" fill-rule="evenodd" d="M121.122 37.42c.392-.073.773.168.85.539.077.37-.178.73-.57.803-2.462.458-3.811 1.514-3.162 3.502.413 1.253 1.105 1.834 2.042 1.973.595.088 1.266-.008 1.931-.227.175-.058.335-.12.475-.18l.089-.04.05-.023.7-.42a.75.75 0 0 1 .973.178l.025.034a.66.66 0 0 1-.188.92l-.036.024-.723.433-.041.022a6.142 6.142 0 0 1-.848.343c-.87.287-1.766.415-2.631.287-1.489-.22-2.625-1.174-3.199-2.92-.546-1.67-.099-3.022 1.11-3.967.836-.654 1.941-1.055 3.153-1.28Z" clip-rule="evenodd"/><path fill="#fff" fill-rule="evenodd" d="m133.869 49.463-1.639 3.441 2.435-.5c.265.455 3.423 6.904-4.243 8.568-5.038 1.094-10.847-2.78-13.475-6.29l4.243-.73 3.471-7.907 9.208 3.418Z" clip-rule="evenodd"/><path fill="#2F4077" fill-rule="evenodd" d="m123.993 45.782-3.32 7.564-3.855.663c-.52.09-.766.66-.461 1.067 3.282 4.384 9.402 7.61 14.227 6.562 3.68-.8 5.466-2.741 5.655-5.358.067-.919-.072-1.857-.353-2.771-.185-.602-.426-1.158-.587-1.436l-.024-.037a.74.74 0 0 0-.764-.302l-1.032.213 1.05-2.204c.17-.356-.011-.774-.395-.917l-9.208-3.418c-.367-.136-.782.03-.933.374Zm1.064 1.144 7.841 2.91-1.327 2.787-.016.035c-.206.502.262 1.03.829.914l1.861-.383.047.117c.073.183.142.38.205.584.238.771.353 1.555.299 2.297-.145 2.01-1.472 3.453-4.535 4.118l-.126.026c-3.81.752-8.769-1.659-11.835-5.111l-.058-.066 3.077-.53a.716.716 0 0 0 .539-.41l3.199-7.288Z" clip-rule="evenodd"/><path fill="#fff" fill-rule="evenodd" d="M139.269 36.2c.579 1.868 2.266 10.801-3.784 13.012-6.051 2.21-11.716-2.234-13.861-7.726-2.145-5.492-.796-10.847 2.989-12.329 3.785-1.481 10.414-6.563 14.656 7.042Z" clip-rule="evenodd"/><path fill="#2F4077" fill-rule="evenodd" d="m126.233 27.682-.964.442-.273.123c-.199.09-.37.163-.528.227l-.132.052c-4.228 1.655-5.644 7.428-3.39 13.198 2.506 6.417 8.778 10.326 14.799 8.126 2.993-1.093 4.502-3.692 4.838-7.21.219-2.29-.104-4.898-.588-6.529l-.032-.104c-1.829-5.864-4.252-8.853-7.327-9.541-1.897-.425-3.649-.015-6.162 1.107l-.241.109Zm12.342 8.71c.454 1.465.774 3.968.567 6.124-.291 3.054-1.529 5.186-3.918 6.059-5.156 1.884-10.666-1.55-12.922-7.325-2.015-5.158-.793-10.137 2.588-11.46l.146-.059c.199-.08.411-.172.664-.286l1.26-.576c2.309-1.043 3.826-1.412 5.342-1.073 2.441.547 4.534 3.103 6.222 8.435l.051.16Z" clip-rule="evenodd"/><path fill="#2F4077" fill-rule="evenodd" d="M133.074 43.424c1.229.205 2.169-.114 2.676-.365a.386.386 0 0 1 .554.274c.121.706.097 1.937-1.543 2.301-1.711.388-2.073-1.025-2.145-1.823 0-.228.217-.433.458-.387ZM133.165 33.004c.362-.124.761.042.911.372l.015.038 2.604 6.791c.14.366-.071.766-.459.884l-.042.011-1.88.456c-.387.094-.781-.127-.88-.492-.096-.353.118-.712.48-.821l.041-.012 1.108-.268-2.332-6.083a.672.672 0 0 1 .394-.861l.04-.015ZM127.839 34.738c.745-.74 1.693-1.064 2.735-.62.365.155.527.56.363.904-.158.332-.562.486-.917.358l-.039-.015c-.386-.165-.729-.048-1.094.316a2.543 2.543 0 0 0-.273.323l-.034.05a3.16 3.16 0 0 0-.036.055l-.013.022a.745.745 0 0 1-.977.286.665.665 0 0 1-.302-.923 3.52 3.52 0 0 1 .587-.756ZM133.692 30.818c.855-.686 1.873-.912 2.883-.299a.662.662 0 0 1 .217.945.749.749 0 0 1-.962.227l-.037-.021c-.377-.23-.743-.148-1.166.19-.101.082-.194.171-.275.26l-.049.055a.504.504 0 0 0-.03.036l-.006.007a.75.75 0 0 1-1.007.164.66.66 0 0 1-.174-.952c.123-.165.326-.388.606-.612ZM131.983 38.885c.352-.069.546-.544.434-1.062-.113-.518-.49-.882-.842-.813-.352.068-.546.544-.433 1.061.112.518.489.882.841.814ZM138.13 37.726c.353-.069.547-.544.434-1.062-.113-.518-.49-.882-.842-.813-.352.068-.546.543-.433 1.061.113.518.489.882.841.814Z" clip-rule="evenodd"/><path fill="#E4794A" fill-rule="evenodd" d="M128.357 32.15c-2.529.392-4.029 3.26-3.451 6.36.577 3.099 3.032 5.355 5.562 4.964 2.529-.391 4.028-3.26 3.451-6.359-.578-3.1-3.033-5.356-5.562-4.964Zm.19 1.02c1.863-.289 3.828 1.518 4.311 4.11.483 2.591-.718 4.887-2.581 5.175-1.862.288-3.827-1.518-4.31-4.11-.483-2.591.717-4.887 2.58-5.176ZM138.916 30.235c-2.529.392-4.029 3.26-3.451 6.36.578 3.099 3.033 5.355 5.562 4.964 2.529-.391 4.029-3.26 3.451-6.359-.578-3.1-3.033-5.356-5.562-4.965Zm.19 1.02c1.863-.289 3.828 1.518 4.311 4.11.483 2.59-.718 4.887-2.58 5.175-1.863.288-3.828-1.518-4.311-4.11-.483-2.591.717-4.888 2.58-5.176Z" clip-rule="evenodd"/><path fill="#E4794A" fill-rule="evenodd" d="M135.628 34.784a.54.54 0 0 1 .631.412.513.513 0 0 1-.398.589l-.038.008-2.507.433a.54.54 0 0 1-.631-.413.513.513 0 0 1 .398-.588l.038-.008 2.507-.433ZM125.042 36.193a.55.55 0 0 1 .687.322.504.504 0 0 1-.304.637l-.036.013-5.641 1.8a.55.55 0 0 1-.687-.322.504.504 0 0 1 .304-.637l.036-.013 5.641-1.8Z" clip-rule="evenodd"/><path fill="#2F4077" fill-rule="evenodd" d="M141.029 25.945c-4.604-8.934-12.535-3.852-17.814 1.23-4.122-.068-9.353 3.874-10.462 7.042-1.35 3.806-.868 9.275 1.928 12.785 5.4 5.606 10.004 4.398 13.307 1.709-1.929-.957-3.592-2.507-4.846-4.353-.482.228-4.314 1.937-5.592-1.914-.554-1.64.096-2.712 1.037-3.373.385.114.867.046 1.518-.228 3.158-1.367 4.315-4.763 4.749-6.905l15.042-3.692a1.6 1.6 0 0 0 1.133-2.301Z" clip-rule="evenodd"/><path fill="#fff" fill-rule="evenodd" d="M133.146 80.708c-6.412-.297-21.188-2.234-21.188-2.234l.241-.615c-5.352-.593-9.691-.137-12.101.456-.748 2.005-1.037 3.714-.627 4.854.53 1.504 2.362 2.78 4.026 3.008 13.836 1.891 30.3.479 30.3.479l4.677-3.373c-.025-.046-5.038-2.553-5.328-2.575Z" clip-rule="evenodd"/><path fill="#2F4077" fill-rule="evenodd" d="M99.916 77.653a.71.71 0 0 0-.5.434c-.838 2.247-1.087 4.031-.63 5.302.604 1.712 2.629 3.194 4.607 3.465a97.58 97.58 0 0 0 5.858.61c6.533.493 13.486.48 20.086.157l.582-.03c.929-.048 1.781-.099 2.543-.15l.859-.062.541-.043a.752.752 0 0 0 .374-.137l4.676-3.373a.66.66 0 0 0 .227-.81l-.019-.04c-.084-.16.034-.111-.14-.209l-.299-.163-.305-.158-.363-.184-.774-.389c-.276-.138-.566-.281-.853-.423l-.893-.437c-1.403-.684-2.039-.967-2.287-.987l-.025-.001-.351-.018c-2.04-.108-4.959-.37-8.53-.752l-.972-.105a605.856 605.856 0 0 1-7.684-.9l-1.779-.221-.945-.12.001-.008c.023-.35-.246-.678-.638-.721-4.791-.53-9.302-.28-12.367.473Zm11.319.796-.001.02a.695.695 0 0 0 .58.675l.061.01 1.799.23a661.88 661.88 0 0 0 7.519.905l.797.09 1.172.13.98.106 1.058.111c3.113.324 5.68.548 7.547.646l.267.014.102.041.14.06c.139.062.314.142.521.239l.382.18c.375.179.812.39 1.287.623l.628.31.693.345.384.192-3.625 2.615-.414.032-.412.03a156.3 156.3 0 0 1-2.86.173c-6.713.349-13.823.377-20.473-.125a96.093 96.093 0 0 1-5.767-.6c-1.456-.2-3.018-1.343-3.443-2.548l-.02-.058c-.273-.839-.114-2.162.469-3.867l.048-.14.048-.01c2.638-.58 6.334-.791 10.319-.448l.214.019Z" clip-rule="evenodd"/><path fill="#fff" fill-rule="evenodd" d="M131.748 80.73s3.158-.137 6.484.342c2.001.296 5.376.775 5.713 1.208.796 1.002-2.241 1.526-3.688.683" clip-rule="evenodd"/><path fill="#2F4077" fill-rule="evenodd" d="m138.098 80.363.431.061.835.124.727.11.398.064c1.471.234 2.512.44 3.157.648.426.136.698.269.878.5.409.516.355 1.127-.116 1.553-.309.28-.774.463-1.331.563-1.085.195-2.356.051-3.199-.44a.662.662 0 0 1-.236-.94.747.747 0 0 1 .957-.245l.038.021c.504.294 1.414.397 2.17.26.041-.007.08-.014.118-.023l.058-.014-.028-.008c-.512-.14-1.291-.294-2.316-.464l-.391-.063a96.858 96.858 0 0 0-.667-.104l-1.457-.217a37.434 37.434 0 0 0-5.863-.348l-.2.004c-.138.003-.233.007-.28.009-.399.017-.737-.275-.755-.652-.018-.364.268-.674.647-.711l.056-.004.296-.009a39.205 39.205 0 0 1 6.073.325Z" clip-rule="evenodd"/><path fill="#fff" fill-rule="evenodd" d="M139.028 84.171c2.82.707 4.291.82 3.688-.228-.337-.592-5.062-2.643-5.978-2.871-.916-.228-5.954-.524-5.954-.524" clip-rule="evenodd"/><path fill="#2F4077" fill-rule="evenodd" d="m130.786 79.864.112.006.888.056.614.04c.51.035 1.012.072 1.491.109l.559.045c.536.044 1.004.088 1.389.13l.271.03c.365.044.633.087.812.131l.077.02c.536.152 1.761.646 2.98 1.197l.281.128c1.784.82 2.828 1.398 3.092 1.861.573.998-.013 1.756-1.179 1.782-.701.016-1.76-.173-3.33-.567-.386-.096-.616-.47-.514-.836.102-.365.498-.582.884-.485l.252.062c.866.212 1.546.35 2.048.415l.131.016-.087-.05-.154-.087-.18-.098a29.509 29.509 0 0 0-1.466-.723l-.301-.139c-1.235-.561-2.519-1.078-2.902-1.174a7.27 7.27 0 0 0-.719-.107l-.258-.028a65.064 65.064 0 0 0-1.663-.15l-.141-.01c-.474-.037-.972-.073-1.478-.108l-.851-.056-.705-.044c-.399-.023-.702-.348-.677-.725.024-.363.344-.642.724-.64Z" clip-rule="evenodd"/><path fill="#fff" fill-rule="evenodd" d="M135.509 82.576s1.904.547 3.398 1.185c1.471.638 2.363 1.322 2.266 1.596-.096.273-1.205.82-2.169.5-1.35-.706-4.387-1.435-4.387-1.435.313-.068 2.434.752 3.591 1.117 1.157.342 2.098 1.413-.723 1.253l-4.266-.137" clip-rule="evenodd"/><path fill="#2F4077" fill-rule="evenodd" d="M134.817 82.378c.112-.349.491-.55.861-.466l.051.013.22.065.345.106.251.078c.616.196 1.233.406 1.811.625.302.114.586.227.853.341l.177.078c1.718.766 2.757 1.55 2.473 2.355-.18.51-.94.913-1.769 1.027l-.054.007-.007.025c-.098.341-.403.587-.814.718l-.054.016c-.384.11-.91.147-1.58.116l-.12-.006-4.267-.137c-.399-.013-.712-.33-.698-.706.013-.364.324-.652.705-.66h.042l4.285.137.088.005.155.006-.369-.124-1.334-.461-.249-.085-.121-.035-.246-.068-.247-.067a43.33 43.33 0 0 0-.455-.118l-.311-.078a.676.676 0 0 1 .015-1.329l.047-.01c.288-.052.57.002 1.455.298l.338.114.199.057c.196.057.391.115.582.175l.285.09c.75.24 1.377.476 1.849.706l.08.04.013.004c.24.064.527.052.81-.027l.018-.006-.008-.005a8.944 8.944 0 0 0-1.398-.757l-.114-.05c-.243-.104-.507-.21-.79-.317a34.889 34.889 0 0 0-1.736-.597l-.241-.076-.412-.126a14.095 14.095 0 0 0-.133-.038c-.382-.11-.597-.492-.481-.853Z" clip-rule="evenodd"/><path fill="#fff" fill-rule="evenodd" d="M171.257 63.205s4.508-.137 7.449-1.755c1.759-.98 4.025-2.302 4.146-2.871.217-1.071-2.579.023-3.013.16" clip-rule="evenodd"/><path fill="#2F4077" fill-rule="evenodd" d="M181.135 57.609c.55-.14 1.004-.206 1.382-.17.708.07 1.189.555 1.044 1.274-.168.794-1.477 1.65-4.492 3.328-.763.42-1.652.765-2.641 1.044a22.543 22.543 0 0 1-3.533.674c-.42.048-.81.082-1.161.106l-.318.018a7.167 7.167 0 0 1-.136.006c-.399.012-.733-.284-.746-.662-.012-.364.279-.67.657-.703l.252-.012a20.496 20.496 0 0 0 1.278-.11 21.085 21.085 0 0 0 3.294-.627c.886-.25 1.671-.555 2.323-.914l.558-.312a38.956 38.956 0 0 0 2.086-1.25c.148-.097.284-.19.408-.276l.137-.099-.016.005a9.856 9.856 0 0 0-.423.118l-.215.068c-.303.098-.807.273-.806.272-.379.12-.788-.074-.915-.432a.675.675 0 0 1 .418-.851l.434-.15c.18-.06.383-.128.518-.17.213-.067.417-.126.613-.175Z" clip-rule="evenodd"/><path fill="#fff" fill-rule="evenodd" d="M174.439 60.197s2.41-1.185 3.471-2.393c1.061-1.208 1.784-2.142 1.591-2.393-.193-.228-1.567-.205-2.29.478-.916 1.231-3.736 2.553-3.736 2.553.313-.046 2.145-1.23 3.037-2.028.892-.775 1.302-2.234-1.157-1.072 0 0-2.604 1.322-3.592 1.687 0 0-4.098.478-5.424 1.8-.892.89-7.858 7.59-13.065 11.805-3.013 1.846-11.281 15.451-3.423 15.52 1.615.068 3.712-.957 4.556-2.074l15.645-20.647c2.507-.388 4.29-.98 5.496-1.596 1.542-.797 6.291-4.512 6.388-4.99.241-1.3-2.098-1.254-3.833.82" clip-rule="evenodd"/><path fill="#2F4077" fill-rule="evenodd" d="M176.66 54.228c.489-.025.909.149 1.123.503l.028.05.052-.016c.841-.261 1.771-.232 2.171.183l.032.036.02.025a.885.885 0 0 1 .179.372l.002.013.033-.009c.089-.022.178-.04.266-.056l.088-.013c1.237-.174 2.208.494 1.992 1.658-.09.446-.945 1.23-2.524 2.479l-.377.296c-1.552 1.213-3.077 2.288-3.854 2.69-1.336.682-3.122 1.235-5.329 1.605l-.096.016-15.47 20.417c-.997 1.32-3.286 2.4-5.086 2.362l-.074-.002-.092-.001c-2.094-.048-3.397-1.003-3.788-2.66l-.017-.08c-.299-1.386.036-3.197.871-5.278 1.418-3.533 4.246-7.587 6.011-8.72l.016-.01.124-.1c2.103-1.712 4.623-3.928 7.335-6.418l1.013-.936c1.917-1.778 3.818-3.59 4.506-4.275.589-.588 1.558-1.034 2.822-1.396a20.097 20.097 0 0 1 2.084-.47c.207-.035.401-.066.579-.092l.233-.033.045-.006.122-.048c.304-.124.734-.318 1.254-.563l.27-.13c.322-.153.656-.317.99-.482l.818-.408c.664-.314 1.198-.482 1.628-.503Zm-.457 1.502-.023.008a6.398 6.398 0 0 0-.483.206l-.306.155-.253.126c-.338.168-.679.336-1.013.497l-.428.206-.4.188c-.541.251-.972.44-1.271.55a.737.737 0 0 1-.13.035l-.277.037-.199.03a18.634 18.634 0 0 0-2.363.504c-1.042.298-1.82.656-2.193 1.028l-.355.35a275.87 275.87 0 0 1-4.379 4.139l-.612.564c-2.881 2.651-5.557 5.006-7.773 6.8a.787.787 0 0 1-.077.054c-1.453.89-4.171 4.77-5.506 8.096-.747 1.86-1.038 3.44-.806 4.52.229 1.063.952 1.612 2.415 1.645l.113.002c1.296.055 3.134-.788 3.893-1.734l.042-.055 15.645-20.647a.728.728 0 0 1 .471-.276c2.239-.346 4.005-.877 5.266-1.52.667-.346 2.14-1.384 3.622-2.543l.245-.192a38.126 38.126 0 0 0 1.551-1.286l.123-.11c.156-.14.285-.263.383-.363l.072-.076-.028-.005a1.062 1.062 0 0 0-.302.005c-.666.093-1.506.597-2.197 1.423a.706.706 0 0 1-.2.165l-.033.017-.046.051c-.362.393-.845.789-1.425 1.189l-.126.085c-.453.306-.935.595-1.417.862l-.196.107-.184.097-.234.12a.745.745 0 0 1-1.012-.273.666.666 0 0 1 .308-.921l.157-.08.163-.085.268-.146a17.5 17.5 0 0 0 1.307-.794c.586-.395 1.054-.777 1.354-1.118l.235-.27c.325-.377.585-.692.784-.953l.093-.125-.018.004a1.661 1.661 0 0 0-.685.314l-.006.005-.011.014c-.039.05-.08.099-.123.148l-.067.074c-.4.433-.969.872-1.667 1.318-.393.25-.808.491-1.226.716l-.185.099-.045.026c-.351.2-.644.339-.817.375l-.031.005c-.803.117-1.159-.904-.469-1.27l.197-.095.166-.083.179-.092.094-.049.08-.043.035-.02c.127-.078.265-.166.409-.26l.086-.056c.639-.422 1.267-.887 1.661-1.24.06-.051.117-.108.17-.167l.01-.012ZM121.524 53.062c1.876-3.162 1.044-6.972-1.859-8.512-2.902-1.54-6.776-.225-8.652 2.936-1.876 3.161-1.044 6.972 1.859 8.512 2.902 1.54 6.776.225 8.652-2.936Z" clip-rule="evenodd"/><path fill="#2F4077" fill-rule="evenodd" d="M127.832 56.903c.473-2.58-1.068-4.986-3.442-5.375-2.375-.39-4.683 1.386-5.156 3.966-.473 2.579 1.069 4.986 3.443 5.375 2.374.389 4.682-1.387 5.155-3.966Z" clip-rule="evenodd"/><path fill="#2F4077" fill-rule="evenodd" d="M131.113 64.654c1.409-1.925 1.112-4.426-.662-5.586-1.774-1.16-4.353-.538-5.762 1.387-1.408 1.925-1.111 4.426.663 5.586 1.773 1.16 4.353.539 5.761-1.387Z" clip-rule="evenodd"/><path fill="#2F4077" fill-rule="evenodd" d="M133.771 70.467c1.57-1.245 1.914-3.303.768-4.595-1.147-1.292-3.35-1.33-4.92-.084-1.571 1.246-1.915 3.303-.768 4.595 1.146 1.293 3.349 1.33 4.92.084ZM132.423 75.83c1.615.798 1.856 1.892 1.735 2.735-.048.41.458.66.772.387 1.832-1.572 4.652-4.603 2.338-7.041-1.085-1.163-3.061-1.3-4.532-.206-1.494 1.094-1.76 3.396-.313 4.125Z" clip-rule="evenodd"/><path fill="#E4794A" fill-rule="evenodd" d="M121.181 51.443a1 1 0 0 1 1.337-.256c.429.269.557.807.298 1.222l-.027.041-2.603 3.715a1 1 0 0 1-1.337.256.882.882 0 0 1-.298-1.222l.027-.041 2.603-3.715ZM127.328 57.907a1 1 0 0 1 1.346.208.878.878 0 0 1-.179 1.243l-.041.03-3.254 2.21a1 1 0 0 1-1.346-.209.878.878 0 0 1 .179-1.242l.041-.03 3.254-2.21ZM130.344 64.433c.48-.217 1.056-.025 1.285.43.223.44.039.964-.409 1.194l-.044.02-1.109.502c-.481.218-1.056.025-1.286-.429-.223-.44-.039-.964.409-1.194l.045-.022 1.109-.5ZM133.655 70.07c.476-.226 1.055-.043 1.294.407.23.436.056.963-.388 1.2l-.044.023-1.108.524c-.477.225-1.056.042-1.294-.408-.231-.436-.057-.963.387-1.2l.044-.023 1.109-.524ZM127.505 147.548l-5.014 15.428s8.823 2.051 7.883 9.139l-21.743-.114 6.219-26.299 12.655 1.846ZM157.011 146.978l-5.183 15.907s9.136 2.165 8.172 9.526l-22.515-.114 6.436-27.256 13.09 1.937Z" clip-rule="evenodd"/><path fill="#465F9D" fill-rule="evenodd" d="M150.116 88.113h-15.114l-.554-.82-5.906.82h-2.652l-.072.388-26.01 3.669c-.193.615-6.677 11.417-.506 19.097 2.459 3.077 11.257 3.874 20.924 3.715l-9.016 42.753h23.093l6.436-26.413-3.832 26.549h23.068l1.953-60.938c0 .023 0-9.595-11.812-8.82Z" clip-rule="evenodd"/><path fill="#2F4077" fill-rule="evenodd" d="m59.986 136.767-4.773 24.977.097 11.053h5.52l.337-10.916s2.242 10.688 9.956 11.167c7.714.478 14.39-1.527 14.343-1.801-.024-.136.24-2.301.482-4.375.217-1.823-1.615-3.601-3.592-3.487-2.965.16-6.87-.068-9.232-1.914-4.219-3.327 1.856-25.296 1.856-25.296l-14.994.592ZM88.334 137.77l.338 35.027h5.52l.337-10.916s2.242 10.688 9.956 11.167c7.714.479 14.391-1.527 14.343-1.8-.024-.137.241-2.302.482-4.376.217-1.823-1.615-3.601-3.592-3.487-2.965.16-6.87-.068-9.232-1.914-4.219-3.327-3.689-27.484-3.689-27.484l-14.463 3.783Z" clip-rule="evenodd"/><path fill="#E4794A" fill-rule="evenodd" d="m82.838 88.181 1.736-.16c5.062 1.938 10.847.616 16.054-2.347-.65-.524-1.856-1.868-1.856-2.598 0-4.74 1.085-9.047 4.941-14.585l-7.737 4.672s-3.255-4.786-6.171-9.868c-.29-3.44-1.037-6.472-2.507-8.477-4.484-5.037-14.608-4.421-14.608-4.421l-16.705-1.185-.097-.046c-3.11 0-7.328 3.122-7.786 6.518-.868 6.29 1.23 14.676 2.122 21.946-.145.752-.29 1.344-.362 1.732 0 0-17.573 23.108-5.28 34.731.073.091 19.31-.114 19.31-.114l-7.715 40.906 47.826.844s5.207-40.862 4.122-45.397c-2.17-9.207-25.287-22.15-25.287-22.15Z" clip-rule="evenodd"/><path fill="#E4794A" fill-rule="evenodd" d="M63.696 41.489c.17-.341.602-.487.963-.325.36.161.515.569.344.91-.393.785-.534 1.84-.349 2.93.327 1.992 1.557 3.385 2.619 3.305l.048-.005c.396-.046.758.22.807.594.05.375-.231.716-.628.763-2.02.239-3.838-1.786-4.275-4.444-.23-1.352-.051-2.687.47-3.728ZM84.98 40.783c.172-.342.603-.487.964-.325.361.161.515.569.344.91-.393.785-.534 1.84-.349 2.93.328 1.992 1.557 3.385 2.619 3.305l.048-.005c.397-.046.758.22.808.594.049.375-.232.716-.628.763-2.02.239-3.839-1.786-4.275-4.444-.23-1.352-.052-2.687.47-3.728Z" clip-rule="evenodd"/><path fill="#2F4077" fill-rule="evenodd" d="M65.748 25.123c2.964-2.643 3.567-14.79-6.268-21.764-9.98-7.042-16.343 2.074-17.717 4.444-1.374 2.37-1.857 8.5 6.604 13.264 8.461 4.762 14.006 7.064 17.38 4.056Z" clip-rule="evenodd"/><path fill="#E4794A" fill-rule="evenodd" d="m71.147 29.84-.193.137c-1.109.866-2.82.752-3.808-.274l-2.772-2.871c-.989-1.026-.892-2.575.217-3.441l.192-.137c1.11-.866 2.82-.752 3.809.273l2.772 2.872c.988 1.025.892 2.575-.217 3.44Z" clip-rule="evenodd"/><path fill="#fff" fill-rule="evenodd" d="M68.836 40.276c.688-1.363.017-3.022-1.497-3.704-1.514-.683-3.299-.13-3.986 1.233-.688 1.363-.018 3.022 1.497 3.704 1.514.682 3.299.13 3.986-1.233Z" clip-rule="evenodd"/><path fill="#2F4077" fill-rule="evenodd" d="M62.738 37.547c-.884 1.73-.084 3.793 1.763 4.615 1.847.822 4.066.103 4.95-1.628.884-1.73.084-3.793-1.763-4.615-1.847-.822-4.066-.104-4.95 1.628Zm1.29.574c.525-1.028 1.875-1.465 3.023-.954 1.148.51 1.634 1.765 1.11 2.793-.525 1.027-1.875 1.465-3.023.954-1.148-.511-1.634-1.766-1.11-2.793Z" clip-rule="evenodd"/><path fill="#fff" fill-rule="evenodd" d="M89.628 39.352c.688-1.363.018-3.022-1.497-3.704-1.514-.682-3.299-.13-3.986 1.233-.688 1.363-.017 3.022 1.497 3.704 1.514.683 3.299.13 3.986-1.233Z" clip-rule="evenodd"/><path fill="#2F4077" fill-rule="evenodd" d="M83.53 36.623c-.884 1.73-.084 3.793 1.763 4.615 1.847.822 4.066.103 4.95-1.628.884-1.73.084-3.793-1.763-4.615-1.847-.822-4.066-.103-4.95 1.628Zm1.29.574c.525-1.028 1.875-1.465 3.023-.954 1.148.511 1.634 1.765 1.11 2.793-.525 1.028-1.875 1.465-3.023.954-1.148-.511-1.634-1.765-1.11-2.793Z" clip-rule="evenodd"/><path fill="#fff" fill-rule="evenodd" d="m78.403 47.137.168 4.08 3.616.751c.193.547.434 10.164-8.846 8.956-6.099-.774-8.944-5.925-10.558-10.642l5.158.342.024-11.44 10.438 7.953Z" clip-rule="evenodd"/><path fill="#2F4077" fill-rule="evenodd" d="m67.242 39.182-.023 10.708-4.386-.29c-.511-.035-.896.431-.739.892.977 2.851 2.158 5.173 3.722 7.017 1.942 2.289 4.392 3.707 7.428 4.093 4.41.573 7.282-1.088 8.735-4.224.914-1.972 1.192-4.78.894-5.626l-.016-.043a.713.713 0 0 0-.514-.409l-3.071-.639-.147-3.551a.671.671 0 0 0-.269-.506L68.42 38.651c-.473-.36-1.176-.043-1.177.53Zm1.443 1.428 9.008 6.864.156 3.769.003.04c.03.293.257.536.564.6l3.103.646.001.044c.007.329-.008.719-.049 1.13-.107 1.086-.373 2.168-.817 3.127-1.202 2.593-3.468 3.904-7.215 3.417l-.146-.02c-4.477-.627-7.363-3.733-9.381-8.944l-.095-.248 4.073.27c.418.028.773-.285.774-.68l.021-10.015Z" clip-rule="evenodd"/><path fill="#fff" fill-rule="evenodd" d="M78.838 49.424c5.198-.903 8.418-6.753 7.19-13.066-1.226-6.313-6.435-10.698-11.633-9.796-5.198.903-8.417 6.753-7.19 13.066 1.227 6.313 6.435 10.699 11.633 9.796Z" clip-rule="evenodd"/><path fill="#2F4077" fill-rule="evenodd" d="M74.163 25.811c-5.579.935-8.916 7.165-7.567 13.862 1.348 6.696 6.896 11.437 12.475 10.502 5.579-.934 8.916-7.165 7.567-13.861-1.349-6.696-6.896-11.438-12.475-10.503Zm.273 1.356c4.712-.79 9.581 3.372 10.792 9.383 1.21 6.011-1.719 11.48-6.43 12.27-4.712.79-9.581-3.373-10.792-9.384-1.21-6.01 1.719-11.48 6.43-12.27Z" clip-rule="evenodd"/><path fill="#2F4077" fill-rule="evenodd" d="M78.072 34.991c.372-.094.754.104.873.446l.012.038 1.322 4.683c.175.577-.258 1.185-.913 1.213l-1.85.069c-.4.014-.736-.28-.752-.657-.015-.363.273-.672.652-.707l.042-.003 1.287-.048-1.186-4.197c-.099-.352.11-.713.472-.825l.04-.012ZM72.59 32.413c.793-.422 1.643-.58 2.48-.272.285.105.554.262.801.47a.658.658 0 0 1 .058.966.753.753 0 0 1-.986.083l-.035-.028a1.202 1.202 0 0 0-.362-.216c-.36-.133-.793-.052-1.246.189a2.86 2.86 0 0 0-.301.186l-.075.054-.017.014a.753.753 0 0 1-1.021-.053.658.658 0 0 1 .056-.966c.137-.115.358-.272.648-.427ZM79.97 32.161a4.03 4.03 0 0 1 1.577-.054c.767.139 1.4.544 1.787 1.245a.666.666 0 0 1-.305.923.747.747 0 0 1-.955-.253l-.021-.036c-.172-.31-.424-.472-.777-.536a2.568 2.568 0 0 0-.98.043l-.083.02a2.24 2.24 0 0 0-.144.04l-.016.005c-.374.131-.79-.049-.93-.403-.139-.354.051-.747.426-.879.09-.032.235-.074.42-.115ZM75.88 37.23c.019-.566-.29-1.034-.688-1.047-.4-.012-.739.437-.758 1.003-.02.566.288 1.035.687 1.047.4.013.739-.436.758-1.003ZM82.05 38.475c.399-.028.687-.508.644-1.072-.044-.565-.402-1.001-.8-.974-.398.027-.686.508-.643 1.072.043.565.401 1.001.8.974Z" clip-rule="evenodd"/><path fill="#2F4077" fill-rule="evenodd" d="m73.148 23.847-.024.023c-3.11.433-6.581 1.777-8.534 3.737-3.423 3.487-1.856 10.985 1.64 11.486.289.045.578.068.867.091-.024-.182-.048-.387-.072-.57-.072-.706-.12-1.39-.097-2.05 4.773-1.687 4.75-8.433 4.75-9.003 1.012.753 2.338 2.074 2 3.487l10.534.638a14.22 14.22 0 0 1 1.977 5.675v.091c.988-1.344 1.036-3.418.217-5.606l3.567.205s3.255-11.395-16.825-8.204Z" clip-rule="evenodd"/><path fill="#E4794A" fill-rule="evenodd" d="M87.501 38.828c2.015-.293 3.615 1.828 4.079 4.65.44 2.7-.677 5.177-2.726 5.475a.749.749 0 0 1-.073.007l-.037.001h-.048c-.4 0-.724-.306-.724-.684 0-.364.302-.661.681-.682l.026-.001c1.04-.196 1.778-1.839 1.485-3.817l-.013-.09c-.352-2.14-1.438-3.604-2.388-3.513l-.042.005c-.395.058-.764-.198-.825-.572-.06-.373.21-.722.605-.78ZM65.95 39.762c2.05-.298 3.906 1.747 4.345 4.446.44 2.7-.677 5.177-2.726 5.474a.776.776 0 0 1-.073.008H67.41c-.4 0-.724-.306-.724-.683 0-.364.302-.662.681-.683H67.395c1.04-.197 1.777-1.84 1.484-3.819l-.014-.089c-.328-2.017-1.577-3.418-2.647-3.308l-.047.006c-.395.057-.764-.199-.825-.572-.06-.373.21-.722.605-.78Z" clip-rule="evenodd"/><path fill="#2F4077" fill-rule="evenodd" d="M72.763 41.327c.094 2.581 1.14 3.927 2.841 4.06.633.05 1.277-.08 1.908-.32a5.04 5.04 0 0 0 .717-.334.664.664 0 0 0 .03-1.144l-4.363-2.848c-.489-.32-1.154.024-1.133.586Zm1.642 1.407 1.915 1.251-.04.008a2.275 2.275 0 0 1-.557.031c-.606-.047-1.062-.406-1.31-1.261l-.008-.029ZM62.232 73.417c.95-.302 1.938-.259 2.873-.013.282.075.497.151.629.208.363.157.524.562.358.906-.16.331-.564.484-.919.354l-.088-.035a4.048 4.048 0 0 0-.368-.115c-.68-.18-1.39-.21-2.025-.008-.635.201-1.17.627-1.59 1.352a.745.745 0 0 1-.98.272.665.665 0 0 1-.288-.928c.593-1.025 1.416-1.681 2.398-1.993Z" clip-rule="evenodd"/><path fill="#2F4077" fill-rule="evenodd" d="M58.29 73.555c2.241-2.634 4.587-2.905 6.56-1.687.234.145.442.3.622.456l.078.07c.073.066.128.121.165.162a.658.658 0 0 1-.072.964.754.754 0 0 1-.99-.036l-.06-.062a3.343 3.343 0 0 0-.535-.41c-.55-.339-1.156-.51-1.804-.435-.892.103-1.842.665-2.837 1.835a.752.752 0 0 1-1.017.104.659.659 0 0 1-.11-.96Z" clip-rule="evenodd"/><path fill="#fff" fill-rule="evenodd" d="m85.442 69.334 3.784-1.367s2.965-3.1 4.267-4.011c1.302-.935 3.88-.82 2.145.615-1.735 1.436-1.976 2.302-1.976 2.302s4.555-1.254 7.063-2.735c2.555-1.504 2 1.071 2 1.071s1.929.25 1.181 1.185c0 0 1.495.798 0 1.618 0 0 2.098.205.892 1.39-.867 1.687-6.942 4.9-10.678 4.627l-2.074.866-2.627 1.23" clip-rule="evenodd"/><path fill="#2F4077" fill-rule="evenodd" d="M93.055 63.412c.77-.553 1.933-.84 2.766-.712 1.358.21 1.483 1.365.345 2.342l-.052.044c-.155.129-.3.254-.435.376l-.115.106.221-.074a42.3 42.3 0 0 0 1.62-.582l.313-.122c.996-.394 1.85-.786 2.515-1.168l.109-.064c.899-.529 1.625-.705 2.227-.48.572.214.841.693.912 1.283.008.075.014.15.017.224l.001.096.071.023.085.029c.402.142.721.331.933.621.178.244.243.517.202.792l-.006.034c.295.278.489.6.508.984l.002.064c0 .152-.028.297-.082.435l-.011.025.03.017c.23.133.412.303.533.528l.029.058c.229.488.073 1-.376 1.486l-.023.023-.02.035c-1.292 2.143-7.45 5.019-11.086 4.888l-.036-.002-1.9.794-2.612 1.223a.745.745 0 0 1-.948-.272l-.021-.037a.665.665 0 0 1 .288-.896l.039-.02 2.627-1.23.03-.013 2.072-.866a.76.76 0 0 1 .348-.057c1.573.115 3.821-.471 6.039-1.509 1.983-.928 3.596-2.076 3.934-2.734a.692.692 0 0 1 .129-.175l.059-.06.039-.045-.04-.016-.04-.014a2.264 2.264 0 0 0-.325-.08l-.087-.015-.051-.006c-.682-.067-.886-.903-.326-1.25l.037-.022a1.27 1.27 0 0 0 .269-.185l.016-.016-.016-.02a.54.54 0 0 0-.044-.047l-.027-.025a1.105 1.105 0 0 0-.175-.13l-.015-.008a.665.665 0 0 1-.292-.901l.015-.025-.025-.011-.065-.026-.036-.013a2.826 2.826 0 0 0-.364-.1l-.06-.011a2.004 2.004 0 0 0-.097-.016c-.4-.052-.674-.402-.618-.774l.014-.077.01-.066c.021-.156.027-.317.01-.455a.66.66 0 0 0-.033-.153l-.005-.013h-.003a.817.817 0 0 0-.095.016l-.034.008a2.852 2.852 0 0 0-.693.303l-.072.042c-.756.447-1.715.892-2.832 1.334a45.81 45.81 0 0 1-3.031 1.065l-.303.094c-.197.06-.385.118-.563.17l-.413.12-.102.029c-.54.148-1.045-.317-.902-.83.05-.183.183-.458.434-.817.366-.522.908-1.104 1.657-1.736l.117-.097-.031.004c-.382.048-.83.196-1.156.41l-.06.041c-.36.252-.908.727-1.586 1.363l-.165.156a74.663 74.663 0 0 0-1.524 1.496l-.329.333-.556.573a.722.722 0 0 1-.234.162l-.045.018-3.784 1.367c-.373.135-.791-.042-.934-.394a.67.67 0 0 1 .378-.868l.04-.015 3.623-1.31.369-.378.168-.172a79.345 79.345 0 0 1 1.49-1.478l.21-.201.104-.099c.802-.76 1.451-1.327 1.907-1.646Z" clip-rule="evenodd"/><path fill="#fff" fill-rule="evenodd" d="M96.554 67.739s4.628-1.072 6.171-2.53l-6.17 2.53Z" clip-rule="evenodd"/><path fill="#2F4077" fill-rule="evenodd" d="M102.214 64.726a.752.752 0 0 1 1.022 0c.283.267.283.7 0 .966-.643.609-1.702 1.156-3.083 1.673a29.17 29.17 0 0 1-2.353.759l-.273.075a31.7 31.7 0 0 1-.381.1l-.388.096a3.325 3.325 0 0 1-.032.008c-.388.09-.78-.135-.874-.502-.092-.353.126-.71.49-.816l.312-.077.23-.059a27.595 27.595 0 0 0 2.736-.855c1.211-.453 2.126-.926 2.594-1.368Z" clip-rule="evenodd"/><path fill="#fff" fill-rule="evenodd" d="M97.157 69.22c.506-.204 4.194-.843 6.533-2.985l-6.533 2.986Z" clip-rule="evenodd"/><path fill="#2F4077" fill-rule="evenodd" d="M103.186 65.745a.753.753 0 0 1 1.023.015.657.657 0 0 1-.016.966c-.701.643-1.543 1.19-2.5 1.659-.882.431-1.806.772-2.808 1.066l-.327.093c-.466.129-1.085.293-1.116.305-.367.149-.792-.012-.95-.359-.157-.347.013-.749.38-.898.144-.058 1.26-.351 1.584-.447a16.169 16.169 0 0 0 2.572-.974c.84-.411 1.567-.884 2.158-1.427Z" clip-rule="evenodd"/><path fill="#fff" fill-rule="evenodd" d="M97.76 70.793c1.036-.41 3.35-.296 6.171-2.666l-6.171 2.666Z" clip-rule="evenodd"/><path fill="#2F4077" fill-rule="evenodd" d="m98.577 71.276-.068.015-.123.029a3.25 3.25 0 0 0-.279.078l-.068.025c-.369.146-.792-.018-.947-.367-.154-.348.02-.748.388-.894.172-.068.357-.123.6-.18l.226-.05c.183-.038.766-.16.975-.21.43-.1.817-.213 1.208-.356 1.006-.369 1.975-.922 2.961-1.75a.753.753 0 0 1 1.021.056.659.659 0 0 1-.06.965c-1.117.939-2.234 1.577-3.399 2.004a11.56 11.56 0 0 1-1.201.365l-.18.043c-.276.065-1.093.235-1.054.227ZM63.278 60.445c.387-.093.78.127.88.493.117.432.23.873.338 1.322.642 2.654 1.118 5.492 1.452 8.33.108.916.194 1.772.26 2.55l.033.397 18.793-4.84a.744.744 0 0 1 .794.283l.023.036 4.122 6.769c.21.344.066.784-.312.957l-1.15.528c-.652.302-1.412.656-2.281 1.062l-1.604.75c-2.315 1.087-4.962 2.34-7.947 3.765l-2.09.998c-5.347 2.533-9.742 3.913-13.621 3.94-5.156.037-8.922-2.427-10.944-7.783-.134-.356.062-.747.438-.874.377-.127.79.059.925.414 1.814 4.806 5.027 6.909 9.57 6.876 3.605-.026 7.82-1.35 12.986-3.796l3.42-1.632a1352.88 1352.88 0 0 1 6.195-2.933l2.204-1.032c.799-.373 1.503-.7 2.114-.983l.457-.21-3.457-5.676-19.107 4.92c-.431.111-.86-.17-.91-.583l-.004-.059-.027-.412a51.719 51.719 0 0 0-.029-.377l-.016-.207a77.954 77.954 0 0 0-.272-2.697c-.329-2.79-.796-5.578-1.424-8.176a48.899 48.899 0 0 0-.33-1.288c-.1-.365.134-.738.52-.832ZM245.478 150.784v21.559h-29.505s-.097-7.908 13.499-9.367v-11.508l16.006-.684Z" clip-rule="evenodd"/><path fill="#2F4077" fill-rule="evenodd" d="M221.107 150.784v21.559h-29.505s-.096-7.908 13.499-9.367v-11.508l16.006-.684Z" clip-rule="evenodd"/><path fill="#fff" fill-rule="evenodd" d="m229.978 94.905-22.49 13.924c-2.652 2.757-4.195 6.472-4.339 10.392l-1.447 38.468h18.562s25.672.433 25.672-1.322c0-1.413 1.519-27.119 2.121-37.283.145-2.324 2.097-4.17 4.556-4.284 4.387-.205 10.896-.502 13.764-.57 22.467-.729 16.464-9.503 13.813-15.747a869.844 869.844 0 0 0-2.796-6.45" clip-rule="evenodd"/><path fill="#2F4077" fill-rule="evenodd" d="M277.116 91.402c.369-.145.792.02.945.37l.872 1.993c.593 1.363 1.252 2.889 1.928 4.463l.116.27.172.392.618 1.369c.531 1.177.862 1.964 1.151 2.777 1.196 3.367 1.063 5.909-.988 7.926-2.406 2.364-7.371 3.687-15.535 3.952l-.838.023c-2.567.078-6.974.268-12.909.546-2.085.096-3.746 1.661-3.869 3.64l-.827 14.021c-.79 13.476-1.293 22.384-1.293 23.223 0 .427-.272.71-.676.91-.248.123-.573.225-.985.317-.688.153-1.644.281-2.855.388l-.153.013c-2.227.191-5.251.312-8.877.375-3.31.057-6.822.062-10.157.034l-2.07-.022-.623-.009h-18.561c-.395 0-.714-.299-.723-.668l.001-.04 1.446-38.468c.151-4.087 1.763-7.954 4.526-10.828a.71.71 0 0 1 .102-.087l.037-.025 22.491-13.924a.749.749 0 0 1 1.001.197.659.659 0 0 1-.173.923l-.036.024-22.412 13.875-.05.054c-2.425 2.579-3.86 6.021-4.034 9.673l-.007.166-1.42 37.76 17.871.001 1.652.022.168.001c3.565.036 7.374.036 10.944-.026l.924-.018c3.033-.063 5.599-.17 7.56-.328l.289-.024c1.176-.1 2.098-.219 2.733-.354l.075-.016c.207-.047.376-.093.5-.138l.051-.019.018-.453c.11-2.532.594-11.025 1.309-23.222l.79-13.387c.167-2.676 2.418-4.796 5.242-4.927l4.534-.208c4.297-.193 7.438-.319 9.241-.362 7.815-.254 12.457-1.49 14.535-3.533 1.596-1.569 1.703-3.606.66-6.543l-.064-.177a31.412 31.412 0 0 0-.821-1.995l-.799-1.772a60.737 60.737 0 0 1-.265-.604l-1.209-2.807a798.847 798.847 0 0 0-1.663-3.82c-.154-.349.021-.749.39-.894Z" clip-rule="evenodd"/><path fill="#2F4077" fill-rule="evenodd" d="M252.746 92.7c.369-.144.792.022.945.371a.67.67 0 0 1-.353.877l-.039.016-25.762 10.074-.021.013c-1.634.992-2.462 3.203-2.791 6.718l-.038.437a45.745 45.745 0 0 0-.114 1.93l-.067 1.617-1.447 42.958c-.012.377-.346.673-.746.661-.384-.011-.69-.305-.699-.664v-.041l1.446-42.963.076-1.803c.04-.906.074-1.418.134-2.101.36-4.054 1.335-6.669 3.558-7.955a.602.602 0 0 1 .067-.034l.034-.015L252.746 92.7Z" clip-rule="evenodd"/><path fill="#465F9D" fill-rule="evenodd" d="M283.709 77.47c-6.677-37.648-17.573-32.338-23.117-32.155l-12.631.478c0-.137-.024-.296-.049-.478-.096-.433-.602-.775-1.229-1.072v-.022c1.615-.388 4.701-1.231 4.676-1.892-.048-.934-6.219-.479-8.123-.364-.964.045-2.844.592-4.435 1.116-2.074.661-3.761 2.12-4.653 4.011-.337.73-1.374 3.213-1.687 3.92l-4.002-1.71s-7.641 16.5-9.401 20.784c-.217.57-.361 1.094-.506 1.641-3.736 10.574 4.122 16.067 4.122 16.067l38.4.364-4.46 3.578c-.65.707 20.948-.889 21.695-.797.386.045-1.566-2.758-3.543-5.493 4.676-1.8 9.232-4.49 8.943-7.976Z" clip-rule="evenodd"/><path fill="#2F4077" fill-rule="evenodd" d="M260.741 58.362c.047-.375.406-.644.803-.6.397.045.68.384.634.76-.156 1.25.17 2.978.9 5.04.391 1.106.888 2.28 1.466 3.491a53.15 53.15 0 0 0 1.676 3.218l.147.259.141.245.097.167.118-.068c2.789-1.583 5.351-1.89 7.472-1.414l.098.022c.349.083.603.17.752.235.363.159.521.565.353.908a.74.74 0 0 1-.921.349l-.071-.029-.071-.024a4.276 4.276 0 0 0-.394-.113c-1.949-.462-4.403-.123-7.181 1.667a.75.75 0 0 1-1.007-.183l-.053-.083-.154-.256-.168-.282a54.517 54.517 0 0 1-2.152-4.055 37.556 37.556 0 0 1-1.52-3.62c-.791-2.237-1.151-4.14-.965-5.634Z" clip-rule="evenodd"/><path fill="#2F4077" fill-rule="evenodd" d="M267.155 71.671c.16.331.017.72-.319.888l-.253.111-14.661 6.345a381.367 381.367 0 0 0-4.214 1.845l-.028.014a.745.745 0 0 1-.981-.273.663.663 0 0 1 .25-.907l.038-.02c.216-.112 2.73-1.209 7.098-3.102l8.153-3.528 3.959-1.71c.363-.157.792-.006.958.337ZM236.789 52.741a.738.738 0 0 1 .914-.364l.04.015 2.29.958a.674.674 0 0 1 .403.813l-.014.04-7.4 19.826c-.133.356-.546.543-.923.417-.363-.12-.559-.488-.454-.834l.013-.038 7.178-19.23-1.678-.7a.671.671 0 0 1-.385-.865l.016-.038Z" clip-rule="evenodd"/><path fill="#fff" fill-rule="evenodd" d="m259.965 47.092-4.411-10.643-9.667 5.812 1.182 5.15-.314 10.939 13.21-11.258Z" clip-rule="evenodd"/><path fill="#2F4077" fill-rule="evenodd" d="m245.499 41.683-.039.025a.665.665 0 0 0-.279.697l1.162 5.07-.311 10.855c-.017.601.735.93 1.207.527l13.21-11.258a.658.658 0 0 0 .189-.757l-4.411-10.643c-.166-.4-.678-.558-1.062-.327l-9.666 5.81Zm9.701-4.212 3.909 9.429-11.586 9.874.268-9.345v-.055a.797.797 0 0 0-.016-.109l-1.074-4.684 8.499-5.11ZM242.055 24.78s8.171 4.923 4.17 9.504c0 0-1.784 1.914-3.254 1.527 0 0 1.084-1.618-.145-2.484 0 0-.41 4.877-4.628 3.874 0 0 1.567-2.165 1.157-4.74-.844-5.424.482-8.66 2.7-7.68Z" clip-rule="evenodd"/><path fill="#fff" fill-rule="evenodd" d="M259.025 32.597s1.639-9.525-8.558-11.235c-.94-.16-7.472-1.116-8.702 3.989-.819 3.418-.988 7.11-.916 10.004 0 .023.049 5.447 2.29 8.478 2.242 3.03 7.28 2.78 9.932 1.321 2.676-1.458 3.158-2.233 3.929-3.988.771-1.755 2.025-8.546 2.025-8.569Z" clip-rule="evenodd"/><path fill="#2F4077" fill-rule="evenodd" d="M246.076 20.714c-2.537.504-4.353 1.904-4.99 4.38l-.026.106c-.721 3.008-1.006 6.436-.94 9.877l.009.432.008.228a24.047 24.047 0 0 0 .33 2.998c.387 2.199 1.05 4.098 2.08 5.49 1.179 1.593 3.097 2.473 5.35 2.634 1.957.14 4.037-.288 5.537-1.113l.229-.126c2.389-1.326 3.095-2.12 4.005-4.191l.019-.044.04-.101c.606-1.571 1.851-7.34 2.005-8.514l.007-.062a6.58 6.58 0 0 0 .054-.44c.17-1.755-.018-3.758-.848-5.677-1.308-3.022-3.965-5.129-8.206-5.877l-.145-.024a13.442 13.442 0 0 0-1.678-.172 11.993 11.993 0 0 0-2.84.196Zm-3.664 5.037.058-.248c.475-1.971 1.844-3.041 3.904-3.451a10.5 10.5 0 0 1 2.478-.168c.58.024 1.078.082 1.488.152 3.831.642 6.128 2.444 7.266 5.073.708 1.635.887 3.373.76 4.897l-.013.138-.024.218-.018.126a.673.673 0 0 0-.009.11l-.001-.007c0-.007-.003-.003-.005.006l-.016.066-.153.803-.021.11c-.133.682-.276 1.395-.424 2.1l-.089.421c-.491 2.3-.932 4.032-1.243 4.767l-.094.21c-.774 1.723-1.319 2.274-3.546 3.488-2.852 1.569-7.22 1.256-8.978-1.12-.882-1.193-1.484-2.916-1.838-4.93a22.558 22.558 0 0 1-.269-2.143l-.018-.243-.014-.23-.015-.325-.005-.175-.001-.048c-.083-3.349.171-6.684.84-9.597Z" clip-rule="evenodd"/><path fill="#2F4077" fill-rule="evenodd" d="M244.36 33.118c.082-.37.465-.607.856-.53.377.076.623.415.567.77l-.008.04-.82 3.7.77-.117c.38-.057.739.177.82.528l.008.04c.061.359-.187.698-.558.775l-.042.007-1.808.274c-.486.074-.902-.323-.829-.777l.007-.039 1.037-4.671ZM243.265 32.908c.041-.413-.152-.768-.43-.793-.279-.024-.538.291-.578.704-.041.414.151.77.43.794.278.024.537-.29.578-.705ZM247.722 34.144c.279-.025.471-.38.429-.794-.042-.413-.301-.728-.579-.703-.279.025-.471.38-.429.794.042.413.301.728.579.703ZM248.288 28.455c.882-.096 1.639.14 2.247.587.179.131.332.272.461.414.082.09.141.167.177.222a.661.661 0 0 1-.22.944.75.75 0 0 1-.974-.174l-.025-.035a1.409 1.409 0 0 0-.306-.292 1.627 1.627 0 0 0-1.116-.315l-.079.007c-.397.043-.756-.226-.801-.601-.046-.375.239-.714.636-.757ZM242.369 27.789c.439-.029.886.037 1.324.163.219.063.391.127.499.175.362.16.519.566.35.908-.162.33-.567.48-.92.348l-.083-.034a3.07 3.07 0 0 0-.266-.088 2.447 2.447 0 0 0-.806-.108c-.24.016-.407.084-.526.217l-.026.032a.751.751 0 0 1-1.011.147.66.66 0 0 1-.156-.956c.394-.507.964-.762 1.621-.804Z" clip-rule="evenodd"/><path fill="#2F4077" fill-rule="evenodd" d="M251.07 25.442s-3.953 12.762 5.038 14.13c0 0 5.231.91 6.436-.821 0 0-3.784-1.937-3.278-3.966 0 0 4.242 4.444 7.979 1.3 0 0-6.195-1.026-5.593-6.29.386-3.806-9.184-7.407-10.582-4.353Z" clip-rule="evenodd"/><path fill="#E4794A" fill-rule="evenodd" d="m267.486 27.356-5.472-.82c-.53-3.487-2.652-8.5-10.197-9.39-11.811-1.367-12.245 9.48-12.245 9.48l27.359 4.057c.965.137 1.881-.478 2.049-1.413.145-.911-.506-1.777-1.494-1.914Z" clip-rule="evenodd"/><path fill="#2F4077" fill-rule="evenodd" d="M248.794 38.519c.162-.346.59-.501.955-.348.365.154.529.558.367.903a2.17 2.17 0 0 1-.187.308c-.141.2-.32.398-.538.581-.793.667-1.895.98-3.285.76-.394-.061-.66-.413-.595-.786.066-.372.439-.624.833-.562.952.15 1.615-.038 2.086-.434.123-.103.222-.213.299-.32l.042-.063.021-.035.002-.005Z" clip-rule="evenodd"/><path fill="#fff" fill-rule="evenodd" d="M231.039 50.579c.12-.297.241-.57.337-.843.506-1.254.94-2.257 1.326-3.054.892-1.892 2.579-3.35 4.652-4.011 1.591-.524 3.447-1.048 4.436-1.117 1.904-.114 8.075-.547 8.123.365.048.66-3.061 1.504-4.676 1.891l-1.278 4.65s-1.494.159-2.242.546c-1.518.775-3.013 2.074-4.122 1.96 0 0-.072.752-.313 2.028" clip-rule="evenodd"/><path fill="#2F4077" fill-rule="evenodd" d="m245.555 40.684.321-.007c1.107-.022 2.028-.004 2.738.064.477.045.86.113 1.156.214.494.167.84.446.865.917.036.503-.286.839-.83 1.151-.339.195-.793.388-1.355.585-.71.25-1.563.496-2.457.723l-.164.04-1.17 4.26a.708.708 0 0 1-.572.502l-.047.006-.099.012-.134.018a10.034 10.034 0 0 0-.996.186c-.32.078-.58.165-.75.253l-.117.06a14.71 14.71 0 0 0-.797.46l-1 .617c-.426.26-.572.337-.869.483-.343.169-.66.29-.963.36l-.071.016-.015.11c-.048.332-.107.698-.179 1.096l-.056.305c-.07.371-.446.619-.839.553-.393-.067-.655-.422-.585-.794l.054-.293c.069-.382.126-.734.171-1.05l.017-.118.032-.244.031-.264c.035-.368.371-.64.755-.622l.089.007c.394.02.88-.221 2.297-1.097l.268-.166c.441-.27.757-.452 1.086-.62.29-.15.653-.272 1.08-.376.252-.062.515-.114.78-.159l.15-.024 1.157-4.21a.7.7 0 0 1 .477-.478l.045-.012.371-.09c.922-.23 1.806-.482 2.517-.731.193-.068.369-.135.527-.2l.051-.02-.056-.006-.182-.016c-.655-.05-1.516-.061-2.544-.037l-.148.003c-.633.017-1.299.045-2.026.084l-.704.04-1.023.061c-.764.053-2.283.443-4.014 1.004l-.243.079c-1.842.587-3.353 1.871-4.178 3.548l-.138.289a49.569 49.569 0 0 0-1.038 2.382l-.174.428-.016.044a6.442 6.442 0 0 1-.094.246l-.233.568c-.144.353-.562.529-.935.393s-.559-.531-.415-.883l.178-.432.073-.18.04-.105.035-.097.01-.028.184-.45a48.116 48.116 0 0 1 1.157-2.638c.958-2.032 2.755-3.604 4.957-4.34l.388-.127c1.83-.592 3.428-1 4.358-1.065l1.149-.07.347-.02.493-.025a73.583 73.583 0 0 1 1.822-.073Z" clip-rule="evenodd"/><path fill="#fff" fill-rule="evenodd" d="M241.645 42.968s4.46.524 4.797 1.96c.337 1.435-.94 1.504-.94 1.504" clip-rule="evenodd"/><path fill="#2F4077" fill-rule="evenodd" d="M240.927 42.883c.05-.375.411-.641.807-.595l.224.03.216.032a17.42 17.42 0 0 1 2.085.44l.195.057c1.509.446 2.48 1.021 2.694 1.931.229.975-.092 1.707-.781 2.09a2.003 2.003 0 0 1-.824.245c-.399.022-.741-.267-.763-.643-.022-.364.261-.677.639-.718l.042-.004.032-.007a.546.546 0 0 0 .141-.051c.139-.078.197-.21.102-.615-.062-.265-.768-.66-1.888-.974a15.86 15.86 0 0 0-1.58-.348l-.22-.037-.105-.016-.328-.047a16.626 16.626 0 0 0-.059-.008c-.397-.046-.678-.388-.629-.762Z" clip-rule="evenodd"/><path fill="#fff" fill-rule="evenodd" d="M241.476 44.654s3.93.798 4.146 2.234c.217 1.435-1.036 1.435-1.036 1.435" clip-rule="evenodd"/><path fill="#2F4077" fill-rule="evenodd" d="M240.769 44.51c.084-.37.469-.604.859-.525l.159.035.225.052.308.078c.512.135 1.024.295 1.507.481 1.442.556 2.369 1.215 2.511 2.16.143.944-.199 1.636-.869 1.989a1.982 1.982 0 0 1-.883.226c-.4 0-.723-.306-.723-.683 0-.364.301-.662.68-.683l.043-.001c-.009 0 .006-.001.034-.006a.507.507 0 0 0 .145-.047c.135-.072.201-.206.141-.602-.042-.282-.641-.707-1.625-1.086a13.094 13.094 0 0 0-1.35-.43l-.188-.049a16.37 16.37 0 0 0-.176-.043l-.193-.044-.05-.01c-.39-.08-.639-.443-.555-.812Z" clip-rule="evenodd"/><path fill="#fff" fill-rule="evenodd" d="M241.211 46.75s4.725 1.026 2.917 2.598c-1.808 1.572-2.724 1.39-2.724 1.39s-1.302-.775.795-1.983" clip-rule="evenodd"/><path fill="#2F4077" fill-rule="evenodd" d="M240.506 46.597c.09-.368.478-.598.867-.513l.112.025c.115.028.268.066.448.116.414.114.828.247 1.219.4.778.305 1.373.647 1.738 1.075.575.675.488 1.49-.273 2.151-1.409 1.226-2.507 1.646-3.265 1.57a.741.741 0 0 1-.333-.105 1.6 1.6 0 0 1-.367-.307c-.745-.834-.421-1.92 1.171-2.837a.748.748 0 0 1 .994.228c.208.322.1.743-.241.94a3.215 3.215 0 0 0-.679.491.902.902 0 0 0-.138.173l-.008.015.023-.007.083-.027.094-.034c.439-.168.973-.497 1.601-1.032l.146-.126c.142-.126.143-.142.078-.22l-.013-.015c-.174-.205-.593-.446-1.164-.67a10.871 10.871 0 0 0-1.342-.422l-.208-.05c-.389-.084-.632-.45-.543-.819Z" clip-rule="evenodd"/><path fill="#fff" fill-rule="evenodd" d="M247.623 80.342c-.747.136-1.567.273-2.435.433-.289.045-5.255 3.03-5.255 3.03l5.111 3.123s.361.342 8.099-.114c-.53-1.823-3.423-4.626-5.52-6.472Z" clip-rule="evenodd"/><path fill="#2F4077" fill-rule="evenodd" d="m247.534 79.663-.048.008-2.436.433c-.226.035-.767.328-2.159 1.142l-.791.464-.743.438-.763.454-1.049.627-.039.025a.663.663 0 0 0 .035 1.126l5.08 3.104.009.006c.136.092.299.136.541.169l.14.017c1.042.111 3.469.08 7.877-.18.458-.027.774-.445.652-.863-.498-1.713-2.649-4.084-5.724-6.791a.75.75 0 0 0-.582-.179Zm-2.142 1.77 2.005-.355.086.077c2.126 1.9 3.77 3.646 4.545 4.939l.055.095-.628.034c-3.38.174-5.268.18-6.033.088l-.071-.01-4.075-2.49.849-.504.824-.487c.528-.31.992-.58 1.378-.801l.475-.27c.158-.087.291-.16.398-.217l.12-.063.072-.035Z" clip-rule="evenodd"/><path fill="#fff" fill-rule="evenodd" d="M246.635 80.684s-3.254.09-6.653.866c-2.025.455-5.472 1.23-5.786 1.686-.747 1.117 2.459 1.39 3.857.41" clip-rule="evenodd"/><path fill="#2F4077" fill-rule="evenodd" d="M247.358 80.663c.011.364-.281.67-.659.702l-.179.007-.313.015-.09.005a38.16 38.16 0 0 0-1.461.114 36.65 36.65 0 0 0-4.194.64l-1.353.304c-.421.096-.751.174-1.123.263l-.323.078c-.369.09-.709.177-1.02.26l-.234.063c-.456.125-.836.24-1.131.343l-.146.053.034.007c.053.009.108.017.168.024l.06.006c.77.075 1.67-.093 2.174-.414l.054-.036a.751.751 0 0 1 1.012.142.66.66 0 0 1-.15.956c-.812.57-2.106.822-3.237.713-.582-.057-1.076-.206-1.417-.469-.515-.396-.618-1.011-.24-1.575.28-.408.989-.677 2.456-1.074l.205-.055c.321-.086.67-.174 1.048-.267l.744-.179c.478-.112.966-.223 1.769-.404a37.56 37.56 0 0 1 4.697-.739c.491-.047.949-.083 1.366-.11l.154-.008c.161-.01.304-.017.427-.022l.157-.006c.399-.01.733.286.745.663Z" clip-rule="evenodd"/><path fill="#fff" fill-rule="evenodd" d="M239.451 84.83c-2.844.958-4.363 1.186-3.833.069.314-.638 4.99-3.122 5.906-3.418.94-.32 6.099-1.026 6.099-1.026" clip-rule="evenodd"/><path fill="#2F4077" fill-rule="evenodd" d="M248.339 80.357c.055.36-.198.696-.57.768l-1.013.144-.623.09c-.414.061-.824.123-1.22.184l-.294.046c-.225.035-.441.07-.647.104l-.348.058c-.923.155-1.579.286-1.84.368l-.025.009c-.396.128-1.768.81-3.046 1.523l-.254.143c-.543.307-1.028.598-1.414.847l-.087.057c-.106.07-.202.136-.288.197l-.018.012.019-.003c.557-.1 1.36-.325 2.415-.676l.123-.041c.376-.127.79.059.924.415.134.355-.063.746-.439.873l-.394.13c-1.361.445-2.324.683-2.988.72-1.189.066-1.855-.65-1.349-1.714.223-.455 1.15-1.084 2.703-1.963l.312-.175c1.334-.744 2.728-1.439 3.267-1.624l.035-.012c.325-.11.986-.245 1.964-.411l.325-.055.477-.078.336-.053a157.78 157.78 0 0 1 1.528-.232l.756-.11.853-.12c.396-.053.763.206.82.58Z" clip-rule="evenodd"/><path fill="#fff" fill-rule="evenodd" d="M242.922 82.894s-1.928.706-3.398 1.48c-1.471.776-2.315 1.55-2.194 1.824s1.302.752 2.266.342c1.326-.843 4.411-1.823 4.411-1.823-.337-.046-2.434.98-3.616 1.435-1.157.456-2.024 1.618.868 1.231l4.387-.478" clip-rule="evenodd"/><path fill="#2F4077" fill-rule="evenodd" d="M243.597 82.647c.144.352-.041.748-.413.884l-.208.078-.211.082-.348.136c-.579.231-1.157.478-1.694.728-.306.142-.59.282-.847.417-.618.326-1.138.662-1.496.955l-.045.038.058.013c.302.06.604.05.85-.04l.011-.004.03-.018c.125-.076.262-.154.411-.232l.115-.06c.399-.203.874-.415 1.41-.632.374-.151.764-.3 1.16-.443l.064-.024.386-.163c.76-.317.964-.358 1.237-.327l.042.005c.74.1.847 1.056.171 1.31l-.25.082-.321.108-.235.08-.246.087-.208.074-.511.221-1.055.459c-.206.088-.374.159-.525.22l-.179.071h.011c.102-.01.211-.022.327-.036l.088-.012 4.387-.478c.397-.044.756.225.802.6.044.362-.219.69-.594.752l-.042.006-4.368.476c-.763.102-1.345.113-1.77.027-.454-.09-.807-.315-.945-.662l-.018-.051h-.009c-.858-.034-1.682-.373-1.937-.872l-.02-.04c-.359-.817.724-1.743 2.509-2.684.281-.148.586-.298.914-.45a34.82 34.82 0 0 1 1.769-.76l.362-.143.308-.117.137-.052c.373-.136.791.039.936.39Z" clip-rule="evenodd"/><path fill="#E4794A" fill-rule="evenodd" d="m296.871 142.442.313 18.596s-11.329 2.507-14.319 11.417l25.07-.022 4.002-34.503-15.066 4.512ZM270.282 143.376l-2.868 18.14s-10.655 2.416-13.475 10.803l23.551-.023 7.449-31.039-14.657 2.119Z" clip-rule="evenodd"/><path fill="#2F4077" fill-rule="evenodd" d="m351.132 104.567-1.205-14.517-46.668-.069-.892 4.969-7.208-.183c-18.272-.775-21.188 12.238-21.188 12.238l-15.018 55.469 22.322.091 11.377-39.175-5.158 38.788 22.707.319 4.435-39.904c5.352-1.162 22.732-5.014 27.191-7.27 4.508-1.572 9.522-6.951 9.305-10.756Z" clip-rule="evenodd"/><path fill="#E4794A" fill-rule="evenodd" d="M350.457 66.828c-5.231-7.657-11.715-12.489-16.223-15.178 2.821-4.352 2.314-8.75-9.521-9.662-19.188-.639-21.141 4.216-21.165 8.021-6.316 4.763-10.173 9.845-12.463 14.631-2.748-2.416-7.834-6.814-9.136-7.634-1.807-1.14-2.965.866-4.411.16-1.47-.707-1.952-.912-1.952-.912s-1.278 4.239-4.87 5.4c0 0 .073.639.868 1.96.796 1.322-.94 2.28.362 3.92 1.277 1.641 12.462 15.132 12.462 15.132 1.35 1.254 4.484 5.698 7.883 4.353v-.296c.096.114.144.16.144.16s11.667.045 24.13.113l-.651 3.783c30.566 2.78 28.42 15.93 36.881 10.734l-.916-17.502c2.893-3.236 4.098-9.093-1.422-17.183Z" clip-rule="evenodd"/><path fill="#fff" fill-rule="evenodd" d="m326.93 46.864 3.061 1.937s-11.401 6.586-12.896 23.541c-.988 11.258-1.205 24.34-1.205 24.34l-5.303.706s1.759-30.766-.314-36.486c-2.073-5.72-.169-12.17 1.23-13.195 1.374-1.025 15.427-.843 15.427-.843ZM270.933 52.425c-.192-.114-5.664-3.418-7.111-3.76-1.422-.342-1.615 1.276 2.797 3.578 0 0-2.266 2.005-.868 5.013.41.89 4.146 4.399 5.423 4.535 1.278.137 6.099-1.048 5.087-3.874-.989-2.826-2.724-3.851-5.328-5.492Z" clip-rule="evenodd"/><path fill="#2F4077" fill-rule="evenodd" d="M262.407 49.809c.415.776 1.443 1.662 3.038 2.58l.079.046-.045.062a6.27 6.27 0 0 0-.145.22c-.862 1.38-1.077 3.025-.245 4.814.591 1.282 4.582 4.787 6.004 4.94.91.097 2.595-.275 3.827-.904 1.738-.888 2.613-2.231 2.026-3.87-.704-2.012-1.75-3.252-3.655-4.576l-.431-.293a26.92 26.92 0 0 0-.344-.224l-1.188-.752-.612-.365-.453-.268c-.746-.438-1.497-.87-2.223-1.276l-.47-.26-.342-.187c-1.526-.83-2.621-1.35-3.23-1.495-1.287-.309-2.217.56-1.619 1.754l.028.054Zm1.422-.412-.014-.02.006.002c.549.186 1.628.719 3.022 1.486l.306.169.156.087c.595.333 1.21.685 1.825 1.044l.369.216.59.348.461.276 1.16.735c.252.161.4.26.622.413l.21.145c1.608 1.135 2.442 2.148 3.032 3.834.321.896-.154 1.626-1.341 2.232-.987.504-2.382.812-2.977.748-.837-.09-4.438-3.252-4.842-4.129-.63-1.355-.475-2.545.166-3.57.123-.198.255-.371.385-.517l.074-.08.052-.054.022-.02a.664.664 0 0 0-.145-1.098c-1.643-.857-2.704-1.66-3.139-2.247Z" clip-rule="evenodd"/><path fill="#fff" fill-rule="evenodd" d="M273.657 54.317s-4.748-1.778-5.231-1.504c-.675.364.073 2.188 2.194 3.076 0 0-1.47 1.8-.651 3.19" clip-rule="evenodd"/><path fill="#2F4077" fill-rule="evenodd" d="M268.054 52.226c.495-.28 1.267-.1 3.1.49l.103.034a70.552 70.552 0 0 1 1.622.552l.585.21.459.169c.372.139.554.536.407.887-.147.351-.568.523-.939.384l-.446-.163a76.347 76.347 0 0 0-1.698-.594 52.51 52.51 0 0 0-.459-.152l-.351-.111a20.262 20.262 0 0 0-1.25-.357l-.139-.033-.088-.019c.027.075.065.156.113.242l.03.052c.335.558.976 1.098 1.81 1.447.415.174.557.66.306 1.008l-.06.078-.076.105a4.458 4.458 0 0 0-.268.438c-.256.476-.395.943-.368 1.34.011.166.051.317.122.455l.032.059a.665.665 0 0 1-.28.93.746.746 0 0 1-.984-.264 2.451 2.451 0 0 1-.333-1.092c-.047-.682.159-1.373.522-2.048l.068-.124-.006-.004c-.73-.428-1.314-.978-1.692-1.572l-.05-.081c-.527-.878-.57-1.805.161-2.239l.047-.027ZM271.174 63.637c-.94-1.344-1.084-1.96-1.084-1.96 3.447-.729 5.158-5.537 5.158-5.537s.675.16 2.194.98c.627.319 1.181.068 1.615 0 .602 4.512-5.496 8.021-7.617 9.001-.242-.957.458-1.481-.266-2.484Z" clip-rule="evenodd"/><path fill="#fff" fill-rule="evenodd" d="M311.647 75.418s-3.182-.638-6.677-.683c-2.097-.023-5.641-.046-6.05.319-.989.911 2.024 1.914 3.64 1.276" clip-rule="evenodd"/><path fill="#2F4077" fill-rule="evenodd" d="m298.424 74.556.037-.031c.597-.474 2.228-.52 6.519-.474 1.513.02 3.072.147 4.6.347.454.06.881.122 1.275.186l.329.054c.135.024.259.045.369.066l.244.046c.391.078.641.441.558.81-.08.357-.44.589-.816.535l-.186-.035a40.943 40.943 0 0 0-1.971-.307 38.27 38.27 0 0 0-4.42-.335l-1.056-.009c-1.027-.006-1.823 0-2.57.023l-.243.009c-.474.018-.873.043-1.186.076l-.143.017.021.009c.051.022.106.044.165.066l.06.021c.724.248 1.633.29 2.206.093l.065-.024c.368-.145.792.02.946.368.154.348-.02.748-.389.894-.936.37-2.253.32-3.321-.045-.547-.188-.987-.446-1.251-.778-.396-.499-.347-1.116.158-1.582Z" clip-rule="evenodd"/><path fill="#fff" fill-rule="evenodd" d="M316.203 75.51a334.387 334.387 0 0 0-5.978-.32c-.289-.022-5.858 1.755-5.858 1.755l4.171 4.194s.241.387 6.822 1.55" clip-rule="evenodd"/><path fill="#2F4077" fill-rule="evenodd" d="m310.259 74.508 1.149.053c1.782.085 3.392.175 4.843.267.399.025.7.35.674.727-.027.377-.371.662-.77.637l-.696-.043c-1.18-.071-2.46-.141-3.846-.209l-1.356-.064-.044.01-.119.03-.158.041c-.135.037-.3.084-.492.139l-.274.08c-.354.105-.773.23-1.245.376l-.54.166-.629.195-.645.202-.443.14 3.33 3.349.067.026c.12.045.3.103.548.172l.192.052c1.095.292 2.935.676 5.687 1.162.393.07.652.427.578.798-.073.371-.451.616-.843.546l-.971-.173c-4.112-.745-5.749-1.176-6.227-1.575l-.012-.01-.006.005-4.17-4.193c-.351-.353-.212-.923.253-1.102l.28-.09.629-.2 1.3-.407 1.085-.336c1.835-.565 2.551-.77 2.852-.771h.019Z" clip-rule="evenodd"/><path fill="#fff" fill-rule="evenodd" d="M303.62 77.788c-3.013.274-4.531.16-3.736-.82.458-.547 5.641-1.892 6.605-1.983.988-.091 6.171.388 6.171.388" clip-rule="evenodd"/><path fill="#2F4077" fill-rule="evenodd" d="m306.419 74.305.072-.006c.44-.028 1.325.01 2.594.097l.665.048.622.048c.334.026.67.053 1.001.081l.766.066.591.053c.398.037.688.371.65.747-.038.362-.368.63-.748.617l-.059-.004-.678-.061-.65-.056c-.329-.027-.662-.055-.993-.08l-.616-.048-.709-.05c-1.182-.08-2.029-.116-2.341-.094l-.025.002c-.426.04-1.943.396-3.358.796l-.284.08c-.653.19-1.235.374-1.687.538l-.173.064c-.055.02-.107.04-.156.06l-.043.017.025.002c.54.03 1.338 0 2.409-.092l.257-.022c.398-.036.751.239.789.615.038.376-.253.71-.651.746l-.274.024c-1.526.13-2.554.146-3.225.027-1.168-.208-1.623-1.053-.873-1.977.344-.41 1.473-.824 3.354-1.359l.319-.09c1.44-.4 2.903-.74 3.429-.79Z" clip-rule="evenodd"/><path fill="#fff" fill-rule="evenodd" d="M307.477 76.718s-2.049.25-3.664.66c-1.615.41-2.652.98-2.579 1.254.072.273 1.085 1.026 2.121.843 1.519-.501 4.749-.775 4.749-.775-.314-.114-2.628.388-3.881.57-1.23.183-2.387 1.094.53 1.39l4.363.547" clip-rule="evenodd"/><path fill="#2F4077" fill-rule="evenodd" d="M308.194 76.63c.052.375-.228.718-.624.766l-.231.03-.234.032a35.003 35.003 0 0 0-2.263.388c-.301.063-.583.127-.841.193a9.767 9.767 0 0 0-1.611.545l-.099.046.049.024c.279.13.568.188.824.158l.016-.002.026-.009c.487-.152 1.12-.289 1.874-.413l.143-.024c.353-.056.719-.108 1.091-.156l.119-.015.488-.083c.849-.14 1.122-.149 1.38-.069l.063.022c.714.26.567 1.254-.196 1.319l-.229.02-.355.036a40.373 40.373 0 0 0-.803.09l-.107.014-.413.073-1.152.205c-.261.046-.447.076-.624.103l-.056.009h.003c.101.015.21.028.327.041l.089.01 4.363.547c.396.05.675.393.622.767-.05.361-.39.619-.769.592l-.043-.004-4.345-.545c-.768-.078-1.336-.202-1.725-.381-.42-.193-.706-.494-.747-.865l-.004-.034-.039-.011c-.78-.228-1.456-.714-1.617-1.21l-.012-.041c-.238-.901 1.089-1.57 3.094-2.08.281-.07.584-.14.905-.207a35.098 35.098 0 0 1 1.674-.302l.286-.045.401-.058.492-.066c.396-.049.759.216.81.59ZM315.769 83.6c-1.422-.502-1.88-.912-1.88-.912 1.856-2.735 0-7.27 0-7.27s.482-.114 1.977-.41c.602-.114.892-.41 1.133-.752 3.085 3.304 1.229 9.093.41 11.19-.724-.593-.555-1.46-1.64-1.847ZM335.709 69.839c.398-.035.75.24.788.616.036.363-.234.686-.61.74l-.082.01a2.75 2.75 0 0 0-.421.105c-.39.126-.781.325-1.148.614-.76.598-1.318 1.503-1.582 2.804-.075.37-.454.614-.846.542-.392-.07-.649-.429-.574-.8.326-1.608 1.057-2.794 2.076-3.597a5.136 5.136 0 0 1 1.608-.857c.338-.11.612-.161.791-.177ZM323.121 59.01c.347.157.5.541.357.874l-.022.047-.115.23-.124.256c-.095.2-.199.418-.308.654-.416.9-.832 1.863-1.22 2.85a37.503 37.503 0 0 0-1.024 2.931c-.353 1.18-.587 2.238-.681 3.142-.039.376-.393.65-.79.613-.398-.037-.688-.371-.649-.747.103-.994.353-2.129.728-3.38.29-.968.648-1.986 1.061-3.035.398-1.013.824-2 1.25-2.921l.163-.35.154-.323.255-.52c.173-.34.605-.485.965-.321ZM308.181 59.211c.389-.085.778.144.868.511l.048.202.059.26.064.293.084.402c.098.48.195.993.286 1.532.262 1.541.445 3.065.512 4.495.054 1.133.033 2.171-.074 3.095-.043.376-.4.647-.797.606-.397-.041-.684-.379-.641-.754.098-.848.118-1.819.068-2.886a36.54 36.54 0 0 0-.496-4.339c-.102-.6-.21-1.166-.319-1.687l-.083-.386-.092-.41a7.955 7.955 0 0 1-.027-.113c-.091-.368.151-.735.54-.82Z" clip-rule="evenodd"/><path fill="#2F4077" fill-rule="evenodd" d="m318.839 72.87.058-.004c.869-.054 3.689.156 8.037.565l.944.09 1.357.13c1.477.145 2.993.298 4.49.453l2.254.235.989.105c.396.043.681.381.636.757-.045.375-.403.644-.8.602l-2.343-.248a895.57 895.57 0 0 0-4.486-.456l-1.91-.186-1.936-.183c-3.916-.362-6.537-.551-7.161-.498-.572.048-.775.17-1.085.573l-.097.13c-.463.62-.828.918-1.554 1.062l-.611.124-.442.091.039.13.078.274.037.142c.296 1.135.451 2.284.388 3.374-.044.763-.195 1.467-.47 2.094l-.058.127.069.035c.239.12.53.247.88.377l.106.04c.672.246.977.58 1.31 1.231l.093.185.048.092c.201.369.383.517.862.638l.06.015c.549.13 2.769.35 6.146.62l.961.075 1.742.132 1.403.104c1.107.08 2.245.161 3.393.24l2.351.16 1.981.131c.398.026.699.352.672.729-.027.377-.372.661-.771.636l-2.414-.16-1.925-.132c-1.642-.114-3.265-.23-4.804-.345l-1.179-.089a561.89 561.89 0 0 1-.845-.065l-1.437-.115c-3.074-.251-5.01-.45-5.625-.595-.998-.236-1.492-.662-1.888-1.411l-.097-.19c-.195-.392-.285-.504-.522-.598l-.035-.013a9.12 9.12 0 0 1-1.487-.67 2.88 2.88 0 0 1-.502-.351.657.657 0 0 1-.101-.847c.382-.574.59-1.302.639-2.155.054-.936-.084-1.957-.348-2.972a12.185 12.185 0 0 0-.248-.831l-.042-.121-.038-.105-.027-.07c-.151-.38.078-.8.493-.903l.188-.045.233-.051c.363-.08.84-.18 1.446-.3.259-.051.375-.13.597-.415l.137-.183c.555-.74 1.102-1.1 2.171-1.191ZM291.114 64.264a.744.744 0 0 1 .971-.303l.151.074.228.119a21.676 21.676 0 0 1 3.856 2.623c.971.832 1.817 1.724 2.499 2.675a.661.661 0 0 1-.192.95.75.75 0 0 1-1.005-.183c-.613-.854-1.382-1.666-2.273-2.428a20.254 20.254 0 0 0-3.49-2.39l-.156-.083-.231-.118-.037-.018a.668.668 0 0 1-.321-.918ZM334.307 51.536c-2.773 4.376-8.968 8.706-10.438 9.344v.023c4.146.182 13.836-4.877 15.476-5.766-2.001-1.436-3.664-2.758-5.038-3.6ZM303.62 52.06c-.024-.638-.096-1.39-.096-2.165h-.024a66.307 66.307 0 0 0-3.351 2.69c1.254 2.301 3.785 5.788 6.557 7.406-.796-1.663-2.917-3.828-3.086-7.93Z" clip-rule="evenodd"/><path fill="#fff" fill-rule="evenodd" d="M326.087 34.764s3.615.068 2.965 3.122c-.651 3.054-4.653 1.299-4.653 1.299l.53-4.353 1.158-.068Z" clip-rule="evenodd"/><path fill="#2F4077" fill-rule="evenodd" d="m326.101 34.08-.06.001-1.157.069a.707.707 0 0 0-.673.604l-.53 4.353a.677.677 0 0 0 .414.698l.086.037c.173.07.42.16.723.247.63.183 1.265.29 1.878.28 1.519-.023 2.643-.776 2.978-2.348.377-1.768-.407-2.965-1.865-3.56a5.294 5.294 0 0 0-1.221-.327 4.687 4.687 0 0 0-.573-.054Zm-.522 1.398.517-.03.065.004c.086.007.183.017.289.033.301.045.6.12.872.231.867.353 1.253.944 1.021 2.035-.191.894-.704 1.238-1.585 1.251-.44.007-.933-.076-1.429-.22l-.1-.03-.047-.015.397-3.259Z" clip-rule="evenodd"/><path fill="#fff" fill-rule="evenodd" d="M315.793 25.124c-.964-.069-7.472-.456-8.195 4.694-.724 5.15.048 10.825.65 13.423.603 2.598 13.114 1.39 13.813 1.162.699-.227 1.543-1.025 1.543-1.025l1.711-7.908s.699-9.549-9.522-10.346Z" clip-rule="evenodd"/><path fill="#2F4077" fill-rule="evenodd" d="M314.173 24.421c-.96.044-1.899.181-2.782.44-2.485.728-4.15 2.3-4.51 4.867-.622 4.425-.215 9.882.661 13.66.376 1.618 2.996 2.163 7.306 2.177h.482c2.785-.02 6.35-.315 6.967-.515.137-.045.277-.105.419-.177.216-.11.436-.248.66-.408.314-.225.574-.448.739-.604a.671.671 0 0 0 .197-.346l1.712-7.908c.006-.03.01-.06.013-.09l.005-.09.001-.032c.02-.526-.007-1.209-.12-1.992a11.519 11.519 0 0 0-1.031-3.42c-1.537-3.146-4.469-5.184-9.039-5.54a13.944 13.944 0 0 0-1.68-.022Zm1.566 1.385c4.032.314 6.516 2.04 7.84 4.751.467.957.76 1.986.911 3.03.095.66.122 1.234.11 1.677l-.004.118-1.655 7.647-.013.012c-.135.115-.279.23-.427.335a3.69 3.69 0 0 1-.469.293 1.592 1.592 0 0 1-.17.075l-.037.013c-.111.036-1.086.155-2.195.245-1.466.12-3.05.194-4.513.196h-.368c-3.396-.026-5.652-.488-5.794-1.103-.843-3.633-1.238-8.934-.641-13.187.279-1.987 1.52-3.16 3.505-3.74a10.342 10.342 0 0 1 2.423-.38 12.436 12.436 0 0 1 1.497.018Z" clip-rule="evenodd"/><path fill="#fff" fill-rule="evenodd" d="m324.737 38.934.217 6.403 1.928 2.074s-5.665 3.305-11.112 9.161c0 0-4.436-4.42-5.207-11.371l10.413 1.207.82-3.85 2.941-3.624Z" clip-rule="evenodd"/><path fill="#2F4077" fill-rule="evenodd" d="m321.222 42.141-.032.043a.662.662 0 0 0-.103.239l-.688 3.23-9.748-1.13c-.462-.054-.856.312-.808.75.32 2.882 1.261 5.549 2.629 7.956a21.507 21.507 0 0 0 1.889 2.8l.121.15c.334.41.598.7.763.864a.75.75 0 0 0 1.067-.019 55.864 55.864 0 0 1 7.73-6.858 48.649 48.649 0 0 1 2.346-1.627l.265-.17.24-.151.256-.157.113-.068.038-.024a.66.66 0 0 0 .125-1.009l-1.757-1.89-.209-6.158c-.021-.642-.883-.904-1.296-.394l-2.941 3.623Zm2.857-1.273.152 4.492.004.052c.016.14.077.271.176.377l1.377 1.482-.218.14-.296.195c-.652.43-1.363.924-2.12 1.48l-.267.198a57.207 57.207 0 0 0-7.049 6.191l-.055.057-.039-.047a20.209 20.209 0 0 1-1.998-2.903l-.1-.178c-1.063-1.914-1.838-3.996-2.216-6.221l-.033-.197 9.491 1.101.043.004c.359.021.683-.21.754-.547l.787-3.696 1.607-1.98Z" clip-rule="evenodd"/><path fill="#869ECE" fill-rule="evenodd" d="M324.086 35.401c-.627.57-2.29 3.829-2.676 5.356 0 0-4.098-1.276-10.004-1.367 0 0-3.206.068-4.483.41 0 0 .289 5.4 2.868 8.204 2.579 2.803 8.1 2.005 10.679.342 2.579-1.687 3.013-2.484 3.616-4.285.602-1.8 2.169-8.5 2.169-8.5l-2.169-.16Z" clip-rule="evenodd"/><path fill="#2F4077" fill-rule="evenodd" d="M325.773 36.564s1.688-2.484 2.363-5.06c.626-2.438-.579-4.968-2.965-6.062-2.001-.911-3.472-.205-3.472-.205s2.122-3.395-1.06-6.403c-1.109-1.049-2.652-1.641-4.243-1.596-3.881.114-5.062 3.19-5.062 3.19s-4.146-7.2-12.631-2.939c-.868.433-1.832 1.618-2.29 2.438-2.796 4.877 6.436 10.666 11.257 11.145 5.279.5 8.389-.32 10.076-1.55-1.253.706.169 8.181 8.027 7.042ZM310.881 37.262c.044-.375.402-.645.799-.603.382.04.662.356.641.715l-.003.04-.437 3.703.715-.178c.372-.093.754.106.872.448l.012.038c.098.352-.113.713-.474.824l-.041.012-1.736.433c-.477.119-.933-.239-.906-.698l.003-.04.555-4.694ZM309.526 37.75c.28 0 .506-.337.506-.753 0-.415-.226-.752-.506-.752-.279 0-.506.337-.506.752 0 .416.227.752.506.752ZM314.227 37.635c.279 0 .506-.337.506-.752s-.227-.752-.506-.752c-.28 0-.507.337-.507.752s.227.752.507.752Z" clip-rule="evenodd"/><path fill="#2F4077" fill-rule="evenodd" d="M314.579 32.378c.893-.125 1.666.09 2.289.521.175.12.325.25.452.382.082.084.141.154.178.206a.66.66 0 0 1-.185.95.752.752 0 0 1-.98-.14l-.026-.034a1.65 1.65 0 0 0-1.44-.541l-.077.009c-.395.055-.762-.203-.821-.577-.058-.373.215-.721.61-.776ZM308.923 32.316a2.88 2.88 0 0 1 1.055-.03l.083.012c.051.01.093.018.125.026.387.093.621.465.523.83-.095.353-.464.572-.838.503l-.056-.011a1.413 1.413 0 0 0-.552 0c-.165.037-.254.102-.308.248l-.012.036c-.112.362-.514.57-.897.465-.383-.106-.604-.486-.492-.848.208-.673.715-1.081 1.369-1.23ZM314.79 43.042c.063-.373.433-.627.828-.568.394.06.663.41.601.783a2.511 2.511 0 0 1-.335.85c-.436.692-1.178 1.074-2.154.9-.392-.071-.65-.429-.575-.8.071-.358.426-.597.803-.55l.042.006c.331.06.496-.026.641-.256.051-.081.092-.174.122-.267l.014-.047a.6.6 0 0 0 .009-.033l.004-.018ZM355.278 86.814H30.288c-.399 0-.723.306-.723.683v85.164c0 .377.324.683.723.683h324.99c.399 0 .723-.306.723-.683V87.497c0-.377-.324-.683-.723-.683Zm-.723 1.367v83.796H31.012V88.181h323.543Z" clip-rule="evenodd"/><path fill="#2F4077" d="M29.662 87.315h326.002v10.962H29.662z"/><path fill="#2F4077" fill-rule="evenodd" d="M384.928 172.114c.399 0 .723.306.723.684 0 .364-.301.662-.681.682l-.042.002H1.145c-.4 0-.723-.306-.723-.684 0-.364.3-.662.68-.683l.043-.001h383.783Z" clip-rule="evenodd"/></svg>