<svg width="311" height="144" viewBox="0 0 311 144" fill="none" xmlns="http://www.w3.org/2000/svg">
<path fill-rule="evenodd" clip-rule="evenodd" d="M155.609 142.631H44.4722V84.19C44.4722 67.474 58.0138 53.9141 74.7071 53.9141H155.609V142.631Z" fill="#E4794A"/>
<path fill-rule="evenodd" clip-rule="evenodd" d="M82.7277 53.7402C83.0878 53.7402 83.3798 54.0326 83.3798 54.3932C83.3798 54.7538 83.0878 55.0462 82.7277 55.0462C68.4775 55.0462 56.8998 66.4454 56.6697 80.5833L56.6662 81.0125V142.631C56.6662 142.992 56.3742 143.284 56.0141 143.284C55.6668 143.284 55.3829 143.012 55.3631 142.669L55.362 142.631V81.0125C55.362 65.9543 67.6146 53.7402 82.7277 53.7402Z" fill="white"/>
<path fill-rule="evenodd" clip-rule="evenodd" d="M125.896 60.3359L98.2255 72.0676C91.0091 75.1148 85.2056 80.7521 81.9017 87.8477C81.9017 87.8477 55.6228 122.76 64.665 142.066C71.0772 142.066 214.492 142.066 214.492 142.066L192.93 83.6034C191.604 80.0338 188.93 77.1172 185.474 75.4848L158.826 63.5572L125.896 60.3359Z" fill="#465F9D"/>
<path fill-rule="evenodd" clip-rule="evenodd" d="M104.904 68.9968C105.228 68.872 105.59 69.0238 105.731 69.3366L105.746 69.372L111.283 83.795L122.209 85.4151C122.826 85.5066 122.969 86.3224 122.441 86.6256L122.407 86.6442L114.165 90.8007L114.71 91.6495C115.214 92.437 115.765 93.3035 116.352 94.2342C118.287 97.3029 120.222 100.443 122.029 103.475C122.365 104.037 122.693 104.592 123.013 105.137L123.252 105.545C125.182 108.842 126.784 111.733 127.978 114.106C128.14 114.428 128.01 114.821 127.689 114.983C127.367 115.145 126.975 115.016 126.813 114.694L126.65 114.371C125.544 112.196 124.102 109.593 122.386 106.649L122.127 106.205C121.733 105.532 121.327 104.844 120.909 104.144C119.237 101.339 117.454 98.4383 115.662 95.5883L115.249 94.9316C114.663 94.0033 114.114 93.1393 113.612 92.3541L113.134 91.6093L112.677 90.9008C112.472 90.586 112.575 90.1667 112.895 89.9806L112.93 89.9616L119.982 86.405L110.715 85.031C110.497 84.9987 110.311 84.8584 110.219 84.6599L110.202 84.6194L104.529 69.8406C104.4 69.5039 104.567 69.1262 104.904 68.9968Z" fill="#2F4077"/>
<path fill-rule="evenodd" clip-rule="evenodd" d="M179.94 73.7638C180 73.4081 180.336 73.1682 180.691 73.2279C181.034 73.2854 181.269 73.6005 181.232 73.9418L181.226 73.9799L179.053 86.9522C179.016 87.17 178.873 87.3535 178.673 87.4417L178.632 87.458L169.825 90.6533L177.452 92.744C177.808 92.8416 178.009 93.2134 177.904 93.5621L177.868 93.6623L177.429 94.8653L176.771 96.6858C176.59 97.1857 176.403 97.7065 176.21 98.2459C174.949 101.768 173.688 105.364 172.511 108.823L172.226 109.663C172.132 109.941 172.038 110.217 171.946 110.491L171.48 111.881C168.898 119.635 167.322 125.084 167.17 127.115C167.144 127.475 166.831 127.745 166.472 127.718C166.113 127.691 165.843 127.378 165.87 127.018C166.038 124.764 167.713 119.02 170.488 110.736L170.85 109.66C170.943 109.383 171.037 109.105 171.133 108.824L171.276 108.401C172.365 105.202 173.525 101.887 174.691 98.6206L175.388 96.6767C175.625 96.0177 175.851 95.3921 176.064 94.8046L176.423 93.8161L167.5 91.37C166.9 91.2054 166.854 90.3803 167.412 90.1413L167.45 90.1263L177.83 86.3598L179.94 73.7638Z" fill="#2F4077"/>
<path fill-rule="evenodd" clip-rule="evenodd" d="M86.7091 112.472C89.8937 111.952 97.8608 112.079 109.243 112.683L109.589 112.702C112.484 112.857 115.526 113.039 118.664 113.243L120.498 113.364C122.935 113.527 125.335 113.697 127.651 113.867L129.814 114.029C130.396 114.073 130.95 114.115 131.472 114.156L133.773 114.337C134.237 114.375 134.509 114.87 134.305 115.279L134.286 115.313L132.482 118.469C132.303 118.782 131.905 118.89 131.592 118.711C131.291 118.538 131.18 118.162 131.332 117.855L131.35 117.82L132.644 115.557L131.174 115.443C130.579 115.397 129.944 115.348 129.274 115.298L127.556 115.17C124.857 114.971 122.044 114.774 119.191 114.586L118.579 114.546C115.837 114.368 113.169 114.206 110.609 114.065L108.836 113.969C97.7529 113.387 89.9391 113.268 86.919 113.761C86.5635 113.819 86.2284 113.577 86.1705 113.221C86.1125 112.866 86.3537 112.53 86.7091 112.472Z" fill="#2F4077"/>
<path fill-rule="evenodd" clip-rule="evenodd" d="M107.837 101.028C107.937 100.681 108.299 100.482 108.645 100.583C108.978 100.68 109.175 101.02 109.099 101.355L109.089 101.392L105.764 112.862C105.663 113.209 105.302 113.408 104.956 113.307C104.622 113.21 104.425 112.87 104.502 112.535L104.511 112.498L107.837 101.028Z" fill="#2F4077"/>
<path fill-rule="evenodd" clip-rule="evenodd" d="M114.885 113.101C115.193 112.914 115.594 113.012 115.781 113.32C115.967 113.629 115.869 114.03 115.561 114.217C110.84 117.084 107.424 121.104 105.128 125.992C103.59 129.267 102.628 132.775 102.133 136.332C101.82 138.576 101.73 140.533 101.768 142.045L101.778 142.361L101.789 142.585C101.813 142.945 101.541 143.256 101.182 143.28C100.823 143.305 100.512 143.033 100.488 142.673L100.478 142.488C100.476 142.446 100.474 142.399 100.472 142.347L100.464 142.081C100.424 140.5 100.518 138.472 100.841 136.151C101.353 132.473 102.35 128.839 103.948 125.436C106.348 120.326 109.933 116.108 114.885 113.101Z" fill="#2F4077"/>
<path fill-rule="evenodd" clip-rule="evenodd" d="M124.026 60.9219L117.984 63.6861C117.984 63.6861 141.741 96.9004 138.415 130.202C142.48 138.168 160.499 130.202 160.499 130.202L164.912 66.2544L157.674 62.9678L124.026 60.9219Z" fill="white"/>
<path fill-rule="evenodd" clip-rule="evenodd" d="M161.456 115.99C157 116.708 152.805 116.773 149.283 116.577C144.893 116.338 141.067 115.641 138.22 114.988C138.329 115.968 138.437 116.969 138.502 117.948C141.328 118.558 144.936 119.146 149.023 119.385C150.262 119.45 151.501 119.494 152.718 119.494C155.652 119.494 158.5 119.276 161.26 118.863L161.456 115.99Z" fill="#869ECE"/>
<path fill-rule="evenodd" clip-rule="evenodd" d="M152.5 113.683C155.609 113.683 158.673 113.487 161.651 113.117L161.847 110.222C155.37 111.114 149.327 110.962 144.415 110.44C141.871 110.178 139.502 109.808 137.35 109.373C137.524 110.352 137.698 111.354 137.85 112.355C139.763 112.703 141.828 113.008 144.023 113.247C146.892 113.53 149.718 113.683 152.5 113.683Z" fill="#869ECE"/>
<path fill-rule="evenodd" clip-rule="evenodd" d="M141.958 101.994C139.633 101.776 137.459 101.471 135.438 101.123C135.72 102.102 135.981 103.104 136.22 104.127C137.916 104.388 139.698 104.627 141.589 104.801C144.328 105.063 147.045 105.193 149.696 105.193C153.826 105.193 157.847 104.867 161.738 104.236C161.912 104.214 162.064 104.17 162.238 104.148L162.434 101.21C154.826 102.603 147.653 102.538 141.958 101.994Z" fill="#869ECE"/>
<path fill-rule="evenodd" clip-rule="evenodd" d="M150.131 97.8593C154.087 97.8593 158.369 97.4893 162.782 96.5534L162.977 93.615C154.565 95.5522 146.588 95.2257 140.502 94.3115C137.676 93.898 135.068 93.3321 132.764 92.7227C133.134 93.7674 133.525 94.8339 133.873 95.9222C135.764 96.3575 137.807 96.7711 139.98 97.0975C143.002 97.5329 146.414 97.8593 150.131 97.8593Z" fill="#869ECE"/>
<path fill-rule="evenodd" clip-rule="evenodd" d="M163.542 85.4091C154.37 87.6727 145.306 87.3027 138.394 86.3233C135.133 85.8662 132.155 85.235 129.504 84.582C129.96 85.6268 130.417 86.7151 130.873 87.8033C133.068 88.3039 135.459 88.7393 137.981 89.1093C141.785 89.6534 145.501 89.9146 149.11 89.9146C151.892 89.9146 154.609 89.7622 157.239 89.4358C159.326 89.1746 161.347 88.8263 163.347 88.3692L163.542 85.4091Z" fill="#869ECE"/>
<path fill-rule="evenodd" clip-rule="evenodd" d="M164.02 78.118C154.239 80.4251 144.545 79.9027 137.22 78.7492C132.699 78.0309 128.656 77.0514 125.396 76.0938C125.961 77.182 126.548 78.3138 127.134 79.511C129.786 80.2075 132.873 80.904 136.22 81.4481C140.806 82.1881 145.284 82.5799 149.609 82.5799C151.957 82.5799 154.261 82.4711 156.5 82.2534C159.021 82.014 161.456 81.6222 163.825 81.0998L164.02 78.118Z" fill="#869ECE"/>
<path fill-rule="evenodd" clip-rule="evenodd" d="M164.39 72.9372L164.586 69.9553C146.914 75.1355 128.96 70.5865 120.679 67.8223C121.331 68.867 122.048 70.0859 122.852 71.4571C126.026 72.393 130.286 73.4596 135.155 74.1778C138.698 74.722 142.806 75.1137 147.219 75.1137C152.609 75.1137 158.478 74.5478 164.39 72.9372Z" fill="#869ECE"/>
<path fill-rule="evenodd" clip-rule="evenodd" d="M131.829 44.4238L129.895 56.6343L123.831 61.5534C123.831 61.5534 132.264 74.1992 143.719 77.0722C147.61 78.0517 153.718 76.9852 155.717 73.5244C157.63 70.1943 158.26 65.4712 158.63 59.8556C158.804 57.0261 131.829 44.4238 131.829 44.4238Z" fill="white"/>
<path fill-rule="evenodd" clip-rule="evenodd" d="M131.185 44.3226L129.29 56.2854L123.42 61.0471C123.158 61.2594 123.101 61.6365 123.288 61.9171L123.396 62.0751L123.514 62.2436C123.597 62.3611 123.689 62.4903 123.792 62.6306C124.198 63.1894 124.674 63.8112 125.215 64.4802C126.76 66.3902 128.521 68.2998 130.47 70.0838C134.596 73.861 138.992 76.5608 143.561 77.7067C148.188 78.8716 154.279 77.3194 156.282 73.8526C158.05 70.7744 158.832 66.712 159.281 59.8997C159.376 58.3561 155.582 55.8424 148.139 51.8451L147.506 51.5067C146.867 51.1662 146.208 50.8193 145.531 50.4667C142.766 49.0264 139.817 47.5497 136.857 46.1086L136.301 45.8388C135.274 45.3403 134.315 44.8799 133.445 44.4665L132.105 43.8332C131.712 43.6497 131.253 43.8939 131.185 44.3226ZM130.539 56.7377L132.337 45.3857L133.073 45.7352C133.889 46.124 134.782 46.5526 135.733 47.0141L136.839 47.5527C139.419 48.8131 141.982 50.097 144.411 51.3559L144.929 51.6253C145.715 52.0344 146.476 52.4358 147.209 52.8283L147.905 53.202C150.817 54.774 153.206 56.1598 154.951 57.3078L155.064 57.3823C156.066 58.0465 156.834 58.6206 157.345 59.0904C157.595 59.3202 157.777 59.5194 157.887 59.6794C157.924 59.7335 157.951 59.7793 157.967 59.8151L157.977 59.8395L157.978 59.8395L157.939 60.4051C157.498 66.67 156.741 70.4342 155.152 73.2C153.489 76.0784 147.999 77.4775 143.878 76.4401C139.548 75.354 135.329 72.7632 131.349 69.1199C129.452 67.3831 127.735 65.5205 126.228 63.6583C125.742 63.0572 125.311 62.4961 124.938 61.9875L124.713 61.6787L130.305 57.1428C130.431 57.0413 130.514 56.897 130.539 56.7377Z" fill="#2F4077"/>
<path fill-rule="evenodd" clip-rule="evenodd" d="M165.803 18.9148C163.912 8.42381 150.935 9.79505 149.044 10.0345C131.59 12.211 130.764 26.9028 130.895 31.0165L130.134 31.1036C130.134 31.1036 130.221 31.8001 130.373 32.9536C128.113 33.4978 124.048 35.2826 125.374 40.9199C126.374 45.1859 129.569 45.5777 132.221 45.0771C132.568 46.9707 132.938 48.5813 133.264 49.539C134.612 53.3698 135.525 55.0675 140.741 58.4847C145.98 61.9019 156.848 63.1208 161.717 56.8523C166.216 51.0409 166.564 40.5934 166.607 39.0698C167.02 33.2584 167.042 25.8145 165.803 18.9148Z" fill="white"/>
<path fill-rule="evenodd" clip-rule="evenodd" d="M152.195 9.19338C151.011 9.19205 149.989 9.26316 149.103 9.36997L148.964 9.38713C140.962 10.385 135.717 14.0083 132.8 19.4927L132.706 19.6711C130.913 23.1244 130.218 26.8791 130.231 30.3287L130.231 30.4358L130.06 30.4555C129.712 30.4952 129.46 30.8016 129.483 31.1467L129.491 31.2143L129.632 32.3197L129.652 32.4717L129.586 32.4914C128.212 32.9083 126.981 33.5824 126.051 34.5826C124.602 36.1422 124.088 38.3036 124.739 41.0702L124.768 41.1913C125.68 44.8827 128.207 46.2359 131.569 45.8386L131.697 45.8225L131.774 46.2146C132.074 47.724 132.375 48.9526 132.647 49.7504L132.741 50.0146C134.268 54.2757 135.586 55.8887 140.384 59.0318C143.204 60.8711 147.387 62.006 151.376 61.9542C155.94 61.8949 159.836 60.3373 162.231 57.2538C164.296 54.5867 165.66 50.8583 166.474 46.473C166.77 44.8785 166.975 43.2833 167.107 41.7298L167.121 41.5587C167.191 40.7135 167.228 40.0191 167.251 39.3539L167.258 39.1044L167.258 39.1168C167.757 32.0846 167.556 24.9896 166.445 18.7999C165.558 13.883 162.332 11.0176 157.583 9.81822C155.869 9.38547 154.047 9.19546 152.195 9.19338ZM152.194 10.4993C153.946 10.5012 155.664 10.6804 157.264 11.0844C161.556 12.1682 164.376 14.673 165.161 19.0314C166.251 25.1012 166.449 32.0918 165.957 39.024L165.955 39.0517L165.947 39.309C165.924 39.9983 165.884 40.72 165.808 41.6191C165.679 43.132 165.479 44.6851 165.192 46.2344C164.413 50.4334 163.114 53.9816 161.201 56.4528C159.078 59.1865 155.558 60.5937 151.359 60.6483C147.621 60.6968 143.692 59.6309 141.097 57.9381L140.822 57.7571C136.397 54.8314 135.321 53.4211 133.879 49.3226L133.835 49.191C133.542 48.2836 133.197 46.7862 132.862 44.9595C132.797 44.6038 132.455 44.369 132.1 44.436C128.934 45.0336 126.779 44.0572 126.009 40.7712C125.455 38.4167 125.862 36.7032 127.006 35.4723C127.874 34.5379 129.123 33.9266 130.526 33.5891C130.85 33.511 131.063 33.2001 131.02 32.8687L130.864 31.6777L130.969 31.6658C131.306 31.6272 131.557 31.3361 131.547 30.9964C131.436 27.5066 132.085 23.6148 133.951 20.1066C136.642 15.0478 141.448 11.6958 148.9 10.7119L149.126 10.6828C149.995 10.5729 151.008 10.4979 152.194 10.4993Z" fill="#2F4077"/>
<path fill-rule="evenodd" clip-rule="evenodd" d="M173.563 35.6738C173.411 32.1913 171.215 29.4053 168.281 27.9688C168.02 28.3605 167.716 28.7088 167.433 28.97C167.498 33.7802 167.129 42.5082 166.716 45.0547C166.933 44.9895 167.151 44.9242 167.346 44.8589C167.172 46.4042 166.694 48.189 165.542 49.4732C164.542 50.5832 163.173 51.1926 161.369 51.3668C160.978 51.0185 160.456 50.8009 159.891 50.8009C158.652 50.8009 157.674 51.8021 157.674 53.021C157.674 54.2398 158.674 55.241 159.891 55.241C160.499 55.241 161.043 55.0016 161.434 54.6098C164.173 54.414 166.346 53.4127 167.933 51.6497C170.389 48.9073 170.715 45.0112 170.672 42.7911C172.563 41.0063 173.693 38.4598 173.563 35.6738Z" fill="#465F9D"/>
<path fill-rule="evenodd" clip-rule="evenodd" d="M157.789 33.6801C158.131 33.6254 158.454 33.8492 158.528 34.1846L158.535 34.2223L160.143 44.3433C160.213 44.7826 159.835 45.1575 159.403 45.0918L159.366 45.085L155.736 44.3232C155.383 44.2493 155.157 43.9032 155.231 43.5502C155.303 43.2099 155.627 42.9874 155.966 43.0383L156.003 43.0451L158.707 43.6123L157.247 34.4276C157.192 34.0841 157.416 33.7607 157.751 33.6872L157.789 33.6801Z" fill="#2F4077"/>
<path fill-rule="evenodd" clip-rule="evenodd" d="M162.408 36.3228C162.983 36.2976 163.418 35.5567 163.38 34.6681C163.341 33.7794 162.843 33.0795 162.267 33.1047C161.691 33.1299 161.256 33.8708 161.295 34.7594C161.334 35.6481 161.832 36.348 162.408 36.3228Z" fill="#2F4077"/>
<path fill-rule="evenodd" clip-rule="evenodd" d="M152.214 36.2798C152.79 36.2546 153.225 35.5138 153.186 34.6251C153.147 33.7365 152.649 33.0365 152.073 33.0617C151.498 33.087 151.063 33.8278 151.101 34.7165C151.14 35.6051 151.638 36.3051 152.214 36.2798Z" fill="#2F4077"/>
<path fill-rule="evenodd" clip-rule="evenodd" d="M146.007 27.5429C147.23 26.7829 148.689 26.4859 150.322 26.9252C150.67 27.0188 150.876 27.377 150.783 27.7253C150.689 28.0735 150.332 28.28 149.984 28.1864C148.727 27.8482 147.63 28.0713 146.695 28.6524C146.475 28.7891 146.284 28.9352 146.122 29.0798L146.066 29.1313C146.014 29.1792 145.978 29.2158 145.958 29.2377L145.949 29.2475C145.713 29.5192 145.301 29.5474 145.029 29.3103C144.758 29.0732 144.73 28.6608 144.967 28.389L145.01 28.3411C145.067 28.2797 145.148 28.1997 145.253 28.1063C145.469 27.9131 145.72 27.7214 146.007 27.5429Z" fill="#2F4077"/>
<path fill-rule="evenodd" clip-rule="evenodd" d="M159.245 25.8325C159.854 25.7186 160.493 25.6989 161.112 25.8377C162.134 26.0672 162.923 26.7042 163.309 27.7938C163.43 28.1336 163.252 28.507 162.913 28.6276C162.574 28.7483 162.201 28.5707 162.08 28.2308C161.852 27.5873 161.432 27.2479 160.826 27.112C160.405 27.0175 159.934 27.0321 159.484 27.1162L159.401 27.1327C159.349 27.1434 159.306 27.1535 159.272 27.1621L159.212 27.1785C158.867 27.2838 158.503 27.0896 158.398 26.7447C158.292 26.3998 158.486 26.0348 158.831 25.9295L158.897 25.9105C158.983 25.887 159.101 25.8594 159.245 25.8325Z" fill="#2F4077"/>
<path fill-rule="evenodd" clip-rule="evenodd" d="M155.87 48.4514C152.718 51.9121 150.957 48.8214 149.457 46.5578C149.066 45.9919 149.588 45.2301 150.262 45.4042C153.087 46.1442 156.935 47.276 155.87 48.4514Z" fill="#2F4077"/>
<path fill-rule="evenodd" clip-rule="evenodd" d="M169.281 15.4326C168.281 13.2561 167.042 12.6466 165.933 12.6466C165.89 12.2549 165.825 11.8631 165.738 11.4713C164.977 8.01057 162.782 5.07222 159.782 3.26567C159.782 3.26567 156.087 -0.673902 144.48 0.153191C132.851 0.980284 132.547 7.66232 132.547 7.66232C127.265 11.2319 123.439 15.7156 123.157 19.5246C122.353 30.255 126.874 32.8451 128.721 33.4546C128.917 33.3675 129.112 33.2804 129.308 33.2151C129.373 33.3893 129.438 33.5416 129.482 33.6287C136.807 33.1281 137.198 22.7894 139.524 17.8269C139.763 17.3045 140.415 17.0868 140.915 17.3915C144.176 19.2416 148.61 19.8293 153.848 19.111C159.521 18.3275 162.064 15.6721 163.195 13.5826C163.238 13.6261 163.26 13.6696 163.303 13.6914C163.347 13.7567 163.412 13.8002 163.455 13.8655C163.477 13.8873 163.499 13.909 163.521 13.9526C163.564 13.9961 163.608 14.0614 163.651 14.1049C163.673 14.1485 163.716 14.1702 163.738 14.2138C163.781 14.2573 163.803 14.3008 163.847 14.3661C163.89 14.4097 163.912 14.4532 163.955 14.4967C163.999 14.5403 164.021 14.5838 164.064 14.6273C164.108 14.6708 164.129 14.7361 164.173 14.7797C164.194 14.8232 164.238 14.8667 164.26 14.9103C164.303 14.9756 164.325 15.0191 164.368 15.0844C164.39 15.1279 164.412 15.1715 164.434 15.215C164.477 15.2803 164.52 15.3456 164.542 15.4109C164.564 15.4544 164.586 15.4762 164.607 15.5197C164.651 15.585 164.694 15.6721 164.716 15.7374C164.738 15.7809 164.76 15.8027 164.76 15.8462C164.803 15.9333 164.847 16.0203 164.89 16.1074C165.281 16.9345 165.564 17.8486 165.759 18.8934C166.368 22.3106 166.672 25.8584 166.781 29.2538C166.911 29.2756 167.064 29.232 167.194 29.1232C169.563 27.2949 171.672 20.5911 169.281 15.4326Z" fill="#2F4077"/>
<path fill-rule="evenodd" clip-rule="evenodd" d="M139.55 28.8619C139.169 28.8467 138.856 29.1613 138.873 29.5431C139.013 32.7249 139.526 35.1844 140.583 37.03C141.872 39.2803 143.936 40.5048 146.839 40.5494C152.059 40.5002 155.081 38.5676 156.264 35.3625C156.681 34.2323 156.834 33.0268 156.791 31.815C156.776 31.382 156.736 30.9742 156.679 30.6001L156.657 30.4593C156.631 30.3023 156.605 30.1712 156.582 30.069L156.568 30.0131C156.5 29.7297 156.252 29.5264 155.961 29.5148L139.55 28.8619ZM140.214 30.1951L155.39 30.7989L155.39 30.7958C155.439 31.1222 155.474 31.4803 155.488 31.861C155.525 32.9146 155.393 33.9548 155.04 34.9099C154.054 37.5832 151.527 39.1992 146.843 39.2436C142.509 39.1769 140.613 36.1651 140.217 30.2412L140.214 30.1951Z" fill="#E4794A"/>
<path fill-rule="evenodd" clip-rule="evenodd" d="M139.252 28.9423C139.58 28.7921 139.967 28.9361 140.117 29.264C140.261 29.5801 140.133 29.9518 139.83 30.1126L139.796 30.1296L135.383 32.1538C135.056 32.304 134.669 32.16 134.519 31.8321C134.374 31.516 134.503 31.1443 134.806 30.9835L134.84 30.9665L139.252 28.9423Z" fill="#E4794A"/>
<path fill-rule="evenodd" clip-rule="evenodd" d="M158.379 33.3673C158.739 33.3605 159.036 33.6473 159.043 34.0078C159.049 34.3555 158.783 34.6449 158.442 34.6712L158.403 34.673L156.099 34.7165C155.739 34.7233 155.442 34.4366 155.435 34.076C155.428 33.7283 155.694 33.439 156.036 33.4127L156.075 33.4108L158.379 33.3673Z" fill="#E4794A"/>
<path fill-rule="evenodd" clip-rule="evenodd" d="M172.584 29.1234L157.977 29.624C157.603 29.6369 157.317 29.9615 157.35 30.3348L157.363 30.4597C157.372 30.5362 157.385 30.6332 157.402 30.7488C157.448 31.0647 157.511 31.4152 157.594 31.7921C157.832 32.8694 158.183 33.9476 158.673 34.9598C160.143 38.0011 162.538 39.8275 165.997 39.7226C168.905 39.6434 170.681 38.9984 171.697 37.6689C172.481 36.6433 172.723 35.5865 172.926 33.1242L173.035 31.7766C173.106 30.9421 173.157 30.5052 173.251 29.8728C173.312 29.4691 172.991 29.1095 172.584 29.1234ZM158.747 30.9044L171.855 30.4551L171.83 30.6765C171.782 31.1061 171.74 31.5956 171.679 32.3512L171.627 33.004C171.445 35.2141 171.24 36.1184 170.662 36.8752C169.928 37.8341 168.515 38.3476 165.959 38.4172C163.075 38.5047 161.112 37.0076 159.846 34.3906C159.405 33.4785 159.085 32.4948 158.867 31.5103L158.84 31.3822C158.813 31.2553 158.789 31.1322 158.767 31.0131L158.747 30.9044Z" fill="#E4794A"/>
<path fill-rule="evenodd" clip-rule="evenodd" d="M138.415 38.5041C138.285 35.3481 136.568 32.6274 134.09 31.0385L133.003 6.29102L132.221 6.33455C130.134 6.42161 128.504 8.20639 128.591 10.2959L129.439 29.6237C129.199 29.6237 128.96 29.6237 128.721 29.6237C123.592 29.8414 119.636 34.1945 119.853 39.3094C120.07 44.4244 124.417 48.4075 129.525 48.1898C134.655 47.9721 138.633 43.619 138.415 38.5041Z" fill="#465F9D"/>
<path fill-rule="evenodd" clip-rule="evenodd" d="M127.221 33.4114C129.634 33.4114 131.634 35.588 131.742 38.374C131.851 41.2253 129.917 43.6412 127.417 43.7718C127.352 43.7718 127.287 43.7718 127.221 43.7718C124.809 43.7718 122.809 41.5953 122.7 38.8093C122.592 35.958 124.526 33.542 127.026 33.4114C127.091 33.4114 127.156 33.4114 127.221 33.4114ZM127.221 32.1055C127.134 32.1055 127.047 32.1055 126.961 32.1055C123.765 32.2578 121.266 35.305 121.396 38.8528C121.527 42.3353 124.091 45.056 127.221 45.056C127.308 45.056 127.395 45.056 127.482 45.056C130.677 44.9036 133.177 41.8565 133.047 38.3087C132.916 34.8262 130.351 32.1055 127.221 32.1055Z" fill="white"/>
<path fill-rule="evenodd" clip-rule="evenodd" d="M171.932 119.863C171.932 119.863 151.218 118.797 131.96 118.057C128.852 122.845 122.874 133.206 122.874 142.064H124.026L156.087 133.728C156.456 133.858 176.954 133.728 176.954 133.728L171.932 119.863Z" fill="white"/>
<path fill-rule="evenodd" clip-rule="evenodd" d="M131.985 117.405C131.755 117.396 131.538 117.509 131.413 117.701C129.288 120.975 127.277 124.571 125.654 128.272C123.462 133.275 122.222 137.941 122.222 142.065C122.222 142.425 122.514 142.718 122.874 142.718H124.026L124.068 142.716C124.109 142.714 124.15 142.707 124.19 142.697L156.168 134.382L156.385 134.394C157.541 134.447 160.648 134.449 166.52 134.431L170.012 134.418L176.958 134.381C177.408 134.379 177.72 133.93 177.567 133.506L172.545 119.641C172.461 119.408 172.253 119.244 172.009 119.215L171.826 119.205L167.126 118.969L164.101 118.821C159.019 118.574 153.742 118.327 148.456 118.092L145.484 117.961C142.595 117.835 139.777 117.716 137.047 117.605L134.69 117.51C133.776 117.474 132.874 117.439 131.985 117.405ZM132.306 118.724L134.092 118.794L135.741 118.859C138.858 118.984 142.095 119.121 145.427 119.266L148.399 119.397C153.352 119.617 158.298 119.848 163.083 120.079L170.619 120.451L171.467 120.494L176.025 133.081L171.623 133.105C169.855 133.113 168.136 133.12 166.516 133.125L162.744 133.133C161.775 133.134 160.895 133.134 160.114 133.132L158.257 133.125C157.972 133.123 157.714 133.121 157.483 133.118L156.723 133.106C156.596 133.104 156.488 133.101 156.401 133.097L156.235 133.09C156.245 133.091 156.252 133.094 156.304 133.113L156.258 133.098C156.148 133.069 156.033 133.068 155.923 133.096L123.943 141.412H123.537L123.54 141.335C123.677 137.594 124.853 133.35 126.849 128.797C128.388 125.285 130.29 121.86 132.306 118.724Z" fill="#2F4077"/>
<path fill-rule="evenodd" clip-rule="evenodd" d="M226.099 42.5742C218.621 42.5742 212.579 48.6468 212.579 56.1124C212.579 56.3083 212.579 56.5042 212.601 56.6783L212.579 56.6566V69.5853H224.925C225.316 69.6289 225.707 69.6289 226.099 69.6289C233.576 69.6289 239.619 63.5563 239.619 56.0907C239.619 48.6468 233.554 42.5742 226.099 42.5742Z" fill="#465F9D"/>
<path fill-rule="evenodd" clip-rule="evenodd" d="M219.447 57.2448C219.447 56.4177 220.013 55.8301 220.795 55.8301C221.578 55.8301 222.121 56.4177 222.121 57.2448C222.121 58.0502 221.599 58.6596 220.773 58.6596C219.991 58.6596 219.447 58.0502 219.447 57.2448Z" fill="white"/>
<path fill-rule="evenodd" clip-rule="evenodd" d="M224.077 57.2448C224.077 56.4177 224.642 55.8301 225.425 55.8301C226.207 55.8301 226.751 56.4177 226.751 57.2448C226.751 58.0502 226.229 58.6596 225.403 58.6596C224.599 58.6596 224.077 58.0502 224.077 57.2448Z" fill="white"/>
<path fill-rule="evenodd" clip-rule="evenodd" d="M228.685 57.2448C228.685 56.4177 229.25 55.8301 230.033 55.8301C230.815 55.8301 231.359 56.4177 231.359 57.2448C231.359 58.0502 230.837 58.6596 230.011 58.6596C229.229 58.6596 228.685 58.0502 228.685 57.2448Z" fill="white"/>
<path fill-rule="evenodd" clip-rule="evenodd" d="M246.661 56.59C234.793 56.59 225.142 46.9261 225.142 35.0421C225.142 23.1581 234.793 13.4941 246.661 13.4941C252.356 13.4941 257.725 15.7142 261.789 19.7191C265.767 23.6587 268.028 28.9042 268.18 34.4979C268.201 34.585 268.223 34.6503 268.223 34.7374V55.9371C268.223 56.3071 267.941 56.59 267.571 56.59H246.661Z" fill="#E4794A"/>
<path fill-rule="evenodd" clip-rule="evenodd" d="M246.661 14.1477C258.094 14.1477 267.397 23.3546 267.528 34.7815L267.571 34.738V55.9377H246.661C235.141 55.9377 225.794 46.5785 225.794 35.0427C225.794 23.4852 235.141 14.1477 246.661 14.1477ZM246.661 12.8418C234.445 12.8418 224.49 22.8104 224.49 35.0427C224.49 47.275 234.445 57.2436 246.661 57.2436H267.571C268.288 57.2436 268.875 56.6559 268.875 55.9377V34.738C268.875 34.6074 268.854 34.4986 268.832 34.368C268.658 28.6436 266.332 23.2893 262.268 19.2409C258.072 15.1054 252.53 12.8418 246.661 12.8418Z" fill="white"/>
<path fill-rule="evenodd" clip-rule="evenodd" d="M245.965 41.2893C245.27 41.2893 244.705 40.7234 244.705 40.0269C244.727 38.9386 244.748 38.2203 244.77 37.8721C244.813 37.415 244.944 36.9797 245.14 36.5226C245.357 36.0655 245.596 35.7173 245.857 35.4778C246.118 35.2167 246.748 34.8249 247.726 34.2807C248.791 33.6931 249.53 33.2142 249.921 32.8877C250.334 32.5613 250.682 32.0824 250.965 31.4947C251.269 30.9071 251.421 30.2541 251.421 29.5576C251.421 28.2299 250.943 27.1852 249.965 26.4234C249.009 25.6616 247.857 25.2915 246.552 25.2915C243.944 25.2915 242.249 26.6192 241.423 29.2746C241.205 29.9494 240.531 30.3629 239.858 30.2106C239.097 30.0364 238.64 29.2529 238.858 28.4911C239.988 24.7256 242.618 22.832 246.704 22.832C249.052 22.832 250.921 23.4632 252.378 24.7474C253.812 26.0316 254.529 27.664 254.529 29.6664C254.529 32.2783 253.03 34.3678 250.03 35.9132C248.726 36.6097 247.922 37.1538 247.617 37.5456C247.335 37.9374 247.183 38.5468 247.183 39.3739V40.0486C247.226 40.7234 246.661 41.2893 245.965 41.2893ZM247.835 45.5336C247.835 46.4912 247.052 47.253 246.118 47.253H246.031C245.074 47.253 244.314 46.4695 244.314 45.5336C244.314 44.5759 245.096 43.8141 246.031 43.8141H246.118C247.052 43.8141 247.835 44.5759 247.835 45.5336Z" fill="white"/>
<path fill-rule="evenodd" clip-rule="evenodd" d="M249.487 88.6523H174.78C173.802 88.6523 172.954 89.3271 172.715 90.2848L162.608 133.098H132.677C132.677 133.098 130.938 142.065 141.046 142.065H237.88C238.858 142.065 239.706 141.39 239.945 140.433L251.552 91.2642C251.856 89.9365 250.856 88.6523 249.487 88.6523Z" fill="#FAA184"/>
<path fill-rule="evenodd" clip-rule="evenodd" d="M180.562 88.4785C180.922 88.4785 181.214 88.7709 181.214 89.1315C181.214 89.4921 180.922 89.7845 180.562 89.7845C179.901 89.7845 179.312 90.229 179.143 90.8446L179.13 90.8963L166.676 142.22C166.591 142.57 166.238 142.785 165.888 142.7C165.551 142.618 165.339 142.287 165.4 141.949L165.408 141.911L177.862 90.5942C178.148 89.3613 179.281 88.4785 180.562 88.4785Z" fill="white"/>
<path fill-rule="evenodd" clip-rule="evenodd" d="M210.492 121.409C213.385 121.409 215.731 119.06 215.731 116.163C215.731 113.266 213.385 110.918 210.492 110.918C207.599 110.918 205.254 113.266 205.254 116.163C205.254 119.06 207.599 121.409 210.492 121.409Z" fill="white"/>
<path fill-rule="evenodd" clip-rule="evenodd" d="M230.881 122.236C233.685 122.236 235.967 124.521 235.967 127.329C235.967 130.137 233.685 132.422 230.881 132.422C228.077 132.422 225.794 130.137 225.794 127.329C225.794 124.521 228.077 122.236 230.881 122.236ZM230.881 120.93C227.359 120.93 224.49 123.803 224.49 127.329C224.49 130.855 227.359 133.728 230.881 133.728C234.402 133.728 237.271 130.855 237.271 127.329C237.271 123.803 234.402 120.93 230.881 120.93Z" fill="white"/>
<path fill-rule="evenodd" clip-rule="evenodd" d="M246.922 142.696H238.706C235.097 142.696 232.185 139.78 232.185 136.167V120.408H253.443V136.167C253.443 139.758 250.53 142.696 246.922 142.696Z" fill="#E4794A"/>
<path fill-rule="evenodd" clip-rule="evenodd" d="M309.457 141.869C309.937 141.869 310.326 142.259 310.326 142.74C310.326 143.206 309.96 143.587 309.5 143.609L309.457 143.61H1.63043C1.15025 143.61 0.760986 143.221 0.760986 142.74C0.760986 142.274 1.12701 141.893 1.58703 141.87L1.63043 141.869H309.457Z" fill="#2F4077"/>
</svg>
