<svg xmlns="http://www.w3.org/2000/svg" width="385" height="209" fill="none"><path fill="#fff" fill-rule="evenodd" d="m205.193 131.832 11.381 47.548-5.719 24.568-24.296-.284s-12.079-47.121-11.381-48.662c.697-1.542 14.449-24.379 14.449-24.379l15.566 1.209Z" clip-rule="evenodd"/><path fill="#2F4077" fill-rule="evenodd" d="M189.703 129.914c-.322-.025-.631.11-.795.344l-.292.482-1.996 3.322-2.843 4.742-2.853 4.773c-3.876 6.498-6.23 10.512-6.528 11.169-.241.534.157 2.809 1.219 7.629l.303 1.365c.886 3.948 2.101 9.075 3.575 15.111l.541 2.212c1.179 4.801 2.438 9.845 3.701 14.85l1.041 4.114.965 3.788c.083.323.417.555.806.56l24.297.284c.404.005.754-.236.832-.573l5.719-24.568a.616.616 0 0 0-.001-.28l-11.381-47.548c-.074-.308-.376-.538-.744-.566l-15.566-1.21Zm-13.737 25.326.024-.05c.341-.688 2.222-3.905 5.177-8.873l1.968-3.301 2.759-4.612 4.22-7.03 14.383 1.118 11.223 46.889-5.55 23.847-22.935-.269-1.038-4.079-.603-2.383-.89-3.533c-.888-3.535-1.768-7.064-2.612-10.489l-1.034-4.214c-1.39-5.699-2.546-10.573-3.406-14.389l-.305-1.366c-.45-2.032-.794-3.685-1.025-4.924l-.085-.468a24.296 24.296 0 0 1-.216-1.403l-.015-.137a4.996 4.996 0 0 1-.017-.226l-.004-.121c-.001-.015-.005-.016-.019.013Z" clip-rule="evenodd"/><path fill="#E4794A" fill-rule="evenodd" d="M97.936 54.665c-60.115-2.94-68.678 27.77-66.447 51.128 2.288 23.905 9.652 100.621 9.652 100.621-.363.332 143.13.332 142.711 0 0 0-7.364-76.716-9.651-100.621-2.232-23.335-16.709-54.069-76.265-51.128Z" clip-rule="evenodd"/><path fill="#2F4077" fill-rule="evenodd" d="M96.674 54.554c.458-.055.881.215.947.604.065.389-.253.75-.71.805-18.317 2.221-30.448 8.887-37.264 19.19-5.548 8.388-7.381 18.88-6.262 30.559l4.525 47.027 5.182 54.021c.038.391-.305.735-.766.767-.46.032-.864-.26-.902-.652l-9.707-101.047c-1.145-11.938.737-22.703 6.471-31.372 7.08-10.702 19.67-17.62 38.486-19.902Z" clip-rule="evenodd"/><path fill="#465F9D" fill-rule="evenodd" d="m200.479 207.078-10.628-43.208s6.081-6.45 5.607-15.556a13.881 13.881 0 0 0-.196-1.826c.056-.119 12.832-3.653 13.557-4.957-.474-7.399-7.587-27.105-20.084-31.682-4.017-1.589-13.725-3.937-15.677-4.506-9.234-2.68-28.676-6.996-45.581-4.15 0 0-25.803 3.581-31.577 6.498-3.152 1.588-18.746 10.173-21.73 33.935-.056.356 26.974 8.442 26.974 8.442l4.184 56.773" clip-rule="evenodd"/><path fill="#fff" fill-rule="evenodd" d="M156.906 90.285v11.904l5.272.854c.921 1.115 11.158 14.822-11.409 16.482-14.729 1.091-30.964-6.261-39.695-14.964l14.45-3.368 4.352-23.5 27.03 12.592Z" clip-rule="evenodd"/><path fill="#2F4077" fill-rule="evenodd" d="m129.049 77.58-4.267 23.048-13.929 3.246c-.591.138-.813.751-.415 1.148 9.629 9.598 26.313 16.254 40.404 15.211 10.316-.759 15.08-4.086 15.276-9.131.07-1.789-.454-3.662-1.391-5.527-.609-1.214-1.339-2.306-1.864-2.942l-.035-.04a.884.884 0 0 0-.493-.25l-4.592-.743V90.284c0-.26-.166-.5-.434-.624l-27.031-12.592c-.508-.237-1.139.026-1.229.513Zm1.469 1.222 25.552 11.903v11.484l.001.042c.023.323.301.595.679.657l4.93.798.015.021a16.223 16.223 0 0 1 1.493 2.427c.848 1.689 1.318 3.368 1.257 4.921-.073 1.906-.941 3.521-2.774 4.8-2.226 1.555-5.825 2.582-10.974 2.96l-.406.028c-12.893.81-28.093-5.065-37.432-13.646l-.271-.252 13.158-3.066c.317-.074.554-.299.605-.576l4.167-22.501Z" clip-rule="evenodd"/><path fill="#E4794A" d="m125.292 26.056-6.148 2.428-5.03-9.205 6.147-2.428z"/><path fill="#2F4077" fill-rule="evenodd" d="M112.552 21.134c6.594 0 11.94-4.545 11.94-10.15 0-5.606-5.346-10.15-11.94-10.15-6.593 0-11.939 4.544-11.939 10.15 0 5.605 5.346 10.15 11.939 10.15Zm10.043.308c10.098-3.059 21.172-4.6 31.493-1.47 31.438 10.861 34.004 30.046 22.54 39.081-1.284-13.612-4.352-18.71-10.238-21.698-4.965 8.276-25.273 17.975-43.042 18.544-.028-.047.558 13.565 2.092 13.423.307.806 3.738 7.992 3.738 7.992l-1.813 14.56-38.272-4.363c-2.4 0-4.296-1.968-3.794-3.913 3.152-12.118 4.854-51.935 37.296-62.156Z" clip-rule="evenodd"/><path fill="#fff" fill-rule="evenodd" d="m129.122 73.258-2.343.45s-13.697 1.684-14.338-9.154c-.474-8.229 9.094-7.944 13.752-7.327" clip-rule="evenodd"/><path fill="#2F4077" fill-rule="evenodd" d="M117.112 56.903c2.628-.794 5.84-.825 9.21-.38.456.061.769.425.698.813-.071.388-.499.654-.956.593-3.119-.412-6.081-.383-8.392.315-3.015.91-4.592 2.867-4.395 6.275.256 4.338 2.664 6.813 6.587 7.932 2.105.6 4.35.732 6.314.595l.159-.012.207-.018.085-.009 2.308-.443c.451-.087.899.153 1.001.537.099.37-.161.737-.584.84l-.047.01-2.344.45a.886.886 0 0 1-.064.011l-.112.013c-.115.012-.274.026-.473.04-2.17.15-4.628.006-6.982-.665-4.552-1.298-7.434-4.262-7.727-9.21-.233-4.042 1.802-6.568 5.507-7.687Z" clip-rule="evenodd"/><path fill="#fff" fill-rule="evenodd" d="M176.627 59.029c-1.283-13.612-4.268-18.213-10.153-21.2-4.882 8.133-22.874 17.619-42.68 18.022-.39 1.897-.084.214-.139 2.277.111 2.134.306 4.577.53 6.616 1.534 7.707 4.965 12.545 4.965 12.545 4.882 7.517 12.86 13.209 23.515 14.039 18.579 1.423 23.544-20.798 23.962-25.73.196-2.443 0-6.57 0-6.57Z" clip-rule="evenodd"/><path fill="#2F4077" fill-rule="evenodd" d="M165.728 37.505c-2.385 3.974-8.04 8.273-15.392 11.607-8.03 3.64-17.357 5.841-26.562 6.029-.399.008-.736.254-.804.588l-.181.874c-.039.203-.048.31-.015.448l.033.12c.003.014 0 .01.004.053l.007.105c.009.171.01.426 0 .783l.001.048a123.657 123.657 0 0 0 .54 6.703 38.968 38.968 0 0 0 3.077 9.248c.436.906.871 1.716 1.288 2.423l.137.23.136.222c.172.28.312.492.411.635l.019.028-.01-.016c5.388 8.297 13.852 13.6 24.172 14.404 8.66.663 15.142-3.456 19.612-10.866 3.022-5.01 4.911-11.397 5.261-15.521l.018-.237c.071-1.047.085-2.403.059-3.94l-.012-.581c-.004-.192-.01-.381-.015-.568l-.037-1.064-.011-.259-.002-.028c-1.23-13.045-3.959-18.404-10.559-21.755-.416-.211-.955-.08-1.175.287Zm1.054 1.328.142.08c5.35 3.073 7.688 8.066 8.833 19.796l.035.364.016.393.013.35.018.543c.01.369.02.749.026 1.134l.005.344c.02 1.475-.002 2.76-.078 3.713-.334 3.942-2.169 10.145-5.08 14.972-4.19 6.944-10.101 10.7-17.972 10.098-9.629-.75-17.563-5.668-22.703-13.438l-.17-.258-.082-.122a19.984 19.984 0 0 1-.481-.764 30.793 30.793 0 0 1-1.318-2.465l-.119-.25a37.657 37.657 0 0 1-2.795-8.39l-.057-.28-.034-.315a124.405 124.405 0 0 1-.471-5.884l-.018-.336.006-.277c.007-.482-.006-.718-.046-.915l-.015-.071.063-.31.262-.009c9.164-.319 18.383-2.552 26.362-6.17 7.171-3.25 12.819-7.413 15.598-11.444l.06-.088Z" clip-rule="evenodd"/><path fill="#2F4077" fill-rule="evenodd" d="M162.398 52.66c.439-.065.857.175.957.539l.01.04 3.654 17.976c.086.421-.28.807-.774.832l-.05.001h-5.356c-.462 0-.837-.319-.837-.712 0-.378.348-.688.788-.71h4.41l-3.484-17.144c-.076-.373.205-.729.634-.814l.048-.008Zm-14.47-.605c2.077-1.383 4.39-1.795 6.645-.546.388.215.497.655.245.984-.253.33-.771.423-1.158.208-1.545-.855-3.126-.574-4.699.474a7.89 7.89 0 0 0-1.1.888l-.112.114c-.283.31-.809.367-1.174.127-.366-.24-.433-.687-.15-.998l.088-.093a9.368 9.368 0 0 1 1.415-1.158Zm3.513 24.325c.437-.129.914.067 1.066.438.445 1.083 1.329 1.68 2.59 1.925.847.165 1.777.153 2.656.031l.164-.024a7.35 7.35 0 0 0 .148-.025l.132-.024.054-.012c.446-.101.905.124 1.025.503.12.38-.145.77-.591.872l-.083.018a9.131 9.131 0 0 1-.58.097c-1.074.148-2.21.163-3.298-.049-1.791-.347-3.15-1.265-3.797-2.843-.152-.371.078-.777.514-.906Zm18.283-24.31c1.253-.423 2.538-.621 3.776-.46 1.318.17 2.461.743 3.33 1.76.272.318.189.763-.185.994-.374.23-.897.16-1.169-.157-.601-.704-1.344-1.077-2.228-1.191-.9-.117-1.906.039-2.907.376a8.8 8.8 0 0 0-.747.29l-.127.057c-.06.028-.103.05-.127.062-.394.206-.909.102-1.152-.232-.242-.334-.12-.773.273-.979a8.92 8.92 0 0 1 1.263-.52Zm-14.585 10.523c.053-1.296-.703-2.37-1.688-2.4-.986-.028-1.827.999-1.88 2.295-.053 1.295.703 2.37 1.689 2.398.985.03 1.827-.998 1.879-2.293Zm18.878.444c.053-1.296-.703-2.37-1.689-2.399-.985-.029-1.827.998-1.879 2.294-.053 1.296.703 2.37 1.688 2.399.986.029 1.827-.998 1.88-2.294Z" clip-rule="evenodd"/><path fill="#E4794A" fill-rule="evenodd" d="M136.549 57.954c-.307 7.36 4.778 13.51 11.489 13.659 6.711.15 12.3-5.763 12.607-13.123.307-7.359-4.777-13.51-11.489-13.659-6.711-.149-12.299 5.763-12.607 13.123Zm1.664.037c.278-6.642 5.206-11.857 10.883-11.73 5.678.126 10.162 5.55 9.885 12.193-.278 6.642-5.206 11.857-10.883 11.73-5.678-.126-10.162-5.55-9.885-12.193Zm28.279 1.631c-.307 7.36 4.778 13.51 11.489 13.659 6.711.15 12.3-5.763 12.607-13.123.307-7.359-4.778-13.51-11.489-13.659-6.711-.149-12.3 5.764-12.607 13.123Zm1.664.037c.277-6.642 5.206-11.857 10.883-11.73 5.678.126 10.162 5.55 9.885 12.193-.278 6.642-5.206 11.857-10.884 11.73-5.677-.126-10.161-5.55-9.884-12.193Z" clip-rule="evenodd"/><path fill="#E4794A" fill-rule="evenodd" d="M166.948 57.036c.462 0 .837.319.837.712 0 .378-.348.688-.788.71l-.049.001h-7.085c-.462 0-.837-.319-.837-.711 0-.38.348-.689.788-.71l.049-.002h7.085Zm-29.574-2.035c.459-.041.872.241.921.632.047.377-.261.716-.695.777l-.049.006-15.175 1.375c-.459.042-.872-.24-.921-.632-.047-.376.261-.716.695-.777l.049-.005L137.374 55Z" clip-rule="evenodd"/><path fill="#fff" fill-rule="evenodd" d="M170.714 172.833s11.939.166 19.805 3.96c4.687 2.253 10.796 5.384 11.103 6.735.585 2.561-6.807.024-8.006-.308" clip-rule="evenodd"/><path fill="#2F4077" fill-rule="evenodd" d="m170.728 172.122.313.008.342.011c.12.004.248.01.382.016l.136.006c.922.043 1.947.112 3.051.212 3.156.286 6.314.766 9.269 1.487 2.517.614 4.776 1.379 6.711 2.313l.638.307c6.781 3.282 10.549 5.479 10.874 6.911.256 1.122-.513 1.831-1.813 1.956-.84.082-1.939-.052-3.288-.351a32.33 32.33 0 0 1-1.355-.333l-.391-.107c-.505-.141-1.268-.368-1.76-.516l-.48-.145c-.439-.122-.679-.523-.536-.897.138-.36.582-.563 1.007-.468l.054.014c.112.035 1.683.509 2.381.7.53.145 1.03.271 1.502.375 1.121.248 2.024.363 2.611.32l.156-.014c.315-.033.316-.054.269-.263-.182-.8-4.487-3.267-10.694-6.251-1.811-.874-3.949-1.598-6.347-2.183-2.853-.697-5.919-1.163-8.985-1.44a67.447 67.447 0 0 0-2.74-.195l-.226-.011a45.233 45.233 0 0 0-.721-.029l-.387-.01c-.462-.007-.831-.33-.823-.723.007-.393.388-.706.85-.7Z" clip-rule="evenodd"/><path fill="#E4794A" fill-rule="evenodd" d="m180.394 155.546-3.683 1.28 17.463 35.928 2.873 2.585c.223.213.642.071.669-.214l.14-3.652-17.462-35.927Z" clip-rule="evenodd"/><path fill="#fff" fill-rule="evenodd" d="M200.339 188.295c-.307-1.162-11.855-11.146-16.095-12.901-2.734-1.114-8.955-3.415-14.59-3.415-.083 0-.139-.023-.223-.023-20.531-1.637-60.644-6.19-60.644-6.19l2.957-22.315s-35.929-9.201-35.9-9.154c-2.762 17.217-2.205 36.354.222 43.232 1.45 4.173 6.862 7.825 11.884 8.608 41.87 6.521 87.004 2.276 87.004 2.276.196.024 9.652 2.419 9.652 2.419 5.802 2.206 5.579-.118 3.794-1.944.279.237.53.45.753.711 2.009 1.565 5.161.949 5.663.356.502-.593-1.73-2.3-4.659-5.004l.363.214c4.854 4.79 10.628 6.189 9.819 3.13Z" clip-rule="evenodd"/><path fill="#2F4077" fill-rule="evenodd" d="m75.746 133.591-.057.005c-.079.009-.123.03-.373.149l-.047.035-.092.087-.083.114-.06.134-.016.087h-.004c-2.629 16.388-2.382 36.071.25 43.532 1.5 4.316 7.048 8.248 12.535 9.104a260.9 260.9 0 0 0 8.532 1.181c12.523 1.529 25.818 2.299 39.474 2.441 10.205.106 19.96-.142 28.877-.624l1.259-.07c2.42-.138 4.601-.284 6.518-.431l1.03-.081c.267-.021.517-.042.751-.062l.662-.057 4.678 1.171 4.735 1.196.208.078c2.855 1.053 4.696 1.175 5.507.205l.039-.048c.162-.211.253-.446.28-.698l.001-.02.027.009a7.034 7.034 0 0 0 2.201.27c1.271-.037 2.459-.386 2.917-.926l.037-.046a.91.91 0 0 0 .198-.528v-.032l.11.049c.496.219.98.398 1.442.533 2.575.747 4.436-.081 3.873-2.208-.444-1.684-12.611-11.756-16.545-13.384l-.25-.102c-4.903-1.977-9.899-3.339-14.473-3.384l-.191-.001.011.002c-.041-.007-.064-.011-.099-.015l-.056-.005-.059-.004-1.687-.137c-5.956-.495-13.658-1.227-22.694-2.148l-2.851-.292-2.182-.226c-6.028-.626-12.234-1.29-18.363-1.959l-5.904-.65-6.102-.681 2.866-21.623c.043-.327-.183-.635-.543-.747l-.449-.116-26.66-6.815-8.265-2.098-.525-.129-.11-.023-.045-.007-.07-.008a1.674 1.674 0 0 0-.163.003Zm123.778 54.867-.002-.006c.121.456.058.627-.082.689-.254.114-.832.088-1.616-.14-1.966-.57-4.491-2.148-6.67-4.299a.76.76 0 0 0-.158-.121l-.362-.213c-.822-.484-1.769.442-1.092 1.066l.294.268c.844.766 2.868 2.584 3.307 3.012l.073.071c.334.329.567.587.707.782l.036.052-.033.014a2.718 2.718 0 0 1-.198.065c-.34.1-.764.166-1.208.179l-.11.002c-.99.01-1.916-.233-2.615-.745l-.021-.016-.017-.019c-.192-.215-.379-.384-.765-.713-.754-.641-1.917.261-1.236.958.393.402.687.817.83 1.165.11.265.108.419.08.452l-.005.003a.448.448 0 0 1-.073.023c-.132.034-.335.045-.609.022-.704-.059-1.721-.327-3.031-.825l-.051-.017-.463-.119-7.699-1.94c-1.074-.267-1.573-.387-1.662-.397a.924.924 0 0 0-.158-.007l-.114.009-.59.052-.881.073c-.317.026-.657.053-1.02.08l-.794.06c-1.887.138-4.011.276-6.349.406-9.036.501-18.956.761-29.342.654-13.587-.142-26.811-.908-39.256-2.427-2.88-.351-5.704-.742-8.469-1.173-4.888-.761-9.916-4.326-11.231-8.11l-.076-.22c-2.43-7.251-2.684-25.897-.273-41.738l.024-.16 6.881 1.747 12.994 3.317 14.415 3.688-2.878 21.726c-.05.371.247.708.673.778l.451.052 5.811.65 3.276.362c7.204.793 14.581 1.587 21.709 2.327l3.618.373 2.929.298c9.137.925 16.845 1.649 22.691 2.118l.27.021-.005-.001c.103.018.17.026.275.026 4.4 0 9.375 1.366 14.228 3.345 1.785.739 5.305 3.243 9.161 6.426l.139.115a96.296 96.296 0 0 1 4.352 3.808l.338.32c.497.476.904.886 1.2 1.21l.103.115c.098.111.179.208.242.29l.031.039c.05.067.076.111.076.098Z" clip-rule="evenodd"/><path fill="#2F4077" fill-rule="evenodd" d="M179.25 184.173c1.654.141 6.711 1.93 8.856 3.487a.734.734 0 0 1 .216.242l.014.027.011.007c.54.375 1.003.761 1.382 1.16l.085.092c.283.311.217.758-.149.998-.365.241-.89.184-1.174-.126-.829-.91-2.318-1.815-4.269-2.664a37.845 37.845 0 0 0-3.648-1.351 40.594 40.594 0 0 0-1.204-.361l-.334-.092-.111-.03c-.97-.249-.683-1.474.325-1.389Zm2.253-3.105c.104-.383.554-.621 1.004-.533l.114.024c.076.016.173.038.287.065l.071.018c.36.087.76.195 1.189.326 1.226.374 2.452.853 3.603 1.452 1.128.587 2.123 1.261 2.948 2.028.312.29.288.74-.053 1.005-.341.265-.871.245-1.183-.045-.711-.662-1.585-1.253-2.587-1.775a19.388 19.388 0 0 0-3.293-1.325 20.455 20.455 0 0 0-.959-.268l-.124-.03a13.715 13.715 0 0 0-.244-.057l-.146-.032c-.45-.088-.731-.47-.627-.853Z" clip-rule="evenodd"/><path fill="#E4794A" fill-rule="evenodd" d="M231.832 198.303h-96.154c-1.702 0-3.069-1.162-3.069-2.609v-1.897c0-1.447 1.367-2.609 3.069-2.609h96.154c1.702 0 3.069 1.162 3.069 2.609v1.897c0 1.447-1.395 2.609-3.069 2.609Z" clip-rule="evenodd"/><path fill="#FAA184" fill-rule="evenodd" d="M354.933 122.132H228.317c-1.673 0-3.096 1.067-3.486 2.585l-18.328 72.4H127.56s-2.176 9.557 10.517 9.557h96.433l-.056-.119h100.785c1.674 0 3.097-1.067 3.487-2.585l19.666-77.736c.558-2.086-1.143-4.102-3.459-4.102Z" clip-rule="evenodd"/><path fill="#fff" fill-rule="evenodd" d="M290.329 163.112c0-1.589 1.394-3.107 3.124-3.368 1.729-.261 3.152.807 3.152 2.395 0 .902-.446 1.755-1.144 2.396.558.166 1.116.355 1.59.64 3.236 1.802 3.32 5.597.168 8.442-3.152 2.846-8.341 3.7-11.577 1.897-3.236-1.802-3.319-5.596-.167-8.442 1.45-1.328 3.347-2.205 5.272-2.609a2.416 2.416 0 0 1-.418-1.351Zm-2.399-7.399s4.993-1.02 5.3 2.632c.028.024-3.961 1.376-5.3-2.632Z" clip-rule="evenodd"/><path fill="#fff" fill-rule="evenodd" d="M294.066 161.38c-.083 0-.167 0-.251-.023-.446-.119-.697-.498-.558-.878.14-.379 1.367-3.794 2.511-4.956a.912.912 0 0 1 1.171-.071c.363.261.391.711.084.996-.781.806-1.841 3.486-2.176 4.434-.083.285-.418.498-.781.498Z" clip-rule="evenodd"/><path fill="#FAA184" fill-rule="evenodd" d="M162.123 196.026h-3.822c-1.199 0-2.148-.806-2.148-1.826s.949-1.826 2.148-1.826h3.822c1.199 0 2.148.806 2.148 1.826s-.977 1.826-2.148 1.826Z" clip-rule="evenodd"/><path fill="#E4794A" fill-rule="evenodd" d="M162.123 204.777h-3.822c-1.199 0-2.148-.806-2.148-1.826s.949-1.826 2.148-1.826h3.822c1.199 0 2.148.806 2.148 1.826s-.977 1.826-2.148 1.826Z" clip-rule="evenodd"/><path fill="#2F4077" fill-rule="evenodd" d="M154.667 193.596c1.382-.228 2.83-.255 4.188-.159l.213.016c.312.026.543.051.676.069.457.062.767.427.694.815-.07.374-.472.633-.91.596l-.189-.023a17.941 17.941 0 0 0-.429-.04c-1.272-.103-2.65-.088-3.923.123-2.542.42-4.001 1.488-4.103 3.458l-.003.09-.001.124c.062 2.045 1.526 3.139 4.107 3.566 1.273.211 2.651.226 3.923.123l.185-.016.167-.016.166-.019.052-.006c.456-.063.885.202.958.59.073.387-.237.752-.694.815l-.165.02c-.114.013-.26.027-.435.042l-.076.006c-1.418.115-2.946.098-4.401-.142-3.236-.535-5.327-2.076-5.456-4.848l-.004-.097v-.16c.084-2.815 2.186-4.386 5.46-4.927Zm85.088-71.464c.462 0 .836.318.836.711 0 .379-.348.689-.787.71l-.049.002c-1.235 0-2.316.786-2.65 1.953l-.019.071-19.471 76.429c-.473 1.886 1.112 4.72 2.618 4.783l.051.002c.462 0 .837.318.837.711 0 .393-.375.711-.837.711-2.786 0-4.934-3.751-4.324-6.425l.019-.081 19.471-76.433c.473-1.838 2.229-3.144 4.305-3.144Z" clip-rule="evenodd"/><path fill="#fff" d="m254.919 59.012 22.212 1.25-1.446 18.552-22.211-1.25z"/><path fill="#2F4077" fill-rule="evenodd" d="m277.195 59.37-21.976-1.075c-.457-.023-.855.28-.891.676l-1.68 18.727c-.035.395.306.734.762.757l21.977 1.074c.456.023.855-.28.89-.676l1.68-18.727c.036-.395-.306-.734-.762-.757Zm-.954 1.392-1.552 17.294-20.324-.994 1.551-17.294 20.325.994Z" clip-rule="evenodd"/><path fill="#2F4077" fill-rule="evenodd" d="m273.455 69.729-5.121-.25c-.456-.023-.855.28-.89.675l-.399 4.443c-.035.395.306.734.762.757l5.121.25c.457.022.855-.28.891-.676l.398-4.442c.036-.396-.305-.735-.762-.757Zm-.954 1.392-.27 3.01-3.47-.17.27-3.01 3.47.17Z" clip-rule="evenodd"/><path fill="#2F4077" fill-rule="evenodd" d="M272.844 69.972c.348-.26.876-.23 1.181.065.294.284.273.71-.037.973l-.039.03-5.495 4.103c-.348.26-.877.23-1.181-.065-.294-.284-.273-.71.037-.973l.039-.03 5.495-4.103Zm1.142-7.689-16.326-.804c-.459-.023-.861.284-.896.685l-.384 4.31c-.036.401.307.745.767.768l16.326.804c.459.022.861-.284.896-.686l.384-4.31c.036-.4-.307-.744-.767-.767Zm-.949 1.4-.255 2.89-14.687-.73.255-2.891 14.687.73ZM256.635 73.4l.049.002 8.341.45c.461.025.811.363.782.755-.028.379-.399.669-.839.667l-.049-.002-8.341-.45c-.461-.025-.811-.363-.782-.755.028-.378.399-.669.839-.667Zm.22-2.203 8.34.474c.461.026.81.365.779.757-.029.379-.401.668-.841.665l-.049-.002-8.341-.474c-.461-.027-.81-.366-.779-.758.03-.378.401-.667.841-.664l.05.002Zm.167-2.205 8.34.474c.461.026.81.365.779.758-.029.377-.401.667-.841.663l-.049-.001-8.341-.474c-.461-.027-.81-.366-.779-.758.03-.378.401-.667.841-.664l.05.002Z" clip-rule="evenodd"/><path fill="#2F4077" fill-rule="evenodd" d="M273.767 62.415c.45-.088.899.15 1.003.534.1.369-.158.737-.58.842l-.048.01-16.737 3.273c-.45.088-.9-.15-1.003-.534-.1-.37.158-.737.58-.842l.048-.01 16.737-3.273Zm8.401-23.313-.161.386c-.904 2.362.597 4.896 3.348 5.657l18.827 5.263c2.754.762 5.705-.505 6.633-2.843l.164-.394c.904-2.362-.597-4.895-3.348-5.656l-18.829-5.265c-2.759-.763-5.739.513-6.634 2.852Zm6.116-1.498 18.827 5.264c1.871.517 2.895 2.246 2.283 3.847l-.161.386c-.639 1.61-2.653 2.475-4.531 1.955l-18.827-5.264c-1.871-.517-2.895-2.246-2.283-3.846l.161-.387c.615-1.605 2.649-2.476 4.531-1.955Z" clip-rule="evenodd"/><path fill="#465F9D" fill-rule="evenodd" d="M305.28 51.748c3.99 0 7.225-2.75 7.225-6.142 0-3.392-3.235-6.142-7.225-6.142-3.99 0-7.225 2.75-7.225 6.142 0 3.392 3.235 6.142 7.225 6.142Z" clip-rule="evenodd"/><path fill="#E4794A" d="m327.403 62.328 16.813 34.739-40.864 14.293-16.812-34.74z"/><path fill="#2F4077" fill-rule="evenodd" d="M318.509 111.519c.302-.298.83-.332 1.18-.076.337.247.387.671.123.969l-.034.035-1.366 1.351c-.29.287-.79.329-1.139.104l-.042-.028-1.59-1.162c-.35-.256-.39-.705-.089-1.003.29-.287.79-.329 1.139-.104l.042.028.955.699.821-.813Zm-5.152-2.353-3.374-2.461c-.351-.256-.879-.221-1.18.077-.301.298-.261.747.09 1.003l3.375 2.461c.35.256.879.221 1.18-.077.3-.298.26-.747-.091-1.003Zm-6.748-4.921-3.374-2.46c-.351-.256-.88-.222-1.181.077-.3.298-.26.747.091 1.003l3.374 2.46c.351.256.879.222 1.18-.076.301-.299.261-.748-.09-1.004Zm-6.749-4.921-3.374-2.46c-.351-.256-.88-.222-1.18.076-.301.298-.261.748.09 1.003l3.374 2.461c.351.256.879.221 1.18-.077.301-.298.261-.747-.09-1.003Zm-6.748-4.921-3.375-2.461c-.351-.256-.879-.221-1.18.077-.301.298-.26.747.09 1.003l3.375 2.46c.351.256.879.222 1.18-.076.301-.299.26-.748-.09-1.003Zm-8.155-7.337c.304-.296.833-.326 1.181-.067.334.25.38.674.112.97l-.034.034-.811.788.95.694c.337.246.387.671.123.968l-.034.035c-.289.287-.789.33-1.139.105l-.041-.029-1.59-1.162c-.339-.248-.387-.676-.118-.973l.034-.035 1.367-1.328Zm4.166-1.938 2.892-2.87c.301-.299.26-.748-.091-1.004-.351-.255-.879-.22-1.18.078l-2.892 2.87c-.301.298-.26.747.091 1.003.351.256.879.221 1.18-.077Zm5.785-5.74 2.892-2.87c.301-.299.26-.748-.091-1.004-.351-.255-.879-.22-1.18.078l-2.892 2.87c-.301.298-.26.747.091 1.003.351.256.879.22 1.18-.077Zm5.785-5.74 2.893-2.87c.3-.299.26-.748-.091-1.004-.351-.255-.879-.22-1.18.078l-2.893 2.87c-.3.298-.26.747.091 1.003.351.256.879.22 1.18-.077Zm5.785-5.74 2.893-2.87c.3-.299.26-.748-.091-1.004-.351-.255-.88-.22-1.18.078l-2.893 2.87c-.3.298-.26.747.091 1.003.351.256.879.22 1.18-.077Zm5.895-8.015c.29-.286.789-.329 1.139-.104l.041.029 1.59 1.162c.35.256.39.705.089 1.003-.29.286-.789.329-1.139.104l-.041-.029-.956-.698-.821.813c-.29.286-.789.328-1.139.103l-.041-.028c-.337-.246-.387-.67-.122-.968l.033-.035 1.367-1.352Zm5.054 4.608 3.373 2.463c.35.256.879.222 1.18-.077.301-.298.261-.747-.09-1.003l-3.372-2.462c-.351-.256-.879-.222-1.18.076-.301.298-.261.747.089 1.003Zm6.745 4.925 3.373 2.462c.35.256.879.222 1.18-.076.301-.298.261-.747-.09-1.003l-3.372-2.463c-.351-.256-.879-.222-1.18.076-.301.298-.261.748.089 1.004Zm6.745 4.925 3.373 2.462c.35.256.879.222 1.18-.076.301-.298.261-.747-.09-1.003l-3.372-2.462c-.351-.257-.879-.222-1.18.076-.301.298-.261.747.089 1.003Zm6.745 4.924 3.373 2.463c.35.256.879.222 1.18-.076.301-.299.261-.748-.09-1.004l-3.372-2.462c-.351-.256-.879-.222-1.18.076-.302.298-.261.747.089 1.003Zm6.651 3.906c.289-.286.789-.329 1.139-.104l.041.029 1.59 1.162c.334.244.386.665.127.962l-.033.035-1.339 1.352c-.297.3-.825.339-1.179.086-.34-.243-.395-.668-.134-.967l.033-.035.805-.814-.961-.703c-.337-.246-.387-.67-.123-.968l.034-.035Zm-2.651 5.385-2.895 2.868c-.301.299-.26.748.091 1.003.35.256.879.222 1.18-.076l2.894-2.869c.301-.298.26-.747-.09-1.003-.351-.256-.879-.222-1.18.077Zm-5.789 5.737-2.895 2.868c-.301.298-.26.748.091 1.003.35.256.879.222 1.18-.076l2.894-2.869c.301-.298.261-.747-.09-1.003-.351-.256-.879-.222-1.18.077Zm-5.789 5.737-2.894 2.868c-.301.299-.261.748.09 1.004.351.255.879.221 1.18-.077l2.895-2.869c.301-.298.26-.747-.091-1.003-.351-.256-.879-.221-1.18.077Zm-5.789 5.738-2.894 2.868c-.301.299-.261.748.09 1.004.351.255.879.221 1.18-.077l2.895-2.869c.301-.298.26-.747-.091-1.003-.35-.256-.879-.221-1.18.077Z" clip-rule="evenodd"/><path fill="#2F4077" fill-rule="evenodd" d="M318.733 97.29c.302-.297.83-.331 1.181-.075l.192.144.081.063c.217.166.467.363.748.59l.304.248c.719.591 1.505 1.27 2.342 2.034a71.516 71.516 0 0 1 8.007 8.614c6.175 7.857 10.291 16.521 11.382 25.814 1.379 11.743-2.196 23.732-11.665 35.757-.257.327-.777.414-1.161.196-.384-.219-.487-.661-.23-.987 9.254-11.752 12.731-23.412 11.39-34.825-1.061-9.038-5.075-17.488-11.108-25.165a69.98 69.98 0 0 0-7.839-8.434 58.272 58.272 0 0 0-2.576-2.22l-.291-.234-.179-.142-.245-.19a16.88 16.88 0 0 0-.244-.184c-.351-.257-.39-.706-.089-1.004Z" clip-rule="evenodd"/><path fill="#2F4077" fill-rule="evenodd" d="M319.479 99.581c1.171 0 2.12-.807 2.12-1.802s-.949-1.802-2.12-1.802c-1.17 0-2.12.806-2.12 1.802 0 .995.95 1.802 2.12 1.802Z" clip-rule="evenodd"/><path fill="#fff" d="m232.496 80.63 29.822-8.301 9.766 25.353-29.822 8.302z"/><path fill="#2F4077" fill-rule="evenodd" d="m261.039 71.631-28.83 7.513c-.425.111-.641.513-.482.898l10.757 26.142c.159.385.631.607 1.056.497l28.831-7.514c.424-.11.64-.512.482-.897l-10.758-26.142c-.158-.385-.631-.608-1.056-.497Zm-.195 1.595 10.184 24.748-27.293 7.112-10.184-24.748 27.293-7.112Z" clip-rule="evenodd"/><path fill="#2F4077" fill-rule="evenodd" d="M261.605 72.008c.21-.35.714-.488 1.126-.309.396.173.562.577.385.919l-.022.039-20.14 33.437c-.211.35-.715.488-1.126.309-.396-.172-.562-.576-.386-.918l.022-.039 20.141-33.438Z" clip-rule="evenodd"/><path fill="#2F4077" fill-rule="evenodd" d="M231.783 80.312c.201-.337.675-.48 1.078-.332l.046.019 39.612 17.05c.412.178.577.606.368.956-.201.338-.675.48-1.078.332l-.047-.018-39.611-17.05c-.412-.178-.577-.606-.368-.957ZM384 206.344c.462 0 .837.318.837.711 0 .379-.349.689-.788.71l-.049.002H1.195c-.462 0-.837-.319-.837-.712 0-.379.349-.688.788-.71l.05-.001H384Z" clip-rule="evenodd"/></svg>