<svg width="250" height="119" viewBox="0 0 250 119" fill="none" xmlns="http://www.w3.org/2000/svg"><path fill-rule="evenodd" clip-rule="evenodd" d="M173.461 49.969c24.211-1.428 27.676 13.517 26.761 24.885-.932 11.637-3.384 43.424-3.384 43.424.147.168-57.51.168-57.346 0 0 0 2.305-31.787 3.236-43.424.916-11.368 6.735-26.33 30.733-24.885Z" fill="#E4794A"/><path fill-rule="evenodd" clip-rule="evenodd" d="m191.8 80.378-2.122 28.087c-.316 4.144-.562 7.328-.77 9.938a.495.495 0 0 1-.529.461.498.498 0 0 1-.448-.543l.422-5.4c.181-2.348.389-5.073.633-8.297l1.991-26.338.272-3.49c.453-5.646-.282-10.727-2.503-14.78-2.723-4.97-7.569-8.188-14.896-9.263a.501.501 0 0 1-.416-.57.492.492 0 0 1 .555-.427c7.62 1.118 12.734 4.514 15.612 9.766 2.307 4.21 3.078 9.422 2.639 15.182l-.364 4.69-.076.984Z" fill="#2F4077"/><path fill-rule="evenodd" clip-rule="evenodd" d="M142.729 89.73c0-.016-13.046 2.1-13.046 2.1l-1.389 13.383.49 10.511a43.438 43.438 0 0 0 9.073-.738c2.027-.387 4.201-2.167 4.79-4.198.964-3.376 1.193-12.678.082-21.057Z" fill="#fff"/><path fill-rule="evenodd" clip-rule="evenodd" d="m142.805 89.234-.058-.006h-.06l-.044.006-.134.02-2.372.377-6.068.979-4.463.723a.498.498 0 0 0-.411.444l-1.39 13.383c-.002.026-.003.052-.002.077l.491 10.512a.497.497 0 0 0 .478.48 43.944 43.944 0 0 0 9.173-.747c2.267-.432 4.545-2.387 5.171-4.55l.032-.113c1.028-3.78 1.113-13.26.066-21.156l-.007.001-.004-.022a.481.481 0 0 0-.064-.185l-.098-.104c-.039-.04-.047-.045-.07-.06l-.092-.039a.258.258 0 0 0-.074-.02Zm-.499 1.07.026.205c.944 7.7.823 16.706-.157 20.137-.517 1.784-2.492 3.479-4.409 3.844l-.275.051c-2.752.498-5.474.72-8.16.689l-.08-.001-.467-10.001 1.346-12.961 9.955-1.609 2.221-.355Z" fill="#2F4077"/><path fill-rule="evenodd" clip-rule="evenodd" d="m133.803 118.781 2.615-15.667c0 0-2.452-3.14-2.256-7.573.017-.286.033-.588.066-.89-.017-.067-5.166-1.78-5.46-2.418.196-3.61 3.057-13.199 8.092-15.415 1.618-.773 5.525-1.915 6.326-2.2 3.727-1.293 11.558-3.409 18.358-2.015 0 0 10.397 1.746 12.718 3.157 1.259.772 7.553 4.953 8.746 16.523.016.185-10.871 4.097-10.871 4.097l-1.079 22.384" fill="#465F9D"/><path fill-rule="evenodd" clip-rule="evenodd" d="m149.708 67.297-.098 6.162-2.125.42c-.36.538-4.381 6.851 4.708 7.657 5.934.538 12.473-3.039 15.988-7.287l-5.82-1.63-1.749-11.434-10.904 6.112Z" fill="#fff"/><path fill-rule="evenodd" clip-rule="evenodd" d="m149.474 66.855-.029.017a.509.509 0 0 0-.227.417l-.091 5.753-1.734.343a.49.49 0 0 0-.312.21 8.407 8.407 0 0 0-.74 1.395c-.374.89-.577 1.782-.535 2.643.12 2.434 2.124 4.031 6.345 4.406 5.732.519 12.5-2.746 16.404-7.464l.018-.024a.508.508 0 0 0-.263-.788l-5.513-1.543-1.7-11.113a.49.49 0 0 0-.72-.364l-10.903 6.112Zm10.761-4.886 1.642 10.729.006.032a.497.497 0 0 0 .349.376l5.056 1.415-.057.063c-3.776 4.123-9.868 6.915-14.995 6.45-3.781-.335-5.359-1.593-5.451-3.453-.033-.685.137-1.433.456-2.193.12-.285.254-.556.395-.807l.032-.056.09-.154.023-.037 1.922-.38.029-.007a.5.5 0 0 0 .368-.48l.094-5.869 10.041-5.629Z" fill="#2F4077"/><path fill="#E4794A" d="m171.329 35.518 2.106 1.784-3.057 3.808-2.107-1.784z"/><path fill-rule="evenodd" clip-rule="evenodd" d="M175.26 37.777c2.655 0 4.806-2.21 4.806-4.937 0-2.726-2.151-4.937-4.806-4.937-2.654 0-4.806 2.21-4.806 4.937 0 2.727 2.152 4.937 4.806 4.937Zm-5.363-.337c-3.58-2.484-7.699-4.365-12.097-3.979-13.552 1.83-16.837 10.613-13.453 16.053 2.125-6.28 3.923-8.362 6.588-9.152.948 4.417 7.699 11.1 14.565 13.216.016-.017-1.831 6.33-2.419 6.112-.213.336-2.403 3.375-2.403 3.375l1.389 7.086 15.448 1.931c.932.252 1.913-.47 1.946-1.444.179-6.028 1.847-25.003-9.564-33.197Z" fill="#2F4077"/><path fill-rule="evenodd" clip-rule="evenodd" d="m161.152 61.168.85.453c0 0 5.15 2.217 6.67-2.82 1.161-3.83-2.599-4.685-4.495-4.887" fill="#fff"/><path fill-rule="evenodd" clip-rule="evenodd" d="M163.688 53.861a.494.494 0 0 1 .538-.45c1.401.15 2.664.504 3.619 1.168 1.367.95 1.885 2.423 1.295 4.37-.617 2.043-1.852 3.183-3.493 3.54-.99.217-2.032.132-3.036-.138l-.124-.035a5.82 5.82 0 0 1-.675-.23l-.018-.01-.018-.008-.85-.454a.51.51 0 0 1-.21-.68.486.486 0 0 1 .635-.227l.027.013.83.443.046.018.076.029.031.01c.147.053.314.106.499.156.868.233 1.764.307 2.584.128 1.296-.282 2.248-1.162 2.759-2.854.461-1.52.104-2.533-.908-3.237-.792-.55-1.916-.866-3.17-.999a.5.5 0 0 1-.437-.553Z" fill="#2F4077"/><path fill-rule="evenodd" clip-rule="evenodd" d="M144.346 49.532c2.126-6.28 3.826-8.127 6.49-8.917.932 4.35 6.817 10.68 14.484 12.947-.082.923.016.1-.212 1.091-.311.991-.654 2.116-.998 3.056-1.52 3.476-3.433 5.39-3.433 5.39-2.795 3.04-6.588 4.887-10.838 4.165-7.405-1.26-6.702-12.258-6.277-14.626.196-1.192.768-3.106.784-3.106-.016 0-.016 0 0 0Z" fill="#fff"/><path fill-rule="evenodd" clip-rule="evenodd" d="M150.61 40.16c-2.984.918-4.693 3.198-6.727 9.207h.002l-.025.07c-.186.538-.605 2.124-.763 3.01l-.019.108c-.357 1.988-.38 5.222.207 7.922.874 4.016 2.951 6.686 6.474 7.285l.125.02c4.087.65 7.987-.95 11.056-4.234l.088-.095.048-.05c.076-.079.18-.194.309-.343.264-.305.551-.665.851-1.077a21.606 21.606 0 0 0 2.322-4.066l.011-.03c.153-.417.309-.88.492-1.447l.162-.51.351-1.121.006-.02.045-.19a4.76 4.76 0 0 1 .061-.229l.018-.054.011-.023.003-.008a.6.6 0 0 0 .049-.19l.041-.487a.502.502 0 0 0-.352-.53c-3.542-1.047-6.894-3.045-9.571-5.578-2.449-2.317-4.123-4.905-4.57-6.992a.49.49 0 0 0-.615-.376l-.09.028Zm-.183 1.125.065-.025.002.006c.638 2.196 2.34 4.717 4.725 6.975l.124.116c2.641 2.466 5.896 4.43 9.353 5.54l.1.031-.001.007-.014.039-.022.066-.008.025a6.143 6.143 0 0 0-.096.366l-.021.087-.401 1.28-.137.427c-.154.475-.288.874-.418 1.232l-.022.06.006-.013a20.62 20.62 0 0 1-2.211 3.875c-.284.39-.553.727-.8 1.012l-.084.096c-.026.03-.052.06-.077.086l-.088.096-.082.086c-2.903 3.156-6.572 4.663-10.402 4.013-3.065-.521-4.881-2.855-5.676-6.51-.557-2.558-.534-5.658-.199-7.527a21.7 21.7 0 0 1 .443-1.931l.051-.186c.042-.153.084-.3.123-.436l.079-.268.054-.172.004-.007.012-.033.109-.32c1.772-5.151 3.214-7.205 5.509-8.093Z" fill="#2F4077"/><path fill-rule="evenodd" clip-rule="evenodd" d="M150.064 48.114a.485.485 0 0 1 .649-.25.51.51 0 0 1 .255.64l-.011.028-3.34 7.534 1.531.418a.504.504 0 0 1 .355.587l-.006.029a.49.49 0 0 1-.572.364l-.028-.007-2.093-.57a.507.507 0 0 1-.332-.669l.012-.027 3.58-8.077Zm3.296.017c1.033-.36 1.914.027 2.588.847a4.157 4.157 0 0 1 .571.927.51.51 0 0 1-.258.66.485.485 0 0 1-.632-.237l-.032-.073a3.086 3.086 0 0 0-.399-.627c-.438-.534-.929-.75-1.522-.543a.487.487 0 0 1-.622-.315.507.507 0 0 1 .306-.639Zm-2.499 11.595a.48.48 0 0 1 .693-.011c.195.193.2.512.011.712-.375.397-.854.628-1.401.72-.52.086-1.061.042-1.584-.081l-.096-.024a3.47 3.47 0 0 1-.349-.106.507.507 0 0 1-.293-.646.488.488 0 0 1 .602-.31l.07.024.037.012c.073.023.156.046.249.068.41.096.83.13 1.208.068.33-.055.602-.18.814-.386l.039-.04Zm-5.48-13.351c.799-.362 1.62-.17 2.387.343a3.7 3.7 0 0 1 .626.515c.189.2.184.518-.011.712a.48.48 0 0 1-.67.012l-.051-.051a3.218 3.218 0 0 0-.428-.343c-.518-.346-1.021-.464-1.457-.266a1.286 1.286 0 0 0-.27.167l-.045.037a.48.48 0 0 1-.69-.066.513.513 0 0 1 .063-.71c.173-.147.356-.264.546-.35Zm7.762 5.527c.134-.615-.072-1.186-.46-1.276-.387-.089-.81.338-.944.954-.134.615.071 1.186.459 1.275.388.09.811-.337.945-.953Zm-6.702-1.309c.134-.616-.071-1.187-.459-1.276-.387-.09-.81.337-.944.953-.134.615.071 1.186.459 1.276.388.089.81-.338.944-.953Z" fill="#2F4077"/><path fill-rule="evenodd" clip-rule="evenodd" d="M150.443 50.896c-.791 3.564.723 7.006 3.468 7.65 2.746.643 5.562-1.785 6.352-5.349.791-3.564-.723-7.006-3.469-7.649-2.745-.643-5.561 1.784-6.351 5.348Zm.957.225c.681-3.072 3.027-5.094 5.177-4.59 2.15.504 3.412 3.371 2.73 6.443-.681 3.072-3.027 5.094-5.177 4.59-2.15-.504-3.412-3.372-2.73-6.443Zm-12.82-2.557c-.79 3.564.724 7.006 3.469 7.65 2.746.643 5.561-1.785 6.352-5.349.791-3.564-.724-7.006-3.469-7.649-2.745-.643-5.561 1.784-6.352 5.348Zm.957.224c.682-3.071 3.028-5.093 5.178-4.59 2.15.505 3.411 3.372 2.73 6.444-.681 3.072-3.027 5.094-5.178 4.59-2.15-.504-3.411-3.372-2.73-6.444Z" fill="#E4794A"/><path fill-rule="evenodd" clip-rule="evenodd" d="M147.796 49.788a.49.49 0 0 1 .572-.364l.028.007 2.763.756a.505.505 0 0 1 .347.616.49.49 0 0 1-.572.364l-.028-.007-2.762-.755a.505.505 0 0 1-.348-.617Zm11.737 2.069a.487.487 0 0 1 .604-.304l.027.01 5.771 2.233a.507.507 0 0 1 .286.65.487.487 0 0 1-.605.303l-.027-.01-5.77-2.233a.507.507 0 0 1-.286-.65Z" fill="#E4794A"/><path fill-rule="evenodd" clip-rule="evenodd" d="M51.282 26.61c0-.335-2.599-4.248-3.4-5.558-.801-1.31 1.128-2.485 2.42-.52a41.371 41.371 0 0 1 2.14 3.71" fill="#fff"/><path fill-rule="evenodd" clip-rule="evenodd" d="M48.133 19.093c.858-.335 1.872.087 2.576 1.159.565.87 1.092 1.76 1.568 2.623l.108.198.247.46.114.219.122.237.012.024a.51.51 0 0 1-.215.678.484.484 0 0 1-.645-.193l-.019-.036-.074-.146-.072-.14-.086-.164a41.729 41.729 0 0 0-1.874-3.199c-.464-.706-1.014-.934-1.414-.778-.298.116-.395.404-.184.749l.105.169c.091.147.203.324.34.541l1.19 1.86c1.43 2.24 1.84 2.922 1.84 3.256a.497.497 0 0 1-.49.504.494.494 0 0 1-.477-.389l-.006-.027-.005-.011a2.193 2.193 0 0 0-.058-.123l-.034-.064c-.08-.152-.198-.355-.348-.607l-.2-.329c-.208-.34-.46-.743-.77-1.23l-1.531-2.397a45.877 45.877 0 0 1-.386-.617c-.543-.887-.208-1.887.666-2.227Z" fill="#2F4077"/><path fill-rule="evenodd" clip-rule="evenodd" d="M53.832 32.303c0 0-2.289-3.88-2.501-5.474-.213-1.596-.458-9.152-.131-9.908.327-.755 1.684-.755 1.716 1.075.033 1.83 0 5.743 0 5.743" fill="#fff"/><path fill-rule="evenodd" clip-rule="evenodd" d="M50.752 16.718a1.263 1.263 0 0 1 1.575-.705c.66.231 1.062.95 1.08 1.975l.007.445c.005.455.008 1.01.008 1.645v.814l-.002.748-.006 1.14-.007.964a.497.497 0 0 1-.494.5.497.497 0 0 1-.486-.479v-.107l.007-1.003.005-1.019.002-.746v-1.226c-.002-.67-.007-1.23-.014-1.658-.011-.635-.193-.962-.416-1.04a.291.291 0 0 0-.362.16c-.235.544-.08 7.773.168 9.635.063.468.357 1.257.825 2.25a35.96 35.96 0 0 0 1.077 2.09l.146.263.167.297.22.381a.512.512 0 0 1-.165.692.482.482 0 0 1-.658-.144l-.045-.076-.082-.14a45.187 45.187 0 0 1-1.542-2.924l-.089-.19c-.46-.995-.75-1.793-.825-2.362l-.015-.12c-.101-.874-.205-2.946-.253-5.004l-.01-.504c-.048-2.48-.003-4.119.184-4.552Z" fill="#2F4077"/><path fill-rule="evenodd" clip-rule="evenodd" d="M52.198 29.583c-.523-1.88-.867-3.392-.801-3.896.196-1.646 1.978-9 2.599-9.571.621-.571 1.765.705 1.291 2.502l-1.193 5.205c0 0 1.814-5.625 2.24-6.213.425-.587 2.141.303.85 3.694-1.292 3.376-1.145 3.728-1.145 3.728 0 0 1.75-4.013 2.256-4.685.507-.671 2.174 1.008.017 4.55l5.247 11.386-8.206 3.526c0 0-1.995-5.995-3.155-10.226Z" fill="#fff"/><path fill-rule="evenodd" clip-rule="evenodd" d="M53.669 15.74c.57-.524 1.335-.248 1.792.46.217.337.357.746.407 1.195l.003.023.009-.015a1.3 1.3 0 0 1 .048-.078l.012-.016c.479-.662 1.434-.406 1.887.404.294.524.39 1.228.27 2.082l-.01.063.025-.018c.268-.185.611-.189.917-.018l.036.021c.328.2.58.58.71 1.064.275 1.018.017 2.375-.846 3.913l-.061.107 5.134 11.14a.51.51 0 0 1-.227.667l-.027.013-8.206 3.526a.486.486 0 0 1-.643-.274l-.014-.04-.362-1.1-.256-.788c-.466-1.44-.931-2.913-1.366-4.334l-.144-.474a39.152 39.152 0 0 1-.14-.465l-.168-.558c-.236-.795-.45-1.535-.639-2.213l-.168-.608c-.532-1.945-.794-3.212-.736-3.766l.004-.028c.1-.84.584-3.05 1.127-5.158l.102-.393c.642-2.45 1.15-3.985 1.53-4.334Zm.694.748-.018-.006c-.01-.003-.013 0-.023.01-.408.375-2.172 7.176-2.433 9.202l-.007.06c-.046.355.223 1.643.737 3.51l.134.488c.201.723.432 1.519.688 2.378l.112.371.283.934c.38 1.238.782 2.517 1.188 3.78l.346 1.071.278.85 7.247-3.115-5.027-10.908a.516.516 0 0 1 .01-.453l.017-.03c.888-1.458 1.148-2.662.934-3.453a1.03 1.03 0 0 0-.195-.406l-.017-.019-.045.073c-.184.31-.488.913-.863 1.71l-.092.196-.06.128c-.211.455-.431.94-.65 1.427l-.295.665-.126.287a.485.485 0 0 1-.898-.008.558.558 0 0 1-.036-.13c-.062-.402.233-1.52 1.174-3.98.525-1.378.55-2.369.25-2.904-.08-.145-.175-.23-.254-.26l-.02-.006-.022.04c-.144.28-.458 1.097-.856 2.227l-.105.3-.119.343-.158.462c-.133.39-.268.792-.403 1.197l-.266.806-.214.657c-.194.6-1.058.36-.95-.244l.007-.03 1.193-5.206.004-.016c.181-.686.093-1.32-.17-1.73-.096-.147-.2-.239-.28-.268Z" fill="#2F4077"/><path fill-rule="evenodd" clip-rule="evenodd" d="M130.764 74.097c0 0 3.253-1.612 4.528-1.68 1.275-.067 7.323.353 7.896.689.572.336.457 1.478-.998 1.343-1.471-.117-4.544-.487-4.544-.487" fill="#fff"/><path fill-rule="evenodd" clip-rule="evenodd" d="m135.267 71.914.101-.004c1.738-.061 7.451.399 8.063.758.508.298.709.95.464 1.496-.251.561-.871.852-1.685.792l-.249-.02a79.99 79.99 0 0 1-1.508-.149l-.582-.063c-.392-.043-.793-.088-1.191-.134l-1.091-.127a.501.501 0 0 1-.43-.56.494.494 0 0 1 .515-.444l.72.084.792.091.397.045.77.085.672.07c.39.04.733.073 1.02.098l.19.015c.47.044.706-.063.769-.204a.159.159 0 0 0-.059-.2c-.396-.232-6.104-.688-7.584-.625l-.044.002c-.37.02-1.028.213-1.864.537-.21.081-.429.17-.655.265a36.51 36.51 0 0 0-1.282.57l-.208.099-.331.16a.485.485 0 0 1-.655-.236.51.51 0 0 1 .229-.672l.152-.075.407-.193a35.84 35.84 0 0 1 1.997-.861l.177-.068c.843-.318 1.513-.507 1.983-.532Z" fill="#2F4077"/><path fill-rule="evenodd" clip-rule="evenodd" d="M125.925 73.996c0 0 3.678-.403 7.111-1.058l-7.111 1.058Z" fill="#fff"/><path fill-rule="evenodd" clip-rule="evenodd" d="M132.946 72.443a.49.49 0 0 1 .571.403.502.502 0 0 1-.392.587c-.213.04-.43.081-.651.12-1.32.24-2.727.456-4.14.648l-.641.086c-.362.047-.704.09-1.022.128l-.695.082a.494.494 0 0 1-.54-.448.502.502 0 0 1 .436-.554l.403-.046.418-.05a109.77 109.77 0 0 0 5.612-.837l.641-.12Z" fill="#2F4077"/><path fill-rule="evenodd" clip-rule="evenodd" d="M130.96 73.51c1.52-.286 4.872-1.109 5.264-1.008 1.291.302 6.964 2.435 7.356 2.989.393.57-.703 1.41-2.092.856l-4.022-1.444c0 0 4.3 1.998 4.725 2.401.425.403-.425 1.764-2.992.387-2.566-1.36-2.861-1.276-2.861-1.276 0 0 3.025 1.796 3.531 2.283.507.487-.981 1.73-3.612-.386l-5.15 1.998c-1.193-.05-10.037-2.955-9.481-3.778.556-.823 4.397-6.364 4.397-6.364l4.937 3.341Z" fill="#fff"/><path fill-rule="evenodd" clip-rule="evenodd" d="m136.176 78.88.063.047c1.157.856 2.228 1.193 3.08 1.05.417-.07.763-.26.964-.538l.023-.033a.861.861 0 0 0 .128-.685l-.003-.013.011.003c.617.139 1.148.106 1.573-.087l.037-.017c.655-.32.955-1.06.57-1.564l-.017-.021.023-.002a2.15 2.15 0 0 0 .8-.233c.639-.34.948-1.012.553-1.588-.259-.366-1.409-.912-3.293-1.66l-.274-.109c-1.634-.643-3.352-1.243-4.046-1.412l-.06-.014c-.276-.058-.829.03-2.275.337l-2.467.532a33.44 33.44 0 0 1-.429.088l-.072.014-4.772-3.23a.481.481 0 0 0-.651.104l-.268.386-3.8 5.495a60.53 60.53 0 0 0-.351.513c-.271.401-.083.764.293 1.076.22.182.544.378.972.594.746.377 1.811.816 3.058 1.271l.162.059c2.275.821 4.722 1.541 5.379 1.569a.473.473 0 0 0 .193-.032l4.896-1.9Zm-10.029-8.025 4.542 3.074a.48.48 0 0 0 .358.075l.314-.06.488-.101 2.209-.478c.472-.1.825-.173 1.137-.232l.181-.033a10.3 10.3 0 0 1 .531-.085 3.56 3.56 0 0 1 .169-.017l.048-.002h.008l.075.02c.656.17 2.146.69 3.608 1.259l.32.125.297.118c1.365.548 2.448 1.049 2.7 1.225l.019.014-.012.014a.59.59 0 0 1-.163.122c-.31.164-.769.185-1.257.005l-.07-.027-4.022-1.444c-.581-.209-.923.641-.39.921l.767.361.416.198c.346.165.688.33 1.017.49l.399.195c.482.237.897.448 1.231.624l.173.093.14.076c.119.066.219.123.297.17l.086.052-.009.01a.498.498 0 0 1-.137.086c-.41.187-1.139.092-2.126-.425l-.373-.197c-1.715-.897-2.498-1.198-2.821-1.17l-.014.002c-.036.005-.036.005-.077.015-.409.117-.487.672-.139.906l.065.04.519.312c.36.218.72.438 1.063.652l.329.207.261.165c.407.261.736.48.957.64l.103.076-.018.007a.954.954 0 0 1-.186.05c-.622.104-1.536-.212-2.602-1.069l-.028-.02a.48.48 0 0 0-.448-.054l-5.046 1.958-.021-.003c-.709-.097-3.054-.799-5.141-1.56l-.233-.085c-1.075-.398-1.995-.78-2.651-1.106l-.13-.066-.124-.064a4.682 4.682 0 0 1-.519-.313l-.028-.02 1.195-1.733 2.763-3.993ZM115.657 7.77c0 0-9.857-7.439-11.083-7.019l-5.51-.504C92.64-.34 86.969 4.53 86.38 11.128l-7.144 36.439L111.8 52l2.975-34.256c.213-.1.426-.218.622-.352 2.354-1.629 2.37-5.676.261-9.622Z" fill="#2F4077"/><path fill-rule="evenodd" clip-rule="evenodd" d="m129.864 70.959-11.019-7.96 3.221-10.88c1.259-5.593.18-12.662-5.689-14.727-2.828-.991-3.776-1.26-4.103-1.377 0 0-18.44-5.105-20.729-5.995-1.569-.604-8.173-.336-13.012 4.4l-10.675 8.395-5.362-15.901-12.686 5.34 8.354 25.54c0 0 2.746 9.89 10.086 6.23l11.247-6.7c.082 3.845.115 9.185-1.814 14.76A77.675 77.675 0 0 0 73.4 97.64c.016 10.461.049 20.117.049 20.117l48.11.436c0 0-7.928-37.345-7.928-40.569-.033-.235-.033-.487-.049-.739 4.07 2.653 9.121 5.004 9.121 5.004l7.161-10.931Z" fill="#E4794A"/><path fill-rule="evenodd" clip-rule="evenodd" d="M114.006 43.947a.488.488 0 0 1 .616.328l.412 1.312c.332 1.05.734 2.315.842 2.663l.087.28c.411 1.337.701 2.38.928 3.37.601 2.623.712 4.766.257 6.845-.602 2.753-2.219 5.36-5.108 8.107l-.114.107 3.396 17.907a.504.504 0 0 1-.359.585l-.028.006a.49.49 0 0 1-.569-.369l-.006-.029-3.45-18.185a.512.512 0 0 1 .154-.471c2.95-2.727 4.552-5.249 5.127-7.88.418-1.91.315-3.906-.255-6.392l-.047-.2a49.324 49.324 0 0 0-.904-3.236l-.248-.79c-.316-.999-.863-2.719-1.05-3.325a.507.507 0 0 1 .319-.633Z" fill="#2F4077"/><path fill-rule="evenodd" clip-rule="evenodd" d="m80.136 57.39 9.645-6.162-9.645 6.163Z" fill="#fff"/><path fill-rule="evenodd" clip-rule="evenodd" d="M89.52 50.8a.483.483 0 0 1 .676.162.513.513 0 0 1-.132.677l-.025.017-9.645 6.162a.483.483 0 0 1-.675-.161.512.512 0 0 1 .132-.677l.025-.017 9.645-6.163Zm-21.39-8.147a.482.482 0 0 1 .688.088l.079.108.038.053a18.21 18.21 0 0 1 1.2 1.939c.57 1.067.99 2.12 1.196 3.121.208 1.01.19 1.932-.103 2.737a.487.487 0 0 1-.63.296.508.508 0 0 1-.289-.648c.22-.606.235-1.339.063-2.176-.184-.891-.57-1.858-1.097-2.846a17.2 17.2 0 0 0-.85-1.421l-.086-.127a13.627 13.627 0 0 0-.157-.227l-.122-.168-.016-.022a.513.513 0 0 1 .085-.707Z" fill="#2F4077"/><path fill-rule="evenodd" clip-rule="evenodd" d="m107.926 27.635.098 7.389 3.776 1.158c.164.655-1.291 11.855-10.887 8.984-6.294-1.88-8.615-9.05-8.991-14.777l5.247 1.797-.343-13.854 11.1 9.303Z" fill="#fff"/><path fill-rule="evenodd" clip-rule="evenodd" d="m96.335 18.345.325 13.136-4.584-1.57a.494.494 0 0 0-.644.512c.213 3.25.992 6.433 2.332 9.032 1.605 3.114 3.942 5.277 7.011 6.195 4.438 1.327 7.641-.09 9.656-3.386.717-1.172 1.235-2.517 1.562-3.878l.032-.136c.224-.976.326-1.885.25-2.193l-.009-.032a.499.499 0 0 0-.326-.325l-3.431-1.053-.093-7.019a.508.508 0 0 0-.181-.383l-11.1-9.303c-.325-.272-.81-.027-.8.403Zm1.008 1.072 10.095 8.46.095 7.154.001.031a.502.502 0 0 0 .349.445l3.428 1.051-.003.031a4.503 4.503 0 0 1-.023.225c-.045.386-.128.847-.244 1.332-.303 1.263-.784 2.51-1.441 3.583-1.79 2.928-4.551 4.15-8.551 2.954-2.795-.836-4.93-2.812-6.418-5.699l-.069-.135c-1.114-2.213-1.812-4.883-2.082-7.645l-.01-.095 4.544 1.555a.493.493 0 0 0 .645-.49l-.316-12.757Z" fill="#2F4077"/><path fill-rule="evenodd" clip-rule="evenodd" d="M92.563 21.092a.484.484 0 0 1 .66-.22.51.51 0 0 1 .215.677c-.455.919-.62 2.2-.426 3.543.359 2.476 1.795 4.252 3.118 4.09a.493.493 0 0 1 .545.442.5.5 0 0 1-.429.56c-1.97.24-3.777-1.997-4.205-4.944-.221-1.54-.03-3.032.522-4.148Zm22.249-.637a.485.485 0 0 1 .66-.22.51.51 0 0 1 .215.677c-.455.919-.62 2.2-.426 3.543.359 2.475 1.795 4.252 3.118 4.09a.494.494 0 0 1 .545.441.5.5 0 0 1-.429.56c-1.969.24-3.777-1.996-4.205-4.944-.221-1.54-.03-3.031.522-4.147Z" fill="#E4794A"/><path fill-rule="evenodd" clip-rule="evenodd" d="M97.616 19.971c.841-1.776.049-3.953-1.77-4.861-1.819-.909-3.975-.205-4.816 1.571-.841 1.776-.049 3.953 1.77 4.862 1.819.908 3.975.205 4.816-1.572Z" fill="#fff"/><path fill-rule="evenodd" clip-rule="evenodd" d="M90.59 16.46c-.962 2.031-.06 4.507 1.998 5.535 2.058 1.029 4.51.23 5.471-1.802.962-2.031.06-4.507-1.998-5.535-2.058-1.028-4.51-.23-5.472 1.802Zm.881.44c.72-1.52 2.58-2.127 4.16-1.337 1.58.79 2.265 2.668 1.545 4.188-.72 1.52-2.58 2.127-4.16 1.337-1.58-.79-2.265-2.667-1.545-4.188Z" fill="#2F4077"/><path fill-rule="evenodd" clip-rule="evenodd" d="M119.531 18.707c.743-1.568.041-3.49-1.566-4.293-1.608-.804-3.513-.184-4.256 1.384-.742 1.568-.041 3.49 1.567 4.293 1.608.804 3.513.184 4.255-1.384Z" fill="#fff"/><path fill-rule="evenodd" clip-rule="evenodd" d="M113.269 15.58c-.863 1.823-.052 4.043 1.795 4.966 1.846.923 4.047.208 4.91-1.615.863-1.823.052-4.044-1.794-4.967-1.847-.923-4.048-.207-4.911 1.616Zm.882.44c.621-1.312 2.23-1.835 3.599-1.151 1.37.684 1.962 2.308 1.341 3.62-.621 1.312-2.23 1.835-3.599 1.15-1.369-.684-1.962-2.307-1.341-3.62Z" fill="#2F4077"/><path fill-rule="evenodd" clip-rule="evenodd" d="M108.049 29.892c5.406-.976 8.79-7.609 7.557-14.815-1.232-7.207-6.614-12.258-12.02-11.283-5.406.976-8.79 7.609-7.558 14.815 1.233 7.207 6.614 12.258 12.021 11.283Z" fill="#fff"/><path fill-rule="evenodd" clip-rule="evenodd" d="M103.503 3.299c-5.706 1.03-9.234 7.942-7.96 15.398 1.273 7.456 6.882 12.718 12.588 11.688 5.706-1.03 9.234-7.943 7.96-15.399-1.274-7.455-6.882-12.718-12.588-11.687Zm.169.993c5.11-.923 10.264 3.914 11.453 10.87 1.188 6.956-2.054 13.309-7.164 14.232-5.109.922-10.264-3.915-11.452-10.87-1.189-6.956 2.054-13.31 7.163-14.232Z" fill="#2F4077"/><path fill-rule="evenodd" clip-rule="evenodd" d="M107.771 13.83a.49.49 0 0 1 .589.336l.008.028 1.357 5.46c.123.504-.234 1.007-.724 1.028l-1.979.051a.497.497 0 0 1-.502-.49.499.499 0 0 1 .449-.515l.029-.002 1.722-.044-1.302-5.238a.505.505 0 0 1 .326-.605l.027-.008Zm-5.777-3.043c.777-.445 1.599-.608 2.397-.29.281.112.546.282.791.511a.513.513 0 0 1 .033.712.482.482 0 0 1-.693.034 1.558 1.558 0 0 0-.486-.318c-.476-.19-1.017-.082-1.564.231a3.185 3.185 0 0 0-.35.232l-.059.046-.029.024-.028.024a.481.481 0 0 1-.692-.043.514.514 0 0 1 .041-.711c.132-.12.35-.286.639-.452Zm7.784-.198c.521-.12 1.064-.155 1.588-.045a2.397 2.397 0 0 1 1.701 1.307.51.51 0 0 1-.206.68.484.484 0 0 1-.648-.186l-.014-.026a1.42 1.42 0 0 0-1.03-.788c-.368-.077-.778-.051-1.176.04a3.953 3.953 0 0 0-.177.047l-.092.029-.013.005a.488.488 0 0 1-.629-.302.508.508 0 0 1 .294-.646c.084-.03.222-.074.402-.115Zm-3.955 6.091c.026-.658-.304-1.206-.737-1.224-.433-.018-.805.501-.831 1.159-.026.658.304 1.206.737 1.224.433.018.805-.501.831-1.16Zm5.837 1.316c.423-.028.733-.583.691-1.24-.041-.658-.418-1.168-.841-1.14-.424.029-.733.584-.692 1.241.041.657.418 1.167.842 1.139Zm-9.423 2.836c.084 2.874 1.104 4.314 2.765 4.465.625.057 1.273-.079 1.909-.338.318-.13.565-.26.713-.353a.511.511 0 0 0 .028-.842l-4.643-3.359c-.33-.239-.785.012-.772.427Zm1.061 1.013 3.093 2.238c-.453.166-.899.247-1.302.21-.902-.082-1.532-.752-1.771-2.307l-.02-.14Z" fill="#2F4077"/><path fill-rule="evenodd" clip-rule="evenodd" d="M117.302 18.355c1.943-.293 3.538 2.047 3.989 5.194.428 2.98-.724 5.695-2.718 5.996l-.036.004-.036.001h-.065a.498.498 0 0 1-.491-.503c0-.269.205-.488.462-.503l.029-.001h.027l.007-.002c1.302-.236 2.188-2.327 1.861-4.77l-.01-.075c-.382-2.667-1.651-4.529-2.876-4.344a.493.493 0 0 1-.557-.425.502.502 0 0 1 .414-.572Zm-22.543.907c1.998-.301 3.858 1.951 4.284 4.942.427 2.98-.725 5.695-2.72 5.996l-.035.004-.035.001h-.066a.497.497 0 0 1-.49-.503c0-.269.204-.488.461-.503l.03-.001h.026l.007-.001c1.302-.236 2.188-2.328 1.862-4.771l-.01-.075c-.358-2.511-1.831-4.294-3.171-4.092a.493.493 0 0 1-.557-.425.502.502 0 0 1 .414-.572Z" fill="#E4794A"/><path fill-rule="evenodd" clip-rule="evenodd" d="m102.547.6-.016.034c-3.319.47-7.046 2.015-9.138 4.265-2.452 2.67-2.567 7.405-1.259 10.461 1.03-.739 2.452-.873 3.71-.252.066.034.132.067.18.101 4.872-2.032 4.938-9.638 4.938-10.31 1.078.89 2.468 2.418 2.092 4.064l17.361 1.259c0 .017 3.564-13.148-17.868-9.622Zm-2.387 4.72c.229-.185.458-.336.703-.487.016.017.033.034.049.034l-.752.453Z" fill="#2F4077"/><path fill-rule="evenodd" clip-rule="evenodd" d="M152.602 113.391h-21.039l-6.049-27.236c-.13-.588-.621-1.008-1.193-1.008H79.219c-.801 0-1.373.79-1.194 1.612l6.752 30.427c.13.588.621 1.008 1.193 1.008h62.414c5.101 0 4.218-4.803 4.218-4.803Z" fill="#465F9D"/><path fill-rule="evenodd" clip-rule="evenodd" d="m167.887 93.191 1.193 10.865c0 0-17.638 2.401-25.485 3.106-.36.034-6.98 4.332-6.261 4.685 4.267 2.082-.54 4.013 5.084 3.241 0 0 18.178 2.065 35.049-1.108 2.027-.387 4.201-2.167 4.789-4.198.981-3.359 1.21-12.678.082-21.04.033-.034-14.451 4.45-14.451 4.45Z" fill="#fff"/><path fill-rule="evenodd" clip-rule="evenodd" d="m182.326 88.237-.053.005a.197.197 0 0 0-.022.003l-.041.01-.061.016-.319.095-2.155.66-4.732 1.458-7.198 2.225-.028.01a.504.504 0 0 0-.318.529l1.139 10.373-2.808.376-.567.075c-2.922.386-5.912.773-8.796 1.133l-1.169.146-1.493.183c-4.271.521-7.745.91-10.154 1.126-.323.031-2.071 1.125-3.768 2.308l-.281.198a25.976 25.976 0 0 0-1.86 1.419c-.298.257-.515.472-.651.655a.954.954 0 0 0-.193.406.6.6 0 0 0 .324.656c.827.403 1.307.802 1.541 1.202.149.253.189.445.205.854l.002.057c.023.695.162 1.041.746 1.24l.028.009c.479.152 1.266.132 2.665-.053l.114-.016.363.038.431.042.623.057c.689.06 1.453.12 2.285.177l.18.012c8.961.6 18.679.477 27.822-.872a87.374 87.374 0 0 0 3.427-.574c2.268-.432 4.545-2.387 5.172-4.55l.031-.112c1.044-3.757 1.13-13.253.066-21.14l-.015.001v-.002c-.018-.182-.048-.21-.206-.355l-.159-.061c-.07-.025-.081-.024-.117-.019Zm-.398 1.15.017.133c.958 7.691.837 16.71-.158 20.117-.518 1.787-2.493 3.483-4.41 3.848a86.952 86.952 0 0 1-3.388.567c-9.066 1.338-18.72 1.46-27.619.864l-.354-.024c-.875-.061-1.671-.125-2.379-.189l-.508-.048-.396-.039-.261-.028a.474.474 0 0 0-.119.001l-.233.031c-1.209.158-1.883.175-2.176.085l-.045-.015c-.031-.012-.037-.026-.041-.125l-.006-.184c-.02-.608-.083-.947-.348-1.397l-.031-.052c-.288-.464-.754-.886-1.439-1.281l-.052-.029.011-.01a7.76 7.76 0 0 1 .281-.255l.105-.09a29.55 29.55 0 0 1 1.956-1.465 60.577 60.577 0 0 1 2.152-1.43l.132-.083c.302-.188.564-.347.766-.463l.045-.026c.088-.05.161-.089.216-.117l.048-.024.365-.033c2.538-.237 6.124-.643 10.493-1.18l1.152-.143.782-.097c2.625-.328 5.336-.678 8.004-1.029l2.446-.324 2.209-.297.028-.005a.502.502 0 0 0 .395-.551l-1.147-10.447 12.309-3.8 1.198-.365Z" fill="#2F4077"/><path fill-rule="evenodd" clip-rule="evenodd" d="M136.173 113.51c-1.962 2.317-4.283 2.989-3.956 1.494.114-.554 4.773-5.424 6.473-6.28 1.308-.655 3.27-1.36 5.967-1.679" fill="#fff"/><path fill-rule="evenodd" clip-rule="evenodd" d="M132.689 115.148a.604.604 0 0 0-.013.125l.001.019.01.002c.077.014.236-.001.453-.071l.041-.014c.761-.263 1.757-1.008 2.622-2.03a.481.481 0 0 1 .692-.049c.204.182.226.5.048.71-.972 1.148-2.108 1.999-3.05 2.324-1.135.391-2.013-.09-1.756-1.264.179-.864 5.12-5.813 6.739-6.629 1.646-.824 3.689-1.438 6.125-1.727a.495.495 0 0 1 .544.443.5.5 0 0 1-.431.558c-2.327.275-4.262.858-5.807 1.631-.707.356-2.143 1.597-3.705 3.162l-.193.194a41.803 41.803 0 0 0-1.537 1.635l-.167.192c-.175.202-.32.378-.43.522l-.029.038a2.788 2.788 0 0 0-.127.179l-.024.038c-.003.004-.004.002-.001-.012l-.005.024Z" fill="#2F4077"/><path fill-rule="evenodd" clip-rule="evenodd" d="M139.476 111.561c0 0-1.945.47-3.139 1.797-1.193 1.343-2.109 2.183-1.896 2.468.196.286 1.471.588 2.289-.185 1.046-1.393 4.021-2.317 4.021-2.317-.327.034-2.387.739-3.384 1.612-.981.857-1.504 2.536 1.177 1.293 0 0 2.746-.839 3.809-1.192" fill="#fff"/><path fill-rule="evenodd" clip-rule="evenodd" d="M139.364 111.072a.49.49 0 0 1 .59.375.504.504 0 0 1-.366.605l-.023.006c-.028.008-.071.019-.127.036a7.082 7.082 0 0 0-1.73.777 4.668 4.668 0 0 0-1.008.827l-.45.496c-.392.431-.891.977-1.018 1.127l-.074.087a7.715 7.715 0 0 0-.093.117l-.042.055.035.009c.079.018.166.031.256.036l.054.003c.378.012.73-.094.993-.323l.011-.011.014-.017c.046-.059.095-.116.146-.173l.045-.049.004-.005c.125-.162.269-.317.425-.458l.043-.038c.884-.774 2.963-1.659 3.653-1.73.581-.06.753.777.22.974l-.204.067-.15.053a13.552 13.552 0 0 0-1.782.774c-.608.321-1.101.658-1.437.995l-.017.017-.021.028a1.659 1.659 0 0 0-.236.423l-.004.014h.014c.234-.003.616-.111 1.131-.341l.127-.057.03-.013.046-.015.644-.198 1.047-.324 1.01-.315c.458-.144.826-.262 1.083-.347a.487.487 0 0 1 .617.324.506.506 0 0 1-.316.634l-.405.132c-.194.063-.418.134-.669.213l-.632.198-.819.254-1.264.39-.045.02c-.631.286-1.134.436-1.526.451l-.047.001c-.477.006-.845-.209-.971-.614l-.009-.03-.007.002c-.807.227-1.702.069-2.048-.386l-.01-.015c-.194-.259-.165-.542-.02-.831l.018-.034c.085-.16.213-.336.399-.558l.044-.052c.206-.243 1.244-1.37 1.484-1.641a5.727 5.727 0 0 1 1.22-1.007 8.056 8.056 0 0 1 1.481-.72l.11-.041c.251-.089.45-.147.576-.177Zm-48.474 7.122H55.94a.796.796 0 0 1-.785-.806V110.1c0-.437.344-.806.785-.806h34.95c.426 0 .785.353.785.806v7.288c0 .453-.36.806-.784.806Z" fill="#2F4077"/><path fill-rule="evenodd" clip-rule="evenodd" d="M86.836 116.162c.993 0 1.799-.857 1.799-1.914 0-1.057-.806-1.915-1.799-1.915-.993 0-1.798.858-1.798 1.915 0 1.057.805 1.914 1.798 1.914Zm-9.906.001H58.524a.7.7 0 0 1-.686-.705v-2.435a.7.7 0 0 1 .686-.705h18.408a.7.7 0 0 1 .686.705v2.435a.69.69 0 0 1-.686.705Z" fill="#fff"/><path fill-rule="evenodd" clip-rule="evenodd" d="M96.645 109.261h-34.95a.796.796 0 0 1-.785-.806v-7.288c0-.436.344-.806.785-.806h34.95c.425 0 .785.353.785.806v7.288a.796.796 0 0 1-.785.806Z" fill="#FAA184"/><path fill-rule="evenodd" clip-rule="evenodd" d="M92.608 107.229c.993 0 1.798-.857 1.798-1.914 0-1.057-.805-1.914-1.798-1.914-.993 0-1.798.857-1.798 1.914 0 1.057.805 1.914 1.798 1.914Zm-9.906 0H64.278a.7.7 0 0 1-.686-.705v-2.435a.7.7 0 0 1 .686-.705h18.407a.7.7 0 0 1 .687.705v2.435c0 .403-.294.705-.67.705Z" fill="#fff"/><path fill-rule="evenodd" clip-rule="evenodd" d="M249.51 117.992c.27 0 .49.226.49.504a.498.498 0 0 1-.462.503l-.028.001H.49a.498.498 0 0 1-.49-.504c0-.268.204-.488.462-.503l.028-.001h249.02Z" fill="#2F4077"/></svg>