<svg width="298" height="121" viewBox="0 0 298 121" fill="none" xmlns="http://www.w3.org/2000/svg"><path fill="#fff" d="M59.565 1.075h143.873v118.512H59.565z"/><path fill-rule="evenodd" clip-rule="evenodd" d="M203.439.512H59.566a.564.564 0 0 0-.566.563v118.512c0 .311.253.563.566.563h143.873a.564.564 0 0 0 .565-.563V1.075a.564.564 0 0 0-.565-.563Zm-.566 1.126v117.386H60.131V1.638h142.742Z" fill="#2F4077"/><path fill="#FAA184" d="M141.389 89.631h8.067v12.538h-8.067zm12.647-5.275h8.067v17.813h-8.067zm12.667-8.334h8.067v26.146h-8.067z"/><path fill="#E4794A" d="M179.351 68.815h8.067v33.354h-8.067z"/><path fill-rule="evenodd" clip-rule="evenodd" d="M190.151 51.697a.589.589 0 0 0-.453-.131l-5.277.844c-.302.057-.528.338-.471.639.056.3.339.506.64.469l3.45-.545-10.292 11.9-4.203-4.016a.5.5 0 0 0-.415-.15.53.53 0 0 0-.395.187L158.937 76.85l-3.996-2.985a.572.572 0 0 0-.735.038l-12.384 11.825a.559.559 0 0 0-.018.788.584.584 0 0 0 .414.169.65.65 0 0 0 .396-.15l12.045-11.506 4.052 3.022c.245.169.565.15.773-.075l13.741-15.898 4.203 4.016a.502.502 0 0 0 .415.15.53.53 0 0 0 .395-.187l10.989-12.707-.075 4.448c0 .32.245.563.565.563a.566.566 0 0 0 .566-.563l.094-5.687a1.001 1.001 0 0 0-.226-.413Z" fill="#E4794A"/><path fill-rule="evenodd" clip-rule="evenodd" d="M108.78 88.636a.564.564 0 0 1 .033 1.125H74.098a.564.564 0 0 1-.033-1.125h34.715Zm-9.161 5.255a.564.564 0 0 1 .033 1.125l-.033.001H74.098a.564.564 0 0 1-.033-1.125h25.553Zm-8.18 5.894a.564.564 0 0 1 .033 1.125l-.033.001H73.344a.564.564 0 0 1-.033-1.125h18.128Zm36.302-11.149a.564.564 0 0 1 .034 1.125h-15a.564.564 0 0 1-.033-1.124l.033-.001h14.966Z" fill="#2F4077"/><path fill="#465F9D" d="M73.344 72.569h54.398v10.398H73.344z"/><path fill-rule="evenodd" clip-rule="evenodd" d="M84.22 72.006c.3 0 .547.234.564.53l.001.033v10.417a.564.564 0 0 1-1.13.033V72.57c0-.311.252-.563.565-.563Zm10.876 0c.3 0 .547.234.564.53l.001.033v10.417a.564.564 0 0 1-1.13.033V72.57c0-.311.252-.563.565-.563Zm10.876 0c.301 0 .547.234.564.53l.001.033v10.417a.565.565 0 0 1-1.13.033l-.001-.033V72.57c0-.311.253-.563.566-.563Zm10.894 0c.301 0 .548.234.565.53l.001.033v10.417a.564.564 0 0 1-.566.563.564.564 0 0 1-.564-.53l-.001-.033V72.57c0-.311.253-.563.565-.563Z" fill="#fff"/><path fill-rule="evenodd" clip-rule="evenodd" d="M83.828 72.163a.567.567 0 0 1 .8.016.563.563 0 0 1 .01.77l-.026.026-10.876 10.417a.567.567 0 0 1-.8-.016.562.562 0 0 1-.01-.77l.026-.026 10.876-10.417Z" fill="#fff"/><path fill-rule="evenodd" clip-rule="evenodd" d="M72.932 72.183a.567.567 0 0 1 .773-.048l.026.024L84.4 82.163c.227.213.238.57.024.796a.567.567 0 0 1-.773.048l-.026-.024L72.956 72.98a.562.562 0 0 1-.024-.796Z" fill="#fff"/><path fill-rule="evenodd" clip-rule="evenodd" d="M94.704 72.163a.567.567 0 0 1 .8.016.563.563 0 0 1 .01.77l-.026.026-10.876 10.417a.567.567 0 0 1-.8-.016.562.562 0 0 1-.01-.77l.026-.026 10.876-10.417Z" fill="#fff"/><path fill-rule="evenodd" clip-rule="evenodd" d="M83.808 72.183a.567.567 0 0 1 .773-.048l.026.024 10.669 10.004c.227.213.238.57.024.796a.567.567 0 0 1-.773.048l-.026-.024L83.832 72.98a.561.561 0 0 1-.024-.796Z" fill="#fff"/><path fill-rule="evenodd" clip-rule="evenodd" d="M105.58 72.163a.567.567 0 0 1 .799.016.56.56 0 0 1 .01.77l-.025.026-10.876 10.417a.567.567 0 0 1-.8-.016.562.562 0 0 1-.01-.77l.026-.026 10.876-10.417Z" fill="#fff"/><path fill-rule="evenodd" clip-rule="evenodd" d="M94.684 72.183a.567.567 0 0 1 .773-.048l.026.024 10.669 10.004c.227.213.238.57.024.796a.568.568 0 0 1-.773.048l-.026-.024L94.708 72.98a.561.561 0 0 1-.024-.796Z" fill="#fff"/><path fill="#E4794A" d="M176.334 34.392h5.843v5.819h-5.843zM161.01 23.843h22.336v6.701H161.01z"/><path fill-rule="evenodd" clip-rule="evenodd" d="M172.376 39.647a.564.564 0 0 1 .033 1.125l-.033.001H161.01a.565.565 0 0 1-.566-.563c0-.3.236-.545.533-.562l.033-.001h11.366Zm0-2.759a.564.564 0 0 1 .033 1.125H161.01a.565.565 0 0 1-.566-.562c0-.3.236-.545.533-.562l.033-.001h11.366Zm0-2.74a.564.564 0 0 1 .033 1.125H161.01a.565.565 0 0 1-.566-.562c0-.3.236-.545.533-.563h11.399Zm1.357 21.228a.564.564 0 0 1 .033 1.125l-.033.001h-31.044a.564.564 0 0 1-.034-1.125l.034-.001h31.044Zm-12.723 2.647a.564.564 0 0 1 .033 1.125h-18.354a.564.564 0 0 1-.034-1.125h18.355Z" fill="#2F4077"/><path fill-rule="evenodd" clip-rule="evenodd" d="m110.834 39.91 21.3-10.755a23.747 23.747 0 0 1 2.582 10.755c0 13.045-10.782 23.781-23.882 23.781a23.897 23.897 0 0 1-18.679-8.972l18.679-14.81Z" fill="#E4794A"/><path fill-rule="evenodd" clip-rule="evenodd" d="M148.853 21.196a.564.564 0 0 1 .033 1.125l-.033.002h-25.465a.564.564 0 0 1-.033-1.126h25.498Zm0 2.647a.564.564 0 0 1 .033 1.125l-.033.001h-10.518a.564.564 0 0 1-.033-1.125l.033-.001h10.518Zm0 2.665a.564.564 0 0 1 .033 1.126h-7.007a.565.565 0 0 1-.566-.563c0-.3.236-.545.533-.562h7.007Zm.603 15.767a.564.564 0 0 1 .034 1.125l-.034.001h-25.483a.564.564 0 0 1-.034-1.125l.034-.001h25.483Zm0 2.083a.564.564 0 0 1 .034 1.125l-.034.001h-4.768a.564.564 0 0 1-.034-1.125l.034-.001h4.768ZM96.36 19a.564.564 0 0 1 .033 1.125l-.034.001H81.167a.564.564 0 0 1-.033-1.125l.033-.001h15.192Zm-12.14 2.14a.564.564 0 0 1 .033 1.125h-3.086a.564.564 0 0 1-.033-1.124l.033-.001h3.053Z" fill="#2F4077"/><path fill-rule="evenodd" clip-rule="evenodd" d="m88.367 55.17 18-14.21-22.976.245a22.916 22.916 0 0 0 4.976 13.965Zm-2.45-24.514a22.755 22.755 0 0 0-1.546 8.278v.3l22.958-.3-21.412-8.278Zm37.113-13.739-11.328 19.84 20.527-10.155a22.736 22.736 0 0 0-9.199-9.685Z" fill="#FAA184"/><path fill-rule="evenodd" clip-rule="evenodd" d="M120.372 17.442a23.053 23.053 0 0 0-11.253-3.022h-.377a22.948 22.948 0 0 0-21.148 14.51l21.374 8.352 11.404-19.84Z" fill="#465F9D"/><path fill-rule="evenodd" clip-rule="evenodd" d="M87.688 44.433a.564.564 0 0 1 .034 1.125l-.034.001H72.496a.564.564 0 0 1-.033-1.125h15.225Zm-9.707 2.14a.564.564 0 0 1 .033 1.125h-5.518a.564.564 0 0 1-.033-1.124l.033-.001h5.485Z" fill="#2F4077"/><path fill-rule="evenodd" clip-rule="evenodd" d="M191.94 109.884c0 0-4.052-.226-8.35.525-2.563.451-6.917 1.183-7.351 1.84-1.036 1.558 2.903 2.327 4.75 1.051" fill="#fff"/><path fill-rule="evenodd" clip-rule="evenodd" d="m191.367 109.3.257.007.286.011a.976.976 0 0 0 .062.003.564.564 0 0 1-.03 1.126l-.236-.01a35.173 35.173 0 0 0-.185-.006c-2.248-.069-4.944.048-7.61.495l-1.537.269-.691.124-.507.093-.243.046c-1.758.333-3.021.627-3.756.897a2.884 2.884 0 0 0-.4.175l-.058.035-.022.015-.004.008c-.08.126-.077.182-.009.261l.015.018c.154.165.496.324.95.419 1.045.219 2.297.049 3.018-.449a.567.567 0 0 1 .787.142.561.561 0 0 1-.142.783c-1.002.692-2.567.904-3.895.626-.663-.139-1.209-.392-1.547-.756-.446-.479-.492-1.109-.103-1.693.177-.269.504-.451 1.019-.64l.116-.042c.779-.271 1.962-.548 3.569-.857l.497-.095c.29-.054.592-.109.92-.168l1.605-.282c2.752-.481 5.531-.616 7.874-.555Z" fill="#2F4077"/><path fill-rule="evenodd" clip-rule="evenodd" d="M180.725 115.683c-2.393.582-3.524.432-2.902-.844.452-.92 6.503-4.036 7.69-4.374 1.187-.356 11.554-1.839 11.554-1.839l2.658 10.961h-15.004c-3.637.226-2.582-1.82-1.093-2.346 1.489-.544 4.222-1.802 4.637-1.708 0 0-3.902 1.108-5.655 2.196-1.244.488-2.639-.356-2.77-.75-.132-.395.998-1.465 2.902-2.422 1.904-.957 4.354-1.802 4.354-1.802" fill="#fff"/><path fill-rule="evenodd" clip-rule="evenodd" d="m197.608 108.462.009.032 2.658 10.961a.564.564 0 0 1-.517.695l-.033.001H184.74l-.064.003c-1.846.099-2.948-.379-2.988-1.408l-.001-.045c-.001-.08.006-.161.02-.241l.007-.033-.054-.002c-1.055-.052-2.098-.593-2.344-1.232l-.013-.036c-.064-.191-.042-.401.053-.623l.006-.012-.045.005c-.517.063-.933.061-1.261-.011l-.049-.011c-.907-.224-1.14-.994-.692-1.914.284-.577 1.661-1.482 3.806-2.651l.351-.189c1.58-.847 3.162-1.599 3.81-1.804l.111-.033c.552-.153 2.348-.458 5.131-.886l.626-.096c.812-.124 1.662-.252 2.525-.38l2.252-.33 1.06-.153a.564.564 0 0 1 .621.393Zm1.399 10.562-2.368-9.767-1.312.19-1.486.219c-.615.091-1.223.182-1.816.272l-1.762.27c-2.447.38-4.096.662-4.557.788l-.037.011c-1.391.396-7.041 3.475-7.337 4.078l-.034.071a1.107 1.107 0 0 0-.076.222l-.003.015.004.002a.814.814 0 0 0 .035.011l.021.005c.373.092 1.161.005 2.313-.274a.543.543 0 0 1 .097-.015l.007-.001.024-.017a13.158 13.158 0 0 1 1.691-1.01l.077-.039c.339-.171.708-.345 1.102-.52a42.551 42.551 0 0 1 2.282-.932l.228-.086.323-.119.258-.093.231-.082a.564.564 0 0 1 .401 1.053l-.306.109-.196.071a42.68 42.68 0 0 0-2.76 1.107c-.378.169-.731.335-1.054.497-.861.433-1.598.911-2.098 1.344a3.233 3.233 0 0 0-.417.421l-.023.029.035.028c.136.102.317.201.517.277.458.176.931.208 1.337.067l.013-.005.048-.029c.573-.342 1.349-.696 2.286-1.058l.123-.047c.401-.153.816-.302 1.239-.447l.268-.09.262-.105c1.112-.44 1.474-.53 1.787-.464l.016.003c.571.129.593.931.03 1.091l-.164.048-.301.09c-.133.04-.274.083-.421.13l-.112.035c-.167.052-.333.106-.5.161l-.193.064-.614.249-1.298.531c-.391.159-.645.258-.898.352l-.102.037c-.555.196-1.001.661-.999.919 0 .056.039.107.214.182.308.134.834.196 1.569.158l.085-.005.036-.001 14.285-.001Z" fill="#2F4077"/><path fill-rule="evenodd" clip-rule="evenodd" d="m242.475 79.007.565 33.617c.057 3.754-2.978 6.851-6.767 6.851h-38.715c0 0-2.375-10.605-4.524-11.018l10.914-1.99.019-56.046 31.571 16.874a12.65 12.65 0 0 1 6.937 11.712Z" fill="#465F9D"/><path fill-rule="evenodd" clip-rule="evenodd" d="M222.773 87.793a.565.565 0 0 1 .602.488l.004.032.98 13.346a.564.564 0 0 1-.417.585l-.033.007-22.449 4.599a.562.562 0 0 1-.26-1.095l.032-.008 21.962-4.499-.943-12.852a.564.564 0 0 1 .489-.6l.033-.003Zm-3.539-15.468-.924-.206c-3.807-.845-6.22-4.599-5.372-8.39l1.81-8.165c.848-3.792 4.618-6.194 8.425-5.35l.924.207c3.807.845 6.22 4.599 5.372 8.39l-1.81 8.165c-.829 3.791-4.618 6.194-8.425 5.35Z" fill="#fff"/><path fill-rule="evenodd" clip-rule="evenodd" d="m214.196 55.442-1.81 8.166c-.915 4.09 1.686 8.148 5.802 9.06l.922.207c4.115.913 8.206-1.684 9.102-5.78l1.809-8.162c.915-4.091-1.685-8.148-5.801-9.062l-.923-.206c-4.11-.911-8.184 1.678-9.101 5.777Zm8.855-4.678.922.207c3.508.778 5.724 4.234 4.944 7.718l-1.81 8.166c-.762 3.486-4.247 5.698-7.75 4.92l-.923-.206c-3.507-.778-5.723-4.234-4.943-7.718l1.809-8.166a6.502 6.502 0 0 1 7.751-4.92Z" fill="#2F4077"/><path fill-rule="evenodd" clip-rule="evenodd" d="M235.387 46.291c0 0 6.032-11.693-5.786-17.943-1.093-.582-8.708-4.411-12.365 1.727-2.432 4.091-4.222 8.821-5.334 12.594 0 .019-2.224 7.076-.735 11.881 1.489 4.805 7.765 6.476 11.667 5.631 3.902-.844 4.825-1.652 6.503-3.622 1.677-1.971 6.032-10.23 6.032-10.23l.018-.038Z" fill="#fff"/><path fill-rule="evenodd" clip-rule="evenodd" d="m216.749 29.788-.124.211c-2.152 3.674-3.971 8.118-5.266 12.512l-.003.012.001-.006-.001.007-.051.172-.046.16-.048.172-.051.186a34.718 34.718 0 0 0-.436 1.837c-.408 1.954-.649 3.91-.636 5.744.011 1.452.181 2.77.538 3.922.748 2.413 2.654 4.23 5.256 5.289 2.28.928 4.942 1.187 7.072.726l.227-.05c3.47-.77 4.624-1.467 6.526-3.687l.061-.072c.597-.701 1.514-2.138 2.685-4.152l.273-.471.21-.368a181.88 181.88 0 0 0 1.853-3.33l.341-.629.222-.411.517-.97.03-.06c.079-.157.186-.388.31-.688.19-.46.376-.974.546-1.534.474-1.557.75-3.202.736-4.874-.037-4.74-2.354-8.798-7.625-11.585l-.192-.1a16.42 16.42 0 0 0-1.754-.77c-1.143-.426-2.316-.727-3.481-.85-3.209-.337-5.895.715-7.637 3.57l-.053.087Zm7.571-2.536c1.062.111 2.143.39 3.204.785.719.268 1.319.546 1.81.808 4.894 2.588 6.992 6.261 7.027 10.6.012 1.549-.246 3.084-.688 4.539-.16.523-.333 1.003-.51 1.43l-.064.152-.09.206-.065.14-.043.09-.058.112-.349.657c-.136.254-.282.525-.437.81l-.078.145a186.951 186.951 0 0 1-2.026 3.65l-.209.364-.205.355c-1.146 1.976-2.053 3.404-2.604 4.065l-.145.17c-1.744 2.025-2.707 2.572-6.076 3.301-1.903.412-4.332.176-6.404-.668-2.31-.94-3.964-2.517-4.603-4.578-.321-1.037-.478-2.248-.488-3.598-.012-1.678.202-3.48.568-5.29l.055-.27.032-.147c.18-.824.452-1.87.554-2.257l.016.005c1.271-4.312 3.056-8.674 5.157-12.26l.121-.206c1.493-2.505 3.765-3.409 6.598-3.11Z" fill="#2F4077"/><path fill-rule="evenodd" clip-rule="evenodd" d="M211.901 42.65c1.113-3.754 2.884-8.502 5.335-12.594.113-.188.226-.376.358-.544-1.979-1.54-5.202 1.633-7.427 8.183-1.149 3.379-4.278 5.087-4.278 5.087 2.393 2.083 4.561 1.182 5.975 0 .019-.075.037-.132.037-.132Zm5.074-2.366a.566.566 0 0 1 1.062.385l-.012.031-2.33 5.827 1.548.57a.563.563 0 0 1 .346.691l-.011.032a.566.566 0 0 1-.695.343l-.031-.01-2.093-.77a.563.563 0 0 1-.341-.705l.012-.031 2.545-6.363Zm-1.187-.24c.226-.524.138-1.065-.197-1.208-.335-.143-.789.165-1.015.69-.226.523-.138 1.064.197 1.207.335.143.79-.166 1.015-.69Zm5.815 2.496c.123-.556-.065-1.07-.421-1.149-.356-.078-.744.31-.868.867-.123.556.065 1.071.421 1.15.356.077.744-.31.868-.867Zm1.599-4.204a.566.566 0 0 1 .666-.442 3.548 3.548 0 0 1 2.042 1.171c.236.274.418.567.553.861.084.181.135.328.16.425a.566.566 0 0 1-1.086.314l-.017-.06a2.544 2.544 0 0 0-.468-.807 2.421 2.421 0 0 0-1.406-.8.564.564 0 0 1-.444-.662Z" fill="#2F4077"/><path fill-rule="evenodd" clip-rule="evenodd" d="M215.754 34.253c.676-.049 1.358.179 2.023.58.35.21.621.421.784.57.23.21.245.567.034.796a.567.567 0 0 1-.799.034l-.023-.021a4.66 4.66 0 0 0-.581-.416c-.483-.29-.956-.449-1.356-.42a1.09 1.09 0 0 0-.522.173l-.048.032a.567.567 0 0 1-.789-.13.561.561 0 0 1 .13-.785 2.229 2.229 0 0 1 1.147-.413Z" fill="#2F4077"/><path fill-rule="evenodd" clip-rule="evenodd" d="m248.016 42.838-6.39-3.228c.81-4.73.301-12.05-8.614-16.18-13.948-6.457-19.037 7.452-19.037 7.452l31.948 16.048c1.131.582 2.526.112 3.11-1.014a2.3 2.3 0 0 0-1.017-3.078Z" fill="#E4794A"/><path fill-rule="evenodd" clip-rule="evenodd" d="M220.662 50.467c.235.205.258.56.052.795-.042.047-.11.116-.206.199a3.61 3.61 0 0 1-.532.38c-1.199.71-2.714.8-4.451-.094a.562.562 0 0 1-.243-.758.567.567 0 0 1 .762-.242c1.378.708 2.481.643 3.355.126.143-.084.265-.173.366-.261l.047-.042.052-.051a.567.567 0 0 1 .798-.052Zm20.21-6.071-13.477-6.776c-1.564 4.861-3.524 14.603 4.826 17.174 0 0 6.521 2.159 8.406.02 0 0-4.486-3.267-3.468-5.95 0 0 4.58 6.756 9.971 3.171 0 0-6.371-2.027-6.258-7.639ZM272.483 119c.286 0 .517.224.517.5a.508.508 0 0 1-.486.5H.517a.508.508 0 0 1-.517-.5c0-.266.215-.483.486-.499l.03-.001h271.967Z" fill="#2F4077"/></svg>