<svg width="298" height="145" viewBox="0 0 298 145" fill="none" xmlns="http://www.w3.org/2000/svg">
<path fill-rule="evenodd" clip-rule="evenodd" d="M70.7477 92.5538C71.2294 92.1381 71.4786 91.5229 71.3955 90.891C70.05 78.7857 64.5353 66.3145 55.9311 61.7418C47.0943 57.036 41.048 70.0891 53.3066 82.2111C62.5255 91.3399 67.4588 92.8198 69.3358 92.9861C69.8673 93.0526 70.3656 92.8864 70.7477 92.5538Z" fill="#FAA184"/>
<path fill-rule="evenodd" clip-rule="evenodd" d="M48.4177 62.4879C48.6035 62.2998 48.9017 62.2907 49.0984 62.4617L49.1386 62.5001L49.3975 62.7602C49.5998 62.9649 49.8314 63.2016 50.0901 63.4689L50.4079 63.7986C51.1741 64.5965 52.0157 65.4941 52.9153 66.4798C55.756 69.5922 58.5967 72.9441 61.2491 76.4089C64.4268 80.5601 67.1167 84.5943 69.1638 88.4095C69.8068 89.608 70.3826 90.7784 70.8876 91.9187C70.9992 92.1706 70.8857 92.4653 70.6341 92.5769C70.3825 92.6886 70.0881 92.575 69.9765 92.3231C69.482 91.2066 68.9173 90.0586 68.2858 88.8816C66.2668 85.1187 63.6056 81.1275 60.458 77.0157C57.9187 73.6985 55.2034 70.4833 52.482 67.485L52.1795 67.1527C51.2388 66.122 50.3622 65.1885 49.5701 64.366L49.2239 64.008C49.1258 63.907 49.032 63.811 48.9429 63.7199L48.5489 63.3207L48.4215 63.1933C48.2258 62.9996 48.2241 62.6837 48.4177 62.4879Z" fill="#2F4077"/>
<path fill-rule="evenodd" clip-rule="evenodd" d="M51.4958 78.9864L51.6998 78.9829C52.0316 78.9802 52.4616 78.9883 52.9786 79.0139L53.0765 79.0189C54.0064 79.0678 55.0204 79.1639 56.0997 79.3181C59.0587 79.7407 62.0528 80.5283 64.9319 81.7705C65.1846 81.8796 65.3012 82.1731 65.1923 82.4261C65.0834 82.6791 64.7902 82.7958 64.5374 82.6867C61.7453 81.4821 58.8355 80.7166 55.959 80.3057C54.9099 80.1559 53.9254 80.0627 53.0242 80.0152L52.8378 80.006C52.3822 79.9849 52.0031 79.9782 51.71 79.9806L51.5296 79.9835C51.2545 79.9929 51.024 79.7773 51.0146 79.5019C51.0053 79.2266 51.2207 78.9958 51.4958 78.9864Z" fill="#2F4077"/>
<path fill-rule="evenodd" clip-rule="evenodd" d="M58.6927 63.918C58.9324 63.7826 59.2364 63.8674 59.3716 64.1073L59.5138 64.3632C59.5656 64.4572 59.6227 64.5613 59.6847 64.6751L59.8606 64.9997C60.0608 65.3712 60.2767 65.7781 60.5052 66.2162C61.3535 67.8431 62.2018 69.5674 62.9939 71.3139C63.6207 72.6958 64.1865 74.036 64.6765 75.3151L64.7815 75.591C66.1281 79.1605 66.8004 82.0412 66.6094 84.0379C66.5832 84.3121 66.3398 84.5132 66.0658 84.4869C65.7919 84.4606 65.5911 84.217 65.6173 83.9428C65.7943 82.0925 65.1105 79.2338 63.746 75.6724C63.2636 74.4132 62.7055 73.0911 62.0865 71.7264C61.3025 69.9979 60.462 68.2896 59.6216 66.6778L59.4215 66.2959C59.2686 66.0055 59.1223 65.7309 58.9836 65.4737L58.7736 65.0866L58.5336 64.6512C58.5204 64.6275 58.5103 64.6096 58.5036 64.5976C58.3683 64.3576 58.453 64.0533 58.6927 63.918Z" fill="#2F4077"/>
<path fill-rule="evenodd" clip-rule="evenodd" d="M59.2796 86.4842L59.5348 86.4794C60.1189 86.4735 60.8647 86.4963 61.7177 86.5676C63.1219 86.6848 64.5102 86.9116 65.813 87.2751C67.0592 87.6228 68.1762 88.0826 69.1314 88.6698C69.366 88.8139 69.4394 89.1211 69.2953 89.3559C69.1513 89.5907 68.8445 89.6641 68.6099 89.52C67.7406 88.9856 66.7079 88.5605 65.5455 88.2362C64.3088 87.8912 62.9807 87.6742 61.6349 87.5618C60.7781 87.4903 60.0358 87.4696 59.4717 87.4779L59.305 87.4816C59.0299 87.4918 58.7987 87.277 58.7884 87.0017C58.7786 86.7362 58.9778 86.5114 59.2386 86.4865L59.2796 86.4842Z" fill="#2F4077"/>
<path fill-rule="evenodd" clip-rule="evenodd" d="M81.6774 81.479C82.3418 81.928 83.0893 82.0111 83.6873 81.6786C95.2316 75.3931 104.965 63.6703 105.115 51.0162C105.281 37.9964 88.9528 35.2693 83.0727 55.4393C78.6377 70.6042 79.7008 77.4384 80.4981 79.8827C80.714 80.5312 81.1459 81.1132 81.6774 81.479Z" fill="#FAA184"/>
<path fill-rule="evenodd" clip-rule="evenodd" d="M100.412 42.4943C100.655 42.3647 100.957 42.4567 101.086 42.6998C101.216 42.9429 101.124 43.2451 100.881 43.3747C95.7667 46.1044 91.5222 52.6489 88.1212 61.8462C86.4968 66.239 85.1724 70.9495 84.1261 75.6606L84.0277 76.1074C83.7371 77.4389 83.4871 78.689 83.2763 79.8361L83.2075 80.2146C83.1427 80.5748 83.0854 80.9045 83.0356 81.2017L82.9426 81.7733L82.9178 81.9343C82.8774 82.2068 82.624 82.3949 82.3517 82.3545C82.0892 82.3155 81.9051 82.0782 81.9285 81.8169L81.9354 81.7653L81.9943 81.3912L82.0361 81.1362C82.0795 80.8749 82.1288 80.5877 82.184 80.2761L82.2266 80.0377C82.476 78.6513 82.7839 77.1069 83.1532 75.444C84.2086 70.692 85.5449 65.9394 87.1865 61.4999C90.6652 52.0925 95.0257 45.3693 100.412 42.4943Z" fill="#2F4077"/>
<path fill-rule="evenodd" clip-rule="evenodd" d="M104.265 52.5215C104.516 52.4098 104.811 52.5233 104.923 52.7751C105.034 53.0269 104.921 53.3217 104.669 53.4334C102.122 54.5654 99.1898 55.985 96.352 57.5467L96.0631 57.7064C92.0887 59.9131 89.0339 62.0164 87.3263 63.8742C87.1399 64.0769 86.8247 64.09 86.6221 63.9035C86.4196 63.7169 86.4065 63.4013 86.5929 63.1986C88.4122 61.2193 91.5915 59.0385 95.7222 56.755L95.8719 56.6724C98.7378 55.0952 101.693 53.664 104.265 52.5215Z" fill="#2F4077"/>
<path fill-rule="evenodd" clip-rule="evenodd" d="M83.2576 55.2437C83.283 54.9694 83.5258 54.7677 83.7998 54.7932C84.0739 54.8187 84.2754 55.0617 84.2499 55.3361L84.2123 55.7497C83.614 62.478 83.7879 67.8579 85.18 69.6869C85.3468 69.906 85.3045 70.219 85.0856 70.386C84.8667 70.553 84.554 70.5107 84.3872 70.2915C83.4537 69.0649 83.0071 66.7036 82.9172 63.4139C82.8501 60.9605 82.9871 58.1569 83.2576 55.2437Z" fill="#2F4077"/>
<path fill-rule="evenodd" clip-rule="evenodd" d="M98.9067 67.172C99.1215 66.9998 99.4351 67.0345 99.6071 67.2496C99.7792 67.4646 99.7445 67.7786 99.5296 67.9508C97.9822 69.1911 95.7511 70.4734 93.0089 71.7701C91.1056 72.6701 89.0686 73.5243 87.0319 74.3056L86.7066 74.4298C86.1707 74.6333 85.6664 74.8195 85.2014 74.987L84.7684 75.1415L84.3122 75.3004C84.0516 75.3887 83.7687 75.2488 83.6804 74.9879C83.5953 74.7363 83.7222 74.464 83.9651 74.3656L84.5062 74.1761L84.7273 74.0973C85.3148 73.8869 85.9698 73.6446 86.6752 73.374C88.6902 72.601 90.7049 71.7561 92.5832 70.868C95.2611 69.6017 97.432 68.3541 98.9067 67.172Z" fill="#2F4077"/>
<path fill-rule="evenodd" clip-rule="evenodd" d="M90.1402 89.8612C90.4144 89.838 90.6555 90.0418 90.6786 90.3163C90.7017 90.5908 90.4982 90.8322 90.2239 90.8553C86.969 91.1302 84.3835 92.9088 82.3867 95.7243C81.6156 96.8116 80.9882 97.9793 80.4947 99.147C80.3393 99.5145 80.2077 99.8579 80.0988 100.17L80.0633 100.273C80.0365 100.351 80.0127 100.424 79.9916 100.489L79.9621 100.583C79.9461 100.635 79.9359 100.67 79.9315 100.686C79.8574 100.951 79.5824 101.106 79.3174 101.032C79.0524 100.958 78.8976 100.682 78.9717 100.417L79.0076 100.296C79.0317 100.217 79.0639 100.117 79.1044 99.9966L79.12 99.9506C79.2429 99.59 79.3947 99.1892 79.5768 98.7582C80.0968 97.5279 80.7579 96.2977 81.5741 95.1468C83.7269 92.1111 86.5579 90.1637 90.1402 89.8612Z" fill="#2F4077"/>
<path fill-rule="evenodd" clip-rule="evenodd" d="M90.3704 90.1511C90.9521 90.071 91.2278 88.5825 90.9863 86.8266C90.7448 85.0706 90.0775 83.7122 89.4959 83.7923C88.9142 83.8725 88.6385 85.361 88.88 87.1169C89.1215 88.8728 89.7888 90.2313 90.3704 90.1511Z" fill="#E4794A"/>
<path fill-rule="evenodd" clip-rule="evenodd" d="M93.2603 89.0387C94.5203 88.0133 95.2697 86.847 94.934 86.4337C94.5984 86.0204 93.3049 86.5165 92.0448 87.5419C90.7848 88.5672 90.0354 89.7335 90.3711 90.1468C90.7067 90.5602 92.0002 90.064 93.2603 89.0387Z" fill="#E4794A"/>
<path fill-rule="evenodd" clip-rule="evenodd" d="M90.3765 90.08C90.6459 89.5578 89.5891 88.4751 88.0159 87.6617C86.4428 86.8483 84.9491 86.6123 84.6797 87.1345C84.4103 87.6567 85.4671 88.7394 87.0402 89.5528C88.6134 90.3662 90.1071 90.6022 90.3765 90.08Z" fill="#E4794A"/>
<path fill-rule="evenodd" clip-rule="evenodd" d="M95.553 92.944C95.806 92.4754 94.8529 91.4691 93.4243 90.6963C91.9958 89.9236 90.6326 89.677 90.3797 90.1456C90.1267 90.6143 91.0798 91.6206 92.5083 92.3933C93.9369 93.1661 95.3001 93.4126 95.553 92.944Z" fill="#E4794A"/>
<path fill-rule="evenodd" clip-rule="evenodd" d="M90.0026 93.2488C90.6847 91.7736 90.8463 90.3964 90.3634 90.1727C89.8806 89.9489 88.9362 90.9633 88.254 92.4384C87.5719 93.9136 87.4103 95.2908 87.8932 95.5145C88.376 95.7383 89.3205 94.7239 90.0026 93.2488Z" fill="#E4794A"/>
<path fill-rule="evenodd" clip-rule="evenodd" d="M63.4633 52.2365C63.6339 52.0203 63.9473 51.9835 64.1633 52.1543L64.244 52.2203C64.2654 52.2381 64.2898 52.2586 64.3172 52.2819L64.4101 52.3617C64.5063 52.4452 64.6126 52.5399 64.7283 52.646C65.166 53.0472 65.6523 53.5306 66.175 54.0974C67.6635 55.7112 69.15 57.6717 70.5364 59.9877C73.2347 64.4954 75.2213 69.7892 76.1988 75.8932C77.4034 83.4145 77.0081 91.7938 74.7196 101.054C74.6535 101.321 74.3834 101.484 74.1162 101.418C73.8491 101.352 73.6861 101.081 73.7522 100.814C76.0089 91.6826 76.3978 83.4383 75.2148 76.0511C74.2578 70.0761 72.3162 64.9019 69.6815 60.5006C68.3315 58.2452 66.8862 56.3392 65.4428 54.7742C64.9708 54.2624 64.5312 53.8228 64.1341 53.4545L64.0553 53.3818C63.9284 53.2655 63.8144 53.1644 63.7143 53.0785L63.6092 52.9894C63.5792 52.9644 63.5578 52.947 63.5453 52.9371C63.3294 52.7663 63.2927 52.4526 63.4633 52.2365Z" fill="#2F4077"/>
<path fill-rule="evenodd" clip-rule="evenodd" d="M65.3121 53.5597C66.3103 52.9762 66.1596 50.8574 64.9755 48.8271C63.7914 46.7968 62.0223 45.6239 61.0241 46.2073C60.0258 46.7907 60.1765 48.9096 61.3606 50.9399C62.5447 52.9702 64.3139 54.1431 65.3121 53.5597Z" fill="#E4794A"/>
<path fill-rule="evenodd" clip-rule="evenodd" d="M65.5767 53.5435C65.5997 52.3867 63.7149 51.4109 61.3669 51.364C59.0189 51.3172 57.0968 52.2171 57.0738 53.374C57.0508 54.5309 58.9355 55.5067 61.2836 55.5535C63.6316 55.6003 65.5537 54.7004 65.5767 53.5435Z" fill="#E4794A"/>
<path fill-rule="evenodd" clip-rule="evenodd" d="M69.3706 51.7333C70.6391 50.057 71.0034 48.1946 70.1844 47.5735C69.3654 46.9525 67.6732 47.808 66.4048 49.4843C65.1363 51.1606 64.772 53.023 65.5909 53.644C66.4099 54.2651 68.1021 53.4096 69.3706 51.7333Z" fill="#E4794A"/>
<path fill-rule="evenodd" clip-rule="evenodd" d="M67.3489 59.6735C68.2842 59.2477 68.3375 57.3507 67.468 55.4363C66.5985 53.522 65.1354 52.3152 64.2001 52.7409C63.2648 53.1666 63.2115 55.0636 64.081 56.978C64.9505 58.8924 66.4136 60.0992 67.3489 59.6735Z" fill="#E4794A"/>
<path fill-rule="evenodd" clip-rule="evenodd" d="M70.6367 53.886C70.7342 52.9636 69.2822 52.0537 67.3937 51.8537C65.5052 51.6537 63.8952 52.2394 63.7977 53.1618C63.7003 54.0843 65.1522 54.9941 67.0407 55.1941C68.9292 55.3941 70.5392 54.8085 70.6367 53.886Z" fill="#E4794A"/>
<path fill-rule="evenodd" clip-rule="evenodd" d="M56.9443 102.647L64.7513 137.633H89.5508L97.3578 102.647C97.8063 100.652 96.5439 98.6896 94.8164 98.6896H59.4857C57.7582 98.6729 56.4958 100.635 56.9443 102.647Z" fill="white"/>
<path fill-rule="evenodd" clip-rule="evenodd" d="M94.8164 98.1896L59.4905 98.1896C57.4122 98.1697 55.945 100.453 56.458 102.755L64.265 137.74C64.3158 137.968 64.5179 138.131 64.7513 138.131H89.5508C89.7842 138.131 89.9863 137.968 90.0372 137.74L97.8441 102.755C98.3574 100.471 96.8914 98.1896 94.8164 98.1896ZM94.8164 99.1873L94.8599 99.1878C96.22 99.2219 97.2507 100.85 96.8716 102.537L89.1515 137.133H65.1504L57.4307 102.537C57.0512 100.835 58.0807 99.2086 59.4376 99.1874L94.8164 99.1873Z" fill="#2F4077"/>
<path fill-rule="evenodd" clip-rule="evenodd" d="M265.689 49.1858L146.957 50.0504C145.063 50.0671 143.352 51.1645 142.538 52.8606L104.251 131.462L29.105 131.528C29.105 131.528 27.4274 142.536 41.4467 143.218L98.6036 143.035L98.4375 143.368L229.179 142.902L270.174 56.1862C271.719 52.9271 269.31 49.1525 265.689 49.1858Z" fill="#465F9D"/>
<path fill-rule="evenodd" clip-rule="evenodd" d="M256.551 48.6876C260.499 48.6695 263.137 52.7431 261.538 56.3249L261.489 56.4333L221.108 141.969C220.991 142.218 220.694 142.324 220.445 142.207C220.205 142.093 220.098 141.813 220.195 141.57L220.207 141.542L260.588 56.0072C261.975 53.064 259.811 49.6703 256.556 49.6852C256.28 49.6865 256.056 49.4642 256.055 49.1887C256.054 48.9132 256.276 48.6888 256.551 48.6876Z" fill="white"/>
<path fill-rule="evenodd" clip-rule="evenodd" d="M116.742 127.739L214.944 127.24C218.382 127.223 221.522 125.244 223.033 122.151L252.617 59.43C253.879 56.8526 251.919 53.8928 248.946 53.9261L151.625 54.6411C150.08 54.6577 148.668 55.5057 148.003 56.8526L113.769 122.999C112.689 125.194 114.301 127.755 116.742 127.739Z" fill="white"/>
<path fill-rule="evenodd" clip-rule="evenodd" d="M215.027 88.5792H197.436C196.29 88.5792 195.825 87.648 196.39 86.5007L201.008 77.1723C201.572 76.0249 202.968 75.0938 204.13 75.0938H221.721C222.867 75.0938 223.332 76.0249 222.767 77.1723L218.15 86.5007C217.585 87.648 216.19 88.5792 215.027 88.5792Z" fill="#465F9D"/>
<path fill-rule="evenodd" clip-rule="evenodd" d="M216.804 74.5781C217.864 74.5781 218.376 75.4773 217.934 76.4389L217.915 76.4796L212.397 87.5928C211.979 88.4096 210.994 89.0446 210.11 89.0446C209.835 89.0446 209.612 88.8213 209.612 88.5458C209.612 88.2801 209.819 88.063 210.081 88.0478L210.11 88.0469C210.596 88.0469 211.223 87.652 211.486 87.1835L211.508 87.1432L217.021 76.0391C217.184 75.704 217.113 75.5758 216.804 75.5758C216.529 75.5758 216.306 75.3525 216.306 75.077C216.306 74.8015 216.529 74.5781 216.804 74.5781Z" fill="white"/>
<path fill-rule="evenodd" clip-rule="evenodd" d="M213.681 88.4289L209.263 83.5568C208.881 83.1411 208.2 83.2575 207.984 83.773L204.994 90.524C204.728 91.1227 205.26 91.7545 205.891 91.5883L208.416 90.9564L208.698 95.6123C208.732 96.2774 209.363 96.743 210.011 96.61L211.854 96.2109C212.486 96.0779 212.868 95.4127 212.652 94.7975L211.09 90.2746L213.316 89.7093C213.864 89.5596 214.08 88.8612 213.681 88.4289Z" fill="#FAA184"/>
<path fill-rule="evenodd" clip-rule="evenodd" d="M207.403 107.635H187.703C187.121 107.635 186.889 107.169 187.171 106.587L189.513 101.882C189.796 101.3 190.51 100.834 191.091 100.834H210.791C211.373 100.834 211.605 101.3 211.323 101.882L208.981 106.587C208.682 107.169 207.984 107.635 207.403 107.635Z" fill="#465F9D"/>
<path fill-rule="evenodd" clip-rule="evenodd" d="M252.65 58.998C252.925 58.998 253.148 59.2214 253.148 59.4969C253.148 59.7626 252.941 59.9797 252.679 59.9949L252.65 59.9957H146.89C146.615 59.9957 146.392 59.7724 146.392 59.4969C146.392 59.2312 146.6 59.0141 146.861 58.9989L146.89 58.998H252.65Z" fill="#2F4077"/>
<path fill-rule="evenodd" clip-rule="evenodd" d="M233.258 54.2409C233.369 53.9888 233.663 53.8747 233.915 53.986C234.158 54.0933 234.273 54.371 234.181 54.6166L234.17 54.6438L231.977 59.6156C231.866 59.8677 231.572 59.9818 231.32 59.8705C231.077 59.7632 230.963 59.4855 231.054 59.2398L231.065 59.2127L233.258 54.2409Z" fill="#2F4077"/>
<path fill-rule="evenodd" clip-rule="evenodd" d="M217.158 54.3153C217.283 54.0699 217.583 53.9724 217.828 54.0975C218.064 54.2181 218.163 54.5011 218.058 54.7411L218.045 54.7686L215.504 59.757C215.379 60.0024 215.079 60.0999 214.834 59.9748C214.598 59.8542 214.499 59.5712 214.603 59.3312L214.616 59.3037L217.158 54.3153Z" fill="#2F4077"/>
<path fill-rule="evenodd" clip-rule="evenodd" d="M238.61 64.3517L153.71 64.8839C152.357 64.9033 151.142 65.6455 150.563 66.8254L123.294 118.726C122.308 120.68 123.764 122.983 125.961 122.983L211.54 122.7C214.306 122.682 216.837 121.093 218.049 118.613L241.82 69.1908C242.932 66.9253 241.199 64.3324 238.61 64.3517ZM153.721 65.8815L238.617 65.3493C240.462 65.3356 241.679 67.1291 240.947 68.7067L217.153 118.177C216.108 120.314 213.922 121.687 211.536 121.702L125.96 121.985C124.5 121.985 123.536 120.46 124.18 119.184L151.451 67.2777C151.86 66.4454 152.704 65.9174 153.664 65.883L153.721 65.8815Z" fill="#2F4077"/>
<path fill-rule="evenodd" clip-rule="evenodd" d="M252.866 143.169H197.038V134.871C197.038 132.809 198.699 131.146 200.758 131.146H249.128C251.188 131.146 252.849 132.809 252.849 134.871V143.169H252.866Z" fill="#E4794A"/>
<path fill-rule="evenodd" clip-rule="evenodd" d="M136.575 111.808H166.956C169.215 111.808 172.089 109.962 173.368 107.701L190.161 77.8533C191.44 75.5918 190.626 73.7461 188.367 73.7461H156.724C154.465 73.7461 151.591 75.5918 150.312 77.8533L134.781 107.701C133.502 109.962 134.316 111.808 136.575 111.808Z" fill="#2F4077"/>
<path fill-rule="evenodd" clip-rule="evenodd" d="M190.327 25.4245C186.307 13.5852 181.906 11.1409 178.799 12.0055C175.693 12.8702 167.272 17.0605 170.195 20.885C173.119 24.7095 177.338 37.9621 177.338 37.9621C164.165 40.2235 152.438 45.1954 152.438 45.1954L138.17 50.8656C138.17 50.8656 132.124 52.9607 126.094 58.3483C120.064 63.7358 107.806 75.9409 104.517 80.6466C101.793 84.5543 103.421 89.0106 104.882 90.2245C106.344 91.4383 108.719 94.7473 119.516 91.0891C126.459 88.7279 132.124 87.83 135.263 87.4808L151.708 103.46C151.708 103.46 155.96 107.069 157.903 108.831C158.02 109.147 158.186 109.397 158.402 109.563C161.176 111.741 164.763 111.791 169.099 110.428C171.208 109.763 172.986 108.299 174.032 106.337L189.995 76.3399C190.543 75.309 189.995 74.0452 188.865 73.7293L183.849 72.3658C176.773 69.6055 171.109 58.4979 171.109 58.4979C183.733 54.1413 193.616 42.4683 193.616 42.4683C193.616 42.4683 194.363 37.2804 190.327 25.4245Z" fill="#E4794A"/>
<path fill-rule="evenodd" clip-rule="evenodd" d="M169.73 90.5554H127.307C126.061 90.5554 125.031 89.5411 125.031 88.2773V63.7175C125.031 62.4704 126.044 61.4395 127.307 61.4395H169.713C170.959 61.4395 171.989 62.4538 171.989 63.7175V88.2773C171.989 89.5411 170.976 90.5554 169.73 90.5554Z" fill="white"/>
<path fill-rule="evenodd" clip-rule="evenodd" d="M169.713 60.9414H127.307C125.774 60.9414 124.533 62.1905 124.533 63.7183V88.2781C124.533 89.8122 125.78 91.055 127.307 91.055H169.73C171.254 91.055 172.487 89.8142 172.487 88.2781V63.7183C172.487 62.1842 171.24 60.9414 169.713 60.9414ZM127.307 61.9391H169.713C170.69 61.9391 171.491 62.7364 171.491 63.7183V88.2781C171.491 89.2644 170.703 90.0573 169.73 90.0573H127.307C126.33 90.0573 125.529 89.2601 125.529 88.2781V63.7183C125.529 62.7404 126.326 61.9391 127.307 61.9391Z" fill="#2F4077"/>
<path fill-rule="evenodd" clip-rule="evenodd" d="M154.183 70.3039H145.944C145.246 70.3039 144.681 69.7386 144.681 69.0402V65.9473C144.681 65.249 145.246 64.6836 145.944 64.6836H154.183C154.88 64.6836 155.445 65.249 155.445 65.9473V69.0402C155.462 69.7219 154.88 70.3039 154.183 70.3039Z" fill="#FAA184"/>
<path fill-rule="evenodd" clip-rule="evenodd" d="M156.873 61.457C158.368 61.457 159.564 62.6044 159.564 64.0178V87.9956C159.564 89.409 158.352 90.5563 156.873 90.5563" fill="white"/>
<path fill-rule="evenodd" clip-rule="evenodd" d="M156.873 60.959C158.616 60.959 160.032 62.2915 160.062 63.9633L160.063 64.0186V87.9964C160.063 89.689 158.624 91.056 156.873 91.056C156.598 91.056 156.375 90.8326 156.375 90.5571C156.375 90.2816 156.598 90.0583 156.873 90.0583C158.067 90.0583 159.037 89.1528 159.065 88.0454L159.066 87.9964V64.0186C159.066 62.883 158.095 61.9567 156.873 61.9567C156.598 61.9567 156.375 61.7333 156.375 61.4578C156.375 61.1823 156.598 60.959 156.873 60.959Z" fill="#2F4077"/>
<path fill-rule="evenodd" clip-rule="evenodd" d="M127.213 42.0177C127.369 41.7912 127.68 41.7347 127.906 41.8915C128.132 42.0483 128.189 42.3591 128.032 42.5856C127.473 43.3939 127.141 44.5545 127.141 45.8102C127.141 48.1461 128.262 49.9776 129.531 50.0173C129.806 50.0259 130.023 50.2562 130.014 50.5315C130.005 50.8069 129.775 51.0232 129.5 51.0145C127.574 50.9543 126.144 48.6179 126.144 45.8102C126.144 44.3591 126.533 43.0001 127.213 42.0177Z" fill="#E4794A"/>
<path fill-rule="evenodd" clip-rule="evenodd" d="M151.912 32.5245C152.178 32.454 152.451 32.6128 152.521 32.8791C152.686 33.4996 152.771 34.1584 152.771 34.8359C152.771 37.6702 151.298 40.0405 149.349 40.0405C149.206 40.0405 149.075 40.0277 148.896 40.0022C148.624 39.9633 148.435 39.7106 148.473 39.4378C148.512 39.1651 148.765 38.9756 149.037 39.0146L149.121 39.0259C149.213 39.0374 149.283 39.0428 149.349 39.0428C150.622 39.0428 151.774 37.1892 151.774 34.8359C151.774 34.2443 151.7 33.6714 151.558 33.1344C151.488 32.8681 151.646 32.595 151.912 32.5245Z" fill="#E4794A"/>
<path fill-rule="evenodd" clip-rule="evenodd" d="M146.591 42.3184L148.535 47.2902L152.638 45.0953C153.053 45.5775 159.714 54.1077 150.728 57.4833C144.831 59.6948 138.286 56.7849 134.383 53.0768L138.103 50.8154L134.15 42.5013L146.591 42.3184Z" fill="white"/>
<path fill-rule="evenodd" clip-rule="evenodd" d="M134.143 42.0033L134.114 42.0045C133.767 42.0291 133.548 42.3972 133.7 42.7165L137.46 50.6236L134.124 52.6512C133.843 52.8219 133.801 53.2131 134.04 53.4394C136.151 55.4446 138.849 57.0787 141.656 57.9759C144.836 58.9925 148.015 59.0342 150.902 57.9512C155.091 56.3776 156.481 53.5615 155.694 50.0945C155.419 48.8839 154.893 47.6707 154.207 46.5069L154.124 46.3671C153.705 45.6729 153.265 45.0601 153.015 44.7703L152.994 44.747C152.84 44.5896 152.599 44.5511 152.403 44.6561L148.795 46.5864L147.056 42.1374C146.98 41.9437 146.792 41.8173 146.584 41.8204L134.143 42.0033ZM146.253 42.823L148.071 47.4728L148.083 47.501C148.202 47.759 148.516 47.8669 148.77 47.7309L152.503 45.7334L152.598 45.8629C152.611 45.8812 152.625 45.8997 152.638 45.9185C152.873 46.2472 153.115 46.6164 153.349 47.0139C153.987 48.0957 154.473 49.2175 154.722 50.3157C155.402 53.3101 154.26 55.6243 150.552 57.017L150.399 57.0733C145.525 58.8182 139.608 57.0347 135.266 53.2096L135.209 53.1591L138.362 51.2426L138.388 51.2259C138.587 51.0876 138.659 50.8236 138.553 50.6018L134.934 42.9893L146.253 42.823Z" fill="#2F4077"/>
<path fill-rule="evenodd" clip-rule="evenodd" d="M140.08 77.9863C140.944 77.4376 145.645 75.5087 146.791 75.3757C147.937 75.2427 148.518 76.0575 147.605 76.7725C146.708 77.4875 144.698 79.0505 144.698 79.0505" fill="white"/>
<path fill-rule="evenodd" clip-rule="evenodd" d="M146.733 74.8802C148.34 74.6937 149.236 76.0864 147.955 77.1312L147.474 77.5124L146.67 78.1438L145.692 78.9084L145.004 79.4445C144.786 79.6135 144.473 79.5742 144.304 79.3566C144.142 79.1474 144.172 78.8496 144.368 78.6768L144.4 78.6507L145.576 77.7338L146.912 76.6851C147.058 76.5698 147.187 76.4675 147.298 76.3795C147.444 76.2649 147.524 76.1603 147.55 76.0815C147.56 76.0495 147.559 76.0378 147.549 76.0225C147.526 75.9858 147.467 75.9428 147.369 75.9094C147.234 75.8631 147.055 75.8473 146.848 75.8713C145.888 75.9827 141.276 77.8176 140.347 78.4076C140.115 78.5552 139.807 78.4863 139.659 78.2537C139.512 78.021 139.581 77.7128 139.813 77.5652C140.86 76.9002 145.61 75.0106 146.733 74.8802Z" fill="#2F4077"/>
<path fill-rule="evenodd" clip-rule="evenodd" d="M137.09 78.2196C143.502 76.6566 149.814 79.0344 150.429 79.3004C151.043 79.5665 151.259 80.7637 149.88 80.8469C148.502 80.9134 143.768 80.2316 143.768 80.2316C145.844 80.7803 150.462 82.0441 150.794 82.3933C151.309 82.9254 150.528 83.973 149.116 83.6071L143.186 82.1439C143.186 82.1439 148.85 84.6381 149.332 85.0039C149.814 85.3697 147.638 86.5004 144.98 85.3531C142.323 84.2058 142.09 84.3554 142.09 84.3554C142.09 84.3554 146.392 85.9517 146.94 86.4007C147.505 86.8496 144.582 88.4293 141.725 86.5004C141.725 86.5004 138.452 87.8141 135.778 86.9161" fill="white"/>
<path fill-rule="evenodd" clip-rule="evenodd" d="M136.972 77.7347C139.873 77.0275 142.95 77.0424 146.02 77.5826C147.979 77.9275 149.759 78.4671 150.626 78.8424C151.138 79.0641 151.464 79.6421 151.397 80.2021C151.317 80.857 150.758 81.2935 149.904 81.3449C149.819 81.349 149.723 81.3507 149.616 81.3499L149.52 81.3485L149.751 81.4255C150.502 81.6805 150.985 81.8866 151.14 82.0341L151.152 82.046C151.617 82.5271 151.52 83.2391 151.015 83.704C150.551 84.1312 149.834 84.2896 149.06 84.1069L148.332 83.927L148.716 84.1119C149.17 84.3331 149.468 84.4912 149.605 84.5855L149.633 84.6063C150.084 84.9484 149.937 85.4524 149.537 85.7665C149.283 85.9658 148.897 86.1294 148.444 86.2323C148.161 86.2963 147.863 86.3358 147.554 86.3493L147.483 86.3518L147.491 86.3829C147.52 86.5031 147.514 86.6315 147.473 86.7568L147.461 86.7909C147.391 86.975 147.253 87.133 147.066 87.2746C146.745 87.5178 146.263 87.7177 145.716 87.8306C144.459 88.0901 143.056 87.8823 141.762 87.1143L141.663 87.0541L141.568 87.0868C141.304 87.1761 141.008 87.2652 140.686 87.3482C139.448 87.6668 138.186 87.8115 136.993 87.6827C136.511 87.6308 136.052 87.5342 135.62 87.3889C135.359 87.3013 135.218 87.0185 135.306 86.7573C135.393 86.4961 135.676 86.3554 135.936 86.443C136.298 86.5645 136.687 86.6463 137.1 86.6908C138.157 86.805 139.306 86.6732 140.438 86.3819C140.698 86.3149 140.939 86.2438 141.157 86.1723L141.249 86.1417C141.299 86.1247 141.346 86.1085 141.389 86.0932L141.539 86.0372C141.692 85.9757 141.866 85.9942 142.003 86.0867C143.153 86.8629 144.409 87.0816 145.515 86.8535C145.796 86.7954 146.047 86.7099 146.239 86.6148L146.281 86.5934L146.147 86.529C145.877 86.4014 145.51 86.2405 145.072 86.0577L144.684 85.898L144.358 85.7661L143.951 85.6039C143.538 85.4406 143.109 85.2743 142.679 85.1106L141.917 84.823C141.532 84.68 141.475 84.158 141.821 83.9356C141.876 83.9002 141.934 83.8776 141.995 83.8644L142.026 83.8587C142.396 83.804 143.273 84.0728 145.178 84.8948C146.262 85.363 147.348 85.4576 148.223 85.2592C148.337 85.2336 148.441 85.2036 148.535 85.1712L148.578 85.1557L148.408 85.0717C147.974 84.8592 147.341 84.5615 146.57 84.2083L146.07 83.9801L145.613 83.7733C145.151 83.5643 144.672 83.3494 144.19 83.1347L142.986 82.6003C142.437 82.3587 142.705 81.5412 143.276 81.6528L143.306 81.6593L149.241 83.124C149.73 83.2507 150.124 83.1685 150.341 82.9694C150.441 82.8771 150.467 82.8096 150.45 82.7647L150.447 82.7564L150.445 82.7557C150.415 82.7393 150.373 82.719 150.32 82.6958L150.287 82.6815C150.154 82.6248 149.973 82.5566 149.748 82.4785L149.553 82.4116C149.14 82.2729 148.618 82.11 148.003 81.9273L147.794 81.8657C146.553 81.5006 145.026 81.0798 143.641 80.7137C143.044 80.5561 143.212 79.6782 143.808 79.734L143.887 79.7445L144.351 79.8092L144.532 79.8339C144.976 79.8942 145.438 79.9545 145.901 80.012L146.179 80.0461C146.484 80.0832 146.78 80.1178 147.065 80.1495L147.332 80.1786C148.523 80.3066 149.412 80.3698 149.85 80.3487C150.252 80.3245 150.391 80.2158 150.407 80.082C150.422 79.958 150.335 79.8032 150.231 79.7581L150.144 79.7217C149.875 79.6131 149.394 79.4441 148.842 79.2768C147.929 78.9998 146.919 78.7539 145.847 78.5652C142.904 78.0472 139.961 78.0329 137.208 78.7041C136.941 78.7693 136.671 78.6051 136.606 78.3374C136.541 78.0698 136.705 77.7999 136.972 77.7347Z" fill="#2F4077"/>
<path fill-rule="evenodd" clip-rule="evenodd" d="M129.034 42.5017C130.75 42.5017 132.14 41.1765 132.14 39.5418C132.14 37.9072 130.75 36.582 129.034 36.582C127.319 36.582 125.928 37.9072 125.928 39.5418C125.928 41.1765 127.319 42.5017 129.034 42.5017Z" fill="white"/>
<path fill-rule="evenodd" clip-rule="evenodd" d="M129.034 36.084C127.049 36.084 125.43 37.6268 125.43 39.5426C125.43 41.4585 127.049 43.0013 129.034 43.0013C131.019 43.0013 132.639 41.4585 132.639 39.5426C132.639 37.6268 131.019 36.084 129.034 36.084ZM129.034 37.0817C130.48 37.0817 131.642 38.1891 131.642 39.5426C131.642 40.8961 130.48 42.0036 129.034 42.0036C127.588 42.0036 126.426 40.8961 126.426 39.5426C126.426 38.1891 127.588 37.0817 129.034 37.0817Z" fill="#2F4077"/>
<path fill-rule="evenodd" clip-rule="evenodd" d="M147.887 32.3923C149.603 32.3923 150.993 31.0671 150.993 29.4325C150.993 27.7978 149.603 26.4727 147.887 26.4727C146.172 26.4727 144.781 27.7978 144.781 29.4325C144.781 31.0671 146.172 32.3923 147.887 32.3923Z" fill="white"/>
<path fill-rule="evenodd" clip-rule="evenodd" d="M147.887 25.9727C145.902 25.9727 144.283 27.5155 144.283 29.4313C144.283 31.3471 145.902 32.89 147.887 32.89C149.872 32.89 151.492 31.3471 151.492 29.4313C151.492 27.5155 149.872 25.9727 147.887 25.9727ZM147.887 26.9703C149.333 26.9703 150.495 28.0778 150.495 29.4313C150.495 30.7848 149.333 31.8923 147.887 31.8923C146.441 31.8923 145.279 30.7848 145.279 29.4313C145.279 28.0778 146.441 26.9703 147.887 26.9703Z" fill="#2F4077"/>
<path fill-rule="evenodd" clip-rule="evenodd" d="M145.694 44.0679C150.094 40.8799 150.346 33.712 146.258 28.0579C142.169 22.4038 135.289 20.4047 130.889 23.5928C126.489 26.7808 126.237 33.9487 130.326 39.6028C134.414 45.2569 141.295 47.256 145.694 44.0679Z" fill="white"/>
<path fill-rule="evenodd" clip-rule="evenodd" d="M130.598 23.1896C125.95 26.5582 125.685 34.0387 129.921 39.8963C134.156 45.7538 141.337 47.839 145.985 44.4704C150.634 41.1019 150.898 33.6213 146.663 27.7638C142.427 21.9062 135.247 19.8211 130.598 23.1896ZM131.182 23.9977C135.335 20.9889 141.915 22.8997 145.855 28.3489C149.795 33.7981 149.553 40.6534 145.401 43.6623C141.249 46.6712 134.668 44.7603 130.728 39.3111C126.788 33.8619 127.03 27.0066 131.182 23.9977Z" fill="#2F4077"/>
<path fill-rule="evenodd" clip-rule="evenodd" d="M143.38 36.101L143.372 36.1118C142.52 37.2271 141.155 38.03 139.122 38.2127C138.247 38.3064 137.824 39.3376 138.415 39.992C139.015 40.671 139.714 41.224 140.497 41.55C141.529 41.9799 142.621 41.9732 143.721 41.4359C144.854 40.8819 145.468 40.0035 145.611 38.9139C145.718 38.1027 145.561 37.2375 145.23 36.37C144.911 35.6037 143.897 35.4619 143.38 36.101ZM144.304 36.7397C144.952 38.4405 144.772 39.8114 143.283 40.5393C141.77 41.2788 140.367 40.6946 139.158 39.3267C139.119 39.2842 139.148 39.2132 139.22 39.2055L139.326 39.1954C141.547 38.972 143.114 38.0566 144.116 36.779L144.155 36.7287C144.198 36.6752 144.282 36.687 144.304 36.7397Z" fill="#2F4077"/>
<path fill-rule="evenodd" clip-rule="evenodd" d="M138.413 30.4481C138.615 30.277 138.913 30.2947 139.094 30.4833L139.115 30.5067L142.769 34.83C142.97 35.0668 142.907 35.4244 142.645 35.5805L142.618 35.5954L140.624 36.6264C140.38 36.7529 140.079 36.657 139.953 36.4122C139.831 36.1765 139.916 35.8887 140.14 35.7548L140.167 35.74L141.604 34.9963L138.354 31.1512C138.183 30.9489 138.201 30.6501 138.389 30.4692L138.413 30.4481Z" fill="#2F4077"/>
<path fill-rule="evenodd" clip-rule="evenodd" d="M132.373 30.0287C133.056 29.2229 133.956 28.8329 135.024 29.1527C135.287 29.2316 135.437 29.5096 135.358 29.7736C135.28 30.0375 135.002 30.1875 134.738 30.1086C134.102 29.918 133.583 30.1429 133.132 30.6746C133.004 30.8254 132.894 30.9889 132.802 31.1523C132.766 31.2163 132.739 31.2693 132.72 31.3075L132.7 31.3533C132.593 31.6074 132.301 31.727 132.047 31.6204C131.793 31.5139 131.674 31.2216 131.78 30.9675L131.803 30.9171C131.832 30.8519 131.876 30.7653 131.933 30.663C132.055 30.4473 132.2 30.2318 132.373 30.0287Z" fill="#2F4077"/>
<path fill-rule="evenodd" clip-rule="evenodd" d="M139.171 26.6118C140.026 26.0594 140.945 25.8731 141.83 26.3208C141.959 26.386 142.085 26.4643 142.206 26.5557C142.426 26.721 142.471 27.0337 142.306 27.2541C142.141 27.4745 141.828 27.5192 141.608 27.3539C141.533 27.2972 141.457 27.2499 141.38 27.2112C140.872 26.954 140.3 27.07 139.711 27.4501C139.577 27.5367 139.455 27.6299 139.347 27.7226L139.304 27.7602C139.272 27.7891 139.248 27.8117 139.233 27.8263L139.225 27.8341C139.034 28.0319 138.718 28.0368 138.521 27.8451C138.323 27.6533 138.318 27.3375 138.51 27.1397L138.543 27.1067C138.58 27.0699 138.632 27.022 138.697 26.9662C138.838 26.8452 138.996 26.7247 139.171 26.6118Z" fill="#2F4077"/>
<path fill-rule="evenodd" clip-rule="evenodd" d="M135.84 34.6655C136.219 34.4999 136.326 33.9086 136.079 33.3449C135.833 32.7812 135.327 32.4584 134.949 32.624C134.57 32.7896 134.463 33.3808 134.71 33.9446C134.956 34.5083 135.462 34.831 135.84 34.6655Z" fill="#2F4077"/>
<path fill-rule="evenodd" clip-rule="evenodd" d="M142.921 31.7715C143.28 31.5672 143.321 30.9615 143.013 30.4187C142.704 29.8759 142.163 29.6015 141.804 29.8058C141.446 30.0102 141.405 30.6158 141.713 31.1586C142.022 31.7014 142.563 31.9758 142.921 31.7715Z" fill="#2F4077"/>
<path fill-rule="evenodd" clip-rule="evenodd" d="M122.722 23.6619C125.164 20.2698 123.337 7.16678 111.975 1.6296C100.481 -3.99073 95.9127 6.96724 94.9991 9.76078C94.1021 12.5543 94.8662 19.189 104.351 22.6476C113.835 26.1063 119.915 27.5363 122.722 23.6619Z" fill="#2F4077"/>
<path fill-rule="evenodd" clip-rule="evenodd" d="M125.33 28.185L121.792 25.8737C120.53 25.0423 120.197 23.3961 121.061 22.1989L121.211 21.9993C122.074 20.7855 123.802 20.4862 125.081 21.3009L128.619 23.6122L125.33 28.185Z" fill="#E4794A"/>
<path fill-rule="evenodd" clip-rule="evenodd" d="M147.887 22.1157C147.887 22.1157 145.794 10.4095 130.097 20.6192C127.506 22.0658 124.915 25.0256 123.918 28.2182C122.373 33.1568 125.745 40.5896 129.217 39.542C129.499 39.4589 129.782 39.3591 130.064 39.2427C129.948 39.0764 129.831 38.8935 129.715 38.7106C129.316 38.0621 128.968 37.4136 128.669 36.7485C132.29 33.0071 129.549 26.6053 129.267 26.0233C130.562 26.3226 131.991 26.8215 132.34 28.3679L142.389 24.3272C144.1 25.4912 145.645 27.0709 146.857 29.0164C146.874 29.033 146.89 29.0663 146.907 29.0829C147.206 27.3369 146.276 25.275 144.482 23.4792L147.887 22.1157Z" fill="#2F4077"/>
<path fill-rule="evenodd" clip-rule="evenodd" d="M104.517 80.6472C101.228 84.1391 103.421 89.0111 104.882 90.225C106.344 91.4389 108.719 94.7479 119.516 91.0897C126.459 88.7285 132.124 87.8305 135.263 87.4813C135.263 87.4813 138.17 80.1151 136.16 74.3783C136.16 74.3783 125.363 74.2121 117.307 77.5211" fill="#E4794A"/>
<path fill-rule="evenodd" clip-rule="evenodd" d="M175.394 8.81332C174.946 7.89877 173.849 5.52094 173.966 4.3736C174.115 2.89369 172.952 1.81286 172.138 3.67522C171.341 5.53757 172.072 7.69923 172.072 7.69923" fill="white"/>
<path fill-rule="evenodd" clip-rule="evenodd" d="M171.682 3.47447C172.159 2.38182 172.93 1.90259 173.668 2.34145C174.234 2.67848 174.538 3.49671 174.467 4.36518L174.461 4.42314C174.382 5.20649 175.002 6.88171 175.841 8.59269C175.963 8.84 175.861 9.13891 175.614 9.26032C175.367 9.38172 175.068 9.27966 174.947 9.03235L174.854 8.84146C173.981 7.03393 173.387 5.39869 173.465 4.37587L173.47 4.32261C173.524 3.7831 173.357 3.31701 173.159 3.19906C173.124 3.17866 173.107 3.17893 173.051 3.21354C172.915 3.29827 172.752 3.51565 172.597 3.87092C172.514 4.0643 172.447 4.26766 172.396 4.48011C172.201 5.28506 172.233 6.16317 172.407 7.00166C172.433 7.12672 172.46 7.24152 172.488 7.34448L172.504 7.40483C172.516 7.44744 172.526 7.48117 172.533 7.50537L172.544 7.5385C172.632 7.79947 172.492 8.08262 172.232 8.17095C171.971 8.25927 171.688 8.11932 171.6 7.85836L171.581 7.80089C171.539 7.66579 171.485 7.46259 171.431 7.2043C171.23 6.23355 171.193 5.2148 171.427 4.24544C171.491 3.98004 171.575 3.72376 171.682 3.47447Z" fill="#2F4077"/>
<path fill-rule="evenodd" clip-rule="evenodd" d="M172.404 14.2157L175.378 19.1876C177.57 18.6388 179.813 17.3086 181.108 14.8476C178.833 11.9543 175.012 7.19865 174.231 6.94923C172.039 6.25085 168.683 6.46701 168.019 6.66655C166.607 7.09888 167.355 7.96355 168.833 8.07995C170.245 8.19634 172.786 8.41251 172.786 8.41251C170.594 8.4624 167.853 8.62868 167.438 8.89473C166.806 9.31043 167.338 10.5243 168.833 10.4578L173.085 10.3913C173.085 10.3913 168.318 10.9067 167.737 11.1562C167.155 11.4056 167.222 13.0518 170.162 12.5696C173.102 12.0873 173.301 12.2869 173.301 12.2869C173.301 12.2869 169.747 13.0351 169.066 13.3511C168.368 13.6836 169.049 15.4296 172.404 14.2157Z" fill="white"/>
<path fill-rule="evenodd" clip-rule="evenodd" d="M167.876 6.18875C166.94 6.47528 166.475 7.10887 166.931 7.77396L166.957 7.8099C167.098 7.99816 167.312 8.15695 167.577 8.28122L167.638 8.30859C167.421 8.35943 167.263 8.41459 167.169 8.47457C166.6 8.84939 166.534 9.57287 166.929 10.1417L166.958 10.1827C167.109 10.3858 167.307 10.5548 167.543 10.6827L167.558 10.6902L167.54 10.6977C166.898 10.9732 166.755 11.8536 167.242 12.4524L167.271 12.486C167.548 12.8071 167.97 13.0174 168.524 13.1068L168.558 13.1118L168.548 13.123C168.128 13.5824 168.3 14.3634 168.944 14.7818L168.984 14.8073C169.665 15.2246 170.722 15.2581 172.073 14.8512L172.183 14.817L174.95 19.4438C175.063 19.6323 175.285 19.7248 175.498 19.6715C178.108 19.0184 180.294 17.4637 181.549 15.0802C181.641 14.9059 181.621 14.6938 181.5 14.539L181.158 14.105C177.513 9.48441 175.162 6.72287 174.383 6.47401C172.478 5.86738 169.026 5.84338 167.876 6.18875ZM170.549 6.97001C171.894 6.97936 173.148 7.12752 174.08 7.4246L174.096 7.43017C174.589 7.63215 177.049 10.5223 180.127 14.4085L180.512 14.896L180.471 14.9656C179.401 16.7697 177.693 17.9955 175.65 18.5967L175.611 18.6077L172.832 13.9595C172.709 13.7547 172.459 13.6655 172.235 13.7466C170.88 14.2366 169.941 14.2399 169.486 13.9448L169.459 13.9262C169.389 13.8765 169.348 13.828 169.329 13.7892L169.326 13.7816L169.388 13.758C169.614 13.6757 170.051 13.5529 170.631 13.4077L171.002 13.3165C171.081 13.2976 171.161 13.2784 171.242 13.2591C171.647 13.1629 172.078 13.0648 172.511 12.9687L172.902 12.883L173.404 12.775C173.791 12.6935 173.933 12.2143 173.654 11.9341C173.567 11.8475 173.465 11.8032 173.341 11.7777C172.97 11.7018 172.098 11.7582 170.436 12.0201L170.081 12.0773C168.932 12.2657 168.255 12.1164 168.015 11.822C167.958 11.7523 167.94 11.6848 167.949 11.6302L167.952 11.6139L167.955 11.6061C168.191 11.5243 169.217 11.3627 170.616 11.1847C171.069 11.127 171.543 11.0695 172.019 11.014L173.133 10.8878L173.159 10.8843C173.773 10.7902 173.696 9.88277 173.076 9.89248L168.825 9.959C168.291 9.98257 167.917 9.81678 167.747 9.5725C167.65 9.43162 167.657 9.34728 167.712 9.31148C167.796 9.25726 168.503 9.14859 169.485 9.06981L169.749 9.04963C170.649 8.98402 171.739 8.93531 172.798 8.91123C173.416 8.89716 173.455 8.00111 172.861 7.91907L172.083 7.8522L168.874 7.58279C168.563 7.55833 168.287 7.49647 168.071 7.40871L168.035 7.39359C167.954 7.3581 167.888 7.32125 167.839 7.28737L167.83 7.28113L167.841 7.27469C167.913 7.23414 168.02 7.18782 168.165 7.14358L168.211 7.13107C168.57 7.04179 169.549 6.96306 170.549 6.97001Z" fill="#2F4077"/>
<path fill-rule="evenodd" clip-rule="evenodd" d="M129.582 40.6055C131.531 40.6055 133.004 42.9758 133.004 45.8101C133.004 48.6161 131.561 50.9673 129.641 51.014L129.582 51.0147H129.532C129.257 51.0147 129.034 50.7914 129.034 50.5159C129.034 50.2502 129.242 50.033 129.503 50.0179L129.532 50.017H129.582C130.856 50.017 132.007 48.1634 132.007 45.8101C132.007 43.4568 130.856 41.6032 129.582 41.6032C129.307 41.6032 129.084 41.3798 129.084 41.1043C129.084 40.8288 129.307 40.6055 129.582 40.6055Z" fill="#E4794A"/>
<path fill-rule="evenodd" clip-rule="evenodd" d="M149.349 29.6309C150.809 29.6309 152.033 30.9591 152.523 32.8832C152.591 33.1501 152.429 33.4217 152.163 33.4898C151.896 33.5578 151.625 33.3966 151.557 33.1296C151.167 31.5999 150.273 30.6286 149.349 30.6286C149.074 30.6286 148.85 30.4052 148.85 30.1297C148.85 29.8542 149.074 29.6309 149.349 29.6309Z" fill="#E4794A"/>
<path fill-rule="evenodd" clip-rule="evenodd" d="M188.367 73.2305C191.018 73.2305 192.026 75.4703 190.638 78.0044L190.595 78.0813L173.801 107.93C172.45 110.32 169.461 112.251 167.03 112.289L166.956 112.29H136.575C133.924 112.29 132.916 110.05 134.305 107.515L134.342 107.448L140.884 94.8826C141.006 94.6473 141.29 94.5507 141.529 94.6575L141.556 94.6708C141.791 94.7934 141.888 95.0773 141.781 95.3163L141.768 95.3437L135.223 107.915L135.215 107.93C134.123 109.861 134.718 111.264 136.52 111.292L136.575 111.292H166.956C169.002 111.292 171.681 109.589 172.895 107.507L172.933 107.439L189.727 77.5907C190.831 75.6396 190.212 74.2282 188.367 74.2282C188.092 74.2282 187.869 74.0048 187.869 73.7293C187.869 73.4538 188.092 73.2305 188.367 73.2305Z" fill="#2F4077"/>
<path fill-rule="evenodd" clip-rule="evenodd" d="M296.882 142.221C297.157 142.22 297.381 142.442 297.382 142.718C297.383 142.983 297.176 143.201 296.915 143.217L296.886 143.218L1.05179 144.382C0.776578 144.383 0.552599 144.161 0.551518 143.885C0.550475 143.62 0.757073 143.402 1.0186 143.386L1.04787 143.385L296.882 142.221Z" fill="#2F4077"/>
</svg>
