<svg xmlns="http://www.w3.org/2000/svg" width="357" height="180" fill="none"><path fill="#2F4077" fill-rule="evenodd" d="M78.851 68.299a.614.614 0 0 1 .608.585l.002.037.16 17.018c.005.42-.38.726-.768.61l-.237-.071c-2.109-.648-3.563-1.389-4.21-2.374l-.035-.055c-.539-.86-1.045-1.303-1.218-1.278l-.003.002c-.013.012-.051.065-.111.234-.118.334-.182.876-.173 1.612.014 1.2.825 2.317 2.21 3.301a11.321 11.321 0 0 0 2.064 1.154l.2.083.071.028c.617.228.491 1.172-.162 1.218l-.64.047-.804.063-.722.06c-.84.073-1.671.15-2.457.233l-.339.036c-1.887.204-3.253.412-3.823.6-.36.12-.53.36-.487.504.028.1.142.223.38.347.34.177.854.303 1.535.352.733.054.755 1.167.024 1.251l-.179.022c-.64.083-1.1.195-1.372.337a1.486 1.486 0 0 0-.372.252.633.633 0 0 0-.045.05l-.018.025.008.012c.023.031.063.07.121.114l.03.023c.645.455 2.207.743 4.443.697.072-.001.14.01.204.033l.008.003.184.006a.618.618 0 0 1 .58.65.614.614 0 0 1-.624.606l-.266-.01c-1.132-.036-2.021-.022-2.671.053a3.433 3.433 0 0 0-.736.149l-.044.016.004.017c.2.784 1.577 1.268 5.584 1.485l.12.006h.403c.782 0 .809 1.195.055 1.254l-.04.002c-.908.022-1.784.113-2.616.283a6.477 6.477 0 0 0-.69.171l-.06.02.023.013c.066.036.14.072.219.109l.06.028c.187.084.391.163.595.234l.104.035.13.043.196.032c2.072.341 3.967.47 5.71.421l.194-.007a.614.614 0 0 1 .623.586l.001.036.242 25.182a.618.618 0 0 1-.568.633l-.036.002-78.254-.042a.614.614 0 0 1-.602-.585l-.001-.037L0 69.771a.618.618 0 0 1 .562-.633l.035-.002 78.254-.837Zm-.59 1.261-77.049.825.551 55.835 77.048.041-.229-23.911-.195.002a31.857 31.857 0 0 1-5.32-.446l-.238-.04a.761.761 0 0 1-.068-.015l-.15-.047-.123-.042-.045-.015a8.673 8.673 0 0 1-.693-.273 3.697 3.697 0 0 1-.822-.481c-.37-.302-.577-.68-.44-1.141.069-.228.208-.413.423-.567l.022-.016-.078-.016-.183-.04c-1.885-.44-2.667-1.17-2.73-2.351l-.002-.056a.948.948 0 0 1 .188-.611l.032-.04-.064-.026a3.4 3.4 0 0 1-.635-.327l-.049-.033c-1.031-.73-.88-1.801.124-2.47l.039-.025-.017-.01c-.358-.24-.602-.543-.72-.904l-.016-.05c-.26-.89.348-1.759 1.277-2.066l.084-.026c.748-.228 2.245-.446 4.322-.663l.59-.06c.498-.05 1.01-.097 1.526-.143l.326-.028-.077-.048a11.629 11.629 0 0 1-.318-.21l-.156-.11c-1.677-1.19-2.716-2.622-2.737-4.322-.022-1.862.371-2.972 1.331-3.109.786-.111 1.581.569 2.346 1.765l.047.074c.364.587 1.391 1.163 2.888 1.683l.136.047-.147-15.534Z" clip-rule="evenodd"/><path fill="#869ECE" d="M38.665 109.703H60.38v1.256H38.665zm-15.281 0h5.992v1.256h-5.992z"/><path fill="#869ECE" fill-rule="evenodd" d="M14.074 109.703H8.565c-.342 0-.603.272-.603.628s.261.628.603.628h5.51m46.285-9.398H38.543l.18 1.256H60.36v-1.256Zm-31.145 0H8.585c-.341 0-.603.272-.603.628 0 .355.262.628.604.628h20.81l-.181-1.256Zm44.817 8.142h-4.424v1.256h4.424c.342 0 .603-.272.603-.628s-.261-.628-.603-.628Zm0-6.886c.342 0 .603-.273.603-.628 0-.356-.261-.628-.603-.628h-4.424l.02 1.256h4.404Zm-6.656-9.399H8.566c-.343 0-.604.272-.604.628s.261.628.603.628h58.811c.342 0 .604-.272.604-.628s-.262-.628-.604-.628Zm4.766-6.887H8.586c-.342 0-.604-.272-.604-.628s.262-.628.604-.628h63.556c.342 0 .603.272.603.628a.618.618 0 0 1-.603.628Z" clip-rule="evenodd"/><path fill="#E4794A" d="m44.663 80.777 9.168-.097.365 37.173-9.168.098z"/><path fill="#2F4077" fill-rule="evenodd" d="M67.372 93.397a.615.615 0 0 1 .608.622.618.618 0 0 1-.562.632l-.036.001-6.494.058.21 22.585 8.023-.091-.176-18.882a.618.618 0 0 1 .562-.633l.036-.001a.614.614 0 0 1 .607.585l.002.037.18 19.509a.62.62 0 0 1-.56.633l-.036.001-9.229.105a.613.613 0 0 1-.608-.585l-.002-.037-.22-23.843a.618.618 0 0 1 .562-.632l.035-.002 7.098-.063Zm-28.862-.012-9.23.098a.617.617 0 0 0-.596.634l.234 23.841a.615.615 0 0 0 .609.621l9.228-.098a.617.617 0 0 0 .597-.635l-.233-23.84a.615.615 0 0 0-.61-.621Zm-.592 1.262.221 22.584-8.022.086-.221-22.584 8.022-.086Zm-14.681 11.122-9.169.104a.617.617 0 0 0-.596.636l.14 11.43a.616.616 0 0 0 .61.62l9.169-.105a.617.617 0 0 0 .596-.636l-.14-11.43a.614.614 0 0 0-.61-.619Zm-.589 1.262.125 10.173-7.962.091-.125-10.173 7.962-.091Z" clip-rule="evenodd"/><path fill="#2F4077" fill-rule="evenodd" d="M8.565 77.258c.321 0 .584.261.602.59l.001.038v39.417h64.864c.32 0 .584.261.602.591v.037a.618.618 0 0 1-.567.627l-.035.001H8.565a.615.615 0 0 1-.602-.591l-.001-.037V77.886c0-.347.27-.628.603-.628Z" clip-rule="evenodd"/><path fill="#E4794A" fill-rule="evenodd" d="M20.971 119.666c.333 0 .603.281.603.628a.618.618 0 0 1-.567.627l-.036.001h-5.388a.616.616 0 0 1-.604-.628c0-.334.252-.608.568-.627l.036-.001h5.388Zm15.784 0c.333 0 .603.281.603.628a.618.618 0 0 1-.568.627l-.035.001h-5.389a.616.616 0 0 1-.603-.628c0-.334.251-.608.568-.627l.035-.001h5.389Zm15.482 0c.333 0 .603.281.603.628a.618.618 0 0 1-.567.627l-.036.001H46.85a.616.616 0 0 1-.603-.628c0-.334.25-.608.567-.627l.036-.001h5.388Zm15.503 0c.332 0 .603.281.603.628a.618.618 0 0 1-.568.627l-.036.001h-5.388a.616.616 0 0 1-.603-.628c0-.334.25-.608.567-.627l.036-.001h5.388Z" clip-rule="evenodd"/><path fill="#869ECE" fill-rule="evenodd" d="M5.871 87.304c-.342 0-.603-.272-.603-.628v-.984c0-.355.261-.627.603-.627.342 0 .603.272.603.627v.984c0 .335-.26.628-.603.628Zm0 7.851c-.342 0-.603-.272-.603-.628v-.984c0-.356.261-.628.603-.628.342 0 .603.272.603.628v.984c0 .356-.26.628-.603.628Zm0 8.645c-.342 0-.603-.272-.603-.628v-.983c0-.356.261-.628.603-.628.342 0 .603.272.603.628v.983c0 .335-.26.628-.603.628Zm0 8.143c-.342 0-.603-.272-.603-.628v-.984c0-.356.261-.628.603-.628.342 0 .603.272.603.628v.984c0 .335-.26.628-.603.628Z" clip-rule="evenodd"/><path fill="#2F4077" fill-rule="evenodd" d="M67.15 93.397a.615.615 0 0 1 .61.623.618.618 0 0 1-.563.632l-.036.001-6.273.058.21 22.585 8.023-.091-.176-19.05a.618.618 0 0 1 .562-.632l.036-.002a.614.614 0 0 1 .607.585l.002.037.18 19.677a.62.62 0 0 1-.56.633l-.036.001-9.229.105a.613.613 0 0 1-.608-.585l-.002-.037-.22-23.843a.618.618 0 0 1 .562-.632l.035-.002 6.877-.063Z" clip-rule="evenodd"/><path fill="#fff" fill-rule="evenodd" d="M305.826 160.802H65.074c-3.484 0-6.305-2.624-6.305-5.881V34.737h253.333v120.155c0 3.257-2.821 5.91-6.276 5.91Z" clip-rule="evenodd"/><path fill="#2F4077" fill-rule="evenodd" d="M312.102 33.873H58.769a.864.864 0 0 0-.864.865V154.92c0 3.747 3.218 6.746 7.169 6.746h240.752c3.922 0 7.14-3.028 7.14-6.775V34.738a.865.865 0 0 0-.864-.865Zm-252.47 1.73H311.24v119.289c0 2.766-2.422 5.045-5.413 5.045H64.974c-2.977-.05-5.342-2.284-5.342-5.016V35.603Z" clip-rule="evenodd"/><path fill="#465F9D" fill-rule="evenodd" d="M58.049 36.842 57.76 7.034c0-3.719 2.85-6.717 6.334-6.717L306.718 0c3.513 0 6.334 3.027 6.334 6.717v30.125H58.049Z" clip-rule="evenodd"/><path fill="#fff" fill-rule="evenodd" d="M188.79 4.584c2.108 0 3.837 1.6 3.885 3.63l.002.089v11.33a.865.865 0 0 1-1.726.05l-.002-.05V8.302c0-1.07-.913-1.953-2.086-1.988l-.073-.001h-22.285a.864.864 0 0 1-.05-1.729l.05-.001h22.285Z" clip-rule="evenodd"/><path fill="#fff" fill-rule="evenodd" d="M166.592 4.612c2.47 0 4.872 1.295 6.421 3.375l.02.027.018.028 7.721 12.224h132.309v1.73H180.296a.864.864 0 0 1-.697-.354l-.033-.05-7.956-12.596-.056-.073c-1.21-1.566-3.019-2.54-4.848-2.58l-.114-.001h-51.853c-1.885 0-3.721.973-4.962 2.58l-.057.074-7.956 12.597a.863.863 0 0 1-.667.4l-.059.003-43.187.201-.008-1.73 42.714-.199 7.731-12.24.029-.041c1.529-2.053 3.849-3.33 6.291-3.374h51.984ZM68.327 14.616a3.86 3.86 0 0 0 3.858-3.863 3.86 3.86 0 0 0-3.858-3.863 3.86 3.86 0 0 0-3.858 3.863 3.86 3.86 0 0 0 3.858 3.863Z" clip-rule="evenodd"/><path fill="#fff" fill-rule="evenodd" d="M81.024 14.616a3.86 3.86 0 0 0 3.858-3.863 3.86 3.86 0 0 0-3.858-3.863 3.86 3.86 0 0 0-3.858 3.863 3.86 3.86 0 0 0 3.858 3.863Zm12.726 0a3.86 3.86 0 0 0 3.858-3.863A3.86 3.86 0 0 0 93.75 6.89a3.86 3.86 0 0 0-3.858 3.863 3.86 3.86 0 0 0 3.858 3.863Zm68.044-2.527a.863.863 0 0 1 1.176-.12l.042.034 3.513 3.056a.865.865 0 0 1-1.091 1.34l-.042-.035-3.513-3.055a.866.866 0 0 1-.085-1.22Z" clip-rule="evenodd"/><path fill="#fff" fill-rule="evenodd" d="M165.432 12.023a.863.863 0 0 1 1.151 1.288l-.041.037-3.57 2.998a.863.863 0 0 1-1.151-1.289l.041-.036 3.57-2.998Zm17.72-1.963c.46.004.834.366.857.82l.001.051-.029 4.21a.864.864 0 0 1-1.726.038l-.001-.05.029-4.21a.864.864 0 0 1 .869-.858Z" clip-rule="evenodd"/><path fill="#fff" fill-rule="evenodd" d="M185.248 12.165a.865.865 0 0 1 .051 1.728l-.051.002h-4.232a.865.865 0 0 1-.051-1.729l.051-.001h4.232Z" clip-rule="evenodd"/><path fill="#465F9D" fill-rule="evenodd" d="M238.052 93.143H125.737a5.016 5.016 0 0 1-5.009-5.016V73.771a5.016 5.016 0 0 1 5.009-5.016h112.315a5.016 5.016 0 0 1 5.009 5.016v14.385c-.028 2.739-2.245 4.987-5.009 4.987Z" clip-rule="evenodd"/><path fill="#2F4077" fill-rule="evenodd" d="M238.656 99.313H125.593a5.18 5.18 0 0 0-5.182 5.189v5.909a5.179 5.179 0 0 0 5.182 5.189h113.063a5.18 5.18 0 0 0 5.183-5.189v-5.909a5.18 5.18 0 0 0-5.183-5.19Zm-113.063 1.729h113.063a3.451 3.451 0 0 1 3.455 3.46v5.909a3.452 3.452 0 0 1-3.455 3.46H125.593a3.452 3.452 0 0 1-3.455-3.46v-5.909a3.451 3.451 0 0 1 3.455-3.46Z" clip-rule="evenodd"/><path fill="#E4794A" fill-rule="evenodd" d="M158.386 109.949h-24.991a1.746 1.746 0 0 1-1.756-1.758v-1.643c0-.981.778-1.759 1.756-1.759h24.991c.979 0 1.756.778 1.756 1.759v1.643c0 .98-.806 1.758-1.756 1.758Zm78.687 0h-14.626a1.746 1.746 0 0 1-1.757-1.758v-1.643c0-.981.778-1.759 1.757-1.759h14.626c.979 0 1.756.778 1.756 1.759v1.643c0 .98-.777 1.758-1.756 1.758Zm-22.889 0h-47.966a1.746 1.746 0 0 1-1.757-1.758v-1.643c0-.981.778-1.759 1.757-1.759h47.966c.979 0 1.756.778 1.756 1.759v1.643c0 .98-.777 1.758-1.756 1.758Z" clip-rule="evenodd"/><path fill="#fff" fill-rule="evenodd" d="M302.804 25.6a.865.865 0 0 1 .051 1.728l-.051.001h-4.837a.864.864 0 0 1-.05-1.728l.05-.001h4.837Zm0 2.68a.865.865 0 0 1 .051 1.729h-4.888a.864.864 0 0 1-.05-1.727l.05-.002h4.837Zm0 2.682a.865.865 0 0 1 .051 1.728l-.051.002h-4.837a.864.864 0 0 1-.05-1.729l.05-.001h4.837Zm-13.36-3.374c-.115-.375-.432-.634-.835-.634h-1.987l-.604-1.874a.903.903 0 0 0-.835-.605c-.375 0-.72.23-.835.605l-.605 1.874h-1.986c-.375 0-.72.23-.835.605-.116.346 0 .75.316.98l1.613 1.153-.605 1.874c-.115.346 0 .75.317.98a.802.802 0 0 0 .518.173.858.858 0 0 0 .518-.173l1.641-1.21 1.613.922a.87.87 0 0 0 .978-.086c.288-.231.375-.606.288-.952l-.575-1.816 1.497-.865a.802.802 0 0 0 .403-.951Zm-16.786 4.929H102.33c-.806 0-1.44-.634-1.44-1.441v-2.71c0-.807.634-1.441 1.44-1.441h170.328c.807 0 1.44.634 1.44 1.441v2.71c0 .807-.633 1.441-1.44 1.441Zm-200.165-6.43a.863.863 0 0 1 1.22.051.866.866 0 0 1-.012 1.184l-.039.038-2.156 1.984 2.27 2.074c.338.31.374.827.09 1.18l-.035.041a.863.863 0 0 1-1.179.092l-.041-.036-2.966-2.71a.866.866 0 0 1-.042-1.236l.04-.04 2.85-2.622Z" clip-rule="evenodd"/><path fill="#fff" fill-rule="evenodd" d="M77.454 28.54a.864.864 0 0 1 .05 1.727l-.05.002h-7.226a.864.864 0 0 1-.051-1.728l.05-.002h7.227Zm9.24-2.402a.863.863 0 0 1 1.179-.087l.041.036 2.85 2.623c.36.33.372.89.038 1.236l-.04.04-2.965 2.71a.863.863 0 0 1-1.22-.057.866.866 0 0 1 .016-1.183l.04-.038 2.268-2.074-2.156-1.984a.866.866 0 0 1-.087-1.18l.036-.042Z" clip-rule="evenodd"/><path fill="#fff" fill-rule="evenodd" d="M90.18 28.54a.864.864 0 0 1 .05 1.727l-.05.002h-7.227a.864.864 0 0 1-.05-1.728l.05-.002h7.227Zm205.039-17.122a.864.864 0 0 1 1.702.293l-.009.05-.272 1.348 1.448.158c.457.05.792.448.77.902l-.004.05a.865.865 0 0 1-.902.771l-.05-.004-2.39-.26a.865.865 0 0 1-.762-.98l.009-.05.46-2.278Z" clip-rule="evenodd"/><path fill="#fff" fill-rule="evenodd" d="M298.61 10.66a.862.862 0 0 1 1.206.19.866.866 0 0 1-.147 1.175l-.043.034-3.484 2.536a.864.864 0 0 1-1.059-1.365l.043-.034 3.484-2.536Zm3.104-3.809a.865.865 0 0 1 .905-.767l.05.005 2.304.259a.864.864 0 0 1 .759.974l-.008.051-.461 2.364a.864.864 0 0 1-1.704-.281l.009-.05.281-1.444-1.373-.155a.865.865 0 0 1-.766-.905l.004-.05Z" clip-rule="evenodd"/><path fill="#fff" fill-rule="evenodd" d="M304.397 6.537a.862.862 0 0 1 1.206.19.866.866 0 0 1-.147 1.175l-.043.033-3.484 2.537a.864.864 0 0 1-1.059-1.365l.043-.034 3.484-2.536Z" clip-rule="evenodd"/><path fill="#E4794A" fill-rule="evenodd" d="m138.838 68.474.001-.002a22.988 22.988 0 0 0-6.687-16.23.01.01 0 0 1 0-.012.009.009 0 0 0 0-.013 22.824 22.824 0 0 0-32.304-.002.01.01 0 0 0 0 .014.01.01 0 0 1 0 .014 22.993 22.993 0 0 0-6.686 16.231l.001.002v26.021a4.58 4.58 0 0 0 9.16 0v-26.02a.01.01 0 0 1 .01-.01c.006 0 .011-.005.011-.01a13.75 13.75 0 0 1 2.297-7.614 13.679 13.679 0 0 1 6.13-5.059 13.63 13.63 0 0 1 5.652-1.042c1.643.052 3.272.402 4.806 1.041a13.68 13.68 0 0 1 6.13 5.059 13.75 13.75 0 0 1 2.297 7.613c0 .006.005.01.011.01a.01.01 0 0 1 .01.01v26.021a4.58 4.58 0 1 0 9.16 0V68.475l.001-.001Z" clip-rule="evenodd"/><path fill="#2F4077" d="m134.999 55.728.833-.553-.833.553Zm-14.547-9.772-.195.981.195-.98Zm-3.746-.426-.031 1h.001l.03-1Zm-5.158.425-.195-.98.195.98ZM97.001 55.73l-.833-.554.833.554Zm7.64 5.114-.833-.554.833.553Zm6.13-5.059-.384-.923.384.923Zm5.652-1.042.032-1h-.002l-.03 1Zm4.806 1.041.384-.923-.384.923Zm6.13 5.059-.833.553.833-.553Zm2.297 7.613h-1 1Zm-27.312.001h-1 1Zm-9.18.02h-1 1Zm-.003-.003h1-1Zm.001.001v-1 1Zm6.686-16.231.709.705-.709-.705Zm2.475 16.234h1-1Zm.01-.01.001 1-.001-1Zm29.819-16.25.708-.707-.708.707Zm-32.304-.002.708.707-.708-.707Zm32.304.027-.708.706.708-.706Zm0-.012.709.705-.709-.706Zm6.687 16.242 1 .001h-1Zm-4.673-12.19a21.993 21.993 0 0 1 3.673 12.19l2 .001a23.991 23.991 0 0 0-4.007-13.298l-1.666 1.107Zm-2.722-3.334a21.931 21.931 0 0 1 2.722 3.334l1.666-1.107a23.894 23.894 0 0 0-2.971-3.638l-1.417 1.411Zm1.416-1.438a23.828 23.828 0 0 0-12.213-6.535l-.39 1.962a21.825 21.825 0 0 1 11.188 5.986l1.415-1.413Zm-12.213-6.535a23.754 23.754 0 0 0-3.91-.445l-.061 2c1.198.036 2.396.171 3.581.407l.39-1.962Zm-8.904 1.961a21.767 21.767 0 0 1 4.932-.407l.063-1.999a23.765 23.765 0 0 0-5.385.445l.39 1.961Zm-11.187 5.986a21.828 21.828 0 0 1 11.187-5.986l-.39-1.961a23.829 23.829 0 0 0-12.212 6.533l1.415 1.414Zm-1.417-1.385a23.917 23.917 0 0 0-2.97 3.638l1.665 1.107c.8-1.204 1.713-2.32 2.723-3.334l-1.418-1.41Zm-2.97 3.638a23.994 23.994 0 0 0-4.008 13.299l2-.002a21.994 21.994 0 0 1 3.673-12.19l-1.666-1.107Zm-4.005 13.3v26.022h2V68.476h-2Zm11.159 26.022v-26.02h-2v26.02h2Zm.021-26.04a12.75 12.75 0 0 1 2.13-7.061l-1.666-1.107a14.752 14.752 0 0 0-2.464 8.167h2Zm2.13-7.061a12.68 12.68 0 0 1 5.682-4.689l-.769-1.846a14.679 14.679 0 0 0-6.579 5.428l1.666 1.107Zm5.682-4.689a12.627 12.627 0 0 1 5.237-.966l.06-1.999a14.624 14.624 0 0 0-6.066 1.12l.769 1.845Zm10.457-1.847a14.621 14.621 0 0 0-5.158-1.118l-.064 2c1.522.048 3.032.372 4.453.965l.769-1.847Zm6.579 5.428a14.68 14.68 0 0 0-6.579-5.428l-.769 1.847a12.675 12.675 0 0 1 5.682 4.688l1.666-1.107Zm2.464 8.167a14.751 14.751 0 0 0-2.464-8.167l-1.666 1.107a12.75 12.75 0 0 1 2.13 7.06h2Zm.021 26.041v-26.02h-2v26.02h2Zm7.16-26.021v26.021h2V68.475h-2Zm-9.16 26.021a5.58 5.58 0 0 0 5.58 5.58v-2a3.58 3.58 0 0 1-3.58-3.58h-2Zm.989-25.03a.99.99 0 0 1-.989-.99h2a1.01 1.01 0 0 0-1.009-1.01l-.002 2Zm-1.01-1.01c0 .555.451 1.01 1.01 1.01l.002-2a.99.99 0 0 1 .988.99h-2Zm-26.322 1.01a1.01 1.01 0 0 0 1.01-1.01h-2a.99.99 0 0 1 .989-.99l.001 2Zm-9.171.008a1 1 0 0 1-1-.998h2c0-.554-.448-1.002-1.002-1.002l.002 2Zm-1.002-1a1 1 0 0 0 1.002 1l-.002-2a.999.999 0 0 1 1 .998l-2 .002Zm6.978-15.54a.99.99 0 0 1 0-1.397l1.418 1.411a1.01 1.01 0 0 0 0-1.424l-1.418 1.41Zm4.184 15.543a.99.99 0 0 1-.989.99l-.001-2a1.01 1.01 0 0 0-1.01 1.01h2Zm29.538-15.542a1.01 1.01 0 0 0-.001-1.425l-1.415 1.413a.99.99 0 0 1-.002-1.399l1.418 1.41Zm-33.72-1.427a1.01 1.01 0 0 0-.002 1.426l1.418-1.41a.99.99 0 0 1-.001 1.398l-1.415-1.413Zm-1.398 48.569a5.58 5.58 0 0 0 5.58-5.58h-2a3.58 3.58 0 0 1-3.58 3.58v2Zm42.094-31.602a1 1 0 0 1-1 .999l.002-2a1 1 0 0 0-1.002 1h2Zm-6.976-16.938a.99.99 0 0 1 0 1.398l-1.418-1.41a1.01 1.01 0 0 0 .001 1.423l1.417-1.411Zm-40.697 42.96a5.58 5.58 0 0 0 5.58 5.58v-2a3.58 3.58 0 0 1-3.58-3.58h-2Zm42.093 5.579a5.58 5.58 0 0 0 5.58-5.58h-2a3.58 3.58 0 0 1-3.58 3.58v2Zm3.582-31.605a1 1 0 0 1 1-.998l-.002 2a1 1 0 0 0 1.002-1l-2-.002Z"/><path fill="#fff" stroke="#2F4077" stroke-width="2" d="M83.028 128.335c-.016 5.523 4.45 10.012 9.972 10.028l45.852.128c5.523.015 10.013-4.449 10.028-9.972l.092-33.36c.016-5.524-4.449-10.013-9.972-10.029l-45.852-.128c-5.523-.015-10.013 4.45-10.028 9.973l-.092 33.36Z"/><mask id="a" fill="#fff"><path fill-rule="evenodd" d="M111.004 118.833c.339-1.95-.678-3.839-1.906-5.391a8.827 8.827 0 0 1-1.907-5.496c0-4.885 3.946-8.845 8.814-8.845s8.814 3.96 8.814 8.845a8.83 8.83 0 0 1-1.907 5.496c-1.228 1.552-2.244 3.44-1.906 5.391a4.747 4.747 0 0 1-4.677 5.558h-.648a4.746 4.746 0 0 1-4.677-5.558Z" clip-rule="evenodd"/></mask><path fill="#2F4077" fill-rule="evenodd" d="M111.004 118.833c.339-1.95-.678-3.839-1.906-5.391a8.827 8.827 0 0 1-1.907-5.496c0-4.885 3.946-8.845 8.814-8.845s8.814 3.96 8.814 8.845a8.83 8.83 0 0 1-1.907 5.496c-1.228 1.552-2.244 3.44-1.906 5.391a4.747 4.747 0 0 1-4.677 5.558h-.648a4.746 4.746 0 0 1-4.677-5.558Z" clip-rule="evenodd"/><path fill="#2F4077" d="m109.098 113.442-2.353 1.861 2.353-1.861Zm1.093-5.496a5.83 5.83 0 0 0 1.26 3.635l-4.706 3.722a11.833 11.833 0 0 1-2.554-7.357h6Zm5.814-5.845c-3.201 0-5.814 2.607-5.814 5.845h-6c0-6.532 5.279-11.845 11.814-11.845v6Zm5.814 5.845c0-3.238-2.613-5.845-5.814-5.845v-6c6.535 0 11.814 5.313 11.814 11.845h-6Zm-1.26 3.634a5.827 5.827 0 0 0 1.26-3.634h6c0 2.775-.956 5.336-2.554 7.357l-4.706-3.723Zm-4.878 9.811h.648v6h-.648v-6Zm8.281-3.071c.822 4.737-2.825 9.071-7.633 9.071v-6a1.747 1.747 0 0 0 1.722-2.045l5.911-1.026Zm1.303-3.017c-1.113 1.406-1.411 2.395-1.303 3.017l-5.911 1.026c-.569-3.279 1.165-6.067 2.508-7.766l4.706 3.723Zm-9.584 12.088c-4.808 0-8.455-4.334-7.633-9.071l5.912 1.026a1.747 1.747 0 0 0 1.721 2.045v6Zm-4.23-15.81c1.344 1.698 3.078 4.486 2.509 7.765l-5.912-1.026c.108-.622-.19-1.61-1.303-3.017l4.706-3.722Z" mask="url(#a)"/><path fill="#E4794A" fill-rule="evenodd" d="m309.832 83.763 25.236-12.806a28.385 28.385 0 0 1 3.06 12.806c0 15.533-12.775 28.317-28.296 28.317a28.263 28.263 0 0 1-22.133-10.683l22.133-17.634Z" clip-rule="evenodd"/><path fill="#2F4077" fill-rule="evenodd" d="M354.901 61.48a.67.67 0 0 1 .039 1.34l-.039.001h-23.383a.67.67 0 0 1-.04-1.34h23.423Zm0 3.152a.67.67 0 0 1 .039 1.34h-12.501a.67.67 0 0 1-.04-1.339l.04-.001h12.462Zm0 3.173a.67.67 0 0 1 .039 1.34h-8.325a.67.67 0 0 1-.04-1.34h8.326Zm.692 18.775a.67.67 0 0 1 .039 1.339l-.039.001H325.42a.67.67 0 0 1-.039-1.34h30.212Zm0 2.48a.67.67 0 0 1 .039 1.34h-5.69a.67.67 0 0 1-.039-1.34h5.69ZM292.68 58.866a.67.67 0 0 1 .039 1.34l-.039.001h-17.979a.67.67 0 0 1-.039-1.34h18.018Zm-14.383 2.548a.67.67 0 0 1 .039 1.34l-.039.001h-3.596a.67.67 0 0 1-.039-1.34h3.635Z" clip-rule="evenodd"/><path fill="#E4794A" fill-rule="evenodd" d="m304.554 84.344-27.225.29a.67.67 0 0 0-.662.678 27.76 27.76 0 0 0 6.041 17.038.67.67 0 0 0 .941.108l21.328-16.918c.501-.397.215-1.203-.423-1.196Zm-1.943 1.362-19.264 15.28-.052-.068a26.4 26.4 0 0 1-5.27-14.85l-.003-.1 24.589-.263Zm-22.906-13.204a27.873 27.873 0 0 0-1.877 10.098v.358a.67.67 0 0 0 .679.67l27.202-.358c.737-.01.92-1.028.234-1.295l-25.371-9.856a.67.67 0 0 0-.867.383Zm1.015 1.113 21.52 8.36-23.07.303.002-.133a26.499 26.499 0 0 1 1.475-8.324l.073-.206Zm42.979-17.562-13.422 23.624c-.327.575.288 1.226.88.931l24.322-12.09a.67.67 0 0 0 .302-.898 27.688 27.688 0 0 0-11.169-11.819.67.67 0 0 0-.913.252Zm.83 1.252.08.048a26.352 26.352 0 0 1 9.625 10.184l.042.08-21.75 10.814 12.003-21.126Z" clip-rule="evenodd"/><path fill="#2F4077" fill-rule="evenodd" d="M321.155 57.01a27.21 27.21 0 0 0-13.333-3.598h-.447c-11.412.112-21.127 7.241-25.058 17.276l25.326 9.946 13.512-23.624Zm-38.749 32.14a.67.67 0 0 1 .04 1.34h-18.018a.67.67 0 0 1-.04-1.34h18.018Zm-11.479 2.547a.67.67 0 0 1 .039 1.34l-.039.001h-6.499a.67.67 0 0 1-.04-1.34h6.539Z" clip-rule="evenodd"/><path fill="#FAA184" fill-rule="evenodd" d="M268.081 179.943h-67.774c-3.167 0-5.759-2.594-5.759-5.765v-29.462c0-3.171 2.592-5.766 5.759-5.766h67.774c3.167 0 5.758 2.595 5.758 5.766v29.462a5.76 5.76 0 0 1-5.758 5.765Z" clip-rule="evenodd"/><path fill="#E4794A" fill-rule="evenodd" d="M213.925 164.348c4.532 0 8.205-3.678 8.205-8.216 0-4.538-3.673-8.216-8.205-8.216s-8.206 3.678-8.206 8.216c0 4.538 3.674 8.216 8.206 8.216Zm45.922 4.958h-10.25a1.869 1.869 0 0 1-1.871-1.874v-1.038c0-1.037.835-1.873 1.871-1.873h10.25c1.036 0 1.871.836 1.871 1.873v1.038a1.869 1.869 0 0 1-1.871 1.874Z" clip-rule="evenodd"/><path fill="#465F9D" fill-rule="evenodd" d="M196.304 147.166a6.193 6.193 0 0 0 6.19-6.197 6.193 6.193 0 0 0-6.19-6.198 6.194 6.194 0 0 0-6.19 6.198 6.194 6.194 0 0 0 6.19 6.197Z" clip-rule="evenodd"/><path fill="#fff" fill-rule="evenodd" d="m227.485 154.864 33.427.086-33.427-.086Z" clip-rule="evenodd"/><path fill="#2F4077" fill-rule="evenodd" d="m227.488 153.999 33.426.087a.864.864 0 0 1 .046 1.728l-.05.001-33.427-.086a.864.864 0 0 1-.046-1.729l.051-.001Z" clip-rule="evenodd"/><path fill="#fff" fill-rule="evenodd" d="m227.859 159.073 33.398.115-33.398-.115Z" clip-rule="evenodd"/><path fill="#2F4077" fill-rule="evenodd" d="m227.862 158.208 33.398.115a.864.864 0 0 1 .045 1.729l-.051.001-33.398-.115a.864.864 0 0 1-.044-1.729l.05-.001Z" clip-rule="evenodd"/></svg>