<svg width="362" height="181" viewBox="0 0 362 181" fill="none" xmlns="http://www.w3.org/2000/svg">
<path fill-rule="evenodd" clip-rule="evenodd" d="M29.8086 42.5098C29.8086 42.5098 19.8937 78.8016 62.5958 98.0703L78.4894 85.7521C78.4894 85.7521 78.915 43.2369 29.8086 42.5098Z" fill="white"/>
<path fill-rule="evenodd" clip-rule="evenodd" d="M29.8179 41.8692C29.527 41.8649 29.2701 42.0588 29.193 42.3408L29.1551 42.4881L29.1461 42.5243C29.1106 42.6684 29.0713 42.8377 29.0292 43.0314C28.9096 43.581 28.7904 44.2183 28.6793 44.9369C28.0912 48.7408 27.9571 53.1154 28.5584 57.8247C29.3813 64.2701 31.5044 70.5713 35.2092 76.485C40.799 85.4076 49.6761 92.9448 62.3344 98.6566C62.549 98.7534 62.7992 98.7238 62.9855 98.5794L78.8793 86.2611C79.0342 86.141 79.1258 85.9561 79.1278 85.7595L79.1266 85.5414C79.125 85.4277 79.1218 85.2892 79.1163 85.127C79.1017 84.6962 79.0747 84.2058 79.0321 83.6607C78.9135 82.1418 78.697 80.4645 78.3583 78.6689C77.4019 73.5974 75.6674 68.5362 72.9597 63.8071C69.4897 57.7468 64.6577 52.6721 58.2761 48.915C50.7671 44.4942 41.3409 42.0398 29.8179 41.8692ZM30.3081 43.1615L30.4752 43.1649C41.477 43.4164 50.466 45.8039 57.6309 50.0222C63.8137 53.6622 68.4903 58.5738 71.8532 64.4472C74.4842 69.0421 76.1727 73.9691 77.1041 78.9079C77.4338 80.656 77.6444 82.2872 77.7594 83.7611C77.7964 84.2344 77.8212 84.6636 77.8359 85.0451L77.8443 85.2953L77.8479 85.4399L62.5094 97.3279L62.1156 97.1472C50.0771 91.5799 41.6328 84.3304 36.2895 75.8013C32.6881 70.0527 30.6248 63.929 29.8246 57.6614C29.2397 53.0802 29.3701 48.8249 29.9407 45.1339L29.9906 44.8202C30.0746 44.3069 30.1622 43.8418 30.25 43.4281L30.2931 43.2289L30.3081 43.1615Z" fill="#2F4077"/>
<path fill-rule="evenodd" clip-rule="evenodd" d="M67.7447 6.32617C67.7447 6.32617 119.574 33.7643 94.0213 95.5054L65.617 98.3069C65.617 98.3283 21.4255 58.8713 67.7447 6.32617Z" fill="white"/>
<path fill-rule="evenodd" clip-rule="evenodd" d="M67.2669 5.89972C56.3407 18.2946 49.8396 30.6084 47.2473 42.7329C45.0498 53.0109 45.7128 62.8792 48.7035 72.2245C51.0279 79.4876 54.6135 86.0209 58.9279 91.7206C60.4393 93.7174 61.9353 95.4686 63.3465 96.9575L63.5727 97.1946C63.9441 97.5815 64.2879 97.9269 64.5984 98.2281L64.8076 98.4292C64.8641 98.4829 64.9172 98.533 64.9667 98.5792L65.2003 98.7921L65.2418 98.8251L65.293 98.8591C65.3069 98.8672 65.3256 98.876 65.3819 98.9025L65.4194 98.916L65.5534 98.9444L65.6747 98.8979L65.6794 98.9445L94.0836 96.1429C94.3177 96.1198 94.5203 95.9692 94.6106 95.7508C101.739 78.5281 103.333 62.936 100.253 48.9455C97.7661 37.6467 92.3541 27.874 84.8967 19.5821C81.2162 15.4898 77.2735 12.0246 73.3296 9.17092C72.0137 8.21875 70.7864 7.40031 69.6759 6.71399L69.5102 6.61204C69.1456 6.38869 68.8173 6.19428 68.5283 6.02864L68.3084 5.90389L68.0421 5.75754C67.782 5.61983 67.4619 5.67853 67.2669 5.89972ZM67.5805 7.48466L67.8838 7.13615L68.0877 7.25413C68.3175 7.38802 68.5707 7.53919 68.8458 7.70772C69.9724 8.39786 71.2292 9.23219 72.5838 10.2123C76.458 13.0155 80.3333 16.4215 83.9497 20.4426C91.2667 28.5784 96.5707 38.1562 99.0068 49.2227L99.096 49.6349C101.967 63.1182 100.423 78.1364 93.6412 94.7489L93.5774 94.9035L65.8362 97.6396L65.6847 97.4968L65.5735 97.3904C65.1925 97.0237 64.7542 96.5825 64.2708 96.0724C62.8911 94.6167 61.4257 92.9014 59.9438 90.9437C55.7119 85.353 52.1955 78.9455 49.9188 71.8316C46.9944 62.6935 46.3466 53.0524 48.4954 43.0025C50.9887 31.3409 57.1823 19.4708 67.5805 7.48466Z" fill="#2F4077"/>
<path fill-rule="evenodd" clip-rule="evenodd" d="M138.128 30.6406C138.128 30.6406 158.872 61.971 124.34 93.729L105.404 87.0566C105.404 87.0566 91.7022 46.8298 138.128 30.6406Z" fill="white"/>
<path fill-rule="evenodd" clip-rule="evenodd" d="M137.918 30.0355C126.936 33.8652 118.705 39.2253 112.948 45.8649C108.064 51.4967 105.089 57.8946 103.73 64.7961C102.675 70.157 102.648 75.511 103.357 80.608C103.593 82.3074 103.896 83.863 104.236 85.248L104.287 85.4545C104.402 85.913 104.514 86.3226 104.619 86.6803L104.65 86.7861C104.682 86.8939 104.712 86.9907 104.739 87.0762L104.8 87.2655C104.864 87.4515 105.008 87.598 105.193 87.6631L124.129 94.3355C124.351 94.4137 124.598 94.3629 124.771 94.2034C136.289 83.6112 142.522 72.3633 144.368 60.8488C145.755 52.2002 144.594 44.0533 141.813 36.7823C141.127 34.99 140.392 33.3929 139.656 32.0101C139.421 31.5685 139.2 31.1773 139 30.8383L138.855 30.5969C138.766 30.4523 138.7 30.3483 138.659 30.2862C138.498 30.0427 138.193 29.9397 137.918 30.0355ZM137.693 31.4751L137.856 31.4171L137.961 31.5937C138.136 31.8931 138.327 32.2341 138.53 32.6156C139.242 33.9529 139.955 35.5019 140.621 37.2429C143.327 44.3155 144.456 52.2388 143.108 60.6447L143.053 60.9813C141.223 71.8649 135.347 82.5248 124.575 92.6382L124.19 92.9972L105.915 86.5576L105.873 86.4177L105.807 86.1917C105.717 85.8802 105.623 85.5292 105.525 85.1406C105.176 83.7479 104.862 82.1673 104.621 80.4305C103.931 75.4669 103.957 70.2544 104.983 65.0451C106.299 58.3562 109.179 52.1639 113.91 46.708C119.403 40.3731 127.237 35.2167 137.693 31.4751Z" fill="#2F4077"/>
<path fill-rule="evenodd" clip-rule="evenodd" d="M159.404 58.0583C159.404 58.0583 157.192 102.306 112.574 98.3707L102.34 83.422C102.34 83.4006 113.106 44.1147 159.404 58.0583Z" fill="white"/>
<path fill-rule="evenodd" clip-rule="evenodd" d="M130.814 55.5096C123.805 57.1151 117.921 60.4149 113.071 65.0369C109.37 68.5651 106.475 72.6578 104.292 76.9692L104.176 77.2003C102.829 79.8954 101.702 82.9678 101.702 83.4212C101.702 83.551 101.741 83.6779 101.815 83.7849L112.049 98.7336C112.157 98.8913 112.329 98.9923 112.519 99.009C123.518 99.9791 132.577 98.1133 139.855 93.8168C145.962 90.2113 150.629 85.0118 154.036 78.6414C156.44 74.147 158.079 69.3374 159.097 64.5285C159.453 62.8453 159.706 61.2816 159.874 59.8767L159.908 59.5874C159.945 59.2576 159.975 58.955 159.998 58.6814L160.014 58.4878L160.034 58.2161C160.038 58.1552 160.041 58.1128 160.042 58.0897C160.057 57.7947 159.869 57.5277 159.587 57.4429C148.635 54.1442 139.073 53.6178 130.814 55.5096ZM158.578 58.4811L158.73 58.5258L158.705 58.8032C158.679 59.0824 158.646 59.3898 158.607 59.7239C158.443 61.0917 158.196 62.6175 157.848 64.2615C156.854 68.9589 155.253 73.6556 152.912 78.0338C149.609 84.2081 145.1 89.2321 139.208 92.7104L138.996 92.8344C132.131 96.8217 123.614 98.5973 113.266 97.7838L112.929 97.7563L103.039 83.3093L103.081 83.1737L103.15 82.9594C103.246 82.6648 103.36 82.3355 103.492 81.9752C103.965 80.6873 104.569 79.2719 105.316 77.7762C107.45 73.5049 110.298 69.4488 113.95 65.968C118.638 61.4993 124.32 58.3132 131.098 56.7606C138.971 54.9571 148.098 55.4149 158.578 58.4811Z" fill="#2F4077"/>
<path fill-rule="evenodd" clip-rule="evenodd" d="M114.128 9.01953C114.128 9.01953 152.298 44.5201 115.383 100.188L77.4681 97.6641C77.4681 97.6641 54.2979 45.2259 114.128 9.01953Z" fill="white"/>
<path fill-rule="evenodd" clip-rule="evenodd" d="M113.798 8.47085C100.413 16.571 90.4883 25.8747 83.6798 36.1536C77.0306 46.192 73.5311 56.8679 72.6411 67.823C71.9683 76.104 72.8166 83.9611 74.6431 91.0473C75.1097 92.8574 75.6085 94.4831 76.1093 95.9052L76.1776 96.0978C76.3447 96.5661 76.5013 96.9814 76.644 97.3414L76.7386 97.5771C76.7721 97.6593 76.8029 97.7336 76.8308 97.7998L76.8847 97.9255C76.9809 98.1433 77.1893 98.2895 77.4259 98.3052L115.341 100.829C115.569 100.844 115.787 100.736 115.914 100.544C127.206 83.516 132.263 67.2932 132.105 52.0295C131.982 40.1173 128.716 29.4623 123.35 20.2078C121.434 16.9031 119.381 14.0141 117.326 11.5585C116.605 10.6972 115.935 9.9511 115.333 9.32233L115.104 9.08628C115.007 8.98704 114.916 8.89537 114.831 8.81131L114.631 8.61542C114.601 8.58731 114.578 8.56535 114.561 8.54958C114.353 8.35567 114.042 8.32358 113.798 8.47085ZM113.667 10.0518L114.036 9.82588L114.265 10.0592C114.313 10.1084 114.362 10.1595 114.413 10.2125C114.996 10.8209 115.647 11.5457 116.349 12.3844C118.359 14.7859 120.37 17.6154 122.248 20.8538C127.508 29.9261 130.708 40.3677 130.829 52.0428L130.832 52.493C130.883 67.2111 125.994 82.8623 115.185 99.3284L115.056 99.5237L77.9038 97.0511L77.8704 96.9681C77.7226 96.5994 77.5574 96.1639 77.3792 95.6645C76.8683 94.233 76.3567 92.5791 75.8789 90.7255C74.0862 83.7704 73.2531 76.0546 73.9134 67.9275C74.7864 57.1826 78.2173 46.7157 84.7424 36.8647C91.3092 26.9506 100.839 17.9424 113.667 10.0518Z" fill="#2F4077"/>
<path fill-rule="evenodd" clip-rule="evenodd" d="M101.83 35.9023C101.83 35.9023 44.8085 61.9076 76.3617 96.6597L102.34 96.2534C102.34 96.2534 133.17 73.9051 101.83 35.9023Z" fill="white"/>
<path fill-rule="evenodd" clip-rule="evenodd" d="M101.566 35.3171L101.408 35.3906L101.163 35.5071C100.838 35.6622 100.463 35.8466 100.04 36.0596L99.6553 36.2551C98.5518 36.8192 97.3416 37.4701 96.0493 38.2049C91.9228 40.5511 87.7964 43.2687 83.9421 46.3274C75.7396 52.8368 69.8949 59.9801 67.4487 67.6642C64.3867 77.2829 66.8733 87.1601 75.8903 97.0912C76.0135 97.227 76.1888 97.3031 76.3717 97.3002L102.35 96.8939C102.481 96.8918 102.608 96.8496 102.714 96.7728L102.818 96.6949L102.88 96.6474C103.009 96.5482 103.159 96.4301 103.326 96.2933C103.8 95.9051 104.328 95.4433 104.895 94.9089C106.511 93.3858 108.125 91.5829 109.632 89.5065C113.985 83.5092 116.581 76.4864 116.53 68.5075C116.465 58.272 112.011 47.2413 102.321 35.4919C102.138 35.2692 101.828 35.1976 101.566 35.3171ZM101.652 36.6937L101.903 37.0018C111.021 48.273 115.192 58.7928 115.254 68.5157C115.302 76.198 112.802 82.9614 108.601 88.7503C107.143 90.7585 105.582 92.5023 104.021 93.9729C103.519 94.4468 103.05 94.86 102.625 95.2115L102.454 95.3521L102.269 95.5003C102.23 95.5309 102.193 95.5601 102.157 95.5877L102.123 95.614L76.6407 96.0127L76.8332 96.2262C68.1142 86.6233 65.747 77.2202 68.6646 68.0553C71.0198 60.6569 76.712 53.7 84.7332 47.3345C88.5318 44.32 92.6047 41.6376 96.6778 39.3218L97.1245 39.0693C98.3063 38.4053 99.4131 37.8154 100.424 37.3019L100.613 37.2065C100.903 37.0602 101.17 36.9279 101.413 36.8097L101.652 36.6937Z" fill="#2F4077"/>
<path fill-rule="evenodd" clip-rule="evenodd" d="M17.1915 66.8691C17.1915 66.8691 35.2979 108.914 79.8724 104.423L88.3617 97.0233C88.3405 97.0233 63.2979 52.3695 17.1915 66.8691Z" fill="white"/>
<path fill-rule="evenodd" clip-rule="evenodd" d="M51.1868 67.0917C59.7571 69.8269 67.479 74.6501 74.3279 80.9703C78.2123 84.5548 81.5726 88.3957 84.4018 92.2404C85.3893 93.5823 86.2389 94.8269 86.9543 95.949L87.0274 96.064C87.1716 96.2915 87.3032 96.5029 87.4234 96.6994L87.5394 96.8904L79.6077 103.804L79.8087 103.784C68.9796 104.875 59.1699 103.264 50.3312 99.3473C42.9357 96.0705 36.4318 91.2791 30.7837 85.3691C26.8575 81.2609 23.5742 76.8578 20.9079 72.4555C19.9754 70.9158 19.187 69.4871 18.5394 68.2063L18.4786 68.0856C18.3586 67.8469 18.2488 67.6234 18.149 67.4159L18.0775 67.2665L18.1057 67.258C29.9076 63.6879 40.936 63.8203 51.1868 67.0917ZM88.8198 96.5412L88.6885 96.3206L88.5722 96.128C88.4322 95.8976 88.2768 95.6471 88.1042 95.3748L88.0291 95.2567C87.2988 94.1111 86.4331 92.843 85.4281 91.4773C82.553 87.5702 79.1396 83.6686 75.1913 80.0251C68.2137 73.5862 60.3351 68.6651 51.5732 65.8688C40.8652 62.4514 29.3277 62.38 17.0009 66.2566C16.6392 66.3703 16.4552 66.7741 16.6058 67.1237L16.6574 67.2408L16.7409 67.4247C16.7614 67.4694 16.7832 67.5166 16.8064 67.5664L16.9484 67.8676C17.0648 68.1113 17.1949 68.3771 17.3388 68.6636L17.4013 68.7876C18.0634 70.0969 18.8675 71.5543 19.8175 73.1227C22.5297 77.6008 25.8682 82.078 29.8631 86.2581C35.6208 92.2827 42.2586 97.1728 49.8163 100.521C58.8549 104.526 68.8857 106.174 79.936 105.061C80.0672 105.048 80.191 104.994 80.2906 104.907L88.7799 97.5077L88.8069 97.483C89.1974 97.1051 88.9623 96.441 88.4339 96.3852L88.4003 96.3825L88.3617 96.3814C88.5502 96.3814 88.6958 96.4507 88.7874 96.5164L88.8198 96.5412Z" fill="#2F4077"/>
<path fill-rule="evenodd" clip-rule="evenodd" d="M135.553 94.543H45.8299C44.1277 94.543 42.7448 95.9331 42.7448 97.6439V108.957C42.7448 110.668 44.1277 112.058 45.8299 112.058H50.9575L66.2554 179.595H114.787L130.085 112.058H135.575C137.277 112.058 138.66 110.668 138.66 108.957V97.6439C138.638 95.9331 137.255 94.543 135.553 94.543Z" fill="#465F9D"/>
<path fill-rule="evenodd" clip-rule="evenodd" d="M128.447 111.395C128.799 111.395 129.085 111.682 129.085 112.036C129.085 112.378 128.819 112.657 128.484 112.677L128.447 112.678H52.7235C52.371 112.678 52.0852 112.39 52.0852 112.036C52.0852 111.694 52.3509 111.415 52.686 111.396L52.7235 111.395H128.447Z" fill="white"/>
<path fill-rule="evenodd" clip-rule="evenodd" d="M72.681 172.387C72.9363 174.162 73.8937 176.622 76.2129 178.717L76.681 179.765L109.064 179.466C139.043 169.286 191.702 158.786 191.702 158.786L135.915 123.691C135.915 123.691 101.915 131.454 88.915 139.025C75.9363 146.617 71.4469 163.79 72.681 172.387Z" fill="white"/>
<path fill-rule="evenodd" clip-rule="evenodd" d="M135.774 123.067L134.815 123.29C134.429 123.381 134.001 123.483 133.533 123.595L132.543 123.835C131.028 124.203 129.383 124.613 127.637 125.061C121.536 126.624 115.436 128.323 109.74 130.1L108.711 130.423C100.55 133.006 93.9959 135.526 89.5918 137.912C89.2457 138.099 88.9134 138.285 88.5949 138.471C82.4727 142.052 77.8063 147.945 74.878 155.086C72.3845 161.166 71.3729 167.768 72.0491 172.48L72.0673 172.6C72.4145 174.811 73.5815 177.113 75.5663 178.992L75.6849 179.103L76.0986 180.029C76.2024 180.261 76.4333 180.41 76.6868 180.408L109.07 180.108C109.137 180.108 109.204 180.096 109.268 180.075C110.148 179.776 111.053 179.475 111.985 179.171L112.835 178.896C120.547 176.411 129.851 173.797 140.407 171.103C151.386 168.301 163.133 165.56 174.898 162.987L177.326 162.458C180.821 161.701 184.092 161.008 187.079 160.388L189.245 159.94L191.826 159.416C192.393 159.303 192.531 158.551 192.041 158.243L136.254 123.149C136.111 123.059 135.938 123.029 135.774 123.067ZM135.8 124.377L190.004 158.475L187.581 158.974L185.813 159.341C182.76 159.978 179.43 160.687 175.883 161.459L175.488 161.545C163.709 164.113 151.931 166.852 140.899 169.654L140.093 169.859C129.121 172.659 119.496 175.374 111.591 177.951L111.191 178.081C110.661 178.255 110.138 178.428 109.624 178.601L108.956 178.826L77.0922 179.121L76.7951 178.456C76.7587 178.374 76.7057 178.301 76.6396 178.241C74.7118 176.499 73.6056 174.333 73.3126 172.296C72.671 167.827 73.6477 161.453 76.0583 155.575C78.8863 148.678 83.3766 143.008 89.236 139.581C89.5417 139.403 89.8626 139.222 90.1974 139.041L90.4701 138.895C94.9243 136.525 101.584 133.997 109.862 131.406L110.118 131.326C115.588 129.619 121.437 127.983 127.3 126.472L127.952 126.304C130.08 125.759 132.057 125.269 133.83 124.843L134.976 124.57L135.8 124.377Z" fill="#2F4077"/>
<path fill-rule="evenodd" clip-rule="evenodd" d="M77.7873 179.573C63.2341 177.071 67.383 136.053 91.8511 99.8251C102.809 81.9037 105.979 77.0491 114.404 74.269C117.702 73.1783 121.234 73.1783 124.979 74.8464C138.319 80.7703 152.468 86.9294 142.979 89.6454C133.489 92.3614 111.106 110.86 111.106 110.86C111.106 110.86 111.319 134.877 110.128 143.645C109.34 149.59 107.787 155.578 106.234 159.919" fill="white"/>
<path fill-rule="evenodd" clip-rule="evenodd" d="M114.205 73.6592C117.798 72.471 121.428 72.602 125.09 74.1948L127.8 75.3979C136.266 79.166 140.602 81.297 143.553 83.3584L143.642 83.4209C145.586 84.7913 146.64 85.9968 146.708 87.1832C146.786 88.5596 145.592 89.5456 143.256 90.2325L143.154 90.2622C140.088 91.1397 135.371 93.798 129.487 97.8058C128.194 98.6862 126.859 99.623 125.488 100.609C122.218 102.959 118.896 105.479 115.695 107.998L115.111 108.459C114.409 109.015 113.747 109.543 113.134 110.037L112.436 110.601L111.747 111.162L111.752 112.015L111.756 112.937C111.773 117.744 111.741 123.154 111.625 128.344L111.598 129.496C111.443 135.672 111.181 140.504 110.788 143.522L110.76 143.729C110.019 149.327 108.543 155.363 106.835 160.136C106.715 160.47 106.35 160.643 106.018 160.523C105.686 160.403 105.514 160.036 105.633 159.702C107.281 155.097 108.714 149.279 109.456 143.853L109.522 143.356C109.921 140.291 110.186 135.259 110.337 128.815L110.36 127.813C110.466 122.79 110.496 117.584 110.479 112.942L110.468 110.866C110.466 110.672 110.552 110.488 110.701 110.364L111.438 109.762L111.842 109.434C112.7 108.74 113.663 107.97 114.711 107.144L114.908 106.988C118.122 104.458 121.459 101.928 124.745 99.5651C126.124 98.5732 127.469 97.6303 128.771 96.7436L129.307 96.3799C134.932 92.5808 139.473 90.0335 142.608 89.0858L142.99 88.9736C144.748 88.4446 145.467 87.8429 145.433 87.2566C145.396 86.5951 144.55 85.6285 142.909 84.4714L142.736 84.3505C139.995 82.4535 135.927 80.435 128.279 77.0155L124.72 75.4327C121.301 73.9094 117.948 73.7722 114.603 74.8783C110.461 76.2453 107.705 78.1042 104.676 81.6522L104.564 81.7844C101.863 84.9769 99.3722 88.766 92.9977 99.1757L92.395 100.161L92.3793 100.185C80.9285 117.139 73.2581 136.258 70.8173 152.442C68.531 167.602 71.2612 177.8 77.8949 178.94C78.2424 179 78.4759 179.332 78.4165 179.681C78.357 180.03 78.0272 180.265 77.6797 180.205C70.0871 178.9 67.1759 168.026 69.5552 152.25C72.0004 136.036 79.6133 116.959 90.9775 99.9784L91.3173 99.4726L92.2899 97.884C98.3608 87.981 100.834 84.2296 103.506 81.0543L103.591 80.9532C106.816 77.1402 109.786 75.1173 114.205 73.6592Z" fill="#2F4077"/>
<path fill-rule="evenodd" clip-rule="evenodd" d="M284.362 179.147L234.085 98.9922L135.958 123.115V123.094L118.362 126.944L130.085 173.971L154.532 168.026C157.894 174.57 160.362 179.104 160.362 179.104H284.362V179.147Z" fill="#E4794A"/>
<path fill-rule="evenodd" clip-rule="evenodd" d="M204.787 78.5252C204.787 78.5252 214.66 78.0761 213.468 87.0582C212.277 96.0403 201.043 91.6134 201.043 91.6134L201.681 78.9101L204.787 78.5252Z" fill="white"/>
<path fill-rule="evenodd" clip-rule="evenodd" d="M204.771 77.8831L204.758 77.8836C204.742 77.8844 204.726 77.8858 204.709 77.8878L201.603 78.2727C201.295 78.3109 201.059 78.5658 201.043 78.8771L200.405 91.5804C200.391 91.8558 200.554 92.1094 200.81 92.21L200.896 92.2432C200.997 92.2808 201.139 92.3316 201.319 92.3919C201.715 92.5243 202.157 92.6564 202.635 92.7796C204.222 93.1884 205.826 93.4064 207.338 93.3305C211.05 93.1443 213.561 91.2154 214.101 87.1423C214.689 82.7096 212.816 79.961 209.404 78.661C208.47 78.3054 207.479 78.0835 206.478 77.9678C205.858 77.8963 205.321 77.8738 204.907 77.8798L204.771 77.8831ZM206.332 79.2426C207.235 79.3469 208.125 79.5462 208.951 79.8609C211.838 80.9603 213.34 83.1664 212.835 86.9727C212.384 90.3782 210.414 91.8915 207.275 92.049C205.907 92.1176 204.425 91.916 202.952 91.5367L202.804 91.4979C202.462 91.4068 202.141 91.3114 201.847 91.2156L201.704 91.1681L202.291 79.4803L204.837 79.1646L204.862 79.1641C205.229 79.1553 205.737 79.1738 206.332 79.2426Z" fill="#2F4077"/>
<path fill-rule="evenodd" clip-rule="evenodd" d="M174.894 52.3908C172.277 52.348 154.404 52.3694 153.404 67.4251C152.426 82.4807 155.575 98.8196 157.702 106.24C159.83 113.661 193.702 107.951 195.575 107.16C197.468 106.369 199.617 103.952 199.617 103.952L202.809 80.7271C202.83 80.7271 202.958 52.904 174.894 52.3908Z" fill="white"/>
<path fill-rule="evenodd" clip-rule="evenodd" d="M170.502 51.9683C167.997 52.2496 165.563 52.7879 163.316 53.6477C157.177 55.9955 153.306 60.3659 152.782 67.1774L152.767 67.3845C152.316 74.3335 152.704 81.9913 153.756 89.7834L153.833 90.3429C154.675 96.3973 155.884 102.217 157.089 106.419C157.676 108.468 160.102 109.669 164.038 110.244L164.165 110.263C167.397 110.72 171.615 110.755 176.522 110.438L176.776 110.421C184.306 109.919 194.318 108.388 195.822 107.753C196.04 107.662 196.266 107.549 196.498 107.418C197.057 107.1 197.641 106.676 198.237 106.172C198.7 105.781 199.146 105.363 199.558 104.945L199.698 104.803C199.765 104.733 199.829 104.666 199.889 104.603L200.002 104.482C200.043 104.437 200.074 104.403 200.093 104.381L200.123 104.344C200.191 104.256 200.234 104.152 200.249 104.041L203.279 81.9964L203.308 82.0898C203.457 82.5869 203.502 83.0738 203.497 82.5599L203.445 80.4008C203.44 80.1712 203.428 79.9028 203.41 79.6038L203.403 79.4902C203.341 78.523 203.221 77.4379 203.032 76.27C202.494 72.9432 201.506 69.6019 199.955 66.467C197.954 62.4246 195.159 59.0281 191.456 56.5051C187.089 53.5294 181.603 51.8731 174.905 51.7506C173.612 51.7295 172.185 51.7793 170.502 51.9683ZM154.019 67.8297L154.041 67.4691C154.465 61.0881 158.002 57.053 163.77 54.8469C165.907 54.0293 168.238 53.5136 170.643 53.2436C172.266 53.0613 173.641 53.0133 174.883 53.0336C181.339 53.1516 186.583 54.7351 190.74 57.5672C194.25 59.9589 196.904 63.1842 198.812 67.0384C200.301 70.0482 201.253 73.2684 201.772 76.4761C201.955 77.6019 202.069 78.6461 202.129 79.5735L202.136 79.6811L202.153 79.9864C202.156 80.0512 202.158 80.1138 202.161 80.1743L202.169 80.4308L202.122 78.5943C202.106 77.6961 202.237 80.0868 202.809 80.0868L202.771 80.088C202.469 80.1059 202.218 80.3359 202.176 80.6406L199.012 103.666L198.904 103.782C198.827 103.863 198.742 103.95 198.652 104.041C198.265 104.434 197.847 104.826 197.416 105.19C196.875 105.647 196.353 106.026 195.87 106.301C195.681 106.408 195.5 106.498 195.329 106.569L195.274 106.59C194.701 106.792 192.173 107.284 189.181 107.744L189.07 107.761C185.063 108.373 180.721 108.872 176.692 109.141C166.077 109.85 159.119 108.865 158.316 106.064L158.206 105.677C157.018 101.436 155.832 95.6198 155.021 89.6108C153.998 82.0334 153.609 74.5896 154.019 67.8297Z" fill="#2F4077"/>
<path fill-rule="evenodd" clip-rule="evenodd" d="M201.745 100.275L205.638 115.609C208.17 150.511 159.979 152.735 163 110.648L191.426 114.24L193.66 102.927L201.745 100.275Z" fill="white"/>
<path fill-rule="evenodd" clip-rule="evenodd" d="M193.462 102.317L193.421 102.331C193.222 102.412 193.076 102.588 193.034 102.802L190.915 113.528L163.08 110.01C162.717 109.964 162.39 110.234 162.363 110.601C161.641 120.661 163.776 128.792 168.243 134.483C172.257 139.598 177.992 142.455 184.117 142.64C190.111 142.82 195.935 140.412 200.087 135.912C204.621 130.999 206.885 123.974 206.275 115.562C206.272 115.524 206.266 115.486 206.257 115.45L202.363 100.116C202.272 99.7566 201.898 99.5496 201.547 99.6647L193.462 102.317ZM201.295 101.097L205.005 115.71L205.002 115.655C205.587 123.722 203.436 130.396 199.151 135.04C195.252 139.265 189.783 141.527 184.155 141.357C178.405 141.184 173.023 138.503 169.245 133.688L169.118 133.525C165.074 128.272 163.067 120.82 163.581 111.566L163.593 111.368L191.346 114.876L191.384 114.88C191.702 114.901 191.989 114.682 192.052 114.365L194.213 103.42L201.295 101.097Z" fill="#2F4077"/>
<path fill-rule="evenodd" clip-rule="evenodd" d="M196.043 80.043C196.043 80.043 194.234 92.2543 193.426 96.7454C193.426 96.7454 182.255 93.7299 166.575 94.5212C166.575 94.5212 158.043 95.2483 154.702 96.4887C154.702 96.4887 156.447 112.1 163.894 119.757C171.341 127.413 185.83 124.205 192.383 118.88C198.936 113.555 199.915 111.159 201.17 105.834C202.426 100.509 205.362 80.7915 205.362 80.7915L196.043 80.043Z" fill="#869ECE"/>
<path fill-rule="evenodd" clip-rule="evenodd" d="M204.872 83.6148C204.872 83.6148 209.319 74.3761 210.617 66.7627C211.851 59.6198 208.106 52.4342 201.426 49.7182C195.83 47.4299 194 48.1784 194 48.1784C194 48.1784 197.319 42.2331 188.681 33.4863C185.638 30.4067 181.426 28.6958 177.106 28.8028C166.532 29.0808 163.234 38.0629 163.234 38.0629C163.234 38.0629 151.958 17.1261 128.723 29.4443C126.383 30.6847 123.723 34.1492 122.468 36.5017C114.766 50.6805 139.979 67.5754 153.128 68.9441C167.575 70.4411 176.638 68.6447 181.043 64.7952C177.766 67.1049 183.66 88.3625 204.872 83.6148Z" fill="#2F4077"/>
<path fill-rule="evenodd" clip-rule="evenodd" d="M165.807 87.6787C166.262 87.7008 166.617 88.0785 166.617 88.5317L166.616 88.5744L166.016 101.087L169.545 99.9312C169.978 99.7894 170.442 100.015 170.603 100.438L170.618 100.48C170.759 100.915 170.534 101.381 170.114 101.543L170.072 101.558L165.37 103.098C164.816 103.279 164.253 102.861 164.255 102.283L164.256 102.243L164.916 88.492C164.938 88.0344 165.314 87.6782 165.765 87.6777L165.807 87.6787Z" fill="#2F4077"/>
<path fill-rule="evenodd" clip-rule="evenodd" d="M173.82 76.47C175.972 76.0023 177.864 76.4612 179.431 77.5078C179.829 77.7731 180.175 78.0578 180.47 78.3445L180.557 78.4306C180.694 78.5692 180.795 78.6829 180.857 78.7619C181.15 79.1313 181.09 79.6695 180.722 79.964C180.355 80.2585 179.819 80.1977 179.526 79.8282C179.495 79.7887 179.414 79.6983 179.286 79.5739C179.063 79.3569 178.797 79.1378 178.49 78.933C177.283 78.1271 175.85 77.7794 174.18 78.1423C173.721 78.2421 173.268 77.9487 173.168 77.4869C173.069 77.0252 173.361 76.5699 173.82 76.47Z" fill="#2F4077"/>
<path fill-rule="evenodd" clip-rule="evenodd" d="M159.716 73.2666C160.541 73.0969 161.395 73.1422 162.213 73.3168L162.345 73.3462C162.557 73.3952 162.721 73.4433 162.829 73.4805C163.274 73.6337 163.511 74.1201 163.358 74.5671C163.211 75 162.752 75.2371 162.319 75.1122L162.227 75.0833C162.214 75.0794 162.199 75.075 162.182 75.07C162.088 75.0432 161.98 75.016 161.86 74.9904C161.251 74.8606 160.62 74.8271 160.057 74.9428C159.259 75.107 158.694 75.547 158.368 76.3943C158.199 76.8351 157.706 77.0544 157.268 76.8842C156.829 76.7139 156.611 76.2187 156.781 75.778C157.326 74.3596 158.374 73.5426 159.716 73.2666Z" fill="#2F4077"/>
<path fill-rule="evenodd" clip-rule="evenodd" d="M181.234 104.915C180.489 103.889 173.234 109 176.064 109.47C178.894 109.941 182.83 107.118 181.234 104.915Z" fill="#2F4077"/>
<path fill-rule="evenodd" clip-rule="evenodd" d="M150.809 103.974L178.362 94.6073C178.362 94.6073 182.043 93.1958 181.915 88.384C181.787 83.5721 175.766 81.7757 175.766 81.7757L146.383 77.6055L150.809 103.974Z" fill="#E4794A"/>
<path fill-rule="evenodd" clip-rule="evenodd" d="M121.319 103.974L148.872 94.6073C148.872 94.6073 152.553 93.1958 152.426 88.384C152.298 83.5721 146.277 81.7757 146.277 81.7757L116.894 77.6055L121.319 103.974Z" fill="#E4794A"/>
<path fill-rule="evenodd" clip-rule="evenodd" d="M146.106 104.851C153.615 104.851 159.702 98.7324 159.702 91.1851C159.702 83.6378 153.615 77.5195 146.106 77.5195C138.598 77.5195 132.511 83.6378 132.511 91.1851C132.511 98.7324 138.598 104.851 146.106 104.851Z" fill="#2F4077"/>
<path fill-rule="evenodd" clip-rule="evenodd" d="M116.404 105.044C123.913 105.044 130 98.9258 130 91.3785C130 83.8312 123.913 77.7129 116.404 77.7129C108.896 77.7129 102.809 83.8312 102.809 91.3785C102.809 98.9258 108.896 105.044 116.404 105.044Z" fill="#2F4077"/>
<path fill-rule="evenodd" clip-rule="evenodd" d="M122.298 75.7233C125.66 69.6925 140.447 67.6822 143.192 68.1099C145.936 68.5163 143.234 74.1621 131.426 75.2101C131.426 75.2101 127.809 75.2742 125.958 76.8782" fill="white"/>
<path fill-rule="evenodd" clip-rule="evenodd" d="M132.811 68.8757L133.074 68.8057C137.035 67.7658 141.499 67.2251 143.228 67.4675L143.285 67.4759C144.285 67.624 144.89 68.3378 144.808 69.2994C144.736 70.1285 144.161 71.0447 143.187 71.9026C140.952 73.8713 136.968 75.3383 131.659 75.8337L131.482 75.8498L131.26 75.8593C131.236 75.8606 131.21 75.862 131.183 75.8636C130.971 75.8762 130.733 75.8964 130.478 75.9259C129.748 76.0097 129.02 76.1502 128.347 76.3585C127.53 76.6115 126.856 76.9471 126.374 77.3648C126.107 77.5962 125.704 77.5661 125.474 77.2978C125.244 77.0294 125.274 76.6243 125.541 76.3929C126.174 75.8445 127 75.4331 127.972 75.1322C128.728 74.8981 129.531 74.7433 130.332 74.651L130.568 74.6258C130.721 74.6106 130.867 74.5985 131.005 74.5892L131.197 74.5777L131.39 74.5696L131.543 74.5559C136.544 74.0891 140.249 72.7408 142.276 70.9979L142.345 70.9376C143.094 70.2781 143.497 69.6362 143.536 69.1888C143.559 68.9251 143.45 68.7974 143.094 68.7446C141.593 68.5108 137.15 69.0482 133.268 70.0812L133.142 70.115C128.013 71.4982 124.249 73.5366 122.855 76.0376C122.683 76.3467 122.294 76.4569 121.986 76.2837C121.679 76.1105 121.569 75.7195 121.741 75.4104C123.352 72.5203 127.376 70.3417 132.811 68.8757Z" fill="#2F4077"/>
<path fill-rule="evenodd" clip-rule="evenodd" d="M127.043 73.7346C133.255 70.7406 146.49 77.691 148.49 79.6157C150.511 81.5405 145.043 84.5773 134.809 78.6106C134.809 78.6106 131.809 76.5789 129.383 76.8142" fill="white"/>
<path fill-rule="evenodd" clip-rule="evenodd" d="M126.767 73.1567C129.744 71.7222 134.28 72.2733 139.566 74.2292L139.821 74.3244C143.688 75.7845 147.693 77.9618 148.929 79.1506C149.664 79.8511 149.752 80.7861 149.131 81.5243C148.598 82.1598 147.601 82.5743 146.312 82.7111C143.355 83.0248 139.259 81.9187 134.644 79.2565L134.488 79.1662L134.347 79.075L134.23 79.0018C134.168 78.9635 134.101 78.923 134.03 78.8806C133.686 78.6774 133.307 78.474 132.905 78.2844C132.064 77.8882 131.24 77.608 130.487 77.4936C130.112 77.4367 129.763 77.4225 129.444 77.4534C129.094 77.4874 128.782 77.2291 128.748 76.8764C128.714 76.5237 128.971 76.2102 129.322 76.1762C129.751 76.1345 130.204 76.1529 130.678 76.2248C131.569 76.3602 132.504 76.6782 133.447 77.1226C133.887 77.3302 134.301 77.5522 134.677 77.7745L134.836 77.87C134.951 77.9397 135.043 77.9986 135.112 78.0438L135.144 78.0648L135.279 78.1433C139.627 80.652 143.428 81.6937 146.087 81.4441L146.178 81.435C147.169 81.3298 147.868 81.0391 148.156 80.6964C148.325 80.495 148.31 80.329 148.048 80.0798L147.972 80.0092C146.776 78.9276 142.923 76.8529 139.248 75.4789L139.125 75.4333C134.138 73.588 129.894 73.0725 127.319 74.3137C127.001 74.4669 126.62 74.3321 126.467 74.0126C126.315 73.6931 126.449 73.3099 126.767 73.1567Z" fill="#2F4077"/>
<path fill-rule="evenodd" clip-rule="evenodd" d="M120.404 73.7346C126.617 70.7406 139.851 77.691 141.851 79.6157C143.873 81.5405 138.404 84.5773 128.17 78.6106C128.17 78.6106 125.17 76.5789 122.745 76.8142" fill="white"/>
<path fill-rule="evenodd" clip-rule="evenodd" d="M120.128 73.1567C123.105 71.7222 127.642 72.2733 132.928 74.2292L133.183 74.3244C137.049 75.7845 141.055 77.9618 142.29 79.1506C143.026 79.8511 143.113 80.7861 142.493 81.5243C141.959 82.1598 140.963 82.5743 139.674 82.7111C136.717 83.0248 132.621 81.9187 128.006 79.2565L127.85 79.1662L127.709 79.075L127.592 79.0018C127.53 78.9635 127.463 78.923 127.391 78.8806C127.048 78.6774 126.669 78.474 126.266 78.2844C125.426 77.8882 124.602 77.608 123.849 77.4936C123.474 77.4367 123.125 77.4225 122.806 77.4534C122.455 77.4874 122.143 77.2291 122.11 76.8764C122.076 76.5237 122.333 76.2102 122.684 76.1762C123.113 76.1345 123.566 76.1529 124.039 76.2248C124.931 76.3602 125.865 76.6782 126.808 77.1226C127.249 77.3302 127.662 77.5522 128.039 77.7745L128.198 77.87C128.312 77.9397 128.405 77.9986 128.474 78.0438L128.506 78.0648L128.641 78.1433C132.989 80.652 136.79 81.6937 139.448 81.4441L139.54 81.435C140.531 81.3298 141.23 81.0391 141.518 80.6964C141.687 80.495 141.671 80.329 141.41 80.0798L141.334 80.0092C140.137 78.9276 136.285 76.8529 132.61 75.4789L132.487 75.4333C127.5 73.588 123.256 73.0725 120.68 74.3137C120.363 74.4669 119.981 74.3321 119.829 74.0126C119.676 73.6931 119.811 73.3099 120.128 73.1567Z" fill="#2F4077"/>
<path fill-rule="evenodd" clip-rule="evenodd" d="M114.936 74.0979C121.149 71.1039 134.383 78.0543 136.383 79.979C138.404 81.9038 132.936 84.9405 122.702 78.9739C122.702 78.9739 119.702 76.9422 117.277 77.1775" fill="white"/>
<path fill-rule="evenodd" clip-rule="evenodd" d="M114.66 73.52C117.637 72.0855 122.174 72.6365 127.46 74.5925L127.715 74.6877C131.581 76.1478 135.587 78.3251 136.822 79.5139C137.558 80.2144 137.645 81.1493 137.025 81.8876C136.491 82.5231 135.494 82.9376 134.205 83.0744C131.249 83.3881 127.152 82.282 122.538 79.6198L122.382 79.5295L122.241 79.4383L122.124 79.365C122.062 79.3268 121.995 79.2863 121.923 79.2439C121.58 79.0407 121.2 78.8373 120.798 78.6477C119.958 78.2515 119.134 77.9713 118.38 77.8568C118.006 77.7999 117.657 77.7858 117.338 77.8167C116.987 77.8507 116.675 77.5924 116.641 77.2397C116.608 76.887 116.865 76.5735 117.215 76.5395C117.645 76.4978 118.098 76.5162 118.571 76.5881C119.462 76.7234 120.397 77.0414 121.34 77.4859C121.781 77.6935 122.194 77.9155 122.57 78.1378L122.73 78.2332C122.844 78.303 122.937 78.3619 123.006 78.4071L123.038 78.4281L123.173 78.5066C127.521 81.0153 131.322 82.057 133.98 81.8074L134.071 81.7983C135.063 81.6931 135.762 81.4024 136.05 81.0597C136.219 80.8583 136.203 80.6922 135.942 80.443L135.866 80.3724C134.669 79.2909 130.817 77.2162 127.141 75.8422L127.019 75.7966C122.032 73.9513 117.788 73.4358 115.212 74.677C114.894 74.8302 114.513 74.6954 114.361 74.3759C114.208 74.0564 114.342 73.6732 114.66 73.52Z" fill="#2F4077"/>
<path fill-rule="evenodd" clip-rule="evenodd" d="M322.426 34.5546C317.234 32.138 310.936 34.1055 308.34 38.9601L292.702 68.2374L302.468 22.7495C303.617 17.4458 299.915 12.2705 294.234 11.2012C288.553 10.1319 283.021 13.575 281.872 18.8787L270.255 66.0988L271.553 11.3081C271.723 5.89746 267.17 1.38503 261.362 1.21394C255.574 1.04286 250.723 5.32004 250.553 10.7307L248.809 65.8635L238.723 18.9001C237.574 13.5964 232.043 10.1533 226.362 11.2225C220.681 12.2918 216.979 17.4458 218.128 22.7709L227.894 68.2588L212.255 38.9814C209.66 34.1268 203.362 32.1593 198.17 34.576C192.979 36.9926 190.872 42.8737 193.468 47.7283L225.553 107.78L297.553 103.139L327.17 47.7283C329.723 42.8523 327.617 36.9712 322.426 34.5546Z" fill="white"/>
<path fill-rule="evenodd" clip-rule="evenodd" d="M249.915 10.7112L248.336 60.622L239.347 18.7655C238.136 13.1724 232.376 9.53358 226.424 10.5603L226.249 10.5919L226.068 10.6273C220.131 11.8387 216.291 17.2854 217.504 22.9077L226.315 63.9471L212.818 38.6788C210.09 33.578 203.535 31.4763 198.067 33.9193L197.907 33.9925C192.382 36.5643 190.134 42.8482 192.906 48.0328L224.991 108.084C225.109 108.305 225.345 108.437 225.594 108.421L297.594 103.78C297.814 103.766 298.011 103.639 298.116 103.444L327.733 48.0327C330.433 42.875 328.257 36.6673 322.858 34.051L322.698 33.9753L322.533 33.8999C317.067 31.4577 310.509 33.5508 307.778 38.6571L294.281 63.9257L303.092 22.8857C304.305 17.2864 300.466 11.8175 294.531 10.6065L294.356 10.5723L294.176 10.5397C288.226 9.51353 282.461 13.1447 281.249 18.743L271.032 60.2698L272.191 11.3242C272.371 5.61582 267.634 0.850569 261.564 0.58023L261.385 0.573603C255.253 0.39231 250.097 4.93436 249.915 10.7112ZM261.343 1.85605L261.512 1.86232C266.846 2.09989 270.989 6.21604 270.919 11.1392L269.617 66.0843C269.599 66.8508 270.692 66.9979 270.875 66.2536L282.492 19.0335C283.57 14.0576 288.77 10.8261 294.117 11.8326L294.282 11.865C299.534 12.9366 302.902 17.7341 301.844 22.6138L292.078 68.1028C291.922 68.8294 292.915 69.1965 293.265 68.5416L308.903 39.2643C311.335 34.7152 317.266 32.8608 322.157 35.1375L322.308 35.209L322.449 35.279C327.1 37.621 328.938 42.9758 326.605 47.4303L297.159 102.523L225.921 107.114L194.03 47.4255C191.613 42.9037 193.573 37.4239 198.439 35.1589L198.59 35.0898C203.454 32.9169 209.288 34.7874 211.693 39.286L227.331 68.563C227.681 69.2179 228.674 68.8508 228.518 68.1242L218.752 22.6364C217.683 17.6849 221.131 12.8607 226.479 11.854L226.645 11.8241C231.936 10.9114 237.038 14.1346 238.1 19.0374L248.185 65.9997C248.344 66.7395 249.423 66.6412 249.447 65.8847L251.191 10.7519C251.35 5.70314 255.9 1.69514 261.343 1.85605Z" fill="#2F4077"/>
<path fill-rule="evenodd" clip-rule="evenodd" d="M289.915 105.149L306.745 67.9593C309.277 62.3562 307.426 55.2775 302.617 52.1337C297.809 48.99 291.851 50.9575 289.319 56.5606L279.277 78.7164L284.638 53.866C285.979 47.6855 282.766 41.2697 277.489 39.516C272.213 37.7624 266.851 41.3552 265.532 47.5358L260.213 72.1509L257.404 47.6427C256.681 41.2483 251.702 36.629 246.319 37.3133C240.936 37.9976 237.149 43.7291 237.872 50.1021L240.766 75.4016L234.426 58.9558C232.149 53.0533 226.298 50.2945 221.362 52.8181C216.426 55.3416 214.255 62.1637 216.532 68.0662L230.787 105.064" fill="#465F9D"/>
<path fill-rule="evenodd" clip-rule="evenodd" d="M304.979 96.8105H214.979C213.277 96.8105 211.894 98.2006 211.894 99.9115V111.267C211.894 112.978 213.277 114.368 214.979 114.368H220.511L235.809 179.638H284.468L299.766 114.368H304.936C306.638 114.368 308.021 112.978 308.021 111.267V99.9115C308.064 98.2006 306.681 96.8105 304.979 96.8105Z" fill="#FAA184"/>
<path fill-rule="evenodd" clip-rule="evenodd" d="M297.277 114.303C297.629 114.303 297.915 114.59 297.915 114.944C297.915 115.286 297.649 115.565 297.314 115.585L297.277 115.586H222.532C222.179 115.586 221.894 115.299 221.894 114.944C221.894 114.603 222.159 114.323 222.494 114.304L222.532 114.303H297.277Z" fill="#2F4077"/>
<path fill-rule="evenodd" clip-rule="evenodd" d="M279.915 154.401C276.66 150.359 271.873 143.751 275.107 142.361C278.341 140.971 278.298 144.478 283.17 147.815C288.064 151.151 292.617 151.792 297.468 157.866" fill="white"/>
<path fill-rule="evenodd" clip-rule="evenodd" d="M274.855 141.771C276.29 141.155 277.338 141.325 278.363 142.239C278.599 142.45 278.832 142.694 279.13 143.035L279.316 143.251C279.491 143.457 280.037 144.1 280.237 144.328C281.136 145.351 281.99 146.165 283.07 146.958C283.22 147.068 283.373 147.177 283.529 147.283L283.733 147.422C284.903 148.207 285.863 148.741 287.99 149.84L288.79 150.254C289.816 150.787 290.431 151.121 291.129 151.532C293.778 153.091 295.884 154.858 297.966 157.464C298.187 157.74 298.143 158.144 297.868 158.366C297.593 158.588 297.191 158.544 296.97 158.267C295.032 155.841 293.087 154.193 290.641 152.732L290.35 152.561C289.705 152.185 289.099 151.858 288.097 151.338L287.039 150.791C285.002 149.734 284.062 149.198 282.811 148.345C282.643 148.229 282.478 148.113 282.317 147.994C281.205 147.178 280.317 146.341 279.405 145.318L279.187 145.07C278.885 144.721 278.294 144.023 278.296 144.026L278.177 143.888C277.908 143.581 277.706 143.37 277.515 143.199C276.86 142.615 276.338 142.53 275.357 142.951C274.367 143.376 274.437 144.746 275.644 147.092C276.65 149.048 278.288 151.361 280.411 153.998C280.633 154.273 280.591 154.677 280.317 154.9C280.043 155.123 279.641 155.08 279.419 154.805L279.144 154.462C277.103 151.904 275.521 149.646 274.51 147.681C273.832 146.364 273.446 145.234 273.398 144.293C273.338 143.116 273.82 142.216 274.855 141.771Z" fill="#2F4077"/>
<path fill-rule="evenodd" clip-rule="evenodd" d="M277.255 151.193C268.936 146.638 256.83 146.381 253.936 146.51C249.575 146.702 252.255 155.556 273.702 157.652C273.702 157.652 279.34 158.357 281.979 161.137" fill="white"/>
<path fill-rule="evenodd" clip-rule="evenodd" d="M253.908 145.869L254.139 145.86C256.424 145.781 260.062 145.96 263.649 146.46C268.978 147.203 273.769 148.554 277.561 150.63C277.87 150.8 277.985 151.189 277.816 151.5C277.647 151.811 277.26 151.926 276.95 151.757C273.373 149.798 268.813 148.497 263.724 147.766L263.474 147.731C259.84 147.224 256.152 147.054 253.964 147.151C253.201 147.185 252.823 147.515 252.807 148.057C252.784 148.792 253.371 149.824 254.564 150.887C257.822 153.789 264.362 156.095 273.781 157.015L273.897 157.031C273.98 157.043 274.088 157.06 274.219 157.081C274.558 157.137 274.935 157.209 275.34 157.298C276.499 157.553 277.659 157.895 278.747 158.34C280.272 158.964 281.533 159.738 282.441 160.695C282.684 160.951 282.674 161.358 282.419 161.602C282.164 161.847 281.76 161.837 281.517 161.581C280.751 160.774 279.637 160.089 278.266 159.529C277.252 159.114 276.16 158.792 275.067 158.552C274.732 158.478 274.418 158.417 274.132 158.368L274.011 158.347C273.923 158.333 273.843 158.32 273.771 158.309L273.64 158.291C263.993 157.348 257.207 154.955 253.718 151.847C252.267 150.555 251.495 149.196 251.531 148.018C251.569 146.759 252.515 145.93 253.908 145.869Z" fill="#2F4077"/>
<path fill-rule="evenodd" clip-rule="evenodd" d="M281.128 163.041C276.511 153.204 254.149 149.718 249.809 150.06C245.468 150.402 248.468 159.769 266.83 162.699C266.83 162.699 272.49 163.212 275.213 165.907" fill="white"/>
<path fill-rule="evenodd" clip-rule="evenodd" d="M249.759 149.421C252.559 149.2 259.607 150.297 265.551 152.12C273.683 154.614 279.546 158.167 281.705 162.768C281.855 163.088 281.719 163.471 281.4 163.622C281.081 163.773 280.701 163.636 280.55 163.315C278.588 159.135 272.994 155.745 265.178 153.347L264.829 153.241C259.1 151.524 252.424 150.498 249.858 150.7C248.261 150.826 248.181 152.673 250.277 154.976C253.114 158.095 258.753 160.726 266.689 162.027L266.91 162.062L267.044 162.077C267.096 162.083 267.157 162.09 267.226 162.098L267.334 162.112C267.68 162.158 268.065 162.218 268.479 162.295C269.663 162.515 270.848 162.825 271.96 163.242C273.475 163.811 274.737 164.536 275.661 165.45C275.912 165.699 275.915 166.105 275.668 166.357C275.42 166.61 275.016 166.613 274.765 166.364C273.987 165.595 272.874 164.955 271.513 164.444C270.479 164.055 269.363 163.764 268.247 163.557C267.905 163.493 267.585 163.442 267.292 163.401L267.169 163.385C267.101 163.376 267.038 163.368 266.98 163.361L266.772 163.338L266.73 163.333C258.403 162.004 252.417 159.23 249.335 155.842C248.04 154.419 247.364 152.964 247.417 151.74C247.474 150.421 248.375 149.53 249.759 149.421Z" fill="#2F4077"/>
<path fill-rule="evenodd" clip-rule="evenodd" d="M282.851 171.083C278.468 161.138 256.404 156.433 252.043 156.669C247.681 156.904 249.872 167.276 268.149 170.655C268.149 170.655 273.787 171.297 276.447 174.055" fill="white"/>
<path fill-rule="evenodd" clip-rule="evenodd" d="M252.009 156.028C254.745 155.88 261.725 157.31 267.655 159.455C275.638 162.341 281.386 166.174 283.435 170.823C283.578 171.147 283.432 171.526 283.11 171.669C282.787 171.813 282.41 171.667 282.268 171.343C280.4 167.104 274.904 163.44 267.223 160.662C261.439 158.571 254.614 157.173 252.077 157.309C250.434 157.398 250.188 159.53 252.116 162.096C254.708 165.547 260.151 168.485 268.025 169.979L268.245 170.02L268.375 170.037C268.427 170.044 268.486 170.053 268.554 170.063L268.661 170.079C269.002 170.132 269.38 170.2 269.788 170.285C270.953 170.528 272.119 170.86 273.212 171.296C274.733 171.903 275.994 172.663 276.905 173.609C277.151 173.863 277.144 174.27 276.891 174.516C276.638 174.763 276.234 174.756 275.989 174.502C275.22 173.705 274.108 173.034 272.742 172.489C271.723 172.083 270.626 171.77 269.528 171.541C269.191 171.471 268.876 171.413 268.589 171.366L268.467 171.347C268.378 171.333 268.298 171.322 268.226 171.312L268.077 171.293L268.034 171.286C259.739 169.753 253.927 166.637 251.097 162.87C249.919 161.301 249.364 159.71 249.515 158.404C249.675 157.022 250.62 156.103 252.009 156.028Z" fill="#2F4077"/>
<path fill-rule="evenodd" clip-rule="evenodd" d="M286.085 178.374C281.319 169.221 259.979 162.912 255.872 163.404C251.766 163.896 255.192 171.295 274.724 177.176" fill="white"/>
<path fill-rule="evenodd" clip-rule="evenodd" d="M255.797 162.768C258.18 162.482 264.872 164.161 270.974 166.68C278.65 169.848 284.421 173.796 286.651 178.078C286.814 178.392 286.694 178.779 286.381 178.944C286.069 179.108 285.683 178.987 285.52 178.673C283.468 174.732 277.909 170.929 270.489 167.867L270.134 167.721C264.317 165.361 258.011 163.795 255.948 164.042C255.234 164.128 254.948 164.413 254.976 164.901C255.017 165.607 255.651 166.643 256.872 167.804C260.026 170.802 266.19 173.938 274.907 176.563C275.244 176.665 275.436 177.022 275.335 177.362C275.234 177.701 274.878 177.894 274.54 177.792C265.649 175.115 259.315 171.892 255.995 168.736C254.56 167.373 253.764 166.074 253.702 164.974C253.632 163.753 254.457 162.928 255.797 162.768Z" fill="#2F4077"/>
<path fill-rule="evenodd" clip-rule="evenodd" d="M296.383 156.283C287.979 152.391 280.192 149.012 276.404 152.327C272.447 155.813 268.021 167.425 273.958 175.958" fill="white"/>
<path fill-rule="evenodd" clip-rule="evenodd" d="M274.702 177.177C314.872 188.19 312.255 153.224 277.511 151.043L274.702 177.177Z" fill="white"/>
<path fill-rule="evenodd" clip-rule="evenodd" d="M277.55 150.404C285.836 150.924 292.8 153.323 297.763 157.084C302.293 160.517 304.851 164.904 304.838 169.061C304.824 173.343 302.099 176.87 297.19 178.651C291.795 180.608 284.077 180.413 274.534 177.796C274.194 177.703 273.994 177.351 274.086 177.009C274.179 176.667 274.53 176.465 274.87 176.559C284.18 179.111 291.641 179.3 296.757 177.444C301.182 175.839 303.55 172.775 303.561 169.057C303.573 165.341 301.225 161.315 296.994 158.109C292.24 154.506 285.517 152.189 277.471 151.684C277.119 151.662 276.852 151.358 276.874 151.004C276.895 150.663 277.177 150.401 277.513 150.402L277.55 150.404Z" fill="#2F4077"/>
<path fill-rule="evenodd" clip-rule="evenodd" d="M360.957 179.125C361.31 179.125 361.596 179.412 361.596 179.767C361.596 180.108 361.33 180.388 360.995 180.407L360.957 180.408H1.04259C0.690073 180.408 0.404297 180.121 0.404297 179.767C0.404297 179.425 0.670024 179.146 1.00509 179.126L1.04259 179.125H360.957Z" fill="#2F4077"/>
</svg>
