<svg xmlns="http://www.w3.org/2000/svg" width="227" height="114" fill="none"><path fill="#FAA184" fill-rule="evenodd" d="M163.409 112.648H63.977a4.196 4.196 0 0 1-4.194-4.205V5.07A4.196 4.196 0 0 1 63.977.865h99.432a4.196 4.196 0 0 1 4.194 4.205v103.373a4.196 4.196 0 0 1-4.194 4.205Z" clip-rule="evenodd"/><path fill="#fff" fill-rule="evenodd" d="M68.658.937a.43.43 0 0 1 0 .86c-1.816 0-3.291 1.523-3.32 3.43V108.342a.43.43 0 0 1-.859.026V5.284c0-2.4 1.862-4.347 4.179-4.347ZM101.248.65a.43.43 0 0 1 .429.405l.001.025V96.46a.43.43 0 0 1-.858.025l-.001-.025V1.08a.43.43 0 0 1 .429-.43ZM123.433 10.767h-.773a.71.71 0 0 1-.715-.718V8.528a.71.71 0 0 1 .715-.717h.773a.71.71 0 0 1 .716.717v1.521a.728.728 0 0 1-.716.718ZM120.385 10.767h-13.712a.71.71 0 0 1-.716-.718V8.528a.71.71 0 0 1 .716-.717h13.712c.4 0 .715.315.715.717v1.521a.728.728 0 0 1-.715.718ZM121.759 24.499h-15.086a.71.71 0 0 1-.716-.717V22.26a.71.71 0 0 1 .716-.717h15.086c.4 0 .715.316.715.717v1.521a.718.718 0 0 1-.715.718ZM135.027 19.92h-24.189a.71.71 0 0 1-.716-.717v-1.52a.71.71 0 0 1 .716-.718h24.189c.4 0 .715.316.715.717v1.521a.71.71 0 0 1-.715.718ZM148.094 19.92h-10.19a.71.71 0 0 1-.716-.717v-1.52a.71.71 0 0 1 .716-.718h10.19a.71.71 0 0 1 .716.717v1.521a.719.719 0 0 1-.716.718ZM159.13 36.596h-.773a.71.71 0 0 1-.716-.718v-1.52a.71.71 0 0 1 .716-.718h.773a.71.71 0 0 1 .716.717v1.521a.71.71 0 0 1-.716.718ZM154.492 41.244h-.772a.71.71 0 0 1-.716-.717v-1.521a.71.71 0 0 1 .716-.718h.772a.71.71 0 0 1 .716.718v1.52a.719.719 0 0 1-.716.718ZM131.72 15.344h-25.047a.71.71 0 0 1-.716-.718v-1.52a.71.71 0 0 1 .716-.718h25.062c.4 0 .715.315.715.717v1.521a.73.73 0 0 1-.73.718ZM139.55 10.767h-13.712a.71.71 0 0 1-.716-.718V8.528a.71.71 0 0 1 .716-.717h13.712c.4 0 .715.315.715.717v1.521a.728.728 0 0 1-.715.718ZM150.47 15.358h-16.13a.71.71 0 0 1-.716-.717v-1.536a.71.71 0 0 1 .716-.717h16.13a.71.71 0 0 1 .716.717v1.536a.719.719 0 0 1-.716.717ZM120.385 36.565h-13.712a.71.71 0 0 1-.716-.717v-1.521a.71.71 0 0 1 .716-.718h13.712c.4 0 .715.316.715.718v1.52a.718.718 0 0 1-.715.718ZM150.299 45.735h-12.41a.709.709 0 0 1-.715-.717v-1.521c0-.402.314-.718.715-.718h12.41c.4 0 .715.316.715.718v1.52a.719.719 0 0 1-.715.718ZM131.72 41.144h-25.047a.71.71 0 0 1-.716-.718v-1.521a.71.71 0 0 1 .716-.718h25.062c.4 0 .715.316.715.718v1.521a.73.73 0 0 1-.73.718ZM139.55 36.565h-16.89a.71.71 0 0 1-.715-.717v-1.521a.71.71 0 0 1 .715-.718h16.89c.401 0 .715.316.715.718v1.52a.718.718 0 0 1-.715.718ZM155.866 36.565h-13.711a.71.71 0 0 1-.716-.717v-1.521a.71.71 0 0 1 .716-.718h13.711a.71.71 0 0 1 .716.718v1.52a.719.719 0 0 1-.716.718ZM123.433 32.132h-.773a.71.71 0 0 1-.715-.718v-1.52a.71.71 0 0 1 .715-.718h.773a.71.71 0 0 1 .716.717v1.521a.719.719 0 0 1-.716.718ZM120.385 32.132h-13.712a.71.71 0 0 1-.716-.718v-1.52a.71.71 0 0 1 .716-.718h13.712c.4 0 .715.316.715.717v1.521a.718.718 0 0 1-.715.718ZM139.55 32.132h-13.712a.71.71 0 0 1-.716-.718v-1.52a.71.71 0 0 1 .716-.718h13.712c.4 0 .715.316.715.717v1.521a.718.718 0 0 1-.715.718ZM151.601 41.158h-17.247a.71.71 0 0 1-.716-.718v-1.535a.71.71 0 0 1 .716-.718h17.247a.71.71 0 0 1 .716.718v1.535a.719.719 0 0 1-.716.718ZM89.612 38.217H73.61a.71.71 0 0 1-.716-.718v-1.52a.71.71 0 0 1 .716-.718h16.002c.4 0 .716.315.716.717V37.5a.71.71 0 0 1-.716.718ZM76.458 33.911H73.61a.71.71 0 0 1-.716-.717v-1.521a.71.71 0 0 1 .716-.718h2.848c.401 0 .716.316.716.718v1.52a.71.71 0 0 1-.716.718ZM82.04 28.86h-8.43a.71.71 0 0 1-.716-.717v-1.521a.71.71 0 0 1 .716-.718h8.43c.401 0 .716.316.716.718v1.52c0 .403-.33.718-.716.718ZM85.19 24.44H73.61a.71.71 0 0 1-.716-.717v-1.521a.71.71 0 0 1 .716-.718h11.58c.4 0 .715.316.715.718v1.52a.71.71 0 0 1-.716.718ZM82.04 19.95h-8.43a.71.71 0 0 1-.716-.718V17.71a.71.71 0 0 1 .716-.718h8.43c.401 0 .716.316.716.718v1.52c0 .402-.33.718-.716.718ZM78.648 15.2H73.61a.71.71 0 0 1-.716-.718V12.96a.71.71 0 0 1 .716-.718h5.038c.4 0 .716.316.716.718v1.52c0 .402-.33.718-.716.718ZM82.24 15.2h-1.216a.477.477 0 0 1-.472-.474v-2.01c0-.258.214-.473.472-.473h1.217c.257 0 .472.215.472.474v2.009a.477.477 0 0 1-.472.473ZM85.518 19.892h-1.216a.477.477 0 0 1-.473-.474v-2.009c0-.258.215-.473.473-.473h1.216c.258 0 .473.215.473.473v2.009a.468.468 0 0 1-.473.474ZM89.01 24.455h-1.216a.477.477 0 0 1-.472-.473v-2.01c0-.258.214-.473.472-.473h1.216c.258 0 .473.215.473.474v2.009a.477.477 0 0 1-.473.473ZM85.618 28.903h-1.216a.477.477 0 0 1-.473-.473v-2.01c0-.258.215-.473.473-.473h1.216c.258 0 .473.216.473.474v2.009c0 .258-.2.473-.473.473ZM79.907 33.911h-1.216a.477.477 0 0 1-.472-.474V31.43c0-.259.214-.474.472-.474h1.216c.258 0 .473.215.473.474v2.009a.468.468 0 0 1-.473.473ZM92.79 38.217h-1.217a.477.477 0 0 1-.473-.474v-2.009c0-.258.215-.473.473-.473h1.216c.258 0 .473.215.473.473v2.01a.477.477 0 0 1-.473.473ZM83.915 10.45H73.424a.71.71 0 0 1-.716-.717V8.212a.71.71 0 0 1 .716-.718h10.491c.4 0 .716.316.716.718v1.52a.719.719 0 0 1-.716.718Z" clip-rule="evenodd"/><path fill="#fff" d="M20.308 75.611h42.71v36.921h-42.71z"/><path fill="#2F4077" fill-rule="evenodd" d="M63.018 75.182h-42.71a.43.43 0 0 0-.43.43v36.921a.43.43 0 0 0 .43.431h42.71a.43.43 0 0 0 .43-.431v-36.92a.43.43 0 0 0-.43-.431Zm-.43.86v36.061h-41.85v-36.06h41.85Z" clip-rule="evenodd"/><path fill="#fff" fill-rule="evenodd" d="M77.36 40.456s2.676-.732 4.208-2.181c.901-.876 2.075-2.038 2.046-2.425-.043-.718-1.545.387-1.789.53" clip-rule="evenodd"/><path fill="#2F4077" fill-rule="evenodd" d="m82.958 36.193-.054.027a5.263 5.263 0 0 0-.21.119l-.095.056c-.184.114-.538.346-.556.357a.431.431 0 0 1-.458-.728l.373-.241a6.323 6.323 0 0 1 .546-.324c.296-.157.548-.254.772-.275.4-.038.723.186.764.6l.003.034c.04.535-.525 1.163-2.18 2.77-.455.43-1.02.82-1.673 1.175-.595.323-1.23.599-1.864.83-.194.07-.376.132-.542.185l-.191.059a5.84 5.84 0 0 1-.12.035.43.43 0 0 1-.226-.83l.052-.016.123-.037.036-.011c.173-.054.367-.12.576-.195a12.97 12.97 0 0 0 1.747-.777c.591-.321 1.097-.67 1.488-1.04l.349-.34c.413-.407.712-.712.97-.997l.033-.037c.113-.127.212-.242.294-.346l.043-.053Z" clip-rule="evenodd"/><path fill="#fff" fill-rule="evenodd" d="M78.805 38.074s1.274-1.105 1.718-2.024c.443-.918.744-1.621.6-1.75-.142-.13-.972.1-1.302.646-.357.918-1.846 2.166-1.846 2.166.186-.072 1.088-1.09 1.517-1.722.415-.631.444-1.607-.859-.516 0 0-1.36 1.22-1.889 1.578 0 0-2.39.904-2.991 1.923-.401.689-3.564 5.955-6.055 9.385-1.531 1.607-4.422 11.45.287 10.36.987-.201 2.09-1.134 2.418-1.98l6.27-15.369c1.445-.602 2.418-1.248 3.048-1.808.816-.732 3.092-3.774 3.078-4.09-.058-.86-1.46-.502-2.176 1.063" clip-rule="evenodd"/><path fill="#2F4077" fill-rule="evenodd" d="m80.008 34.169.002-.001c.49-.324 1.107-.454 1.401-.189a.57.57 0 0 1 .156.217l.003.007.043-.023c.047-.024.093-.046.14-.066l.046-.02c.707-.28 1.378 0 1.428.76.015.311-.448 1.014-1.313 2.167l-.095.127c-.717.946-1.422 1.786-1.813 2.137-.717.637-1.695 1.246-2.94 1.786l-.063.027-6.2 15.198c-.382.983-1.581 1.986-2.668 2.232l-.054.01c-1.304.303-2.251-.128-2.733-1.17-.385-.835-.458-2.032-.273-3.472.313-2.425 1.375-5.37 2.255-6.371l.037-.04.057-.08c1.007-1.394 2.188-3.171 3.445-5.157l.368-.584c.9-1.434 1.798-2.91 2.146-3.509.278-.471.83-.91 1.586-1.338a12.448 12.448 0 0 1 1.423-.688l.15-.06.007-.006c.153-.108.38-.29.663-.525l.183-.155c.171-.145.349-.299.527-.454l.436-.386c.35-.293.643-.475.895-.55.284-.085.555-.038.733.151l.022.025Zm.602.642-.028.014a1.048 1.048 0 0 0-.374.313l-.004.006-.005.013c-.079.186-.192.38-.335.585l-.044.061c-.16.22-.352.449-.57.683-.182.196-.374.387-.568.57l-.053.048-.004.004c-.2.201-.372.349-.479.398l-.017.008c-.445.171-.79-.4-.448-.716l.095-.082.079-.07.086-.077.045-.041.09-.083.035-.038.166-.182.044-.05c.311-.352.624-.745.813-1.022.038-.059.072-.121.1-.184l.008-.018-.013.009a3.618 3.618 0 0 0-.28.21l-.036.03-.245.218-.047.04c-.18.16-.361.318-.539.47l-.22.187-.151.127c-.31.257-.555.45-.727.566a.425.425 0 0 1-.088.047l-.125.049-.107.044c-.074.03-.153.065-.236.101-.354.156-.708.33-1.036.517-.634.36-1.088.72-1.268 1.026l-.172.292a175.36 175.36 0 0 1-1.896 3.092l-.37.588c-1.331 2.107-2.58 3.989-3.64 5.449a.43.43 0 0 1-.037.044c-.74.776-1.784 3.636-2.082 5.95-.167 1.293-.103 2.343.2 2.999.307.662.843.907 1.772.692.814-.166 1.787-.961 2.09-1.682l6.286-15.408a.43.43 0 0 1 .233-.234c1.269-.53 2.243-1.124 2.927-1.732l.046-.042c.35-.331 1.001-1.11 1.658-1.978l.09-.119c.335-.447.636-.87.85-1.197l.058-.087c.072-.113.13-.21.174-.287l.027-.05.017-.033h-.004a.464.464 0 0 0-.209.036l-.026.01c-.39.155-.817.595-1.103 1.22a.429.429 0 0 1-.094.132l-.026.023-.016.031c-.054.107-.119.217-.192.329l-.045.067c-.16.237-.356.483-.58.735-.214.238-.44.47-.667.685l-.093.088-.086.08-.12.107-.008.007a.429.429 0 0 1-.605-.044.431.431 0 0 1 .023-.589l.094-.084.077-.07a10.883 10.883 0 0 0 .744-.754c.201-.225.374-.442.51-.644a2.85 2.85 0 0 0 .207-.352l.093-.193c.147-.31.259-.557.34-.758l.04-.1Z" clip-rule="evenodd"/><path fill="#465F9D" fill-rule="evenodd" d="m67.885 46.525 3.478-6.342 5.482 1.305-4.695 11.68-4.265-6.643Z" clip-rule="evenodd"/><path fill="#2F4077" fill-rule="evenodd" d="m45.542 92.99.172 19.83h2.949l.171-6.184s1.202 6.041 5.31 6.313c4.123.273 7.672-.86 7.644-1.018-.015-.086.128-1.292.257-2.483.115-1.033-.859-2.037-1.918-1.966-1.589.086-3.664-.028-4.924-1.09-2.247-1.88-1.96-15.555-1.96-15.555l-7.7 2.152Z" clip-rule="evenodd"/><path fill="#2F4077" fill-rule="evenodd" d="m50.58 92.989 2.849 19.831h2.948l.115-3.53s1.245 3.401 5.367 3.673c4.122.273 7.672-.861 7.643-1.019-.014-.086.129-1.291.258-2.482.114-1.033-.86-2.038-1.918-1.966-1.589.086-2.934-2.066-4.194-3.128-2.247-1.88-2.69-13.517-2.69-13.517L50.58 92.989Z" clip-rule="evenodd"/><path fill="#465F9D" fill-rule="evenodd" d="M69.073 72.67c-1.06-2.425-13.912-9.57-13.912-9.57s5.682-15.297 2.476-19.803c-2.791-3.788-7.83-3.602-7.83-3.602l-9.203-.344v-.043h-1.502c-1.618 0-3.822 1.736-4.065 3.601-.444 3.444-1.775 8.194-2.691 12.154-2.147 6.601-4.323 16.445.043 20.563.028.058 11.15 0 11.15 0l.014 30.636h22.17c.015.015 4.395-31.181 3.35-33.592Z" clip-rule="evenodd"/><path fill="#E4794A" fill-rule="evenodd" d="M42.668 34.723a.429.429 0 1 1 .768.385c-.21.422-.286 1.01-.189 1.623.167 1.096.81 1.874 1.344 1.835l.026-.002a.43.43 0 0 1 .105.855c-1.1.135-2.093-1.041-2.323-2.555-.125-.78-.025-1.55.269-2.14ZM54.032 34.337a.429.429 0 1 1 .769.385c-.21.422-.287 1.01-.189 1.622.166 1.096.81 1.874 1.343 1.836l.027-.003a.43.43 0 0 1 .104.855c-1.1.135-2.093-1.041-2.322-2.555-.125-.78-.026-1.55.268-2.14Z" clip-rule="evenodd"/><path fill="#2F4077" fill-rule="evenodd" d="M43.753 25.39c1.746-1.292 2.906-8.08-1.832-12.629-4.809-4.606-8.802.101-9.69 1.335-.887 1.234-1.56 4.65 2.59 7.878 4.166 3.214 6.943 4.893 8.932 3.415Z" clip-rule="evenodd"/><path fill="#E4794A" fill-rule="evenodd" d="m46.3 28.388-.114.072c-.644.416-1.545.244-2.004-.402l-1.273-1.793c-.458-.646-.3-1.507.343-1.923l.115-.072c.644-.416 1.546-.244 2.004.402l1.273 1.793c.458.646.3 1.507-.343 1.923Z" clip-rule="evenodd"/><path fill="#fff" fill-rule="evenodd" d="M45.419 34.079c.364-.766.005-1.699-.801-2.084s-1.755-.077-2.12.688c-.363.766-.005 1.699.802 2.084.806.385 1.755.077 2.119-.688Z" clip-rule="evenodd"/><path fill="#2F4077" fill-rule="evenodd" d="M42.11 32.498c-.468.984-.01 2.171 1.006 2.657 1.016.486 2.224.095 2.691-.89.468-.984.011-2.171-1.005-2.657-1.017-.486-2.224-.095-2.692.89Zm.776.37c.26-.545.95-.769 1.546-.483.598.285.859.964.6 1.51-.26.545-.95.769-1.547.483-.597-.285-.858-.964-.6-1.51Z" clip-rule="evenodd"/><path fill="#fff" fill-rule="evenodd" d="M56.528 33.557c.363-.765.005-1.698-.801-2.083-.807-.386-1.756-.078-2.12.688-.364.765-.005 1.698.801 2.084.807.385 1.755.077 2.12-.689Z" clip-rule="evenodd"/><path fill="#2F4077" fill-rule="evenodd" d="M53.22 31.976c-.469.985-.011 2.172 1.005 2.658 1.016.486 2.223.094 2.691-.89.468-.984.01-2.172-1.005-2.658-1.017-.486-2.224-.094-2.692.89Zm.775.37c.26-.545.95-.768 1.546-.483.598.286.859.964.6 1.51-.26.546-.95.77-1.547.484-.597-.286-.858-.964-.6-1.51Z" clip-rule="evenodd"/><path fill="#fff" fill-rule="evenodd" d="m50.538 37.945.085 2.295 1.918.431c.115.316.23 5.74-4.723 5.065-3.249-.444-4.766-3.357-5.64-6.026l2.763.186.014-6.486 5.583 4.535Z" clip-rule="evenodd"/><path fill="#2F4077" fill-rule="evenodd" d="m44.526 33.409-.013 6.026-2.306-.155a.43.43 0 0 0-.437.563c.53 1.622 1.164 2.936 2.002 3.983 1.044 1.304 2.359 2.114 3.988 2.337 2.374.323 3.927-.628 4.712-2.415.497-1.13.647-2.743.473-3.224l-.011-.028a.43.43 0 0 0-.299-.245l-1.595-.358-.074-1.965a.43.43 0 0 0-.158-.318l-5.582-4.535a.43.43 0 0 0-.7.334Zm.856.902 4.733 3.845.079 2.1.002.027a.43.43 0 0 0 .333.377l1.616.363v-.006c.004.183-.003.401-.025.633a5.717 5.717 0 0 1-.433 1.751c-.636 1.447-1.83 2.178-3.811 1.908l-.078-.01c-2.361-.357-3.887-2.096-4.971-5.033l-.031-.084 2.116.143a.43.43 0 0 0 .458-.428l.012-5.586Z" clip-rule="evenodd"/><path fill="#fff" fill-rule="evenodd" d="M50.772 39.266c2.776-.511 4.494-3.826 3.838-7.403-.655-3.578-3.437-6.064-6.212-5.552-2.776.51-4.494 3.826-3.839 7.403.656 3.578 3.438 6.063 6.213 5.552Z" clip-rule="evenodd"/><path fill="#2F4077" fill-rule="evenodd" d="M48.323 25.89c-3.037.56-4.882 4.113-4.188 7.904.693 3.79 3.676 6.454 6.712 5.893 3.037-.56 4.881-4.114 4.188-7.904-.693-3.79-3.676-6.454-6.712-5.894Zm.154.845c2.517-.464 5.098 1.84 5.713 5.203.615 3.363-.98 6.438-3.498 6.902-2.517.465-5.097-1.84-5.712-5.203-.616-3.362.98-6.438 3.497-6.902Z" clip-rule="evenodd"/><path fill="#2F4077" fill-rule="evenodd" d="M50.356 31.043a.43.43 0 0 1 .518.281l.007.025.7 2.646c.102.362-.153.732-.517.75h-.027l-.973.029a.43.43 0 0 1-.05-.86l.024-.001.627-.019-.614-2.325a.43.43 0 0 1 .28-.519l.025-.007ZM47.425 29.585c.43-.244.893-.336 1.352-.159.158.062.308.154.445.278a.431.431 0 0 1-.554.657l-.02-.017a.584.584 0 0 0-.18-.115c-.175-.067-.39-.024-.62.106-.057.032-.11.067-.155.102l-.022.017a.475.475 0 0 0-.024.02.429.429 0 0 1-.606-.033.431.431 0 0 1 .032-.608c.075-.067.195-.158.352-.247ZM51.36 29.44c.283-.068.579-.088.869-.03.418.083.765.322.979.73a.429.429 0 0 1-.747.423l-.014-.023a.516.516 0 0 0-.385-.286 1.229 1.229 0 0 0-.506.023l-.043.011a1.145 1.145 0 0 0-.062.018l-.018.006a.43.43 0 0 1-.303-.806l.043-.015a2.18 2.18 0 0 1 .187-.052ZM49.194 32.347c.011-.324-.153-.593-.367-.6-.213-.007-.395.25-.405.575-.01.325.154.594.367.6.213.008.395-.25.405-.575ZM52.484 33.047c.213-.015.367-.29.343-.615-.023-.324-.215-.574-.428-.559-.212.016-.366.291-.343.615.024.324.215.574.428.559Z" clip-rule="evenodd"/><path fill="#E4794A" fill-rule="evenodd" d="M55.396 33.2c1.105-.172 1.98 1.055 2.222 2.671.232 1.543-.374 2.97-1.49 3.144a.428.428 0 0 1-.043.005H56.034a.43.43 0 0 1-.025-.86h.014l.024-.006c.506-.13.875-1.027.73-2.102L56.768 36c-.178-1.186-.746-1.997-1.22-1.951l-.022.002a.43.43 0 0 1-.131-.85ZM43.888 33.73c1.119-.174 2.134 1.005 2.365 2.542.232 1.543-.374 2.971-1.49 3.145a.428.428 0 0 1-.043.004H44.669a.43.43 0 0 1-.025-.86h.014l.024-.006c.507-.13.875-1.026.73-2.101l-.008-.053c-.166-1.108-.819-1.88-1.359-1.824l-.026.004a.43.43 0 0 1-.131-.851Z" clip-rule="evenodd"/><path fill="#2F4077" fill-rule="evenodd" d="M47.475 34.66c.056 1.48.627 2.262 1.555 2.345.348.031.701-.043 1.045-.182.172-.07.305-.14.388-.191a.431.431 0 0 0 .018-.72l-2.333-1.622a.43.43 0 0 0-.673.37Zm1 .906.832.578-.029.003a.983.983 0 0 1-.172 0c-.272-.024-.486-.182-.62-.552l-.01-.03ZM47.746 24.771l-.014.014c-1.66.244-3.52 1.005-4.551 2.124-1.832 1.98-.988 6.214.873 6.5.157.03.315.044.472.044l-.043-.316a10.542 10.542 0 0 1-.057-1.162c2.548-.947 2.533-4.779 2.533-5.094.544.43 1.245 1.162 1.06 1.98l5.624.358a8.117 8.117 0 0 1 1.045 3.2v.044c.53-.761.544-1.938.115-3.172l1.903.115s1.747-6.443-8.96-4.635Z" clip-rule="evenodd"/><path fill="#fff" fill-rule="evenodd" d="M41.767 48.422a.43.43 0 0 1 .854.086l-.002.025-.61 4.695 11.478.028a.43.43 0 0 1 .428.406v.025a.43.43 0 0 1-.405.43h-.025l-11.966-.029a.43.43 0 0 1-.427-.46l.002-.026.673-5.18ZM31.8 55.504a.43.43 0 1 1 .833.211c-.466 1.845 1.076 4.046 2.892 4.126l.055.001 17.361-.014a.43.43 0 0 1 .026.86l-.025.001-17.37.014c-2.416-.048-4.375-2.812-3.772-5.2Z" clip-rule="evenodd"/><path fill="#fff" fill-rule="evenodd" d="M39.187 53.544c.762-.502 1.571-.565 2.307-.372.142.038.25.077.316.107a.431.431 0 0 1-.328.795l-.043-.018a1.592 1.592 0 0 0-.163-.05 1.953 1.953 0 0 0-1.617.257 2.76 2.76 0 0 0-.76.783.429.429 0 0 1-.596.116.431.431 0 0 1-.116-.598c.295-.438.63-.776 1-1.02Z" clip-rule="evenodd"/><path fill="#fff" fill-rule="evenodd" d="M37.582 52.952c1.325-1.1 2.638-1.16 3.758-.584.15.077.282.159.397.242l.05.038c.047.035.083.065.107.087.176.16.19.432.03.608a.429.429 0 0 1-.585.048l-.035-.03a2.253 2.253 0 0 0-.356-.228c-.831-.427-1.776-.383-2.818.482a.431.431 0 0 1-.548-.663Z" clip-rule="evenodd"/><path fill="#E4794A" fill-rule="evenodd" d="m39.087 58.277 8.774.086 2.891-13.632c.057-.3.315-.516.587-.516l21.383.33c.387 0 .673.416.587.832l-2.72 14.536c-.185.904-1.316 1.593-2.132 1.579-5.253-.086-26.407-.388-27.037-.402-2.82-.015-2.333-2.813-2.333-2.813Z" clip-rule="evenodd"/><path fill="#2F4077" fill-rule="evenodd" d="M75.986 60.745a.43.43 0 0 1 .428.405l.001.026v50.926a.43.43 0 0 1-.858.025V61.606H27.794v50.496a.43.43 0 0 1-.404.43h-.025a.43.43 0 0 1-.429-.405V61.176a.43.43 0 0 1 .404-.43H75.984Z" clip-rule="evenodd"/><path fill="#fff" fill-rule="evenodd" d="M62.231 112.446h-3.22c-.315.029-1.976-.043-.559-.933.287-.129 2.663-1.65 3.607-1.822.945-.172 4.566-.172 4.638-.172.086 0 1.33-3.588 1.36-3.789l5.123.23c-.272.689-1.875 5.754-3.048 6.199-1.188.459-7.915.215-7.915.215s.114-1.004 1.445-1.148c1.317-.143 1.89-.143 1.89-.143" clip-rule="evenodd"/><path fill="#2F4077" fill-rule="evenodd" d="m72.584 106.364-4.213-.189-.06.188c-.114.346-.275.816-.456 1.332l-.173.488c-.108.303-.209.577-.294.806l-.082.214a9.148 9.148 0 0 1-.133.331l-.03.066c-.013.03-.026.056-.038.079l-.05.093c-.086.155-.13.175-.331.177l-.428.001-.378.003c-.49.004-.98.012-1.443.023l-.411.011c-.934.028-1.619.071-1.928.127-.287.053-.813.284-1.5.651l-.285.155-.199.111c-.335.19-.953.551-1.292.745l-.185.105-.034.022-.073.049-.06.042.021.003c.141.02.298.028.408.023l.054-.004.02-.001h2.86l.007-.02c.056-.145.134-.289.238-.426l.04-.05c.32-.392.806-.65 1.46-.721l.201-.021c.429-.045.8-.077 1.116-.097l.143-.009c.239-.014.395-.019.475-.019a.43.43 0 0 1 .026.86l-.123.003-.125.005-.203.01-.21.014c-.337.023-.739.059-1.208.11-.346.037-.594.14-.77.29l-.023.021.44.011c.897.021 1.8.034 2.652.032h.254c1.936-.01 3.313-.095 3.719-.252.15-.057.404-.349.692-.836.29-.492.603-1.151.93-1.947l.042-.1c.19-.467.486-1.261.729-1.926l.21-.583Zm.995-.246.007-.015c.011-.01-.766 2.161-1.147 3.096-.358.876-.7 1.605-1.028 2.16-.382.647-.738 1.055-1.125 1.201-.548.212-1.94.299-4.02.308a104.7 104.7 0 0 1-2.66-.025l-.27-.006-.633-.017-.248-.007-.014.008a.415.415 0 0 1-.185.055h-3.231l-.028.002c-.304.019-.748-.024-1.042-.141l-.05-.021c-.326-.147-.528-.431-.42-.8.08-.271.323-.506.74-.768l.025-.014.035-.018c.111-.061 1.134-.662 1.55-.894l.3-.165.097-.052c.766-.409 1.346-.664 1.75-.738l.06-.01c.411-.066 1.174-.109 2.213-.137.527-.014 1.09-.023 1.656-.028l.517-.003.037-.094.058-.148.08-.214c.082-.218.176-.477.277-.76l.213-.602c.277-.792.532-1.555.538-1.602a.43.43 0 0 1 .42-.369h.024l5.124.23a.43.43 0 0 1 .38.588Z" clip-rule="evenodd"/><path fill="#2F4077" fill-rule="evenodd" d="M114.445 77.793c-1.632-2.124-8.359-10.174-8.359-10.174l-5.611 4.822.973 1.334c-4.708-1.134-9.389-1.679-10.577-1.177l.372.99c-5.01-1.32-12.867-2.625-14.484 1.665-1.718 3.186-9.404 31.641-9.404 31.641l9.905.258 1.001-3.946c.258 2.568.544 4.893.888 6.701.472 2.483 5.539 3.057 8.058 3.028l6.527-.086 9.733-11.681-4.953-16.33c3.908.747 10.234 1.65 13.354.56.158-.014.301-.028.458-.057 3.364-.632 4.738-3.875 2.119-7.548Z" clip-rule="evenodd"/><path fill="#fff" fill-rule="evenodd" d="m83.543 72.928 3.278-6.558 5.668 3.616-.744 3.1c.472 2.583-2.505 4.376-4.566 2.74l-3.636-2.898Z" clip-rule="evenodd"/><path fill="#2F4077" fill-rule="evenodd" d="m86.437 66.177-3.278 6.558a.431.431 0 0 0 .117.53l3.635 2.898.072.056c2.32 1.749 5.587-.184 5.212-3.034l-.012-.084.723-3.014a.431.431 0 0 0-.187-.464l-5.668-3.616a.429.429 0 0 0-.614.17Zm.555.812L92 70.184l-.673 2.8a.433.433 0 0 0-.005.18l.011.065c.34 2.158-2.156 3.634-3.888 2.26l-3.362-2.68 2.909-5.82ZM87.293 57.273s1.99 7.705 6.77 5.811c0 0 2.019-.89 2.076-2.124 0 0-1.603.416-2.004-.789 0 0 3.464.832 4.308-1.865 0 0-3.149.961-4.165-1.077-1.002-2.052-7.242-1.937-6.985.044Z" clip-rule="evenodd"/><path fill="#fff" fill-rule="evenodd" d="M84.13 64.505s-3.263-5.037 1.775-8.423c.472-.316 3.721-2.41 5.668.2 1.288 1.751 2.319 3.818 2.991 5.482 0 .015 1.332 3.114.888 5.367-.444 2.253-3.206 3.3-5.01 3.1-1.803-.201-2.261-.531-3.106-1.35-.844-.817-3.206-4.376-3.206-4.376Z" clip-rule="evenodd"/><path fill="#2F4077" fill-rule="evenodd" d="M94.968 61.618v.002l-.006-.018c-.774-1.916-1.803-3.859-2.948-5.444l-.097-.133c-.97-1.302-2.312-1.682-3.82-1.362a6.64 6.64 0 0 0-1.572.564c-.34.17-.614.333-.858.496-1.234.83-2.07 1.804-2.543 2.895-.706 1.63-.566 3.354.088 4.993.12.301.248.574.377.815l.039.07c.042.078.08.142.109.19l.045.071.263.393.208.307c.318.468.641.936.955 1.38l.198.279.223.31c.606.837 1.077 1.436 1.385 1.741l.024.024c1.028.995 1.618 1.273 3.357 1.467 2.334.26 5.032-1.18 5.478-3.444.098-.5.12-1.052.078-1.649-.059-.802-.232-1.653-.486-2.514-.11-.372-.227-.72-.345-1.041l-.048-.127-.045-.116-.059-.15Zm-.654.69c.113.304.224.634.327.986.238.807.4 1.6.453 2.334a5.392 5.392 0 0 1-.064 1.419c-.347 1.765-2.607 2.97-4.54 2.755l-.145-.017c-1.433-.169-1.848-.378-2.71-1.214-.26-.252-.723-.84-1.318-1.66l-.212-.296-.064-.09a89.514 89.514 0 0 1-1.078-1.553l-.254-.376-.222-.33a5.059 5.059 0 0 1-.142-.247 7.157 7.157 0 0 1-.336-.727c-.576-1.446-.698-2.945-.097-4.331.405-.935 1.132-1.783 2.232-2.522.215-.144.46-.29.763-.441.448-.224.91-.396 1.368-.493 1.184-.251 2.17.018 2.917.986l.035.047.092.126c1.1 1.524 2.097 3.405 2.847 5.261l.008-.003.025.076.048.136.067.175Z" clip-rule="evenodd"/><path fill="#2F4077" fill-rule="evenodd" d="M91.518 61.03a.429.429 0 0 1 .584.07l.016.021 1.66 2.253a.431.431 0 0 1-.096.606l-.022.015-.945.589a.429.429 0 0 1-.59-.139.431.431 0 0 1 .115-.578l.022-.015.55-.342-1.384-1.877a.431.431 0 0 1 .069-.586l.021-.016ZM92.93 60.756c.146-.08.16-.332.034-.56-.127-.229-.348-.348-.493-.267-.145.08-.16.331-.033.56.127.229.348.348.493.267ZM90.815 62.585c.158-.053.219-.296.137-.545-.082-.248-.276-.407-.434-.355-.158.053-.219.296-.137.545.082.248.276.407.434.355ZM89.04 59.96a.43.43 0 0 1 .279.814l-.023.01a.95.95 0 0 0-.634.596l-.012.036a.644.644 0 0 0-.016.055l-.001.005a.43.43 0 1 1-.847-.142c.01-.06.032-.147.07-.253.064-.17.154-.339.277-.498.22-.284.522-.502.908-.622ZM91.36 58.089c.393-.285.81-.432 1.24-.34.113.024.222.065.326.123a.431.431 0 0 1-.393.765l-.023-.012a.32.32 0 0 0-.09-.034c-.143-.03-.343.04-.558.196-.07.05-.135.105-.193.16l-.045.044-.018.019a.429.429 0 0 1-.606.032.431.431 0 0 1-.033-.608c.083-.092.217-.219.392-.345Z" clip-rule="evenodd"/><path fill="#2F4077" fill-rule="evenodd" d="M85.847 58.679s5.769 6.859.902 10.03c0 0-2.132 1.292-3.306.531 0 0 1.431-1.22.587-2.353 0 0-1.503 3.73-4.523 2.755 0 0 2.948-2.282 1.732-4.534-1.217-2.268 2.962-7.95 4.608-6.43Z" clip-rule="evenodd"/><path fill="#E4794A" fill-rule="evenodd" d="M92.03 55.995s-4.264-5.624-9.675-.731c-3.12 2.812-2.776 5.854-1.932 7.935l-2.576 2.726a1.476 1.476 0 0 0 .057 2.081 1.45 1.45 0 0 0 1.016.402 1.52 1.52 0 0 0 1.074-.46L92.03 55.997Z" clip-rule="evenodd"/><path fill="#fff" fill-rule="evenodd" d="m91.945 65.725 1.26-.344Z" clip-rule="evenodd"/><path fill="#2F4077" fill-rule="evenodd" d="M93.092 64.965a.43.43 0 0 1 .25.823l-.024.007-1.26.344a.43.43 0 0 1-.25-.823l.024-.007 1.26-.344Z" clip-rule="evenodd"/><path fill="#fff" fill-rule="evenodd" d="M105.871 70.272c-1.359-.875-2.519-1.736-3.22-2.482a30.639 30.639 0 0 0-1.532-1.392 4.693 4.693 0 0 0-3.578-1.105c-.987.115-2.132.273-2.676.488-1.045.416-4.48 1.736-4.251 2.282.157.387 2.046.086 3.02-.115l1.946 2.325s.86-.287 1.36-.259c1.03.058 2.176.416 2.734.072 0 0 .83 1.392 2.419 3.3" clip-rule="evenodd"/><path fill="#2F4077" fill-rule="evenodd" d="M97.495 64.865a5.118 5.118 0 0 1 3.898 1.201l.089.074c.314.265.68.596 1.13 1.02l.335.318.017.017c.632.672 1.706 1.492 3.14 2.415a.432.432 0 0 1 .129.595.428.428 0 0 1-.593.13l-.197-.128c-1.357-.885-2.395-1.682-3.058-2.373l-.037-.04-.194-.184a28.95 28.95 0 0 0-1.228-1.113l-.085-.072a4.266 4.266 0 0 0-3.25-1.004l-.325.038c-1.08.133-1.827.266-2.215.411l-.546.217-.331.132-.265.108c-.303.124-.585.243-.855.36-.301.132-.576.258-.824.378l-.14.069c-.25.124-.464.24-.638.345l-.066.04h.01c.079-.002.165-.006.256-.012l.13-.01a16.039 16.039 0 0 0 1.765-.271.429.429 0 0 1 .396.123l.02.022 1.765 2.107.025-.007.087-.023.089-.023c.149-.038.295-.07.434-.094.227-.04.427-.057.601-.047.119.007.242.017.375.031l.164.02c.063.007.124.015.193.025l.468.065c.76.102 1.075.106 1.26.008l.025-.014a.428.428 0 0 1 .579.124l.113.18.049.078c.125.196.276.421.45.674.501.723 1.096 1.51 1.783 2.335a.431.431 0 0 1-.055.607.429.429 0 0 1-.605-.055 34.473 34.473 0 0 1-1.828-2.396l-.106-.154c-.102-.15-.195-.29-.28-.42l-.045-.069-.01.003c-.323.079-.734.05-1.471-.051l-.473-.066-.121-.016-.03-.004a7.236 7.236 0 0 0-.483-.045 1.916 1.916 0 0 0-.407.035 5.05 5.05 0 0 0-.602.143l-.118.035-.073.024a.429.429 0 0 1-.445-.11l-.02-.022-1.782-2.13-.105.02c-.48.09-.975.165-1.404.206l-.106.01-.11.008c-.875.067-1.35 0-1.526-.433-.164-.392.059-.684.5-.999.27-.193.652-.406 1.138-.641.227-.11.473-.223.74-.34l.115-.052c.316-.137.647-.276 1.006-.422l.334-.135.656-.26c.515-.204 1.417-.356 2.788-.516Z" clip-rule="evenodd"/><path fill="#fff" fill-rule="evenodd" d="M95.308 66.542s-2.26 1.435-2.06 2.325c.2.89.901.617.901.617" clip-rule="evenodd"/><path fill="#2F4077" fill-rule="evenodd" d="m95.069 66.185.01-.007a.431.431 0 0 1 .48.713l-.102.068-.085.057-.14.097a9.758 9.758 0 0 0-.683.527c-.279.237-.507.465-.665.671-.17.222-.234.387-.218.46.046.203.106.281.17.308a.24.24 0 0 0 .126.01l.034-.008-.002.001a.43.43 0 0 1 .31.803 1.08 1.08 0 0 1-.797-.01c-.337-.14-.574-.452-.678-.914-.086-.382.063-.77.374-1.174.2-.262.47-.53.791-.804a10.544 10.544 0 0 1 .895-.68l.093-.061.087-.057Z" clip-rule="evenodd"/><path fill="#fff" fill-rule="evenodd" d="M95.853 67.475s-1.904 1.449-1.632 2.324c.272.875.945.545.945.545" clip-rule="evenodd"/><path fill="#2F4077" fill-rule="evenodd" d="M95.593 67.132a.429.429 0 0 1 .602.082c.143.19.106.46-.083.603l-.063.05-.067.054-.11.093a7.89 7.89 0 0 0-.541.502 3.99 3.99 0 0 0-.543.67c-.14.229-.184.398-.157.485.057.185.12.264.182.291a.224.224 0 0 0 .148 0l.017-.005h-.001a.431.431 0 0 1 .377.773.957.957 0 0 1-.15.058c-.235.07-.49.073-.742-.04-.301-.135-.524-.413-.651-.82-.116-.375-.012-.772.244-1.191.164-.268.39-.543.661-.822.192-.197.396-.385.6-.558l.087-.073c.081-.068.147-.12.19-.152Z" clip-rule="evenodd"/><path fill="#fff" fill-rule="evenodd" d="M96.554 68.594s-2.262 1.78-.859 2.224c1.388.445 1.832.1 1.832.1s.487-.775-.959-.932" clip-rule="evenodd"/><path fill="#2F4077" fill-rule="evenodd" d="M96.289 68.255a.429.429 0 0 1 .603.073c.14.18.116.437-.052.587l-.07.057a6.576 6.576 0 0 0-.565.524 3.39 3.39 0 0 0-.4.492l-.034.055c-.162.26-.145.301.055.365.612.196 1.036.239 1.305.195l.022-.004a.351.351 0 0 0-.057-.038l-.02-.012c-.117-.06-.3-.108-.554-.136a.43.43 0 0 1 .093-.855c.702.076 1.147.304 1.334.693a.908.908 0 0 1 .018.739.93.93 0 0 1-.076.158.429.429 0 0 1-.101.11.895.895 0 0 1-.265.133c-.44.145-1.081.118-1.96-.163-.861-.273-.946-.98-.482-1.705.13-.203.3-.411.502-.623.154-.16.317-.315.48-.458l.084-.072c.06-.05.107-.09.14-.115Z" clip-rule="evenodd"/><path fill="#fff" fill-rule="evenodd" d="M94.25 101.584s16.402-17.392 19.98-21.424c3.578-4.032 10.148-3.372 12.767-.072 2.62 3.3 16.017 24.438 16.017 24.438l-15.344 3.644-5.568-15.87-8.659 16.229-19.194-6.945Z" clip-rule="evenodd"/><path fill="#2F4077" fill-rule="evenodd" d="m113.909 79.874-.27.303c-1.441 1.606-4.432 4.834-8.546 9.234l-1.393 1.488c-2 2.135-4.113 4.386-6.232 6.639l-3.53 3.75a.431.431 0 0 0 .165.701l19.194 6.945.025.008a.428.428 0 0 0 .499-.21l8.2-15.367 5.244 14.948c.073.208.29.327.504.276l15.343-3.645a.43.43 0 0 0 .277-.627l-.035-.057-1.513-2.38-1.425-2.233a1591.449 1591.449 0 0 0-4.777-7.434l-1.199-1.849c-3.609-5.555-6.119-9.3-7.107-10.544-1.373-1.73-3.771-2.797-6.347-2.876-2.716-.082-5.3.928-7.077 2.93Zm7.051-2.07c2.337.072 4.495 1.032 5.701 2.552l.064.081c1.04 1.335 3.648 5.237 7.346 10.937l.617.952c1.531 2.364 3.145 4.875 4.763 7.406l1.362 2.134 1.514 2.38-14.38 3.416-5.44-15.505-.009-.025a.429.429 0 0 0-.774-.036l-8.485 15.901-18.228-6.595 2.78-2.952 3.015-3.208 2.366-2.522 2.961-3.163c3.907-4.18 6.749-7.248 8.147-8.807l.271-.304c1.599-1.802 3.938-2.717 6.409-2.641Z" clip-rule="evenodd"/><path fill="#fff" fill-rule="evenodd" d="m94.25 101.584 25.104-3.573c1.074-.1 2.161-.086 3.249.014l23.989 2.985-.057 11.68-59.328.043 7.042-11.149Z" clip-rule="evenodd"/><path fill="#2F4077" fill-rule="evenodd" d="m119.314 97.581-.02.003-25.105 3.573a.426.426 0 0 0-.303.196l-7.042 11.149a.43.43 0 0 0 .364.661l59.327-.043a.43.43 0 0 0 .429-.429l.057-11.68a.43.43 0 0 0-.376-.429l-23.989-2.985-.013-.001a17.963 17.963 0 0 0-3.329-.015Zm3.243.871 23.603 2.937-.053 10.87-58.12.042 6.519-10.32 24.897-3.543h-.009c.957-.09 1.955-.088 2.996 0l.167.014Z" clip-rule="evenodd"/><path fill="#E4794A" fill-rule="evenodd" d="M120.156 78.15a.962.962 0 0 0-1.131.747l-3.435 17.635L98.113 98.9l.058.388c.1.746.787 1.277 1.531 1.176l16.646-2.253a1.37 1.37 0 0 0 1.174-1.535l3.378-17.377a.98.98 0 0 0-.744-1.148ZM198.004 99.418l-.473 6.672s7.014 3.487 6.384 7.089l-14.8-.057.258-12.857 8.631-.847Z" clip-rule="evenodd"/><path fill="#465F9D" fill-rule="evenodd" d="M183.991 43.64c6.555 1.077 6.355 3.89 8.573 8.108 2.219 4.219 8.13 54.356 8.13 54.356l-17.376.244-1.002-36.505-6.798 32.645-20.439.186s17.476-48.444 18.979-51.672c1.502-3.214 3.191-4.52 5.41-5.123 2.218-.602 4.523-2.238 4.523-2.238Z" clip-rule="evenodd"/><path fill="#2F4077" fill-rule="evenodd" d="M206.849 44.243c-3.464-6.213-10.735-16.53-14.041-17.635-.072-.029-.143-.058-.229-.072l-3.249-.617c-1.818 2.382-5.511 4.865-8.702 4.133-5.067-1.162-2.977-5.683-2.791-5.998l1.617.359-.186-.417-1.231-.244c-1.245-.301-2.863-.215-4.881.46a5413.339 5413.339 0 0 0-16.832 5.754l5.024 7.174s1.66-.832 7.013-2.597c1.06-.344 2.233-.689 3.407-1.033.2 2.425 1.46 5.252 4.566 8.409 1.574 1.966 7.829 2.798 7.829 2.798 1.846.53 5.639-2.425 6.641-4.104.329-.545.673-1.162 1.016-1.837 3.593 4.75 9.261 11.781 9.261 11.781l1.503-.387c3.406-1.478 5.925-2.942 4.265-5.927Z" clip-rule="evenodd"/><path fill="#fff" fill-rule="evenodd" d="m184.95 18.113.472.315s2.834 1.55 3.721-1.32c.673-2.18-1.402-2.855-2.447-3.056" clip-rule="evenodd"/><path fill="#2F4077" fill-rule="evenodd" d="M186.274 13.972a.43.43 0 0 1 .503-.342c.793.152 1.515.426 2.06.876.785.647 1.073 1.574.717 2.73-.373 1.205-1.108 1.86-2.074 2.009-.561.087-1.143-.002-1.71-.2a3.83 3.83 0 0 1-.553-.238l-.017-.01-.016-.01-.472-.315a.43.43 0 0 1 .454-.73l.022.013.455.304.054.027.037.017c.095.044.202.088.319.129.445.155.894.224 1.296.162.637-.099 1.108-.518 1.384-1.412.253-.818.077-1.384-.442-1.811-.412-.34-1.011-.568-1.676-.696a.431.431 0 0 1-.341-.503Z" clip-rule="evenodd"/><path fill="#fff" fill-rule="evenodd" d="m178.366 21.988 1.088 2.41-1.618-.358c-.172.316-2.261 4.836 2.791 5.998 3.321.76 7.171-1.937 8.903-4.405l-2.805-.517-2.291-5.539-6.068 2.41Z" clip-rule="evenodd"/><path fill="#2F4077" fill-rule="evenodd" d="m178.208 21.587-.024.01a.43.43 0 0 0-.209.567l.734 1.627-.78-.172a.43.43 0 0 0-.47.214 5.703 5.703 0 0 0-.382.993 5.614 5.614 0 0 0-.233 1.923c.121 1.811 1.282 3.154 3.687 3.707 1.667.382 3.53-.02 5.352-1.035 1.59-.885 3.056-2.199 3.998-3.542l.014-.021a.43.43 0 0 0-.287-.65l-2.576-.474-2.201-5.323a.43.43 0 0 0-.555-.235l-6.068 2.41Zm5.992-1.454 2.128 5.147.012.026a.43.43 0 0 0 .307.232l2.12.39-.025.031c-2.04 2.496-5.442 4.249-8.019 3.658-2.038-.469-2.926-1.496-3.022-2.925a4.76 4.76 0 0 1 .201-1.626l.026-.086c.043-.142.091-.277.14-.403l.016-.042 1.277.283.023.005a.43.43 0 0 0 .461-.603l-.902-2 5.257-2.087Z" clip-rule="evenodd"/><path fill="#2F4077" fill-rule="evenodd" d="M190.187 26.212c2.196-.832 3.392-3.056 2.672-4.97-.72-1.912-3.085-2.789-5.281-1.957-2.196.831-3.393 3.056-2.672 4.968.72 1.913 3.084 2.79 5.281 1.959Z" clip-rule="evenodd"/><path fill="#2F4077" fill-rule="evenodd" d="M194.322 29.379c1.708-.647 2.638-2.379 2.077-3.869-.561-1.49-2.401-2.174-4.109-1.527-1.709.646-2.639 2.378-2.077 3.869.561 1.49 2.401 2.174 4.109 1.527Z" clip-rule="evenodd"/><path fill="#2F4077" fill-rule="evenodd" d="M197.952 32.353c1.531-.58 2.364-2.131 1.862-3.466-.503-1.334-2.151-1.946-3.682-1.367-1.53.58-2.364 2.131-1.861 3.466.502 1.334 2.15 1.946 3.681 1.367Z" clip-rule="evenodd"/><path fill="#2F4077" fill-rule="evenodd" d="M201.839 33.18c.372 1.12-.343 2.382-1.617 2.827-1.274.445-2.62-.1-2.992-1.205-.372-1.105.287-2.44 1.56-2.884 1.274-.46 2.677.143 3.049 1.262Z" clip-rule="evenodd"/><path fill="#2F4077" fill-rule="evenodd" d="M204.186 36.193c.029 1.205.63 1.693 1.203 1.88.272.086.286.473.028.574-1.517.602-4.251 1.334-5.095-.804-.401-1.004.086-2.224 1.202-2.755 1.131-.53 2.634.014 2.662 1.105Z" clip-rule="evenodd"/><path fill="#E4794A" fill-rule="evenodd" d="M191.967 23.582a.57.57 0 0 1 .809-.013c.22.213.233.56.035.788l-.021.024-2.176 2.252a.572.572 0 0 1-.844-.775l.021-.023 2.176-2.253ZM195.973 27.043a.572.572 0 0 1 .809.04.575.575 0 0 1-.018.79l-.023.021-1.961 1.78a.57.57 0 0 1-.808-.041.576.576 0 0 1 .017-.789l.023-.022 1.961-1.779ZM198.433 31.505a.57.57 0 0 1 .797.14.575.575 0 0 1-.115.781l-.024.018-.673.474a.57.57 0 0 1-.797-.14.575.575 0 0 1 .115-.782l.024-.018.673-.473ZM200.915 34.692a.571.571 0 0 1 .803.1.575.575 0 0 1-.076.786l-.024.02-.644.503a.572.572 0 0 1-.727-.886l.024-.02.644-.503Z" clip-rule="evenodd"/><path fill="#fff" fill-rule="evenodd" d="M174.802 12.704c-.387 1.32-1.489 7.562 2.505 9.112 3.993 1.55 7.743-1.564 9.16-5.41 1.417-3.846.53-7.605-1.975-8.639-2.505-1.047-6.885-4.591-9.69 4.937Z" clip-rule="evenodd"/><path fill="#2F4077" fill-rule="evenodd" d="M179.2 5.927c-1.992.473-3.573 2.519-4.774 6.532l-.036.122c-.331 1.13-.555 2.998-.406 4.63.224 2.445 1.212 4.246 3.168 5.005 3.945 1.531 8.071-1.193 9.718-5.662 1.467-3.982.572-7.964-2.132-9.15l-.162-.07a12.507 12.507 0 0 1-.421-.193l-.813-.395-.172-.082c-1.612-.756-2.747-1.028-3.97-.737Zm-4.004 6.961.018-.063c1.127-3.829 2.534-5.668 4.184-6.06 1.001-.238 1.998.01 3.491.718l.245.119.534.26.176.085c.185.087.337.156.482.217 2.265.934 3.078 4.455 1.738 8.092-1.498 4.065-5.17 6.49-8.602 5.157-1.598-.62-2.426-2.128-2.623-4.28-.135-1.486.064-3.205.357-4.245Z" clip-rule="evenodd"/><path fill="#2F4077" fill-rule="evenodd" d="M178.881 17.769a2.808 2.808 0 0 1-1.775-.258.248.248 0 0 0-.357.186c-.086.488-.058 1.35 1.016 1.607 1.131.273 1.36-.717 1.417-1.277.014-.143-.129-.287-.301-.258ZM178.66 10.693a.429.429 0 0 1 .795.323l-.009.024-1.902 4.331.76.202a.43.43 0 0 1 .311.501l-.006.025a.429.429 0 0 1-.5.312l-.025-.006-1.245-.33a.431.431 0 0 1-.293-.565l.01-.024 2.104-4.793ZM180.037 11.234c.668-.3 1.274-.082 1.751.422.106.111.198.23.276.347l.034.052c.03.049.054.089.069.118a.43.43 0 0 1-.748.423l-.022-.04a1.672 1.672 0 0 0-.231-.307c-.244-.257-.481-.348-.748-.242l-.03.013a.43.43 0 1 1-.351-.786ZM176.591 8.766c.642-.405 1.289-.251 1.841.211.183.154.317.306.397.418a.429.429 0 0 1-.681.525l-.033-.044a1.81 1.81 0 0 0-.234-.238c-.287-.24-.546-.308-.805-.16l-.027.016a.43.43 0 0 1-.458-.729ZM180.288 14.57c.074-.365-.053-.7-.285-.748-.233-.048-.482.21-.557.574-.074.365.053.7.285.747.233.048.482-.209.557-.573ZM176.199 13.788c.075-.364-.053-.7-.285-.747-.233-.048-.482.209-.556.574-.075.365.052.7.285.747.232.048.481-.209.556-.574Z" clip-rule="evenodd"/><path fill="#E4794A" fill-rule="evenodd" d="M178.348 13.325c-.363 2.143.645 4.133 2.31 4.417 1.666.284 3.271-1.26 3.633-3.404.362-2.142-.645-4.133-2.31-4.417-1.666-.284-3.271 1.261-3.633 3.404Zm.635.109c.309-1.826 1.624-3.092 2.89-2.876 1.266.216 2.092 1.847 1.783 3.672-.309 1.826-1.624 3.092-2.89 2.876-1.266-.216-2.092-1.847-1.783-3.672ZM171.37 11.976c-.362 2.143.645 4.134 2.31 4.418 1.666.284 3.271-1.261 3.633-3.404.363-2.143-.645-4.133-2.31-4.417-1.666-.284-3.271 1.26-3.633 3.403Zm.635.109c.309-1.826 1.624-3.092 2.89-2.876 1.266.216 2.092 1.847 1.783 3.673-.309 1.825-1.624 3.091-2.89 2.876-1.266-.216-2.091-1.848-1.783-3.673Z" clip-rule="evenodd"/><path fill="#E4794A" fill-rule="evenodd" d="M176.833 11.997a.322.322 0 0 1 .354-.26l.023.003 1.646.316a.323.323 0 0 1-.099.638l-.022-.004-1.646-.316a.323.323 0 0 1-.256-.377ZM183.772 12.929a.321.321 0 0 1 .386-.21l.022.007 3.735 1.263a.322.322 0 0 1-.183.619l-.022-.007-3.736-1.263a.322.322 0 0 1-.202-.41Z" clip-rule="evenodd"/><path fill="#2F4077" fill-rule="evenodd" d="M191.362 12.043c-.301-1.994-3.249-5.294-5.954-5.266-3.493-3.558-8.717-7.131-11.765-.86-.315.66.042 1.463.744 1.62l9.933 2.584c.272 1.506 1.045 3.888 3.135 4.835.601.273 1.016.244 1.273 0 .473.474.73 1.148.415 2.124-.83 2.684-3.377 1.507-3.692 1.335a9.525 9.525 0 0 1-1.861 2.138c2.161 1.19 4.523 1.75 5.94-.144 1.861-2.425 2.233-5.582 1.832-8.365Z" clip-rule="evenodd"/><path fill="#fff" fill-rule="evenodd" d="m144.659 17.998-.515 1.105.644 1.65 1.288.302s.944-.474.114-1.019c-.83-.545-.758-.33-.758-.33l.143-.818 1.703-.961" clip-rule="evenodd"/><path fill="#2F4077" fill-rule="evenodd" d="M147.067 17.552a.43.43 0 0 1 .444.737l-.022.014-1.526.861-.038.212.002.001c.123.064.271.152.449.268l.05.032c.368.242.562.547.532.893-.022.267-.166.48-.376.659-.116.1-.229.169-.314.212a.43.43 0 0 1-.257.04l-.033-.006-1.288-.301a.427.427 0 0 1-.291-.237l-.011-.026-.644-1.65a.426.426 0 0 1-.001-.312l.012-.027.515-1.105a.429.429 0 0 1 .788.34l-.01.025-.438.937.495 1.268.893.209.006-.005.021-.017.044-.041.022-.024-.004-.005a.607.607 0 0 0-.106-.09l-.026-.017-.081-.053a4.693 4.693 0 0 0-.34-.201l-.024-.013-.014.003a.42.42 0 0 1-.462-.264l-.01-.026-.009-.031-.005-.024a.452.452 0 0 1 .005-.206l.007-.024.13-.743a.427.427 0 0 1 .187-.286l.025-.015 1.703-.962Z" clip-rule="evenodd"/><path fill="#fff" fill-rule="evenodd" d="m143.743 18.487-.515 1.105.644 1.65 1.288.301s.944-.473.114-1.019c-.83-.545-.758-.33-.758-.33l.143-.817 1.703-.962" clip-rule="evenodd"/><path fill="#2F4077" fill-rule="evenodd" d="M146.151 18.04a.429.429 0 0 1 .585.164c.112.2.048.45-.141.572l-.022.014-1.526.861-.038.213h.002c.123.064.271.152.449.268l.05.032c.368.242.562.548.532.894-.022.266-.166.479-.376.658-.116.1-.229.17-.314.212a.43.43 0 0 1-.257.04l-.033-.006-1.288-.301a.427.427 0 0 1-.291-.236l-.011-.026-.644-1.65a.426.426 0 0 1-.001-.313l.012-.027.515-1.105a.429.429 0 0 1 .788.34l-.01.025-.438.938.495 1.267.893.209.006-.005.021-.017c.018-.015.032-.03.044-.041l.022-.024-.004-.004a.607.607 0 0 0-.106-.09l-.026-.018-.081-.052a4.693 4.693 0 0 0-.34-.202l-.024-.013-.014.003a.42.42 0 0 1-.462-.264l-.01-.026-.009-.03-.005-.024a.438.438 0 0 1 .005-.206l.007-.024.13-.744a.427.427 0 0 1 .187-.285l.025-.016 1.703-.961Z" clip-rule="evenodd"/><path fill="#fff" fill-rule="evenodd" d="m142.712 18.645-.572 1.205.701 1.794 1.403.33s1.03-.517.128-1.105c-.901-.588-.815-.359-.815-.359l.157-.89 1.861-1.047" clip-rule="evenodd"/><path fill="#2F4077" fill-rule="evenodd" d="M145.365 18.198a.431.431 0 0 1 .443.737l-.023.014-1.684.947-.049.281.007.004c.134.069.298.166.497.294l.051.033c.391.255.594.575.562.936-.025.277-.176.5-.398.69-.124.105-.245.18-.335.225a.43.43 0 0 1-.258.04l-.032-.006-1.403-.33a.428.428 0 0 1-.29-.236l-.012-.026-.701-1.794a.433.433 0 0 1 0-.315l.012-.027.573-1.205a.429.429 0 0 1 .786.346l-.011.024-.493 1.037.552 1.41 1.01.237.025-.02.021-.017a.593.593 0 0 0 .085-.087l.009-.012-.007-.01a.598.598 0 0 0-.137-.12l-.027-.018-.127-.082a4.851 4.851 0 0 0-.324-.19l-.048-.025-.01.002a.421.421 0 0 1-.464-.249l-.01-.024-.009-.025-.009-.034a.453.453 0 0 1-.003-.198l.008-.032.007-.023.142-.805a.43.43 0 0 1 .188-.284l.025-.016 1.861-1.047Z" clip-rule="evenodd"/><path fill="#fff" fill-rule="evenodd" d="M148.223 17.11c-1.16.014-2.52.028-2.52.028s-2.733.531-3.163.603c-.429.072-2.547 1.134-2.447 1.363.214.574 1.989.216 2.891-.172.902-.373 2.934.015 2.934.015s.558 1.707.186 1.707c-.372 0-2.419-.158-2.734.474-.314.631-.171 1.119.616 1.033.787-.086 1.904.43 1.904.43s2.862-.488 3.563-.846c.702-.36 3.622 6.5 6.427 10.991 2.805 4.492 4.666 4.95 6.985 3.157 2.247-1.736-.73-5.854-2.104-7.347-1.088-1.19-7.228-7.576-9.805-10.274a3.672 3.672 0 0 0-2.733-1.162Z" clip-rule="evenodd"/><path fill="#2F4077" fill-rule="evenodd" d="m148.217 16.68-2.518.028a.428.428 0 0 0-.077.008l-2.013.388c-.469.09-.82.155-1.015.19l-.124.022c-.271.046-.922.332-1.553.667l-.132.071c-.26.142-.487.278-.657.397-.12.083-.214.159-.285.233l-.02.02c-.144.157-.22.322-.135.543l.003.008c.198.53.796.647 1.638.551a7.03 7.03 0 0 0 1.824-.478c.222-.092.601-.135 1.079-.127a9.77 9.77 0 0 1 1.059.084l.085.011.163.024.047.007.023.082c.017.061.035.124.051.187.027.103.051.202.071.296l.011.048c.02.095.035.182.045.257l.002.017h.019a11.37 11.37 0 0 0-1.088.008l-.118.008c-.835.064-1.387.246-1.615.705-.478.958-.071 1.776 1.046 1.654.128-.014.284-.008.461.019.215.032.449.092.69.172.136.045.265.093.383.141l.089.037.054.024a.428.428 0 0 0 .22.038l.045-.007.424-.076.15-.027c.44-.082.879-.17 1.291-.26l.182-.04c.328-.073.62-.145.868-.214l.062-.018a5.48 5.48 0 0 0 .512-.168l.018-.007.018.018c.054.057.119.136.194.237l.028.04c.236.326.537.828.925 1.53l.135.248c.561 1.043 2.257 4.303 2.655 5.047l.225.417c.492.91.941 1.708 1.372 2.432l.064.108c.142.237.281.465.418.685 2.797 4.478 4.924 5.347 7.611 3.269 1.209-.934 1.245-2.455.436-4.28-.552-1.248-1.501-2.611-2.413-3.619l-.322-.35a502.406 502.406 0 0 0-3.349-3.523l-6.212-6.488a4.101 4.101 0 0 0-3.05-1.295Zm.012.86a3.245 3.245 0 0 1 2.372.982l7.847 8.2a183.413 183.413 0 0 1 1.996 2.115c.877.951 1.809 2.28 2.334 3.466.668 1.506.641 2.618-.175 3.249-2.206 1.706-3.798 1.056-6.359-3.044a36.999 36.999 0 0 1-.326-.532l-.083-.139a69.704 69.704 0 0 1-1.566-2.782l-.187-.35c-.557-1.052-2.151-4.114-2.607-4.954l-.12-.218c-.369-.664-.663-1.154-.909-1.5l-.028-.04a2.678 2.678 0 0 0-.435-.497c-.214-.179-.448-.26-.695-.15l-.029.015a3.717 3.717 0 0 1-.599.205c-.275.077-.615.159-1.003.243-.402.088-.833.174-1.265.254l-.287.053-.163.029-.051-.021a6.988 6.988 0 0 0-.438-.162 5.152 5.152 0 0 0-.831-.206 2.656 2.656 0 0 0-.682-.023c-.218.023-.285-.001-.291-.013a.215.215 0 0 1 0-.093c.011-.083.046-.188.106-.307.043-.086.431-.202 1.018-.239a9.67 9.67 0 0 1 .833-.01l.465.013h.033a.53.53 0 0 0 .493-.331.908.908 0 0 0 .065-.366c0-.184-.033-.411-.092-.679a9.524 9.524 0 0 0-.163-.632l-.038-.13-.043-.134a.428.428 0 0 0-.327-.289l-.114-.02-.056-.01c-.13-.02-.274-.042-.429-.062-.392-.05-.783-.084-1.152-.09-.586-.011-1.067.044-1.428.193a6.188 6.188 0 0 1-1.587.417l-.053.005a3.314 3.314 0 0 1-.245.017h-.026l.038-.022c.112-.066.238-.136.372-.207l.089-.047c.506-.263 1.034-.495 1.19-.529l.17-.03.578-.108.857-.164 1.544-.298 2.482-.028Z" clip-rule="evenodd"/><path fill="#fff" fill-rule="evenodd" d="M188.142 56.426s14.27-4.75 18.449-8.638c2.004-1.865-2.175-7.533-10.262-.703s-15.158 5.324-15.158 5.324l6.971 4.017Z" clip-rule="evenodd"/><path fill="#2F4077" fill-rule="evenodd" d="M196.052 46.755c-3.011 2.544-6.079 4.098-9.094 4.852-2.07.517-3.863.604-5.263.444l-.105-.013a6.038 6.038 0 0 1-.143-.02l-.125-.02-.061-.01c-.479-.103-.728.549-.304.794l6.971 4.017a.428.428 0 0 0 .349.036l.223-.075.547-.188.489-.171a142.67 142.67 0 0 0 1.814-.652 124.976 124.976 0 0 0 6.756-2.69l.323-.141c2.3-1.012 4.275-1.995 5.834-2.93 1.099-.66 1.979-1.288 2.62-1.885 1.299-1.209.531-3.44-1.466-4.322-2.326-1.026-5.599-.168-9.254 2.881l-.111.093Zm9.019-2.186c1.49.658 2.012 2.173 1.228 2.903-.572.532-1.37 1.106-2.373 1.714l-.104.063c-1.595.957-3.651 1.973-6.058 3.02-2.021.88-4.181 1.737-6.348 2.538l-.361.133c-.695.255-1.346.488-1.941.697l-.702.243-.224.076-5.156-2.972h.058c1.198-.006 2.57-.166 4.076-.542 3.098-.774 6.241-2.356 9.313-4.922l.126-.106c3.473-2.933 6.459-3.73 8.466-2.845Z" clip-rule="evenodd"/><path fill="#E4794A" fill-rule="evenodd" d="m199.149 51.59-3.378.086-2.892-13.632c-.057-.301-.314-.517-.586-.517l-21.384.33c-.386 0-.673.416-.587.833l2.72 14.536c.186.904 1.316 1.593 2.132 1.578 5.253-.086 21.012-.387 21.627-.402 2.834-.014 2.348-2.812 2.348-2.812Z" clip-rule="evenodd"/><path fill="#fff" fill-rule="evenodd" d="M189.573 55.91c-4.766 2.009-7.586.416-9.031-2.282-1.074-2.009-2.333-4.706-1.489-5.122.887-.187 1.961 3.17 1.961 3.17s-1.789-3.788-.873-3.988c.715-.144 1.402 1.392 2.161 3.76 0 0-1.231-3.158-1.217-3.66.043-1.435 1.274-1.55 2.491 3.559l-1.059-3.588c-.201-1.133.844-.975 1.417.058.615 1.105 2.247 4.85 2.648 6.07" clip-rule="evenodd"/><path fill="#2F4077" fill-rule="evenodd" d="M181.027 46.707c.334-.316.782-.255 1.155.09l.026.024.037.038.004-.005c.149-.21.385-.327.69-.31l.034.002c.491.043 1.002.459 1.336 1.06.626 1.124 2.269 4.894 2.681 6.145a.429.429 0 1 1-.816.27l-.032-.095c-.443-1.29-1.999-4.851-2.584-5.9-.192-.349-.453-.574-.622-.616l-.008-.001-.002.01-.002.019a.825.825 0 0 0 .01.209l.002.015.29.984.007.017c.252.672.499 1.5.737 2.484l.024.1c.127.534-.646.75-.822.247l-.008-.026-.755-2.558-.014-.036c-.275-.717-.541-1.196-.777-1.426l-.027-.026-.015-.013-.005.012a1.34 1.34 0 0 0-.055.341l-.001.038c-.001.041.044.239.126.515l.011.038c.047.156.104.333.17.53l.029.088.003.006c.247.554.505 1.256.792 2.136l.065.202c.17.53-.607.807-.809.288l-.167-.434-.024-.065c-.115-.303-.23-.61-.34-.913l-.11-.305-.113-.32a7.932 7.932 0 0 1-.054-.155l-.044-.126-.024-.053a7.437 7.437 0 0 0-.174-.356l-.025-.046c-.161-.3-.311-.51-.442-.63a.63.63 0 0 0-.06-.05l-.015-.009v.01c-.002.04-.001.087.003.142l.003.033c.025.283.121.675.274 1.144l.029.086.032.064c.034.07.068.14.102.214l.034.074c.164.359.318.741.458 1.124l.047.13.043.123.067.197.021.063c.161.503-.544.792-.786.338l-.011-.022-.051-.11-.05-.11a22.521 22.521 0 0 1-.479-1.145 19.13 19.13 0 0 1-.201-.549l-.017-.051-.015-.029c-.209-.405-.41-.706-.578-.858l-.021-.018-.001.005a.929.929 0 0 0-.007.147l.001.035c.013.278.107.668.276 1.148.294.837.791 1.89 1.437 3.098 1.556 2.905 4.369 3.824 8.487 2.089a.431.431 0 0 1 .333.794c-4.518 1.904-7.806.829-9.577-2.476-.665-1.245-1.178-2.33-1.49-3.219l-.041-.118c-.417-1.233-.434-2.047.232-2.375a.429.429 0 0 1 .101-.035.807.807 0 0 1 .478.046l.008.004c.013-.439.176-.759.572-.86l.034-.009a.914.914 0 0 1 .622.089l.022.012.007-.038a1.22 1.22 0 0 1 .292-.594l.027-.027Z" clip-rule="evenodd"/><path fill="#fff" fill-rule="evenodd" d="M185.479 51.792s.945-2.009 1.804-1.435c.859.574-1.074 3.587-1.074 3.587" clip-rule="evenodd"/><path fill="#2F4077" fill-rule="evenodd" d="m185.587 50.772.062-.085c.458-.612.942-.958 1.503-.844.13.026.253.079.369.156.598.4.511 1.181.058 2.27-.098.235-.212.48-.34.732a15.32 15.32 0 0 1-.458.831l-.063.107-.06.098-.087.14a.43.43 0 1 1-.723-.465l.052-.083.054-.088.088-.147c.147-.25.295-.515.432-.785.118-.233.224-.458.312-.67.157-.377.254-.698.28-.939a.673.673 0 0 0-.007-.25l-.006-.02c-.002-.008-.005-.011-.006-.013l-.002-.002a.185.185 0 0 0-.063-.028c-.134-.027-.406.18-.698.587-.109.153-.212.32-.304.486l-.045.084-.04.076-.027.056a.43.43 0 1 1-.777-.367l.029-.06a6.422 6.422 0 0 1 .467-.777Z" clip-rule="evenodd"/><path fill="#E4794A" fill-rule="evenodd" d="M165.413 74.162a8.591 8.591 0 0 0-.1-.1c-2.476-2.224-4.852-4.994-7.157-6.084-.601-3.114-3.206-6.615-13.683-4.664-6.584 1.636-8.044 4.061-7.299 6.443-2.262 1.363-6.871 4.692-11.007 11.107-5.725 8.896 12.753 22.959 16.002 22.959 3.249 0 26.221-8.997 26.221-8.997l1.346-4.104c1.946-5.898.257-12.398-4.323-16.56Z" clip-rule="evenodd"/><path fill="#2F4077" fill-rule="evenodd" d="M158.156 67.95c.258 1.29.158 2.51.115 3.257-.129 3.113-1.789 4.591-2.147 5.754 2.261-1.35 4.351-4.463 5.382-6.5-.644-.618-2.219-1.952-3.35-2.512ZM145.275 77.205c-1.117-.517-7.2-4.018-8.159-7.605-1.145.617-2.576 1.52-3.692 2.855 1.288.79 8.559 5.123 11.779 4.879.043 0 .086-.014.129-.014a.293.293 0 0 0-.057-.115Z" clip-rule="evenodd"/><path fill="#fff" fill-rule="evenodd" d="m143.228 67.964-1.302 1.348s6.197 4.721 8.215 16.115a206.628 206.628 0 0 1 1.99 14.35l3.836-.201s-3.264-18.425-1.933-22.314c1.331-3.889.115-8.265-.787-8.968-.902-.732-10.019-.33-10.019-.33ZM141.997 59.943s-2.233.602-1.345 2.525c.887 1.923 3.091.13 3.091.13l-1.044-2.785-.702.13Z" clip-rule="evenodd"/><path fill="#2F4077" fill-rule="evenodd" d="m142.621 59.389-.701.13-.018.003-.016.004a3.31 3.31 0 0 0-.905.425c-.895.603-1.258 1.528-.719 2.697.376.815 1.013 1.183 1.78 1.135.438-.028.885-.186 1.329-.43.284-.156.508-.313.643-.423a.432.432 0 0 0 .131-.485L143.1 59.66a.429.429 0 0 0-.479-.272Zm-.198.912.802 2.137-.032.021a3.838 3.838 0 0 1-.235.14c-.343.188-.677.307-.969.325-.419.026-.722-.149-.948-.637-.344-.747-.152-1.237.419-1.621.143-.097.299-.177.455-.24l.03-.012.054-.02.083-.029.012-.003.329-.061Z" clip-rule="evenodd"/><path fill="#fff" fill-rule="evenodd" d="M146.849 51.992c.587-.2 4.58-1.463 5.869 1.823 1.288 3.286 1.731 7.16 1.774 8.968.043 1.808-7.929 2.942-8.401 2.899-.473-.044-1.131-.43-1.131-.43l-2.347-4.951c-.029-.015-2.004-6.214 4.236-8.309Z" clip-rule="evenodd"/><path fill="#2F4077" fill-rule="evenodd" d="M147.749 51.307c-.405.08-.749.178-1.038.277-2.887.969-4.378 2.857-4.755 5.275a8.307 8.307 0 0 0 .004 2.494l.009.058c.073.48.152.842.264 1.06l.004.008-.012.005 2.347 4.95a.433.433 0 0 0 .171.187l.052.03c.105.06.25.134.419.21.143.063.284.118.42.16.147.046.286.076.418.088l.032.002c.487.019 2.688-.33 4.38-.738l.123-.03c2.761-.68 4.361-1.449 4.335-2.571-.062-2.612-.698-6.293-1.805-9.116-.636-1.624-1.918-2.397-3.572-2.491a7.138 7.138 0 0 0-1.796.142Zm-4.752 8.792a6.902 6.902 0 0 1-.187-.872 7.468 7.468 0 0 1-.006-2.235c.326-2.088 1.581-3.695 4.102-4.566l.08-.027c.258-.088.566-.175.931-.248a6.287 6.287 0 0 1 1.579-.127c1.343.077 2.32.665 2.822 1.947 1.067 2.72 1.685 6.303 1.745 8.821.011.47-1.42 1.159-3.681 1.715-.841.207-1.756.39-2.624.533l-.312.05c-.667.103-1.241.168-1.316.162a1.237 1.237 0 0 1-.243-.054c-.1-.03-.21-.073-.324-.124l-.072-.033a3.975 3.975 0 0 1-.14-.069l-.063-.032-2.287-4.825a.433.433 0 0 0-.196-.2c.14.07.1-.108.14.014l.052.17Z" clip-rule="evenodd"/><path fill="#fff" fill-rule="evenodd" d="m144.731 64.16-.143 2.497-1.231 1.42s3.635 2.253 7.113 6.228c0 0 2.849-3.013 3.35-7.734l-6.67.832-.53-2.612-1.889-.63Z" clip-rule="evenodd"/><path fill="#2F4077" fill-rule="evenodd" d="m144.303 64.136-.135 2.35-1.135 1.31a.43.43 0 0 0 .076.633l.164.106.143.094a28.708 28.708 0 0 1 1.765 1.282 36.49 36.49 0 0 1 4.967 4.678c.167.19.461.196.634.013l.025-.027a10.131 10.131 0 0 0 .541-.663c.414-.549.828-1.186 1.213-1.904a14.634 14.634 0 0 0 1.686-5.391l.002-.025a.43.43 0 0 0-.482-.448l-6.276.783-.45-2.221a.429.429 0 0 0-.285-.323l-1.889-.631a.43.43 0 0 0-.564.384Zm.825.61 1.121.375.48 2.368.006.025a.43.43 0 0 0 .468.316l6.121-.763-.019.123a13.89 13.89 0 0 1-1.5 4.41 13.896 13.896 0 0 1-1.142 1.794l-.05.066-.097.125-.052.065-.11-.12a37.231 37.231 0 0 0-6.086-5.362l-.212-.146-.052-.035.908-1.048a.43.43 0 0 0 .105-.257l.111-1.935Z" clip-rule="evenodd"/><path fill="#869ECE" fill-rule="evenodd" d="M143.343 60.057c.472.272 2.032 2.18 2.533 3.128 0 0 2.333-1.478 5.968-2.425 0 0 1.99-.46 2.849-.416 0 0 .701 3.601-.444 5.854-1.159 2.239-4.68 2.569-6.555 1.851-1.875-.717-2.262-1.176-2.92-2.267-.659-1.09-2.734-5.28-2.734-5.28l1.303-.445Z" clip-rule="evenodd"/><path fill="#2F4077" fill-rule="evenodd" d="M142.484 61.075s-1.46-1.377-2.29-2.984c-.773-1.507-.444-3.372.859-4.463 1.087-.904 2.118-.66 2.118-.66s-1.861-1.923-.387-4.391a3.705 3.705 0 0 1 2.376-1.707c2.419-.531 3.679 1.334 3.679 1.334s1.402-5.381 7.385-3.889c.601.158 1.403.79 1.818 1.249 2.533 2.798-2.276 8.035-5.196 9.083-3.206 1.148-5.267 1.076-6.526.53.916.288 1.245 5.454-3.836 5.898ZM151.28 58.993a.43.43 0 0 1 .543.23l.009.024 1.117 3.028a.431.431 0 0 1-.384.58h-.025l-1.159-.015a.43.43 0 0 1-.015-.86h.026l.534.006-.899-2.44a.43.43 0 0 1 .23-.544l.023-.01ZM152.941 59.578c.177-.044.266-.298.2-.567-.067-.27-.264-.452-.44-.409-.177.044-.266.298-.2.567.067.27.264.452.44.409ZM150.077 60.265c.181-.01.316-.242.301-.519-.015-.277-.174-.493-.355-.484-.182.01-.317.243-.302.52.015.277.174.493.356.483Z" clip-rule="evenodd"/><path fill="#2F4077" fill-rule="evenodd" d="M149.134 57.317a.43.43 0 0 1 .064.858l-.025.002c-.295.013-.524.12-.705.291a1.121 1.121 0 0 0-.17.203l-.018.03a.594.594 0 0 0-.02.035l-.002.004a.429.429 0 1 1-.785-.35 1.936 1.936 0 0 1 .406-.548 1.908 1.908 0 0 1 1.255-.525ZM152.765 55.526c.34.006.65.121.897.363a.432.432 0 0 1 .007.608.428.428 0 0 1-.586.027l-.021-.02a.43.43 0 0 0-.313-.117 1.34 1.34 0 0 0-.535.127 2.01 2.01 0 0 0-.145.07l-.044.024a2.463 2.463 0 0 0-.048.028l-.012.007a.43.43 0 1 1-.47-.72 2.7 2.7 0 0 1 .377-.199c.295-.128.595-.204.893-.198ZM151.76 63.39v-.003l-1.761.114a.43.43 0 0 0-.326.673c.029.043.076.1.142.164.1.096.224.19.372.276a2.86 2.86 0 0 0 1.209.35c.514-.01.826-.317.865-.75a1.188 1.188 0 0 0-.02-.342l-.015-.067-.015-.059-.003-.02a.41.41 0 0 0-.421-.34l-.027.004ZM145.806 75.963a.43.43 0 0 1 .554.202l.017.039.083.198.055.133a38.506 38.506 0 0 1 .888 2.404c.241.724.45 1.428.616 2.096.195.78.327 1.494.388 2.127a.43.43 0 1 1-.854.082 14.066 14.066 0 0 0-.367-2 28.16 28.16 0 0 0-.597-2.033 38.73 38.73 0 0 0-.623-1.73l-.071-.182c-.082-.21-.159-.4-.228-.567l-.085-.203a.43.43 0 0 1 .224-.566ZM155.214 76.101a.43.43 0 0 1 .462.367l.139 1.562.052.576c.08.863.161 1.718.241 2.534l.076.757c.032.319.064.624.095.916a.43.43 0 1 1-.854.091l-.047-.45-.098-.958-.08-.822c-.072-.741-.144-1.508-.214-2.278l-.116-1.291-.047-.538a.43.43 0 0 1 .391-.466ZM141.34 82.049a.43.43 0 0 1 .59.625l-.02.019-2.676 2.382a.429.429 0 0 1-.511.044c-1.512-.938-2.764-.907-3.778-.31-.153.09-.286.186-.398.281l-.039.034a2.418 2.418 0 0 0-.066.062l-.013.014a.43.43 0 1 1-.636-.579c.039-.042.104-.107.197-.186.148-.127.322-.252.521-.37 1.199-.705 2.675-.783 4.334.129l.052.029 2.443-2.174Z" clip-rule="evenodd"/><path fill="#2F4077" fill-rule="evenodd" d="M138.318 84.396a.428.428 0 0 1 .562-.173l.102.057 1.985 1.135 3.823 2.175c.58.328.951.536 1.061.593l.024.013a.431.431 0 0 1-.371.776l-.095-.05a134.74 134.74 0 0 1-1.68-.944l-1.997-1.136-3.254-1.859a.43.43 0 0 1-.16-.587ZM160.731 81.116a.43.43 0 0 1 .556.197l.011.023 1.331 3.028a.428.428 0 0 1-.775.37l-.011-.023-1.331-3.028a.43.43 0 0 1 .219-.567ZM145.361 100.393s-6.642-2.77-14.872-8.48c-8.215-5.712-13.454 3.128-11.235 6.744 1.946 3.185 12.896 14.148 12.896 14.148l37.242-.301s8.745-11.035 10.119-12.771c4.652-5.855.802-8.94-4.293-9.385-4.81-.416-17.777 9.055-19.366 10.275l-10.491-.23Z" clip-rule="evenodd"/><path fill="#465F9D" fill-rule="evenodd" d="M168.147 84.222h-23.932a.676.676 0 0 0-.658.516L140.308 98.5h-6.011s-.544 2.827 2.633 2.827h3.378a.8.8 0 0 0 .186.029h23.931a.676.676 0 0 0 .659-.517l3.721-15.77a.684.684 0 0 0-.658-.846Z" clip-rule="evenodd"/><path fill="#2F4077" fill-rule="evenodd" d="M225.886 112.317a.43.43 0 0 1 .025.861H1.115a.43.43 0 0 1-.026-.86l.026-.001h224.771Z" clip-rule="evenodd"/></svg>