<svg width="186" height="120" viewBox="0 0 186 120" fill="none" xmlns="http://www.w3.org/2000/svg"><path fill-rule="evenodd" clip-rule="evenodd" d="M89.463 118.807H16.136V67.354c0-11.424 9.089-20.676 20.312-20.676H69.15c11.223 0 20.313 9.252 20.313 20.676v51.453Z" fill="#465F9D"/><path fill-rule="evenodd" clip-rule="evenodd" d="M106.81 56.555c.043-7.467-2.704-18.876-32.923-13.194-15.476 2.796-16.747 9.758-13.43 16.452-6.006 3.064-16.863 10.219-26.274 25.079-13.882 21.896-.482 33.989 7.409 33.989 7.89 0 95.642-.699 95.642-.699 0 0 3.419-34.45-30.424-61.627Z" fill="#E4794A"/><path fill-rule="evenodd" clip-rule="evenodd" d="m70.175 52.167-3.156 3.302c0 0 15.022 11.633 19.902 39.642 3.171 18.207 2.09 20.245 2.09 20.245l9.309-.506c0 0-5.188-30.27-1.959-39.85 3.23-9.58.278-20.334-1.914-22.074-2.192-1.74-24.272-.759-24.272-.759Z" fill="#fff"/><path fill-rule="evenodd" clip-rule="evenodd" d="m73.828 42.825-.35 6.129-2.981 3.48c0 0 8.811 5.549 17.243 15.322 0 0 6.897-7.408 8.11-19.025l-16.162 2.037-1.271-6.426-4.589-1.517Z" fill="#fff"/><path fill-rule="evenodd" clip-rule="evenodd" d="m73.39 42.8-.341 5.975-2.883 3.366a.451.451 0 0 0 .1.673l.089.057.216.141.05.033c.294.195.635.427 1.02.695a76.55 76.55 0 0 1 3.496 2.605l.152.12a89.718 89.718 0 0 1 11.08 10.402c.351.391.698.786 1.041 1.183.17.198.47.204.648.013l.083-.092.088-.1c.06-.07.128-.148.2-.234.29-.345.61-.75.956-1.216a35.77 35.77 0 0 0 2.887-4.606c2.085-3.95 3.521-8.32 4.014-13.037l.002-.026a.442.442 0 0 0-.492-.464l-15.759 1.987-1.19-6.02a.443.443 0 0 0-.295-.337l-4.588-1.517a.44.44 0 0 0-.573.398Zm.843.628 3.804 1.258 1.221 6.17.006.027a.439.439 0 0 0 .478.328l15.609-1.968-.004.03c-.534 4.37-1.9 8.431-3.848 12.12a34.873 34.873 0 0 1-2.813 4.49l-.072.096-.14.186c-.231.304-.45.577-.651.82l-.082.098-.195-.222a90.59 90.59 0 0 0-11.719-11.1 77.91 77.91 0 0 0-3.69-2.756l-.28-.195c-.22-.151-.422-.289-.609-.414l-.087-.058 2.647-3.09a.45.45 0 0 0 .107-.268l.318-5.552Z" fill="#2F4077"/><path fill-rule="evenodd" clip-rule="evenodd" d="M96.39 100.823c2.382.566 4.297 1.101 4.823 1.503 1.709 1.324 8.826 8.404 9.074 9.564.263 1.161-1.826 1.8-3.551.015l-5.07-4.923c0 0 5.158 5.979 5.567 6.902.409.922-1.622 2.528-4.603-1.324-2.981-3.853-3.463-3.883-3.463-3.883 0 0 3.405 4.835 3.858 5.935.453 1.101-2.426 2.128-5.056-2.945l-15.768-.699.92-12.748c.015 0 7.863 1.339 13.27 2.603Z" fill="#fff"/><path fill-rule="evenodd" clip-rule="evenodd" d="M83.122 97.774c.388 0 8.736 1.556 12.985 2.526l.383.089.57.137c2.427.589 3.866 1.039 4.399 1.43l.019.015.061.047c.905.717 3.032 2.745 5.003 4.768l.427.44c2.23 2.312 3.613 3.944 3.746 4.564.196.864-.453 1.545-1.408 1.656-.727.084-1.535-.154-2.267-.688l-.067-.05.078.104c.285.385.476.67.563.848l.019.04c.367.826-.357 1.713-1.411 1.758-.917.039-1.968-.489-3.062-1.61l-.085-.088.02.034c.139.24.242.437.309.587l.025.059c.195.473.032.968-.386 1.259-.377.261-.912.33-1.491.19-1.287-.311-2.64-1.559-3.826-3.74l-.025-.047-15.518-.688a.443.443 0 0 1-.42-.453l.001-.026.921-12.748a.442.442 0 0 1 .437-.413Zm.402.964-.852 11.804 15.316.679a.44.44 0 0 1 .354.212l.015.026c1.11 2.143 2.337 3.305 3.398 3.562.636.153.939-.057.866-.236-.16-.387-.783-1.393-1.706-2.779l-.156-.233a154.87 154.87 0 0 0-1.168-1.715l-.457-.659-.323-.462c-.215-.305.014-.728.383-.705.41.025 1.341.929 3.44 3.613l.341.439c1.246 1.61 2.379 2.318 3.21 2.282.49-.021.73-.315.649-.499l-.012-.026c-.177-.352-1.122-1.567-2.524-3.262l-.17-.204-.371-.446c-.376-.45-.764-.911-1.156-1.373l-.616-.723-.648-.757c-.364-.421.209-.992.613-.635l.019.018 5.08 4.933c.698.723 1.503 1.043 2.159.967.487-.057.714-.296.651-.574-.184-.86-6.831-7.693-8.909-9.302l-.03-.022c-.419-.288-1.838-.726-4.094-1.275l-.536-.128-.426-.099c-2.144-.492-4.762-1.023-7.624-1.563l-1.335-.248c-.514-.095-1.049-.192-1.548-.282l-1.833-.328Z" fill="#2F4077"/><path fill-rule="evenodd" clip-rule="evenodd" d="M55.474 118.807c0 0 25.295-1.74 28.13-2.484 2.835-.744 1.783-2.856 3.844-3.659 2.06-.803 2.703-1.458 2.703-1.458-2.66-4.329 0-11.484 0-11.484 0 0-.701-.193-2.85-.64-2.148-.445-1.46-2.706-4.369-2.974-2.922-.253-27.955 2.648-27.955 2.648" fill="#E4794A"/><path fill-rule="evenodd" clip-rule="evenodd" d="m68.028 96.87 1.704-.176c7.281-.746 12.022-1.136 13.24-1.03 1.401.129 2.08.6 2.815 1.646l.134.195c.513.746.807 1.003 1.468 1.14l.486.103c.716.15 1.296.28 1.755.387l.294.07.242.06.1.027a.448.448 0 0 1 .304.563l-.056.159-.035.101a21.997 21.997 0 0 0-.493 1.73c-.429 1.768-.65 3.552-.558 5.205.085 1.526.438 2.851 1.095 3.919a.454.454 0 0 1-.062.553l-.025.024a2.463 2.463 0 0 1-.147.126c-.129.102-.29.217-.486.341-.527.332-1.219.68-2.097 1.027l-.102.041c-.61.238-.862.523-1.227 1.28l-.143.302-.056.114c-.532 1.067-1.147 1.632-2.464 1.978l-.062.016c-1.051.255-4.448.618-9.736 1.073l-1.423.121c-.892.075-1.823.151-2.79.229l-1.227.098c-2.335.184-4.776.369-7.233.55l-2.307.168-2.692.191-.74.051a.44.44 0 0 1-.467-.415.445.445 0 0 1 .382-.473l2.875-.203 1.585-.114c2.892-.21 5.783-.428 8.53-.645l1.748-.14a649.06 649.06 0 0 0 2.984-.247l1.33-.114c4.953-.432 8.158-.783 9.024-1.01 1.068-.28 1.493-.679 1.926-1.569l.17-.359c.447-.921.822-1.362 1.647-1.695l.053-.021c.876-.342 1.551-.678 2.05-.993a4.6 4.6 0 0 0 .205-.135l.033-.023-.04-.075c-.573-1.095-.888-2.376-.98-3.807l-.007-.113c-.098-1.754.135-3.622.582-5.47.121-.499.25-.962.38-1.382l.066-.21-.394-.091a99.088 99.088 0 0 0-1.972-.428c-.892-.185-1.343-.555-1.933-1.392l-.174-.25c-.613-.887-1.079-1.221-2.212-1.325-1.167-.102-6.204.319-13.757 1.1l-1.365.141-.697.074c-2.206.233-4.472.48-6.714.728l-2.349.263-2.986.34a.44.44 0 0 1-.485-.393.445.445 0 0 1 .36-.49l.046-.006 2.642-.301 1.001-.113c2.504-.281 5.065-.562 7.564-.828l.831-.088 1.042-.11Z" fill="#2F4077"/><path fill-rule="evenodd" clip-rule="evenodd" d="M56.251 91.036a.44.44 0 0 1 .48-.4l.038.004c.065.009.157.024.274.048.232.048.488.118.762.214.78.273 1.558.702 2.284 1.319 1.456 1.238 2.51 3.07 2.99 5.587a.446.446 0 0 1-.346.523.439.439 0 0 1-.514-.353c-.443-2.316-1.392-3.966-2.692-5.072a6.32 6.32 0 0 0-2.007-1.16 5.143 5.143 0 0 0-.652-.183l-.092-.018a2.923 2.923 0 0 0-.07-.013l-.062-.008a.444.444 0 0 1-.393-.488Zm31.532 21.925c2.221-.848 2.938-1.532 2.938-1.532-2.88-4.582 0-12.153 0-12.153 0 0-.76-.208-3.084-.684-.935-.194-1.373-.7-1.768-1.25-4.778 5.519-1.914 15.203-.628 18.713 1.11-.997.862-2.439 2.542-3.094Zm19.027-56.406c-.015 1.398-.117 2.648-.161 3.63-.292 6.857-3.551 10.501-4.852 13.238 4.311-2.707 8.257-8.538 10.2-12.376a83.986 83.986 0 0 0-5.187-4.492ZM75.158 74.926c-2.309-1.086-11.135-7.944-14.7-15.098-2.31 1.175-5.334 2.96-8.725 5.563 2.5 1.458 16.878 9.683 23.469 9.624a.243.243 0 0 0-.044-.09Zm1.427-2.634a.58.58 0 0 1 .767.252l.03.063.119.257.108.237c.178.392.374.835.584 1.322l.053.123a94.186 94.186 0 0 1 1.932 4.85 67.444 67.444 0 0 1 1.639 5.046c.576 2.075.959 3.952 1.113 5.585a.592.592 0 0 1-.527.649.587.587 0 0 1-.637-.536c-.147-1.553-.515-3.362-1.074-5.374a66.212 66.212 0 0 0-1.61-4.955 92.96 92.96 0 0 0-1.907-4.788l-.154-.358a79.914 79.914 0 0 0-.473-1.066l-.153-.334-.083-.179a.6.6 0 0 1 .273-.794Zm22.86.403a.595.595 0 0 1 .444.684l-.075.345-.07.33-.115.567c-.19.965-.382 2.03-.56 3.165-.394 2.509-.67 4.985-.771 7.296-.08 1.817-.05 3.47.106 4.922a.593.593 0 0 1-.518.656.587.587 0 0 1-.644-.527c-.163-1.518-.195-3.23-.112-5.105.104-2.36.384-4.88.785-7.43l.068-.428c.15-.92.307-1.792.464-2.599l.037-.185c.04-.206.08-.398.116-.577l.094-.444.05-.225a.584.584 0 0 1 .701-.445Z" fill="#2F4077"/><path fill-rule="evenodd" clip-rule="evenodd" d="M145.607 50.322h-.979a.73.73 0 0 1-.731-.744v-1.904a.73.73 0 0 1 .731-.743h.979a.73.73 0 0 1 .73.743v1.904a.73.73 0 0 1-.73.744Z" fill="#FAA184"/><path fill-rule="evenodd" clip-rule="evenodd" d="M142.231 50.322h-15.285a.73.73 0 0 1-.731-.744v-1.904a.73.73 0 0 1 .731-.743h15.285a.73.73 0 0 1 .731.743v1.904a.73.73 0 0 1-.731.744Zm1.52 15.782h-16.805a.73.73 0 0 1-.731-.743v-1.904a.73.73 0 0 1 .731-.744h16.805a.73.73 0 0 1 .731.744v1.904a.73.73 0 0 1-.731.743Z" fill="#465F9D"/><path fill-rule="evenodd" clip-rule="evenodd" d="M158.437 60.853h-26.873a.73.73 0 0 1-.731-.743v-1.904a.73.73 0 0 1 .731-.744h26.873a.73.73 0 0 1 .731.744v1.904a.74.74 0 0 1-.731.743Zm16.892 0h-13.838a.73.73 0 0 1-.731-.743v-1.904a.73.73 0 0 1 .731-.744h13.838a.73.73 0 0 1 .731.744v1.904a.74.74 0 0 1-.731.743Z" fill="#FAA184"/><path fill-rule="evenodd" clip-rule="evenodd" d="M180.503 55.603h-.979a.73.73 0 0 1-.731-.744v-1.904a.73.73 0 0 1 .731-.744h.979a.73.73 0 0 1 .73.744v1.904a.739.739 0 0 1-.73.744Zm-25.719-.015h-27.838a.73.73 0 0 1-.731-.744V52.94a.73.73 0 0 1 .731-.744h27.838a.73.73 0 0 1 .73.744v1.904a.74.74 0 0 1-.73.744Zm8.651-5.266H148.15a.73.73 0 0 1-.731-.744v-1.904a.73.73 0 0 1 .731-.743h15.285a.73.73 0 0 1 .73.743v1.904a.74.74 0 0 1-.73.744Z" fill="#465F9D"/><path fill-rule="evenodd" clip-rule="evenodd" d="M176.762 55.603H157.56a.73.73 0 0 1-.73-.744v-1.934a.73.73 0 0 1 .73-.743h19.202a.73.73 0 0 1 .73.743v1.934a.749.749 0 0 1-.73.744Z" fill="#E4794A"/><path fill-rule="evenodd" clip-rule="evenodd" d="M154.959 118.658c.745 0 1.388-.52 1.564-1.264l8.826-38.02c.234-1.027-.526-2.009-1.564-2.009H106.97c-.745 0-1.388.52-1.564 1.265l-7.905 34.034H76.91c0 0-1.14 5.994 5.51 5.994" fill="#465F9D"/><path fill-rule="evenodd" clip-rule="evenodd" d="M131.257 92.002c0 0 2.616-.64 2.776 1.651 0 0-2.075.863-2.776-1.65Z" fill="#fff"/><path fill-rule="evenodd" clip-rule="evenodd" d="M136.035 97.937a3.576 3.576 0 0 0-.833-.401c.366-.402.599-.937.599-1.503 0-.624-.292-1.115-.73-1.353.248-.759.657-1.845.964-2.231a.449.449 0 0 0-.044-.625.43.43 0 0 0-.613.044c-.468.55-.95 1.934-1.184 2.663h-.044c-.906.164-1.637 1.116-1.637 2.112 0 .328.088.61.22.848a5.603 5.603 0 0 0-2.762 1.636c-1.651 1.785-1.608 4.165.087 5.296 1.696 1.13 4.414.61 6.065-1.19 1.651-1.785 1.607-4.165-.088-5.296Zm-111.891 4.314c-2.381 0-4.311 1.965-4.311 4.388 0 2.424 1.93 4.388 4.31 4.388 2.382 0 4.312-1.964 4.312-4.388 0-2.423-1.93-4.388-4.311-4.388Zm0 .892c1.896 0 3.434 1.566 3.434 3.496 0 1.931-1.538 3.496-3.434 3.496-1.897 0-3.434-1.565-3.434-3.496 0-1.93 1.537-3.496 3.434-3.496Z" fill="#fff"/><path fill-rule="evenodd" clip-rule="evenodd" d="M36.93 118.509h-7.394c-2.426 0-4.384-1.993-4.384-4.462v-12.763h16.162v12.763c0 2.469-1.972 4.462-4.384 4.462Z" fill="#FAA184"/><path fill-rule="evenodd" clip-rule="evenodd" d="m28.47 108.826 2.922-1.785a.243.243 0 0 1 .146-.045c.088 0 .146.03.205.089.058.06.087.134.087.209a.315.315 0 0 1-.146.267l-2.513 1.532 2.513 1.533c.102.074.146.148.146.267 0 .09-.029.149-.087.209a.288.288 0 0 1-.205.089.243.243 0 0 1-.146-.045l-2.923-1.785c-.102-.074-.16-.163-.16-.268 0-.104.058-.193.16-.267Zm6.4-2.931a.288.288 0 0 1 .205-.089c.073 0 .146.03.204.089.059.06.088.134.088.209 0 .044-.015.089-.03.134l-2.352 5.979a.288.288 0 0 1-.263.179.288.288 0 0 1-.205-.089.298.298 0 0 1-.087-.209c0-.044.014-.089.029-.134l2.353-5.979c0-.03.029-.06.058-.09Zm4.617 3.198c0 .105-.058.194-.16.268l-2.923 1.785a.242.242 0 0 1-.146.045.265.265 0 0 1-.205-.089.298.298 0 0 1-.087-.209c0-.104.044-.193.146-.267l2.513-1.533-2.513-1.532c-.102-.074-.146-.148-.146-.267 0-.09.029-.149.087-.209a.288.288 0 0 1 .205-.089c.058 0 .102.015.146.045l2.923 1.785c.102.074.16.163.16.267Z" fill="#2F4077"/><path fill-rule="evenodd" clip-rule="evenodd" d="M33.32 96.747c.41 4.493-7.54-5.95-6.429-11.989 1.11-6.04 5.378-5.801 7.16-9.208 1.082-2.052.994-3.391.76-4.135-.073-.238.176-.46.395-.342 2.09 1.16 7.555 4.939 5.743 12.093-2.996 10.636-8.461 4.433-7.628 13.581Zm38.418-65.509c0 0-5.611.104-4.618 5.22 1.009 5.118 7.22 2.158 7.22 2.158l-.834-7.274-1.768-.104Z" fill="#fff"/><path fill-rule="evenodd" clip-rule="evenodd" d="M71.763 30.792h-.033l-.06.001a6.65 6.65 0 0 0-.74.08 7.08 7.08 0 0 0-1.733.497c-1.983.87-3.014 2.562-2.507 5.175.451 2.29 1.908 3.34 3.965 3.368.867.012 1.783-.157 2.694-.445.268-.085.52-.175.749-.266l.097-.039c.155-.063.267-.113.33-.143a.448.448 0 0 0 .25-.456l-.833-7.274a.442.442 0 0 0-.41-.394l-1.769-.104Zm-.03.892 1.38.081.753 6.57h.003c-.235.095-.497.19-.78.28-.83.263-1.66.416-2.422.405-1.67-.023-2.753-.804-3.117-2.65-.421-2.17.37-3.468 1.994-4.181.48-.211 1-.352 1.522-.435.182-.029.351-.048.502-.06l.101-.007.063-.003Z" fill="#2F4077"/><path fill-rule="evenodd" clip-rule="evenodd" d="M87.74 15.113c1.475-.119 11.617-.773 12.727 7.84 1.111 8.612-.088 18.117-1.023 22.46-.935 4.344-20.356 2.336-21.452 1.95-1.096-.387-2.41-1.696-2.41-1.696l-2.66-13.224c.014 0-1.082-15.99 14.817-17.33Z" fill="#fff"/><path fill-rule="evenodd" clip-rule="evenodd" d="M87.705 14.668c-6.856.577-11.203 3.831-13.493 8.878-.795 1.752-1.29 3.621-1.546 5.517a20.032 20.032 0 0 0-.19 3.128l.004.157.003.082v.022a.449.449 0 0 0 .01.08l2.659 13.224c.017.087.06.167.123.23l.087.084.085.08.145.132c.243.22.505.438.776.643.323.245.639.454.942.616.186.1.366.181.539.243.88.31 6.515.807 10.8.823h.13c6.528.01 10.61-.853 11.094-3.098l.054-.258c.526-2.523.99-5.933 1.233-9.436.315-4.523.255-8.941-.258-12.921-.515-3.996-2.903-6.422-6.532-7.562-1.313-.413-2.718-.632-4.155-.701a19.182 19.182 0 0 0-2.51.037Zm2.469.854c1.368.066 2.702.275 3.937.663 3.325 1.044 5.455 3.208 5.922 6.825.504 3.915.563 8.274.253 12.742-.249 3.582-.731 7.063-1.27 9.566-.34 1.582-4.235 2.406-10.237 2.397h-.254c-4.175-.026-9.638-.51-10.389-.775a3.03 3.03 0 0 1-.418-.188 6.477 6.477 0 0 1-.827-.543c-.25-.189-.493-.392-.718-.595l-.091-.083-.099-.092L73.36 32.39l-.005-.135c-.024-.831.017-1.861.18-3.072.245-1.813.719-3.598 1.474-5.264 2.161-4.762 6.236-7.812 12.767-8.362.706-.057 1.477-.08 2.399-.036Z" fill="#2F4077"/><path fill-rule="evenodd" clip-rule="evenodd" d="M74.778 32.324c.935.952 3.448 6.426 4.062 8.97 0 0 6.225-2.143 15.154-2.276 0 0 4.866.104 6.809.684 0 0-.423 9.029-4.369 13.715-3.945 4.67-12.275 3.361-16.191.55-3.916-2.811-4.56-4.15-5.465-7.17-.906-3.005-3.303-14.235-3.303-14.235l3.303-.238Z" fill="#869ECE"/><path fill-rule="evenodd" clip-rule="evenodd" d="M72.235 34.257c0 0-2.645-4.165-3.653-8.478-.965-4.061.891-8.316 4.588-10.145 3.098-1.518 5.392-.328 5.392-.328 0 0-3.288-5.682 1.637-10.71 1.739-1.77 4.135-2.751 6.59-2.677 6.006.179 7.877 5.355 7.877 5.355 0 0 6.429-12.034 19.625-4.909 1.33.714 2.835 2.722 3.551 4.076 4.355 8.181-10.01 17.865-17.477 18.623-8.213.848-13.02-.55-15.665-2.588 1.958 1.205-.249 13.7-12.465 11.781Zm15.878 10.435c.309-.05.6.155.665.463l.01.055a2.63 2.63 0 0 0 .3.782c.334.565.803.829 1.545.695a.586.586 0 0 1 .677.482.594.594 0 0 1-.474.69c-1.257.226-2.183-.294-2.75-1.256a3.81 3.81 0 0 1-.456-1.228.594.594 0 0 1 .483-.683Zm6.063-9.732a.586.586 0 0 1 .643.495l.004.03.876 7.868a.589.589 0 0 1-.7.65l-.026-.006-2.719-.714a.596.596 0 0 1-.42-.725.584.584 0 0 1 .683-.435l.03.007 1.895.498-.781-7.01a.593.593 0 0 1 .486-.654l.029-.004Zm3.062 1.974c.436 0 .789-.559.789-1.249 0-.69-.353-1.25-.79-1.25-.435 0-.788.56-.788 1.25 0 .69.353 1.25.789 1.25ZM89.61 36.8c.436 0 .789-.559.789-1.249 0-.69-.353-1.25-.79-1.25-.435 0-.788.56-.788 1.25 0 .69.353 1.25.789 1.25Z" fill="#2F4077"/><path fill-rule="evenodd" clip-rule="evenodd" d="M86.408 28.586a4.081 4.081 0 0 1 3.142-.778c.32.049.54.352.492.677a.586.586 0 0 1-.665.5c-.896-.136-1.65.092-2.278.561-.178.132-.33.274-.457.414l-.04.045c-.043.05-.072.087-.088.108l-.005.008a.578.578 0 0 1-.814.147.602.602 0 0 1-.145-.829l.028-.039a4.351 4.351 0 0 1 .83-.814Zm10.462-.955a3.614 3.614 0 0 1 1.448.045c.826.208 1.452.75 1.729 1.66a.597.597 0 0 1-.386.745.582.582 0 0 1-.722-.364l-.01-.03c-.147-.486-.444-.743-.891-.856a2.51 2.51 0 0 0-.987-.024l-.074.013a1.98 1.98 0 0 0-.069.014l-.02.005a.584.584 0 0 1-.713-.426.596.596 0 0 1 .419-.726l.044-.011c.058-.014.136-.03.232-.045Zm88.542 90.804c.243 0 .439.2.439.446a.444.444 0 0 1-.413.446l-.026.001H.588a.443.443 0 0 1-.439-.447c0-.237.183-.432.413-.445l.026-.001h184.824Z" fill="#2F4077"/></svg>