<svg width="384" height="217" viewBox="0 0 384 217" fill="none" xmlns="http://www.w3.org/2000/svg">
<path fill-rule="evenodd" clip-rule="evenodd" d="M100.295 85.8242C100.713 85.8242 101.051 86.1755 101.051 86.6087C101.051 87.0265 100.736 87.368 100.339 87.3919L100.295 87.3932H72.8362C54.0787 87.3932 38.827 103.016 38.5238 122.395L38.5192 122.984V215.869C38.5192 216.302 38.1806 216.653 37.7628 216.653C37.3599 216.653 37.0306 216.327 37.0076 215.915L37.0063 215.869V122.984C37.0063 102.672 52.7343 86.1575 72.2438 85.8292L72.8362 85.8242H100.295Z" fill="#000091"/>
<path fill-rule="evenodd" clip-rule="evenodd" d="M139.537 133.864C140.065 133.681 140.636 133.976 140.813 134.524L140.965 135.004L141.205 135.776C141.256 135.941 141.308 136.113 141.362 136.29C141.773 137.642 142.183 139.056 142.567 140.464C142.74 141.101 142.904 141.722 143.058 142.326L143.148 142.686C143.751 145.095 144.149 147.092 144.289 148.56C144.344 149.135 143.939 149.647 143.385 149.704C142.831 149.761 142.337 149.341 142.282 148.766C142.158 147.467 141.795 145.629 141.244 143.402L141.196 143.211C141.021 142.511 140.83 141.783 140.626 141.033C140.295 139.82 139.944 138.601 139.59 137.422L139.438 136.919C139.35 136.627 139.265 136.352 139.185 136.095L138.9 135.187C138.723 134.64 139.008 134.047 139.537 133.864Z" fill="#000091"/>
<path fill-rule="evenodd" clip-rule="evenodd" d="M176.754 130.438C177.293 130.471 177.709 130.938 177.703 131.492L177.679 132.004C177.664 132.342 177.648 132.728 177.633 133.158L177.628 133.322C177.471 138.147 177.534 143.595 177.977 148.94C178.025 149.515 177.614 150.022 177.059 150.072C176.504 150.121 176.015 149.695 175.967 149.119C175.53 143.845 175.456 138.487 175.598 133.698L175.623 132.922C175.633 132.655 175.642 132.405 175.652 132.174L175.688 131.421C175.72 130.862 176.17 130.431 176.704 130.437L176.754 130.438Z" fill="#000091"/>
<path fill-rule="evenodd" clip-rule="evenodd" d="M204.356 101.398C204.655 101.095 205.134 101.101 205.426 101.411C205.595 101.59 205.707 101.819 205.814 102.134L205.852 102.25C205.927 102.491 206.003 102.786 206.091 103.177L206.199 103.674C206.297 104.142 206.496 105.11 206.542 105.328C206.922 107.128 207.269 108.508 207.72 109.871C209.376 114.878 211.87 117.635 215.74 117.571C216.158 117.564 216.502 117.91 216.509 118.343C216.515 118.776 216.182 119.133 215.764 119.14C211.084 119.218 208.133 115.956 206.289 110.38C205.835 109.009 205.486 107.636 205.113 105.893L204.683 103.83L204.621 103.548C204.529 103.138 204.454 102.854 204.387 102.656C204.366 102.595 204.347 102.546 204.331 102.509L204.32 102.484C204.315 102.475 204.32 102.482 204.344 102.507C204.052 102.198 204.057 101.701 204.356 101.398Z" fill="#000091"/>
<path fill-rule="evenodd" clip-rule="evenodd" d="M102.967 106.718C98.8322 108.601 92.8816 112.288 88.0908 119.897C94.8483 117.021 118.071 138.569 134.536 133.679C126.896 132.842 110.481 120.342 102.967 106.718Z" fill="#000091"/>
<path fill-rule="evenodd" clip-rule="evenodd" d="M116.057 71.6221C116.434 71.436 116.886 71.6025 117.065 71.9938C117.244 72.3851 117.084 72.8531 116.707 73.0391C107.427 77.6146 102.1 83.2276 100.335 89.6226C98.7894 95.2211 99.9977 101.385 103.571 107.735C103.839 108.212 103.56 108.82 103.034 108.905C100.924 109.247 97.8506 111.118 93.7131 115.078L93.3817 115.397C87.9423 120.677 81.2148 129.03 73.0752 140.957C59.6909 160.548 53.9306 178.766 57.2019 192.071C60.7295 206.419 74.5462 214.628 98.5681 215.058C98.9858 215.066 99.3186 215.423 99.3114 215.856C99.3042 216.289 98.9597 216.634 98.542 216.627C73.9077 216.186 59.4589 207.601 55.7359 192.459C52.3325 178.617 58.2253 159.979 71.8406 140.051L72.3405 139.32C80.3949 127.578 87.0767 119.331 92.5193 114.086L92.6872 113.924C96.3882 110.383 99.3467 108.392 101.662 107.637L101.761 107.605L101.718 107.523C98.4129 101.244 97.3149 95.0766 98.8313 89.3726L98.8806 89.1907C100.778 82.3159 106.414 76.3763 116.057 71.6221Z" fill="#000091"/>
<path fill-rule="evenodd" clip-rule="evenodd" d="M224.063 44.1177C224.427 43.7984 224.977 43.9043 225.209 44.3265L225.235 44.3786L225.385 44.6875C225.504 44.9321 225.649 45.2254 225.821 45.5686L226.15 46.2242C226.668 47.2481 227.295 48.4648 228.037 49.8791C228.152 50.0924 228.261 50.154 228.742 50.2495L228.804 50.2617C229.807 50.4549 230.263 50.6068 230.933 51.1105C231.819 51.7759 232.611 52.8854 233.36 54.5897L233.379 54.6382L233.395 54.6879L249.205 108.949L249.216 108.994L249.36 109.622C251.159 117.519 252.093 123.466 252.208 128.922L252.212 129.137C252.332 136.108 251.019 141.825 247.959 146.425C240.925 157.002 224.819 161.297 197.06 158.678L196.681 158.641L196.656 158.657C196.559 158.714 196.449 158.749 196.331 158.756L196.287 158.757C195.884 158.757 195.555 158.43 195.531 158.019L195.53 157.972V157.816C195.53 157.353 195.914 156.991 196.358 157.035C224.147 159.773 239.998 155.632 246.714 145.534C249.573 141.235 250.814 135.833 250.699 129.165C250.608 123.855 249.711 118.035 247.957 110.286L247.75 109.381L231.962 55.1944L231.924 55.1075C231.316 53.7543 230.715 52.9087 230.105 52.4265L230.046 52.381C229.642 52.0779 229.368 51.9736 228.702 51.8388L228.527 51.8043C227.591 51.6239 227.111 51.3809 226.712 50.6351L226.125 49.5127C225.565 48.435 225.081 47.4908 224.671 46.6755L224.366 46.0665L224.295 45.9239L224.248 45.9595C222.014 47.6404 219.168 48.7219 215.85 49.2959L215.647 49.3304C211.985 49.9375 208.093 49.8977 204.412 49.4675C204.083 49.4291 203.773 49.3891 203.481 49.3484L203.063 49.2876L203.041 49.7069C203.021 50.1021 203.002 50.5509 202.983 51.056L202.944 52.192L202.911 53.3492C202.905 53.5918 202.899 53.8411 202.893 54.0972C202.851 55.8612 202.298 56.8474 200.917 58.2222L200.541 58.5897C199.002 60.0864 198.51 61.0654 198.693 63.2486L198.701 63.331L205.628 101.815C205.725 102.35 205.28 102.817 204.77 102.734L204.727 102.726L185.463 98.4637C185.164 98.3974 184.932 98.1504 184.877 97.8381C184.148 93.7212 182.982 89.5848 181.331 85.7591C179.277 80.9995 176.587 76.9896 173.201 73.9718C172.885 73.6894 172.848 73.1941 173.121 72.8655C173.393 72.5369 173.871 72.4995 174.188 72.7819C177.756 75.9633 180.573 80.161 182.712 85.1181C184.316 88.8349 185.473 92.8224 186.228 96.8077L186.271 97.0383L203.933 100.946L197.204 63.5667L197.198 63.515C197.054 61.962 197.251 60.7188 197.765 59.6652C198.144 58.8879 198.583 58.351 199.409 57.54L199.706 57.2512C200.921 56.0705 201.331 55.4084 201.378 54.1459L201.405 53.0645C201.412 52.8248 201.419 52.5919 201.425 52.3655L201.459 51.3384C201.489 50.4725 201.521 49.7551 201.553 49.174L201.584 48.656L201.61 48.305C201.65 47.8607 202.037 47.5434 202.458 47.599L202.786 47.6564C202.866 47.6698 202.952 47.684 203.046 47.6989C203.496 47.7702 204.01 47.8416 204.581 47.9083C208.138 48.324 211.901 48.3625 215.408 47.781C218.971 47.1902 221.922 45.9984 224.063 44.1177Z" fill="#000091"/>
<path fill-rule="evenodd" clip-rule="evenodd" d="M198.771 192.543C199.174 192.537 199.508 192.858 199.537 193.269L199.539 193.316L199.867 215.674C199.873 216.107 199.54 216.464 199.122 216.47C198.719 216.477 198.385 216.155 198.356 215.744L198.354 215.698L198.026 193.339C198.02 192.906 198.354 192.55 198.771 192.543Z" fill="#000091"/>
<path fill-rule="evenodd" clip-rule="evenodd" d="M194.597 99.6835C191.546 98.376 187.512 97.8791 184.839 97.4346C185.419 100.677 185.57 103.501 185.495 105.41C184.915 119.191 179.72 124.552 178.485 129.625C194.471 123.532 195.706 107.372 194.597 99.6835Z" fill="#000091"/>
<path fill-rule="evenodd" clip-rule="evenodd" d="M170.668 180.201C170.341 183.103 169.685 184.332 163.129 187.837C161.44 188.726 157.91 190.661 153.195 193.119C154.178 205.697 154.733 214.954 154.733 214.954L174.425 215.242C174.425 215.242 173.871 194.217 173.467 172.853C172.307 175.18 170.87 178.449 170.668 180.201Z" fill="#E3E3FD"/>
<path fill-rule="evenodd" clip-rule="evenodd" d="M172.963 131.587C173.215 120.317 169.055 109.255 165.02 101.881C164.365 112.158 162.272 124.082 160.003 127.979C149.413 120.369 141.47 116.002 135.116 112.524C131.107 105.829 127.728 99.841 126.266 95.5001C126.291 94.8464 126.316 94.1664 126.316 93.5127C126.064 93.5388 125.837 93.565 125.635 93.5911C127.4 99.6318 131.208 108.209 139.1 119.715C140.613 121.546 142.1 123.611 143.512 125.887C145.403 128.946 147.118 137.602 148.606 148.376C157.38 147.12 164.163 146.859 165.399 148.794L173.013 150.311C172.736 135.248 172.837 137.759 172.963 131.587Z" fill="#E3E3FD"/>
<path fill-rule="evenodd" clip-rule="evenodd" d="M182.948 168.972C183.357 168.885 183.757 169.159 183.841 169.583C183.922 169.993 183.679 170.393 183.295 170.499L183.251 170.509L171.552 172.994C171.143 173.08 170.743 172.807 170.659 172.382C170.578 171.973 170.821 171.573 171.205 171.467L171.248 171.456L182.948 168.972Z" fill="#000091"/>
<path fill-rule="evenodd" clip-rule="evenodd" d="M174.075 149.23C181.357 146.727 187.566 148.275 192.606 152.859C196.168 156.098 198.871 160.672 200.203 164.59L200.286 164.842C201.526 168.616 203.121 175.935 203.313 178.565L203.476 180.83C203.52 181.442 203.558 181.998 203.595 182.563L203.641 183.28C203.745 184.937 203.824 186.473 203.876 187.937L203.892 188.407C203.981 191.203 203.959 193.518 203.799 195.27L203.777 195.508C203.533 197.937 203.042 199.26 201.855 199.341C200.581 199.422 199.613 197.796 198.461 194.66C197.699 192.588 196.935 189.968 196.286 187.38C196.181 186.961 196.423 186.532 196.828 186.423C197.232 186.314 197.645 186.566 197.75 186.985C198.386 189.523 199.136 192.092 199.874 194.101L199.987 194.402C200.397 195.487 200.789 196.356 201.151 196.964C201.332 197.269 201.5 197.498 201.644 197.643L201.694 197.691L201.731 197.723L201.749 197.693C201.791 197.621 201.836 197.523 201.881 197.402L201.903 197.339C202.072 196.846 202.204 196.095 202.293 195.122C202.454 193.356 202.469 190.939 202.364 187.995L202.34 187.369C202.29 186.109 202.219 184.79 202.131 183.381L202.085 182.669C202.058 182.248 202.03 181.831 201.999 181.392L201.798 178.592C201.581 175.971 199.97 168.636 198.775 165.111C197.525 161.429 194.955 157.082 191.609 154.039C186.91 149.766 181.187 148.369 174.342 150.792L174.31 150.802L174.277 150.811L162.805 153.714C162.399 153.817 161.989 153.559 161.89 153.138C161.795 152.732 162.023 152.323 162.403 152.202L162.446 152.19L173.887 149.295L174.075 149.23Z" fill="#000091"/>
<path fill-rule="evenodd" clip-rule="evenodd" d="M182.977 166.578C183.018 166.147 183.388 165.832 183.804 165.874C184.219 165.916 184.523 166.3 184.483 166.731L184.468 166.88C184.446 167.083 184.418 167.305 184.382 167.565L184.291 168.179C184.234 168.553 184.127 169.242 184.098 169.44L184.041 169.82C183.816 171.372 183.703 172.539 183.694 173.704C183.679 175.555 183.959 177.08 184.594 178.28C184.796 178.66 184.662 179.137 184.296 179.345C183.929 179.554 183.47 179.415 183.268 179.035C182.491 177.567 182.165 175.788 182.181 173.691C182.191 172.389 182.319 171.111 182.573 169.397L182.826 167.744L182.884 167.347C182.926 167.042 182.956 166.795 182.977 166.578Z" fill="#000091"/>
<path fill-rule="evenodd" clip-rule="evenodd" d="M199.199 177.643C199.599 177.692 199.889 178.056 199.866 178.468L199.86 178.532L199.845 178.655C199.831 178.766 199.814 178.895 199.795 179.04L199.75 179.357C199.703 179.683 199.649 180.033 199.587 180.403C199.351 181.814 199.053 183.225 198.687 184.548L198.606 184.835C197.613 188.303 196.335 190.523 194.514 190.955C192.5 191.432 191.097 190.838 190.348 189.54C190.156 189.206 190.024 188.853 189.941 188.501C189.891 188.286 189.866 188.111 189.859 187.994C189.83 187.562 190.145 187.188 190.562 187.158C190.964 187.13 191.314 187.433 191.364 187.842L191.368 187.888C191.37 187.92 191.382 188.007 191.411 188.128C191.46 188.337 191.538 188.545 191.647 188.735C192.054 189.441 192.792 189.753 194.177 189.425C195.288 189.162 196.38 187.199 197.233 184.115C197.582 182.852 197.869 181.494 198.096 180.135L198.154 179.784C198.2 179.497 198.24 179.225 198.276 178.971L198.318 178.662L198.359 178.331C198.408 177.901 198.784 177.593 199.199 177.643Z" fill="#000091"/>
<path fill-rule="evenodd" clip-rule="evenodd" d="M195.026 177.261C195.435 177.348 195.699 177.762 195.616 178.186L195.591 178.311C195.57 178.408 195.546 178.52 195.518 178.646C195.438 179.004 195.343 179.402 195.232 179.831C194.916 181.056 194.538 182.282 194.099 183.432L193.991 183.708C192.784 186.766 191.354 188.709 189.519 189.004C187.532 189.323 186.186 188.675 185.503 187.387C185.31 187.025 185.189 186.643 185.122 186.263C185.081 186.031 185.066 185.843 185.066 185.718C185.066 185.285 185.405 184.933 185.823 184.933C186.226 184.933 186.555 185.26 186.578 185.672L186.58 185.75C186.583 185.798 186.592 185.878 186.61 185.98C186.649 186.204 186.721 186.428 186.828 186.631C187.198 187.328 187.916 187.673 189.287 187.453C190.447 187.267 191.653 185.573 192.692 182.853C193.108 181.766 193.468 180.596 193.771 179.424L193.848 179.122C193.909 178.876 193.965 178.641 194.015 178.422L194.074 178.157L194.134 177.873C194.217 177.449 194.617 177.175 195.026 177.261Z" fill="#000091"/>
<path fill-rule="evenodd" clip-rule="evenodd" d="M179.611 176.914C181.193 175.53 183.248 176.11 185.279 179.47C185.501 179.837 185.394 180.321 185.04 180.551C184.686 180.781 184.219 180.67 183.997 180.303C183.087 178.797 182.279 178.04 181.616 177.853C181.221 177.741 180.891 177.846 180.586 178.113C180.529 178.163 180.48 178.213 180.438 178.258L180.417 178.282L180.419 178.312C180.422 178.36 180.428 178.414 180.436 178.475L180.445 178.539C180.494 178.855 180.598 179.23 180.773 179.665C181.27 180.903 182.232 182.377 183.777 184.082C184.575 184.962 185.143 185.017 185.791 184.47C186.453 183.911 187.115 182.77 187.718 181.235C188.056 180.373 188.355 179.444 188.609 178.514L188.683 178.241C188.73 178.063 188.773 177.893 188.812 177.733L188.872 177.482L188.917 177.284C189.008 176.861 189.412 176.595 189.82 176.688C190.213 176.779 190.466 177.172 190.402 177.579L190.391 177.638L190.343 177.851C190.332 177.896 190.321 177.943 190.309 177.994L190.247 178.247C190.193 178.465 190.132 178.697 190.065 178.942C189.796 179.924 189.481 180.905 189.119 181.827C188.428 183.586 187.654 184.92 186.746 185.686C185.469 186.764 184.005 186.624 182.675 185.157C181.011 183.321 179.948 181.692 179.376 180.269C178.996 179.322 178.872 178.575 178.907 178.04L178.912 177.979C178.916 177.931 178.921 177.891 178.927 177.86C178.944 177.763 178.979 177.67 179.03 177.586C179.142 177.401 179.334 177.157 179.611 176.914Z" fill="#000091"/>
<path fill-rule="evenodd" clip-rule="evenodd" d="M170.82 178.37C161.894 170.865 158.893 151.984 162.65 147.852C162.802 146.545 165.701 148.742 167.441 148.951C171.652 149.448 173.467 149.578 173.467 149.578C171.753 155.018 173.669 161.607 175.611 166.288C176.745 169.086 177.93 171.283 178.51 172.303C178.182 172.486 176.821 173.166 173.593 174.63C171.753 175.493 171.375 176.931 170.82 178.37Z" fill="#000091"/>
<path fill-rule="evenodd" clip-rule="evenodd" d="M100.056 149.253C102.76 148.318 106.351 147.768 109.506 148.065C113.881 148.476 117.174 150.422 118.764 154.208C118.931 154.605 118.756 155.067 118.373 155.24C117.99 155.413 117.544 155.232 117.378 154.834C116.036 151.643 113.242 149.992 109.37 149.628C106.44 149.352 103.053 149.87 100.534 150.741C100.138 150.878 99.7092 150.656 99.5771 150.245C99.445 149.834 99.6592 149.39 100.056 149.253Z" fill="#000091"/>
<path fill-rule="evenodd" clip-rule="evenodd" d="M132.801 150.396C152.327 146.395 164.056 145.259 166.03 148.362C166.045 148.386 166.059 148.41 166.072 148.436L166.089 148.474L175.368 170.022C175.458 170.231 175.456 170.469 175.363 170.674L175.334 170.731L175.169 171.046L175.048 171.281C174.944 171.483 174.832 171.702 174.714 171.936C174.243 172.871 173.772 173.847 173.333 174.814C173.111 175.303 172.903 175.778 172.711 176.235C171.982 177.969 171.518 179.364 171.403 180.245L171.395 180.318C171.006 183.763 169.783 185.146 163.821 188.361L163.226 188.681C161.89 189.413 156.139 192.622 153.691 193.957C147.957 197.086 142.454 199.944 136.842 202.652C130.378 205.771 124.182 208.485 118.303 210.717C110.673 213.614 103.767 215.627 97.7148 216.618C97.3021 216.685 96.9148 216.393 96.8497 215.965C96.7846 215.537 97.0663 215.135 97.479 215.068C103.422 214.095 110.238 212.109 117.782 209.244C123.618 207.028 129.776 204.331 136.204 201.23C141.549 198.651 146.796 195.933 152.243 192.974L153.591 192.238C156.484 190.65 162.116 187.507 162.758 187.165L163.274 186.888C168.581 184.02 169.538 182.974 169.872 180.307L169.892 180.136C170.012 179.061 170.518 177.525 171.324 175.608C171.522 175.137 171.737 174.648 171.965 174.146C172.413 173.158 172.893 172.163 173.373 171.21L173.582 170.797L173.834 170.307L164.738 149.183L164.724 149.164C163.97 148.195 160.365 147.894 154.609 148.426L154.252 148.46C148.792 148.989 141.598 150.193 133.094 151.936C130.18 152.533 127.149 153.186 124.029 153.886C118.765 155.067 113.483 156.327 108.409 157.592L106.841 157.985C105.308 158.371 103.893 158.733 102.616 159.064L101.758 159.286L100.483 159.622C100.078 159.729 99.6661 159.477 99.5622 159.057C99.4619 158.652 99.685 158.24 100.064 158.115L100.122 158.098L101.995 157.607L103.575 157.2C104.58 156.942 105.655 156.669 106.793 156.383L107.105 156.305C112.478 154.957 118.103 153.61 123.709 152.352C126.838 151.65 129.877 150.995 132.801 150.396Z" fill="#000091"/>
<path fill-rule="evenodd" clip-rule="evenodd" d="M126.725 80.1504L126.769 80.1505C127.187 80.1644 127.514 80.5267 127.501 80.9598L127.069 94.7947L127.052 95.3779L127.083 95.4687C128.354 99.1303 130.924 103.973 135.5 111.635L135.676 111.929L136.88 112.591C145.555 117.37 151.339 120.876 158.953 126.261L159.761 126.835L159.819 126.708C161.719 122.482 163.577 112.227 164.25 102.447L164.291 101.829C164.319 101.397 164.679 101.069 165.096 101.098C165.513 101.127 165.828 101.5 165.801 101.933C165.102 112.888 162.926 124.52 160.676 128.384C160.45 128.771 159.957 128.881 159.598 128.624L159 128.196C150.582 122.193 144.553 118.563 134.788 113.218C134.67 113.153 134.57 113.056 134.499 112.938L133.779 111.731C129.322 104.233 126.828 99.4732 125.577 95.759C125.546 95.668 125.532 95.5719 125.535 95.4755L125.989 80.9095C126.002 80.4919 126.327 80.161 126.725 80.1504Z" fill="#000091"/>
<path fill-rule="evenodd" clip-rule="evenodd" d="M123.447 60.9849C123.863 60.9446 124.232 61.2617 124.271 61.6931C124.309 62.1245 124.004 62.5068 123.588 62.5471C121.96 62.7047 120.269 63.1843 118.923 64.1367C116.997 65.4994 116.156 67.6016 116.771 70.7659C117.256 73.3027 118.504 74.6777 120.402 75.19C121.922 75.6003 123.786 75.4369 125.761 74.8695C126.164 74.7539 126.581 74.9986 126.692 75.4162C126.804 75.8337 126.568 76.266 126.165 76.3816C123.956 77.016 121.846 77.201 120.021 76.7084C117.561 76.0444 115.885 74.1977 115.287 71.0734C114.553 67.2893 115.645 64.5563 118.07 62.8406C119.67 61.7087 121.587 61.1649 123.447 60.9849Z" fill="#000091"/>
<path fill-rule="evenodd" clip-rule="evenodd" d="M173.446 46.3963C173.86 46.3404 174.239 46.6433 174.293 47.0729C175.49 56.6022 175.246 67.5958 173.966 77.8704C173.912 78.3001 173.533 78.6034 173.119 78.5479C172.704 78.4924 172.412 78.099 172.465 77.6693C173.73 67.5191 173.971 56.6566 172.793 47.2755C172.739 46.8459 173.031 46.4523 173.446 46.3963Z" fill="#000091"/>
<path fill-rule="evenodd" clip-rule="evenodd" d="M172.465 77.6414C172.52 77.2118 172.9 76.9093 173.314 76.9658C173.728 77.0222 174.02 77.4162 173.965 77.8458L173.86 78.6642C173.444 81.8184 172.98 84.6322 172.517 86.8281C172.428 87.2514 172.025 87.5196 171.617 87.4272C171.209 87.3348 170.95 86.9167 171.039 86.4934L171.117 86.1183C171.583 83.8318 172.052 80.9048 172.465 77.6414Z" fill="#000091"/>
<path fill-rule="evenodd" clip-rule="evenodd" d="M129.035 62.8663L123.488 63.2847C123.045 63.3181 122.728 63.7369 122.795 64.1858L122.819 64.3066L123.439 67.2922L123.66 68.3454C124.222 71.0196 124.791 73.6937 125.344 76.2343L125.672 77.7404L126.076 79.5675C127.057 83.987 127.836 87.2715 128.348 89.0819L128.416 89.3196C130.198 95.469 131.746 97.7081 137.953 102.334C141.504 104.981 146.887 106.764 152.081 106.93C158.02 107.12 163.164 105.25 166.431 101.236C168.497 98.6889 170.124 95.3224 171.372 91.3343C172.379 88.12 173.085 84.6844 173.546 81.25C173.707 80.0486 173.826 78.9327 173.909 77.9301L173.929 77.6736C173.939 77.549 173.948 77.4301 173.956 77.3169L173.981 76.9257L173.996 76.6554C174.012 76.2953 173.79 75.9702 173.456 75.8673C171.966 75.4071 169.51 75.0839 166.429 74.8632C165.502 74.7968 164.57 74.7439 163.665 74.7027L163.214 74.6832C162.892 74.6698 162.591 74.6587 162.315 74.6496L161.709 74.632L161.681 74.6319C155.197 74.7328 149.07 75.4721 143.467 76.642C141.444 77.0646 139.624 77.5163 138.03 77.9697L137.648 78.0797C137.34 78.1695 137.053 78.2558 136.788 78.3378L136.523 78.4207L136.507 78.3613C135.154 73.5572 131.254 64.8101 129.629 63.0984C129.473 62.9345 129.256 62.8496 129.035 62.8663ZM128.769 64.4594L128.796 64.4944C130.464 66.7216 134.302 75.5401 135.264 79.6044C135.367 80.0368 135.793 80.2911 136.201 80.1733L136.575 80.0473L136.739 79.9937C137.155 79.859 137.646 79.7085 138.209 79.5461L138.655 79.4193C140.162 78.9965 141.872 78.5756 143.766 78.1801L144.143 78.1022C149.43 77.0213 155.188 76.3305 161.269 76.2085L161.685 76.2009L162.134 76.2135C162.441 76.2232 162.783 76.2355 163.154 76.2509C164.186 76.2937 165.259 76.3522 166.325 76.4285L166.878 76.4698C169.131 76.6453 171.009 76.8816 172.305 77.1803L172.446 77.2136L172.421 77.5476C172.415 77.6279 172.408 77.7106 172.401 77.7958L172.361 78.2542C172.284 79.109 172.18 80.0413 172.047 81.0339C171.598 84.3836 170.91 87.7321 169.933 90.8496C168.74 94.661 167.197 97.8538 165.274 100.225C162.34 103.83 157.642 105.539 152.128 105.362C147.225 105.205 142.135 103.519 138.836 101.06L138.485 100.798C132.96 96.6422 131.573 94.6506 129.966 89.2115L129.821 88.7143C129.291 86.8581 128.444 83.2665 127.37 78.4014L127.073 77.0497L126.819 75.889C126.395 73.9379 125.961 71.9075 125.527 69.8587L124.864 66.7053L124.464 64.7842L128.769 64.4594Z" fill="#000091"/>
<path fill-rule="evenodd" clip-rule="evenodd" d="M157.532 89.1454C157.532 89.1454 161.642 88.2825 163.331 90.0084L157.532 89.1454Z" fill="white"/>
<path fill-rule="evenodd" clip-rule="evenodd" d="M158.106 88.2595C159.02 88.1397 159.967 88.1028 160.866 88.2005C162.121 88.3368 163.15 88.7222 163.862 89.4497C164.16 89.7538 164.163 90.2505 163.87 90.5592C163.577 90.8678 163.098 90.8716 162.8 90.5675C162.376 90.1342 161.654 89.8636 160.709 89.761C159.941 89.6776 159.104 89.7102 158.295 89.8161C158.16 89.8339 158.034 89.8526 157.921 89.8714L157.716 89.9078C157.701 89.9106 157.69 89.9129 157.682 89.9146C157.273 90.0006 156.873 89.726 156.791 89.3013C156.708 88.8767 156.972 88.4627 157.382 88.3768L157.545 88.3452C157.689 88.3194 157.878 88.2893 158.106 88.2595Z" fill="#000091"/>
<path fill-rule="evenodd" clip-rule="evenodd" d="M162.691 68.5177C163.092 68.4707 163.454 68.7569 163.522 69.1634L163.528 69.209L165.041 83.0686C165.099 83.5998 164.64 84.0294 164.143 83.9266L164.1 83.9165L159.41 82.6612C159.006 82.553 158.763 82.1251 158.867 81.7056C158.968 81.3011 159.355 81.052 159.745 81.1318L159.788 81.142L163.414 82.1124L162.025 69.3855C161.979 68.9704 162.255 68.5943 162.647 68.5243L162.691 68.5177Z" fill="#000091"/>
<path fill-rule="evenodd" clip-rule="evenodd" d="M167.693 73.0631C168.445 73.0631 169.055 72.0797 169.055 70.8665C169.055 69.6534 168.445 68.6699 167.693 68.6699C166.941 68.6699 166.332 69.6534 166.332 70.8665C166.332 72.0797 166.941 73.0631 167.693 73.0631Z" fill="#000091"/>
<path fill-rule="evenodd" clip-rule="evenodd" d="M154.532 72.8014C155.283 72.8014 155.893 71.818 155.893 70.6048C155.893 69.3917 155.283 68.4082 154.532 68.4082C153.78 68.4082 153.17 69.3917 153.17 70.6048C153.17 71.818 153.78 72.8014 154.532 72.8014Z" fill="#000091"/>
<path fill-rule="evenodd" clip-rule="evenodd" d="M149.408 57.2632C150.847 56.1704 152.604 55.6278 154.643 55.9437C155.056 56.0077 155.341 56.4069 155.28 56.8355C155.218 57.264 154.833 57.5595 154.42 57.4955C152.803 57.245 151.437 57.6668 150.302 58.529C149.982 58.772 149.707 59.0322 149.477 59.2906L149.404 59.3753C149.336 59.455 149.285 59.5191 149.253 59.5633L149.226 59.6007C148.987 59.9559 148.516 60.0428 148.173 59.7948C147.831 59.5467 147.747 59.0576 147.986 58.7024C148.057 58.5963 148.183 58.4316 148.364 58.2279C148.657 57.8978 149.005 57.5695 149.408 57.2632Z" fill="#000091"/>
<path fill-rule="evenodd" clip-rule="evenodd" d="M167.35 55.6577C168.127 55.5315 168.953 55.5274 169.749 55.7315C171.092 56.0758 172.102 56.9678 172.551 58.4746C172.675 58.8886 172.451 59.3278 172.052 59.4557C171.653 59.5836 171.229 59.3517 171.106 58.9377C170.823 57.9884 170.24 57.4735 169.386 57.2546C168.814 57.108 168.179 57.1112 167.584 57.2078L167.49 57.2239C167.417 57.237 167.36 57.2492 167.319 57.2587L167.279 57.2688C166.874 57.3778 166.461 57.1263 166.356 56.707C166.251 56.2876 166.493 55.8593 166.898 55.7503C166.992 55.7249 167.147 55.6907 167.35 55.6577Z" fill="#000091"/>
<path fill-rule="evenodd" clip-rule="evenodd" d="M182.242 44.9254C181.914 43.9056 182.292 42.6765 182.973 41.4475L182.797 41.2383L181.939 43.7225C181.939 43.7225 179.267 44.9254 178.384 41.369C178.107 40.2707 178.737 38.9632 179.72 37.6557L179.695 37.6296C175.989 38.5187 168.702 39.9831 168.046 38.4664C167.113 36.322 180.225 30.6213 184.234 28.817C186.276 27.8756 193.362 25.862 197.194 25.2867C198.757 25.0513 201.581 24.8421 204.809 25.1821C205.086 22.8286 204.708 20.4489 203.498 18.1477C202.262 15.7681 199.665 12.2639 197.371 10.9826C174.602 -1.54333 163.508 19.6121 163.508 19.6121C163.508 19.6121 160.305 10.5119 149.917 10.1981C145.681 10.0673 141.546 11.7932 138.545 14.9051C130.048 23.7438 135.721 33.7332 135.721 33.7332C135.721 33.7332 131.762 31.6412 126.417 34.3085C120.038 37.4988 116.835 45.0039 118.5 52.1429C120.265 59.7264 123.517 66.9438 123.517 66.9438C144.244 70.2649 149.539 49.1618 146.488 46.4421C151.077 49.9724 159.347 52.3259 173.341 50.8615C176.543 50.5216 180.477 49.2141 184.486 47.2266C183.679 47.1482 182.797 46.6252 182.242 44.9254Z" fill="#000091"/>
<path fill-rule="evenodd" clip-rule="evenodd" d="M201.475 42.1504C201.866 42.0494 202.261 42.2838 202.38 42.6776L202.392 42.7221L205.503 55.6813L223.455 50.1614C223.841 50.0427 224.246 50.2587 224.381 50.6468L224.395 50.6906C224.51 51.0911 224.301 51.5114 223.927 51.6513L223.885 51.6657L205.176 57.4187C204.777 57.5414 204.36 57.307 204.239 56.9004L204.227 56.8562L200.923 43.1012C200.823 42.6808 201.069 42.2551 201.475 42.1504Z" fill="#000091"/>
<path fill-rule="evenodd" clip-rule="evenodd" d="M197.084 24.5103C201.115 23.8949 206.521 24.1414 211.156 25.7383C217.827 28.0367 222.284 32.8062 223.499 40.4669L223.528 40.6562L226.191 50.9722C226.293 51.3678 226.084 51.7753 225.718 51.9127L225.675 51.9273L207.873 57.3927C207.473 57.5157 207.052 57.2786 206.933 56.8632C206.819 56.4625 207.027 56.0424 207.402 55.9026L207.444 55.8882L224.539 50.6395L222.056 41.0225C222.053 41.0088 222.05 40.995 222.047 40.9812L222.04 40.9394C220.971 33.7652 216.91 29.374 210.679 27.2273C206.365 25.741 201.288 25.4884 197.492 26.0349L197.303 26.0629C193.787 26.5906 186.815 28.5139 184.606 29.5041L182.085 30.6359C181.816 30.7572 181.556 30.8751 181.294 30.9946L180.682 31.2742C179.373 31.8751 178.164 32.4453 177.012 33.0092C175.974 33.5176 175.014 34.0061 174.136 34.4743L173.806 34.6513C172.127 35.5594 170.808 36.3686 169.913 37.0557C169.419 37.4352 169.068 37.7672 168.878 38.0303C168.86 38.0555 168.844 38.0791 168.83 38.1011L168.801 38.1479L168.846 38.1664C169.032 38.2378 169.313 38.2907 169.676 38.3178C170.407 38.3722 171.413 38.3197 172.639 38.1707C174.65 37.9263 177.139 37.4374 179.525 36.865C179.932 36.7674 180.338 37.0304 180.433 37.4525C180.527 37.8747 180.273 38.296 179.866 38.3937C177.52 38.9563 175.079 39.4397 173.047 39.7L172.815 39.7291C169.669 40.1114 167.871 39.9774 167.357 38.7888C166.671 37.212 168.756 35.5904 173.305 33.1532L173.444 33.0791C174.338 32.6022 175.314 32.106 176.366 31.5904L176.907 31.3269C177.998 30.7988 179.143 30.2629 180.375 29.6995L181.644 29.1239L184.081 28.0307C186.497 26.9731 193.483 25.0509 197.084 24.5103Z" fill="#000091"/>
<path fill-rule="evenodd" clip-rule="evenodd" d="M206.286 39.6146C206.636 39.3773 207.105 39.4787 207.333 39.8412C207.562 40.2037 207.464 40.6899 207.115 40.9273C205.871 41.772 203.222 43.1317 200.672 44.1926C197.413 45.5485 194.594 46.3359 192.662 46.2852C192.244 46.2742 191.914 45.9142 191.925 45.4811C191.936 45.048 192.283 44.7057 192.7 44.7167C194.37 44.7605 197.029 44.0178 200.109 42.7364L200.528 42.5597C202.859 41.5639 205.201 40.3512 206.286 39.6146Z" fill="#000091"/>
<path fill-rule="evenodd" clip-rule="evenodd" d="M186.675 31.3565C186.91 31.7145 186.821 32.2026 186.475 32.4466L186.26 32.6027L186.157 32.6786C185.898 32.87 185.609 33.0896 185.298 33.3336C184.409 34.0309 183.52 34.7831 182.693 35.5601C181.662 36.5279 180.804 37.4642 180.176 38.3342C179.308 39.5375 178.95 40.5273 179.117 41.1985C179.379 42.248 179.797 42.8011 180.317 43.0285C180.675 43.1852 181.082 43.1849 181.468 43.0828C181.505 43.0728 181.54 43.0626 181.571 43.0524L181.644 43.0267C182.029 42.8574 182.473 43.0435 182.636 43.4423C182.799 43.8411 182.62 44.3017 182.235 44.471C182.148 44.5093 182.014 44.5575 181.841 44.6032C181.163 44.7825 180.434 44.7832 179.728 44.474C178.748 44.045 178.027 43.0909 177.652 41.5909C177.342 40.3417 177.848 38.9422 178.965 37.3944C179.658 36.4327 180.58 35.4272 181.677 34.3971C182.541 33.5861 183.463 32.8055 184.386 32.0821L184.623 31.897C184.779 31.7768 184.928 31.6631 185.07 31.5563L185.387 31.3212L185.624 31.15C185.969 30.906 186.439 30.9984 186.675 31.3565Z" fill="#000091"/>
<path fill-rule="evenodd" clip-rule="evenodd" d="M188.854 34.9103C189.108 35.2329 189.074 35.7023 188.783 35.9816L188.74 36.0203L188.597 36.1444L188.496 36.2332C188.292 36.4149 188.063 36.6237 187.816 36.8559C187.112 37.5198 186.408 38.2372 185.752 38.9796C184.903 39.9416 184.202 40.8724 183.7 41.7362C182.983 42.972 182.731 43.9798 182.958 44.6721C183.265 45.6056 183.674 46.1216 184.147 46.3458C184.53 46.5276 184.963 46.5171 185.383 46.3802L185.461 46.3533C185.52 46.3319 185.563 46.3132 185.588 46.3013L185.6 46.295C185.971 46.0952 186.427 46.2449 186.62 46.6294C186.813 47.0138 186.668 47.4875 186.297 47.6872C186.197 47.7415 186.04 47.8107 185.837 47.877C185.091 48.1201 184.29 48.1395 183.517 47.7725C182.641 47.3568 181.96 46.498 181.526 45.1784C181.122 43.9479 181.48 42.5204 182.404 40.9271C182.964 39.9623 183.724 38.953 184.636 37.9201C185.326 37.1391 186.062 36.3888 186.799 35.6947L187.015 35.4924C187.157 35.3616 187.291 35.2389 187.418 35.1251L187.568 34.9923L187.79 34.799C188.113 34.5249 188.59 34.5747 188.854 34.9103Z" fill="#000091"/>
<path fill-rule="evenodd" clip-rule="evenodd" d="M190.63 39.2003C190.95 38.921 191.427 38.9633 191.696 39.2946C191.965 39.6259 191.925 40.1208 191.605 40.4L191.475 40.5166L191.408 40.577C191.247 40.7245 191.067 40.8939 190.872 41.0821C190.317 41.6201 189.761 42.1999 189.244 42.7972C188.622 43.5166 188.1 44.2114 187.714 44.8564L187.623 45.0116C186.637 46.7194 186.778 47.6103 188.269 48.0399C191.21 48.8871 193.181 48.9253 194.36 48.5172C194.438 48.4903 194.505 48.4633 194.563 48.4368L194.592 48.4234L194.601 48.3991C194.705 48.1001 194.726 47.8015 194.631 47.5407L194.609 47.4855C194.331 46.8496 193.338 46.3406 191.287 46.1785C190.871 46.1456 190.559 45.7687 190.59 45.3366C190.622 44.9046 190.986 44.5811 191.402 44.614C193.946 44.8152 195.437 45.5788 195.987 46.8375C196.294 47.5394 196.258 48.2615 196.024 48.932C195.956 49.1279 195.885 49.2792 195.828 49.3783C195.782 49.4595 195.722 49.5314 195.651 49.5905C195.496 49.7192 195.23 49.8701 194.839 50.0056C193.349 50.5211 191.077 50.4771 187.864 49.5517C185.126 48.763 184.887 46.6025 186.429 44.0284C186.868 43.2962 187.441 42.532 188.118 41.7495C188.667 41.1145 189.254 40.5027 189.84 39.9351L190.04 39.743C190.105 39.6811 190.169 39.6216 190.23 39.5644L190.513 39.3047C190.564 39.2584 190.604 39.2233 190.63 39.2003Z" fill="#000091"/>
<path fill-rule="evenodd" clip-rule="evenodd" d="M199.842 58.1568C203.422 63.073 227.653 59.3597 231.637 53.0052C229.721 50.2856 228.208 51.8284 227.351 50.2333C225.334 46.3892 224.527 44.6895 224.527 44.6895C220.316 48.4028 213.71 49.0565 208.793 48.9519C205.868 48.9258 203.447 48.612 202.313 48.4551C202.288 48.8473 202.187 50.4163 202.086 54.0512C202.061 56.1694 200.926 57.1108 199.842 58.1568Z" fill="#000091"/>
<path fill-rule="evenodd" clip-rule="evenodd" d="M332.142 142.832H234.108C232.822 142.832 231.713 143.747 231.41 145.055L217.769 204.886H182.242C182.242 204.886 180.275 215.425 191.748 215.425H316.913C318.199 215.425 319.308 214.51 319.611 213.202L334.84 146.362C335.244 144.558 333.933 142.832 332.142 142.832Z" fill="#000091"/>
<path fill-rule="evenodd" clip-rule="evenodd" d="M324.048 168.25C317.845 168.25 312.979 162.758 313.483 156.352C313.861 151.618 313.912 148.69 314.391 146.493C315.047 143.46 320.669 139.302 327.25 134.281C330.705 131.666 333.1 129.208 334.437 126.933C335.773 124.658 336.454 121.86 336.454 118.512C336.454 114.381 335.193 111.112 332.646 108.732C330.125 106.352 327.049 105.176 323.443 105.176C316.282 105.176 311.491 109.098 309.02 116.969C307.381 122.199 302.313 125.39 297.069 124.631C290.084 123.612 285.924 116.08 288.521 109.281C290.866 103.136 294.219 98.1152 298.581 94.1927C305.818 87.7075 314.694 84.4648 325.132 84.4648C335.798 84.4648 344.749 87.6552 351.961 94.0096C359.172 100.39 362.803 108.471 362.803 118.251C362.803 130.384 356.802 140.531 344.774 148.69C339.555 152.272 336.378 155.07 335.269 157.084C334.89 157.764 334.588 158.627 334.336 159.699C333.226 164.693 328.99 168.25 324.048 168.25ZM325.485 201.016H324.527C317.795 201.016 312.323 195.341 312.323 188.359C312.323 181.377 317.795 175.703 324.527 175.703H325.485C332.218 175.703 337.689 181.377 337.689 188.359C337.689 195.368 332.243 201.016 325.485 201.016Z" fill="#E3E3FD"/>
<path fill-rule="evenodd" clip-rule="evenodd" d="M75.0297 61.1648C73.6429 61.7924 72.0544 61.0602 71.5753 59.5697C71.2223 58.4714 70.9701 57.8176 70.8693 57.2946C70.7432 56.5624 71.6005 55.0719 72.5839 53.2936C73.1134 52.3784 73.4159 51.5939 73.4916 50.9401C73.5924 50.3125 73.4664 49.6065 73.1638 48.8743C72.7856 47.959 72.2056 47.3576 71.424 47.0961C70.6423 46.8084 69.8607 46.8607 69.0538 47.2268C67.4653 47.9329 66.7593 49.2927 66.9358 51.2801C67.0619 52.6137 66.2298 53.8167 64.9943 54.1828C63.3553 54.6535 61.7164 53.3982 61.666 51.62C61.6155 50.0249 61.8929 48.5605 62.4981 47.253C63.5066 45.0825 65.1708 43.4874 67.4905 42.4413C69.8607 41.3692 72.13 41.1861 74.3489 41.8922C76.5425 42.5982 78.1058 44.0104 79.0136 46.1808C80.1482 48.8743 79.7448 51.7246 77.8285 54.7319C76.9964 56.0394 76.5678 56.9808 76.4921 57.53C76.4669 57.713 76.4921 57.9484 76.5173 58.2099C76.7443 59.4651 76.1391 60.668 75.0297 61.1648ZM78.3832 68.3038L78.1563 68.4084C76.6686 69.0883 74.9288 68.3561 74.2732 66.8133C73.6177 65.2704 74.3237 63.466 75.8113 62.7861L76.0382 62.6815C77.5259 62.0016 79.2657 62.7338 79.9213 64.2767C80.5769 65.8196 79.8961 67.6239 78.3832 68.3038Z" fill="#E3E3FD"/>
<path fill-rule="evenodd" clip-rule="evenodd" d="M88.444 27.6926C86.4016 27.588 84.8888 25.679 85.1661 23.587C85.3678 22.0442 85.4435 21.0766 85.6452 20.3444C85.9226 19.3507 87.8389 18.0955 90.1082 16.5526C91.2932 15.742 92.1253 14.9836 92.6044 14.2776C93.0835 13.5454 93.3608 12.6563 93.4113 11.5318C93.4869 10.172 93.1339 9.0737 92.327 8.2369C91.5454 7.40009 90.5368 6.95554 89.3517 6.87709C86.9816 6.74634 85.3426 7.94925 84.3845 10.4858C83.7541 12.1856 82.0143 13.127 80.2997 12.787C78.0304 12.3163 76.7697 9.75361 77.753 7.557C78.6356 5.56959 79.8206 3.97443 81.3335 2.77152C83.8297 0.784115 86.8051 -0.13114 90.2595 0.0780612C93.7643 0.287262 96.6639 1.49017 98.9332 3.73908C101.203 5.98799 102.262 8.7076 102.085 11.9241C101.883 15.925 99.7149 19.1415 95.6049 21.6258C93.8147 22.6979 92.7305 23.5609 92.327 24.2146C92.201 24.4238 92.0749 24.7115 91.974 25.0514C91.5454 26.6989 90.0829 27.771 88.444 27.6926ZM88.3431 38.5187L88.0154 38.4926C85.7965 38.3618 84.0819 36.4006 84.208 34.0994C84.334 31.7982 86.2251 30.0199 88.444 30.1507L88.7718 30.1768C90.9907 30.3076 92.7053 32.2689 92.5792 34.5701C92.4783 36.8713 90.562 38.6495 88.3431 38.5187Z" fill="#E3E3FD"/>
<path fill-rule="evenodd" clip-rule="evenodd" d="M382.798 215.032C383.216 215.032 383.555 215.383 383.555 215.817C383.555 216.235 383.24 216.576 382.843 216.6L382.798 216.601H1.17636C0.75859 216.601 0.419922 216.25 0.419922 215.817C0.419922 215.399 0.734831 215.057 1.13191 215.034L1.17636 215.032H382.798Z" fill="#000091"/>
</svg>
