<svg width="149" height="54" viewBox="0 0 149 54" fill="none" xmlns="http://www.w3.org/2000/svg">
<path d="M0 0H33V12H0V0Z" fill="white"/>
<path d="M10.656 10.55C10.66 10.55 10.664 10.544 10.664 10.544C10.6984 10.5188 10.7293 10.4892 10.756 10.456C10.752 10.456 10.748 10.456 10.744 10.45C10.716 10.48 10.684 10.515 10.656 10.55ZM15.07 9.063L15 9.123C15.04 9.113 15.07 9.103 15.07 9.063Z" fill="#000091"/>
<path fill-rule="evenodd" clip-rule="evenodd" d="M13.643 10.582C13.77 10.453 13.898 10.317 14.026 10.177H14.022C14.262 9.904 14.495 9.643 14.774 9.405C14.859 9.327 14.94 9.261 15.018 9.206C15.029 9.195 15.035 9.178 15.041 9.161C15.047 9.144 15.052 9.127 15.064 9.117C15.009 9.137 14.965 9.171 14.921 9.205C14.8756 9.24283 14.8247 9.27351 14.77 9.296C14.747 9.296 14.723 9.273 14.747 9.249C14.827 9.191 14.909 9.129 14.987 9.066H14.971C14.948 9.066 14.948 9.043 14.948 9.019C14.66 8.974 14.438 9.171 14.24 9.347L14.228 9.358C14.197 9.374 14.168 9.358 14.145 9.346C14.133 9.34 14.123 9.335 14.115 9.335C13.94 9.394 13.789 9.502 13.636 9.611C13.496 9.711 13.355 9.813 13.193 9.876V9.83C13.138 9.849 13.084 9.873 13.03 9.898C12.95 9.935 12.87 9.971 12.786 9.989C12.635 10.025 12.494 10.02 12.358 10.016C12.3137 10.0143 12.2693 10.0133 12.225 10.013C11.9767 10.0422 11.7303 10.0856 11.487 10.143L11.407 10.161C11.4035 10.1627 11.3998 10.164 11.396 10.165C11.2453 10.2033 11.1006 10.2622 10.966 10.34L10.951 10.348L10.935 10.368C10.8906 10.432 10.8326 10.4853 10.765 10.524C10.6683 10.578 10.5792 10.6446 10.5 10.722C10.465 10.754 10.429 10.786 10.393 10.815C10.385 10.823 10.369 10.827 10.358 10.827C10.2386 10.9447 10.1173 11.0604 9.994 11.174C9.986 11.182 9.951 11.186 9.924 11.182C9.924 11.182 9.928 11.182 9.928 11.178L9.939 11.154L9.998 11.061L10.03 11.008L10.063 10.956C10.094 10.909 10.126 10.862 10.16 10.819C10.168 10.808 10.168 10.796 10.16 10.789C10.152 10.781 10.1413 10.7763 10.13 10.776C10.242 10.668 10.373 10.574 10.509 10.492V10.488C10.493 10.492 10.47 10.48 10.482 10.465C10.493 10.451 10.502 10.435 10.512 10.419L10.52 10.402C10.523 10.399 10.523 10.396 10.524 10.392L10.528 10.383L10.52 10.373L10.513 10.363L10.489 10.379C10.4379 10.4071 10.3936 10.446 10.359 10.493C10.323 10.538 10.286 10.586 10.23 10.586C10.226 10.586 10.207 10.586 10.195 10.582C10.183 10.582 10.175 10.578 10.172 10.574V10.57H10.176C10.176 10.57 10.18 10.566 10.18 10.562C10.18 10.562 10.18 10.558 10.183 10.558C10.1848 10.5546 10.1868 10.5512 10.189 10.548C10.1912 10.5448 10.1932 10.5415 10.195 10.538C10.1968 10.5349 10.1988 10.5319 10.201 10.529L10.207 10.519C10.2088 10.517 10.2102 10.5146 10.211 10.512C10.211 10.509 10.213 10.506 10.215 10.504L10.219 10.496L10.23 10.473L10.236 10.463C10.2383 10.4598 10.2403 10.4565 10.242 10.453C10.2476 10.445 10.2526 10.4367 10.257 10.428L10.273 10.402C10.2767 10.3936 10.2818 10.3858 10.288 10.379L10.3 10.358L10.311 10.336C10.323 10.316 10.311 10.301 10.296 10.297C10.3381 10.2418 10.3908 10.1956 10.451 10.161H10.443C10.496 10.134 10.551 10.103 10.606 10.071L10.703 10.017C10.714 10.005 10.726 9.993 10.741 9.986C10.6144 10.0283 10.4945 10.0886 10.385 10.165C10.385 10.165 10.354 10.177 10.346 10.185C10.346 10.185 10.323 10.192 10.292 10.165C10.288 10.161 10.288 10.157 10.288 10.149C10.302 10.122 10.329 10.104 10.359 10.085C10.381 10.071 10.404 10.056 10.424 10.036C10.447 10.036 10.466 10.036 10.466 10.06C10.912 9.71 11.462 9.629 12.014 9.548C12.354 9.498 12.694 9.448 13.011 9.335L13.111 9.267L13.213 9.199C13.269 9.175 13.32 9.135 13.373 9.092C13.426 9.05 13.483 9.006 13.55 8.972C13.728 8.836 13.863 8.68 13.933 8.451C13.933 8.427 13.91 8.404 13.91 8.404C13.6257 8.70952 13.2899 8.9627 12.918 9.152C12.575 9.333 12.207 9.36 11.842 9.387C11.705 9.397 11.569 9.407 11.435 9.425C11.458 9.378 11.505 9.378 11.547 9.378C11.547 9.323 11.573 9.298 11.607 9.268L11.637 9.241H11.702C11.714 9.241 11.719 9.23 11.725 9.218C11.731 9.206 11.737 9.195 11.748 9.195C11.795 9.195 11.861 9.171 11.838 9.171C11.802 9.126 11.75 9.144 11.693 9.164C11.639 9.183 11.579 9.204 11.523 9.171C11.544 9.149 11.55 9.121 11.556 9.097C11.562 9.071 11.567 9.047 11.59 9.035H11.679C11.679 8.988 11.725 8.945 11.725 8.945C11.927 8.824 12.122 8.718 12.314 8.614C12.442 8.544 12.568 8.476 12.694 8.404C12.668 8.404 12.646 8.414 12.624 8.424C12.589 8.441 12.556 8.456 12.515 8.427C12.539 8.427 12.539 8.411 12.539 8.394C12.539 8.378 12.539 8.361 12.562 8.361C12.707 8.322 12.836 8.259 12.969 8.195C13.062 8.15 13.157 8.104 13.259 8.065C13.2297 8.06619 13.2008 8.07157 13.173 8.081C13.12 8.096 13.07 8.111 13.011 8.065C13.0252 8.05742 13.0386 8.04837 13.051 8.038C13.076 8.018 13.101 7.998 13.147 7.998V7.932C13.147 7.909 13.17 7.909 13.193 7.909C13.17 7.909 13.147 7.886 13.147 7.886C13.159 7.861 13.183 7.856 13.21 7.85C13.2364 7.84702 13.2613 7.83662 13.282 7.82C13.259 7.82 13.216 7.82 13.216 7.796C13.282 7.706 13.395 7.683 13.507 7.66C13.495 7.636 13.473 7.636 13.454 7.636C13.434 7.636 13.418 7.636 13.418 7.613C13.418 7.59 13.441 7.59 13.464 7.59H13.418C13.381 7.571 13.388 7.538 13.392 7.516L13.395 7.5C13.485 7.393 13.515 7.266 13.545 7.14C13.56 7.079 13.575 7.017 13.596 6.958C13.573 6.958 13.55 6.958 13.55 6.935C13.332 7.177 12.987 7.268 12.659 7.355L12.628 7.364H12.515C12.4534 7.3889 12.3871 7.39967 12.3208 7.39552C12.2545 7.39136 12.19 7.37239 12.132 7.34C12.078 7.312 12.04 7.277 11.999 7.24C11.9698 7.21202 11.9391 7.18565 11.907 7.161C11.7309 7.04919 11.5427 6.95761 11.346 6.888C10.7877 6.70431 10.2015 6.6197 9.614 6.638C9.777 6.549 9.951 6.513 10.127 6.478C10.2778 6.44898 10.4264 6.40989 10.572 6.361C10.892 6.263 11.205 6.167 11.547 6.187C11.4962 6.17461 11.4435 6.17291 11.392 6.182C11.367 6.185 11.343 6.187 11.322 6.187C11.063 6.167 10.802 6.225 10.529 6.285L10.354 6.323C10.2493 6.34683 10.1458 6.37586 10.044 6.41C9.931 6.445 9.819 6.48 9.699 6.503C9.65063 6.52205 9.60545 6.54835 9.565 6.581C9.5 6.628 9.437 6.674 9.339 6.662V6.592C9.564 6.319 9.835 6.051 10.195 6.027C10.543 5.971 10.872 6.011 11.215 6.053L11.388 6.074C11.669 6.097 11.932 6.159 12.215 6.227L12.245 6.234C12.306 6.234 12.341 6.288 12.375 6.341C12.402 6.384 12.429 6.426 12.469 6.436C12.524 6.456 12.579 6.459 12.634 6.462C12.714 6.468 12.795 6.472 12.876 6.526C12.8753 6.51052 12.8733 6.49513 12.87 6.48C12.865 6.45 12.86 6.42 12.876 6.39C12.926 6.34 12.983 6.353 13.039 6.366C13.083 6.376 13.127 6.386 13.166 6.366C13.289 6.29 13.174 6.173 13.058 6.056C13.003 5.999 12.948 5.943 12.918 5.891C12.918 5.868 12.942 5.844 12.942 5.844C12.992 5.89 13.04 5.937 13.087 5.984C13.204 6.101 13.319 6.215 13.48 6.296C13.592 6.343 13.863 6.409 13.817 6.273C13.737 6.096 13.601 5.943 13.464 5.788C13.408 5.725 13.351 5.661 13.298 5.595V5.505C13.263 5.505 13.254 5.492 13.244 5.475C13.2404 5.46904 13.2364 5.46336 13.232 5.458V5.368C13.175 5.339 13.162 5.292 13.15 5.244C13.142 5.217 13.135 5.19 13.12 5.166C13.08 5.103 13.078 5.026 13.075 4.946C13.0759 4.88212 13.0675 4.81845 13.05 4.757C13.009 4.63114 12.9789 4.502 12.96 4.371C12.936 4.231 12.908 4.099 12.88 3.968C12.833 3.738 12.787 3.516 12.76 3.284C12.724 2.954 12.89 2.674 13.061 2.388C13.111 2.304 13.163 2.218 13.209 2.131C13.368 1.858 13.546 1.59 13.84 1.406C13.904 1.14 14.08 0.919 14.253 0.698L14.266 0.682C14.438 0.468 14.725 0.337 14.936 0.241L14.96 0.23C15.273 0.0899995 15.556 0 15.56 0H0V11.996H11.04C11.335 11.782 11.628 11.646 11.978 11.486C12.1995 11.3857 12.4189 11.2807 12.636 11.171C12.951 11.016 13.453 10.769 13.643 10.581V10.582ZM10.14 8.963C10.096 8.968 10.05 8.973 10.067 8.937C10.083 8.858 10.164 8.835 10.243 8.812C10.277 8.802 10.31 8.792 10.338 8.778L10.35 8.771L10.36 8.766C10.404 8.743 10.457 8.715 10.497 8.731C10.523 8.769 10.557 8.779 10.588 8.788C10.612 8.796 10.635 8.802 10.655 8.821C10.571 8.905 10.474 8.913 10.375 8.921C10.3079 8.92318 10.2416 8.9367 10.179 8.961C10.168 8.961 10.155 8.961 10.14 8.963ZM6.713 8.415C6.713 8.439 6.736 8.462 6.736 8.462C7.278 7.851 7.77 7.328 8.467 6.896C8.486 6.888 8.479 6.898 8.47 6.911C8.456 6.931 8.437 6.957 8.49 6.943C8.721 6.89 8.825 6.693 8.926 6.5C8.952 6.45 8.978 6.4 9.006 6.354C9.111 6.182 9.262 6.072 9.413 5.961C9.523 5.881 9.633 5.801 9.726 5.696C9.726 5.719 9.726 5.743 9.703 5.766C9.726 5.79 9.75 5.79 9.773 5.79C9.813 5.759 9.858 5.746 9.901 5.734C9.956 5.718 10.007 5.704 10.044 5.654C9.866 5.583 9.637 5.56 9.459 5.63C8.986 5.856 8.584 6.218 8.2 6.627C7.968 6.873 7.727 7.102 7.433 7.262C7.2314 7.66902 6.99024 8.05521 6.713 8.415ZM8.603 6.966C8.592 6.991 8.579 7.003 8.568 7.016C8.558 7.026 8.548 7.037 8.538 7.056C8.51969 7.09553 8.48773 7.12713 8.448 7.145C8.426 7.145 8.402 7.145 8.402 7.122C8.426 7.032 8.492 6.943 8.58 6.92C8.604 6.924 8.603 6.947 8.603 6.966ZM9.594 10.426C9.61516 10.4068 9.63336 10.3845 9.648 10.36C9.668 10.313 9.548 10.325 9.528 10.337C9.51225 10.3503 9.49815 10.3654 9.486 10.382L9.482 10.387C9.4651 10.4061 9.44707 10.4241 9.428 10.441L9.389 10.477C9.335 10.532 9.281 10.587 9.223 10.637C9.184 10.672 9.308 10.687 9.335 10.664C9.36518 10.6401 9.39359 10.614 9.42 10.586C9.43 10.586 9.44 10.584 9.448 10.583H9.455C9.519 10.561 9.567 10.516 9.613 10.473L9.625 10.461C9.641 10.446 9.62 10.431 9.594 10.426ZM9.244 10.173L9.243 10.177C9.2192 10.1935 9.19553 10.2101 9.172 10.227C9.112 10.269 9.052 10.312 8.987 10.348C8.92548 10.3819 8.86278 10.4136 8.799 10.443C8.76215 10.4603 8.72548 10.4779 8.689 10.496C8.689 10.496 8.689 10.492 8.685 10.492C8.677 10.481 8.662 10.477 8.646 10.485C8.56302 10.5323 8.48725 10.5912 8.421 10.66C8.40915 10.6684 8.39897 10.6789 8.391 10.691L8.356 10.726V10.73C8.34 10.746 8.324 10.761 8.306 10.785C8.30237 10.7887 8.29903 10.7928 8.296 10.797C8.29 10.804 8.284 10.811 8.274 10.816C8.259 10.824 8.22 10.824 8.224 10.8V10.796C8.21186 10.8042 8.19877 10.8109 8.185 10.816C8.17956 10.8197 8.17388 10.823 8.168 10.826C8.16177 10.8289 8.15576 10.8322 8.15 10.836C8.146 10.831 8.139 10.831 8.135 10.831C8.131 10.831 8.123 10.831 8.119 10.835L8.092 10.858C8.02462 10.9151 7.96238 10.978 7.906 11.046C7.906 11.046 7.906 11.049 7.902 11.049C7.902 11.052 7.902 11.052 7.9 11.053L7.898 11.057L7.891 11.065L7.888 11.069C7.886 11.071 7.885 11.073 7.883 11.073L7.879 11.077C7.875 11.085 7.871 11.092 7.864 11.1C7.85855 11.1051 7.85143 11.1079 7.844 11.108C7.84 11.104 7.836 11.1 7.836 11.096L7.833 11.09L7.829 11.085L7.819 11.067C7.81603 11.0608 7.81269 11.0548 7.809 11.049V11.046C7.809 11.044 7.809 11.042 7.807 11.04C7.80585 11.0382 7.80516 11.0361 7.805 11.034L7.875 10.952L7.879 10.948C7.8832 10.9439 7.88721 10.9395 7.891 10.935L7.902 10.921C7.92068 10.9006 7.93742 10.8785 7.952 10.855C7.976 10.824 7.999 10.792 8.022 10.757V10.753C8.026 10.75 8.03 10.746 8.03 10.738C8.04172 10.7233 8.05209 10.7076 8.061 10.691L8.084 10.644V10.641L8.088 10.637L8.092 10.629L8.104 10.602C8.10787 10.5927 8.11154 10.5834 8.115 10.574V10.57L8.119 10.555L8.127 10.531V10.528C8.12878 10.5221 8.13012 10.5161 8.131 10.51C8.131 10.504 8.133 10.498 8.135 10.492C8.135 10.488 8.135 10.481 8.131 10.477C8.15589 10.4334 8.18576 10.3928 8.22 10.356L8.214 10.358C8.21305 10.3587 8.21205 10.3594 8.211 10.36H8.208C8.19098 10.3717 8.17523 10.3851 8.161 10.4C8.149 10.412 8.137 10.424 8.123 10.434C8.1 10.454 8.053 10.422 8.084 10.399C8.104 10.383 8.119 10.368 8.134 10.352C8.134 10.352 8.134 10.348 8.139 10.348C8.1546 10.3333 8.16961 10.3179 8.184 10.302C8.206 10.278 8.229 10.254 8.254 10.235C8.2823 10.2156 8.30966 10.1949 8.336 10.173C8.35154 10.1527 8.36824 10.1334 8.386 10.115C8.386 10.115 8.39 10.115 8.39 10.111C8.523 9.981 8.71 9.936 8.901 9.89C9.021 9.86 9.143 9.83 9.254 9.78C9.317 9.753 9.387 9.764 9.456 9.774C9.51 9.782 9.565 9.79 9.614 9.779C9.68 9.779 9.75 9.779 9.816 9.826C9.663 9.908 9.516 10.001 9.372 10.093L9.246 10.173H9.244ZM9.728 8.585C9.71 8.587 9.698 8.588 9.708 8.599C9.774 8.665 9.91 8.642 10.003 8.591C10.069 8.544 10.138 8.544 10.227 8.544C10.25 8.544 10.25 8.501 10.25 8.478C10.3076 8.49716 10.3684 8.50497 10.429 8.501C10.967 8.388 11.486 8.275 11.982 8.026C11.48 7.638 10.862 7.466 10.256 7.296L9.956 7.212C9.978 7.212 10 7.219 10.022 7.226C10.066 7.241 10.111 7.256 10.158 7.212C10.0998 7.17095 10.0311 7.14735 9.96 7.144C9.90318 7.14018 9.84773 7.12487 9.797 7.099C9.803 7.099 9.809 7.099 9.816 7.101C9.839 7.106 9.869 7.111 9.886 7.075C9.769 7.016 9.651 6.996 9.532 6.975C9.47019 6.96557 9.4088 6.95356 9.348 6.939C9.4004 6.92943 9.44762 6.90134 9.48104 6.85985C9.51445 6.81836 9.53183 6.76624 9.53 6.713C9.53 6.69 9.484 6.69 9.46 6.69C9.193 6.826 9.011 7.075 8.899 7.367C8.999 7.427 9.109 7.42 9.216 7.413C9.276 7.41 9.336 7.406 9.394 7.414C9.344 7.462 9.27 7.476 9.2 7.488L9.123 7.504C9.053 7.519 8.988 7.57 9.011 7.617C9.02312 7.63331 9.041 7.64439 9.061 7.648C9.00812 7.66298 8.95993 7.6912 8.921 7.73C8.986 7.78 9.051 7.77 9.116 7.76C9.142 7.757 9.168 7.753 9.193 7.753C9.193 7.782 9.212 7.791 9.231 7.801C9.241 7.806 9.251 7.811 9.259 7.819C9.16056 7.855 9.0799 7.92777 9.034 8.022C9.00408 8.08358 8.95943 8.13682 8.904 8.177C8.87 8.207 8.836 8.235 8.81 8.271V8.341C8.73613 8.40493 8.66009 8.4663 8.582 8.525C8.426 8.645 8.275 8.762 8.155 8.93C8.178 8.93 8.178 8.953 8.178 8.977C8.15597 9.00653 8.12888 9.03192 8.098 9.052C8.064 9.077 8.032 9.101 8.019 9.136C8.019 9.16 8.019 9.183 8.043 9.183C8.185 9.136 8.308 9.057 8.428 8.979C8.538 8.909 8.645 8.84 8.763 8.797C8.859 8.774 8.943 8.73 9.025 8.687C9.095 8.652 9.163 8.617 9.235 8.595C9.292 8.583 9.354 8.567 9.415 8.55C9.478 8.533 9.54 8.517 9.595 8.505C9.595 8.529 9.595 8.552 9.619 8.552H9.797C9.787 8.578 9.752 8.582 9.728 8.585Z" fill="#000091"/>
<path d="M33 0H20.097C20.097 0 20.12 0.00400031 20.217 0.0550003C20.323 0.109 20.459 0.183 20.541 0.226C20.709 0.312 20.869 0.421 20.974 0.589C21.021 0.655 21.087 0.792 21.044 0.882C20.998 0.995 20.974 1.178 20.861 1.222C20.725 1.292 20.545 1.292 20.385 1.268C20.295 1.268 20.205 1.244 20.112 1.221C20.452 1.358 20.772 1.518 20.998 1.834C21.021 1.88 21.111 1.9 21.201 1.9C21.224 1.9 21.224 1.947 21.224 1.966C21.177 2.013 21.134 2.036 21.158 2.103H21.224C21.337 2.056 21.314 1.83 21.474 1.9C21.587 1.966 21.634 2.126 21.564 2.24C21.474 2.329 21.384 2.4 21.29 2.466C21.2784 2.49108 21.2724 2.51838 21.2724 2.546C21.2724 2.57362 21.2784 2.60092 21.29 2.626C21.356 2.716 21.38 2.805 21.403 2.899C21.473 3.059 21.493 3.238 21.563 3.398C21.653 3.738 21.743 4.077 21.723 4.42C21.723 4.6 21.633 4.76 21.7 4.943C21.747 5.123 21.86 5.259 21.95 5.419C22.04 5.555 22.129 5.645 22.2 5.782C22.336 6.008 22.585 6.234 22.472 6.507C22.406 6.667 22.156 6.644 21.996 6.733C21.86 6.847 21.973 7.03 22.043 7.143C22.156 7.346 21.907 7.483 21.747 7.553C21.793 7.623 21.883 7.599 21.907 7.643C21.93 7.756 22.043 7.822 21.973 7.939C21.883 8.075 21.61 8.142 21.747 8.349C21.837 8.509 21.777 8.684 21.723 8.848C21.657 9.051 21.473 9.14 21.313 9.188C21.1743 9.23026 21.0274 9.23815 20.885 9.211C20.838 9.187 20.795 9.164 20.748 9.164C20.362 9.117 19.976 9.008 19.593 9.008C19.48 9.031 19.367 9.051 19.277 9.098C19.1782 9.16907 19.0868 9.2498 19.004 9.339L19 9.343C18.985 9.363 18.965 9.378 18.95 9.398C18.942 9.41 18.93 9.421 18.923 9.433C18.915 9.441 18.911 9.449 18.903 9.456C18.8329 9.54374 18.7691 9.6363 18.712 9.733C18.708 9.745 18.7 9.753 18.692 9.765C18.6211 9.89791 18.5639 10.0376 18.521 10.182C18.365 10.701 18.435 11.146 18.544 11.255C18.575 11.286 19.294 11.509 19.792 11.731C20.026 11.836 20.19 11.914 20.327 12H32.997V0H33Z" fill="#E1000F"/>
<path d="M20.863 4.375C20.953 4.398 21.089 4.398 21.089 4.445C21.042 4.625 20.774 4.671 20.638 4.855H20.568C20.501 4.901 20.521 5.015 20.455 5.015C20.389 4.991 20.319 5.015 20.252 5.038C20.342 5.128 20.455 5.198 20.591 5.174C20.614 5.174 20.657 5.221 20.657 5.264C20.657 5.264 20.68 5.264 20.704 5.24C20.727 5.24 20.75 5.24 20.75 5.264V5.354C20.684 5.443 20.567 5.4 20.478 5.419C20.6485 5.46582 20.8285 5.46582 20.999 5.419C21.135 5.373 20.999 5.147 21.089 5.034C21.042 5.034 21.089 4.964 21.042 4.964C21.089 4.917 21.132 4.851 21.178 4.827C21.225 4.827 21.291 4.804 21.314 4.757C21.314 4.71 21.224 4.691 21.244 4.644C21.381 4.554 21.494 4.418 21.447 4.282C21.423 4.212 21.244 4.212 21.132 4.169C21.019 4.126 20.882 4.169 20.746 4.192C20.634 4.192 20.521 4.262 20.408 4.282C20.2544 4.33446 20.11 4.41072 19.98 4.508C20.14 4.441 20.295 4.418 20.478 4.371C20.614 4.375 20.727 4.344 20.863 4.375Z" fill="#808080"/>
<path d="M1.23599 27H2.93999V23.604H3.81599L6.05999 27H8.06399L5.43599 23.28C6.29999 22.884 6.79199 22.128 6.79199 21.108C6.79199 19.548 5.65199 18.6 3.80399 18.6H1.23599V27ZM3.89999 20.016C4.61999 20.016 5.03999 20.448 5.03999 21.084C5.03999 21.768 4.61999 22.188 3.89999 22.188H2.93999V20.016H3.89999ZM12.527 17.88L14.087 16.26H12.335L10.979 17.88H12.527ZM9.32299 27H14.219V25.584H11.027V23.424H13.739V22.008H11.027V20.016H14.219V18.6H9.32299V27ZM16.379 27H18.083V23.604H19.151C20.999 23.604 22.127 22.656 22.127 21.108C22.127 19.548 20.999 18.6 19.151 18.6H16.38L16.379 27ZM19.223 20.016C19.943 20.016 20.375 20.448 20.375 21.084C20.375 21.768 19.943 22.188 19.223 22.188H18.083V20.016H19.223ZM28.67 23.856C28.67 24.984 28.022 25.644 26.978 25.644C25.91 25.644 25.275 24.984 25.275 23.856V18.6H23.57V23.712C23.57 25.92 24.866 27.24 26.966 27.24C29.077 27.24 30.373 25.92 30.373 23.712V18.6H28.67V23.856ZM32.671 27H35.323C37.255 27 38.443 26.064 38.443 24.528C38.443 23.652 37.951 22.932 37.063 22.536C37.651 22.152 37.963 21.564 37.963 20.88C37.963 19.464 36.895 18.6 35.143 18.6H32.671V27ZM35.179 20.016C35.827 20.016 36.211 20.364 36.211 20.952C36.211 21.564 35.827 21.912 35.179 21.912H34.375V20.016H35.179ZM35.419 23.328C36.211 23.328 36.691 23.736 36.691 24.456C36.691 25.164 36.211 25.584 35.419 25.584H34.375V23.328H35.419ZM40.372 27H45.268V25.452H42.076V18.6H40.372V27ZM46.948 27H48.652V18.6H46.948V27ZM58.223 26.784L57.719 26.304C58.751 25.488 59.375 24.204 59.375 22.8C59.375 20.4 57.563 18.36 54.923 18.36C52.271 18.36 50.459 20.4 50.459 22.8C50.459 25.2 52.271 27.24 54.923 27.24C55.331 27.24 55.715 27.192 56.075 27.096L57.071 27.984C57.899 28.704 58.763 29.088 59.699 29.088C60.071 29.088 60.311 29.04 60.587 28.932V27.492C60.407 27.564 60.167 27.588 59.987 27.588C59.447 27.588 58.871 27.372 58.223 26.784ZM54.923 25.644C53.339 25.644 52.211 24.408 52.211 22.8C52.211 21.192 53.339 19.956 54.923 19.956C56.495 19.956 57.623 21.192 57.623 22.8C57.623 24.408 56.495 25.644 54.923 25.644ZM66.143 23.856C66.143 24.984 65.494 25.644 64.45 25.644C63.382 25.644 62.746 24.984 62.746 23.856V18.6H61.042V23.712C61.042 25.92 62.338 27.24 64.438 27.24C66.55 27.24 67.846 25.92 67.846 23.712V18.6H66.142L66.143 23.856ZM70.143 27H75.039V25.584H71.847V23.424H74.559V22.008H71.847V20.016H75.039V18.6H70.143V27ZM80.493 27H82.198V23.424H84.91V22.008H82.198V20.016H85.39V18.6H80.494V27H80.493ZM87.069 27H88.773V23.604H89.649L91.893 27H93.897L91.269 23.28C92.133 22.884 92.625 22.128 92.625 21.108C92.625 19.548 91.485 18.6 89.637 18.6H87.069V27ZM89.733 20.016C90.453 20.016 90.873 20.448 90.873 21.084C90.873 21.768 90.453 22.188 89.733 22.188H88.773V20.016H89.733ZM94.464 27H96.276L97.08 24.816H100.44L101.244 27H103.056L99.876 18.6H97.644L94.464 27ZM97.608 23.364L98.76 20.208L99.912 23.364H97.608ZM104.533 27H106.237V20.928L109.993 27H112.177V18.6H110.473V24.672L106.717 18.6H104.533V27ZM118.45 25.644C116.866 25.644 115.738 24.408 115.738 22.8C115.738 21.192 116.866 19.956 118.45 19.956C119.41 19.956 120.166 20.424 120.646 21.108L121.99 20.064C121.222 19.044 119.974 18.36 118.45 18.36C115.798 18.36 113.986 20.4 113.986 22.8C113.986 24.936 115.426 26.784 117.61 27.168L116.554 28.932H118.066L119.11 27.192C120.334 27.036 121.342 26.412 121.99 25.524L120.646 24.492C120.166 25.176 119.41 25.644 118.45 25.644ZM122.535 27H124.347L125.151 24.816H128.511L129.315 27H131.127L127.947 18.6H125.715L122.535 27ZM125.679 23.364L126.831 20.208L127.983 23.364H125.679ZM132.604 27H134.308V18.6H132.604V27ZM136.08 25.836C136.824 26.724 137.772 27.24 139.188 27.24C140.736 27.24 141.96 26.292 141.984 24.708C141.984 21.828 138.168 22.26 138.168 20.736C138.168 20.232 138.564 19.848 139.164 19.848C139.8 19.848 140.352 20.268 140.844 20.904L142.092 19.776C141.372 18.924 140.412 18.36 139.152 18.36C137.544 18.36 136.44 19.464 136.44 20.796C136.44 23.64 140.256 23.22 140.256 24.768C140.256 25.368 139.848 25.728 139.176 25.728C138.492 25.728 137.82 25.344 137.316 24.696L136.08 25.836ZM143.95 27H148.846V25.584H145.654V23.424H148.366V22.008H145.654V20.016H148.846V18.6H143.95V27Z" fill="#161616"/>
<path fill-rule="evenodd" clip-rule="evenodd" d="M31.18 48.615L30.064 49.635H29.776L30.436 48.471H31.18V48.615ZM30.376 52.562H30.136C29.836 52.922 29.5 53.21 29.176 53.21C28.84 53.21 28.672 53.006 28.672 52.562C28.672 52.382 28.696 52.19 28.732 52.022L30.688 51.374C31.072 50.462 30.616 50.066 30.076 50.066C29.152 50.066 28.096 51.686 28.096 52.982C28.096 53.594 28.384 53.93 28.84 53.93C29.368 53.918 29.92 53.402 30.376 52.562ZM29.705 50.594C29.969 50.594 30.197 50.798 30.077 51.266L28.864 51.591C29.057 51.014 29.417 50.594 29.704 50.594H29.705ZM25.889 50.618H26.537L25.505 53.45C25.408 53.69 25.54 53.93 25.792 53.93C26.525 53.93 27.401 53.306 27.737 52.418H27.557C27.293 52.79 26.717 53.198 26.285 53.27L27.233 50.618H28.205L28.325 50.21H27.377L27.737 49.19H27.365L26.693 50.21L25.889 50.318V50.618ZM24.988 50.078C25.12 50.078 25.3 50.223 25.216 50.487L24.052 53.307C24.352 53.259 24.664 52.971 24.844 52.707H25.036C24.76 53.415 24.136 53.931 23.596 53.931C23.464 53.931 23.272 53.787 23.368 53.523L24.448 50.703C24.148 50.751 23.836 51.039 23.656 51.303H23.476C23.752 50.583 24.424 50.078 24.988 50.078ZM25.325 49.358C25.4426 49.358 25.5554 49.3113 25.6386 49.2281C25.7218 49.1449 25.7685 49.0321 25.7685 48.9145C25.7685 48.7969 25.7218 48.6841 25.6386 48.6009C25.5554 48.5177 25.4426 48.471 25.325 48.471C25.2072 48.471 25.0943 48.5178 25.011 48.601C24.9278 48.6843 24.881 48.7972 24.881 48.915C24.881 49.0328 24.9278 49.1457 25.011 49.229C25.0943 49.3122 25.2072 49.358 25.325 49.358ZM20.08 51.698C20.344 51.123 20.248 50.858 20.08 50.858C19.936 50.858 19.768 51.015 19.6 51.303H19.42C19.696 50.691 20.056 50.079 20.452 50.079C20.788 50.079 20.908 50.415 20.908 50.787V51.315L21.066 51.13L21.068 51.129C21.575 50.533 21.962 50.079 22.408 50.079C22.756 50.079 22.936 50.295 22.936 50.619C22.936 50.811 22.876 51.051 22.744 51.303L21.748 53.307C22.048 53.259 22.36 52.971 22.54 52.707H22.72C22.444 53.427 21.772 53.931 21.208 53.931C20.956 53.931 20.812 53.667 20.92 53.451L22.072 51.231C22.204 50.979 22.228 50.811 22.024 50.811C21.748 50.811 21.1 51.267 20.752 51.687L19.996 53.679C19.912 53.883 19.828 53.931 19.636 53.931C19.324 53.931 19.168 53.727 19.312 53.403L20.08 51.698ZM19.299 50.93C19.431 50.474 19.359 50.066 19.011 50.066C18.577 50.066 18.441 50.353 18.02 51.24L17.99 51.302V50.774C17.99 50.402 17.87 50.066 17.534 50.066C17.138 50.066 16.778 50.678 16.502 51.29H16.682C16.874 51.014 17.054 50.846 17.198 50.846C17.366 50.846 17.462 51.11 17.198 51.686L16.43 53.39C16.286 53.714 16.442 53.918 16.754 53.918C16.946 53.918 17.03 53.87 17.114 53.666L17.87 51.674C18.086 51.41 18.279 51.182 18.519 50.93H19.299ZM15.506 51.267C15.626 50.798 15.398 50.594 15.134 50.594C14.846 50.594 14.486 51.014 14.294 51.59L15.506 51.267ZM15.806 52.562H15.566C15.266 52.922 14.93 53.21 14.606 53.21C14.269 53.21 14.101 53.006 14.101 52.562C14.101 52.382 14.125 52.19 14.161 52.022L16.118 51.374C16.502 50.462 16.046 50.066 15.506 50.066C14.581 50.066 13.526 51.686 13.526 52.982C13.526 53.594 13.813 53.93 14.27 53.93C14.798 53.918 15.35 53.402 15.806 52.562ZM11.966 50.618H11.318V50.318L12.122 50.21L12.795 49.19H13.167L12.807 50.21H13.755L13.635 50.618H12.663L11.714 53.27C12.147 53.198 12.723 52.79 12.987 52.418H13.167C12.831 53.306 11.954 53.93 11.222 53.93C10.97 53.93 10.838 53.69 10.934 53.45L11.966 50.618ZM7.886 52.814C7.886 51.938 8.859 50.763 9.399 50.763C9.519 50.763 9.639 50.775 9.735 50.81L9.171 52.322C8.847 52.718 8.343 53.198 8.102 53.198C7.971 53.198 7.886 53.078 7.886 52.814ZM10.563 49.887L10.863 49.911L9.819 52.311C9.567 52.886 9.675 53.151 9.819 53.151C9.963 53.151 10.143 52.982 10.335 52.706H10.515C10.239 53.318 9.879 53.93 9.483 53.93C9.147 53.93 8.943 53.57 9.003 52.922L9.027 52.694L8.962 52.786C8.532 53.386 8.142 53.93 7.742 53.93C7.395 53.93 7.215 53.714 7.215 53.39C7.215 51.998 8.739 50.222 10.167 50.222H10.227L10.563 49.887ZM7.814 50.93C7.946 50.474 7.874 50.066 7.526 50.066C7.092 50.066 6.956 50.353 6.536 51.24L6.506 51.302V50.774C6.506 50.402 6.386 50.066 6.05 50.066C5.654 50.066 5.294 50.678 5.018 51.29H5.198C5.39 51.014 5.57 50.846 5.702 50.846C5.87 50.846 5.966 51.11 5.702 51.686L4.934 53.402C4.79 53.726 4.946 53.93 5.258 53.93C5.45 53.93 5.534 53.882 5.618 53.678L6.374 51.686C6.59 51.422 6.782 51.194 7.022 50.942H7.814V50.93ZM2.868 53.57L2.796 53.785H0L0.0719995 53.557C0.936 53.401 1.08 53.329 1.44 52.357L2.22 50.27C2.568 49.297 2.496 49.225 1.74 49.07L1.812 48.854H5.449L5.233 50.017H4.969C4.969 49.321 4.897 49.142 4.237 49.142H4.069C3.421 49.142 3.337 49.237 3.157 49.742L2.64 51.145H3.396C3.901 51.145 4.093 50.833 4.321 50.425H4.585L3.961 52.129H3.697C3.757 51.613 3.757 51.409 3.289 51.409H2.532L2.184 52.369C1.808 53.369 1.916 53.389 2.812 53.559L2.868 53.57ZM5.245 39.433L4.129 40.237V40.249H3.84L4.5 39.289H5.245V39.433ZM13.047 45.063L14.835 40.309L14.775 40.237L13.539 40.382V40.526L13.779 40.706C13.984 40.866 13.93 41.014 13.76 41.479L13.731 41.559L12.363 45.208C12.255 45.424 12.399 45.688 12.651 45.688C13.215 45.688 13.815 45.172 14.091 44.464H13.911C13.719 44.728 13.335 45.015 13.047 45.063ZM21.244 41.402L22.36 40.382V40.237H21.616L20.956 41.402H21.244ZM21.315 44.319H21.555C21.111 45.172 20.559 45.689 20.031 45.689C19.575 45.689 19.287 45.352 19.287 44.739C19.287 43.443 20.343 41.822 21.267 41.822C21.795 41.822 22.263 42.218 21.879 43.131L19.911 43.779C19.8726 43.9565 19.8525 44.1374 19.851 44.319C19.851 44.764 20.019 44.968 20.355 44.968C20.679 44.968 21.015 44.68 21.315 44.319ZM21.255 43.023C21.375 42.567 21.146 42.363 20.882 42.363C20.606 42.363 20.246 42.783 20.042 43.347L21.255 43.023ZM17.725 42.386H17.078V42.086L17.882 41.978L18.554 40.958H18.926L18.566 41.978H19.514L19.394 42.386H18.422L17.474 45.039C17.906 44.967 18.482 44.559 18.746 44.187H18.926C18.59 45.076 17.714 45.7 16.982 45.7C16.73 45.7 16.598 45.46 16.694 45.22L17.725 42.386ZM16.405 42.242C16.477 41.978 16.309 41.834 16.165 41.834C15.601 41.834 14.929 42.35 14.653 43.058H14.833C15.013 42.794 15.325 42.506 15.625 42.458L14.545 45.28C14.449 45.544 14.641 45.688 14.773 45.688C15.313 45.688 15.937 45.172 16.213 44.463H16.033C15.853 44.727 15.541 45.016 15.241 45.063L16.406 42.243L16.405 42.242ZM16.958 40.682C16.958 40.922 16.754 41.126 16.514 41.126C16.4265 41.1258 16.341 41.0997 16.2683 41.0509C16.1956 41.0022 16.1389 40.933 16.1055 40.8521C16.0721 40.7712 16.0634 40.6822 16.0806 40.5963C16.0977 40.5105 16.1399 40.4316 16.2018 40.3698C16.2636 40.3079 16.3425 40.2657 16.4283 40.2486C16.5142 40.2314 16.6032 40.2401 16.6841 40.2735C16.765 40.3069 16.8342 40.3636 16.8829 40.4363C16.9317 40.509 16.9578 40.5945 16.958 40.682ZM10.898 42.531C10.358 42.531 9.386 43.707 9.386 44.584C9.386 44.848 9.47 44.968 9.615 44.968C9.843 44.968 10.347 44.488 10.671 44.091L11.235 42.579C11.1264 42.5446 11.0119 42.5284 10.898 42.531ZM12.363 41.678L12.063 41.654L11.727 41.99H11.667C10.239 41.99 8.715 43.767 8.715 45.16C8.715 45.484 8.895 45.7 9.243 45.7C9.643 45.7 10.032 45.156 10.462 44.555L10.527 44.464L10.503 44.692C10.443 45.34 10.647 45.7 10.983 45.7C11.379 45.7 11.739 45.088 12.015 44.475H11.835C11.643 44.752 11.463 44.92 11.319 44.92C11.175 44.92 11.067 44.656 11.319 44.08L12.363 41.678ZM6.313 45.568C5.797 45.772 5.437 46.012 5.437 46.385C5.437 46.733 5.761 46.877 6.433 46.877C7.333 46.877 7.826 46.613 7.826 46.264C7.826 46.108 7.622 46.036 7.082 45.856C6.81903 45.7797 6.56128 45.6834 6.313 45.568ZM6.913 44.091C6.673 44.091 6.589 43.887 6.589 43.671C6.589 42.975 6.925 42.111 7.465 42.111C7.705 42.111 7.789 42.315 7.789 42.531C7.777 43.239 7.441 44.091 6.913 44.091ZM7.37 45.22C8.03 45.424 8.438 45.58 8.438 46.036C8.438 46.625 7.358 47.321 6.05 47.309C5.294 47.309 4.646 47.105 4.646 46.613C4.646 46.144 5.078 45.76 6.134 45.448C6.06835 45.4085 6.01467 45.3519 5.97873 45.2843C5.9428 45.2166 5.92595 45.1405 5.93 45.064C5.93 44.776 6.194 44.547 6.65 44.331C6.206 44.271 5.918 43.935 5.918 43.443C5.918 42.687 6.542 41.823 7.526 41.823C7.73 41.823 7.91 41.87 8.054 41.966H9.134L9.014 42.374H8.378C8.414 42.482 8.438 42.603 8.438 42.734C8.438 43.467 7.85 44.307 6.914 44.355C6.674 44.488 6.554 44.668 6.554 44.812C6.554 44.982 6.75 45.039 7.184 45.165L7.37 45.22ZM3.565 43.167C4.033 43.167 4.045 43.371 3.973 43.887H4.237L4.861 42.182H4.597C4.369 42.591 4.177 42.902 3.673 42.902H2.64L3.145 41.498C3.325 40.994 3.409 40.898 4.057 40.898H4.513C5.173 40.898 5.245 41.078 5.245 41.774H5.509L5.725 40.61H1.812L1.74 40.826C2.496 40.982 2.568 41.054 2.22 42.026L1.44 44.127C1.08 45.1 0.936 45.172 0.0600004 45.328L0 45.556H4.345L5.125 44.32H4.825C4.321 44.812 3.817 45.268 2.833 45.268C1.75 45.268 1.769 45.215 2.094 44.322L2.16 44.139L2.52 43.179H3.565V43.167ZM7.15 32.888C7.26727 32.8864 7.37931 32.8392 7.46224 32.7562C7.54517 32.6733 7.59245 32.5613 7.594 32.444C7.59245 32.3267 7.54517 32.2147 7.46224 32.1318C7.37931 32.0488 7.26727 32.0016 7.15 32C7.09166 31.9999 7.03386 32.0113 6.97993 32.0335C6.926 32.0558 6.87701 32.0885 6.83575 32.1297C6.7945 32.171 6.7618 32.22 6.73953 32.2739C6.71726 32.3279 6.70587 32.3857 6.706 32.444C6.706 32.696 6.898 32.888 7.15 32.888ZM10.702 34.398C10.702 33.823 10.558 33.607 10.15 33.607C9.646 33.607 9.179 34.147 8.71 34.794L9.718 32.096L9.658 32.012L8.423 32.156V32.3L8.663 32.48C8.872 32.642 8.811 32.804 8.633 33.282L8.615 33.332L7.523 36.186C7.427 36.426 7.319 36.714 7.319 36.786C7.319 37.121 7.775 37.446 8.195 37.446C9.131 37.457 10.702 35.729 10.702 34.398ZM21.104 33.175L22.22 32.155V32.012H21.476L20.816 33.175H21.104ZM21.176 36.09H21.416C20.961 36.941 20.409 37.457 19.881 37.445C19.425 37.445 19.137 37.121 19.137 36.51C19.137 35.214 20.193 33.595 21.117 33.595C21.644 33.595 22.112 33.991 21.728 34.902L19.773 35.55C19.737 35.718 19.713 35.91 19.713 36.09C19.713 36.534 19.881 36.738 20.217 36.738C20.541 36.738 20.876 36.45 21.176 36.09ZM21.116 34.794C21.236 34.339 21.007 34.134 20.743 34.134C20.455 34.134 20.095 34.554 19.903 35.118L21.116 34.794ZM17.575 34.16H16.927V33.86L17.731 33.752L18.402 32.732H18.774L18.414 33.752H19.362L19.242 34.159H18.27L17.323 36.81C17.755 36.738 18.331 36.33 18.594 35.959H18.774C18.439 36.846 17.563 37.47 16.831 37.47C16.579 37.47 16.447 37.23 16.543 36.99L17.575 34.16ZM16.593 34.471C16.725 34.016 16.653 33.608 16.305 33.608C15.871 33.608 15.735 33.894 15.315 34.781L15.285 34.843V34.315C15.285 33.944 15.165 33.608 14.829 33.608C14.434 33.608 14.074 34.219 13.798 34.831H13.978C14.17 34.555 14.35 34.387 14.481 34.387C14.649 34.387 14.745 34.651 14.481 35.227L13.714 36.93C13.57 37.254 13.726 37.458 14.038 37.458C14.23 37.458 14.314 37.41 14.398 37.206L15.153 35.215C15.369 34.951 15.561 34.723 15.801 34.471H16.593ZM12.79 34.795C12.91 34.339 12.682 34.135 12.418 34.135C12.13 34.135 11.782 34.555 11.578 35.118L12.79 34.795ZM13.09 36.09H12.85C12.55 36.45 12.213 36.738 11.89 36.738C11.554 36.738 11.386 36.534 11.386 36.09C11.386 35.91 11.41 35.718 11.446 35.55L13.401 34.902C13.785 33.991 13.329 33.595 12.789 33.595C11.866 33.595 10.809 35.215 10.809 36.51C10.809 37.121 11.098 37.445 11.554 37.445C12.081 37.457 12.635 36.941 13.09 36.09ZM8.051 36.546C8.051 36.702 8.327 36.882 8.519 36.882C9.299 36.882 10.031 35.479 10.019 34.699C10.019 34.435 9.887 34.327 9.707 34.327C9.419 34.327 8.891 34.759 8.555 35.167L8.243 36.007C8.135 36.282 8.051 36.497 8.051 36.546ZM6.791 33.608C6.936 33.608 7.104 33.752 7.031 34.016L5.88 36.834C6.18 36.786 6.492 36.498 6.672 36.234H6.852C6.576 36.942 5.952 37.458 5.412 37.458C5.268 37.458 5.076 37.314 5.172 37.05L6.252 34.231C5.952 34.279 5.64 34.567 5.46 34.831H5.28C5.556 34.123 6.227 33.608 6.791 33.608ZM1.811 32.36H4.391L4.319 32.588C3.443 32.744 3.299 32.816 2.939 33.788L2.172 35.898C1.8 36.906 1.896 37.026 2.555 37.026C3.371 37.026 3.905 36.434 4.372 35.916L4.475 35.803H4.775L3.923 37.314H0L0.0719995 37.098C0.936 36.942 1.08 36.87 1.44 35.898L2.22 33.776C2.568 32.804 2.495 32.732 1.74 32.576L1.812 32.36H1.811Z" fill="black"/>
</svg>
