<svg width="321" height="136" viewBox="0 0 321 136" fill="none" xmlns="http://www.w3.org/2000/svg">
<path fill-rule="evenodd" clip-rule="evenodd" d="M51.8754 54.8064C51.8754 54.8064 46.0963 75.9189 71.008 87.1314L80.2845 79.9689C80.2845 79.9689 80.5276 55.2376 51.8754 54.8064Z" fill="white"/>
<path fill-rule="evenodd" clip-rule="evenodd" d="M51.8836 54.244C51.6278 54.2401 51.4018 54.4102 51.3341 54.6575L51.3162 54.7259C51.2981 54.7971 51.2746 54.8956 51.2469 55.0204L51.2364 55.0685C51.1659 55.3915 51.0958 55.7657 51.0305 56.1871C50.6852 58.4168 50.6068 60.9799 50.9606 63.7391C51.4449 67.5163 52.6936 71.2096 54.872 74.6756C58.1543 79.8978 63.3618 84.3066 70.7781 87.6446C70.9666 87.7294 71.1865 87.7035 71.3502 87.577L80.6267 80.4145C80.7643 80.3083 80.8451 80.1442 80.8455 79.97L80.8447 79.8353C80.8405 79.5224 80.8201 79.0911 80.7739 78.5557C80.6944 77.635 80.5555 76.6294 80.3436 75.5614C79.7537 72.588 78.707 69.637 77.0922 66.8896C75.0328 63.3858 72.1837 60.4563 68.4402 58.2909C64.0518 55.7526 58.5657 54.3445 51.8836 54.244ZM52.3177 55.3777L52.4986 55.3824C58.7088 55.5565 63.8007 56.9061 67.8794 59.2653C71.449 61.3301 74.1612 64.1188 76.1254 67.4607C77.6714 70.091 78.6763 72.9242 79.243 75.7808C79.4466 76.8069 79.5799 77.7718 79.6559 78.6527C79.6837 78.975 79.7022 79.268 79.713 79.5287L79.7188 79.6953L70.9325 86.4795L70.8071 86.4221C63.8176 83.198 58.9196 79.0051 55.8214 74.0758C53.734 70.7546 52.5379 67.217 52.0736 63.5957C51.7342 60.9488 51.8094 58.4904 52.1394 56.3597C52.1888 56.041 52.2408 55.7523 52.2933 55.4953L52.3177 55.3777Z" fill="#2F4077"/>
<path fill-rule="evenodd" clip-rule="evenodd" d="M74.0194 33.75C74.0194 33.75 104.261 49.7062 89.3555 85.65L72.785 87.2812C72.7663 87.2812 46.9756 64.3313 74.0194 33.75Z" fill="white"/>
<path fill-rule="evenodd" clip-rule="evenodd" d="M73.5998 33.3769C67.1995 40.6143 63.3878 47.8093 61.8665 54.8974C60.5755 60.9121 60.9642 66.6879 62.7199 72.156C64.0841 76.4049 66.1885 80.2257 68.7208 83.5584C69.5643 84.6685 70.4002 85.6493 71.193 86.4919L71.5638 86.8812C72.2687 87.6148 72.5325 87.8438 72.7852 87.8438C72.8035 87.8438 72.8218 87.8429 72.8401 87.8411L89.4105 86.2098C89.6163 86.1896 89.7943 86.0574 89.8737 85.866C94.0461 75.8047 94.9796 66.6896 93.1736 58.5085C91.7145 51.8985 88.5405 46.1831 84.1685 41.3357C82.0113 38.944 79.7005 36.9192 77.3888 35.2516C76.5784 34.6671 75.8251 34.1687 75.1479 33.7551L74.9742 33.6499C74.8055 33.5487 74.6518 33.4591 74.5142 33.3811L74.3147 33.2703C74.3017 33.2633 74.2904 33.2573 74.2809 33.2523C74.0523 33.1316 73.7711 33.1831 73.5998 33.3769ZM72.8865 86.6093C72.6657 86.3979 72.4108 86.1425 72.1296 85.8471C71.3277 85.0047 70.4753 84.0109 69.6135 82.8766C67.1538 79.6396 65.1102 75.9292 63.7881 71.8113C62.0908 66.5251 61.7155 60.9487 62.9635 55.1341L63.0085 54.9273C64.4868 48.2406 68.0765 41.4309 74.0659 34.549L74.1408 34.4631L74.3193 34.5683C74.3712 34.5992 74.4248 34.6313 74.48 34.6648L74.5641 34.7159C75.2175 35.1149 75.9469 35.5976 76.7334 36.1648C78.9838 37.7881 81.2353 39.761 83.3362 42.0903C87.5848 46.8007 90.6638 52.3453 92.078 58.7516L92.1298 58.9904C93.7803 66.7196 92.9192 75.3247 89.0789 84.8441L88.9655 85.1232L72.8168 86.713L72.8228 86.7097C72.902 86.6539 72.6246 86.3615 72.6373 86.3697L72.8865 86.6093Z" fill="#2F4077"/>
<path fill-rule="evenodd" clip-rule="evenodd" d="M115.071 47.9062C115.071 47.9062 127.172 66.1313 107.029 84.6188L95.976 80.7375C95.976 80.7375 87.9901 57.3375 115.071 47.9062Z" fill="white"/>
<path fill-rule="evenodd" clip-rule="evenodd" d="M114.887 47.3749C105.572 50.6192 99.6676 55.7109 96.6455 62.1469C95.2297 65.1623 94.5034 68.363 94.3476 71.6463C94.2293 74.1406 94.4446 76.5152 94.8765 78.6714C94.9892 79.234 95.1095 79.743 95.2307 80.1926L95.295 80.4254C95.3605 80.6571 95.4125 80.8235 95.4453 80.9196C95.501 81.0829 95.6283 81.2114 95.7907 81.2684L106.844 85.1497C107.039 85.2182 107.256 85.1736 107.408 85.0337C114.157 78.8394 117.814 72.2549 118.898 65.5116C119.713 60.4431 119.031 55.67 117.397 51.4107C116.994 50.3604 116.562 49.4242 116.129 48.6131L116.029 48.428C115.931 48.2483 115.837 48.0845 115.75 47.9371L115.623 47.7275C115.587 47.6686 115.558 47.6242 115.539 47.5946C115.397 47.3811 115.129 47.2908 114.887 47.3749ZM114.83 48.588L114.869 48.6544L114.956 48.807C115.015 48.9123 115.076 49.0247 115.14 49.1439C115.552 49.9152 115.964 50.8092 116.35 51.8145C117.917 55.8999 118.571 60.477 117.79 65.3326L117.758 65.5272C116.698 71.8176 113.292 77.9834 107.041 83.8419L106.897 83.976L96.4271 80.2997L96.4078 80.234C96.3878 80.1656 96.3669 80.092 96.3451 80.0133C96.2199 79.5601 96.0942 79.0365 95.9767 78.4499C95.562 76.3792 95.3548 74.0954 95.4685 71.6997C95.6176 68.5571 96.3112 65.5002 97.6608 62.6261C100.492 56.5956 105.991 51.7814 114.717 48.6286L114.83 48.588Z" fill="#2F4077"/>
<path fill-rule="evenodd" clip-rule="evenodd" d="M127.49 63.8626C127.49 63.8626 126.199 89.6251 100.165 87.3188L94.1992 78.6188C94.1992 78.6188 100.483 55.7438 127.49 63.8626Z" fill="white"/>
<path fill-rule="evenodd" clip-rule="evenodd" d="M111.04 62.1343C106.951 63.0193 103.5 64.8768 100.639 67.5C98.3955 69.5571 96.6329 71.9711 95.294 74.5416C94.8131 75.4649 94.4173 76.3522 94.0998 77.1789L94.0333 77.354C93.8625 77.8097 93.7421 78.176 93.6673 78.4358L93.6591 78.465C93.6134 78.6261 93.6418 78.7993 93.7364 78.9374L99.7025 87.6374C99.7973 87.7756 99.9488 87.8643 100.115 87.879C106.573 88.4511 111.899 87.3591 116.181 84.838C119.777 82.721 122.523 79.668 124.526 75.9298C125.937 73.2974 126.898 70.482 127.495 67.6673C127.704 66.682 127.852 65.7665 127.951 64.9435L127.975 64.7326C127.994 64.5618 128.01 64.4037 128.022 64.2591L128.039 64.0517C128.045 63.9793 128.048 63.9254 128.05 63.8907C128.063 63.6321 127.898 63.398 127.65 63.3237C121.352 61.4302 115.831 61.0977 111.04 62.1343ZM126.732 64.226L126.894 64.2729L126.889 64.3311C126.874 64.4778 126.857 64.6376 126.837 64.8097C126.742 65.6002 126.599 66.4825 126.397 67.4334C125.821 70.1504 124.894 72.8668 123.538 75.3974C121.627 78.9636 119.019 81.8625 115.613 83.8679L115.49 83.9394C111.519 86.2396 106.588 87.2633 100.587 86.7896L100.477 86.7806L94.8141 78.5229L94.8633 78.3723C94.9419 78.1357 95.0362 77.8716 95.147 77.5832C95.4497 76.795 95.8282 75.9464 96.2887 75.0624C97.5706 72.6013 99.2568 70.2919 101.396 68.3302C104.115 65.8375 107.388 64.0756 111.277 63.234C115.724 62.2717 120.857 62.5407 126.732 64.226Z" fill="#2F4077"/>
<path fill-rule="evenodd" clip-rule="evenodd" d="M101.082 35.325C101.082 35.325 123.357 55.9874 101.811 88.3687L79.6863 86.9062C79.6863 86.9062 66.1644 56.3812 101.082 35.325Z" fill="white"/>
<path fill-rule="evenodd" clip-rule="evenodd" d="M100.793 34.8429C92.9457 39.5749 87.1271 45.0154 83.1372 51.0306C79.2473 56.8949 77.2001 63.133 76.6805 69.5337C76.2877 74.3716 76.7851 78.9613 77.8551 83.1017C78.1412 84.2089 78.4481 85.1985 78.7556 86.0578L78.8266 86.2537C78.908 86.4757 78.9846 86.6749 79.0551 86.8504L79.1449 87.0686C79.1563 87.0954 79.1659 87.1174 79.1734 87.1345C79.258 87.3255 79.4413 87.4537 79.6493 87.4675L101.774 88.93C101.975 88.9432 102.167 88.8482 102.278 88.6809C108.889 78.7445 111.853 69.2694 111.76 60.3494C111.689 53.3836 109.773 47.1521 106.626 41.7397C105.503 39.807 104.298 38.1171 103.092 36.6801C102.702 36.2145 102.336 35.806 102.003 35.4558L101.921 35.3694C101.814 35.2579 101.717 35.1593 101.63 35.0738L101.474 34.9226L101.463 34.9121C101.28 34.7421 101.007 34.714 100.793 34.8429ZM100.687 36.2243L100.999 36.0328L101.113 36.1499C101.45 36.5009 101.827 36.9196 102.234 37.4044C103.4 38.7939 104.567 40.4316 105.657 42.3062C108.711 47.5588 110.569 53.6031 110.638 60.361L110.64 60.6218C110.669 69.0617 107.884 78.0348 101.726 87.4778L101.524 87.786L80.0711 86.3679L80.0073 86.2046C79.946 86.0459 79.8806 85.8702 79.8119 85.6779C79.5156 84.8499 79.2188 83.8927 78.9414 82.8195C77.9011 78.7941 77.4171 74.3281 77.7989 69.6249C78.3036 63.4084 80.2906 57.3535 84.0716 51.6535C87.8507 45.9562 93.3249 40.7732 100.687 36.2243Z" fill="#2F4077"/>
<path fill-rule="evenodd" clip-rule="evenodd" d="M93.8995 50.9626C93.8995 50.9626 60.6277 66.0939 79.031 86.3251L94.1987 86.1001C94.1987 86.0814 112.191 73.0876 93.8995 50.9626Z" fill="white"/>
<path fill-rule="evenodd" clip-rule="evenodd" d="M94.7599 86.0999L94.7608 86.1087C94.778 86.1881 95.0451 86.044 95.3283 85.8667L95.4431 85.7936L95.5256 85.7196C95.6211 85.633 95.7189 85.5428 95.8188 85.4487C96.7713 84.5512 97.7202 83.4934 98.6064 82.2753C101.169 78.7522 102.698 74.6278 102.668 69.9407C102.63 63.9376 100.013 57.476 94.3316 50.6035C94.1701 50.4082 93.8983 50.3454 93.6678 50.4502L93.4779 50.539L93.2808 50.6335C93.1526 50.6956 93.0129 50.7643 92.8624 50.8395L92.7707 50.8855C92.0648 51.2405 91.279 51.6589 90.4332 52.1385C88.0171 53.5084 85.601 55.0953 83.3434 56.8821C78.5304 60.6914 75.0972 64.8761 73.6557 69.3905C71.8469 75.0555 73.3137 80.8744 78.6165 86.704L78.6423 86.7305C78.7485 86.8328 78.8911 86.8896 79.0394 86.8874L92.5085 86.6874L92.4121 86.7634C92.3939 86.7786 92.3998 86.7759 92.4241 86.7599L92.5315 86.6872L94.2071 86.6624C94.5028 86.658 94.7423 86.4249 94.759 86.1326L94.7599 86.0999ZM94.6316 86.4754L95.9964 85.4278C96.0776 85.3618 95.8482 85.5269 95.5656 85.7137L95.4431 85.7936L95.4308 85.8048C95.274 85.9449 95.1235 86.0747 94.9797 86.1945L94.8942 86.2653C94.797 86.3451 94.7111 86.4136 94.6316 86.4754ZM93.744 51.6584L93.7955 51.7218C99.0918 58.2523 101.51 64.3348 101.546 69.9479C101.574 74.3749 100.13 78.272 97.6997 81.6124C96.8569 82.771 95.9543 83.7772 95.0503 84.6288C94.7679 84.895 94.5045 85.1276 94.2628 85.329L94.1308 85.4377L94.0333 85.5161L94.0027 85.5402L79.2767 85.7587L79.1476 85.6136C74.3514 80.1881 73.0762 74.8954 74.7245 69.7335C76.086 65.4696 79.3851 61.4483 84.0387 57.7651C86.2474 56.017 88.6165 54.461 90.9857 53.1177C91.8147 52.6476 92.5841 52.2379 93.2739 51.891L93.533 51.7619L93.744 51.6584Z" fill="#2F4077"/>
<path fill-rule="evenodd" clip-rule="evenodd" d="M44.5068 68.9812C44.5068 68.9812 55.0738 93.45 81.0703 90.8437L86.0264 86.5312C86.0264 86.5312 71.4198 60.5437 44.5068 68.9812Z" fill="white"/>
<path fill-rule="evenodd" clip-rule="evenodd" d="M44.3391 68.4444C44.0211 68.5441 43.8593 68.8981 43.9917 69.2047L44.0439 69.3218L44.1111 69.4674C44.2079 69.6748 44.3245 69.9145 44.4611 70.1839C44.8496 70.9503 45.3214 71.8028 45.8784 72.7201C47.4682 75.3381 49.4247 77.9554 51.7662 80.3993C55.1414 83.9223 59.0332 86.7829 63.4653 88.7428C68.7666 91.0871 74.6492 92.0528 81.1259 91.4035C81.2412 91.3919 81.3502 91.3448 81.4378 91.2686L86.394 86.9561C86.5953 86.7809 86.6459 86.4879 86.515 86.2551L86.4399 86.1252L86.3813 86.0264C86.2734 85.8456 86.1447 85.6367 85.9951 85.402C85.5697 84.7341 85.0622 83.991 84.4732 83.1915C82.7923 80.9099 80.7932 78.6291 78.4802 76.4993C74.3917 72.7347 69.7715 69.856 64.63 68.2195C58.3448 66.2189 51.5715 66.177 44.3391 68.4444ZM64.2904 69.2918C69.2634 70.8747 73.7458 73.6675 77.7211 77.3279C79.9779 79.4058 81.9302 81.6333 83.5706 83.8599C84.1441 84.6383 84.6373 85.3605 85.0494 86.0075L85.1023 86.0908C85.1542 86.1729 85.2032 86.2514 85.2494 86.326L85.3039 86.4148L80.8376 90.3011L80.5963 90.3237C74.4795 90.8717 68.9298 89.9298 63.9181 87.7135C59.6285 85.8166 55.8544 83.0425 52.5755 79.62C50.2944 77.2391 48.3863 74.6867 46.8369 72.1351C46.329 71.2988 45.8949 70.5192 45.5328 69.8141L45.4185 69.5891L45.337 69.4257L45.2901 69.3304L45.3038 69.3263C52.0771 67.3242 58.4052 67.4185 64.2904 69.2918Z" fill="#2F4077"/>
<path fill-rule="evenodd" clip-rule="evenodd" d="M113.575 85.0874H61.2271C60.2358 85.0874 59.4316 85.8937 59.4316 86.8874V93.4687C59.4316 94.4624 60.2358 95.2687 61.2271 95.2687H64.2195L73.1406 134.569H101.456L110.377 95.2687H113.575C114.567 95.2687 115.371 94.4624 115.371 93.4687V86.8874C115.371 85.8937 114.567 85.0874 113.575 85.0874Z" fill="#FAA184"/>
<path fill-rule="evenodd" clip-rule="evenodd" d="M109.423 94.7063C109.733 94.7063 109.984 94.9581 109.984 95.2688C109.984 95.5684 109.75 95.8132 109.456 95.8303L109.423 95.8313H65.2476C64.9377 95.8313 64.6865 95.5795 64.6865 95.2688C64.6865 94.9692 64.9201 94.7244 65.2146 94.7073L65.2476 94.7063H109.423Z" fill="#2F4077"/>
<path fill-rule="evenodd" clip-rule="evenodd" d="M209.594 39.2439C209.276 39.3939 202.936 39.7501 199.869 39.9189C198.877 39.9751 197.998 40.5939 197.606 41.5126L196.091 45.0939" fill="white"/>
<path fill-rule="evenodd" clip-rule="evenodd" d="M209.355 38.7348C209.635 38.6025 209.969 38.7232 210.101 39.0043C210.233 39.2854 210.113 39.6205 209.833 39.7527C209.464 39.9265 206.449 40.1201 199.9 40.4804C199.141 40.5235 198.465 40.9875 198.146 41.6785L198.122 41.7321L196.607 45.3134C196.486 45.5994 196.157 45.7329 195.871 45.6116C195.596 45.4947 195.463 45.1835 195.562 44.905L195.574 44.8742L197.09 41.291C197.566 40.1763 198.632 39.4255 199.838 39.3571L202.497 39.2071C206.305 38.9867 209.167 38.7949 209.349 38.7369L209.355 38.7348Z" fill="#2F4077"/>
<path fill-rule="evenodd" clip-rule="evenodd" d="M206.49 42.1311C206.49 42.1311 211.446 39.2999 212.512 40.5374C213.56 41.7749 213.036 43.2749 209.015 44.4936C204.994 45.6936 206.49 42.1311 206.49 42.1311Z" fill="white"/>
<path fill-rule="evenodd" clip-rule="evenodd" d="M209.41 40.1496C209.008 40.2956 208.586 40.4692 208.152 40.6648C207.678 40.8783 207.214 41.1065 206.779 41.3349L206.561 41.4504C206.515 41.475 206.471 41.499 206.429 41.5221L206.212 41.6425C206.105 41.7038 206.021 41.7988 205.973 41.9129C205.93 42.0142 205.871 42.1776 205.813 42.3849C205.715 42.7373 205.655 43.0926 205.656 43.4373C205.66 45.0108 206.871 45.7204 209.175 45.0328C211.192 44.4213 212.493 43.7006 213.115 42.8569C213.746 42.0012 213.659 41.0557 212.98 40.2215L212.937 40.1698C212.297 39.4269 211.096 39.5384 209.41 40.1496ZM212.084 40.9014C212.482 41.372 212.524 41.7657 212.213 42.1884C211.766 42.7937 210.657 43.4082 208.852 43.9553C207.921 44.2332 207.329 44.235 207.037 44.0637C206.864 43.9623 206.779 43.7628 206.778 43.4345C206.778 43.207 206.821 42.9492 206.894 42.6887L206.924 42.5873L206.945 42.5212L207.158 42.4062C207.204 42.382 207.251 42.3572 207.299 42.3317C207.716 42.1131 208.16 41.8945 208.612 41.6909C209.022 41.5063 209.418 41.3432 209.792 41.2075L209.935 41.1565C211.071 40.762 211.867 40.6909 212.075 40.8922L212.084 40.9014Z" fill="#2F4077"/>
<path fill-rule="evenodd" clip-rule="evenodd" d="M205.685 45.9561C205.685 45.9561 210.642 43.1248 211.708 44.3623C212.774 45.5998 212.231 47.0998 208.21 48.3186C204.189 49.5373 205.685 45.9561 205.685 45.9561Z" fill="white"/>
<path fill-rule="evenodd" clip-rule="evenodd" d="M208.606 43.9745C208.203 44.1205 207.781 44.2942 207.347 44.4897C206.873 44.7032 206.41 44.9315 205.974 45.1598L205.757 45.2754C205.711 45.3 205.667 45.3239 205.624 45.347L205.407 45.4674C205.3 45.5289 205.215 45.6243 205.167 45.7388C205.125 45.8404 205.066 46.0045 205.008 46.2125C204.91 46.5649 204.851 46.9201 204.852 47.2646C204.854 48.8451 206.065 49.5563 208.372 48.8571L208.593 48.7887C210.485 48.1923 211.716 47.494 212.317 46.6828C212.964 45.808 212.859 44.8391 212.132 43.9947C211.492 43.2519 210.291 43.3634 208.606 43.9745ZM211.283 44.7301C211.686 45.1984 211.729 45.5897 211.416 46.0123C210.968 46.6174 209.854 47.2326 208.047 47.7802C207.113 48.0633 206.523 48.067 206.232 47.8962C206.059 47.7951 205.974 47.5941 205.974 47.2632C205.973 47.0348 206.016 46.7763 206.089 46.515L206.109 46.4463L206.129 46.3804L206.14 46.346L206.354 46.2311C206.399 46.207 206.446 46.1821 206.495 46.1566C206.911 45.9381 207.355 45.7194 207.807 45.5158C208.217 45.3312 208.613 45.1681 208.987 45.0325L209.131 44.9815C210.266 44.5869 211.063 44.5159 211.27 44.7171L211.283 44.7301Z" fill="#2F4077"/>
<path fill-rule="evenodd" clip-rule="evenodd" d="M204.189 47.2124C204.189 47.2124 209.8 46.1812 210.398 47.6999C210.996 49.2187 209.987 50.4562 205.797 50.2874C201.608 50.0812 204.189 47.2124 204.189 47.2124Z" fill="white"/>
<path fill-rule="evenodd" clip-rule="evenodd" d="M207.303 46.3149C206.652 46.3347 205.96 46.3951 205.261 46.4834C205.002 46.5161 204.757 46.5509 204.53 46.586L204.315 46.6203L204.1 46.6571L204.088 46.6592C203.966 46.6816 203.855 46.7436 203.773 46.8357L203.719 46.8976C203.605 47.0311 203.462 47.2228 203.318 47.4573C203.067 47.866 202.898 48.2796 202.853 48.6949C202.716 49.9584 203.712 50.748 205.77 50.8493L206.002 50.8574C207.984 50.915 209.375 50.66 210.209 50.0917C211.108 49.4788 211.329 48.5295 210.92 47.4933C210.542 46.5321 209.265 46.2551 207.303 46.3149ZM209.877 47.9067C210.103 48.4806 210.014 48.8644 209.578 49.1614C208.955 49.5858 207.703 49.8013 205.82 49.7254L205.675 49.7173C204.308 49.6299 203.916 49.3012 203.969 48.8168C203.993 48.5944 204.103 48.3255 204.274 48.0463L204.319 47.9744C204.365 47.9034 204.413 47.8352 204.461 47.7709L204.491 47.7313L204.595 47.7145L204.811 47.681C204.997 47.6532 205.195 47.6257 205.402 47.5995C206.068 47.5154 206.726 47.458 207.337 47.4393L207.494 47.4355C208.864 47.4102 209.762 47.6148 209.877 47.9067Z" fill="#2F4077"/>
<path fill-rule="evenodd" clip-rule="evenodd" d="M202.787 54.9376C201.814 63.6189 192.65 88.9689 184.047 89.8876C174.789 90.8626 171.535 81.9564 178.66 74.3814C185.767 66.8064 190.873 56.9439 193.865 51.5251C193.865 51.5251 193.716 44.2314 196.035 44.0439C198.317 43.8189 202.787 54.9376 202.787 54.9376Z" fill="white"/>
<path fill-rule="evenodd" clip-rule="evenodd" d="M195.98 43.484C194.604 43.5952 193.899 45.1551 193.54 47.664C193.423 48.4822 193.354 49.3564 193.322 50.2358C193.312 50.506 193.306 50.7625 193.304 51.0012L193.302 51.3308L193.302 51.3827L191.72 54.2692L191.383 54.8808C190.795 55.9433 190.268 56.8816 189.729 57.8207C188.058 60.7299 186.443 63.3386 184.746 65.8113C182.639 68.8798 180.487 71.6128 178.251 73.9959C170.834 81.8814 174.233 91.4866 184.105 90.4469C188.28 90.001 192.691 84.4114 196.787 75.5602C200.1 68.4005 202.814 59.7275 203.344 55.0003C203.354 54.9076 203.341 54.8138 203.307 54.7273L203.138 54.3168L203.004 53.9959C202.875 53.6896 202.733 53.359 202.58 53.009C202.017 51.7228 201.419 50.4364 200.808 49.2338C200.295 48.2225 199.796 47.3156 199.317 46.5378L199.233 46.4018C198.001 44.4294 196.984 43.385 195.98 43.484ZM196.08 44.6045C196.462 44.5668 197.299 45.4263 198.281 46.9988C198.766 47.7749 199.278 48.7008 199.808 49.7441C200.408 50.9253 200.998 52.1929 201.552 53.4607L201.679 53.7518C201.782 53.9903 201.879 54.2182 201.97 54.4337L202.152 54.8689L202.212 55.0159L202.195 55.1551C201.607 59.8098 198.97 68.17 195.769 75.0867C191.839 83.5782 187.607 88.9415 183.987 89.3282C175.246 90.2488 172.309 81.9524 179.068 74.7672C181.347 72.3388 183.533 69.5619 185.67 66.4491C187.323 64.0417 188.896 61.5104 190.514 58.7068L190.701 58.382C191.244 57.4372 191.774 56.494 192.364 55.4267L194.356 51.7975C194.404 51.711 194.428 51.6135 194.426 51.5147L194.424 51.3255C194.424 51.2669 194.424 51.2 194.425 51.1257L194.427 50.8967C194.43 50.701 194.435 50.4937 194.443 50.277C194.474 49.4344 194.54 48.5983 194.651 47.8237L194.678 47.6431C194.968 45.7707 195.49 44.6521 196.08 44.6045Z" fill="#2F4077"/>
<path fill-rule="evenodd" clip-rule="evenodd" d="M196.371 53.7376L204.544 56.9438C205.236 57.2063 206.003 56.8688 206.265 56.1938L213.203 38.4376C213.465 37.7438 213.129 36.9751 212.455 36.7126L204.282 33.5063C203.59 33.2438 202.824 33.5813 202.562 34.2563L195.623 52.0126C195.361 52.6876 195.698 53.4563 196.371 53.7376Z" fill="#2F4077"/>
<path fill-rule="evenodd" clip-rule="evenodd" d="M197.98 52.5377L203.553 54.7314C204.245 54.9939 205.012 54.6564 205.274 53.9814L211.109 39.0564C211.371 38.3627 211.034 37.5939 210.361 37.3314L204.787 35.1377C204.095 34.8752 203.328 35.2127 203.067 35.8877L197.231 50.8127C196.97 51.5064 197.306 52.2752 197.98 52.5377Z" fill="white"/>
<path fill-rule="evenodd" clip-rule="evenodd" d="M202.543 35.6837L196.706 50.6135C196.337 51.5927 196.812 52.6862 197.776 53.0618L203.347 55.2549C204.331 55.6279 205.421 55.1511 205.796 54.1852L211.631 39.2616C212.003 38.2762 211.527 37.1827 210.564 36.807L204.992 34.614C204.009 34.2409 202.918 34.7178 202.543 35.6837ZM204.588 35.6636L210.155 37.8549C210.543 38.006 210.737 38.4517 210.584 38.8572L204.751 53.776C204.6 54.1643 204.156 54.3586 203.751 54.2052L198.184 52.014L198.148 51.9989C197.797 51.8403 197.619 51.432 197.742 51.0497L197.754 51.0154L203.589 36.0928C203.739 35.7046 204.184 35.5102 204.588 35.6636Z" fill="#2F4077"/>
<path fill-rule="evenodd" clip-rule="evenodd" d="M196.764 49.1626C197.213 48.2813 197.905 47.2876 198.971 46.4438C204.339 46.0688 202.936 43.9876 201.365 43.1063C199.738 42.2063 197.232 42.6188 195.717 44.0813" fill="white"/>
<path fill-rule="evenodd" clip-rule="evenodd" d="M195.327 43.6762C197.005 42.0566 199.776 41.5851 201.638 42.6155C202.734 43.2299 203.49 44.1447 203.321 45.0664C203.123 46.149 201.791 46.7695 199.311 46.9816L199.187 46.9915L199.124 47.0443C198.362 47.6903 197.769 48.4586 197.319 49.3114L197.263 49.4184C197.122 49.6951 196.785 49.8048 196.509 49.6636C196.233 49.5223 196.123 49.1835 196.264 48.9068C196.827 47.8022 197.6 46.8123 198.623 46.0023C198.711 45.9323 198.819 45.8906 198.932 45.8827C201.133 45.7289 202.14 45.2891 202.218 44.8635C202.273 44.5605 201.811 44.0013 201.093 43.5989C199.68 42.8169 197.44 43.198 196.106 44.4865C195.882 44.702 195.527 44.6953 195.312 44.4715C195.097 44.2477 195.104 43.8916 195.327 43.6762Z" fill="#2F4077"/>
<path fill-rule="evenodd" clip-rule="evenodd" d="M180.156 93L185.356 79.9875C185.356 79.9875 158.33 54.9562 149.634 52.9687C143.892 51.6562 132.091 51.3375 126.929 53.9625L115.539 56.25C111.537 54.825 106.693 55.6312 102.99 60.2437C95.3404 69.7687 88.2334 104.962 88.2334 104.962L102.447 106.275L103.756 103.65C103.756 103.65 98.819 134.644 106.524 134.644C107.235 134.644 150.232 134.287 150.232 134.287L149.185 98.0812C149.185 98.0812 152.102 87.1687 152.42 78.3937C166.242 86.1562 180.156 93 180.156 93Z" fill="#2F4077"/>
<path fill-rule="evenodd" clip-rule="evenodd" d="M135.158 40.2188L133.4 52.9688L137.945 52.6876C137.945 52.6876 139.983 63.3751 128.593 65.0063C120.663 66.1314 120.252 54.2438 120.252 54.2438L120.607 33.1313L135.158 40.2188Z" fill="white"/>
<path fill-rule="evenodd" clip-rule="evenodd" d="M120.047 33.1218L119.691 54.2343L119.692 54.2633L119.698 54.397L119.706 54.529C119.709 54.5755 119.713 54.6245 119.717 54.6758L119.723 54.7546C119.753 55.1359 119.799 55.5599 119.864 56.016C120.048 57.3208 120.344 58.6265 120.778 59.851C122.197 63.8521 124.755 66.1189 128.672 65.5632C133.496 64.8723 136.437 62.563 137.804 59.161C138.616 57.141 138.778 55.0228 138.574 53.1384L138.561 53.0234C138.537 52.822 138.513 52.6726 138.496 52.5819L138.489 52.5489C138.423 52.2886 138.181 52.1094 137.91 52.1261L134.05 52.3648L135.714 40.2958C135.747 40.0546 135.622 39.8193 135.403 39.7128L120.853 32.6253C120.484 32.4456 120.054 32.7106 120.047 33.1218ZM121.154 34.0227L134.547 40.5463L132.844 52.8918L132.841 52.9246C132.814 53.2627 133.092 53.5514 133.435 53.5302L137.46 53.281L137.458 53.2602C137.644 54.9763 137.496 56.9184 136.763 58.7406C135.546 61.7701 132.942 63.8154 128.514 64.4494C125.227 64.9159 123.096 63.0279 121.836 59.4741C121.429 58.3279 121.149 57.0936 120.975 55.8583C120.914 55.4254 120.87 55.0238 120.841 54.6643L120.83 54.5213C120.826 54.4534 120.822 54.3908 120.818 54.334L120.813 54.2367L121.154 34.0227Z" fill="#2F4077"/>
<path fill-rule="evenodd" clip-rule="evenodd" d="M121.767 33L120.532 33.4687C120.532 33.4687 113.257 35.5687 112.659 28.5375C112.21 23.1937 117.334 22.6875 119.84 22.7625" fill="white"/>
<path fill-rule="evenodd" clip-rule="evenodd" d="M114.887 23.1167C116.292 22.3997 118.034 22.1457 119.858 22.2002C120.167 22.2095 120.411 22.4688 120.402 22.7793C120.392 23.0898 120.134 23.334 119.824 23.3247C118.172 23.2753 116.601 23.5044 115.396 24.1192C113.824 24.9216 113.034 26.3023 113.218 28.4897C113.449 31.203 114.702 32.5858 116.701 33.0408C117.683 33.2644 118.75 33.2398 119.764 33.0615C119.907 33.0364 120.038 33.0099 120.155 32.9833L120.287 32.952L120.357 32.9338L121.569 32.474C121.848 32.3679 122.159 32.5001 122.279 32.7702L122.292 32.8007C122.398 33.0809 122.266 33.3928 121.997 33.5134L121.966 33.526L120.732 33.9948C120.717 34.0002 120.703 34.005 120.688 34.0093L120.624 34.027C120.474 34.0671 120.247 34.1187 119.958 34.1696C118.81 34.3715 117.601 34.3994 116.452 34.1379C113.987 33.5765 112.373 31.7965 112.1 28.5847C111.877 25.9351 112.914 24.1241 114.887 23.1167Z" fill="#2F4077"/>
<path fill-rule="evenodd" clip-rule="evenodd" d="M147.801 25.725C148.026 28.95 147.39 43.8375 137.44 45.3563C127.49 46.875 120.458 37.8375 119.149 28.2938C117.84 18.75 121.786 10.575 128.051 9.46878C134.335 8.34378 146.193 2.43753 147.801 25.725Z" fill="white"/>
<path fill-rule="evenodd" clip-rule="evenodd" d="M136.056 7.42293C134.558 7.47338 133.142 7.71747 131.008 8.22238L129.328 8.62424L129.114 8.67366C128.663 8.77673 128.292 8.8542 127.953 8.91504C121.307 10.0884 117.254 18.6068 118.593 28.3704C119.275 33.3456 121.455 38.0701 124.652 41.3657C128.154 44.9749 132.628 46.6597 137.524 45.9124C142.199 45.1989 145.266 41.7003 146.97 36.3516C148.122 32.737 148.548 28.3827 148.361 25.6862C147.865 18.506 146.38 13.6621 143.982 10.7712C141.932 8.30057 139.303 7.31354 136.056 7.42293ZM143.119 11.4905C145.319 14.1427 146.732 18.7056 147.227 25.5559L147.241 25.7642C147.42 28.3261 147.007 32.5392 145.901 36.0094C144.314 40.9922 141.534 44.1623 137.355 44.8002C132.833 45.4905 128.715 43.9399 125.456 40.5813C122.432 37.4641 120.356 32.9621 119.705 28.2171C118.438 18.9846 122.203 11.0725 128.149 10.0228L128.317 9.9918C128.658 9.92745 129.028 9.84799 129.47 9.74598L131.121 9.35167C133.27 8.83931 134.656 8.59573 136.094 8.5473C139.017 8.44882 141.31 9.30973 143.119 11.4905Z" fill="#2F4077"/>
<path fill-rule="evenodd" clip-rule="evenodd" d="M138.865 18.8169C139.158 18.7589 139.443 18.9413 139.516 19.2277L139.524 19.2599L141.899 31.3349C141.963 31.6632 141.73 31.9723 141.402 32.0037L141.369 32.0059L138.377 32.1184C138.067 32.13 137.807 31.8878 137.795 31.5773C137.784 31.278 138.008 31.0245 138.302 30.9963L138.335 30.9942L140.671 30.9064L138.423 19.4776C138.365 19.1837 138.547 18.8981 138.832 18.8242L138.865 18.8169Z" fill="#2F4077"/>
<path fill-rule="evenodd" clip-rule="evenodd" d="M132.374 20.2816C133.584 19.3896 134.907 19.1353 136.152 19.9892C136.195 20.019 136.239 20.0501 136.281 20.0824C136.529 20.2696 136.578 20.6223 136.391 20.8703C136.204 21.1182 135.853 21.1675 135.605 20.9804C135.576 20.9585 135.547 20.9376 135.518 20.9177C134.745 20.387 133.907 20.5481 133.039 21.188C132.855 21.3234 132.687 21.4693 132.54 21.6146L132.487 21.668C132.446 21.7097 132.414 21.7439 132.392 21.7689L132.37 21.7942C132.17 22.0316 131.816 22.0617 131.579 21.8613C131.342 21.661 131.312 21.3061 131.512 21.0687L131.549 21.0265C131.597 20.9719 131.666 20.899 131.753 20.8129C131.937 20.6317 132.144 20.451 132.374 20.2816Z" fill="#2F4077"/>
<path fill-rule="evenodd" clip-rule="evenodd" d="M142.462 19.8451C143.341 19.3406 144.255 19.1116 145.149 19.3402C145.633 19.4638 146.079 19.7198 146.475 20.1127C146.695 20.3312 146.697 20.6873 146.479 20.9082C146.262 21.129 145.906 21.1309 145.686 20.9124C145.431 20.659 145.16 20.504 144.872 20.4303C144.313 20.2872 143.67 20.4482 143.02 20.8212C142.845 20.9219 142.684 21.0301 142.541 21.1377L142.49 21.177C142.451 21.2076 142.42 21.2327 142.399 21.2508L142.378 21.2691C142.147 21.4763 141.792 21.4567 141.585 21.2252C141.379 20.9937 141.398 20.6381 141.629 20.4309L141.666 20.3992C141.714 20.3582 141.781 20.3036 141.866 20.2393C142.044 20.1047 142.244 19.9706 142.462 19.8451Z" fill="#2F4077"/>
<path fill-rule="evenodd" clip-rule="evenodd" d="M136.914 27.0627C136.927 26.1929 136.493 25.4814 135.946 25.4734C135.399 25.4654 134.945 26.164 134.932 27.0338C134.919 27.9036 135.353 28.6151 135.9 28.6231C136.448 28.6311 136.902 27.9325 136.914 27.0627Z" fill="#2F4077"/>
<path fill-rule="evenodd" clip-rule="evenodd" d="M146.488 27.5419C146.5 26.6722 146.067 25.9606 145.519 25.9527C144.972 25.9447 144.518 26.6433 144.505 27.513C144.493 28.3828 144.926 29.0944 145.474 29.1023C146.021 29.1103 146.475 28.4117 146.488 27.5419Z" fill="#2F4077"/>
<path fill-rule="evenodd" clip-rule="evenodd" d="M125.52 24.7029C125.278 29.6391 128.062 33.8299 131.814 34.016C135.566 34.2021 138.748 30.3073 138.991 25.3711C139.233 20.4349 136.449 16.2441 132.697 16.058C128.945 15.8718 125.763 19.7667 125.52 24.7029ZM126.361 24.7446C126.583 20.2282 129.432 16.7407 132.655 16.9006C135.879 17.0605 138.372 20.813 138.15 25.3294C137.928 29.8458 135.079 33.3333 131.856 33.1734C128.633 33.0135 126.139 29.261 126.361 24.7446Z" fill="#E4794A"/>
<path fill-rule="evenodd" clip-rule="evenodd" d="M142.218 25.1489C141.975 30.0851 144.76 34.2759 148.512 34.4621C152.264 34.6482 155.445 30.7533 155.688 25.8171C155.931 20.881 153.146 16.6901 149.394 16.504C145.642 16.3179 142.46 20.2127 142.218 25.1489ZM143.058 25.1906C143.28 20.6742 146.129 17.1868 149.353 17.3466C152.576 17.5065 155.069 21.259 154.847 25.7754C154.625 30.2918 151.776 33.7793 148.553 33.6194C145.33 33.4595 142.836 29.707 143.058 25.1906Z" fill="#E4794A"/>
<path fill-rule="evenodd" clip-rule="evenodd" d="M138.798 22.5286L142.763 22.6411C142.995 22.6477 143.178 22.8418 143.172 23.0747C143.165 23.2979 142.987 23.4757 142.768 23.4843L142.739 23.4845L138.774 23.372C138.542 23.3654 138.359 23.1712 138.365 22.9383C138.372 22.7151 138.55 22.5373 138.769 22.5287L138.798 22.5286Z" fill="#E4794A"/>
<path fill-rule="evenodd" clip-rule="evenodd" d="M126.303 21.3683C126.534 21.3429 126.742 21.5101 126.767 21.7417C126.792 21.9637 126.64 22.1642 126.424 22.2029L126.395 22.207L117.175 23.2195C116.944 23.2449 116.736 23.0777 116.711 22.8461C116.686 22.6241 116.838 22.4235 117.054 22.3849L117.083 22.3808L126.303 21.3683Z" fill="#E4794A"/>
<path fill-rule="evenodd" clip-rule="evenodd" d="M135.401 36.375C135.401 36.375 137.216 37.8563 139.03 37.2938L135.401 36.375Z" fill="white"/>
<path fill-rule="evenodd" clip-rule="evenodd" d="M138.895 36.7475C139.182 36.6766 139.477 36.8414 139.565 37.1276C139.654 37.4138 139.503 37.7169 139.2 37.8279L139.165 37.8395L139.195 37.8312C138.131 38.1612 137.028 37.9446 135.97 37.3981C135.727 37.2725 135.505 37.1381 135.308 37.0031L135.232 36.9503C135.149 36.8917 135.087 36.8441 135.047 36.8112C134.806 36.615 134.77 36.2607 134.966 36.0198C135.154 35.7882 135.488 35.7458 135.727 35.9173L135.813 35.9835C135.846 36.0076 135.889 36.0382 135.941 36.0739C136.102 36.1841 136.285 36.2949 136.484 36.3982C137.28 36.8095 138.079 36.9741 138.824 36.7684L138.895 36.7475Z" fill="#2F4077"/>
<path fill-rule="evenodd" clip-rule="evenodd" d="M153.917 10.7438C150.083 -5.17494 129.659 -0.262437 126.461 6.75006C113.052 3.67506 107.74 13.4813 105.178 19.8188C102.709 25.9501 104.112 31.7813 107.123 38.3626C108.862 42.1501 116.362 39.5251 120.42 39.0563L120.439 33.5063C119.616 33.7126 113.201 35.1376 112.659 28.5563C112.453 26.1563 113.388 24.7313 114.697 23.8876C115.184 24.5626 116.1 24.8626 117.615 24.5251C122.908 23.4001 125.863 18.3001 127.247 15.0001L151.354 14.1188C153.075 14.0626 154.328 12.4313 153.917 10.7438Z" fill="#2F4077"/>
<path fill-rule="evenodd" clip-rule="evenodd" d="M124.763 49.5644C125.916 43.7339 122.743 38.1915 117.678 37.1849C112.612 36.1784 107.571 40.0889 106.418 45.9194C105.265 51.7498 108.438 57.2923 113.504 58.2988C118.57 59.3054 123.611 55.3948 124.763 49.5644Z" fill="#2F4077"/>
<path fill-rule="evenodd" clip-rule="evenodd" d="M132.528 61.5806C134.242 57.6303 132.852 53.2158 129.423 51.7204C125.994 50.2251 121.825 52.2152 120.111 56.1655C118.397 60.1158 119.787 64.5303 123.216 66.0256C126.645 67.521 130.814 65.5309 132.528 61.5806Z" fill="#2F4077"/>
<path fill-rule="evenodd" clip-rule="evenodd" d="M137.211 72.0625C139.669 69.101 139.581 64.9662 137.016 62.8272C134.451 60.6882 130.38 61.355 127.923 64.3166C125.466 67.2781 125.553 71.4129 128.118 73.5519C130.683 75.6909 134.754 75.0241 137.211 72.0625Z" fill="#2F4077"/>
<path fill-rule="evenodd" clip-rule="evenodd" d="M135.027 81.7127C137.159 83.4752 140.544 82.9127 142.583 80.4752C144.622 78.0377 144.528 74.6252 142.396 72.8627C140.264 71.1002 136.804 71.494 134.765 73.9315C132.727 76.3877 132.895 79.969 135.027 81.7127Z" fill="#2F4077"/>
<path fill-rule="evenodd" clip-rule="evenodd" d="M137.253 88.9878C139.534 90.6378 139.703 92.4565 139.329 93.8253C139.142 94.4628 139.871 95.0065 140.413 94.6315C143.593 92.4565 148.586 88.0878 145.575 83.6253C144.154 81.5065 141.161 80.869 138.637 82.3503C136.093 83.8315 135.177 87.5065 137.253 88.9878Z" fill="#2F4077"/>
<path fill-rule="evenodd" clip-rule="evenodd" d="M124.248 50.0902C124.46 49.7347 124.92 49.6189 125.274 49.8316C125.617 50.0374 125.737 50.4753 125.552 50.8255L125.532 50.8602L121.773 57.1602C121.561 57.5157 121.102 57.6315 120.747 57.4188C120.404 57.2131 120.285 56.7751 120.47 56.4249L120.489 56.3902L124.248 50.0902Z" fill="#E4794A"/>
<path fill-rule="evenodd" clip-rule="evenodd" d="M132.537 60.8412C132.859 60.5812 133.33 60.6319 133.589 60.9543C133.84 61.2661 133.801 61.7177 133.508 61.9823L133.477 62.009L128.651 65.909C128.33 66.1689 127.859 66.1183 127.599 65.7958C127.349 65.4841 127.388 65.0325 127.681 64.7679L127.712 64.7412L132.537 60.8412Z" fill="#E4794A"/>
<path fill-rule="evenodd" clip-rule="evenodd" d="M135.959 72.4011C136.327 72.2127 136.777 72.3589 136.965 72.7278C137.147 73.0848 137.016 73.5194 136.674 73.7179L136.639 73.7369L134.919 74.6181C134.551 74.8066 134.1 74.6603 133.912 74.2915C133.73 73.9345 133.861 73.4999 134.203 73.3014L134.238 73.2824L135.959 72.4011Z" fill="#E4794A"/>
<path fill-rule="evenodd" clip-rule="evenodd" d="M140.661 80.5895C141.052 80.4573 141.477 80.6684 141.608 81.0609C141.736 81.4412 141.543 81.8523 141.174 81.9978L141.138 82.011L139.305 82.6298C138.914 82.762 138.49 82.5509 138.358 82.1583C138.23 81.7781 138.424 81.367 138.792 81.2215L138.828 81.2082L140.661 80.5895Z" fill="#E4794A"/>
<path fill-rule="evenodd" clip-rule="evenodd" d="M75.7963 125.738C75.7963 125.738 67.2492 130.331 64.874 131.569C62.4988 132.806 62.5923 134.381 62.5923 134.381H65.5847L74.3375 130.594" fill="white"/>
<path fill-rule="evenodd" clip-rule="evenodd" d="M76.2905 125.472C76.4369 125.745 76.3342 126.086 76.0611 126.233L72.6058 128.087L67.7476 130.684C66.5727 131.31 65.6804 131.782 65.1324 132.068C64.7653 132.259 64.4518 132.464 64.1878 132.68C63.7586 133.032 63.4783 133.395 63.314 133.753L63.2851 133.818H65.4686L74.1148 130.077C74.3892 129.959 74.706 130.076 74.8384 130.341L74.8523 130.371C74.9707 130.646 74.8531 130.963 74.5894 131.096L74.5595 131.11L65.8068 134.898C65.7506 134.922 65.6909 134.937 65.6302 134.942L65.5844 134.944H62.592C62.3061 134.944 62.0678 134.729 62.0348 134.447L62.0312 134.4L62.0309 134.392C62.0238 134.156 62.0729 133.832 62.2219 133.453C62.4472 132.88 62.8546 132.32 63.4778 131.809C63.7732 131.567 64.1125 131.341 64.498 131.132L65.5481 130.579C66.2125 130.228 67.0745 129.77 68.1034 129.221L70.7661 127.797L75.5309 125.242C75.804 125.095 76.1441 125.198 76.2905 125.472Z" fill="#2F4077"/>
<path fill-rule="evenodd" clip-rule="evenodd" d="M88.8692 104.531L82.7535 126.563L77.9282 125.625C76.4507 125.438 74.9732 125.869 73.8137 126.806L65.0235 133.275C64.5559 133.631 64.799 134.381 65.3788 134.381C70.9148 134.363 84.4367 134.325 86.7558 134.381C89.9352 134.456 91.7307 133.181 94.4051 126.375C95.8078 122.794 99.0059 113.175 102.017 105.581L88.8692 104.531Z" fill="white"/>
<path fill-rule="evenodd" clip-rule="evenodd" d="M88.8805 103.969C88.626 103.964 88.3978 104.132 88.3288 104.38L82.3517 125.911L78.0351 125.073L77.9988 125.067L77.9051 125.056C76.3441 124.883 74.7821 125.333 73.536 126.309L73.4736 126.359L64.6916 132.822C63.7929 133.506 64.2564 134.944 65.379 134.944L71.1599 134.927C78.4537 134.908 84.31 134.907 86.3319 134.936L86.7424 134.944C90.4529 135.031 92.3329 133.184 94.9273 126.581L95.037 126.294C95.874 124.064 99.3283 114.316 100.271 111.753L100.481 111.183C100.863 110.149 101.231 109.168 101.588 108.233L101.685 107.979C101.978 107.216 102.262 106.486 102.539 105.789C102.678 105.437 102.438 105.051 102.062 105.021L88.9139 103.971L88.8805 103.969ZM89.2858 105.129L101.217 106.082L101.18 106.176C101.073 106.449 100.966 106.725 100.857 107.007L100.638 107.576C100.249 108.591 99.8474 109.66 99.4287 110.792L99.1208 111.629C97.9969 114.707 94.4339 124.763 93.883 126.169L93.7376 126.537C91.4039 132.381 89.8729 133.861 86.8627 133.821L86.5814 133.815C84.3541 133.774 75.5779 133.784 65.3771 133.819C65.3406 133.819 65.3202 133.756 65.3631 133.723L74.1458 127.26L74.166 127.244L74.2362 127.188C75.2478 126.4 76.5092 126.036 77.7699 126.173L77.8418 126.181L82.6468 127.115C82.934 127.171 83.2157 126.996 83.2941 126.713L89.2858 105.129Z" fill="#2F4077"/>
<path fill-rule="evenodd" clip-rule="evenodd" d="M67.6787 134.381C67.6787 134.381 74.4116 130.706 75.4216 130.256C76.4315 129.806 79.9289 130.312 79.9289 130.312" fill="white"/>
<path fill-rule="evenodd" clip-rule="evenodd" d="M75.1943 129.742C75.6788 129.526 76.4768 129.475 77.5661 129.524C78.0151 129.544 78.4921 129.582 78.9778 129.632L79.2357 129.659C79.3199 129.669 79.4023 129.678 79.4827 129.688L79.7753 129.724L80.0097 129.756C80.3164 129.8 80.5291 130.085 80.4848 130.393C80.4405 130.7 80.156 130.914 79.8493 130.869L79.6837 130.847C79.6498 130.842 79.6137 130.837 79.5755 130.833L79.3499 130.805C79.1951 130.786 79.0322 130.768 78.8633 130.751C78.3974 130.703 77.9411 130.667 77.5156 130.648L77.3524 130.641C76.5222 130.612 75.9016 130.658 75.6501 130.77L75.5405 130.821C75.1081 131.027 74.0694 131.572 72.6011 132.358L71.7925 132.792C71.416 132.994 71.0286 133.203 70.6354 133.416L67.9476 134.875C67.6755 135.024 67.3347 134.923 67.1866 134.65C67.0439 134.387 67.1318 134.061 67.3815 133.904L67.45 133.866L69.2093 132.909C69.6089 132.693 70.0065 132.478 70.3971 132.267L72.2716 131.259C73.8076 130.438 74.8324 129.903 75.1943 129.742Z" fill="#2F4077"/>
<path fill-rule="evenodd" clip-rule="evenodd" d="M74.2995 134.044C74.2995 134.044 73.7571 131.719 75.9266 131.381C78.0961 131.044 81.0137 130.556 83.0149 128.794" fill="white"/>
<path fill-rule="evenodd" clip-rule="evenodd" d="M82.6445 128.371C82.8773 128.166 83.2318 128.189 83.4364 128.422C83.6409 128.656 83.6179 129.011 83.3851 129.216C82.4006 130.083 81.1731 130.706 79.6983 131.16L79.5247 131.212C78.5163 131.511 77.5701 131.695 76.0126 131.937C75.3505 132.04 75.0187 132.351 74.8755 132.848C74.7893 133.147 74.7825 133.484 74.8251 133.793L74.8358 133.863C74.8379 133.876 74.8399 133.887 74.8416 133.895L74.8458 133.916C74.9164 134.218 74.729 134.521 74.4272 134.591C74.1255 134.662 73.8237 134.474 73.7531 134.172L73.7428 134.124C73.7336 134.078 73.7234 134.018 73.7136 133.947C73.6512 133.495 73.6611 133.009 73.7974 132.536C74.0582 131.631 74.7333 130.998 75.8406 130.825L76.1104 130.783C79.3531 130.263 81.1485 129.689 82.6445 128.371Z" fill="#2F4077"/>
<path fill-rule="evenodd" clip-rule="evenodd" d="M247.074 112.762H237.255C231.588 108.037 208.435 88.7062 202.786 84.0937C196.147 78.6562 186.16 66.9937 172.47 76.7624C164.184 82.6687 145.519 98.6249 132.895 112.781L129.08 117.244C123.02 124.65 119.28 131.156 120.495 134.831L246.214 134.662L247.074 112.762Z" fill="#465F9D"/>
<path fill-rule="evenodd" clip-rule="evenodd" d="M263.495 129.056L260.54 101.025C260.54 98.7189 258.127 97.2189 256.07 98.2502C252.255 100.163 247.242 105.244 246.307 118.613C243.221 117.938 239.63 117.506 235.478 117.413L219.188 129.413V134.531H265.627C265.627 134.55 265.421 132.113 263.495 129.056Z" fill="#E4794A"/>
<path fill-rule="evenodd" clip-rule="evenodd" d="M164.221 82.9501L155.918 83.6626C150.064 84.4501 142.807 85.7626 135.775 87.1126C135.775 87.1126 128.182 78.6563 126.405 80.4751C125.638 81.2626 125.189 86.4938 125.339 90.7688L123.169 91.5938C123.169 91.5938 112.472 84.5438 108.638 94.3126C108.525 94.6126 108.806 94.9126 109.105 94.8001C110.152 94.4063 112.154 94.0501 113.014 96.8063C113.014 96.8063 112.771 96.6001 111.256 98.9251C109.909 101.006 108.189 112.238 118.363 115.819C119.747 116.419 118.756 115.819 120.401 116.606C120.925 119.513 123.095 121.763 125.114 122.194C127.434 122.681 129.584 117.713 129.884 116.1C131.305 111.919 133.213 115.856 134.989 116.55C138.524 117.938 140.376 108.431 140.731 103.894L146.866 98.4376L147.932 97.7251C147.857 97.7063 147.782 97.7063 147.707 97.6876L164.221 82.9501Z" fill="#E4794A"/>
<path fill-rule="evenodd" clip-rule="evenodd" d="M125.693 81.7501C125.827 81.4701 126.163 81.3522 126.442 81.4868L126.508 81.5192C126.56 81.5455 126.63 81.5813 126.716 81.6263C126.928 81.7372 127.163 81.8667 127.416 82.0136C128.138 82.4334 128.86 82.9106 129.536 83.4384C131.852 85.2453 133.113 87.2002 132.657 89.2596C132.589 89.5628 132.29 89.754 131.987 89.6866C131.685 89.6193 131.494 89.3188 131.561 89.0155C131.896 87.5066 130.855 85.8924 128.847 84.3262C128.214 83.8325 127.534 83.3827 126.853 82.9869C126.614 82.8484 126.394 82.7267 126.196 82.6231L126.056 82.5505L125.956 82.5008C125.677 82.3662 125.559 82.0301 125.693 81.7501Z" fill="#2F4077"/>
<path fill-rule="evenodd" clip-rule="evenodd" d="M112.214 92.4388C114.427 91.2776 117.294 91.1041 120.763 92.5163C121.05 92.6332 121.188 92.9613 121.071 93.2491C120.955 93.5369 120.628 93.6755 120.34 93.5587C117.182 92.2728 114.66 92.4254 112.734 93.4356C112.411 93.6052 112.135 93.7858 111.907 93.9646L111.846 94.0136C111.769 94.0757 111.715 94.1246 111.682 94.1564L111.661 94.177C111.447 94.4011 111.091 94.4084 110.868 94.1933C110.644 93.9782 110.637 93.6221 110.852 93.398L110.89 93.3589C110.962 93.2886 111.07 93.1927 111.215 93.0789C111.495 92.8591 111.828 92.6411 112.214 92.4388Z" fill="#2F4077"/>
<path fill-rule="evenodd" clip-rule="evenodd" d="M120.327 104.025L122.104 104.588C122.365 104.663 122.646 104.513 122.721 104.25L123.244 102.581C123.375 102.188 122.983 101.85 122.609 102.019L120.308 103.125C119.897 103.331 119.915 103.894 120.327 104.025Z" fill="#2F4077"/>
<path fill-rule="evenodd" clip-rule="evenodd" d="M121.794 104.46C121.588 103.82 122.474 103.423 122.812 104.004C123.111 104.516 123.52 105.042 123.831 105.308L123.856 105.329L123.859 105.301C123.87 105.184 123.872 105.04 123.865 104.87L123.862 104.805C123.846 104.494 124.084 104.23 124.393 104.213C124.702 104.197 124.966 104.435 124.983 104.745C125.021 105.474 124.937 105.968 124.664 106.28C124.31 106.685 123.819 106.651 123.368 106.363C123.299 106.318 123.228 106.266 123.156 106.207L123.1 106.161L123.089 106.234L123.077 106.303C122.874 107.345 121.985 107.573 121.073 106.749C120.843 106.541 120.825 106.185 121.032 105.955C121.239 105.724 121.594 105.705 121.824 105.913C121.873 105.957 121.918 105.995 121.959 106.026L121.983 106.044L121.984 106.038C122.04 105.667 121.969 105.04 121.815 104.529L121.794 104.46Z" fill="#2F4077"/>
<path fill-rule="evenodd" clip-rule="evenodd" d="M135.468 107.326C135.53 107.021 135.826 106.825 136.13 106.886C136.433 106.948 136.63 107.245 136.568 107.549C136.321 108.773 136.415 110.559 136.761 112.615C136.89 113.383 137.048 114.146 137.213 114.834L137.257 115.012C137.3 115.186 137.342 115.347 137.38 115.488L137.429 115.663C137.457 115.762 137.48 115.835 137.491 115.867L137.495 115.876C137.608 116.166 137.465 116.492 137.177 116.605C136.888 116.718 136.563 116.576 136.45 116.286C136.288 115.872 135.898 114.252 135.654 112.802C135.287 110.621 135.187 108.718 135.468 107.326Z" fill="#2F4077"/>
<path fill-rule="evenodd" clip-rule="evenodd" d="M131.981 108.405C132.12 108.127 132.457 108.014 132.734 108.153C132.939 108.256 133.054 108.468 133.044 108.684L133.043 108.688L133.051 108.751L133.064 108.844L133.081 108.95C133.106 109.1 133.14 109.283 133.181 109.486C133.311 110.125 133.489 110.857 133.702 111.588C134.279 113.571 135.005 115.234 135.835 116.25C136.031 116.491 135.996 116.845 135.756 117.042C135.516 117.238 135.163 117.203 134.967 116.963C134.019 115.802 133.24 114.02 132.625 111.903C132.42 111.199 132.246 110.496 132.114 109.866L132.032 109.464C131.901 108.801 131.884 108.601 131.981 108.405Z" fill="#2F4077"/>
<path fill-rule="evenodd" clip-rule="evenodd" d="M138.901 98.766L139.149 98.6743C142.514 97.4508 146.176 96.8503 148.081 97.1702C148.386 97.2216 148.592 97.5116 148.541 97.818C148.49 98.1244 148.201 98.3311 147.895 98.2798C146.17 97.99 142.556 98.5978 139.294 99.8199C135.388 101.283 132.486 103.37 131.406 105.773C129.253 110.603 130.969 114.333 135.196 116.008C135.484 116.122 135.625 116.449 135.511 116.738C135.398 117.027 135.072 117.169 134.783 117.054C129.982 115.152 127.957 110.751 130.382 105.313C131.612 102.574 134.741 100.324 138.901 98.766Z" fill="#2F4077"/>
<path fill-rule="evenodd" clip-rule="evenodd" d="M126.472 113.691C126.776 113.749 126.976 114.043 126.919 114.349L126.893 114.488C126.872 114.604 126.849 114.737 126.824 114.886C126.753 115.312 126.682 115.778 126.615 116.269C126.5 117.121 126.411 117.954 126.36 118.733L126.345 118.972C126.272 120.27 126.317 121.308 126.497 121.971C126.579 122.271 126.402 122.58 126.103 122.662C125.804 122.743 125.496 122.566 125.415 122.266C125.183 121.412 125.14 120.185 125.24 118.659C125.293 117.852 125.384 116.993 125.503 116.117C125.563 115.677 125.626 115.257 125.69 114.865L125.766 114.415L125.816 114.139C125.874 113.834 126.168 113.633 126.472 113.691Z" fill="#2F4077"/>
<path fill-rule="evenodd" clip-rule="evenodd" d="M122.941 113.569C123.25 113.577 123.495 113.835 123.488 114.145L123.486 114.233C123.481 114.629 123.487 115.144 123.512 115.734C123.549 116.607 123.622 117.467 123.74 118.267L123.772 118.473C124.015 120.002 124.405 121.133 124.921 121.673C125.136 121.898 125.128 122.254 124.905 122.469C124.681 122.684 124.326 122.676 124.111 122.452C123.364 121.67 122.902 120.281 122.63 118.431C122.506 117.588 122.429 116.691 122.391 115.782L122.382 115.556C122.366 115.112 122.361 114.713 122.363 114.38L122.366 114.118C122.373 113.807 122.631 113.561 122.941 113.569Z" fill="#2F4077"/>
<path fill-rule="evenodd" clip-rule="evenodd" d="M125.655 109.395C127.614 109.379 129.877 109.976 130.608 110.613C130.841 110.817 130.866 111.172 130.662 111.407C130.467 111.632 130.132 111.664 129.898 111.484L129.871 111.462C129.382 111.036 127.374 110.506 125.664 110.52C123.407 110.537 121.818 111.354 121.232 113.094C121.013 113.737 120.869 115.027 120.869 115.969C120.869 116.279 120.618 116.531 120.308 116.531C119.998 116.531 119.747 116.279 119.747 115.969C119.747 114.914 119.904 113.514 120.169 112.733C120.934 110.463 122.97 109.416 125.655 109.395Z" fill="#2F4077"/>
<path fill-rule="evenodd" clip-rule="evenodd" d="M126.76 97.3699C127.069 97.39 127.303 97.6576 127.283 97.9676C127.279 98.0334 127.267 98.1316 127.243 98.2528C127.202 98.4527 127.14 98.6534 127.048 98.846C126.6 99.788 125.657 100.142 124.375 99.548C124.093 99.4177 123.971 99.0834 124.101 98.8014C124.231 98.5194 124.564 98.3965 124.845 98.5268C125.564 98.86 125.849 98.753 126.035 98.3618C126.084 98.2601 126.119 98.1454 126.143 98.0299L126.153 97.9766C126.157 97.9526 126.159 97.9326 126.161 97.9177L126.164 97.8948C126.183 97.5959 126.432 97.3667 126.727 97.3687L126.76 97.3699Z" fill="#2F4077"/>
<path fill-rule="evenodd" clip-rule="evenodd" d="M119.203 100.52C119.512 100.54 119.747 100.808 119.727 101.118C119.722 101.184 119.71 101.282 119.686 101.403C119.646 101.603 119.583 101.804 119.492 101.996C119.044 102.938 118.1 103.292 116.818 102.698C116.537 102.568 116.414 102.234 116.544 101.952C116.674 101.67 117.008 101.547 117.289 101.677C118.008 102.01 118.293 101.903 118.479 101.512C118.527 101.41 118.563 101.296 118.586 101.18L118.596 101.127C118.6 101.103 118.603 101.083 118.605 101.068L118.607 101.045C118.626 100.746 118.875 100.517 119.17 100.519L119.203 100.52Z" fill="#2F4077"/>
<path fill-rule="evenodd" clip-rule="evenodd" d="M113.835 107.476C114.103 107.32 114.447 107.411 114.602 107.68C114.758 107.948 114.667 108.293 114.399 108.449C112.77 109.399 111.455 110.929 110.427 112.886C109.779 114.119 109.285 115.446 108.925 116.773C108.799 117.237 108.699 117.668 108.623 118.053L108.598 118.182C108.59 118.223 108.583 118.263 108.576 118.3L108.557 118.407C108.547 118.466 108.541 118.506 108.538 118.524C108.494 118.832 108.21 119.045 107.903 119C107.596 118.956 107.383 118.671 107.428 118.363L107.446 118.248C107.463 118.146 107.488 118.006 107.522 117.834C107.603 117.424 107.709 116.968 107.842 116.478C108.222 115.076 108.744 113.675 109.434 112.362C110.552 110.232 112.003 108.545 113.835 107.476Z" fill="white"/>
<path fill-rule="evenodd" clip-rule="evenodd" d="M115.97 108.515C116.254 108.392 116.585 108.523 116.708 108.808C116.827 109.082 116.71 109.4 116.446 109.533L116.416 109.547C115.758 109.834 114.589 111.332 113.755 113.112C112.745 115.268 112.338 117.48 112.756 119.272C112.826 119.575 112.639 119.877 112.337 119.948C112.035 120.019 111.734 119.831 111.663 119.528C111.18 117.454 111.631 114.999 112.74 112.634C113.68 110.627 114.998 108.938 115.97 108.515Z" fill="white"/>
<path fill-rule="evenodd" clip-rule="evenodd" d="M130.428 101.333C131.953 101.08 133.726 101.125 135.411 101.566C137.584 102.134 139.475 103.313 140.913 105.181C141.102 105.427 141.057 105.78 140.812 105.97C140.566 106.16 140.214 106.115 140.025 105.869C138.745 104.207 137.07 103.163 135.128 102.654C133.603 102.256 131.988 102.214 130.611 102.442C130.305 102.493 130.016 102.286 129.966 101.979C129.915 101.673 130.122 101.383 130.428 101.333Z" fill="white"/>
<path fill-rule="evenodd" clip-rule="evenodd" d="M130.723 99.4442C132.105 98.5625 134.343 98.2564 136.664 98.6225C139.207 99.0238 141.601 100.175 143.358 101.982C143.574 102.205 143.57 102.561 143.348 102.778C143.126 102.995 142.771 102.99 142.554 102.768C140.976 101.143 138.803 100.099 136.489 99.7338C134.417 99.4069 132.449 99.6761 131.325 100.393C131.064 100.56 130.717 100.483 130.551 100.221C130.384 99.9587 130.461 99.611 130.723 99.4442Z" fill="white"/>
<path fill-rule="evenodd" clip-rule="evenodd" d="M184.214 17.175H195.492C196.277 17.175 196.913 17.8313 196.913 18.6563V33.8625L192.013 28.7813L184.196 28.6688C183.41 28.6688 182.793 28.0125 182.793 27.1875V18.6563C182.793 17.85 183.429 17.175 184.214 17.175Z" fill="#E4794A"/>
<path fill-rule="evenodd" clip-rule="evenodd" d="M187.88 23.7375V22.2C187.88 21.075 188.871 20.1562 190.068 20.1562C191.265 20.1562 192.256 21.075 192.256 22.2C192.256 22.2188 192.256 22.2188 192.256 22.2375V23.7C192.256 23.7188 192.256 23.7188 192.256 23.7375C192.256 24.8625 191.265 25.7812 190.068 25.7812C188.871 25.7812 187.88 24.8625 187.88 23.7375ZM188.965 22.1813V23.7188C188.965 24.2813 189.47 24.75 190.068 24.75C190.685 24.75 191.171 24.2813 191.171 23.7188V22.2V22.1625C191.171 21.6 190.667 21.1312 190.068 21.1312C189.47 21.15 188.965 21.6188 188.965 22.1813Z" fill="white"/>
<path fill-rule="evenodd" clip-rule="evenodd" d="M320.387 134.062C320.697 134.062 320.949 134.314 320.949 134.625C320.949 134.925 320.715 135.169 320.42 135.187L320.387 135.188H0.611857C0.301983 135.188 0.0507812 134.936 0.0507812 134.625C0.0507812 134.325 0.284361 134.081 0.578889 134.063L0.611857 134.062H320.387Z" fill="#2F4077"/>
</svg>
