<svg width="322" height="191" viewBox="0 0 322 191" fill="none" xmlns="http://www.w3.org/2000/svg">
<path fill-rule="evenodd" clip-rule="evenodd" d="M84.3831 161.905C86.9788 143.629 92.6597 103.776 75.6597 84.9675C58.6597 66.1592 55.9575 70.6323 53.0001 55.1682C50.0426 39.704 34.3618 33.4417 26.4682 42.4305C18.5533 51.398 28.0639 68.5874 31.1277 72.3363C34.1916 76.0852 31.4256 99.1749 41.4043 115.15C51.3831 131.126 67.4043 119.687 66.7235 133.575C67.6384 160.946 84.3831 161.905 84.3831 161.905Z" fill="#FAA184"/>
<path fill-rule="evenodd" clip-rule="evenodd" d="M33.8727 48.3865C34.1709 48.1984 34.5651 48.288 34.7529 48.5866L35.0305 49.0311L35.5881 49.9318C35.9976 50.5958 36.4573 51.3468 36.9637 52.1806L37.4477 52.979C39.0773 55.6733 40.8689 58.6923 42.7848 61.9913C48.8059 72.3592 54.8269 83.3646 60.4472 94.5304C65.0832 103.741 69.2446 112.668 72.8132 121.173C79.5693 137.275 83.9798 151.321 85.5473 162.734C85.5953 163.083 85.3511 163.406 85.0019 163.454C84.6527 163.502 84.3306 163.257 84.2826 162.908C82.7329 151.625 78.353 137.677 71.6362 121.668C68.0798 113.192 63.9306 104.291 59.3072 95.1055C53.6993 83.9644 47.6902 72.9808 41.6811 62.6337L40.9231 61.3318C39.1702 58.3295 37.5299 55.576 36.0328 53.1079L35.2498 51.8218C35.0509 51.4962 34.8608 51.1862 34.6798 50.8921L33.8599 49.567L33.6727 49.2677C33.4848 48.9691 33.5744 48.5745 33.8727 48.3865Z" fill="white"/>
<path fill-rule="evenodd" clip-rule="evenodd" d="M93.5533 19.362C76.9363 17.7645 73.4895 34.6344 72.9575 48.9057C72.4256 63.177 75.0639 68.3104 66.9575 75.8934C58.8512 83.4977 72.0426 93.7645 70.915 101.305C69.7873 108.845 62.0001 128.995 92.2767 173.641C93.3831 175.26 94.9575 188.296 94.9575 188.296L101.511 186.528C101.511 186.528 97.298 175.942 102.064 163.119C106.83 150.275 114.915 144.247 115.681 128.186C116.447 112.125 104.979 115.235 107.085 104.67C109.192 94.1053 119.958 86.7992 119.128 76.2129C118.298 65.6053 98.4043 57.8945 102.809 45.6894C107.213 33.4629 107.936 20.7465 93.5533 19.362Z" fill="#FAA184"/>
<path fill-rule="evenodd" clip-rule="evenodd" d="M87.286 25.039C87.6087 25.146 87.7888 25.486 87.7019 25.8106L87.6026 26.1232L87.5251 26.3726C87.4708 26.5489 87.4114 26.7455 87.3471 26.9621L87.2588 27.2618C87.0056 28.1272 86.7275 29.131 86.4302 30.2698L86.3006 30.7701C85.3934 34.2994 84.4884 38.3902 83.6409 43.0097C80.6878 59.1061 79.125 77.5522 79.6922 97.91C80.4333 124.507 84.7835 152.141 93.4824 180.375C93.5863 180.713 93.3974 181.07 93.0606 181.174C92.7237 181.278 92.3664 181.089 92.2625 180.752C83.5286 152.404 79.1604 124.656 78.4161 97.9456C77.8463 77.495 79.4166 58.9601 82.3853 42.7788L82.5076 42.1182C83.366 37.519 84.2804 33.451 85.1951 29.9467L85.3524 29.3499C85.5942 28.4412 85.8224 27.6246 86.0338 26.9019L86.1234 26.598C86.2109 26.3034 86.2897 26.0445 86.3592 25.8217L86.4793 25.4445C86.5902 25.1095 86.9513 24.9279 87.286 25.039Z" fill="white"/>
<path fill-rule="evenodd" clip-rule="evenodd" d="M92.5745 160.456C86.8724 146.036 74.4469 114.554 54.3192 107.802C34.1915 101.049 34.1064 105.416 25.532 95.3195C16.9575 85.223 3.02134 87.0975 1.02134 96.8957C-0.978663 106.694 13.0426 115.342 16.8086 116.833C20.5745 118.324 28.1703 136.323 42.0213 143.906C55.8724 151.489 62.7235 136.557 68.0001 146.994C80.0426 166.612 92.5745 160.456 92.5745 160.456Z" fill="#FAA184"/>
<path fill-rule="evenodd" clip-rule="evenodd" d="M7.75406 95.7911C7.88845 95.4785 8.24238 95.3282 8.55782 95.4429L8.60958 95.464L8.82559 95.5584C8.96815 95.621 9.12988 95.6925 9.31028 95.773L9.49688 95.8564C10.2303 96.1849 11.0805 96.5737 12.0379 97.0212L12.8674 97.4109C15.3832 98.5993 18.1452 99.9601 21.0967 101.483C30.4667 106.319 39.8369 111.794 48.5856 117.801C57.5247 123.938 65.3111 130.297 71.6133 136.822C78.917 144.385 84.0623 152.003 86.7093 159.629C86.825 159.962 86.6488 160.326 86.3158 160.442C85.9828 160.558 85.6191 160.382 85.5034 160.048C80.6429 146.045 67.2129 132.14 47.8636 118.855C39.1629 112.881 29.8375 107.432 20.5117 102.619L19.862 102.285C17.0604 100.848 14.4381 99.5624 12.0458 98.4363L11.4979 98.1792C10.6657 97.7903 9.91543 97.4461 9.25369 97.1479L8.53776 96.828L8.08803 96.6307C7.76422 96.4912 7.6147 96.1153 7.75406 95.7911Z" fill="white"/>
<path fill-rule="evenodd" clip-rule="evenodd" d="M85.2129 164.099C85.5533 147.442 86.3193 111.082 104.064 96.7467C121.809 82.4115 123.532 86.778 128.383 73.4014C133.234 60.0247 147.979 56.6805 153.66 65.7971C159.341 74.9137 148.468 88.8868 145.234 91.7836C142 94.6805 141.085 115.661 129.958 128.506C118.83 141.328 106.362 128.868 104.958 141.35C100.128 165.59 85.2129 164.099 85.2129 164.099Z" fill="#FAA184"/>
<path fill-rule="evenodd" clip-rule="evenodd" d="M146.59 67.2943C146.833 67.5496 146.823 67.9541 146.568 68.1978L146.206 68.548L145.761 68.9844C145.347 69.3915 144.883 69.8531 144.372 70.3675L143.857 70.888C142.103 72.6645 140.169 74.6833 138.097 76.9192C131.736 83.7813 125.376 91.2724 119.44 99.143C109.478 112.354 101.748 125.268 97.1177 137.366C93.8626 145.872 92.2237 153.787 92.3829 160.996C92.3907 161.349 92.1113 161.641 91.7589 161.649C91.4064 161.657 91.1144 161.377 91.1066 161.024C90.9434 153.633 92.6153 145.559 95.9256 136.909C100.605 124.682 108.393 111.671 118.421 98.3729C124.252 90.6409 130.489 83.2763 136.735 76.5103L137.161 76.0499C139.322 73.7179 141.335 71.6205 143.15 69.7855L143.72 69.2116C144.136 68.7948 144.519 68.4148 144.866 68.0728L145.373 67.5771L145.687 67.2731C145.942 67.0295 146.346 67.039 146.59 67.2943Z" fill="white"/>
<path fill-rule="evenodd" clip-rule="evenodd" d="M108.723 189.553L116.66 153.001C117.319 150.232 115.17 147.591 112.277 147.591H62.9148C60.0212 147.591 57.8936 150.211 58.5106 152.959L66.617 189.318" fill="#E4794A"/>
<rect x="118.957" y="131.858" width="57.8094" height="14.4468" transform="rotate(90 118.957 131.858)" fill="#2F4077"/>
<rect x="115.23" y="136.779" width="26.9238" height="7.76596" transform="rotate(90 115.23 136.779)" fill="white"/>
<rect x="115.228" y="164.83" width="2.51346" height="7.76595" transform="rotate(90 115.228 164.83)" fill="#E4794A"/>
<path fill-rule="evenodd" clip-rule="evenodd" d="M111.213 176.368C109.356 176.368 107.851 177.874 107.851 179.733C107.851 181.592 109.356 183.099 111.213 183.099C113.07 183.099 114.575 181.592 114.575 179.733C114.575 177.874 113.07 176.368 111.213 176.368ZM111.213 177.646C112.365 177.646 113.298 178.58 113.298 179.733C113.298 180.886 112.365 181.821 111.213 181.821C110.061 181.821 109.128 180.886 109.128 179.733C109.128 178.58 110.061 177.646 111.213 177.646Z" fill="white"/>
<path fill-rule="evenodd" clip-rule="evenodd" d="M114.341 142.543C114.693 142.543 114.979 142.829 114.979 143.182C114.979 143.522 114.713 143.8 114.378 143.82L114.341 143.821H108.575C108.222 143.821 107.937 143.535 107.937 143.182C107.937 142.841 108.202 142.563 108.537 142.544L108.575 142.543H114.341Z" fill="#E4794A"/>
<path fill-rule="evenodd" clip-rule="evenodd" d="M114.341 145.503C114.693 145.503 114.979 145.79 114.979 146.142C114.979 146.483 114.713 146.761 114.378 146.78L114.341 146.781H108.575C108.222 146.781 107.937 146.495 107.937 146.142C107.937 145.802 108.202 145.524 108.537 145.505L108.575 145.503H114.341Z" fill="#E4794A"/>
<path fill-rule="evenodd" clip-rule="evenodd" d="M114.341 148.464C114.693 148.464 114.979 148.75 114.979 149.103C114.979 149.443 114.713 149.722 114.378 149.741L114.341 149.742H108.575C108.222 149.742 107.937 149.456 107.937 149.103C107.937 148.763 108.202 148.485 108.537 148.465L108.575 148.464H114.341Z" fill="#E4794A"/>
<rect x="133.366" y="131.909" width="57.8094" height="14.4468" transform="rotate(90 133.366 131.909)" fill="#2F4077"/>
<rect x="129.617" y="136.829" width="26.9238" height="7.76595" transform="rotate(90 129.617 136.829)" fill="white"/>
<rect x="129.637" y="164.88" width="2.51346" height="7.76596" transform="rotate(90 129.637 164.88)" fill="#E4794A"/>
<path fill-rule="evenodd" clip-rule="evenodd" d="M125.596 176.432C123.739 176.432 122.234 177.938 122.234 179.797C122.234 181.656 123.739 183.163 125.596 183.163C127.453 183.163 128.958 181.656 128.958 179.797C128.958 177.938 127.453 176.432 125.596 176.432ZM125.596 177.71C126.748 177.71 127.681 178.644 127.681 179.797C127.681 180.95 126.748 181.885 125.596 181.885C124.444 181.885 123.511 180.95 123.511 179.797C123.511 178.644 124.444 177.71 125.596 177.71Z" fill="white"/>
<path fill-rule="evenodd" clip-rule="evenodd" d="M128.66 154.94C129.012 154.94 129.298 155.226 129.298 155.579C129.298 155.919 129.032 156.197 128.697 156.217L128.66 156.218H122.894C122.541 156.218 122.256 155.932 122.256 155.579C122.256 155.238 122.521 154.96 122.856 154.941L122.894 154.94H128.66Z" fill="#E4794A"/>
<path fill-rule="evenodd" clip-rule="evenodd" d="M128.66 139.625C129.012 139.625 129.298 139.911 129.298 140.264C129.298 140.604 129.032 140.882 128.697 140.901L128.66 140.903H122.894C122.541 140.903 122.256 140.616 122.256 140.264C122.256 139.923 122.521 139.645 122.856 139.626L122.894 139.625H128.66Z" fill="#E4794A"/>
<path fill-rule="evenodd" clip-rule="evenodd" d="M128.66 157.9C129.012 157.9 129.298 158.186 129.298 158.539C129.298 158.88 129.032 159.158 128.697 159.177L128.66 159.178H122.894C122.541 159.178 122.256 158.892 122.256 158.539C122.256 158.199 122.521 157.921 122.856 157.901L122.894 157.9H128.66Z" fill="#E4794A"/>
<path fill-rule="evenodd" clip-rule="evenodd" d="M128.66 160.861C129.012 160.861 129.298 161.147 129.298 161.5C129.298 161.84 129.032 162.119 128.697 162.138L128.66 162.139H122.894C122.541 162.139 122.256 161.853 122.256 161.5C122.256 161.16 122.521 160.882 122.856 160.862L122.894 160.861H128.66Z" fill="#E4794A"/>
<rect x="176.345" y="131.908" width="57.8094" height="14.4468" transform="rotate(90 176.345 131.908)" fill="#2F4077"/>
<rect x="172.596" y="136.829" width="26.9238" height="7.76595" transform="rotate(90 172.596 136.829)" fill="white"/>
<rect x="172.616" y="164.88" width="2.51346" height="7.76596" transform="rotate(90 172.616 164.88)" fill="#E4794A"/>
<path fill-rule="evenodd" clip-rule="evenodd" d="M168.575 176.432C166.718 176.432 165.213 177.938 165.213 179.797C165.213 181.656 166.718 183.163 168.575 183.163C170.431 183.163 171.936 181.656 171.936 179.797C171.936 177.938 170.431 176.432 168.575 176.432ZM168.575 177.71C169.726 177.71 170.66 178.644 170.66 179.797C170.66 180.95 169.726 181.885 168.575 181.885C167.423 181.885 166.489 180.95 166.489 179.797C166.489 178.644 167.423 177.71 168.575 177.71Z" fill="white"/>
<path fill-rule="evenodd" clip-rule="evenodd" d="M171.638 154.939C171.991 154.939 172.277 155.226 172.277 155.578C172.277 155.919 172.011 156.197 171.676 156.216L171.638 156.217H165.872C165.52 156.217 165.234 155.931 165.234 155.578C165.234 155.238 165.5 154.96 165.835 154.941L165.872 154.939H171.638Z" fill="#E4794A"/>
<path fill-rule="evenodd" clip-rule="evenodd" d="M171.638 139.625C171.991 139.625 172.277 139.911 172.277 140.264C172.277 140.604 172.011 140.882 171.676 140.901L171.638 140.903H165.872C165.52 140.903 165.234 140.616 165.234 140.264C165.234 139.923 165.5 139.645 165.835 139.626L165.872 139.625H171.638Z" fill="#2F4077"/>
<path fill-rule="evenodd" clip-rule="evenodd" d="M171.638 157.9C171.991 157.9 172.277 158.186 172.277 158.539C172.277 158.879 172.011 159.158 171.676 159.177L171.638 159.178H165.872C165.52 159.178 165.234 158.892 165.234 158.539C165.234 158.199 165.5 157.921 165.835 157.901L165.872 157.9H171.638Z" fill="#E4794A"/>
<path fill-rule="evenodd" clip-rule="evenodd" d="M171.638 160.861C171.991 160.861 172.277 161.147 172.277 161.5C172.277 161.84 172.011 162.118 171.676 162.138L171.638 162.139H165.872C165.52 162.139 165.234 161.853 165.234 161.5C165.234 161.16 165.5 160.881 165.835 160.862L165.872 160.861H171.638Z" fill="#E4794A"/>
<rect x="104.725" y="131.911" width="57.8094" height="14.4468" transform="rotate(90 104.725 131.911)" fill="#2F4077"/>
<rect x="100.977" y="136.831" width="26.9238" height="7.76596" transform="rotate(90 100.977 136.831)" fill="white"/>
<rect x="100.996" y="164.882" width="2.51346" height="7.76596" transform="rotate(90 100.996 164.882)" fill="#E4794A"/>
<path fill-rule="evenodd" clip-rule="evenodd" d="M96.9576 176.432C95.101 176.432 93.5959 177.938 93.5959 179.797C93.5959 181.656 95.101 183.163 96.9576 183.163C98.8143 183.163 100.319 181.656 100.319 179.797C100.319 177.938 98.8143 176.432 96.9576 176.432ZM96.9577 177.71C98.1092 177.71 99.0428 178.644 99.0428 179.797C99.0428 180.95 98.1092 181.885 96.9577 181.885C95.8061 181.885 94.8725 180.95 94.8725 179.797C94.8725 178.644 95.8061 177.71 96.9577 177.71Z" fill="white"/>
<path fill-rule="evenodd" clip-rule="evenodd" d="M100 154.939C100.353 154.939 100.639 155.226 100.639 155.578C100.639 155.919 100.373 156.197 100.038 156.216L100 156.217H94.2342C93.8817 156.217 93.5959 155.931 93.5959 155.578C93.5959 155.238 93.8617 154.96 94.1967 154.941L94.2342 154.939H100Z" fill="#E4794A"/>
<path fill-rule="evenodd" clip-rule="evenodd" d="M100 139.625C100.353 139.625 100.639 139.911 100.639 140.264C100.639 140.604 100.373 140.882 100.038 140.901L100 140.903H94.2342C93.8817 140.903 93.5959 140.616 93.5959 140.264C93.5959 139.923 93.8617 139.645 94.1967 139.626L94.2342 139.625H100Z" fill="#E4794A"/>
<path fill-rule="evenodd" clip-rule="evenodd" d="M100 157.9C100.353 157.9 100.639 158.186 100.639 158.539C100.639 158.88 100.373 159.158 100.038 159.177L100 159.178H94.2342C93.8817 159.178 93.5959 158.892 93.5959 158.539C93.5959 158.199 93.8617 157.921 94.1967 157.901L94.2342 157.9H100Z" fill="#E4794A"/>
<path fill-rule="evenodd" clip-rule="evenodd" d="M100 160.861C100.353 160.861 100.639 161.147 100.639 161.5C100.639 161.84 100.373 162.119 100.038 162.138L100 162.139H94.2342C93.8817 162.139 93.5959 161.853 93.5959 161.5C93.5959 161.16 93.8617 160.882 94.1967 160.862L94.2342 160.861H100Z" fill="#E4794A"/>
<rect x="147.731" y="131.905" width="57.8094" height="14.4468" transform="rotate(90 147.731 131.905)" fill="#2F4077"/>
<rect x="143.982" y="136.826" width="26.9238" height="7.76596" transform="rotate(90 143.982 136.826)" fill="white"/>
<rect x="144.002" y="164.877" width="2.51346" height="7.76596" transform="rotate(90 144.002 164.877)" fill="#E4794A"/>
<path fill-rule="evenodd" clip-rule="evenodd" d="M139.958 176.432C138.101 176.432 136.596 177.938 136.596 179.797C136.596 181.656 138.101 183.163 139.958 183.163C141.814 183.163 143.319 181.656 143.319 179.797C143.319 177.938 141.814 176.432 139.958 176.432ZM139.958 177.71C141.109 177.71 142.043 178.644 142.043 179.797C142.043 180.95 141.109 181.885 139.958 181.885C138.806 181.885 137.873 180.95 137.873 179.797C137.873 178.644 138.806 177.71 139.958 177.71Z" fill="white"/>
<path fill-rule="evenodd" clip-rule="evenodd" d="M143.021 154.939C143.374 154.939 143.66 155.226 143.66 155.578C143.66 155.919 143.394 156.197 143.059 156.216L143.021 156.217H137.255C136.903 156.217 136.617 155.931 136.617 155.578C136.617 155.238 136.883 154.96 137.218 154.941L137.255 154.939H143.021Z" fill="#E4794A"/>
<path fill-rule="evenodd" clip-rule="evenodd" d="M143.021 139.625C143.374 139.625 143.66 139.911 143.66 140.264C143.66 140.604 143.394 140.882 143.059 140.901L143.021 140.903H137.255C136.903 140.903 136.617 140.616 136.617 140.264C136.617 139.923 136.883 139.645 137.218 139.626L137.255 139.625H143.021Z" fill="#2F4077"/>
<path fill-rule="evenodd" clip-rule="evenodd" d="M143.021 157.9C143.374 157.9 143.66 158.186 143.66 158.539C143.66 158.879 143.394 159.158 143.059 159.177L143.021 159.178H137.255C136.903 159.178 136.617 158.892 136.617 158.539C136.617 158.199 136.883 157.921 137.218 157.901L137.255 157.9H143.021Z" fill="#E4794A"/>
<path fill-rule="evenodd" clip-rule="evenodd" d="M143.021 160.861C143.374 160.861 143.66 161.147 143.66 161.5C143.66 161.84 143.394 162.119 143.059 162.138L143.021 162.139H137.255C136.903 162.139 136.617 161.853 136.617 161.5C136.617 161.16 136.883 160.882 137.218 160.862L137.255 160.861H143.021Z" fill="#E4794A"/>
<rect x="161.963" y="131.853" width="57.8094" height="14.4468" transform="rotate(90 161.963 131.853)" fill="#2F4077"/>
<rect x="158.235" y="136.773" width="26.9238" height="7.76595" transform="rotate(90 158.235 136.773)" fill="white"/>
<rect x="158.234" y="164.824" width="2.51346" height="7.76596" transform="rotate(90 158.234 164.824)" fill="#E4794A"/>
<path fill-rule="evenodd" clip-rule="evenodd" d="M154.213 176.368C152.356 176.368 150.851 177.874 150.851 179.733C150.851 181.592 152.356 183.099 154.213 183.099C156.069 183.099 157.574 181.592 157.574 179.733C157.574 177.874 156.069 176.368 154.213 176.368ZM154.213 177.646C155.364 177.646 156.298 178.58 156.298 179.733C156.298 180.886 155.364 181.821 154.213 181.821C153.061 181.821 152.128 180.886 152.128 179.733C152.128 178.58 153.061 177.646 154.213 177.646Z" fill="white"/>
<path fill-rule="evenodd" clip-rule="evenodd" d="M157.362 142.543C157.714 142.543 158 142.829 158 143.182C158 143.522 157.734 143.8 157.399 143.82L157.362 143.821H151.596C151.243 143.821 150.958 143.535 150.958 143.182C150.958 142.841 151.223 142.563 151.558 142.544L151.596 142.543H157.362Z" fill="#E4794A"/>
<path fill-rule="evenodd" clip-rule="evenodd" d="M157.362 145.503C157.714 145.503 158 145.79 158 146.142C158 146.483 157.734 146.761 157.399 146.78L157.362 146.781H151.596C151.243 146.781 150.958 146.495 150.958 146.142C150.958 145.802 151.223 145.524 151.558 145.505L151.596 145.503H157.362Z" fill="#E4794A"/>
<path fill-rule="evenodd" clip-rule="evenodd" d="M157.362 148.464C157.714 148.464 158 148.75 158 149.103C158 149.443 157.734 149.722 157.399 149.741L157.362 149.742H151.596C151.243 149.742 150.958 149.456 150.958 149.103C150.958 148.763 151.223 148.485 151.558 148.465L151.596 148.464H157.362Z" fill="#E4794A"/>
<path fill-rule="evenodd" clip-rule="evenodd" d="M283.851 83.455C283.851 83.455 292.383 80.1961 296.872 74.9349C299.553 71.7824 302.979 67.5649 302.766 66.3295C302.404 64.0077 297.872 68.0974 297.106 68.6725" fill="white"/>
<path fill-rule="evenodd" clip-rule="evenodd" d="M301.648 65.0182C302.552 64.855 303.249 65.282 303.395 66.2208C303.627 67.5667 301.571 70.3947 297.358 75.3498C295.988 76.9555 294.187 78.4664 292.06 79.8789C290.314 81.0382 288.447 82.0673 286.58 82.9558C285.927 83.2668 285.32 83.5382 284.774 83.7685L284.467 83.8966L284.079 84.0519C283.749 84.1777 283.38 84.0124 283.255 83.6827C283.134 83.3647 283.283 83.01 283.589 82.8723L283.79 82.7921C283.931 82.7359 284.094 82.6688 284.278 82.5909C284.807 82.3678 285.396 82.1041 286.032 81.8016C287.848 80.9373 289.663 79.9367 291.354 78.8139C293.39 77.4621 295.103 76.0249 296.386 74.5205L296.92 73.8895C300.198 69.9927 302.213 67.1849 302.138 66.4505L302.128 66.3808C302.104 66.2316 302.089 66.2372 301.875 66.2759C301.497 66.3441 300.931 66.6231 300.243 67.0745C300.005 67.2304 299.757 67.4044 299.497 67.5956L299.299 67.7424C298.7 68.196 297.476 69.1934 297.489 69.1836C297.207 69.3954 296.807 69.3381 296.596 69.0558C296.392 68.7843 296.437 68.4036 296.692 68.1864L297.195 67.7775C297.624 67.431 298.244 66.9359 298.603 66.6679C298.93 66.4238 299.243 66.2028 299.543 66.0057C300.363 65.4672 301.059 65.1245 301.648 65.0182Z" fill="#2F4077"/>
<path fill-rule="evenodd" clip-rule="evenodd" d="M288.915 75.6803C288.915 75.6803 292.49 72.3574 294.149 69.4392C295.787 66.5211 297.128 64.604 296.638 64.178C296.149 63.752 293.681 63.7733 292.49 65.4774C291.149 68.4381 286.341 72.4 286.341 72.4C286.936 72.187 290.107 69.0132 291.596 67.0323C293.064 65.0513 293.298 61.8137 288.872 65.2004C288.872 65.2004 284.192 68.9706 282.383 70.0783C282.383 70.0783 274.404 72.6343 272.277 75.872C270.851 78.0659 262.787 98.3013 257.702 111.273C250.809 104.777 244.255 98.5143 244.255 98.5143L211.192 105.586C211.192 105.586 212.979 107.929 239.553 133.554C252.958 146.483 261.809 147.399 267.149 143.927C270.107 142.5 272.851 138.58 273.213 135.662L281.468 84.2217C286.319 82.4964 289.617 80.5581 291.787 78.8114C294.575 76.5536 301.128 65.7756 301.128 64.7105C301.107 61.8776 297.085 64.1141 294.447 69.1197" fill="white"/>
<path fill-rule="evenodd" clip-rule="evenodd" d="M298.432 63.4327C300.2 62.3352 301.751 62.7422 301.766 64.7106C301.766 66.2638 294.767 77.2198 292.187 79.3095C289.786 81.2422 286.514 83.04 282.347 84.5825L282.039 84.6955L273.844 135.756L273.834 135.838C273.394 138.999 270.538 142.949 267.519 144.457L267.463 144.484L267.396 144.528C264.387 146.44 260.666 146.854 256.333 145.546L256.186 145.501C251.264 143.977 245.635 140.273 239.303 134.199L238.417 133.345C227.629 122.938 220.201 115.669 215.535 110.994L214.742 110.198C213.343 108.789 212.323 107.742 211.622 107.003L211.284 106.644C210.926 106.261 210.749 106.059 210.684 105.974C210.408 105.612 210.589 105.089 211.021 104.97L211.058 104.961L244.122 97.8895C244.315 97.8483 244.515 97.8986 244.665 98.0241L244.727 98.0816L248.833 101.994L250.73 103.796C252.628 105.599 254.527 107.398 256.385 109.152L257.453 110.16L258.604 107.232C265.216 90.4363 270.475 77.5755 271.705 75.5819L271.743 75.5208C272.626 74.1777 274.387 72.911 276.784 71.7001C277.968 71.1023 279.232 70.5571 280.496 70.0743L280.786 69.9647C281.118 69.8402 281.431 69.7279 281.718 69.6284L282.001 69.5317L282.112 69.4945L282.153 69.4689C282.704 69.1215 283.538 68.5252 284.577 67.7421L285.036 67.3943L285.182 67.2827C285.921 66.7185 286.696 66.1136 287.461 65.5086L288.1 65.0005L288.485 64.6928C289.598 63.8407 290.503 63.3346 291.219 63.1587C292.033 62.9589 292.704 63.1836 293.017 63.8216C293.039 63.8661 293.058 63.9122 293.076 63.9597L293.1 64.0328L293.16 63.9957C293.598 63.7275 294.088 63.5363 294.605 63.4227L294.702 63.4023C295.656 63.2119 296.609 63.3054 297.057 63.6959C297.224 63.8408 297.319 64.0114 297.36 64.2034L297.365 64.2335L297.398 64.2049C297.717 63.9281 298.035 63.6871 298.347 63.4864L298.432 63.4327ZM300.284 64.1186C300.07 64.0625 299.644 64.184 299.105 64.5188C297.758 65.3554 296.197 67.1686 295.011 69.418C294.95 69.5336 294.859 69.6228 294.752 69.6809L294.743 69.6855L294.704 69.7554C294.52 70.0791 294.31 70.4137 294.076 70.7585C293.611 71.4427 293.058 72.159 292.433 72.8961C291.758 73.6921 291.037 74.4709 290.316 75.2014L290.13 75.3886C289.978 75.5407 289.834 75.683 289.699 75.8146L289.494 76.0116L289.349 76.1486C289.091 76.3887 288.687 76.3737 288.447 76.1151C288.207 75.8565 288.222 75.4522 288.481 75.2121L288.651 75.0504L288.889 74.8196C289.051 74.662 289.225 74.4892 289.408 74.3031C290.108 73.5941 290.808 72.8384 291.459 72.0693C292.057 71.3646 292.583 70.6834 293.02 70.0401C293.236 69.7222 293.428 69.416 293.593 69.1262L293.812 68.7406C294.336 67.829 295.403 65.9954 295.629 65.5731L295.708 65.4215C295.873 65.104 295.985 64.8572 296.048 64.6726L296.064 64.623L296.049 64.62C296.017 64.614 295.982 64.6086 295.945 64.604L295.889 64.5977C295.616 64.5709 295.286 64.589 294.952 64.6557C294.175 64.8108 293.497 65.1924 293.058 65.7801L293.042 65.802L293.02 65.8505C292.933 66.0334 292.834 66.2207 292.724 66.4123L292.663 66.5156L292.639 66.5632C292.5 66.8316 292.337 67.0961 292.156 67.3482L292.106 67.4166C290.602 69.4163 287.344 72.72 286.555 73.0018C285.893 73.2386 285.4 72.3918 285.907 71.9306L285.943 71.8999L286.205 71.6788L286.373 71.5339C286.546 71.3841 286.732 71.22 286.929 71.0432C287.678 70.3697 288.427 69.6515 289.125 68.9201C289.773 68.2404 290.344 67.5834 290.815 66.9637C291.073 66.6233 291.299 66.298 291.489 65.9903L291.523 65.9326L291.529 65.9229C291.846 65.2874 291.985 64.6733 291.882 64.4098L291.868 64.3767L291.863 64.3754C291.808 64.3568 291.695 64.3578 291.523 64.4C291.011 64.5259 290.246 64.9535 289.273 65.6984L288.587 66.246C288.479 66.3314 288.368 66.4199 288.252 66.5113L287.674 66.9675C287.191 67.3467 286.708 67.7219 286.238 68.0834L285.809 68.4114L285.338 68.7685C284.203 69.6231 283.307 70.2616 282.716 70.6234C282.673 70.65 282.626 70.6714 282.578 70.6869L282.465 70.7239C282.389 70.7491 282.304 70.7781 282.209 70.8108L282.136 70.836C281.779 70.9598 281.38 71.1044 280.951 71.2684C279.725 71.7366 278.5 72.2651 277.359 72.8411C275.147 73.9586 273.537 75.1166 272.812 76.2205C271.652 78.0052 265.562 92.9733 258.296 111.507C258.131 111.928 257.594 112.049 257.265 111.739L255.553 110.124C253.253 107.952 250.888 105.71 248.541 103.479L244.059 99.2096L212.411 105.978L212.883 106.475C213.535 107.155 214.411 108.051 215.544 109.192L216.291 109.944C220.989 114.655 228.563 122.067 239.649 132.758L239.996 133.093C246.275 139.15 251.807 142.807 256.564 144.28C260.657 145.548 264.071 145.166 266.801 143.391C266.824 143.376 266.848 143.363 266.872 143.351C269.539 142.065 272.18 138.436 272.568 135.671L272.583 135.561L280.838 84.1204C280.875 83.8898 281.035 83.6978 281.254 83.6197C285.61 82.0706 288.977 80.2537 291.386 78.3147C292.547 77.3745 294.614 74.6269 296.806 71.2171L296.965 70.9694C297.897 69.5108 298.77 68.0558 299.426 66.8726L299.501 66.7373C299.827 66.1454 300.086 65.6433 300.261 65.2622L300.315 65.143C300.374 65.0098 300.42 64.8969 300.452 64.8069L300.482 64.7169C300.487 64.7036 300.489 64.7017 300.489 64.7154C300.486 64.2916 300.403 64.1499 300.284 64.1186Z" fill="#2F4077"/>
<path fill-rule="evenodd" clip-rule="evenodd" d="M257.681 111.252C257.681 111.252 249.638 124.969 254.234 132.318L257.681 111.252Z" fill="white"/>
<path fill-rule="evenodd" clip-rule="evenodd" d="M258.004 110.701C258.297 110.873 258.402 111.243 258.25 111.541L258.125 111.761C258.096 111.813 258.064 111.87 258.03 111.932L257.919 112.136C257.805 112.346 257.682 112.577 257.553 112.826L257.489 112.952C256.926 114.049 256.364 115.256 255.839 116.537C254.764 119.16 253.99 121.739 253.647 124.138C253.192 127.317 253.525 129.981 254.775 131.979C254.962 132.278 254.872 132.673 254.573 132.86C254.274 133.047 253.88 132.957 253.693 132.657C252.259 130.365 251.89 127.408 252.383 123.957C252.743 121.44 253.546 118.765 254.658 116.052C255.197 114.736 255.775 113.496 256.353 112.369L256.486 112.111C256.616 111.861 256.74 111.629 256.856 111.417L257.043 111.08L257.13 110.929C257.309 110.624 257.7 110.522 258.004 110.701Z" fill="#2F4077"/>
<path fill-rule="evenodd" clip-rule="evenodd" d="M119.17 97.5985C119.17 97.5985 110.341 95.3193 105.277 90.6119C102.256 87.8003 98.3832 83.9875 98.4471 82.7308C98.5535 80.3877 103.511 83.9236 104.319 84.4135" fill="white"/>
<path fill-rule="evenodd" clip-rule="evenodd" d="M103.989 84.9603L103.899 84.901C103.593 84.7019 102.61 84.071 102.109 83.7732L102.075 83.753C101.75 83.5608 101.44 83.3882 101.146 83.2368C100.415 82.8602 99.813 82.6323 99.407 82.5844L99.3593 82.5795C99.1057 82.5577 99.0943 82.5575 99.0855 82.7387L99.0844 82.7634C99.0465 83.5099 101.711 86.4211 105.711 90.1438C107.066 91.4038 108.788 92.5648 110.79 93.622C112.657 94.6081 114.662 95.4504 116.668 96.1486C117.312 96.3727 117.913 96.5668 118.458 96.7311L118.606 96.7752C118.751 96.8183 118.885 96.857 119.006 96.8912L119.33 96.9799C119.671 97.068 119.876 97.4164 119.788 97.7582C119.704 98.0877 119.377 98.2907 119.048 98.2257L118.956 98.203L118.806 98.1621C118.643 98.1171 118.455 98.0633 118.243 98.0005C117.641 97.8218 116.97 97.607 116.249 97.3558C114.186 96.6379 112.124 95.7713 110.194 94.7524C108.1 93.6466 106.289 92.4248 104.842 91.0801L104.432 90.6971C100.072 86.6157 97.7419 84.028 97.8093 82.7019C97.8539 81.7202 98.526 81.2253 99.4683 81.3062C100.082 81.3588 100.833 81.6382 101.73 82.1003C102.002 82.2404 102.284 82.3958 102.576 82.5658L102.724 82.652C103.049 82.8438 103.584 83.181 104.008 83.4522L104.65 83.867C104.951 84.0497 105.048 84.4426 104.865 84.7445C104.683 85.0465 104.29 85.1431 103.989 84.9603Z" fill="#2F4077"/>
<path fill-rule="evenodd" clip-rule="evenodd" d="M113.255 90.4417C113.255 90.4417 109.319 87.5448 107.362 84.8396C105.404 82.1132 103.872 80.3665 104.298 79.8979C104.723 79.408 107.192 79.1524 108.553 80.7287C110.234 83.519 115.447 86.9058 115.447 86.9058C114.83 86.778 111.319 83.9663 109.617 82.1558C107.936 80.3452 107.34 77.1715 112.128 80.0257C112.128 80.0257 117.213 83.2421 119.128 84.1367C119.128 84.1367 127.362 85.7556 129.83 88.7376C131.511 90.7399 141.787 109.932 148.319 122.243C154.426 115.001 160.234 108.036 160.234 108.036L193.872 111.316C193.872 111.316 192.362 113.851 168.872 142.308C157 156.686 148.34 158.582 142.638 155.749C139.532 154.663 136.362 151.084 135.681 148.23L121.66 98.0459C116.66 96.8744 113.128 95.3408 110.809 93.8497C107.787 91.9114 100.043 81.9641 99.9362 80.8991C99.6383 78.0874 103.894 79.834 107.064 84.5201" fill="white"/>
<path fill-rule="evenodd" clip-rule="evenodd" d="M121.146 98.5804L121.064 98.5608C116.594 97.4753 113.022 96.0322 110.464 94.3878C107.653 92.5845 99.4548 82.5005 99.3016 80.9665C99.095 79.017 100.592 78.4336 102.472 79.3199C102.793 79.4716 103.125 79.6608 103.462 79.8839L103.589 79.9697L103.59 79.9616C103.611 79.8006 103.672 79.6513 103.785 79.5154L103.816 79.4786C104.212 79.0236 105.152 78.8183 106.129 78.9018C106.708 78.9514 107.267 79.098 107.772 79.3442L107.785 79.351L107.787 79.3424C107.798 79.2858 107.812 79.2307 107.829 79.1772L107.847 79.1243C108.088 78.4567 108.729 78.1597 109.56 78.266C110.293 78.3596 111.25 78.7586 112.469 79.4855L112.972 79.8015C113.151 79.9137 113.344 80.034 113.548 80.1607L114.25 80.5943C114.835 80.9543 115.419 81.3093 115.984 81.6469L116.545 81.9809C117.732 82.6824 118.677 83.2105 119.287 83.5051L119.33 83.5254L119.674 83.5991L119.756 83.6171C120.151 83.705 120.592 83.8097 121.066 83.9311C122.422 84.2783 123.778 84.6901 125.048 85.1663C127.488 86.0812 129.32 87.1199 130.319 88.3265C131.676 89.944 137.996 101.47 147.127 118.637L148.44 121.109L150.498 118.664C151.797 117.119 153.114 115.55 154.43 113.98L157.86 109.882L159.744 107.626C159.87 107.475 160.059 107.391 160.254 107.397L160.296 107.4L193.934 110.68C194.4 110.726 194.66 111.241 194.421 111.644L194.375 111.715C194.298 111.832 194.15 112.041 193.9 112.378L193.781 112.539C193.169 113.36 192.222 114.587 190.868 116.301L189.905 117.516C185.697 122.812 179.027 131.009 169.364 142.715C163.686 149.592 158.458 153.976 153.698 156.068C149.492 157.916 145.708 157.945 142.463 156.374L142.39 156.338L142.331 156.317C139.153 155.157 135.868 151.559 135.083 148.473L135.066 148.402L121.146 98.5804ZM100.566 80.7839L100.571 80.8294C100.572 80.817 100.587 80.8579 100.618 80.9219C100.665 81.0196 100.734 81.145 100.822 81.2943L100.856 81.3515C101.073 81.7097 101.385 82.1787 101.776 82.7297L101.957 82.983C102.666 83.9705 103.565 85.1442 104.523 86.3331L104.774 86.6435C107.405 89.8796 109.862 92.4833 111.154 93.3121C113.666 94.9274 117.258 96.3583 121.805 97.4237C122.019 97.4737 122.19 97.6295 122.262 97.8347L122.274 97.8738L136.296 148.058L136.302 148.081C136.949 150.793 140.017 154.155 142.849 155.146C142.874 155.154 142.898 155.165 142.922 155.176C145.841 156.627 149.268 156.619 153.185 154.897C157.693 152.916 162.717 148.721 168.214 142.103L171.362 138.286C179.428 128.491 185.15 121.447 188.906 116.721L189.958 115.393C191.014 114.054 191.815 113.022 192.395 112.258L192.706 111.844L160.508 108.704L157.056 112.834L154.974 115.319C152.891 117.804 150.811 120.279 148.807 122.655C148.516 123.001 147.967 122.942 147.756 122.543L146.003 119.244C137.014 102.345 130.608 90.6576 129.338 89.1453C128.516 88.152 126.848 87.2057 124.6 86.3631C123.378 85.9048 122.064 85.5059 120.75 85.1693C120.289 85.0514 119.862 84.9498 119.479 84.8648L119.189 84.8017L119.005 84.7638C118.954 84.7538 118.905 84.7377 118.858 84.7158C118.187 84.4025 117.13 83.8126 115.778 83.0113L115.329 82.744C114.646 82.3355 113.935 81.9022 113.229 81.4655L112.405 80.9541L111.801 80.5748C110.734 79.9385 109.924 79.6009 109.399 79.5337C109.11 79.4968 109.061 79.5193 109.047 79.5587C108.951 79.8251 109.174 80.4674 109.597 81.1012L109.632 81.1543L109.671 81.2024C109.747 81.2963 109.826 81.3917 109.91 81.4884L109.995 81.5856C110.57 82.2366 111.302 82.9316 112.154 83.6505C112.95 84.3223 113.805 84.9775 114.66 85.5885L114.88 85.745C115.025 85.8466 115.163 85.9428 115.294 86.0331L115.586 86.2311L115.794 86.3698C116.387 86.7545 116.009 87.6748 115.318 87.5316C114.496 87.3615 110.889 84.4412 109.15 82.5908C108.957 82.3837 108.779 82.1643 108.619 81.9384L108.58 81.8825L108.504 81.7837C108.342 81.5717 108.197 81.3639 108.069 81.1602L108.039 81.1117L108.018 81.088C107.54 80.5681 106.859 80.2648 106.104 80.1833L106.02 80.1752C105.682 80.1462 105.353 80.1657 105.087 80.2238C105.031 80.236 104.979 80.2497 104.933 80.2642L104.924 80.2673L104.927 80.2743C105.007 80.4543 105.152 80.6989 105.366 81.0184L105.462 81.16C105.779 81.6208 107.471 83.8971 107.879 84.4648C107.992 84.6212 108.114 84.7813 108.245 84.9446C108.776 85.6063 109.441 86.3108 110.208 87.0397C110.958 87.7511 111.762 88.4463 112.567 89.0959C112.778 89.2664 112.978 89.4245 113.163 89.5686L113.437 89.7793L113.634 89.9268C113.918 90.1359 113.979 90.5358 113.77 90.8202C113.561 91.1045 113.161 91.1656 112.877 90.9565L112.711 90.8317L112.568 90.7227C112.325 90.5369 112.056 90.3251 111.765 90.0907C110.936 89.4211 110.106 88.7041 109.33 87.9669C108.524 87.2013 107.821 86.4565 107.25 85.7451C107.142 85.6104 107.039 85.4773 106.941 85.3448L106.741 85.0712L106.724 85.0612C106.662 85.022 106.605 84.9714 106.558 84.9101L106.535 84.8785C105.113 82.7757 103.362 81.1524 101.928 80.476C101.355 80.2059 100.917 80.1345 100.71 80.2152C100.598 80.2588 100.532 80.3991 100.566 80.7839Z" fill="#2F4077"/>
<path fill-rule="evenodd" clip-rule="evenodd" d="M148.319 122.243C148.319 122.243 157.851 134.96 154.149 142.777L148.319 122.243Z" fill="white"/>
<path fill-rule="evenodd" clip-rule="evenodd" d="M147.936 121.732C148.218 121.52 148.618 121.577 148.83 121.86L148.91 121.969C148.973 122.055 149.046 122.156 149.127 122.272L149.27 122.475C149.464 122.754 149.674 123.064 149.897 123.402C150.691 124.61 151.484 125.935 152.226 127.339C153.68 130.096 154.753 132.809 155.282 135.367C155.886 138.291 155.751 140.886 154.726 143.051C154.575 143.37 154.194 143.506 153.876 143.354C153.557 143.203 153.421 142.822 153.572 142.503C154.463 140.622 154.585 138.3 154.032 135.626C153.53 133.202 152.5 130.595 151.097 127.937C150.376 126.571 149.603 125.28 148.83 124.105L148.653 123.838C148.479 123.577 148.315 123.337 148.161 123.118L147.996 122.885L147.809 122.627C147.597 122.345 147.654 121.944 147.936 121.732Z" fill="#2F4077"/>
<path fill-rule="evenodd" clip-rule="evenodd" d="M229.681 88.6311C240.596 91.9539 254.809 107.588 254.809 107.588L233.979 130.423L242.958 189.297L168.404 189.808L173.17 151.702C173.17 151.702 165.17 144.886 165.277 135.705C165.383 126.525 165.724 126.887 165.724 126.887L154.766 113.425C154.766 113.425 163.468 98.2376 172.702 94.723C181.936 91.2084 219.213 85.436 229.681 88.6311Z" fill="#465F9D"/>
<path fill-rule="evenodd" clip-rule="evenodd" d="M186.596 84.0941L187.234 91.315L182.894 92.4226C181.064 93.5515 180.17 107.333 193.617 105.948C207.064 104.564 214.66 95.852 216.511 88.1838L210.553 88.4607L206.766 70.3127L186.596 84.0941Z" fill="white"/>
<path fill-rule="evenodd" clip-rule="evenodd" d="M186.236 83.5662L186.201 83.5917C186.033 83.7245 185.941 83.9344 185.96 84.1503L186.55 90.8296L182.736 91.8033C182.674 91.8192 182.614 91.8446 182.559 91.8785C181.137 92.7559 180.743 97.0563 181.926 100.345C183.518 104.765 187.443 107.226 193.683 106.584C200.133 105.92 205.62 103.562 209.831 99.9051C213.564 96.6634 216.121 92.5179 217.131 88.3338L217.139 88.2962C217.211 87.8963 216.893 87.5262 216.481 87.5454L211.067 87.7969L207.391 70.1819C207.298 69.7361 206.782 69.5281 206.406 69.7848L186.236 83.5662ZM206.337 71.3796L209.929 88.5913L209.938 88.6292C210.016 88.9159 210.283 89.1129 210.583 89.0989L215.668 88.8623L215.643 88.95C214.56 92.5611 212.253 96.1095 208.994 98.9396C204.983 102.423 199.743 104.675 193.552 105.313C187.895 105.895 184.52 103.779 183.127 99.9113C182.593 98.4266 182.405 96.7621 182.542 95.2652C182.601 94.6182 182.72 94.0409 182.878 93.6009L182.899 93.5449C182.996 93.2886 183.098 93.1082 183.172 93.0196L183.182 93.0085L187.392 91.9341L187.429 91.9233C187.712 91.8328 187.897 91.5576 187.87 91.2585L187.265 84.4105L206.337 71.3796Z" fill="#2F4077"/>
<path fill-rule="evenodd" clip-rule="evenodd" d="M206.83 64.0078L208.681 64.3699C208.681 64.3699 219.447 65.6266 218.83 55.7645C218.362 48.2668 211 48.7354 207.468 49.3744" fill="white"/>
<path fill-rule="evenodd" clip-rule="evenodd" d="M207.355 48.7455C209.929 48.2798 212.393 48.2454 214.49 48.9088C217.436 49.8405 219.238 52.0633 219.467 55.7245C219.762 60.4477 217.63 63.2549 213.965 64.4471C212.262 65.0013 210.489 65.1338 208.949 65.0334L208.804 65.023C208.717 65.0162 208.651 65.0097 208.607 65.0046L208.583 65.0013L208.558 64.997L206.707 64.6349C206.361 64.5672 206.136 64.2316 206.203 63.8852C206.269 63.5512 206.583 63.3292 206.915 63.3745L206.952 63.3806L208.776 63.7372L208.844 63.7439C208.883 63.7474 208.931 63.7512 208.988 63.7551L209.032 63.7581C210.424 63.8488 212.046 63.7277 213.571 63.2317C216.706 62.2118 218.45 59.9157 218.193 55.8043C217.998 52.6797 216.557 50.9027 214.106 50.1275C212.246 49.5393 209.97 49.571 207.582 50.0032C207.235 50.0659 206.903 49.8353 206.84 49.488C206.777 49.1407 207.008 48.8083 207.355 48.7455Z" fill="#2F4077"/>
<path fill-rule="evenodd" clip-rule="evenodd" d="M168.447 59.8542C168.787 64.3486 172.724 84.8396 187.149 84.6905C201.575 84.5414 209.681 70.4405 209.596 56.9147C209.511 43.389 202.234 32.973 193.107 32.8665C183.979 32.76 165.958 27.2432 168.447 59.8542Z" fill="white"/>
<path fill-rule="evenodd" clip-rule="evenodd" d="M183.165 31.8515C178.071 32.1116 174.254 33.7309 171.564 37.4229C168.353 41.8305 167.017 49.011 167.787 59.5814L167.811 59.9024C168.095 63.6585 169.584 69.5715 171.945 74.2993C175.432 81.281 180.454 85.3987 187.156 85.3294C194.193 85.2567 200.137 81.9424 204.329 76.1957C208.165 70.9386 210.278 63.9337 210.234 56.9106C210.148 43.1439 202.697 32.3393 193.114 32.2275L192.627 32.2183C192.177 32.2062 191.717 32.1821 190.958 32.1316L188.759 31.9779C186.306 31.8106 184.826 31.7666 183.165 31.8515ZM190.89 33.4079C191.933 33.4773 192.425 33.4975 193.099 33.5054C201.866 33.6077 208.875 43.7713 208.958 56.9187C209 63.676 206.968 70.4131 203.299 75.4419C199.335 80.8747 193.761 83.983 187.143 84.0514C181.01 84.1148 176.377 80.316 173.087 73.7278C170.834 69.2165 169.393 63.5524 169.095 59.9449L169.083 59.8054C168.284 49.3341 169.562 42.3399 172.595 38.176C175.002 34.8721 178.416 33.4005 183.083 33.1357L183.23 33.1278C184.829 33.0461 186.27 33.0891 188.68 33.2534L190.89 33.4079Z" fill="#2F4077"/>
<rect width="5.17084" height="9.13679" transform="matrix(0.944285 0.329128 -0.328472 0.944514 208.841 15.009)" fill="#E4794A"/>
<path fill-rule="evenodd" clip-rule="evenodd" d="M214.17 18.297C219.211 18.297 223.298 14.2059 223.298 9.15913C223.298 4.11241 219.211 0.0212402 214.17 0.0212402C209.129 0.0212402 205.043 4.11241 205.043 9.15913C205.043 14.2059 209.129 18.297 214.17 18.297Z" fill="#2F4077"/>
<path fill-rule="evenodd" clip-rule="evenodd" d="M206.234 20.7892C198.128 18.2119 189.426 17.0191 181.766 20.065C158.553 30.5662 158.511 48.0964 168.256 56.0628C167.894 43.6446 170.915 37.6379 175.17 34.8049C179.83 42.2388 194.873 48.6715 208.639 48.8206C208.66 48.9484 208.702 49.0762 208.724 49.1827C212.511 48.7141 218.447 49.0549 218.851 55.7646C219.426 65.009 210.022 64.4978 208.83 64.3913C208.681 65.1155 206.745 71.7399 206.745 71.7399L208.83 81.2186L239.447 76.4473C241.298 76.4047 242.575 74.5729 241.979 72.8262C238.298 61.8565 232.298 29.4372 206.234 20.7892Z" fill="#2F4077"/>
<path fill-rule="evenodd" clip-rule="evenodd" d="M189.145 69.5876L189.074 69.5888L188.917 69.596L188.811 69.6021C188.583 69.616 188.305 69.6369 188.005 69.6635C187.188 69.736 186.348 69.838 185.564 69.97C184.547 70.1413 183.691 70.3515 183.042 70.6103C182.114 70.9806 181.553 71.4623 181.553 72.1871C181.553 73.4595 183.398 74.5534 185.247 74.578C187.477 74.6076 189.225 73.1802 189.775 70.3496C189.783 70.3093 189.787 70.2684 189.787 70.2274L189.745 70.0648C189.685 69.8392 189.662 69.8208 189.524 69.7102L189.437 69.6585C189.403 69.6391 189.389 69.6343 189.351 69.6212L189.271 69.5999C189.259 69.5973 189.251 69.5961 189.235 69.594L189.178 69.5885L189.145 69.5876ZM188.312 70.9197L188.294 70.9726C187.74 72.5893 186.649 73.3185 185.264 73.3001C184.614 73.2914 183.952 73.1036 183.448 72.8048L183.399 72.7745C183.057 72.5624 182.865 72.3399 182.834 72.2188L182.832 72.2058L182.842 72.1923C182.856 72.1749 182.877 72.1533 182.906 72.1284C183.028 72.0234 183.235 71.9092 183.515 71.7975C184.063 71.5787 184.84 71.3879 185.776 71.2303C186.524 71.1044 187.332 71.0063 188.118 70.9365L188.312 70.9197Z" fill="#2F4077"/>
<path fill-rule="evenodd" clip-rule="evenodd" d="M179.671 48.3954C180.011 48.413 180.275 48.693 180.277 49.029L180.276 49.0666L179.421 65.5804L182.964 65.1415C183.302 65.0997 183.61 65.3296 183.67 65.6601L183.676 65.6972C183.718 66.0349 183.488 66.3437 183.158 66.4042L183.121 66.4099L178.823 66.9424C178.442 66.9896 178.109 66.6922 178.106 66.3133L178.107 66.2752L179.001 49.0005C179.019 48.6606 179.298 48.3966 179.634 48.3945L179.671 48.3954Z" fill="#2F4077"/>
<path fill-rule="evenodd" clip-rule="evenodd" d="M170.389 49.8038C171.123 49.6762 171.887 49.7423 172.626 49.9272C172.909 49.9981 173.126 50.0703 173.257 50.1225C173.585 50.2528 173.745 50.6244 173.615 50.9523C173.489 51.2686 173.14 51.4288 172.821 51.323L172.724 51.2878C172.709 51.2825 172.692 51.2765 172.672 51.2699C172.567 51.2352 172.448 51.2 172.316 51.1671C171.736 51.0218 171.141 50.9703 170.607 51.063C169.893 51.187 169.361 51.5536 169.021 52.2531C168.866 52.5703 168.484 52.7021 168.167 52.5474C167.85 52.3927 167.719 52.0102 167.873 51.693C168.403 50.6056 169.289 49.9948 170.389 49.8038Z" fill="#2F4077"/>
<path fill-rule="evenodd" clip-rule="evenodd" d="M192.787 51.6535C192.787 51.6535 187.553 52.4203 186.915 49.0122L192.787 51.6535Z" fill="white"/>
<path fill-rule="evenodd" clip-rule="evenodd" d="M186.797 48.3841C187.144 48.3191 187.477 48.5475 187.542 48.8944C187.75 50.0055 188.589 50.6486 189.95 50.9342C190.745 51.1009 191.606 51.121 192.392 51.0537L192.515 51.0422L192.622 51.0304C192.66 51.0259 192.685 51.0226 192.695 51.0212C193.044 50.97 193.368 51.2117 193.419 51.5609C193.47 51.9101 193.229 52.2346 192.88 52.2857L192.787 52.298C192.713 52.3069 192.617 52.317 192.5 52.327C191.602 52.4041 190.624 52.3813 189.689 52.1851C187.872 51.8041 186.607 50.8331 186.288 49.1299C186.223 48.7831 186.451 48.4491 186.797 48.3841Z" fill="#2F4077"/>
<path fill-rule="evenodd" clip-rule="evenodd" d="M190.699 57.478C191.476 57.3567 191.955 56.2783 191.767 55.0694C191.578 53.8606 190.795 52.9789 190.017 53.1002C189.24 53.2215 188.761 54.2998 188.949 55.5087C189.138 56.7176 189.921 57.5993 190.699 57.478Z" fill="#2F4077"/>
<path fill-rule="evenodd" clip-rule="evenodd" d="M174.87 60.3298C175.648 60.2085 176.126 59.1301 175.938 57.9212C175.75 56.7124 174.967 55.8307 174.189 55.952C173.411 56.0733 172.933 57.1516 173.121 58.3605C173.309 59.5694 174.092 60.4511 174.87 60.3298Z" fill="#2F4077"/>
<path fill-rule="evenodd" clip-rule="evenodd" d="M191.113 39.8753C185.758 40.6881 182.348 46.9576 183.386 53.8219C184.424 60.6862 189.535 65.6621 194.889 64.8494C200.244 64.0366 203.654 57.767 202.616 50.9027C201.578 44.0384 196.467 39.0625 191.113 39.8753ZM191.304 41.1387C195.873 40.4451 200.412 44.8636 201.354 51.0944C202.296 57.3251 199.268 62.8923 194.698 63.586C190.129 64.2796 185.59 59.861 184.648 53.6303C183.706 47.3996 186.735 41.8323 191.304 41.1387Z" fill="#E4794A"/>
<path fill-rule="evenodd" clip-rule="evenodd" d="M166.537 44.2427C161.183 45.0555 157.772 51.325 158.81 58.1893C159.848 65.0537 164.959 70.0296 170.314 69.2168C175.668 68.404 179.079 62.1345 178.041 55.2702C177.003 48.4058 171.891 43.4299 166.537 44.2427ZM166.728 45.5061C171.297 44.8125 175.836 49.2311 176.778 55.4618C177.72 61.6925 174.692 67.2598 170.123 67.9534C165.553 68.647 161.015 64.2284 160.072 57.9977C159.13 51.767 162.159 46.1997 166.728 45.5061Z" fill="#E4794A"/>
<path fill-rule="evenodd" clip-rule="evenodd" d="M183.657 51.8335C184.004 51.7732 184.335 52.0061 184.395 52.3539C184.453 52.6892 184.239 53.0087 183.912 53.0852L183.875 53.0927L177.13 54.2642C176.783 54.3246 176.453 54.0916 176.392 53.7439C176.334 53.4086 176.549 53.089 176.875 53.0125L176.912 53.005L183.657 51.8335Z" fill="#E4794A"/>
<path fill-rule="evenodd" clip-rule="evenodd" d="M201.956 47.9911L210.488 48.5449C210.84 48.5678 211.107 48.8718 211.084 49.224C211.062 49.5636 210.779 49.8239 210.443 49.8216L210.406 49.8203L201.874 49.2665C201.522 49.2436 201.255 48.9396 201.278 48.5875C201.3 48.2479 201.583 47.9875 201.919 47.9898L201.956 47.9911Z" fill="#E4794A"/>
<path fill-rule="evenodd" clip-rule="evenodd" d="M320.596 188.871C320.948 188.871 321.234 189.157 321.234 189.51C321.234 189.85 320.968 190.129 320.633 190.148L320.596 190.149H1.19152C0.838998 190.149 0.553223 189.863 0.553223 189.51C0.553223 189.17 0.81895 188.892 1.15402 188.872L1.19152 188.871H320.596Z" fill="#2F4077"/>
</svg>
