<svg xmlns="http://www.w3.org/2000/svg" width="180" height="87" fill="none"><path fill="#2F4077" fill-rule="evenodd" d="M28.217 39.392c-.76 2.939.586 6.758 3.945 10.125l.103.102c2.528 2.501 4.698 4.229 6.535 5.301l.136.08c1.311.748 2.356 1.107 3.152 1.178.384.037.764-.085 1.068-.338.362-.313.548-.768.499-1.233l-.005-.036c-.872-7.924-4.492-15.09-9.456-17.726-2.722-1.448-5.245-.277-5.977 2.547Zm5.696-2.018c4.71 2.501 8.219 9.377 9.116 17.037l.026.232a.825.825 0 0 1-.287.74.844.844 0 0 1-.624.198c-.732-.065-1.74-.417-3.042-1.178-1.77-1.033-3.873-2.704-6.331-5.126l-.085-.084c-3.293-3.253-4.599-6.908-3.889-9.65.636-2.456 2.74-3.432 5.116-2.169Z" clip-rule="evenodd"/><path fill="#2F4077" fill-rule="evenodd" d="M29.525 37.546a.3.3 0 0 1 .41-.016l.024.023.155.157.417.425.19.198c.462.48.968 1.019 1.509 1.611a90.787 90.787 0 0 1 5.011 5.964c1.911 2.494 3.529 4.918 4.76 7.21.387.72.733 1.422 1.037 2.107a.3.3 0 0 1-.548.243c-.298-.67-.637-1.36-1.017-2.067-1.214-2.26-2.815-4.658-4.707-7.128a89.932 89.932 0 0 0-4.797-5.725l-.182-.2a85.813 85.813 0 0 0-1.569-1.674l-.208-.215-.17-.173-.236-.24-.077-.076a.3.3 0 0 1-.002-.424Z" clip-rule="evenodd"/><path fill="#2F4077" fill-rule="evenodd" d="m31.386 47.456.123-.003c.2-.001.458.004.769.019l.059.003c.559.03 1.169.087 1.818.18 1.78.254 3.58.727 5.311 1.473a.3.3 0 1 1-.237.55 20.276 20.276 0 0 0-5.159-1.43c-.63-.09-1.223-.146-1.765-.174l-.112-.006a12.75 12.75 0 0 0-.678-.015l-.108.002a.3.3 0 1 1-.02-.6Z" clip-rule="evenodd"/><path fill="#2F4077" fill-rule="evenodd" d="M35.704 38.406a.3.3 0 0 1 .408.114l.086.153.103.188.105.195a62.527 62.527 0 0 1 1.884 3.793c.378.83.718 1.635 1.013 2.403l.063.166c.81 2.144 1.214 3.875 1.099 5.074a.3.3 0 0 1-.597-.057c.107-1.111-.304-2.829-1.125-4.968-.29-.756-.626-1.55-.998-2.37a62.026 62.026 0 0 0-1.482-3.033l-.12-.23c-.093-.174-.18-.339-.264-.494l-.126-.232-.144-.262-.019-.032a.3.3 0 0 1 .114-.408Zm.329 13.556.024-.002.154-.002c.351-.004.8.01 1.313.053.844.07 1.679.206 2.462.425.75.208 1.421.485 1.996.837a.3.3 0 1 1-.314.511c-.523-.32-1.144-.576-1.843-.771a12.772 12.772 0 0 0-2.351-.405 13.59 13.59 0 0 0-1.301-.05l-.1.002a.3.3 0 0 1-.04-.598Zm22.32-27.757c-3.383.149-6.555 3.315-8.216 8.851l-.05.169-.076.264c-1.151 3.984-1.747 7.27-1.885 9.926l-.004.087c-.098 2.03.077 3.534.42 4.584.15.463.442.858.828 1.115.49.33 1.059.389 1.52.132 7.587-4.126 12.954-11.418 13.04-18.677.05-3.915-2.37-6.593-5.577-6.451Zm4.978 6.443c-.083 7.018-5.316 14.128-12.73 18.16-.253.141-.583.107-.897-.105a1.524 1.524 0 0 1-.592-.803c-.32-.977-.486-2.41-.392-4.37l.01-.171c.145-2.62.743-5.877 1.895-9.835l.038-.131c.826-2.83 2.033-5.019 3.502-6.5 1.308-1.32 2.782-2.027 4.214-2.09 2.844-.125 4.998 2.258 4.952 5.845Z" clip-rule="evenodd"/><path fill="#2F4077" fill-rule="evenodd" d="M60.792 25.535a.3.3 0 0 1 .282.53c-3.075 1.639-5.628 5.57-7.673 11.095-.977 2.64-1.773 5.469-2.403 8.299l-.059.268c-.174.8-.325 1.551-.452 2.24l-.04.227c-.04.217-.074.415-.104.593l-.056.344-.015.096a.3.3 0 0 1-.595-.07l.004-.031.036-.225.025-.153c.026-.157.055-.33.089-.517l.025-.143c.15-.833.335-1.76.557-2.76.635-2.854 1.439-5.709 2.426-8.376 2.092-5.65 4.714-9.69 7.953-11.417Z" clip-rule="evenodd"/><path fill="#2F4077" fill-rule="evenodd" d="M63.11 31.557a.3.3 0 0 1 .243.548 67.193 67.193 0 0 0-5.002 2.47l-.174.097c-2.39 1.325-4.227 2.589-5.254 3.705a.3.3 0 0 1-.44-.406c1.094-1.189 3.005-2.5 5.49-3.87l.09-.05a67.77 67.77 0 0 1 5.047-2.494Zm-12.624 1.637a.3.3 0 1 1 .597.055l-.023.249c-.36 4.041-.255 7.273.582 8.372a.3.3 0 1 1-.476.363c-.562-.737-.83-2.155-.884-4.131-.04-1.474.042-3.158.204-4.908Zm9.411 7.165a.3.3 0 0 1 .375.468c-.931.745-2.273 1.515-3.922 2.294a52.392 52.392 0 0 1-3.594 1.523l-.196.075c-.322.122-.625.234-.905.334l-.26.093-.275.096a.3.3 0 0 1-.208-.562l.325-.114.133-.047c.353-.127.747-.272 1.172-.435a51.896 51.896 0 0 0 3.552-1.505c1.61-.76 2.916-1.51 3.803-2.22Zm-5.282 13.638a.3.3 0 1 1 .05.597c-1.49.126-2.755.782-3.818 1.856-.814.825-1.456 1.837-1.937 2.912a.3.3 0 1 1-.547-.244c.508-1.136 1.187-2.208 2.058-3.089 1.158-1.171 2.552-1.893 4.194-2.032Z" clip-rule="evenodd"/><path fill="#E4794A" fill-rule="evenodd" d="M54.765 54.166c.35-.048.515-.942.37-1.997-.145-1.055-.546-1.87-.896-1.823-.35.049-.516.943-.37 1.998.145 1.054.546 1.87.896 1.822Z" clip-rule="evenodd"/><path fill="#E4794A" fill-rule="evenodd" d="M56.507 53.503c.758-.616 1.209-1.317 1.007-1.565-.202-.248-.98.05-1.738.665-.757.616-1.208 1.317-1.006 1.565.202.249.98-.05 1.737-.665Z" clip-rule="evenodd"/><path fill="#E4794A" fill-rule="evenodd" d="M54.763 54.115c.162-.313-.473-.964-1.42-1.452-.945-.489-1.844-.63-2.006-.317-.162.314.474.964 1.42 1.453.946.488 1.844.63 2.006.316Zm3.117 1.74c.152-.282-.421-.886-1.28-1.35-.86-.465-1.68-.613-1.831-.331-.152.281.42.886 1.28 1.35.859.464 1.678.612 1.83.33Z" clip-rule="evenodd"/><path fill="#E4794A" fill-rule="evenodd" d="M54.54 56.015c.41-.886.508-1.713.217-1.848-.29-.134-.858.475-1.268 1.361-.41.886-.508 1.714-.217 1.848.29.135.858-.475 1.268-1.36Z" clip-rule="evenodd"/><path fill="#2F4077" fill-rule="evenodd" d="M38.583 31.383a.3.3 0 0 1 .421-.049l.037.03.056.047.056.048a14.82 14.82 0 0 1 1.062 1.044c.895.97 1.79 2.15 2.623 3.543 1.55 2.587 2.71 5.608 3.325 9.077.753 4.253.646 8.979-.48 14.188a.3.3 0 0 1-.585-.126c1.109-5.135 1.214-9.782.474-13.958-.6-3.395-1.736-6.348-3.248-8.873a20.955 20.955 0 0 0-2.55-3.444 14.231 14.231 0 0 0-.835-.838l-.063-.058a7.544 7.544 0 0 0-.167-.146l-.065-.054-.012-.01a.3.3 0 0 1-.049-.42Z" clip-rule="evenodd"/><path fill="#E4794A" fill-rule="evenodd" d="M39.69 32.192c.601-.35.51-1.623-.201-2.843-.712-1.22-1.776-1.924-2.377-1.573-.6.35-.51 1.623.203 2.843.712 1.22 1.776 1.924 2.376 1.573Z" clip-rule="evenodd"/><path fill="#E4794A" fill-rule="evenodd" d="M39.846 32.175c.014-.694-1.12-1.28-2.531-1.309-1.412-.028-2.568.513-2.582 1.208-.014.695 1.12 1.28 2.532 1.309 1.412.028 2.568-.513 2.581-1.208Z" clip-rule="evenodd"/><path fill="#E4794A" fill-rule="evenodd" d="M42.126 31.082c.762-1.007.982-2.125.489-2.498-.492-.373-1.51.14-2.273 1.147-.763 1.007-.982 2.126-.49 2.5.493.372 1.51-.142 2.274-1.149Z" clip-rule="evenodd"/><path fill="#E4794A" fill-rule="evenodd" d="M40.906 35.854c.563-.256.595-1.395.072-2.545s-1.403-1.875-1.965-1.62c-.563.256-.595 1.396-.072 2.546s1.403 1.874 1.965 1.619Z" clip-rule="evenodd"/><path fill="#E4794A" fill-rule="evenodd" d="M42.894 32.389c.058-.554-.815-1.101-1.95-1.221-1.136-.12-2.104.232-2.163.786-.059.554.814 1.1 1.95 1.22 1.136.12 2.104-.231 2.163-.785Z" clip-rule="evenodd"/><path fill="#2F4077" fill-rule="evenodd" d="M57.427 58.992H36.19c-1.256 0-2.14 1.369-1.831 2.743l4.694 21.016a.3.3 0 0 0 .293.234H54.26a.3.3 0 0 0 .293-.234l4.694-21.017c.31-1.371-.572-2.742-1.82-2.742Zm0 .6h.026c.818.02 1.438.998 1.21 2.011L54.02 82.386H39.587l-4.642-20.782c-.231-1.026.406-2.012 1.245-2.012h21.237ZM160.191 29.55l-4.045.03c.529.26.989.66 1.318 1.18.609.948.679 2.127.2 3.146l-21.216 44.87h5.134l21.296-45.01c.939-1.968-.509-4.235-2.687-4.215Z" clip-rule="evenodd"/><path fill="#2F4077" fill-rule="evenodd" d="m105.962 32.875 44.26-.42c1.788-.01 2.977 1.769 2.208 3.307L134.65 73.44a5.454 5.454 0 0 1-4.865 3.056l-59.053.3c-1.469.01-2.438-1.528-1.788-2.847l10.138-19.568-3.746-.18L63.22 79.033l-45.19.04s-1.008 6.613 7.422 7.023l34.372-.11-.1.2 59.293-.21V81.06c0-1.238.999-2.237 2.238-2.237h14.743a.332.332 0 0 1 .01-.22l21.226-44.92a2.67 2.67 0 0 0-.159-2.567 2.645 2.645 0 0 0-2.238-1.228h-.02c-.15 0-.269-.11-.299-.26l-47.647.44" clip-rule="evenodd"/><path fill="#E4794A" fill-rule="evenodd" d="M129.725 53.214h-10.578c-.689 0-.969-.56-.629-1.248l2.777-5.604c.339-.69 1.178-1.249 1.878-1.249h10.578c.689 0 .969.56.629 1.249l-2.777 5.604c-.349.689-1.188 1.248-1.878 1.248Z" clip-rule="evenodd"/><path fill="#2F4077" fill-rule="evenodd" d="M130.784 44.813c.638 0 .945.54.68 1.117l-.012.025-3.318 6.676c-.252.49-.844.872-1.375.872a.3.3 0 0 1-.018-.6h.018c.292 0 .669-.237.827-.518l.013-.024 3.315-6.67c.098-.202.056-.28-.13-.28a.3.3 0 0 1 0-.599Z" clip-rule="evenodd"/><path fill="#2F4077" fill-rule="evenodd" d="m128.916 53.121-2.657-2.927a.463.463 0 0 0-.769.13l-1.798 4.056c-.16.36.16.739.539.639l1.519-.38.17 2.797c.02.4.399.68.789.6l1.108-.24a.65.65 0 0 0 .48-.85l-.939-2.716 1.338-.34c.33-.09.45-.51.22-.769Zm-1.738 7.164h-11.847c-.46 0-.978.336-1.204.77l-1.421 2.852c-.262.54.002 1.063.588 1.063h11.846c.461 0 .982-.35 1.214-.789l1.412-2.833c.262-.54-.002-1.063-.588-1.063Zm-11.847.6h11.847c.112 0 .13.035.05.198l-1.407 2.824c-.13.246-.454.464-.681.464h-11.846l-.023-.001c-.091-.005-.101-.046-.027-.198l1.407-2.824c.121-.25.446-.463.68-.463Zm37.018-25.444a.3.3 0 0 1 .018.6H88.751a.3.3 0 0 1-.018-.6h63.616Z" clip-rule="evenodd"/><path fill="#2F4077" fill-rule="evenodd" d="M140.678 32.586a.3.3 0 0 1 .556.224l-.007.016-1.308 2.996a.3.3 0 0 1-.556-.223l.006-.016 1.309-2.997Zm-9.681.042a.3.3 0 0 1 .541.256l-.007.017-1.529 2.996a.3.3 0 0 1-.541-.255l.007-.017 1.529-2.997Zm12.9 6.032c1.541-.011 2.578 1.515 1.95 2.866l-14.314 29.73a4.395 4.395 0 0 1-3.864 2.454h-.05l-51.461.17c-1.31.013-2.18-1.354-1.624-2.54l.018-.036 8.93-16.981a.3.3 0 0 1 .538.263l-.008.016-8.927 16.974a1.183 1.183 0 0 0 1.042 1.705l51.489-.17a3.794 3.794 0 0 0 3.356-2.075l.021-.042 14.295-29.689c.465-.945-.252-2.032-1.353-2.045h-.034l-39.825.25a.3.3 0 0 1-.022-.6h.018l39.825-.25Zm6.335 39.828h-29.097a2.533 2.533 0 0 0-2.537 2.537v4.985a.3.3 0 0 0 .299.3h33.573a.3.3 0 0 0 .299-.3v-4.985a2.533 2.533 0 0 0-2.537-2.537Zm0 .6h.034a1.934 1.934 0 0 1 1.904 1.937v4.685h-32.973v-4.685c0-1.073.864-1.938 1.938-1.938h29.097Z" clip-rule="evenodd"/><path fill="#2F4077" fill-rule="evenodd" d="M113.684 44.297h-9.839v8.75a1.37 1.37 0 0 1-1.369 1.369H86.824L81.47 64.704c-.77 1.358-.28 2.467 1.079 2.467h18.269c1.359 0 3.087-1.109 3.856-2.467l10.099-17.93c.759-1.368.269-2.477-1.089-2.477Z" clip-rule="evenodd"/><path fill="#2F4077" fill-rule="evenodd" d="M114.873 15.28c-2.418-7.111-5.065-8.58-6.933-8.06-1.867.52-6.932 3.036-5.174 5.334 1.758 2.297 4.295 10.258 4.295 10.258-7.321 1.259-13.894 3.896-14.853 4.296.26.31 4.245 5.413-1.159 7.441-3.546 1.329-7.481-.42-9.829-2.647l2.078-1.259c-.819.32-3.935 1.639-7.052 4.426-3.636 3.246-11.008 10.568-12.985 13.395-1.639 2.347-.66 5.024.22 5.753.878.73 2.307 2.717 8.8.52a49.67 49.67 0 0 1 3.486-1.04c-.1-.19-.16-.409-.16-.649V38.295c0-.75.61-1.369 1.368-1.369h25.502c.749 0 1.368.61 1.368 1.369v14.753a1.37 1.37 0 0 1-1.368 1.369h-18.81l7.992 7.751s2.557 2.168 3.726 3.226c.07.19.17.34.3.44 1.667 1.309 3.825 1.338 6.432.52a5.098 5.098 0 0 0 2.967-2.458l9.599-18.02c.33-.619 0-1.378-.679-1.568l-3.017-.819c-4.255-1.658-7.661-8.33-7.661-8.33 7.591-2.618 13.534-9.63 13.534-9.63s.43-3.126-1.987-10.248Z" clip-rule="evenodd"/><path fill="#2F4077" fill-rule="evenodd" d="M102.476 36.625H76.975a1.67 1.67 0 0 0-1.668 1.668v14.754c0 .921.75 1.668 1.668 1.668h25.501a1.67 1.67 0 0 0 1.668-1.668V38.293a1.67 1.67 0 0 0-1.668-1.668Zm-25.501.6h25.501a1.07 1.07 0 0 1 1.069 1.068v14.754a1.07 1.07 0 0 1-1.069 1.068H76.975a1.07 1.07 0 0 1-1.07-1.069V38.294a1.07 1.07 0 0 1 1.07-1.069Z" clip-rule="evenodd"/><path fill="#E4794A" fill-rule="evenodd" d="M93.136 42.24h-4.954a.76.76 0 0 1-.76-.76v-1.858c0-.42.34-.759.76-.759h4.954c.42 0 .76.34.76.76v1.857c0 .42-.34.76-.76.76Z" clip-rule="evenodd"/><path fill="#2F4077" fill-rule="evenodd" d="M94.745 36.625c1.048 0 1.9.8 1.917 1.805v14.437c0 1.017-.865 1.838-1.917 1.838a.3.3 0 0 1 0-.6c.718 0 1.301-.543 1.318-1.209V38.463c0-.682-.583-1.239-1.318-1.239a.3.3 0 1 1 0-.599Z" clip-rule="evenodd"/><path fill="#E4794A" fill-rule="evenodd" d="M76.919 25.246a.3.3 0 1 1 .493.341c-.336.486-.536 1.183-.536 1.938 0 1.403.674 2.503 1.438 2.527a.3.3 0 0 1-.02.599c-1.158-.036-2.018-1.44-2.018-3.127 0-.871.234-1.688.643-2.278Zm14.853-5.701a.3.3 0 0 1 .366.213c.1.373.15.769.15 1.176 0 1.702-.885 3.126-2.057 3.126a1.88 1.88 0 0 1-.272-.023.3.3 0 0 1 .084-.593l.05.007c.056.007.098.01.138.01.765 0 1.458-1.114 1.458-2.527 0-.356-.044-.7-.13-1.022a.3.3 0 0 1 .213-.367Z" clip-rule="evenodd"/><path fill="#2F4077" fill-rule="evenodd" d="M88.674 25.7a.3.3 0 0 1 .38.155l.007.016.827 2.132 2.169-1.16a.3.3 0 0 1 .355.055l.013.015c.16.185.451.592.717 1.043.413.699.729 1.428.894 2.155.474 2.082-.362 3.774-2.881 4.72-1.737.65-3.648.625-5.56.014a12.175 12.175 0 0 1-4.58-2.725.3.3 0 0 1 .034-.463l.016-.01 2.006-1.218-1.871-3.931a.3.3 0 0 1 .125-.391l.016-.009a.3.3 0 0 1 .392.126l.008.016 1.988 4.176a.3.3 0 0 1-.1.375l-.015.01-1.897 1.15.034.031c2.612 2.298 6.17 3.37 9.1 2.321l.093-.034c2.23-.836 2.917-2.227 2.508-4.025-.15-.66-.443-1.334-.826-1.984a9.018 9.018 0 0 0-.428-.658l-.047-.066-.034-.045-2.245 1.2a.3.3 0 0 1-.413-.139l-.007-.017-.95-2.447a.3.3 0 0 1 .172-.388ZM63.26 48.454c-1.977 2.098-.659 5.024.22 5.754.879.729 2.307 2.717 8.8.52 4.175-1.42 7.582-1.959 9.47-2.169 0 0 1.748-4.424.539-7.87 0 0-6.493-.1-11.337 1.887m17.705-1.586c.967-.111 1.505.725.733 1.354l-.048.038-.924.73a.3.3 0 1 1-.371-.47l.95-.75a.429.429 0 0 0 .151-.18c.006-.019.006-.026 0-.035-.014-.022-.05-.048-.108-.068a.727.727 0 0 0-.312-.023l-.034.005c-.515.084-2.313.773-3.442 1.298a.3.3 0 0 1-.252-.544l.13-.06c1.218-.555 2.996-1.23 3.527-1.294Z" clip-rule="evenodd"/><path fill="#2F4077" fill-rule="evenodd" d="M82.778 46.706c1.744-.424 3.594-.415 5.44-.09 1.178.206 2.249.53 2.77.756.308.133.504.48.464.817-.048.393-.384.655-.898.686a3.21 3.21 0 0 1-.174.003h-.057l.139.046c.451.153.742.276.835.365l.007.007c.28.29.222.717-.082.996-.28.257-.71.352-1.176.242l-.418-.103.183.088c.306.148.502.252.583.31l.007.005c.271.206.183.509-.058.697-.153.12-.385.218-.657.28-.17.038-.35.062-.535.07l-.043.002.005.019a.412.412 0 0 1-.01.224l-.008.02a.676.676 0 0 1-.238.291c-.193.146-.482.266-.811.334-.757.156-1.6.031-2.378-.43l-.06-.036-.057.02a7.479 7.479 0 0 1-.53.156c-.745.192-1.504.279-2.221.201a3.914 3.914 0 0 1-.826-.176.3.3 0 1 1 .19-.568c.218.073.452.122.7.148.636.07 1.327-.01 2.007-.185.157-.04.302-.083.433-.126l.055-.018c.03-.01.059-.02.084-.03l.09-.033a.3.3 0 0 1 .28.03c.691.466 1.447.597 2.112.46.169-.035.32-.086.435-.143l.025-.013-.08-.039a16.166 16.166 0 0 0-.647-.283l-.233-.096-.196-.079-.245-.097a68.752 68.752 0 0 0-.764-.297l-.46-.172a.3.3 0 0 1 .048-.576l.018-.004c.223-.033.75.129 1.896.623.652.28 1.305.338 1.831.218.068-.015.131-.033.188-.052l.026-.01-.102-.05a51.59 51.59 0 0 0-1.106-.519l-.3-.137-.275-.124a134.92 134.92 0 0 0-.856-.384l-.724-.32c-.33-.146-.17-.637.175-.57l.017.004 3.56.88c.293.076.53.027.66-.093.06-.055.076-.096.067-.123l-.003-.005a1.068 1.068 0 0 0-.076-.036l-.02-.009a5.383 5.383 0 0 0-.324-.122l-.117-.04a28.167 28.167 0 0 0-.932-.291l-.126-.037a98.87 98.87 0 0 0-2.498-.692c-.358-.095-.257-.622.101-.589l.047.007.28.039.108.014c.268.037.546.073.824.107l.167.02c.184.023.362.044.533.063l.16.018c.716.076 1.251.114 1.515.102.241-.015.325-.08.335-.16.009-.075-.044-.168-.106-.195l-.053-.022c-.161-.065-.45-.167-.782-.267a15.515 15.515 0 0 0-1.802-.428c-1.77-.31-3.54-.32-5.195.084a.3.3 0 0 1-.141-.583Zm-5.11-25.003a.3.3 0 0 1 .093.592c-.758.12-1.315.735-1.315 1.462 0 .81.702 1.478 1.568 1.478.522 0 1.01-.255 1.306-.665a.3.3 0 1 1 .485.352 2.218 2.218 0 0 1-1.79.913c-1.192 0-2.168-.93-2.168-2.078 0-1.029.778-1.89 1.821-2.054Zm11.674-6.093c1.19 0 2.167.93 2.167 2.077 0 1.011-.76 1.868-1.787 2.043a.3.3 0 0 1-.1-.59c.744-.127 1.288-.74 1.288-1.453 0-.81-.702-1.478-1.568-1.478-.42 0-.819.16-1.113.438a.3.3 0 1 1-.411-.437c.405-.38.951-.6 1.524-.6Z" clip-rule="evenodd"/><path fill="#2F4077" fill-rule="evenodd" d="M78.95 13.943c-2.796 2.023-2.954 6.516-.407 10.036 2.548 3.519 6.866 4.772 9.66 2.749 2.796-2.023 2.954-6.517.407-10.036-2.548-3.52-6.866-4.773-9.66-2.75Zm.35.485c2.497-1.807 6.454-.658 8.824 2.616 2.37 3.273 2.225 7.391-.271 9.198-2.497 1.808-6.454.66-8.824-2.615-2.37-3.273-2.225-7.392.272-9.199Z" clip-rule="evenodd"/><path fill="#2F4077" fill-rule="evenodd" d="M86.636 21.706c-.512.67-1.333 1.152-2.555 1.262-.527.056-.781.676-.426 1.069.361.408.782.74 1.252.936.621.258 1.278.254 1.939-.069.681-.332 1.05-.86 1.137-1.515.064-.487-.03-1.007-.23-1.528a.647.647 0 0 0-1.106-.169l-.01.014Zm.56.373c.39 1.026.282 1.85-.613 2.287-.91.444-1.754.093-2.481-.729-.023-.025-.006-.068.037-.072 1.37-.123 2.332-.678 2.945-1.458l.032-.043c.02-.026.065-.02.08.015Zm-3.552-3.782a.3.3 0 0 1 .41.022l.013.014 2.197 2.597a.3.3 0 0 1-.075.45l-.016.01-1.199.619a.3.3 0 0 1-.29-.524l.015-.009.865-.446-1.955-2.31a.3.3 0 0 1 .021-.41l.014-.012Zm-3.622-.251c.411-.484.952-.718 1.594-.526a.3.3 0 1 1-.171.574c-.383-.114-.695.021-.966.34a1.84 1.84 0 0 0-.248.38l-.012.028a.3.3 0 0 1-.553-.232l.013-.03a2.43 2.43 0 0 1 .343-.534Zm4.088-2.056c.514-.332 1.067-.444 1.6-.175.077.039.152.086.225.14a.3.3 0 1 1-.36.48.915.915 0 0 0-.136-.086c-.306-.154-.65-.084-1.004.144a2 2 0 0 0-.22.164l-.025.022-.043.04-.004.005a.3.3 0 0 1-.43-.418l.02-.02a2.596 2.596 0 0 1 .378-.297Zm-2.008 4.838c.227-.1.291-.455.143-.794-.148-.338-.452-.532-.68-.433-.227.1-.292.455-.144.793.149.34.453.533.68.434Zm4.25-1.737c.216-.122.24-.486.055-.812-.185-.326-.51-.491-.726-.368-.216.122-.24.486-.055.812.185.326.51.491.726.368Zm-12.143-4.863c1.468-2.038.37-9.91-6.463-13.235-6.912-3.377-9.66 3.206-10.209 4.884-.539 1.678-.08 5.664 5.624 7.741 5.704 2.078 9.37 2.937 11.048.61Z" clip-rule="evenodd"/><path fill="#E4794A" fill-rule="evenodd" d="m75.776 16.945-2.127-1.388c-.76-.5-.96-1.489-.44-2.208l.09-.12c.52-.729 1.558-.909 2.328-.42l2.127 1.39-1.978 2.746Z" clip-rule="evenodd"/><path fill="#2F4077" fill-rule="evenodd" d="M89.342 13.289s-1.259-7.032-10.698-.9c-1.559.87-3.117 2.648-3.716 4.566-.929 2.966 1.099 7.431 3.186 6.802.17-.05.34-.11.51-.18a8.9 8.9 0 0 1-.21-.32c-.24-.39-.45-.779-.63-1.178 2.178-2.248.53-6.093.36-6.443.78.18 1.638.48 1.848 1.409l6.043-2.428a9.436 9.436 0 0 1 2.688 2.817c.01.01.02.03.03.04.18-1.049-.38-2.287-1.459-3.366l2.048-.82Zm14.319-11.195c.287-.656.75-.944 1.194-.68.341.202.523.694.48 1.216l-.003.034c-.029.28.099.776.351 1.43a.299.299 0 1 1-.559.216c-.279-.723-.422-1.272-.391-1.675l.003-.031c.033-.324-.068-.604-.187-.675-.021-.012-.031-.012-.065.008-.082.051-.18.182-.273.394-.194.46-.238.997-.168 1.554a.3.3 0 0 1-.595.075c-.082-.653-.03-1.294.213-1.866Z" clip-rule="evenodd"/><path fill="#2F4077" fill-rule="evenodd" d="M101.372 3.724h-.002c-.561.172-.84.553-.566.953l.015.021a.981.981 0 0 0 .373.283l.037.017a.976.976 0 0 0-.282.1c-.342.225-.382.66-.145 1l.018.026c.091.122.21.223.352.3l.009.004-.011.005c-.386.165-.472.694-.179 1.054l.017.02c.167.193.421.32.754.373l.019.003-.004.004c-.25.271-.148.742.236.994l.024.016c.416.258 1.068.276 1.907.016l.018-.006 1.664 2.78a.3.3 0 0 0 .33.137c1.569-.393 2.884-1.327 3.638-2.758a.298.298 0 0 0-.029-.326l-.206-.26c-2.191-2.776-3.606-4.435-4.074-4.584-1.145-.365-3.221-.38-3.913-.172Zm1.607.47c.809.005 1.563.094 2.124.273l.009.003c.297.121 1.776 1.858 3.627 4.192l.232.293-.025.042c-.643 1.084-1.67 1.82-2.899 2.181l-.023.007-1.672-2.793a.3.3 0 0 0-.358-.128c-.818.294-1.381.295-1.652.117l-.016-.011a.228.228 0 0 1-.077-.083l-.001-.003.032-.012c.137-.05.4-.124.749-.211l.223-.055a39.699 39.699 0 0 1 .908-.209l.234-.051.302-.065a.3.3 0 0 0 .15-.505.35.35 0 0 0-.188-.094c-.222-.046-.747-.012-1.746.145l-.214.035c-.691.113-1.098.023-1.242-.154-.035-.041-.046-.082-.04-.115l.002-.01.002-.004.008-.003.021-.006c.122-.033.434-.088.86-.149l.174-.025c.136-.018.281-.038.434-.057l.27-.035c.274-.034.559-.068.844-.1l.506-.057c.379-.041.345-.604-.037-.598l-2.557.04c-.322.014-.546-.085-.648-.232-.059-.085-.055-.135-.022-.157.051-.032.476-.098 1.067-.145l.159-.012c.541-.04 1.196-.069 1.833-.083.372-.009.395-.547.038-.596l-.468-.04-1.93-.162a1.64 1.64 0 0 1-.482-.105l-.022-.009a.687.687 0 0 1-.118-.064l-.005-.003.006-.004a.933.933 0 0 1 .167-.07l.026-.009c.191-.057.806-.109 1.435-.104Z" clip-rule="evenodd"/><path fill="#E4794A" fill-rule="evenodd" d="M78.334 24.402c1.172 0 2.057 1.424 2.057 3.127 0 1.685-.868 3.098-2.022 3.126h-.065a.3.3 0 0 1-.018-.599h.048c.765 0 1.458-1.114 1.458-2.527 0-1.4-.679-2.505-1.435-2.527h-.023a.3.3 0 0 1 0-.6Zm11.886-6.593c.879 0 1.615.797 1.91 1.953a.3.3 0 1 1-.582.148c-.23-.904-.755-1.484-1.302-1.502h-.025a.3.3 0 1 1 0-.6Z" clip-rule="evenodd"/><path fill="#2F4077" fill-rule="evenodd" d="M113.684 44.008c1.594 0 2.2 1.345 1.365 2.868l-.025.046-10.099 17.93c-.813 1.436-2.61 2.596-4.072 2.62H82.538c-1.593 0-2.2-1.346-1.364-2.869l.022-.04 3.934-7.548a.3.3 0 0 1 .388-.136l.016.008a.3.3 0 0 1 .135.388l-.008.017-3.935 7.551-.005.01c-.657 1.16-.3 2.002.785 2.019h18.302c1.231 0 2.842-1.023 3.572-2.274l.023-.04 10.099-17.93c.663-1.173.292-2.02-.818-2.02a.3.3 0 1 1 0-.6Zm65.255 41.445a.3.3 0 0 1 .02.599h-.018l-177.9.7a.3.3 0 0 1-.02-.6h.018l177.9-.699Z" clip-rule="evenodd"/></svg>