<svg width="17" height="17" viewBox="0 0 17 17" fill="none" xmlns="http://www.w3.org/2000/svg">
<path d="M15.076 3.0006H15.6667C16.1269 3.0006 16.5 3.3737 16.5 3.83393V9.66723C16.5 10.1275 16.1269 10.5006 15.6667 10.5006H14L10.5264 5.63754C10.1119 5.05729 9.37425 4.805 8.69125 5.00989L6.6202 5.63122C6.03293 5.8074 5.39634 5.64691 4.96278 5.21335L4.71881 4.96937C4.34696 4.59753 4.40826 3.97845 4.84581 3.68675L9.34667 0.686166C9.89584 0.320091 10.6092 0.3125 11.166 0.666816L14.6287 2.87032C14.7623 2.95541 14.9176 3.0006 15.076 3.0006ZM3.18907 9.9129L1.8426 11.0911C1.44976 11.4347 1.46605 12.0509 1.87651 12.3735L6.16048 15.7394C6.56054 16.0537 7.14644 15.9393 7.39884 15.4976L7.98542 14.4711C8.34375 13.844 8.25742 13.0575 7.77159 12.5231L5.51981 10.0461C4.90893 9.37407 3.87252 9.3149 3.18907 9.9129ZM4.87115 2.16732H1.49984C1.0396 2.16732 0.666504 2.54042 0.666504 3.00065V9.26382C0.666504 9.60415 0.770462 9.93173 0.958329 10.206C0.978254 10.1872 0.998637 10.1686 1.01948 10.1503L2.36595 8.97215C3.56198 7.92565 5.3757 8.02923 6.44474 9.20523L8.69659 11.6822C9.54675 12.6174 9.69784 13.9938 9.07075 15.0912L8.5255 16.0455C8.99459 16.2232 9.529 16.1831 9.974 15.9161L13.6483 13.7116C14.0653 13.4613 14.1803 12.9086 13.8978 12.5128L9.50892 6.36407C9.40525 6.21903 9.22084 6.15595 9.05009 6.20717L6.97905 6.82848C5.9513 7.13682 4.83727 6.85598 4.07855 6.09723L3.83458 5.85326C2.90496 4.92364 3.05821 3.37594 4.1521 2.64668L4.87115 2.16732Z" fill="#0063CB"/>
</svg>