<svg xmlns="http://www.w3.org/2000/svg" width="182" height="68" fill="none"><path fill="#fff" fill-rule="evenodd" d="M133.151 67.358H63.832a2.3 2.3 0 0 1-2.295-2.295V23.596a2.3 2.3 0 0 1 2.296-2.295h69.318a2.3 2.3 0 0 1 2.295 2.295v41.48a2.306 2.306 0 0 1-2.295 2.282Z" clip-rule="evenodd"/><path fill="#2F4077" fill-rule="evenodd" d="M133.15 20.914H63.832a2.687 2.687 0 0 0-2.682 2.682v41.467a2.687 2.687 0 0 0 2.682 2.682h69.318a2.692 2.692 0 0 0 2.682-2.665V23.596a2.687 2.687 0 0 0-2.682-2.682Zm-69.318.774h69.318c1.05 0 1.909.858 1.909 1.908v41.48a1.918 1.918 0 0 1-1.909 1.895H63.832a1.913 1.913 0 0 1-1.908-1.908V23.596c0-1.05.858-1.908 1.908-1.908Z" clip-rule="evenodd"/><path fill="#2F4077" fill-rule="evenodd" d="M134.318 21.473a.387.387 0 0 1 .494.595l-.019.015-34.71 27c-.938.73-2.193.74-3.14.033l-.043-.033-34.71-27a.387.387 0 0 1 .455-.625l.02.015 34.71 27c.66.513 1.528.523 2.196.028l.037-.028 34.71-27Z" clip-rule="evenodd"/><path fill="#fff" fill-rule="evenodd" d="m62.324 58.81 21.184-20.592-21.184 20.591Z" clip-rule="evenodd"/><path fill="#2F4077" fill-rule="evenodd" d="M83.239 37.94a.387.387 0 0 1 .557.537l-.018.018-21.185 20.592a.387.387 0 0 1-.556-.537l.017-.018L83.24 37.94Z" clip-rule="evenodd"/><path fill="#fff" fill-rule="evenodd" d="m113.655 38.218 21.584 20.978-21.584-20.978Z" clip-rule="evenodd"/><path fill="#2F4077" fill-rule="evenodd" d="M113.377 37.948a.387.387 0 0 1 .528-.025l.019.017 21.585 20.979a.388.388 0 0 1-.521.572l-.018-.017-21.585-20.979a.387.387 0 0 1-.008-.547Z" clip-rule="evenodd"/><path fill="#fff" fill-rule="evenodd" d="m42.377 37.302 8.29-1.534s-3.739-9.439 3.16-20.618c6.898-11.166 19.109-7.298 26.29-2.243 0 0-8.561-13.874-19.302-10.909-10.74 2.966-15.975 9.555-18.077 20.863-2.102 11.308-.361 14.441-.361 14.441Z" clip-rule="evenodd"/><path fill="#2F4077" fill-rule="evenodd" d="M60.712 1.626C50.058 4.567 44.536 11.07 42.358 22.79c-1.207 6.491-1.29 10.863-.697 13.53.078.35.162.638.247.869l.027.07c.042.108.078.185.104.231.08.145.245.223.408.192l8.291-1.534a.387.387 0 0 0 .29-.523l-.026-.068-.013-.037a8.678 8.678 0 0 1-.093-.276l-.017-.054a15.592 15.592 0 0 1-.34-1.286c-.479-2.161-.653-4.663-.344-7.408.416-3.693 1.675-7.439 3.96-11.143 3.107-5.027 7.476-7.24 12.694-7.02 4.303.18 9.015 2.053 13.046 4.89.338.238.758-.148.563-.5l-.026-.043-.07-.11-.054-.082a21.07 21.07 0 0 0-.154-.233l-.034-.051a34.512 34.512 0 0 0-4.385-5.236c-2.062-2.01-4.256-3.596-6.554-4.6C66.415 1.162 63.61.85 60.81 1.6l-.098.027Zm8.159 1.452c2.203.962 4.324 2.495 6.324 4.444a33.747 33.747 0 0 1 3.377 3.848l.086.115-.097-.059c-3.715-2.257-7.838-3.704-11.679-3.867-5.493-.231-10.129 2.118-13.384 7.388-2.347 3.803-3.644 7.658-4.072 11.463-.32 2.834-.139 5.42.358 7.662.106.476.218.901.332 1.271l.04.126-7.542 1.396-.012-.033a6.37 6.37 0 0 1-.186-.68c-.567-2.554-.487-6.824.702-13.22 2.126-11.44 7.443-17.701 17.8-20.56 2.652-.733 5.31-.448 7.953.706Z" clip-rule="evenodd"/><path fill="#fff" fill-rule="evenodd" d="M37.786 44.33c-.36-3.456 1.213-6.822 7.13-8.756 5.92-1.934 11.876 2.205 12.212 3.469.335 1.264 8.677 23.764-.555 25.981-9.232 2.218-16.723-5.518-17.484-9.683-.76-4.165-1.303-11.012-1.303-11.012Z" clip-rule="evenodd"/><path fill="#2F4077" fill-rule="evenodd" d="M52.966 36.466c1.941.813 3.6 2.078 3.782 2.657l.019.063c.084.275.508 1.559.64 1.97.44 1.37.846 2.723 1.23 4.143.648 2.39 1.157 4.692 1.484 6.853 1.072 7.094.056 11.609-3.638 12.496-4.098.985-8.152.02-11.607-2.39-2.878-2.006-5.02-4.874-5.407-6.987a71.8 71.8 0 0 1-.58-3.92c-.18-1.445-.345-2.989-.493-4.538l-.054-.575c-.04-.435-.077-.844-.11-1.222l-.06-.717c-.396-3.789 1.664-6.657 6.865-8.357 2.553-.834 5.33-.564 7.93.524Zm-15.577 7.78.015.155.048.569.04.462a166.476 166.476 0 0 0 .63 6.015l.055.438c.173 1.346.35 2.534.531 3.525.427 2.336 2.692 5.368 5.725 7.483 3.627 2.53 7.903 3.547 12.23 2.507 2.28-.547 3.678-2.268 4.28-4.941.501-2.227.449-5.078-.057-8.423-.332-2.193-.847-4.522-1.502-6.94a91.872 91.872 0 0 0-1.139-3.858l-.168-.523c-.19-.583-.553-1.686-.576-1.771-.232-.875-2.069-2.284-4.236-3.191-2.759-1.156-5.722-1.444-8.468-.546-5.479 1.79-7.783 4.941-7.407 9.038Z" clip-rule="evenodd"/><path fill="#2F4077" fill-rule="evenodd" d="M47.65 42.224c-1.547 1.389-1.837 4.784-.838 7.869 1.107 3.417 3.443 5.485 6.4 4.958 2.694-.48 3.698-2.312 3.373-4.94-.116-.94-.396-1.935-.79-2.942-.184-.47-.38-.912-.578-1.314l-.058-.117-.082-.162-.076-.144-.034-.063.012.035c-.335-.982-1.42-2.406-2.594-3.246-1.584-1.134-3.244-1.242-4.691.027l-.044.039Zm4.285.563c1.045.749 2.03 2.041 2.312 2.867.005.015.011.03.018.043l.065.121.06.114a16.554 16.554 0 0 1 .684 1.519c.373.951.636 1.887.743 2.754.28 2.258-.503 3.686-2.742 4.085-2.504.446-4.526-1.344-5.527-4.435-.916-2.827-.651-5.915.619-7.056 1.157-1.039 2.438-.964 3.768-.012Z" clip-rule="evenodd"/><path fill="#fff" fill-rule="evenodd" d="M80.93 33.163c-3.133-1.779-10.29-4.1-14.325-2.527-4.036 1.573-11.502 5.442-13.281 22.049-1.78 16.607 17.935 13.964 17.935 13.964l9.67-33.486Z" clip-rule="evenodd"/><path fill="#2F4077" fill-rule="evenodd" d="M66.464 30.276c-1.333.52-2.454 1.064-3.598 1.81a17.107 17.107 0 0 0-4.05 3.695c-3.022 3.775-5.062 9.256-5.877 16.863-.444 4.147.398 7.37 2.349 9.74 1.633 1.986 3.98 3.302 6.848 4.057 2.742.721 5.629.867 8.222.681l.141-.01c.2-.015.378-.032.537-.048l.189-.021.086-.01a.387.387 0 0 0 .32-.277l9.67-33.485a.387.387 0 0 0-.18-.444c-1.744-.99-4.388-1.988-6.93-2.562-3.079-.695-5.787-.745-7.727.01Zm7.68.772c2.267.524 4.607 1.389 6.248 2.261l.08.043-9.513 32.942-.12.012c-.122.012-.255.023-.399.034-2.55.196-5.412.062-8.107-.648-2.722-.716-4.929-1.953-6.448-3.8-1.812-2.201-2.6-5.216-2.177-9.166.8-7.468 2.788-12.81 5.712-16.462 2.117-2.645 4.386-4.122 7.325-5.268 1.767-.688 4.334-.64 7.275.024l.124.028Z" clip-rule="evenodd"/><path fill="#E4794A" fill-rule="evenodd" d="M85.43 35.51c.245-1.302.825-4.255.825-4.255.76-3.726 1.47-7.22 1.328-10.766-.296-7.298-4.938-13.771-10.019-16.453C66.527-1.805 59.41.58 59.41.58 35.762 8.575 40.056 34.62 40.572 37.315c-4.745 2.308-6.77 5.493-6.409 9.954.271 2.437-.051 14.326 5.983 17.704 6.022 3.378 12.043 2.411 15.989.167-8.987 1.831-15.447-6.46-16.208-10.56-.76-4.164-1.29-10.34-1.29-10.34-.296-2.786.955-5.726 5.094-7.827l-.026-.207h.013c-.013-.038-.013-.09-.026-.129l-.026-.219-.013.013c-.58-3.83-1.521-13.86 3.198-21.842C52.886 3.79 59.848 3.21 59.848 3.21c13.255-1.96 18.116 12.468 17.82 20.32-.271 7.054-4.23 8.73-5.029 9a5.217 5.217 0 0 0-2.901.516c-2.901.516-7.633 6.963-10.444 13.41 0 .013.013.039.013.052l-.065.064C57.927 49.616 57.05 52.66 57 55.07c-.62 2.579.206 5.3 2.114 7.13l1.251-.257a5.082 5.082 0 0 1-.464.915c.322.232.67.452 1.044.632l6.447 3.185c2.837 1.405 6.267.232 7.633-2.618l.194-.387c2.965.387 6.872-2.604 9.27-7.336 2.515-4.964 2.502-10.122.117-12.108.154-1.47.103-3.687.502-6.653.09-.696.207-1.38.323-2.063Z" clip-rule="evenodd"/><path fill="#E4794A" fill-rule="evenodd" d="M74.096 60.705c-10.87 2.54-30.069 2.011-50.957-1.728l-.116.361a3.271 3.271 0 0 0-2.398-2.127l-5.57-1.251a3.304 3.304 0 0 0-3.946 2.501l-.065.271a3.304 3.304 0 0 0 2.502 3.946l5.57 1.25a3.273 3.273 0 0 0 2.514-.45l-.064.206s20.411 6.137 49.99 3.571c-.013-.013 2.579-6.228 2.54-6.55Z" clip-rule="evenodd"/><path fill="#fff" fill-rule="evenodd" d="M72.325 58.596c2.355-.427 3.522.837 3.705 3.058.06.718.012 1.479-.101 2.222-.024.155-.05.299-.075.43l-.024.12a4.64 4.64 0 0 1-.03.134.387.387 0 0 1-.757-.159l.026-.118a9.813 9.813 0 0 0 .094-.524 8.892 8.892 0 0 0 .096-2.041c-.144-1.743-.897-2.622-2.582-2.394l-.067.01-.021.027c-1.298 1.652-3.683 2.592-6.843 2.98l-.099.012c-2.117.251-4.37.237-6.499.062l-.199-.017c-.227-.02-.438-.04-.63-.062l-.215-.024-.203-.025a.387.387 0 0 1 .081-.769l.254.03.087.01c.26.03.558.059.889.086 2.081.17 4.286.185 6.344-.06 3.114-.369 5.402-1.285 6.525-2.834a.387.387 0 0 1 .244-.154Z" clip-rule="evenodd"/><path fill="#fff" fill-rule="evenodd" d="M79.627 43.918c1.17-.692 2.236-.808 3.103-.58.15.04.261.082.329.115a.387.387 0 0 1-.317.705l-.022-.01a1.208 1.208 0 0 0-.187-.061c-.675-.178-1.528-.085-2.511.497-1.484.877-2.968 2.722-4.372 5.768-1.05 2.278-2.02 5.161-2.893 8.705a.387.387 0 1 1-.752-.185c.885-3.589 1.87-6.518 2.943-8.843 1.465-3.179 3.046-5.144 4.68-6.111Z" clip-rule="evenodd"/><path fill="#465F9D" fill-rule="evenodd" d="m159.416 64.702-6.022 2.45-64.766-.168c-.555 0-1.019-.683-1.006-1.521l.013-2.67c0-.837.464-1.508 1.018-1.508l64.767.168 6.008 2.475c.258.13.258.67-.012.774Z" clip-rule="evenodd"/><path fill="#2F4077" fill-rule="evenodd" d="m89.938 58.77 15.924.323a.387.387 0 0 1 .007.773h-.023l-15.53-.314-.012 7.716a.387.387 0 0 1-.365.386h-.023a.387.387 0 0 1-.385-.364l-.001-.023.013-8.11c0-.209.166-.378.371-.386h.024Z" clip-rule="evenodd"/><path fill="#fff" fill-rule="evenodd" d="M112.481 63.657a.387.387 0 0 1 .023.773l-.023.001H97.885a.387.387 0 0 1-.022-.773h14.618Z" clip-rule="evenodd"/><path fill="#2F4077" fill-rule="evenodd" d="M180.974 67.087a.387.387 0 0 1 .023.773l-.023.001H1.116a.387.387 0 0 1-.023-.773h179.881Z" clip-rule="evenodd"/></svg>