<svg width="202" height="117" viewBox="0 0 202 117" fill="none" xmlns="http://www.w3.org/2000/svg">
<path fill-rule="evenodd" clip-rule="evenodd" d="M75.9017 76.7592C74.3279 75.9236 72.9837 76.3168 71.5083 77.8897C72.1804 74.0886 72.164 69.4846 69.1476 68.7146C66.0492 67.9117 64.2951 69.8451 62.4755 74.5146C62.541 70.5168 61.7542 65.3558 58.4427 65.1428C54.7214 64.9134 53.4755 67.9773 52.5574 74.7767C51.3935 70.9756 48.1968 64.3072 44.4263 65.6343C40.7378 66.9287 40.9837 70.4841 43.0328 77.7259C41.0165 74.5965 36.9673 69.9434 34.2624 71.7129C31.6886 73.3841 32.3935 76.1202 35.246 81.1993C33.3607 80.3801 31.4099 80.2982 29.8361 81.8383C26.3115 85.3117 28.0165 88.605 32.8853 94.7163C37.7706 100.828 72.8361 90.014 74.4919 87.2615C76.164 84.4925 78.7705 78.2993 75.9017 76.7592Z" fill="white"/>
<path fill-rule="evenodd" clip-rule="evenodd" d="M53.9885 67.1402C53.3114 68.3705 52.8181 70.0744 52.3941 72.564L52.3647 72.7389L52.3609 72.7294C51.685 71.0126 50.8152 69.3169 49.8692 67.9965C48.1473 65.5931 46.2418 64.4744 44.2629 65.1709C42.2784 65.8673 41.2715 67.2079 41.0937 69.3349L41.0831 69.4772C40.9903 70.8878 41.2295 72.6451 41.8349 75.131L41.8679 75.2663L41.8257 75.2136C40.991 74.177 40.0962 73.2333 39.2205 72.5047C37.2676 70.8799 35.462 70.3409 33.993 71.3018C32.5578 72.2338 31.9933 73.5162 32.2322 75.2456L32.2415 75.3107C32.4291 76.5743 33.03 78.101 34.1315 80.1848L34.2029 80.3192L34.1616 80.3088C32.3916 79.8701 30.7918 80.2153 29.4921 81.4873C27.6295 83.3229 27.085 85.1942 27.7413 87.4268L27.7774 87.5462C28.3651 89.4408 29.7549 91.5763 32.5006 95.0226C34.8655 97.9811 43.3908 97.5605 55.0137 94.7911C64.5468 92.5197 73.9574 89.1042 74.9134 87.5149C75.9364 85.8208 76.918 83.5761 77.3778 81.6646C77.9988 79.0833 77.6953 77.1643 76.1344 76.3264L76.0742 76.2949C74.7337 75.6049 73.5011 75.699 72.2667 76.5643L72.1978 76.6133L72.2079 76.5318C72.4062 74.8805 72.4156 73.3562 72.1958 72.0822C71.8404 70.0221 70.8916 68.6527 69.2693 68.2385L69.1716 68.2139C66.4727 67.5535 64.6548 68.7429 62.9704 72.1474L62.9114 72.2675L62.9094 72.2389C62.8059 70.7619 62.5705 69.3954 62.1923 68.255C61.4701 66.0772 60.2454 64.7664 58.4743 64.6525C56.4418 64.5272 55.0127 65.316 54.02 67.0836L53.9885 67.1402ZM58.4124 65.6336C60.8591 65.791 62.067 69.433 61.9837 74.5067C61.9748 75.0549 62.7347 75.204 62.9338 74.6932C64.7723 69.9751 66.3751 68.5042 69.0242 69.1906C71.2701 69.7639 71.8506 73.1293 71.024 77.8044C70.9389 78.2857 71.5326 78.5827 71.8671 78.2261L71.9751 78.1128C73.2838 76.764 74.3706 76.503 75.671 77.1935C76.7145 77.7537 76.9495 79.2398 76.4215 81.4348C75.9872 83.2401 75.0454 85.3939 74.0708 87.0077C73.7544 87.5337 71.3535 88.6995 67.8115 89.9851C64.0518 91.3496 59.359 92.7452 54.7856 93.8349C43.6265 96.4937 35.2653 96.9063 33.2696 94.4097L32.9394 93.9933C30.4351 90.8183 29.1819 88.8397 28.685 87.1497C28.1341 85.2758 28.5705 83.7761 30.1814 82.1885C31.4669 80.9306 33.1078 80.8064 35.0499 81.6503C35.482 81.8381 35.9055 81.3696 35.6748 80.9589C32.7219 75.7009 32.4174 73.4972 34.5303 72.1253C36.4462 70.8719 39.8635 73.7152 42.6194 77.9922C42.9253 78.467 43.6599 78.1358 43.5061 77.5923C41.3224 69.8753 41.5205 67.1752 44.5892 66.0983C46.0483 65.5848 47.5727 66.4798 49.0695 68.5688C50.2982 70.2839 51.4091 72.7063 52.0872 74.9208C52.2416 75.4251 52.9743 75.3653 53.0448 74.8427C54.0065 67.7198 55.2864 65.4409 58.4124 65.6336Z" fill="#E4794A"/>
<path fill-rule="evenodd" clip-rule="evenodd" d="M76.1804 87.1305L76.2132 87.0322L29.0492 87.1797L29.082 87.278C26.5738 87.7695 24.787 90.1616 25.1968 92.7995L28.7214 115.541L76.5247 115.393L80.0492 92.652C80.4755 90.0305 78.6886 87.6221 76.1804 87.1305Z" fill="#FAA184"/>
<path fill-rule="evenodd" clip-rule="evenodd" d="M153.426 78.9395C152.688 78.9395 151.951 78.9887 151.229 79.0706C147.311 73.6638 142.82 69.0762 138.098 66.1598C125.803 58.5904 108.918 60.7531 93.1639 66.5858C82.3278 70.5836 68.6065 83.4943 59.8032 92.6367C48.3278 93.505 39.5081 101.304 40.0327 110.233C40.1475 112.183 40.7049 114.018 41.6065 115.706L80.1147 115.968C80.1803 115.869 80.2459 115.755 80.3114 115.656L137.426 115.46C137.492 115.542 137.557 115.624 137.623 115.722L169.246 115.673C172.18 111.79 173.934 106.825 173.934 101.402C173.934 88.983 164.754 78.9395 153.426 78.9395Z" fill="#465F9D"/>
<path fill-rule="evenodd" clip-rule="evenodd" d="M139.229 66.8965C124.688 75.9078 111.639 76.1044 103.18 74.6462C95.3442 73.3027 89.6885 70.288 87.8524 69.1083C87.541 69.2886 87.2295 69.4688 86.9016 69.649C88.4098 70.6812 94.3114 74.0891 102.836 75.5801C105.623 76.0716 108.426 76.3174 111.246 76.3174C114.115 76.3174 116.984 76.0716 119.836 75.5637C126.738 74.3349 133.541 71.6315 140.098 67.5191C139.803 67.2897 139.525 67.0931 139.229 66.8965Z" fill="white"/>
<path fill-rule="evenodd" clip-rule="evenodd" d="M137.721 82.38C140.033 79.1359 142.885 77.3173 146.213 76.9568C147.754 76.793 149.049 77.006 149.82 77.1862C149.508 76.793 149.197 76.3998 148.885 76.0229C148.131 75.9246 147.197 75.8755 146.164 75.9902C143.656 76.2523 140.016 77.4648 136.918 81.8229C136.754 82.0359 136.82 82.3472 137.033 82.5111C137.115 82.5766 137.213 82.6094 137.312 82.6094C137.476 82.593 137.623 82.5275 137.721 82.38Z" fill="white"/>
<path fill-rule="evenodd" clip-rule="evenodd" d="M137.902 93.8978C138.18 93.8978 138.394 93.6848 138.41 93.4226C138.443 91.9808 139.016 88.704 141.033 85.6237C143.361 82.0356 146.803 79.8401 151.23 79.0537C151.016 78.7588 150.803 78.4639 150.574 78.1689C146.148 79.0701 142.574 81.4458 140.197 85.0831C138.213 88.1305 137.459 91.4729 137.41 93.3898C137.41 93.6684 137.623 93.8978 137.902 93.8978Z" fill="white"/>
<path fill-rule="evenodd" clip-rule="evenodd" d="M68.4427 89.0645C66.3607 88.9826 64.3607 89.1792 62.8853 89.4905C62.3935 89.982 61.9017 90.4736 61.4263 90.9651C63.2459 89.9657 73.6066 88.7205 77.8853 93.5866C77.9836 93.7013 78.1148 93.7504 78.2623 93.7504C78.3771 93.7504 78.4918 93.7176 78.5902 93.6357C78.7869 93.4555 78.8197 93.1442 78.6394 92.9476C75.8689 89.7854 71.0656 89.1628 68.4427 89.0645Z" fill="white"/>
<path fill-rule="evenodd" clip-rule="evenodd" d="M59.4755 92.6686C59.4755 92.6686 59.4919 92.6686 59.5083 92.6686C59.4919 92.6522 59.4755 92.6686 59.4755 92.6686C59.4755 92.6686 59.4591 92.6686 59.4755 92.6686Z" fill="white"/>
<path fill-rule="evenodd" clip-rule="evenodd" d="M76.8688 96.0932C71.0819 91.7186 63.8688 91.4564 60.8196 91.5875C60.4754 91.948 60.1311 92.292 59.8032 92.6361C61.5573 92.4886 69.9344 92.0954 76.2786 96.8796C76.3606 96.9451 76.4754 96.9779 76.5737 96.9779C76.7213 96.9779 76.8688 96.9124 76.9672 96.7813C77.1311 96.5683 77.0819 96.257 76.8688 96.0932Z" fill="white"/>
<path fill-rule="evenodd" clip-rule="evenodd" d="M51.8689 115.558C51.8689 115.558 57.2459 99.6654 72.3771 102.549C87.5082 105.433 108.213 111.626 108.213 111.626V115.607L51.8689 115.558Z" fill="white"/>
<path fill-rule="evenodd" clip-rule="evenodd" d="M61.9357 103.203C59.3637 104.403 57.1591 106.252 55.2968 108.571C54.0995 110.062 53.115 111.658 52.3279 113.254C52.0522 113.813 51.8206 114.332 51.6314 114.8L51.5513 115.001C51.5264 115.065 51.5033 115.126 51.482 115.182L51.4184 115.356C51.412 115.375 51.4069 115.389 51.403 115.401C51.2953 115.719 51.5321 116.049 51.8685 116.05L108.213 116.099C108.485 116.099 108.705 115.879 108.705 115.607V111.626C108.705 111.409 108.562 111.217 108.354 111.155L107.7 110.961L106.816 110.702C105.582 110.342 104.188 109.941 102.661 109.509C98.297 108.275 93.7432 107.041 89.2262 105.889C86.9559 105.31 84.7483 104.765 82.62 104.262L82.0226 104.121C78.5534 103.307 75.3514 102.616 72.4692 102.066C68.5477 101.319 65.0388 101.756 61.9357 103.203ZM72.285 103.032C75.3164 103.61 78.707 104.346 82.3933 105.218C84.5159 105.721 86.718 106.264 88.983 106.841C93.2538 107.93 97.5584 109.093 101.703 110.26L102.393 110.455C103.779 110.847 105.055 111.213 106.2 111.547L107.721 111.993V115.115L52.5846 115.067L52.6295 114.959C52.7929 114.569 52.9862 114.142 53.2102 113.688C53.9673 112.153 54.9149 110.618 56.0639 109.186C57.8376 106.977 59.9274 105.225 62.3517 104.094C65.2675 102.734 68.5664 102.323 72.285 103.032Z" fill="#2F4077"/>
<path fill-rule="evenodd" clip-rule="evenodd" d="M171.344 56.8534C171.344 56.8534 170.131 56.2472 169.984 54.8546C169.836 53.4619 170.77 47.3997 172.279 46.5478C173.803 45.6958 180.738 41.9438 182.016 42.0257C183.295 42.1077 183.82 53.2325 171.344 56.8534Z" fill="white"/>
<path fill-rule="evenodd" clip-rule="evenodd" d="M172.082 47.2194C174.672 38.159 176.787 36.1274 178.016 37.0121C179.131 37.8149 176.869 43.5822 176.213 46.5805" fill="white"/>
<path fill-rule="evenodd" clip-rule="evenodd" d="M175.148 38.1166L175.228 37.9978C176.276 36.4586 177.365 35.9379 178.304 36.6136C178.857 37.0123 178.917 37.8361 178.696 39.1459L178.663 39.3306C178.515 40.1409 178.271 41.087 177.873 42.4628L177.222 44.6829C176.918 45.7316 176.816 46.1249 176.693 46.6857C176.635 46.9509 176.373 47.1189 176.108 47.0609C175.843 47.0029 175.674 46.741 175.732 46.4758L175.779 46.2668C175.885 45.801 175.993 45.3925 176.241 44.5351L176.897 42.2983C177.335 40.7904 177.586 39.807 177.726 38.9822L177.746 38.8577C177.879 38.0026 177.837 37.4893 177.729 37.4113C177.352 37.1398 176.777 37.4296 175.97 38.6566L175.897 38.7693C174.861 40.3952 173.73 43.2445 172.555 47.3547C172.48 47.6158 172.208 47.7669 171.947 47.6923C171.685 47.6177 171.534 47.3457 171.609 47.0847L171.694 46.7906C172.891 42.6544 174.053 39.7826 175.148 38.1166Z" fill="#2F4077"/>
<path fill-rule="evenodd" clip-rule="evenodd" d="M183.508 45.2531C184.803 43.1395 186.951 43.2542 185.836 46.8424C184.738 50.3486 183.934 54.9034 181.885 56.9678C179.836 59.0322 179.098 59.9497 179.098 59.9497C179.098 59.9497 175 75.2362 172.672 87.9503C169.311 106.333 162.951 109.872 157.016 107.759C151.082 105.662 149.984 97.3384 158.082 81.2C166.18 65.0452 170.459 55.6407 170.459 55.6407" fill="white"/>
<path fill-rule="evenodd" clip-rule="evenodd" d="M183.089 44.9965C183.824 43.7968 184.893 43.1238 185.751 43.4504C186.695 43.81 186.879 45.0921 186.328 46.9161L186.209 47.3026C186.067 47.7699 185.921 48.2821 185.727 48.9813L185.371 50.2746C184.329 54.0315 183.558 55.9561 182.276 57.2714L181.954 57.5975C181.284 58.2777 180.726 58.8652 180.269 59.3636L180.088 59.5625C179.898 59.7725 179.743 59.9492 179.619 60.0936L179.546 60.1802L179.287 61.1626L179.054 62.0546C178.829 62.9244 178.585 63.8771 178.326 64.9008C177.39 68.606 176.454 72.4825 175.581 76.3402L175.392 77.178C174.987 78.9859 174.606 80.7469 174.252 82.4496L174.11 83.1376C173.806 84.6199 173.526 86.0469 173.271 87.4127L173.156 88.0387C171.553 96.8087 169.191 102.671 166.167 105.878C163.462 108.747 160.269 109.439 156.852 108.222C153.569 107.062 151.799 104.165 151.795 99.7454C151.791 95.1445 153.679 88.928 157.525 81.2142L158.281 79.7038C161.344 73.5768 164.048 68.0411 166.385 63.1531L167.294 61.2455C167.855 60.0633 168.364 58.9826 168.821 58.0061L169.539 56.4625L170.011 55.4373C170.124 55.1902 170.415 55.081 170.662 55.1933C170.901 55.3017 171.011 55.5765 170.918 55.8176L170.856 55.9547L170.345 57.0633L169.643 58.5696C169.111 59.7066 168.509 60.9812 167.839 62.3893L167.151 63.8305C164.678 69.0001 161.798 74.8852 158.521 81.4205C151.083 96.2442 151.091 105.144 157.181 107.296C160.24 108.385 163.02 107.782 165.451 105.204C168.292 102.192 170.57 96.5762 172.141 88.1191L172.188 87.8619C172.512 86.0926 172.881 84.2175 173.289 82.2499C173.698 80.2792 174.144 78.2312 174.621 76.1233C175.448 72.4718 176.331 68.8043 177.216 65.2805L177.576 63.8549C177.744 63.1969 177.904 62.5719 178.057 61.9834L178.362 60.8102L178.623 59.8226C178.641 59.7567 178.672 59.6952 178.715 59.6419L178.782 59.5601L178.872 59.4548C179.001 59.3035 179.163 59.1201 179.358 58.9035L179.607 58.6311C180.124 58.0687 180.763 57.4004 181.536 56.6217L181.611 56.5449C182.661 55.442 183.373 53.7213 184.292 50.4797L184.882 48.3511C185.045 47.766 185.176 47.3141 185.307 46.8874L185.366 46.6967C185.809 45.2711 185.704 44.4844 185.401 44.369C185.098 44.2538 184.446 44.6645 183.928 45.5099C183.786 45.7414 183.483 45.8142 183.251 45.6724C183.02 45.5306 182.947 45.228 183.089 44.9965Z" fill="#2F4077"/>
<path fill-rule="evenodd" clip-rule="evenodd" d="M170.606 55.9193C169.426 55.1165 169.574 50.4962 168.246 48.4809C166.606 45.9741 165 43.369 168.033 43.7623C170.639 44.0899 171.459 46.3837 172.065 47.2029" fill="white"/>
<path fill-rule="evenodd" clip-rule="evenodd" d="M165.91 45.1522C165.569 43.7802 166.369 43.0506 168.094 43.2742C169.542 43.4562 170.59 44.1721 171.439 45.3146L171.479 45.369C171.789 45.8026 172.379 46.7908 172.456 46.904L172.461 46.9102C172.622 47.1284 172.576 47.4362 172.358 47.5977C172.14 47.7592 171.832 47.7132 171.67 47.495L171.653 47.4711C171.514 47.2642 170.9 46.2382 170.649 45.9007C169.948 44.9572 169.124 44.3946 167.969 44.2494C167.367 44.1712 167.016 44.2267 166.887 44.344C166.811 44.4133 166.786 44.5743 166.855 44.8736L166.864 44.9153C167.035 45.6017 167.528 46.4802 168.601 48.1259L168.657 48.2102C169.159 48.9723 169.468 49.9807 169.783 51.5932L169.847 51.926L170.039 52.9659C170.339 54.552 170.573 55.2827 170.868 55.5019L170.883 55.5126C171.108 55.6654 171.166 55.9711 171.013 56.1955C170.86 56.4199 170.554 56.4781 170.33 56.3253C169.715 55.907 169.45 55.1336 169.091 53.245L168.869 52.05L168.838 51.883C168.545 50.3663 168.266 49.4273 167.861 48.7906L167.556 48.3216C166.566 46.7866 166.104 45.9334 165.91 45.1522Z" fill="#2F4077"/>
<path fill-rule="evenodd" clip-rule="evenodd" d="M182 49.0871C182 49.0871 184.311 43.4837 185.082 40.8786C185.934 38.0442 182.951 37.6346 181.508 41.7142" fill="white"/>
<path fill-rule="evenodd" clip-rule="evenodd" d="M184.124 38.2129C185.403 38.1298 186.025 39.3743 185.569 40.964L185.553 41.0177C185.318 41.8141 184.932 42.9204 184.428 44.2648L184.338 44.5045C184.268 44.6893 184.197 44.8774 184.124 45.0686C183.804 45.9043 183.465 46.7689 183.123 47.6238L182.843 48.3207L182.553 49.0353L182.455 49.2742C182.351 49.5252 182.064 49.6448 181.812 49.5413C181.57 49.4415 181.45 49.1708 181.535 48.9265L181.931 47.9527C181.974 47.8459 182.018 47.7359 182.064 47.623C182.404 46.7759 182.744 45.9137 183.067 45.0754L183.277 44.5289L183.417 44.1578C183.943 42.7654 184.346 41.6191 184.59 40.8058L184.611 40.7369C184.925 39.6928 184.666 39.1628 184.187 39.1939C183.479 39.2399 182.567 40.1944 181.972 41.8778C181.881 42.1337 181.6 42.2679 181.344 42.1774C181.088 42.087 180.954 41.8062 181.044 41.5502C181.757 39.5354 182.948 38.2893 184.124 38.2129Z" fill="#2F4077"/>
<path fill-rule="evenodd" clip-rule="evenodd" d="M179.278 47.613C179.278 47.613 183.819 37.3401 181.787 36.4226C179.934 35.587 178.524 39.339 176.197 46.5808" fill="white"/>
<path fill-rule="evenodd" clip-rule="evenodd" d="M178.8 38.115C179.787 36.2091 180.788 35.4327 181.989 35.9742C183.224 36.5315 182.99 38.659 181.885 42.1335C181.698 42.7236 181.487 43.3396 181.257 43.9744C180.96 44.7939 180.644 45.6087 180.326 46.3897L180.207 46.681C180.096 46.9513 179.991 47.1999 179.896 47.423L179.728 47.8112C179.619 48.0595 179.328 48.1719 179.08 48.0622C178.831 47.9525 178.719 47.6623 178.829 47.414L178.957 47.1185L179.063 46.8681C179.137 46.6942 179.215 46.5065 179.297 46.3068C179.65 45.4503 180.003 44.5472 180.332 43.6395C180.558 43.0165 180.765 42.4128 180.948 41.8359L181.028 41.5797C181.856 38.9015 182.042 37.0767 181.584 36.8702C181.015 36.6135 180.409 37.1046 179.609 38.6931L179.518 38.8785C178.782 40.3896 177.994 42.5954 176.665 46.7307C176.582 46.9892 176.305 47.1314 176.046 47.0484C175.788 46.9653 175.645 46.6885 175.728 46.43L176.014 45.5452C177.229 41.8009 177.976 39.7636 178.707 38.299L178.8 38.115Z" fill="#2F4077"/>
<path fill-rule="evenodd" clip-rule="evenodd" d="M105.065 55.0829L105.705 66.6665C105.705 66.6665 104.623 72.9253 113.311 71.762C121.967 70.6151 120.901 65.4869 120.901 65.4869L118.229 51.1016L105.065 55.0829Z" fill="white"/>
<path fill-rule="evenodd" clip-rule="evenodd" d="M118.087 50.6316L104.923 54.613C104.706 54.6786 104.562 54.8841 104.574 55.1105L105.211 66.6431L105.204 66.6957C105.201 66.7244 105.197 66.7568 105.194 66.7927C105.113 67.625 105.207 68.5738 105.616 69.4875C106.614 71.7188 109.102 72.822 113.377 72.2497C116.866 71.7874 119.136 70.6568 120.38 69.0372C121.285 67.8602 121.531 66.6226 121.411 65.5731L121.403 65.5066C121.397 65.4657 121.392 65.4319 121.387 65.4057L118.713 51.0123C118.66 50.7244 118.368 50.5468 118.087 50.6316ZM105.578 55.4419L117.846 51.7314L120.423 65.6024C120.426 65.6223 120.43 65.6489 120.434 65.6843C120.527 66.5008 120.331 67.4878 119.6 68.4384C118.529 69.8321 116.496 70.8447 113.247 71.2752C109.372 71.794 107.318 70.8827 106.514 69.0862C106.185 68.3516 106.107 67.5649 106.173 66.8875L106.18 66.8183C106.184 66.7857 106.187 66.7629 106.189 66.7507L106.194 66.714C106.197 66.6894 106.197 66.6647 106.196 66.64L105.578 55.4419Z" fill="#2F4077"/>
<path fill-rule="evenodd" clip-rule="evenodd" d="M121.557 36.487C121.557 36.487 128.279 33.9639 128.541 40.9599C128.803 47.9559 121.557 46.1373 121.557 46.1373" fill="white"/>
<path fill-rule="evenodd" clip-rule="evenodd" d="M122.208 35.7878C123.179 35.5584 124.181 35.4762 125.132 35.6311C127.449 36.0084 128.911 37.7023 129.032 40.9422C129.158 44.2923 127.666 46.126 125.158 46.6746C124.137 46.8978 123.062 46.8848 122.046 46.7303L121.887 46.7049C121.687 46.6713 121.534 46.6389 121.438 46.6147C121.174 46.5486 121.014 46.2816 121.08 46.0183C121.144 45.7644 121.395 45.6067 121.649 45.6551L121.756 45.6792L121.806 45.6899C121.919 45.7131 122.049 45.7365 122.193 45.7585C123.101 45.8963 124.062 45.908 124.948 45.7142C127 45.2654 128.157 43.8435 128.05 40.979L128.042 40.8125C127.9 38.15 126.786 36.8965 124.974 36.6014C124.169 36.4703 123.29 36.5424 122.434 36.7445C122.269 36.7837 122.116 36.8251 121.978 36.8667L121.911 36.8874C121.861 36.9032 121.819 36.9168 121.788 36.9276L121.73 36.9479C121.476 37.0433 121.192 36.9147 121.097 36.6606C121.001 36.4064 121.13 36.123 121.384 36.0276L121.448 36.0045C121.619 35.9443 121.879 35.8657 122.208 35.7878Z" fill="#2F4077"/>
<path fill-rule="evenodd" clip-rule="evenodd" d="M108.951 58.6056C101.672 58.6056 95.7705 52.7073 95.7705 45.4327V33.931C95.7705 29.2779 99.5574 25.4932 104.213 25.4932H115.754C119.279 25.4932 122.148 28.3604 122.148 31.883V45.4163C122.148 52.6909 116.246 58.6056 108.951 58.6056Z" fill="white"/>
<path fill-rule="evenodd" clip-rule="evenodd" d="M115.754 25.002H104.213C99.2859 25.002 95.2788 29.0068 95.2788 33.9313V45.433C95.2788 52.9791 101.401 59.0974 108.951 59.0974L109.173 59.0956C116.643 58.9745 122.639 52.8839 122.639 45.4166V31.8833C122.639 28.0892 119.55 25.002 115.754 25.002ZM104.213 25.985H115.754C119.007 25.985 121.656 28.6322 121.656 31.8833V45.4166C121.656 52.3472 116.09 58.0003 109.161 58.1127L108.947 58.1144C101.944 58.1144 96.2624 52.4361 96.2624 45.433V33.9313C96.2624 29.5497 99.8291 25.985 104.213 25.985Z" fill="#2F4077"/>
<path fill-rule="evenodd" clip-rule="evenodd" d="M125.213 51.6594C125.197 47.1865 124.574 43.926 124.41 43.1068C124.41 43.0577 124.426 42.9921 124.426 42.943C124.426 41.9108 123.59 41.0752 122.557 41.0752V42.943L122.607 44.8108C123 44.7944 123.361 44.6633 123.656 44.4503C124.262 48.2187 125.459 59.4582 120.41 69.0102C119.492 70.7633 118.623 72.3854 117.77 73.9419C113.016 82.8057 109.869 88.6712 109.951 93.8978C109.951 94.1599 110.18 94.3893 110.443 94.3893C110.721 94.3893 110.934 94.1599 110.934 93.8978C110.869 88.917 113.967 83.1498 118.639 74.417C119.475 72.8441 120.344 71.2385 121.279 69.469C124.574 63.2266 125.246 56.3453 125.213 51.6594Z" fill="#E4794A"/>
<path fill-rule="evenodd" clip-rule="evenodd" d="M94.4917 45.024C94.7212 45.1551 94.9671 45.237 95.2458 45.2534V41.5342C94.3769 41.6161 93.6884 42.2715 93.5737 43.1234C93.5245 43.2054 93.4917 43.3037 93.4917 43.402C93.4917 44.1556 93.4917 61.8014 98.7376 69.7641C104.098 77.9234 105.754 82.5766 106.131 90.4737C106.147 90.7359 106.361 90.9489 106.623 90.9489H106.639C106.918 90.9325 107.115 90.7031 107.115 90.441C106.738 82.3144 105.049 77.563 99.5573 69.2234C95.3606 62.8664 94.6228 49.628 94.4917 45.024Z" fill="#E4794A"/>
<path fill-rule="evenodd" clip-rule="evenodd" d="M104.91 37.0284C105.172 37.0239 105.389 37.2249 105.408 37.4826L105.41 37.5115L105.586 47.9128L105.594 47.9158C105.63 47.9273 105.669 47.9248 105.723 47.9048L105.748 47.8952C106 47.7871 106.334 47.4214 106.716 46.7216C106.846 46.4833 107.145 46.3956 107.383 46.5257C107.622 46.6559 107.709 46.9545 107.579 47.1927C106.681 48.8372 105.714 49.2506 104.942 48.6672C104.827 48.5806 104.746 48.4915 104.695 48.4175C104.646 48.3474 104.616 48.2661 104.609 48.1815L104.607 48.1451L104.426 37.5282C104.422 37.2568 104.638 37.033 104.91 37.0284Z" fill="#2F4077"/>
<path fill-rule="evenodd" clip-rule="evenodd" d="M110.091 49.4623C110.366 49.2829 110.736 49.4169 110.831 49.7304L110.843 49.771C110.855 49.8164 110.868 49.8761 110.881 49.9486C110.982 50.5247 110.927 51.1619 110.598 51.772C110.048 52.7887 108.861 53.4515 106.95 53.6396C106.68 53.6662 106.439 53.4688 106.412 53.1986C106.386 52.9285 106.583 52.6879 106.853 52.6613C108.463 52.5029 109.354 52.0056 109.732 51.305C109.825 51.1323 109.884 50.9532 109.915 50.7744L109.926 50.705L109.911 50.7132C107.773 51.8638 105.638 51.9405 104.579 50.7573L104.544 50.7169C104.368 50.5104 104.392 50.2001 104.599 50.024C104.806 49.8478 105.116 49.8724 105.292 50.0789C106.053 50.9705 108.067 50.7864 110.091 49.4623Z" fill="#2F4077"/>
<path fill-rule="evenodd" clip-rule="evenodd" d="M109.388 33.1936C110.461 32.3778 111.735 32.2907 113.109 33.3831C113.322 33.5521 113.357 33.8613 113.188 34.0738C113.019 34.2862 112.71 34.3215 112.497 34.1525C111.503 33.362 110.721 33.4154 109.984 33.976C109.884 34.0518 109.795 34.1294 109.699 34.2216L109.518 34.3999C109.493 34.4243 109.471 34.4439 109.448 34.4626C109.385 34.5139 109.33 34.5485 109.234 34.5723C108.97 34.6382 108.703 34.478 108.638 34.2147C108.588 34.0172 108.666 33.8177 108.819 33.7025L108.84 33.6872L108.948 33.5802C109.095 33.4345 109.229 33.3143 109.388 33.1936Z" fill="#2F4077"/>
<path fill-rule="evenodd" clip-rule="evenodd" d="M112.803 41.9109C113.256 41.9109 113.623 41.346 113.623 40.6493C113.623 39.9525 113.256 39.3877 112.803 39.3877C112.351 39.3877 111.984 39.9525 111.984 40.6493C111.984 41.346 112.351 41.9109 112.803 41.9109Z" fill="#2F4077"/>
<path fill-rule="evenodd" clip-rule="evenodd" d="M100.885 42.2214C101.338 42.2214 101.705 41.6566 101.705 40.9598C101.705 40.2631 101.338 39.6982 100.885 39.6982C100.432 39.6982 100.065 40.2631 100.065 40.9598C100.065 41.6566 100.432 42.2214 100.885 42.2214Z" fill="#2F4077"/>
<path fill-rule="evenodd" clip-rule="evenodd" d="M98.599 33.0381C99.8266 32.0594 101.173 32.0133 102.355 33.531C102.522 33.7452 102.484 34.054 102.269 34.2208C102.055 34.3876 101.746 34.3491 101.579 34.1349C100.781 33.1104 100.054 33.1353 99.2124 33.8066C99.0984 33.8974 98.9955 33.9901 98.8818 34.1014L98.6886 34.2942C98.6625 34.3195 98.6408 34.3396 98.6183 34.3583C98.5511 34.4142 98.4986 34.4485 98.3978 34.4737C98.1343 34.5395 97.8673 34.3794 97.8014 34.116C97.752 33.9185 97.8298 33.719 97.9829 33.6038L98.0018 33.5903L98.1284 33.4635C98.2898 33.3022 98.4327 33.1707 98.599 33.0381Z" fill="#2F4077"/>
<path fill-rule="evenodd" clip-rule="evenodd" d="M112.246 22.6268C109.049 22.6759 106.623 22.8234 105.18 23.1019C93.4427 25.7725 95.3444 34.4561 95.3444 34.4561C95.3444 34.4561 101.082 35.5539 105.754 28.6397C105.754 28.6397 112.164 33.8663 121.656 35.9799C121.803 35.9471 121.984 35.8979 122.148 35.8488V36.3239C122.705 36.1765 123.607 36.0126 124.541 36.0782C124.443 32.6539 123.82 28.3284 121 25.5431C119 23.5607 116.049 22.5776 112.246 22.6268Z" fill="#2F4077"/>
<path fill-rule="evenodd" clip-rule="evenodd" d="M105.441 22.0413C107.311 21.7817 110.255 21.6111 112.792 21.627C117.859 21.6806 121.245 23.5465 123.252 26.8373C124.042 28.1329 124.593 29.6074 124.964 31.2616C125.238 32.4828 125.385 33.6018 125.523 35.1832C125.546 35.4536 125.346 35.692 125.075 35.7155C124.805 35.7391 124.566 35.5389 124.543 35.2685L124.516 34.9745C124.211 31.6734 123.686 29.4386 122.412 27.349C120.584 24.352 117.514 22.6601 112.784 22.61L112.495 22.609C110.073 22.6074 107.326 22.772 105.576 23.015C105.307 23.0523 105.058 22.8646 105.021 22.5957C104.984 22.3268 105.172 22.0786 105.441 22.0413Z" fill="white"/>
<path fill-rule="evenodd" clip-rule="evenodd" d="M143.049 15.4992C139 3.93195 127.525 -2.57257 117.41 0.966412C109.098 3.86641 104.295 12.6647 105.082 22.1184C106.607 21.8562 109 21.6924 112.246 21.6432C116.328 21.5941 119.508 22.6591 121.705 24.8382C124.82 27.9184 125.459 32.5879 125.541 36.2252C127.049 36.6348 128.443 37.8636 128.558 40.9602C128.574 41.2715 128.295 43.68 128.361 43.6636C128.361 44.4336 128.525 45.4003 129.098 46.3506C130.23 48.1692 132.525 49.2997 135.935 49.693C135.951 49.693 135.967 49.693 136 49.693C136.246 49.693 136.459 49.5127 136.492 49.267C136.525 49.0048 136.328 48.7591 136.066 48.7263C132.984 48.3659 130.918 47.3992 129.951 45.8427C129.558 45.2201 129.41 44.5811 129.361 44.024C130.197 45.0071 131.656 46.0721 133.967 46.0721C134.525 46.0721 135.131 46.0065 135.787 45.8755C136.049 45.8263 136.23 45.5642 136.164 45.302C136.115 45.0399 135.853 44.8596 135.59 44.9252C132.607 45.5478 130.951 44.4173 130.082 43.4014C130.754 43.254 131.41 43.0738 132.066 42.8444C142.164 39.289 147.082 27.05 143.049 15.4992Z" fill="#2F4077"/>
<path fill-rule="evenodd" clip-rule="evenodd" d="M113.508 34.4717C109.923 34.4717 107.016 37.3765 107.016 40.9598C107.016 44.5431 109.923 47.4479 113.508 47.4479C117.093 47.4479 120 44.5431 120 40.9598C120 37.3765 117.093 34.4717 113.508 34.4717ZM113.508 35.4547C116.55 35.4547 119.016 37.9194 119.016 40.9598C119.016 44.0002 116.55 46.4649 113.508 46.4649C110.466 46.4649 108 44.0002 108 40.9598C108 37.9194 110.466 35.4547 113.508 35.4547Z" fill="#2F4077"/>
<path fill-rule="evenodd" clip-rule="evenodd" d="M107.377 40.3213C107.649 40.3213 107.869 40.5414 107.869 40.8128C107.869 41.0746 107.664 41.2886 107.406 41.3035L107.377 41.3043H103.475C103.204 41.3043 102.984 41.0843 102.984 40.8128C102.984 40.551 103.188 40.3371 103.447 40.3221L103.475 40.3213H107.377Z" fill="#2F4077"/>
<path fill-rule="evenodd" clip-rule="evenodd" d="M121.906 35.7151C122.142 35.5815 122.442 35.6648 122.576 35.9011C122.704 36.1287 122.632 36.4152 122.415 36.5554L122.39 36.5709L118.996 38.4878C118.76 38.6214 118.46 38.5381 118.326 38.3018C118.197 38.0742 118.27 37.7877 118.486 37.6475L118.512 37.632L121.906 35.7151Z" fill="#2F4077"/>
<path fill-rule="evenodd" clip-rule="evenodd" d="M97.2787 34.4717C93.6933 34.4717 90.7869 37.3765 90.7869 40.9598C90.7869 44.5431 93.6933 47.4479 97.2787 47.4479C100.864 47.4479 103.77 44.5431 103.77 40.9598C103.77 37.3765 100.864 34.4717 97.2787 34.4717ZM97.2787 35.4547C100.321 35.4547 102.787 37.9194 102.787 40.9598C102.787 44.0002 100.321 46.4649 97.2787 46.4649C94.2366 46.4649 91.7705 44.0002 91.7705 40.9598C91.7705 37.9194 94.2366 35.4547 97.2787 35.4547Z" fill="#2F4077"/>
<path fill-rule="evenodd" clip-rule="evenodd" d="M138.541 109.414H135.131L133.459 84.6243C133.344 82.8876 131.836 81.4785 130.098 81.4785H82.5737C80.836 81.4785 79.5082 82.8876 79.6393 84.6243L81.4918 112.068C81.6065 113.805 83.1147 115.214 84.8524 115.214L138.525 115.148C139.508 115.148 140.295 114.345 140.295 113.379V111.199C140.311 110.216 139.525 109.414 138.541 109.414Z" fill="#E4794A"/>
<path fill-rule="evenodd" clip-rule="evenodd" d="M109.689 97.8792C109.016 97.1583 108.115 96.6995 107.164 96.5193C107.312 96.3063 107.41 96.0442 107.443 95.7656C107.525 94.8809 106.885 94.0617 106.033 93.9306C106.016 93.9306 106 93.9306 105.984 93.9306C105.803 93.2588 105.459 92.1447 105.066 91.6696C104.918 91.4893 104.639 91.4238 104.443 91.5385C104.262 91.6532 104.23 91.8826 104.377 92.0628C104.639 92.3741 104.951 93.3408 105.148 94.0781C104.705 94.3074 104.394 94.7498 104.344 95.3069C104.295 95.8148 104.492 96.2899 104.803 96.634C104.508 96.7323 104.23 96.847 103.967 97.0108C102.262 98.0758 102.049 100.173 103.492 101.729C104.934 103.27 107.508 103.663 109.213 102.598C110.934 101.533 111.148 99.4193 109.689 97.8792Z" fill="white"/>
<path fill-rule="evenodd" clip-rule="evenodd" d="M108.967 91.5878C108.967 91.5878 106.508 91.0963 106.18 93.1443C106.197 93.1443 108.131 93.8325 108.967 91.5878Z" fill="white"/>
<path fill-rule="evenodd" clip-rule="evenodd" d="M200.984 115.213C201.255 115.213 201.475 115.433 201.475 115.704C201.475 115.966 201.271 116.18 201.013 116.195L200.984 116.196H1.13121C0.859592 116.196 0.639404 115.976 0.639404 115.704C0.639404 115.443 0.844145 115.229 1.10231 115.214L1.13121 115.213H200.984Z" fill="#2F4077"/>
</svg>
