<svg width="180" height="84" viewBox="0 0 180 84" fill="none" xmlns="http://www.w3.org/2000/svg">
<path fill-rule="evenodd" clip-rule="evenodd" d="M75.3714 30.9121C75.5807 30.9121 75.7503 31.0818 75.7503 31.2911C75.7503 31.4929 75.5926 31.6579 75.3936 31.6695L75.3714 31.6701H43.0453C33.6479 31.6701 26.0069 39.2176 25.855 48.5796L25.8527 48.8639V82.7839C25.8527 82.9933 25.683 83.1629 25.4737 83.1629C25.2719 83.1629 25.1069 83.0052 25.0954 82.8062L25.0947 82.7839V48.8639C25.0947 39.0514 32.9743 31.0731 42.7485 30.9145L43.0453 30.9121H75.3714Z" fill="#2F4077"/>
<path fill-rule="evenodd" clip-rule="evenodd" d="M47.7068 30.9238C47.9161 30.9238 48.0858 31.0935 48.0858 31.3028C48.0858 31.5121 47.9161 31.6818 47.7068 31.6818C39.4225 31.6818 32.6964 38.3255 32.5627 46.5784L32.5607 46.829V82.783C32.5607 82.9924 32.391 83.162 32.1817 83.162C31.9799 83.162 31.8149 83.0043 31.8034 82.8053L31.8027 82.783V46.829C31.8027 38.0418 38.9202 30.9238 47.7068 30.9238Z" fill="#2F4077"/>
<path fill-rule="evenodd" clip-rule="evenodd" d="M91.4292 36.8374C91.4492 36.6366 91.6226 36.4881 91.8217 36.4964L91.844 36.498L91.9703 36.5106C92.0006 36.5137 92.0304 36.5203 92.0591 36.5305L92.0873 36.5418L107.569 43.468C109.64 44.445 111.251 46.1823 112.066 48.314L112.095 48.3912L113.649 52.5855C113.722 52.7817 113.622 52.9998 113.425 53.0725C113.236 53.1426 113.027 53.052 112.947 52.8695L112.938 52.8488L111.385 48.655C110.658 46.6999 109.201 45.0999 107.327 44.1922L107.252 44.1567L91.8338 37.2588L91.7685 37.2522C91.5677 37.2321 91.4193 37.0587 91.4276 36.8596L91.4292 36.8374Z" fill="#2F4077"/>
<path fill-rule="evenodd" clip-rule="evenodd" d="M71.775 35.036C71.9677 34.9543 72.1901 35.0444 72.2717 35.2371C72.3504 35.423 72.2695 35.6364 72.0908 35.7247L72.0706 35.7339L56.8607 42.1771C52.7642 43.9047 49.4555 47.1031 47.5701 51.1471C47.5626 51.1631 47.554 51.1786 47.5444 51.1934L47.5256 51.2199L47.4071 51.3798L47.2632 51.577C47.212 51.6475 47.1578 51.7227 47.1006 51.8025L47.0572 51.8632C46.7016 52.3607 46.3076 52.9287 45.8842 53.5598L45.8045 53.6789C44.5076 55.6191 43.2106 57.7351 42.0004 59.9553C40.0225 63.5839 38.4756 67.1275 37.5248 70.4468C36.1701 75.1764 36.0999 79.1983 37.5523 82.2953C37.6411 82.4848 37.5596 82.7104 37.3701 82.7993C37.1806 82.8882 36.9549 82.8066 36.866 82.6171C35.3224 79.3255 35.3957 75.1275 36.7962 70.2381C37.7641 66.8588 39.3324 63.2663 41.3349 59.5925C42.5568 57.3509 43.8655 55.2158 45.1744 53.2576L45.3347 53.0186C45.7057 52.4678 46.0537 51.9659 46.3726 51.5177L46.4405 51.4225C46.5448 51.2766 46.6399 51.1449 46.7254 51.0277L46.9002 50.7905L46.9425 50.7006C48.8969 46.5883 52.2698 43.3279 56.4378 41.5334L56.5656 41.4789L71.775 35.036Z" fill="#2F4077"/>
<path fill-rule="evenodd" clip-rule="evenodd" d="M60.5947 40.0468C60.783 39.9744 60.9936 40.0625 61.0758 40.244L61.0844 40.2646L64.302 48.636L70.652 49.5764C71.0103 49.6294 71.0939 50.103 70.7871 50.2789L70.767 50.2898L65.9772 52.7023L66.2938 53.1949C66.5867 53.652 66.9067 54.1549 67.2479 54.6951C68.3727 56.4762 69.4975 58.2989 70.5476 60.0587C70.7424 60.3851 70.9331 60.7068 71.1193 61.0234L71.2582 61.2599C72.3799 63.1737 73.3109 64.8517 74.0046 66.2292C74.0987 66.4161 74.0235 66.644 73.8366 66.7382C73.6497 66.8323 73.4218 66.7571 73.3277 66.5701L73.2327 66.3827C72.5901 65.1205 71.7522 63.6096 70.7551 61.9009L70.6043 61.6432C70.3753 61.2525 70.1393 60.8535 69.8968 60.4471C68.925 58.8187 67.8885 57.1353 66.8474 55.4811L66.607 55.0999C66.2668 54.5611 65.9476 54.0596 65.6556 53.6039L65.378 53.1716L65.1122 52.7604C64.9933 52.5776 65.0532 52.3343 65.239 52.2263L65.2594 52.2152L69.3575 50.1509L63.9722 49.3534C63.8454 49.3346 63.7373 49.2532 63.6839 49.138L63.6739 49.1145L60.3769 40.5366C60.3018 40.3412 60.3993 40.1219 60.5947 40.0468Z" fill="#2F4077"/>
<path fill-rule="evenodd" clip-rule="evenodd" d="M104.204 42.8144C104.238 42.608 104.434 42.4687 104.64 42.5033C104.839 42.5367 104.976 42.7196 104.954 42.9177L104.951 42.9398L103.688 50.4692C103.667 50.5957 103.583 50.7022 103.467 50.7534L103.443 50.7629L98.3104 52.6189L100.737 53.2878C100.931 53.3415 101.048 53.5374 101.007 53.7323L101.001 53.7539C100.948 53.9485 100.752 54.0656 100.557 54.0239L100.535 54.0186L96.9604 53.0332C96.6119 52.9371 96.5858 52.4585 96.9101 52.3201L96.9322 52.3114L102.977 50.1253L104.204 42.8144Z" fill="#2F4077"/>
<path fill-rule="evenodd" clip-rule="evenodd" d="M50.0207 65.2807C51.8715 64.9789 56.5017 65.0525 63.1164 65.4032L63.3175 65.4139C65 65.504 66.7679 65.6099 68.5919 65.7284L69.6579 65.7986C71.0743 65.8933 72.4689 65.9916 73.815 66.0906L75.0718 66.1843C75.4101 66.2099 75.7318 66.2345 76.0355 66.258L77.373 66.3635C77.6422 66.3854 77.8003 66.6724 77.6816 66.9098L77.6711 66.9295L76.6226 68.7613C76.5187 68.943 76.2871 69.0059 76.1055 68.902C75.9306 68.8018 75.8657 68.5834 75.954 68.4051L75.9648 68.3848L76.7164 67.0715L75.8625 67.0049C75.5163 66.9782 75.1475 66.9501 74.7582 66.9208L73.7594 66.8466C72.1909 66.7312 70.5564 66.6167 68.8984 66.508L68.5427 66.4848C66.9492 66.3813 65.3986 66.2874 63.9107 66.2053L62.8802 66.1498C56.439 65.8117 51.8979 65.7426 50.1426 66.0288C49.9361 66.0625 49.7413 65.9223 49.7076 65.7158C49.674 65.5092 49.8141 65.3144 50.0207 65.2807Z" fill="#2F4077"/>
<path fill-rule="evenodd" clip-rule="evenodd" d="M62.2994 58.6387C62.3578 58.4376 62.568 58.322 62.769 58.3804C62.9629 58.4366 63.0773 58.6342 63.0329 58.8284L63.0273 58.85L61.0946 65.5077C61.0362 65.7087 60.826 65.8243 60.625 65.766C60.4311 65.7097 60.3167 65.5122 60.3611 65.3179L60.3667 65.2964L62.2994 58.6387Z" fill="#2F4077"/>
<path fill-rule="evenodd" clip-rule="evenodd" d="M66.3957 65.6468C66.5747 65.5382 66.8078 65.5953 66.9163 65.7743C67.0248 65.9533 66.9677 66.1864 66.7888 66.2949C64.0451 67.959 62.0596 70.2923 60.7255 73.1292C59.8316 75.03 59.2722 77.0664 58.9845 79.1305C58.8029 80.4332 58.7504 81.5692 58.7724 82.447L58.7783 82.6301L58.7846 82.76C58.7988 82.9689 58.6409 83.1496 58.4321 83.1637C58.2233 83.1779 58.0425 83.0201 58.0284 82.8112L58.0227 82.7038C58.0217 82.6796 58.0206 82.6524 58.0195 82.6221L58.0148 82.4674C57.9916 81.5501 58.0461 80.3728 58.2338 79.0258C58.5314 76.8907 59.1108 74.7819 60.0396 72.8066C61.4344 69.8407 63.5178 67.3923 66.3957 65.6468Z" fill="#2F4077"/>
<path fill-rule="evenodd" clip-rule="evenodd" d="M93.461 67.3233C90.8714 67.7402 88.4333 67.7781 86.3869 67.6644C83.8352 67.5254 81.6119 67.1212 79.957 66.7422C80.0202 67.3107 80.0834 67.8918 80.1213 68.4603C81.7635 68.814 83.8604 69.1551 86.2353 69.2941C86.9553 69.332 87.6754 69.3573 88.3828 69.3573C90.0882 69.3573 91.743 69.2309 93.3473 68.9909L93.461 67.3233Z" fill="#E4794A"/>
<path fill-rule="evenodd" clip-rule="evenodd" d="M88.2564 65.9838C90.0628 65.9838 91.844 65.8701 93.5746 65.6553L93.6883 63.9751C89.9239 64.4931 86.4121 64.4046 83.5572 64.1014C82.0792 63.9498 80.7023 63.7351 79.4517 63.4824C79.5527 64.0509 79.6538 64.632 79.7422 65.2132C80.8538 65.4153 82.0539 65.5922 83.3298 65.7311C84.9972 65.8954 86.6395 65.9838 88.2564 65.9838Z" fill="#E4794A"/>
<path fill-rule="evenodd" clip-rule="evenodd" d="M82.1295 59.1987C80.7779 59.0724 79.5146 58.8955 78.3398 58.6934C78.5041 59.2619 78.6557 59.843 78.7946 60.4367C79.7799 60.5883 80.8158 60.7273 81.9148 60.8284C83.5065 60.98 85.0855 61.0558 86.6266 61.0558C89.0268 61.0558 91.3638 60.8663 93.625 60.4999C93.726 60.4873 93.8144 60.462 93.9155 60.4494L94.0292 58.7439C89.6079 59.5524 85.4392 59.5145 82.1295 59.1987Z" fill="#E4794A"/>
<path fill-rule="evenodd" clip-rule="evenodd" d="M86.8794 56.7998C89.1784 56.7998 91.667 56.585 94.2314 56.0418L94.3451 54.3363C89.4564 55.4607 84.8203 55.2712 81.2832 54.7406C79.641 54.5006 78.1252 54.1721 76.7861 53.8184C77.0009 54.4248 77.2283 55.0438 77.4304 55.6754C78.5294 55.9281 79.7168 56.1681 80.9801 56.3576C82.736 56.6103 84.7192 56.7998 86.8794 56.7998Z" fill="#E4794A"/>
<path fill-rule="evenodd" clip-rule="evenodd" d="M94.6738 49.5738C89.343 50.8877 84.0753 50.6729 80.0582 50.1044C78.1634 49.8391 76.4327 49.4727 74.8916 49.0938C75.1569 49.7001 75.4222 50.3318 75.6874 50.9635C76.9633 51.254 78.3529 51.5067 79.8182 51.7215C82.0289 52.0373 84.189 52.1889 86.286 52.1889C87.9029 52.1889 89.4819 52.1004 91.0104 51.911C92.2231 51.7594 93.398 51.5572 94.5601 51.2919L94.6738 49.5738Z" fill="#E4794A"/>
<path fill-rule="evenodd" clip-rule="evenodd" d="M94.9515 45.3409C89.267 46.68 83.633 46.3768 79.3759 45.7073C76.7484 45.2904 74.3988 44.7219 72.5039 44.166C72.8323 44.7977 73.1734 45.4546 73.5145 46.1494C75.0556 46.5537 76.8494 46.958 78.7948 47.2738C81.4602 47.7033 84.0625 47.9307 86.5763 47.9307C87.9406 47.9307 89.2796 47.8675 90.5808 47.7412C92.0461 47.6022 93.4609 47.3748 94.8378 47.0716L94.9515 45.3409Z" fill="#E4794A"/>
<path fill-rule="evenodd" clip-rule="evenodd" d="M76.5463 41.1339C73.7671 40.6033 71.4302 39.9211 69.7627 39.3652C70.1417 39.9716 70.5585 40.6791 71.0259 41.475C72.8702 42.0182 75.3462 42.6372 78.1758 43.0541C78.618 43.1173 79.0853 43.1805 79.5654 43.2436C78.4664 42.6246 77.4558 41.8919 76.5463 41.1339Z" fill="#E4794A"/>
<path fill-rule="evenodd" clip-rule="evenodd" d="M90.6315 41.6015C90.4799 41.9805 90.3157 42.3343 90.1262 42.6754C89.9746 42.928 89.7978 43.1681 89.583 43.3702C91.4147 43.1807 93.2843 42.8396 95.1665 42.3343L95.2802 40.6035C93.7264 41.0583 92.1726 41.3868 90.6315 41.6015Z" fill="#E4794A"/>
<path fill-rule="evenodd" clip-rule="evenodd" d="M75.7551 26.4562C75.7879 26.2495 75.9821 26.1086 76.1889 26.1415C76.3882 26.1732 76.5263 26.3549 76.5065 26.5532L76.5036 26.5753L75.493 32.9298C75.4798 33.0129 75.4393 33.089 75.3783 33.1464L75.3573 33.1648L72.1073 35.7975L72.1842 35.9036C72.4132 36.2178 72.6818 36.5685 72.9879 36.9465C73.8632 38.0274 74.8614 39.1084 75.9641 40.1165C78.2771 42.2312 80.7288 43.7349 83.2453 44.3653C85.6403 44.9674 88.8308 44.1554 89.7974 42.4847C90.7207 40.8793 91.1605 38.6945 91.4172 35.0568L91.4388 34.739L91.4321 34.7243C91.357 34.5484 91.4253 34.3433 91.591 34.2477L91.6113 34.2368C91.7985 34.1431 92.0261 34.219 92.1197 34.4062C92.1652 34.4971 92.1914 34.6025 92.1967 34.7027L92.1976 34.74L92.1968 34.7649L92.1728 35.1165C91.9085 38.8599 91.4507 41.1304 90.454 42.8634C89.2897 44.8757 85.75 45.7766 83.0608 45.1005C80.4055 44.4353 77.8507 42.8683 75.4527 40.6759C74.3201 39.6405 73.2966 38.5321 72.3989 37.4235L72.2565 37.2463C72.0236 36.9542 71.8134 36.6792 71.6269 36.4255L71.5716 36.35C71.5242 36.2848 71.4803 36.2238 71.4399 36.1671L71.3553 36.0468C71.3182 35.9935 71.2927 35.9561 71.2792 35.9358C71.175 35.7798 71.2011 35.5723 71.3374 35.4468L71.3558 35.4309L74.7673 32.6671L75.7551 26.4562Z" fill="#2F4077"/>
<path fill-rule="evenodd" clip-rule="evenodd" d="M88.0796 5.334C89.1558 5.3352 90.2148 5.44549 91.2107 5.69666C93.9708 6.39279 95.8457 8.05596 96.3608 10.9098C96.9982 14.4551 97.1195 18.5174 96.8355 22.4977L96.821 22.6952L96.8138 22.9172C96.8014 23.2541 96.782 23.6072 96.7492 24.0225L96.7331 24.2187C96.6565 25.1204 96.5371 26.0464 96.3651 26.9718C95.8922 29.5171 95.0995 31.6812 93.8994 33.2292C92.5075 35.0189 90.2434 35.923 87.5906 35.9574C85.2726 35.9875 82.8413 35.3288 81.2026 34.2612L81.0344 34.1506C78.3551 32.3798 77.6146 31.4306 76.7349 28.9563L76.7077 28.8792C76.637 28.6814 76.5297 27.9301 76.2845 26.0337C76.2576 25.8261 76.4041 25.6361 76.6117 25.6092C76.8193 25.5824 77.0093 25.7289 77.0362 25.9365L77.1613 26.8923C77.3044 27.9682 77.3894 28.5346 77.422 28.6258L77.473 28.7696C78.3032 31.0857 78.9648 31.8914 81.6169 33.6265C83.125 34.6089 85.4086 35.2276 87.5808 35.1995C90.0212 35.1678 92.0667 34.351 93.3008 32.7643C94.4127 31.33 95.1671 29.2705 95.6199 26.8334C95.787 25.9341 95.9033 25.0326 95.9779 24.1546L95.9935 23.9635C96.0254 23.5594 96.0443 23.2162 96.0564 22.889L96.0637 22.6644L96.0646 22.6469C96.3632 18.6601 96.2506 14.5805 95.6148 11.0442C95.1583 8.5145 93.5193 7.06065 91.0253 6.43164C90.0955 6.19712 89.0969 6.09313 88.0787 6.09199C87.4255 6.09125 86.8629 6.13025 86.3755 6.18873L86.2949 6.19865C82.2699 6.69835 79.5516 8.3778 77.9012 10.9435C76.6991 12.8123 76.1581 14.9836 76.079 17.1557C76.0714 17.3648 75.8956 17.5282 75.6865 17.5206C75.4773 17.513 75.3139 17.3372 75.3215 17.1281C75.4052 14.8313 75.9781 12.5321 77.2638 10.5334C79.037 7.77673 81.9555 5.97356 86.2007 5.44654C86.7352 5.37896 87.3547 5.33318 88.0796 5.334Z" fill="#2F4077"/>
<path fill-rule="evenodd" clip-rule="evenodd" d="M100.497 20.7046C100.409 18.6833 99.1331 17.0662 97.4278 16.2324C97.2762 16.4598 97.0993 16.6619 96.9351 16.8135C96.973 19.6055 96.7582 24.6714 96.5182 26.1495C96.6446 26.1116 96.7709 26.0737 96.8846 26.0358C96.7835 26.9327 96.5056 27.9686 95.8361 28.714C95.255 29.3583 94.4592 29.712 93.4107 29.8131C93.1833 29.611 92.8801 29.4846 92.5517 29.4846C91.8316 29.4846 91.2632 30.0658 91.2632 30.7732C91.2632 31.4807 91.8443 32.0618 92.5517 32.0618C92.9054 32.0618 93.2212 31.9228 93.4486 31.6954C95.0402 31.5817 96.3035 31.0006 97.2256 29.9773C98.6531 28.3855 98.8426 26.1242 98.8173 24.8356C99.9163 23.7997 100.573 22.3216 100.497 20.7046Z" fill="#E4794A"/>
<path fill-rule="evenodd" clip-rule="evenodd" d="M91.3297 19.5477C91.5291 19.516 91.7168 19.6459 91.7594 19.8406L91.7636 19.8625L92.6984 25.7369C92.7389 25.9918 92.519 26.2094 92.2679 26.1713L92.2464 26.1674L90.1368 25.7252C89.9319 25.6823 89.8007 25.4814 89.8436 25.2765C89.885 25.079 90.0732 24.9499 90.2703 24.9794L90.2922 24.9834L91.8633 25.3126L91.015 19.9816C90.9833 19.7823 91.1132 19.5945 91.3079 19.5519L91.3297 19.5477Z" fill="#2F4077"/>
<path fill-rule="evenodd" clip-rule="evenodd" d="M94.0141 21.0816C94.3487 21.0669 94.6016 20.6369 94.579 20.1211C94.5564 19.6053 94.2669 19.1991 93.9324 19.2137C93.5979 19.2284 93.345 19.6584 93.3675 20.1742C93.3901 20.6899 93.6796 21.0962 94.0141 21.0816Z" fill="#2F4077"/>
<path fill-rule="evenodd" clip-rule="evenodd" d="M88.0903 21.0562C88.4249 21.0415 88.6778 20.6115 88.6552 20.0957C88.6326 19.5799 88.3431 19.1737 88.0086 19.1883C87.674 19.203 87.4211 19.633 87.4437 20.1488C87.4663 20.6646 87.7558 21.0708 88.0903 21.0562Z" fill="#2F4077"/>
<path fill-rule="evenodd" clip-rule="evenodd" d="M84.483 15.985C85.1935 15.5439 86.0415 15.3715 86.9906 15.6265C87.1927 15.6808 87.3125 15.8887 87.2582 16.0909C87.2039 16.293 86.996 16.4129 86.7939 16.3586C86.0632 16.1622 85.426 16.2917 84.8828 16.629C84.755 16.7084 84.6434 16.7932 84.5495 16.8771L84.5168 16.907C84.4869 16.9348 84.466 16.956 84.4543 16.9688L84.4492 16.9744C84.3116 17.1321 84.0722 17.1485 83.9145 17.0109C83.7568 16.8733 83.7405 16.6339 83.8781 16.4761L83.9033 16.4483C83.9366 16.4127 83.9837 16.3663 84.0444 16.312C84.1697 16.1999 84.3161 16.0887 84.483 15.985Z" fill="#2F4077"/>
<path fill-rule="evenodd" clip-rule="evenodd" d="M92.1759 14.993C92.5297 14.9269 92.9014 14.9154 93.2609 14.996C93.8553 15.1292 94.3135 15.499 94.538 16.1314C94.6081 16.3286 94.505 16.5453 94.3078 16.6154C94.1105 16.6854 93.8939 16.5823 93.8238 16.3851C93.6912 16.0115 93.447 15.8145 93.0951 15.7356C92.8505 15.6808 92.5765 15.6893 92.3151 15.7381L92.2665 15.7477C92.2365 15.7539 92.2113 15.7598 92.1916 15.7647L92.1567 15.7743C91.9566 15.8354 91.7447 15.7227 91.6836 15.5225C91.6225 15.3223 91.7352 15.1104 91.9354 15.0493L91.9738 15.0383C92.0239 15.0247 92.0923 15.0086 92.1759 14.993Z" fill="#2F4077"/>
<path fill-rule="evenodd" clip-rule="evenodd" d="M90.2144 28.1212C88.3827 30.1299 87.3595 28.336 86.4878 27.0221C86.2604 26.6937 86.5636 26.2515 86.9552 26.3526C88.5974 26.7821 90.8333 27.439 90.2144 28.1212Z" fill="#2F4077"/>
<path fill-rule="evenodd" clip-rule="evenodd" d="M98.0085 8.95622C97.4274 7.6929 96.7073 7.33917 96.0631 7.33917C96.0378 7.11177 95.9999 6.88438 95.9494 6.65698C95.5073 4.64831 94.2314 2.94283 92.4881 1.89427V1.89427C92.4881 1.89427 90.3407 -0.392334 83.595 0.0877268C76.8367 0.567788 76.6598 4.44617 76.6598 4.44617V4.44617C73.5902 6.51802 71.3669 9.12045 71.2027 11.3313C70.9248 14.9949 71.7206 17.0162 72.6428 18.1405C74.9292 17.9258 76.4704 19.1638 77.0514 18.6964C79.2874 16.8899 79.6411 12.6451 80.7148 10.3585C80.8538 10.0553 81.2327 9.92897 81.5233 10.1058C83.4181 11.1797 85.9951 11.5208 89.0395 11.1039C92.3366 10.6491 93.8145 9.10782 94.4714 7.89503C94.4967 7.9203 94.5093 7.94557 94.5346 7.9582C94.5598 7.9961 94.5977 8.02136 94.623 8.05926C94.6356 8.0719 94.6483 8.08453 94.6609 8.1098C94.6862 8.13506 94.7114 8.17296 94.7367 8.19823C94.7493 8.22349 94.7746 8.23613 94.7872 8.26139C94.8125 8.28666 94.8251 8.31193 94.8504 8.34983C94.8757 8.37509 94.8883 8.40036 94.9135 8.42563C94.9388 8.45089 94.9514 8.47616 94.9767 8.50142C95.002 8.52669 95.0146 8.56459 95.0399 8.58986C95.0525 8.61512 95.0778 8.64039 95.0904 8.66566C95.1157 8.70356 95.1283 8.72882 95.1536 8.76672C95.1662 8.79199 95.1788 8.81726 95.1915 8.84252C95.2167 8.88042 95.242 8.91832 95.2546 8.95622C95.2673 8.98149 95.2799 8.99412 95.2925 9.01939C95.3178 9.05728 95.343 9.10782 95.3557 9.14572C95.3683 9.17098 95.3809 9.18362 95.3809 9.20888C95.4062 9.25942 95.4315 9.30995 95.4567 9.36048C95.6841 9.84054 95.8483 10.3711 95.962 10.9775C96.3157 12.9609 96.4926 15.0201 96.5558 16.9909C96.6315 17.0036 96.72 16.9783 96.7958 16.9151C98.1727 15.8413 99.398 11.9503 98.0085 8.95622Z" fill="#2F4077"/>
<path fill-rule="evenodd" clip-rule="evenodd" d="M80.73 16.7503C80.5083 16.7415 80.3265 16.9241 80.3363 17.1457C80.4179 18.9925 80.7162 20.42 81.3304 21.4912C82.0794 22.7974 83.2792 23.5081 84.9662 23.534C87.9999 23.5054 89.7561 22.3837 90.4435 20.5234C90.6859 19.8674 90.7747 19.1677 90.7499 18.4644C90.741 18.213 90.7179 17.9764 90.685 17.7592L90.672 17.6775C90.6568 17.5863 90.6417 17.5103 90.6282 17.4509L90.6206 17.4185C90.5806 17.254 90.4365 17.136 90.2674 17.1293L80.73 16.7503ZM81.116 17.5242L89.9357 17.8746L89.9356 17.8728C89.9643 18.0623 89.9846 18.2701 89.9924 18.4911C90.014 19.1026 89.9373 19.7063 89.7325 20.2607C89.1592 21.8123 87.6907 22.7503 84.9684 22.7761C82.4498 22.7373 81.3476 20.9893 81.1177 17.5509L81.116 17.5242Z" fill="#2F4077"/>
<path fill-rule="evenodd" clip-rule="evenodd" d="M80.5571 16.7962C80.7473 16.7091 80.9723 16.7927 81.0594 16.983C81.1435 17.1665 81.0688 17.3822 80.8927 17.4755L80.8728 17.4854L78.3084 18.6603C78.1181 18.7474 77.8932 18.6638 77.806 18.4735C77.722 18.29 77.7967 18.0743 77.9727 17.981L77.9927 17.9711L80.5571 16.7962Z" fill="#2F4077"/>
<path fill-rule="evenodd" clip-rule="evenodd" d="M91.6728 19.3653C91.882 19.3614 92.0549 19.5278 92.0588 19.7371C92.0626 19.9389 91.908 20.1068 91.7093 20.1221L91.6871 20.1232L90.348 20.1484C90.1388 20.1524 89.9659 19.9859 89.962 19.7766C89.9582 19.5748 90.1128 19.4069 90.3115 19.3916L90.3337 19.3906L91.6728 19.3653Z" fill="#2F4077"/>
<path fill-rule="evenodd" clip-rule="evenodd" d="M99.9282 16.9026L91.4393 17.1931C91.2219 17.2006 91.0554 17.389 91.0748 17.6056L91.0824 17.6782C91.0876 17.7226 91.0949 17.7788 91.1047 17.846C91.1314 18.0293 91.1682 18.2328 91.2165 18.4515C91.3547 19.0768 91.5589 19.7026 91.8433 20.2901C92.698 22.0553 94.0899 23.1154 96.0998 23.0545C97.79 23.0086 98.8222 22.6342 99.4128 21.8625C99.8684 21.2672 100.009 20.6538 100.127 19.2247L100.19 18.4425C100.232 17.9582 100.261 17.7046 100.316 17.3375C100.351 17.1032 100.165 16.8945 99.9282 16.9026ZM91.8868 17.9362L99.5047 17.6755L99.4899 17.804C99.4623 18.0533 99.4374 18.3375 99.4024 18.7761L99.3721 19.1549C99.2662 20.4377 99.1471 20.9626 98.8109 21.4018C98.3849 21.9584 97.5632 22.2565 96.078 22.2969C94.4019 22.3476 93.261 21.4787 92.5255 19.9598C92.2691 19.4303 92.0829 18.8594 91.9566 18.2879L91.9405 18.2136C91.9249 18.14 91.9108 18.0685 91.8981 17.9994L91.8868 17.9362Z" fill="#2F4077"/>
<path fill-rule="evenodd" clip-rule="evenodd" d="M73.5651 19.3906C73.5272 19.3906 73.4893 19.3906 73.4514 19.3906C71.9987 19.4664 70.8744 20.8687 70.9376 22.5237C71.0008 24.1407 72.1629 25.404 73.5651 25.404C73.603 25.404 73.6409 25.404 73.6788 25.404C75.1315 25.3282 76.2558 23.9259 76.1926 22.271C76.1295 20.6539 74.9673 19.3906 73.5651 19.3906Z" fill="#E4794A"/>
<path fill-rule="evenodd" clip-rule="evenodd" d="M80.0708 22.3475C79.995 20.5157 78.9971 18.9365 77.557 18.0143L76.9254 3.65039L76.4706 3.67566C75.2579 3.72619 74.3105 4.76211 74.361 5.9749L74.8537 17.1932C74.7147 17.1932 74.5757 17.1932 74.4368 17.1932C71.4556 17.3195 69.1565 19.8461 69.2828 22.8149C69.4091 25.7964 71.9356 28.0956 74.9042 27.9693C77.8854 27.8429 80.1971 25.3163 80.0708 22.3475ZM73.7168 26.1501C73.6662 26.1501 73.6157 26.1501 73.5652 26.1501C71.7461 26.1501 70.2555 24.5709 70.1797 22.5496C70.1039 20.4778 71.544 18.7218 73.4136 18.6333C73.4641 18.6333 73.5146 18.6333 73.5652 18.6333C75.3842 18.6333 76.8748 20.2125 76.9506 22.2338C77.0264 24.3056 75.5737 26.0617 73.7168 26.1501Z" fill="#E4794A"/>
<path fill-rule="evenodd" clip-rule="evenodd" d="M76.3335 68.131L77.2878 68.1681L78.5878 68.2199C79.9327 68.2741 81.32 68.3322 82.7498 68.3939L84.1938 68.4567C85.8419 68.5292 87.508 68.6045 89.2332 68.6844L93.9264 68.9054L96.7509 69.0407C96.96 69.0508 97.1213 69.2284 97.1113 69.4374C97.1017 69.639 96.9362 69.7963 96.7369 69.7983L96.6769 69.7961L91.299 69.5396L89.544 69.4576C88.0423 69.3879 86.587 69.3216 85.1515 69.2578L83.0754 69.1666C81.8785 69.1148 80.7112 69.0654 79.5734 69.0186L77.9037 68.9511L76.5198 68.8967C75.3877 70.6561 74.3168 72.5725 73.4386 74.5396L73.3484 74.7433C72.1888 77.3858 71.5052 79.8494 71.4255 82.0208L71.424 82.065H71.6595L78.2572 80.3466C78.4525 80.2957 78.652 80.4068 78.7133 80.5965L78.7195 80.6178C78.7704 80.8132 78.6593 81.0126 78.4697 81.0739L78.4483 81.0801L71.8037 82.8109C71.7803 82.817 71.7564 82.8208 71.7323 82.8223L71.7082 82.8231H71.0386C70.8293 82.8231 70.6597 82.6534 70.6597 82.4441C70.6597 80.0504 71.3802 77.3421 72.6544 74.4387C73.5972 72.2904 74.7663 70.2031 76.0012 68.3032C76.0694 68.1983 76.1846 68.1342 76.3086 68.1309L76.3335 68.131Z" fill="#2F4077"/>
<path fill-rule="evenodd" clip-rule="evenodd" d="M138.887 32.4531C135.211 31.2151 132.28 28.3473 130.967 24.709C126.659 24.7469 123.172 28.2463 123.172 32.5668C123.172 32.6805 123.172 32.7942 123.185 32.8953L123.172 32.8827V40.3868H130.348C130.575 40.412 130.802 40.412 131.03 40.412C135.375 40.412 138.887 36.8874 138.887 32.5542C138.887 32.5289 138.887 32.491 138.887 32.4531ZM127.935 34.0449C127.48 34.0449 127.164 33.6912 127.164 33.2237C127.164 32.7437 127.493 32.4026 127.947 32.4026C128.402 32.4026 128.718 32.7437 128.718 33.2237C128.705 33.6912 128.415 34.0449 127.935 34.0449ZM130.613 34.0449C130.158 34.0449 129.842 33.6912 129.842 33.2237C129.842 32.7437 130.171 32.4026 130.625 32.4026C131.08 32.4026 131.396 32.7437 131.396 33.2237C131.396 33.6912 131.093 34.0449 130.613 34.0449ZM133.304 34.0449C132.849 34.0449 132.533 33.6912 132.533 33.2237C132.533 32.7437 132.861 32.4026 133.316 32.4026C133.771 32.4026 134.087 32.7437 134.087 33.2237C134.087 33.6912 133.784 34.0449 133.304 34.0449Z" fill="#E4794A"/>
<path fill-rule="evenodd" clip-rule="evenodd" d="M155.107 20.1872C155.031 13.5548 149.625 8.21094 142.98 8.21094C136.285 8.21094 130.853 13.6432 130.853 20.3388C130.853 27.0344 136.285 32.4666 142.98 32.4666H155.132V20.1619L155.107 20.1872ZM142.652 27.4386H142.601C142.045 27.4386 141.603 26.9838 141.603 26.4406C141.603 25.8848 142.058 25.4426 142.601 25.4426H142.652C143.207 25.4426 143.65 25.8974 143.65 26.4406C143.662 26.9838 143.207 27.4386 142.652 27.4386ZM144.951 20.8441C144.193 21.2484 143.725 21.5642 143.548 21.7916C143.384 22.019 143.296 22.3727 143.296 22.8528V23.2444C143.296 23.6487 142.967 23.9772 142.563 23.9772C142.159 23.9772 141.83 23.6487 141.83 23.2444C141.843 22.6128 141.856 22.1959 141.868 21.9937C141.894 21.7284 141.969 21.4758 142.083 21.2105C142.209 20.9452 142.348 20.7431 142.5 20.6041C142.652 20.4525 143.018 20.2251 143.586 19.9093C144.205 19.5682 144.635 19.2902 144.862 19.1007C145.102 18.9112 145.304 18.6333 145.469 18.2922C145.645 17.9511 145.734 17.5721 145.734 17.1679C145.734 16.3972 145.456 15.7908 144.888 15.3487C144.332 14.9065 143.662 14.6918 142.904 14.6918C141.388 14.6918 140.39 15.4624 139.923 17.0036C139.797 17.3953 139.405 17.6353 139.013 17.5469C138.571 17.4458 138.306 16.991 138.432 16.5488C139.089 14.3633 140.618 13.2642 142.993 13.2642C144.357 13.2642 145.443 13.6306 146.29 14.3759C147.136 15.1213 147.54 16.0688 147.54 17.231C147.566 18.7217 146.694 19.9345 144.951 20.8441Z" fill="#E4794A"/>
<path fill-rule="evenodd" clip-rule="evenodd" d="M95.7599 82.3685L102.998 52.5794C103.125 52.0488 103.504 51.6319 103.996 51.4551H101.204C100.636 51.4551 100.143 51.8467 100.004 52.4026L94.1304 77.252H76.7357C76.7357 77.252 75.7251 82.4569 81.5991 82.4569H95.7473C95.7473 82.4316 95.7599 82.3937 95.7599 82.3685Z" fill="#2F4077"/>
<path fill-rule="evenodd" clip-rule="evenodd" d="M144.622 51.4551C144.622 51.4551 105.058 51.5309 105.058 51.5561C105.058 51.7709 104.767 52.112 104.552 52.112C104.161 52.112 103.82 52.3773 103.731 52.7563L96.5181 82.4569H137.876C138.445 82.4569 138.937 82.0653 139.076 81.5094L145.822 52.9711C145.999 52.2004 145.418 51.4551 144.622 51.4551ZM121.96 70.468C120.279 70.468 118.915 69.1036 118.915 67.4234C118.915 65.7432 120.279 64.3788 121.96 64.3788C123.64 64.3788 125.004 65.7432 125.004 67.4234C125.004 69.1036 123.64 70.468 121.96 70.468ZM134.579 71.0491C134.339 70.986 134.074 70.9481 133.809 70.9481C132.179 70.9481 130.853 72.2746 130.853 73.9042C130.853 75.5339 132.179 76.8604 133.809 76.8604C134.074 76.8604 134.327 76.8225 134.579 76.7593V77.5426C134.327 77.5931 134.074 77.6184 133.809 77.6184C131.762 77.6184 130.095 75.9508 130.095 73.9042C130.095 71.8577 131.762 70.1901 133.809 70.1901C134.074 70.1901 134.327 70.2153 134.579 70.2659V71.0491Z" fill="#2F4077"/>
<path fill-rule="evenodd" clip-rule="evenodd" d="M143.131 82.8231H138.356C136.259 82.8231 134.566 81.1303 134.566 79.0331V69.8867H146.921V79.0331C146.921 81.1176 145.228 82.8231 143.131 82.8231Z" fill="#E4794A"/>
<path fill-rule="evenodd" clip-rule="evenodd" d="M179.475 82.3418C179.754 82.3418 179.98 82.568 179.98 82.8471C179.98 83.1178 179.767 83.3387 179.5 83.3518L179.475 83.3525H0.575605C0.29654 83.3525 0.0703125 83.1262 0.0703125 82.8471C0.0703125 82.5765 0.283037 82.3556 0.550386 82.3424L0.575605 82.3418H179.475Z" fill="#2F4077"/>
</svg>
