<svg width="181" height="105" viewBox="0 0 181 105" fill="none" xmlns="http://www.w3.org/2000/svg">
<path fill-rule="evenodd" clip-rule="evenodd" d="M48.3058 60.2841C49.1973 58.6957 50.4809 57.9869 52.3063 58.0994C53.897 58.2018 54.9969 59.3797 55.6456 61.3367C55.9731 62.325 56.1814 63.5021 56.2792 64.775L56.2914 64.9425L56.2985 64.9279C57.8243 61.797 59.4654 60.7004 61.9138 61.2998L62.0016 61.322C63.4586 61.6941 64.3108 62.9247 64.6299 64.776C64.8273 65.9209 64.8189 67.2907 64.6408 68.7746L64.6317 68.8479L64.6383 68.8433C65.7659 68.0295 66.8913 67.9324 68.123 68.5671L68.1775 68.5956L68.2465 68.636C68.3132 68.676 68.3776 68.7179 68.4831 68.7883C68.686 68.9236 68.7409 69.1978 68.6056 69.4008C68.4703 69.6038 68.196 69.6586 67.993 69.5233L67.8889 69.4545C67.8311 69.4168 67.7928 69.3931 67.7511 69.3692C66.5512 68.7317 65.5538 68.9967 64.3347 70.2971C64.0343 70.6176 63.501 70.3507 63.5775 69.9181C64.3199 65.717 63.7985 62.6927 61.7814 62.1775C59.4022 61.5607 57.9628 62.8825 56.3115 67.1223C56.1327 67.5814 55.4502 67.4474 55.4582 66.9548C55.533 62.3953 54.4482 59.1225 52.2507 58.9811C49.4431 58.8079 48.2937 60.8558 47.43 67.2566C47.3666 67.7263 46.7086 67.78 46.5699 67.3268C45.9609 65.3368 44.9632 63.16 43.8596 61.6188C42.5154 59.7415 41.1462 58.9372 39.8358 59.3987C37.0797 60.3664 36.9018 62.7928 38.863 69.7276C39.0011 70.2159 38.3414 70.5136 38.0666 70.0869C35.5915 66.2435 32.5223 63.6884 30.8016 64.8147C28.904 66.0475 29.1774 68.0279 31.8296 72.7529C32.0367 73.122 31.6564 73.5429 31.2683 73.3742C29.5241 72.6158 28.0503 72.7274 26.8965 73.8571C25.4534 75.2867 25.0614 76.6325 25.5522 78.3231C25.6203 78.5573 25.4855 78.8024 25.2512 78.8704C25.0169 78.9384 24.7719 78.8036 24.7039 78.5694C24.1199 76.5579 24.6085 74.8802 26.2766 73.2277C27.444 72.0847 28.8808 71.7745 30.4704 72.1687L30.5075 72.178L30.4979 72.1599C29.4739 70.2347 28.9175 68.8334 28.746 67.6773L28.7376 67.6187C28.523 66.0647 29.03 64.9122 30.3191 64.0747C31.6384 63.2112 33.26 63.6956 35.014 65.1557C35.8005 65.8105 36.6042 66.6584 37.3538 67.59L37.3917 67.6374L37.306 67.283C36.8036 65.1714 36.6064 63.6582 36.6868 62.435L36.6908 62.3783C36.8339 60.4257 37.7384 59.1988 39.5427 58.5653C41.32 57.9394 43.0314 58.9447 44.5779 61.1044C45.401 62.2539 46.1598 63.7199 46.7583 65.213L46.8191 65.3661L46.8252 65.3295C47.2106 63.0266 47.6586 61.4603 48.2775 60.3349L48.3058 60.2841Z" fill="#2F4077"/>
<path fill-rule="evenodd" clip-rule="evenodd" d="M58.4455 77.813C58.6895 77.8122 58.8879 78.0093 58.8886 78.2533C58.8894 78.4885 58.7061 78.6814 58.4743 78.6956L58.4483 78.6964L25.8805 78.7992L25.8592 78.8036C23.8885 79.2242 22.5548 81.1894 22.8459 83.2763L22.8554 83.3403L26.0209 103.776C26.0582 104.017 25.8931 104.243 25.652 104.28C25.4195 104.316 25.2014 104.164 25.1526 103.937L25.1479 103.911L21.9824 83.4756C21.5795 80.881 23.2544 78.4136 25.7497 77.9243C25.7681 77.9207 25.7866 77.9183 25.8053 77.917L25.8333 77.9161L58.4455 77.813Z" fill="#2F4077"/>
<path fill-rule="evenodd" clip-rule="evenodd" d="M94.4371 56.1064C94.6752 56.0533 94.9113 56.2032 94.9644 56.4413C95.0176 56.6794 94.8676 56.9155 94.6295 56.9686C91.0719 57.7623 87.3811 58.8677 83.6143 60.2499C79.1847 61.885 73.9289 65.3021 68.0774 70.1471C63.4108 74.0111 58.5939 78.5888 53.8176 83.552C53.7423 83.6302 53.6409 83.6779 53.5327 83.6861C43.4264 84.4513 35.7294 91.2921 36.1839 99.0326C36.2806 100.677 36.7437 102.266 37.546 103.768C37.6609 103.983 37.5796 104.251 37.3645 104.366C37.1493 104.481 36.8817 104.399 36.7668 104.184C35.9056 102.571 35.4064 100.859 35.302 99.0845C34.8208 90.8895 42.7594 83.7478 53.1504 82.8311L53.2969 82.819L53.4381 82.6727C58.0658 77.8789 62.7297 73.449 67.2623 69.6757L67.514 69.4667L67.8686 69.1743C73.6486 64.4257 78.8573 61.0642 83.3092 59.4209C87.112 58.0255 90.8399 56.909 94.4371 56.1064Z" fill="#2F4077"/>
<path fill-rule="evenodd" clip-rule="evenodd" d="M107.675 54.6534C113.897 54.7782 119.394 56.2178 124.036 59.0774C128.09 61.5833 132.084 65.5196 135.72 70.4749L135.804 70.5889L135.925 70.5768C136.426 70.5293 136.914 70.5021 137.391 70.4967L137.57 70.4957C139.259 70.4957 140.935 70.7428 142.553 71.2205C142.787 71.2895 142.921 71.5352 142.852 71.7691C142.783 72.0031 142.537 72.1368 142.303 72.0677C140.766 71.6138 139.173 71.3791 137.57 71.3791C136.953 71.3791 136.312 71.4185 135.647 71.494C135.488 71.512 135.333 71.4433 135.239 71.3142C131.604 66.2947 127.605 62.322 123.572 59.8292C119.073 57.0579 113.73 55.6584 107.658 55.5366C107.414 55.5317 107.22 55.3301 107.225 55.0862C107.23 54.8423 107.432 54.6485 107.675 54.6534Z" fill="#2F4077"/>
<path fill-rule="evenodd" clip-rule="evenodd" d="M154.092 82.1185C154.316 82.0222 154.576 82.1259 154.672 82.3501C155.844 85.0801 156.46 88.0445 156.46 91.1081C156.46 95.955 154.927 100.535 152.16 104.198C152.013 104.393 151.736 104.432 151.541 104.285C151.346 104.138 151.308 103.861 151.455 103.666C154.106 100.156 155.576 95.763 155.576 91.1081C155.576 88.165 154.985 85.3191 153.86 82.6986C153.764 82.4744 153.868 82.2147 154.092 82.1185Z" fill="#2F4077"/>
<path fill-rule="evenodd" clip-rule="evenodd" d="M124.834 60.1152C111.775 68.2131 100.055 68.3898 92.4575 67.0794C85.4197 65.8721 80.3401 63.163 78.6911 62.1029C78.4114 62.2648 78.1316 62.4268 77.8372 62.5888C79.1917 63.5163 84.4921 66.5788 92.1483 67.9186C94.6512 68.3603 97.1689 68.5812 99.7013 68.5812C102.278 68.5812 104.855 68.3603 107.416 67.9039C113.615 66.7996 119.725 64.3703 125.614 60.6747C125.349 60.4686 125.099 60.2919 124.834 60.1152Z" fill="#2F4077"/>
<path fill-rule="evenodd" clip-rule="evenodd" d="M123.48 74.0288C125.556 71.1136 128.117 69.4793 131.106 69.1554C132.49 69.0081 133.653 69.1995 134.345 69.3615C134.066 69.0081 133.786 68.6548 133.506 68.3161C132.829 68.2278 131.99 68.1836 131.062 68.2867C128.809 68.5222 125.541 69.6118 122.758 73.5282C122.611 73.7196 122.67 73.9993 122.861 74.1466C122.935 74.2055 123.023 74.2349 123.111 74.2349C123.259 74.2202 123.391 74.1613 123.48 74.0288Z" fill="#2F4077"/>
<path fill-rule="evenodd" clip-rule="evenodd" d="M123.789 84.8214V84.8214C124.039 84.8214 124.23 84.63 124.245 84.3945C124.274 83.0988 124.79 80.1541 126.601 77.3861C128.692 74.1617 131.783 72.1888 135.759 71.4821C135.567 71.2171 135.376 70.952 135.17 70.687C131.194 71.4968 127.985 73.6317 125.85 76.9003C124.068 79.6388 123.391 82.6424 123.347 84.365C123.347 84.6153 123.538 84.8214 123.789 84.8214Z" fill="#2F4077"/>
<path fill-rule="evenodd" clip-rule="evenodd" d="M61.2586 80.0363C59.3888 79.9627 57.5925 80.1393 56.2674 80.4191C55.8257 80.8608 55.384 81.3025 54.957 81.7442C56.5913 80.8461 65.8965 79.7271 69.7393 84.0999C69.8276 84.203 69.9454 84.2472 70.0779 84.2472C70.181 84.2472 70.284 84.2177 70.3724 84.1441C70.5491 83.9821 70.5785 83.7024 70.4166 83.5257C67.9283 80.6841 63.6144 80.1246 61.2586 80.0363Z" fill="#2F4077"/>
<path fill-rule="evenodd" clip-rule="evenodd" d="M53.205 83.2751C53.205 83.2751 53.2197 83.2751 53.2344 83.2751C53.2197 83.2604 53.205 83.2751 53.205 83.2751C53.1903 83.2751 53.205 83.2751 53.205 83.2751Z" fill="#2F4077"/>
<path fill-rule="evenodd" clip-rule="evenodd" d="M68.6793 86.7942C63.482 82.863 57.0037 82.6274 54.2651 82.7452C53.956 83.0691 53.6468 83.3783 53.3523 83.6875C54.9277 83.555 62.4513 83.2017 68.1493 87.5009C68.2229 87.5598 68.326 87.5892 68.4143 87.5892C68.5468 87.5892 68.6793 87.5303 68.7677 87.4125C68.9149 87.2211 68.8707 86.9414 68.6793 86.7942Z" fill="#2F4077"/>
<path fill-rule="evenodd" clip-rule="evenodd" d="M55.4145 92.7411C58.2015 91.4405 61.3529 91.0478 64.8748 91.7194L65.4509 91.8304C67.9049 92.3084 70.6352 92.9055 73.6832 93.6227C73.9206 93.6785 74.0678 93.9163 74.0119 94.1538C73.9561 94.3912 73.7183 94.5385 73.4808 94.4826L72.7674 94.3156C69.7799 93.6198 67.1074 93.0439 64.7094 92.5872C61.3697 91.9504 58.4068 92.3195 55.7881 93.5416C53.6108 94.5577 51.7339 96.1327 50.1409 98.1178C49.1089 99.4038 48.2579 100.784 47.5779 102.163C47.3401 102.646 47.1409 103.093 46.9789 103.493L46.9327 103.609C46.9107 103.665 46.8903 103.717 46.8715 103.767L46.8277 103.884L46.7916 103.985C46.7135 104.216 46.4628 104.34 46.2317 104.262C46.0006 104.184 45.8766 103.933 45.9548 103.702L45.9817 103.626L46.0072 103.556C46.0493 103.442 46.1001 103.31 46.1599 103.162C46.3299 102.742 46.5378 102.275 46.7855 101.773C47.4923 100.339 48.3766 98.9048 49.4519 97.5649C51.1245 95.4806 53.1045 93.8192 55.4145 92.7411Z" fill="#2F4077"/>
<path fill-rule="evenodd" clip-rule="evenodd" d="M157.094 34.2522L157.166 34.1454C158.107 32.7623 159.085 32.2943 159.928 32.9015C160.425 33.2598 160.479 34.0002 160.28 35.1772L160.251 35.3432C160.118 36.0713 159.899 36.9215 159.541 38.1579L158.957 40.1529C158.683 41.0953 158.592 41.4487 158.482 41.9527C158.43 42.191 158.194 42.3419 157.956 42.2898C157.718 42.2378 157.567 42.0023 157.619 41.764L157.661 41.5762C157.755 41.1577 157.853 40.7905 158.075 40.0201L158.664 38.01C159.058 36.655 159.284 35.7713 159.409 35.03L159.427 34.9182C159.547 34.1497 159.509 33.6885 159.412 33.6183C159.073 33.3744 158.557 33.6349 157.832 34.7374L157.767 34.8387C156.836 36.2998 155.82 38.8603 154.765 42.5539C154.698 42.7884 154.453 42.9243 154.219 42.8572C153.984 42.7902 153.848 42.5458 153.915 42.3112L153.991 42.0469C155.067 38.33 156.11 35.7493 157.094 34.2522Z" fill="#2F4077"/>
<path fill-rule="evenodd" clip-rule="evenodd" d="M164.226 40.435C164.886 39.3568 165.846 38.7521 166.616 39.0456C167.465 39.3687 167.63 40.5209 167.135 42.16L167.028 42.5073C166.9 42.9272 166.769 43.3875 166.595 44.0158L166.276 45.178C165.34 48.5541 164.647 50.2837 163.496 51.4656L163.207 51.7586C162.605 52.3698 162.103 52.8978 161.693 53.3457L161.531 53.5244C161.36 53.7131 161.221 53.872 161.11 54.0017L161.043 54.0795L160.811 54.9623L160.602 55.764C160.399 56.5456 160.18 57.4017 159.948 58.3216C159.108 61.6512 158.267 65.1348 157.483 68.6015L157.313 69.3543C156.949 70.9789 156.607 72.5614 156.289 74.0915L156.162 74.7098C155.889 76.0418 155.637 77.3242 155.409 78.5516L155.305 79.1141C153.865 86.9951 151.744 92.2634 149.028 95.145C146.599 97.7228 143.731 98.3453 140.662 97.2517C137.713 96.209 136.124 93.606 136.12 89.6341C136.116 85.4996 137.812 79.9133 141.266 72.9813L141.945 71.6241C144.696 66.1181 147.125 61.1436 149.224 56.7511L150.04 55.0368C150.544 53.9745 151.001 53.0033 151.411 52.1258L152.057 50.7387L152.48 49.8174C152.581 49.5954 152.843 49.4972 153.065 49.5982C153.279 49.6955 153.378 49.9425 153.295 50.1592L153.239 50.2824L152.78 51.2786L152.15 52.6322C151.672 53.6539 151.132 54.7993 150.53 56.0647L149.912 57.3598C147.69 62.0054 145.104 67.2939 142.161 73.1667C135.48 86.4878 135.488 94.4851 140.958 96.4192C143.704 97.398 146.202 96.8558 148.385 94.5392C150.936 91.8324 152.982 86.7861 154.393 79.1863L154.436 78.9552C154.727 77.3652 155.057 75.6802 155.424 73.9121C155.792 72.1412 156.192 70.3007 156.621 68.4065C157.363 65.1252 158.156 61.8294 158.951 58.6628L159.275 57.3818C159.425 56.7904 159.569 56.2288 159.706 55.6999L159.981 54.6456L160.215 53.7582C160.231 53.6989 160.259 53.6436 160.297 53.5958L160.358 53.5223L160.438 53.4277C160.554 53.2917 160.699 53.1268 160.875 52.9323L161.098 52.6875C161.563 52.1821 162.137 51.5815 162.831 50.8818L162.898 50.8127C163.841 49.8216 164.481 48.2753 165.306 45.3624L165.836 43.4495C165.983 42.9237 166.1 42.5177 166.218 42.1342L166.271 41.9628C166.669 40.6817 166.574 39.9747 166.302 39.8711C166.03 39.7676 165.444 40.1366 164.979 40.8963C164.852 41.1044 164.58 41.1697 164.372 41.0423C164.164 40.9149 164.098 40.643 164.226 40.435Z" fill="#2F4077"/>
<path fill-rule="evenodd" clip-rule="evenodd" d="M148.797 40.5755C148.491 39.3425 149.209 38.6869 150.758 38.8879C152.059 39.0514 153 39.6947 153.763 40.7214L153.798 40.7703C154.077 41.16 154.607 42.048 154.676 42.1497L154.68 42.1553C154.825 42.3514 154.784 42.628 154.588 42.7731C154.392 42.9182 154.115 42.8769 153.97 42.6808L153.955 42.6594C153.83 42.4734 153.279 41.5513 153.054 41.2481C152.424 40.4002 151.684 39.8946 150.647 39.7642C150.105 39.6939 149.79 39.7438 149.675 39.8492C149.606 39.9114 149.583 40.0562 149.645 40.3251L149.654 40.3626C149.807 40.9794 150.25 41.7688 151.214 43.2477L151.264 43.3235C151.715 44.0084 151.992 44.9145 152.276 46.3636L152.333 46.6626L152.506 47.5971C152.775 49.0224 152.985 49.6791 153.25 49.8761L153.263 49.8857C153.465 50.0229 153.517 50.2977 153.38 50.4994C153.243 50.701 152.968 50.7533 152.766 50.616C152.214 50.2401 151.976 49.5451 151.654 47.8479L151.455 46.7741L151.426 46.624C151.164 45.261 150.913 44.4172 150.549 43.845L150.275 43.4236C149.386 42.0442 148.971 41.2775 148.797 40.5755Z" fill="#2F4077"/>
<path fill-rule="evenodd" clip-rule="evenodd" d="M165.155 34.3395C166.304 34.2648 166.863 35.3831 166.454 36.8117L166.439 36.86C166.228 37.5756 165.881 38.5698 165.428 39.7779L165.348 39.9933C165.285 40.1593 165.221 40.3284 165.155 40.5002C164.868 41.2512 164.563 42.0282 164.256 42.7964L164.005 43.4227L163.744 44.0648L163.656 44.2795C163.563 44.5051 163.305 44.6125 163.079 44.5195C162.862 44.4299 162.754 44.1866 162.83 43.9671L163.186 43.0919C163.224 42.996 163.264 42.8972 163.305 42.7957C163.611 42.0345 163.917 41.2597 164.207 40.5064L164.395 40.0152L164.521 39.6817C164.993 38.4305 165.355 37.4004 165.574 36.6695L165.593 36.6076C165.875 35.6694 165.642 35.1931 165.213 35.221C164.576 35.2624 163.757 36.1201 163.223 37.6328C163.141 37.8628 162.889 37.9834 162.659 37.9021C162.429 37.8208 162.308 37.5685 162.39 37.3385C163.029 35.5279 164.099 34.4081 165.155 34.3395Z" fill="#2F4077"/>
<path fill-rule="evenodd" clip-rule="evenodd" d="M160.374 34.251C161.26 32.5384 162.16 31.8406 163.238 32.3273C164.347 32.8281 164.137 34.7399 163.145 37.8622C162.976 38.3925 162.787 38.946 162.58 39.5165C162.314 40.2529 162.03 40.9851 161.745 41.687L161.637 41.9487C161.537 42.1916 161.444 42.415 161.358 42.6155L161.208 42.9644C161.109 43.1875 160.848 43.2885 160.625 43.1899C160.402 43.0913 160.301 42.8305 160.4 42.6074L160.515 42.3418L160.61 42.1168C160.676 41.9605 160.747 41.7919 160.821 41.6124C161.137 40.8428 161.454 40.0312 161.75 39.2156C161.953 38.6557 162.138 38.1131 162.303 37.5948L162.375 37.3645C163.118 34.9578 163.286 33.318 162.875 33.1324C162.363 32.9017 161.819 33.343 161.101 34.7705L161.018 34.9371C160.357 36.295 159.65 38.2772 158.456 41.9934C158.381 42.2257 158.133 42.3534 157.9 42.2788C157.668 42.2042 157.54 41.9554 157.615 41.7232L157.872 40.9281C158.963 37.5633 159.633 35.7325 160.29 34.4163L160.374 34.251Z" fill="#2F4077"/>
<path fill-rule="evenodd" clip-rule="evenodd" d="M106.409 48.2555C106.64 48.2126 106.862 48.3584 106.918 48.5839L106.923 48.6093L108.813 58.7945C108.819 58.8282 108.825 58.8722 108.831 58.926C108.939 59.8691 108.718 60.9812 107.905 62.0389C106.788 63.4943 104.749 64.5103 101.615 64.9258C97.7761 65.4401 95.5418 64.4487 94.645 62.4436C94.2778 61.6225 94.1937 60.7699 94.2662 60.0219L94.2756 59.9348C94.2777 59.9175 94.2797 59.9018 94.2817 59.8876L93.8571 52.2036C93.8437 51.9601 94.0302 51.7517 94.2738 51.7382C94.5087 51.7253 94.7108 51.8983 94.737 52.129L94.7392 52.1549L95.1662 59.8847C95.1674 59.9069 95.1669 59.9291 95.1648 59.9512L95.1521 60.045C95.15 60.0626 95.1478 60.0834 95.1455 60.1072C95.0864 60.7158 95.1562 61.4228 95.4515 62.0829C96.1735 63.6974 98.019 64.5163 101.499 64.0501C104.417 63.6632 106.243 62.7532 107.205 61.5008C107.861 60.6466 108.037 59.7596 107.953 59.0259L107.946 58.9669L107.939 58.9295L106.055 48.7704C106.01 48.5305 106.169 48.3 106.409 48.2555Z" fill="#2F4077"/>
<path fill-rule="evenodd" clip-rule="evenodd" d="M109.547 32.1599C110.419 31.9538 111.319 31.8799 112.173 32.0191C114.254 32.3581 115.567 33.8803 115.676 36.792C115.768 39.2908 114.854 40.874 113.197 41.6207C112.058 42.1337 110.719 42.1977 109.426 42.0006C109.185 41.9639 109.019 41.7386 109.056 41.4974C109.093 41.2563 109.318 41.0906 109.559 41.1273C110.699 41.301 111.881 41.2446 112.834 40.8153C114.153 40.2209 114.873 38.9747 114.793 36.8249L114.787 36.6752C114.659 34.2826 113.659 33.1562 112.031 32.891C111.308 32.7732 110.519 32.838 109.75 33.0196C109.602 33.0548 109.464 33.092 109.341 33.1294L109.28 33.148C109.235 33.1622 109.198 33.1744 109.169 33.1841L109.118 33.2023C108.89 33.2881 108.635 33.1725 108.549 32.9442C108.463 32.7158 108.579 32.4611 108.807 32.3753L108.864 32.3546C109.018 32.3005 109.251 32.2299 109.547 32.1599Z" fill="#2F4077"/>
<path fill-rule="evenodd" clip-rule="evenodd" d="M103.751 22.4678H93.3853C88.9599 22.4678 85.3611 26.0666 85.3611 30.492V40.8278C85.3611 47.6089 90.8592 53.1071 97.6404 53.1071L97.8401 53.1055C104.549 52.9966 109.934 47.5234 109.934 40.8131V28.6516C109.934 25.2421 107.16 22.4678 103.751 22.4678ZM93.3855 23.3513H103.751C106.672 23.3513 109.051 25.7302 109.051 28.6517V40.8132C109.051 47.0413 104.052 52.1213 97.8295 52.2223L97.6369 52.2239C91.3473 52.2238 86.2446 47.1212 86.2446 40.828V30.4922C86.2446 26.5547 89.448 23.3513 93.3855 23.3513Z" fill="#2F4077"/>
<path fill-rule="evenodd" clip-rule="evenodd" d="M112.246 46.4229C112.231 42.4034 111.672 39.4735 111.524 38.7373C111.524 38.6931 111.539 38.6343 111.539 38.5901C111.539 37.6625 110.788 36.9116 109.861 36.9116L109.905 40.2685C110.258 40.2538 110.582 40.136 110.847 39.9446C111.392 43.331 112.467 53.4312 107.932 62.0149C107.107 63.5903 106.327 65.048 105.561 66.4467C101.292 74.412 98.4647 79.683 98.5383 84.3797C98.5383 84.6153 98.7444 84.8214 98.98 84.8214V84.8214C99.2303 84.8214 99.4217 84.6153 99.4217 84.3797C99.3628 79.9038 102.145 74.7212 106.342 66.8737C107.093 65.4602 107.873 64.0173 108.712 62.4272C111.672 56.8176 112.275 50.6338 112.246 46.4229Z" fill="#E4794A"/>
<path fill-rule="evenodd" clip-rule="evenodd" d="M84.6542 40.4598C84.8604 40.5776 85.0812 40.6512 85.3315 40.6659V37.3237C84.5512 37.3973 83.9328 37.9863 83.8297 38.7519C83.7856 38.8255 83.7561 38.9139 83.7561 39.0022C83.7561 39.6795 83.7561 55.5365 88.4676 62.6921C93.2821 70.0243 94.7692 74.2057 95.1078 81.3024C95.1225 81.538 95.3139 81.7294 95.5495 81.7294H95.5642C95.8145 81.7147 95.9912 81.5085 95.9912 81.273C95.6526 73.9702 94.1361 69.7004 89.2037 62.2062C85.4346 56.4935 84.772 44.5971 84.6542 40.4598Z" fill="#E4794A"/>
<path fill-rule="evenodd" clip-rule="evenodd" d="M94.0109 33.275C94.2461 33.271 94.4414 33.4516 94.4588 33.6832L94.46 33.7091L94.6186 43.0561L94.6256 43.0587C94.6576 43.0691 94.693 43.0668 94.7417 43.0489L94.7634 43.0402C94.9904 42.9431 95.2896 42.6145 95.6331 41.9856C95.75 41.7715 96.0183 41.6927 96.2324 41.8096C96.4465 41.9265 96.5253 42.1949 96.4084 42.409C95.6014 43.8867 94.7331 44.2582 94.0395 43.734C93.9364 43.6562 93.864 43.5761 93.8177 43.5096C93.7739 43.4466 93.7474 43.3735 93.7405 43.2976L93.7387 43.2648L93.5767 33.7241C93.5726 33.4802 93.767 33.2791 94.0109 33.275Z" fill="#2F4077"/>
<path fill-rule="evenodd" clip-rule="evenodd" d="M98.6647 44.4483C98.9111 44.2871 99.2433 44.4075 99.3291 44.6892L99.3394 44.7257C99.3502 44.7665 99.3622 44.8201 99.3736 44.8853C99.4645 45.403 99.4152 45.9756 99.1192 46.5239C98.626 47.4375 97.56 48.0331 95.8432 48.2022C95.6004 48.2261 95.3842 48.0486 95.3603 47.8059C95.3364 47.5631 95.5138 47.3469 95.7566 47.323C97.2023 47.1806 98.0019 46.7338 98.3418 46.1042C98.4256 45.949 98.4786 45.788 98.5064 45.6274L98.5159 45.565L98.5025 45.5724C96.5825 46.6064 94.6645 46.6753 93.714 45.612L93.6823 45.5757C93.524 45.3901 93.5461 45.1113 93.7317 44.953C93.9173 44.7947 94.1961 44.8168 94.3544 45.0024C95.0378 45.8036 96.8465 45.6381 98.6647 44.4483Z" fill="#2F4077"/>
<path fill-rule="evenodd" clip-rule="evenodd" d="M98.033 29.8288C98.9968 29.0958 100.141 29.0175 101.375 29.9992C101.566 30.151 101.598 30.4289 101.446 30.6198C101.294 30.8107 101.016 30.8424 100.825 30.6905C99.9323 29.9801 99.2302 30.0282 98.5678 30.532C98.4783 30.6001 98.3984 30.6698 98.3121 30.7526L98.1499 30.9129C98.1271 30.9348 98.1078 30.9524 98.0871 30.9692C98.0301 31.0153 97.9804 31.0464 97.8946 31.0678C97.658 31.127 97.4182 30.9831 97.359 30.7464C97.3146 30.5689 97.3845 30.3897 97.522 30.2862L97.5412 30.2724L97.6379 30.1763C97.7702 30.0453 97.8904 29.9373 98.033 29.8288Z" fill="#2F4077"/>
<path fill-rule="evenodd" clip-rule="evenodd" d="M101.1 37.6624C101.507 37.6624 101.836 37.1548 101.836 36.5287C101.836 35.9026 101.507 35.395 101.1 35.395C100.694 35.395 100.364 35.9026 100.364 36.5287C100.364 37.1548 100.694 37.6624 101.1 37.6624Z" fill="#2F4077"/>
<path fill-rule="evenodd" clip-rule="evenodd" d="M90.3966 37.9422C90.8031 37.9422 91.1327 37.4346 91.1327 36.8085C91.1327 36.1824 90.8031 35.6748 90.3966 35.6748C89.99 35.6748 89.6604 36.1824 89.6604 36.8085C89.6604 37.4346 89.99 37.9422 90.3966 37.9422Z" fill="#2F4077"/>
<path fill-rule="evenodd" clip-rule="evenodd" d="M88.3431 29.6896C89.4457 28.8101 90.6547 28.7687 91.7166 30.1325C91.8665 30.325 91.8319 30.6025 91.6394 30.7524C91.447 30.9023 91.1694 30.8677 91.0196 30.6752C90.3027 29.7546 89.6503 29.7769 88.894 30.3802C88.7917 30.4618 88.6993 30.5451 88.5971 30.6451L88.4236 30.8183C88.4002 30.8411 88.3807 30.8592 88.3604 30.876C88.3001 30.9262 88.253 30.957 88.1625 30.9796C87.9258 31.0388 87.686 30.8949 87.6268 30.6582C87.5824 30.4807 87.6523 30.3015 87.7898 30.198L87.8068 30.1858L87.9205 30.0719C88.0655 29.9269 88.1938 29.8087 88.3431 29.6896Z" fill="#2F4077"/>
<path fill-rule="evenodd" clip-rule="evenodd" d="M100.599 20.3331C97.7284 20.3773 95.5493 20.5098 94.2537 20.7601V20.7601C83.7118 23.16 85.4197 30.9634 85.4197 30.9634C85.4197 30.9634 90.5728 31.9499 94.769 25.7366C94.769 25.7366 100.526 30.4333 109.051 32.3327C109.183 32.3032 109.345 32.259 109.492 32.2149V32.6418C109.993 32.5093 110.803 32.3621 111.642 32.421C111.554 29.3438 110.994 25.4568 108.462 22.9539C106.665 21.1724 104.015 20.289 100.599 20.3331Z" fill="#2F4077"/>
<path fill-rule="evenodd" clip-rule="evenodd" d="M128.265 13.9283C124.628 3.53358 114.322 -2.3116 105.237 0.868647C97.7726 3.47468 93.4586 11.3811 94.1654 19.8765C95.5346 19.6409 97.6842 19.4937 100.599 19.4495C104.266 19.4054 107.122 20.3624 109.095 22.3206C111.892 25.0886 112.466 29.2847 112.54 32.5533C113.895 32.9214 115.146 34.0257 115.249 36.8084C115.264 37.0881 115.014 39.2524 115.073 39.2377C115.073 39.9297 115.22 40.7984 115.735 41.6524C116.751 43.2866 118.812 44.3026 121.875 44.6559C121.889 44.6559 121.904 44.6559 121.934 44.6559C122.154 44.6559 122.346 44.494 122.375 44.2731C122.405 44.0375 122.228 43.8167 121.993 43.7872C119.225 43.4633 117.369 42.5946 116.501 41.1959C116.147 40.6364 116.015 40.0622 115.971 39.5616C116.722 40.445 118.032 41.4021 120.108 41.4021C120.609 41.4021 121.153 41.3432 121.742 41.2254C121.978 41.1812 122.14 40.9456 122.081 40.7101C122.037 40.4745 121.801 40.3125 121.566 40.3714C118.886 40.9309 117.399 39.915 116.618 39.0021C117.222 38.8696 117.811 38.7077 118.4 38.5016C127.47 35.3066 131.887 24.3082 128.265 13.9283Z" fill="#2F4077"/>
<path fill-rule="evenodd" clip-rule="evenodd" d="M101.734 30.979C98.5137 30.979 95.9033 33.5894 95.9033 36.8095C95.9033 40.0295 98.5137 42.6399 101.734 42.6399C104.954 42.6399 107.564 40.0295 107.564 36.8095C107.564 33.5894 104.954 30.979 101.734 30.979ZM101.734 31.8624C104.466 31.8624 106.681 34.0773 106.681 36.8095C106.681 39.5416 104.466 41.7565 101.734 41.7565C99.0016 41.7565 96.7867 39.5416 96.7867 36.8095C96.7867 34.0773 99.0016 31.8624 101.734 31.8624Z" fill="#2F4077"/>
<path fill-rule="evenodd" clip-rule="evenodd" d="M96.2271 36.2349C96.4711 36.2349 96.6688 36.4326 96.6688 36.6766C96.6688 36.9118 96.4849 37.1041 96.2531 37.1175L96.2271 37.1183H92.723C92.479 37.1183 92.2812 36.9205 92.2812 36.6766C92.2812 36.4413 92.4651 36.249 92.697 36.2356L92.723 36.2349H96.2271Z" fill="#2F4077"/>
<path fill-rule="evenodd" clip-rule="evenodd" d="M109.275 32.0958C109.488 31.9758 109.757 32.0506 109.877 32.263C109.993 32.4675 109.928 32.725 109.733 32.8509L109.71 32.8649L106.662 34.5875C106.45 34.7075 106.18 34.6327 106.06 34.4203C105.945 34.2158 106.01 33.9584 106.205 33.8324L106.228 33.8185L109.275 32.0958Z" fill="#2F4077"/>
<path fill-rule="evenodd" clip-rule="evenodd" d="M87.1576 30.979C83.9375 30.979 81.3271 33.5894 81.3271 36.8095C81.3271 40.0295 83.9375 42.6399 87.1576 42.6399C90.3777 42.6399 92.988 40.0295 92.988 36.8095C92.988 33.5894 90.3777 30.979 87.1576 30.979ZM87.1576 31.8624C89.8898 31.8624 92.1046 34.0773 92.1046 36.8095C92.1046 39.5416 89.8898 41.7565 87.1576 41.7565C84.4254 41.7565 82.2106 39.5416 82.2106 36.8095C82.2106 34.0773 84.4254 31.8624 87.1576 31.8624Z" fill="#2F4077"/>
<path fill-rule="evenodd" clip-rule="evenodd" d="M124.216 98.3231H121.154L119.652 76.0466C119.549 74.4859 118.194 73.2197 116.634 73.2197H73.9506C72.39 73.2197 71.1974 74.4859 71.3152 76.0466L72.9789 100.708C73.082 102.269 74.4365 103.535 75.9972 103.535L124.201 103.476C125.085 103.476 125.792 102.755 125.792 101.886V99.9279C125.806 99.0445 125.1 98.3231 124.216 98.3231ZM97.6553 82.3041C96.8896 84.3212 95.1523 83.7028 95.1523 83.7028C95.4615 81.8624 97.6553 82.3041 97.6553 82.3041ZM97.8908 92.1835C96.3596 93.1405 94.0628 92.7871 92.7524 91.4031C91.442 90.0191 91.6334 88.1198 93.1794 87.1628C93.4149 87.0156 93.6652 86.9125 93.9303 86.8242C93.6358 86.515 93.4738 86.088 93.518 85.6316C93.5622 85.131 93.8419 84.7335 94.2395 84.5273C94.0628 83.8648 93.783 82.9961 93.5475 82.7164C93.4149 82.5544 93.4297 82.3483 93.6064 82.2452C93.7683 82.1421 94.0186 82.201 94.1658 82.363C94.5192 82.79 94.8284 83.7912 94.9903 84.3948C95.0051 84.3948 95.0198 84.3948 95.0345 84.3948C95.8001 84.5126 96.3743 85.234 96.3007 86.0438C96.2713 86.3089 96.1829 86.5297 96.0504 86.7211C96.9044 86.8978 97.7142 87.31 98.3178 87.9431C99.6135 89.3419 99.4221 91.2412 97.8908 92.1835Z" fill="#E4794A"/>
<path fill-rule="evenodd" clip-rule="evenodd" d="M180.297 103.535C180.541 103.535 180.739 103.732 180.739 103.976C180.739 104.212 180.555 104.404 180.323 104.417L180.297 104.418H0.804982C0.561037 104.418 0.363281 104.22 0.363281 103.976C0.363281 103.741 0.547164 103.549 0.779029 103.535L0.804982 103.535H180.297Z" fill="#2F4077"/>
</svg>
