<svg xmlns="http://www.w3.org/2000/svg" width="202" height="101" viewBox="0 0 202 101" fill="none">
  <path fill-rule="evenodd" clip-rule="evenodd" d="M145.223 100.464H56.6132C54.5469 100.464 52.876 98.7934 52.876 96.7271V4.8393C52.876 2.77297 54.5469 1.10205 56.6132 1.10205H145.223C147.289 1.10205 148.96 2.77297 148.96 4.8393V96.7271C148.96 98.7934 147.289 100.464 145.223 100.464Z" fill="#FAA184"/>
  <path fill-rule="evenodd" clip-rule="evenodd" d="M60.7841 1.16553C60.9954 1.16553 61.1667 1.33685 61.1667 1.54818C61.1667 1.75951 60.9954 1.93083 60.7841 1.93083C59.1662 1.93083 57.8514 3.28431 57.8253 4.97887L57.8249 5.03032V96.6375C57.8249 96.8488 57.6536 97.0201 57.4422 97.0201C57.2384 97.0201 57.0719 96.8608 57.0602 96.6599L57.0596 96.6375V5.03032C57.0596 2.89604 58.72 1.16553 60.7841 1.16553Z" fill="white"/>
  <path fill-rule="evenodd" clip-rule="evenodd" d="M89.828 0.910645C90.0318 0.910645 90.1983 1.06995 90.21 1.27081L90.2106 1.2933V86.0765C90.2106 86.2878 90.0393 86.4591 89.828 86.4591C89.6242 86.4591 89.4576 86.2998 89.446 86.0989L89.4453 86.0765V1.2933C89.4453 1.08196 89.6166 0.910645 89.828 0.910645Z" fill="white"/>
  <path fill-rule="evenodd" clip-rule="evenodd" d="M109.597 9.90294H108.908C108.551 9.90294 108.271 9.62233 108.271 9.26519V7.91315C108.271 7.556 108.551 7.27539 108.908 7.27539H109.597C109.954 7.27539 110.235 7.556 110.235 7.91315V9.26519C110.235 9.60957 109.941 9.90294 109.597 9.90294Z" fill="white"/>
  <path fill-rule="evenodd" clip-rule="evenodd" d="M106.881 9.90294H94.6612C94.304 9.90294 94.0234 9.62233 94.0234 9.26519V7.91315C94.0234 7.556 94.304 7.27539 94.6612 7.27539H106.881C107.238 7.27539 107.518 7.556 107.518 7.91315V9.26519C107.518 9.60957 107.225 9.90294 106.881 9.90294Z" fill="white"/>
  <path fill-rule="evenodd" clip-rule="evenodd" d="M108.105 22.11H94.6612C94.304 22.11 94.0234 21.8294 94.0234 21.4722V20.1202C94.0234 19.763 94.304 19.4824 94.6612 19.4824H108.105C108.462 19.4824 108.743 19.763 108.743 20.1202V21.4722C108.743 21.8294 108.449 22.11 108.105 22.11Z" fill="white"/>
  <path fill-rule="evenodd" clip-rule="evenodd" d="M119.929 18.0406H98.3731C98.016 18.0406 97.7354 17.76 97.7354 17.4029V16.0508C97.7354 15.6937 98.016 15.4131 98.3731 15.4131H119.929C120.286 15.4131 120.567 15.6937 120.567 16.0508V17.4029C120.567 17.76 120.286 18.0406 119.929 18.0406Z" fill="white"/>
  <path fill-rule="evenodd" clip-rule="evenodd" d="M131.575 18.0406H122.493C122.136 18.0406 121.855 17.76 121.855 17.4029V16.0508C121.855 15.6937 122.136 15.4131 122.493 15.4131H131.575C131.932 15.4131 132.213 15.6937 132.213 16.0508V17.4029C132.213 17.76 131.919 18.0406 131.575 18.0406Z" fill="white"/>
  <path fill-rule="evenodd" clip-rule="evenodd" d="M141.409 32.8619H140.72C140.363 32.8619 140.082 32.5813 140.082 32.2242V30.8721C140.082 30.515 140.363 30.2344 140.72 30.2344H141.409C141.766 30.2344 142.046 30.515 142.046 30.8721V32.2242C142.046 32.5813 141.766 32.8619 141.409 32.8619Z" fill="white"/>
  <path fill-rule="evenodd" clip-rule="evenodd" d="M137.276 36.9947H136.587C136.23 36.9947 135.949 36.7141 135.949 36.357V35.0049C135.949 34.6478 136.23 34.3672 136.587 34.3672H137.276C137.633 34.3672 137.913 34.6478 137.913 35.0049V36.357C137.913 36.7141 137.62 36.9947 137.276 36.9947Z" fill="white"/>
  <path fill-rule="evenodd" clip-rule="evenodd" d="M116.983 13.9723H94.6612C94.304 13.9723 94.0234 13.6917 94.0234 13.3345V11.9825C94.0234 11.6253 94.304 11.3447 94.6612 11.3447H116.995C117.353 11.3447 117.633 11.6253 117.633 11.9825V13.3345C117.62 13.6917 117.34 13.9723 116.983 13.9723Z" fill="white"/>
  <path fill-rule="evenodd" clip-rule="evenodd" d="M123.96 9.90294H111.74C111.383 9.90294 111.103 9.62233 111.103 9.26519V7.91315C111.103 7.556 111.383 7.27539 111.74 7.27539H123.96C124.317 7.27539 124.597 7.556 124.597 7.91315V9.26519C124.597 9.60957 124.304 9.90294 123.96 9.90294Z" fill="white"/>
  <path fill-rule="evenodd" clip-rule="evenodd" d="M133.691 13.985H119.316C118.959 13.985 118.679 13.7044 118.679 13.3473V11.9825C118.679 11.6253 118.959 11.3447 119.316 11.3447H133.691C134.049 11.3447 134.329 11.6253 134.329 11.9825V13.3473C134.329 13.6917 134.049 13.985 133.691 13.985Z" fill="white"/>
  <path fill-rule="evenodd" clip-rule="evenodd" d="M106.881 32.8375H94.6612C94.304 32.8375 94.0234 32.5569 94.0234 32.1998V30.8477C94.0234 30.4906 94.304 30.21 94.6612 30.21H106.881C107.238 30.21 107.518 30.4906 107.518 30.8477V32.1998C107.518 32.5569 107.225 32.8375 106.881 32.8375Z" fill="white"/>
  <path fill-rule="evenodd" clip-rule="evenodd" d="M133.538 40.9879H122.48C122.122 40.9879 121.842 40.7073 121.842 40.3501V38.9981C121.842 38.641 122.122 38.3604 122.48 38.3604H133.538C133.895 38.3604 134.176 38.641 134.176 38.9981V40.3501C134.176 40.6945 133.895 40.9879 133.538 40.9879Z" fill="white"/>
  <path fill-rule="evenodd" clip-rule="evenodd" d="M116.983 36.9059H94.6612C94.304 36.9059 94.0234 36.6253 94.0234 36.2681V34.9161C94.0234 34.5589 94.304 34.2783 94.6612 34.2783H116.995C117.353 34.2783 117.633 34.5589 117.633 34.9161V36.2681C117.62 36.6253 117.34 36.9059 116.983 36.9059Z" fill="white"/>
  <path fill-rule="evenodd" clip-rule="evenodd" d="M123.959 32.8375H108.908C108.551 32.8375 108.271 32.5569 108.271 32.1998V30.8477C108.271 30.4906 108.551 30.21 108.908 30.21H123.959C124.316 30.21 124.597 30.4906 124.597 30.8477V32.1998C124.597 32.5569 124.304 32.8375 123.959 32.8375Z" fill="white"/>
  <path fill-rule="evenodd" clip-rule="evenodd" d="M138.501 32.8375H126.281C125.924 32.8375 125.644 32.5569 125.644 32.1998V30.8477C125.644 30.4906 125.924 30.21 126.281 30.21H138.501C138.858 30.21 139.138 30.4906 139.138 30.8477V32.1998C139.138 32.5569 138.845 32.8375 138.501 32.8375Z" fill="white"/>
  <path fill-rule="evenodd" clip-rule="evenodd" d="M109.597 28.8961H108.908C108.551 28.8961 108.271 28.6155 108.271 28.2583V26.9063C108.271 26.5492 108.551 26.2686 108.908 26.2686H109.597C109.954 26.2686 110.235 26.5492 110.235 26.9063V28.2583C110.235 28.6155 109.941 28.8961 109.597 28.8961Z" fill="white"/>
  <path fill-rule="evenodd" clip-rule="evenodd" d="M106.881 28.8961H94.6612C94.304 28.8961 94.0234 28.6155 94.0234 28.2583V26.9063C94.0234 26.5492 94.304 26.2686 94.6612 26.2686H106.881C107.238 26.2686 107.518 26.5492 107.518 26.9063V28.2583C107.518 28.6155 107.225 28.8961 106.881 28.8961Z" fill="white"/>
  <path fill-rule="evenodd" clip-rule="evenodd" d="M123.96 28.8961H111.74C111.383 28.8961 111.103 28.6155 111.103 28.2583V26.9063C111.103 26.5492 111.383 26.2686 111.74 26.2686H123.96C124.317 26.2686 124.597 26.5492 124.597 26.9063V28.2583C124.597 28.6155 124.304 28.8961 123.96 28.8961Z" fill="white"/>
  <path fill-rule="evenodd" clip-rule="evenodd" d="M134.699 36.9186H119.329C118.972 36.9186 118.691 36.638 118.691 36.2809V34.9161C118.691 34.5589 118.972 34.2783 119.329 34.2783H134.699C135.056 34.2783 135.337 34.5589 135.337 34.9161V36.2809C135.337 36.638 135.043 36.9186 134.699 36.9186Z" fill="white"/>
  <path fill-rule="evenodd" clip-rule="evenodd" d="M79.4575 34.3033H65.1973C64.8402 34.3033 64.5596 34.0227 64.5596 33.6656V32.3135C64.5596 31.9564 64.8402 31.6758 65.1973 31.6758H79.4575C79.8147 31.6758 80.0953 31.9564 80.0953 32.3135V33.6656C80.0953 34.0227 79.8147 34.3033 79.4575 34.3033Z" fill="white"/>
  <path fill-rule="evenodd" clip-rule="evenodd" d="M67.7356 30.4772H65.1973C64.8402 30.4772 64.5596 30.1965 64.5596 29.8394V28.4874C64.5596 28.1302 64.8402 27.8496 65.1973 27.8496H67.7356C68.0927 27.8496 68.3733 28.1302 68.3733 28.4874V29.8394C68.3733 30.1965 68.0927 30.4772 67.7356 30.4772Z" fill="white"/>
  <path fill-rule="evenodd" clip-rule="evenodd" d="M72.7101 25.9879H65.1973C64.8402 25.9879 64.5596 25.7073 64.5596 25.3501V23.9981C64.5596 23.641 64.8402 23.3604 65.1973 23.3604H72.7101C73.0672 23.3604 73.3478 23.641 73.3478 23.9981V25.3501C73.3478 25.7073 73.0545 25.9879 72.7101 25.9879Z" fill="white"/>
  <path fill-rule="evenodd" clip-rule="evenodd" d="M75.5162 22.0592H65.1973C64.8402 22.0592 64.5596 21.7786 64.5596 21.4214V20.0694C64.5596 19.7123 64.8402 19.4316 65.1973 19.4316H75.5162C75.8733 19.4316 76.154 19.7123 76.154 20.0694V21.4214C76.154 21.7786 75.8733 22.0592 75.5162 22.0592Z" fill="white"/>
  <path fill-rule="evenodd" clip-rule="evenodd" d="M72.7101 18.067H65.1973C64.8402 18.067 64.5596 17.7864 64.5596 17.4292V16.0772C64.5596 15.7201 64.8402 15.4395 65.1973 15.4395H72.7101C73.0672 15.4395 73.3478 15.7201 73.3478 16.0772V17.4292C73.3478 17.7864 73.0545 18.067 72.7101 18.067Z" fill="white"/>
  <path fill-rule="evenodd" clip-rule="evenodd" d="M69.6871 13.8443H65.1973C64.8402 13.8443 64.5596 13.5637 64.5596 13.2066V11.8546C64.5596 11.4974 64.8402 11.2168 65.1973 11.2168H69.6871C70.0443 11.2168 70.3249 11.4974 70.3249 11.8546V13.2066C70.3249 13.5637 70.0315 13.8443 69.6871 13.8443Z" fill="white"/>
  <path fill-rule="evenodd" clip-rule="evenodd" d="M72.8889 13.8443H71.8047C71.5751 13.8443 71.3838 13.653 71.3838 13.4234V11.6377C71.3838 11.4081 71.5751 11.2168 71.8047 11.2168H72.8889C73.1185 11.2168 73.3098 11.4081 73.3098 11.6377V13.4234C73.3098 13.653 73.1185 13.8443 72.8889 13.8443Z" fill="white"/>
  <path fill-rule="evenodd" clip-rule="evenodd" d="M75.8098 18.0152H74.7256C74.496 18.0152 74.3047 17.8239 74.3047 17.5943V15.8086C74.3047 15.579 74.496 15.3877 74.7256 15.3877H75.8098C76.0394 15.3877 76.2307 15.579 76.2307 15.8086V17.5943C76.2307 17.8367 76.0394 18.0152 75.8098 18.0152Z" fill="white"/>
  <path fill-rule="evenodd" clip-rule="evenodd" d="M78.9211 22.0719H77.8369C77.6073 22.0719 77.416 21.8806 77.416 21.651V19.8653C77.416 19.6357 77.6073 19.4443 77.8369 19.4443H78.9211C79.1507 19.4443 79.342 19.6357 79.342 19.8653V21.651C79.342 21.8806 79.1507 22.0719 78.9211 22.0719Z" fill="white"/>
  <path fill-rule="evenodd" clip-rule="evenodd" d="M75.8987 26.026H74.8145C74.5849 26.026 74.3936 25.8347 74.3936 25.6051V23.8194C74.3936 23.5898 74.5849 23.3984 74.8145 23.3984H75.8987C76.1282 23.3984 76.3196 23.5898 76.3196 23.8194V25.6051C76.3196 25.8347 76.141 26.026 75.8987 26.026Z" fill="white"/>
  <path fill-rule="evenodd" clip-rule="evenodd" d="M70.8098 30.4772H69.7256C69.496 30.4772 69.3047 30.2858 69.3047 30.0562V28.2705C69.3047 28.0409 69.496 27.8496 69.7256 27.8496H70.8098C71.0394 27.8496 71.2307 28.0409 71.2307 28.2705V30.0562C71.2307 30.2986 71.0394 30.4772 70.8098 30.4772Z" fill="white"/>
  <path fill-rule="evenodd" clip-rule="evenodd" d="M82.2893 34.3033H81.2051C80.9755 34.3033 80.7842 34.112 80.7842 33.8824V32.0967C80.7842 31.8671 80.9755 31.6758 81.2051 31.6758H82.2893C82.5189 31.6758 82.7102 31.8671 82.7102 32.0967V33.8824C82.7102 34.112 82.5189 34.3033 82.2893 34.3033Z" fill="white"/>
  <path fill-rule="evenodd" clip-rule="evenodd" d="M74.3808 9.62267H65.0313C64.6742 9.62267 64.3936 9.34206 64.3936 8.98491V7.63287C64.3936 7.27573 64.6742 6.99512 65.0313 6.99512H74.3808C74.7379 6.99512 75.0186 7.27573 75.0186 7.63287V8.98491C75.0186 9.3293 74.7379 9.62267 74.3808 9.62267Z" fill="white"/>
  <rect x="17.6973" y="67.5439" width="38.0612" height="32.8189" fill="white"/>
  <path fill-rule="evenodd" clip-rule="evenodd" d="M55.7583 67.1611H17.6971C17.4858 67.1611 17.3145 67.3325 17.3145 67.5438V100.363C17.3145 100.574 17.4858 100.745 17.6971 100.745H55.7583C55.9697 100.745 56.141 100.574 56.141 100.363V67.5438C56.141 67.3325 55.9697 67.1611 55.7583 67.1611ZM55.3755 67.9264V99.98H18.0796V67.9264H55.3755Z" fill="#2F4077"/>
  <path fill-rule="evenodd" clip-rule="evenodd" d="M68.5391 36.2942C68.5391 36.2942 70.9243 35.6437 72.2891 34.3554C73.0926 33.5774 74.1386 32.5442 74.113 32.1998C74.0748 31.5621 72.7355 32.5442 72.5187 32.6717" fill="white"/>
  <path fill-rule="evenodd" clip-rule="evenodd" d="M73.5276 32.5038L73.4799 32.5285C73.4202 32.56 73.3576 32.5951 73.292 32.6337L73.2084 32.6839C73.0441 32.7851 72.7288 32.9917 72.7126 33.0012C72.5305 33.1084 72.2959 33.0476 72.1888 32.8654C72.0856 32.69 72.1382 32.466 72.3048 32.354L72.6369 32.1393C72.7147 32.0896 72.7919 32.0411 72.8479 32.0074C72.9434 31.95 73.0348 31.898 73.123 31.8515C73.3876 31.7121 73.6114 31.6263 73.8115 31.6072C74.1678 31.5733 74.4559 31.773 74.4922 32.141L74.4946 32.1712C74.5298 32.6462 74.0268 33.2051 72.5517 34.6333C72.1466 35.0156 71.6425 35.3626 71.0613 35.6774C70.5311 35.9646 69.9657 36.21 69.4006 36.4148C69.2277 36.4775 69.0653 36.5324 68.9167 36.5797L68.7468 36.6321C68.7002 36.646 68.6642 36.6563 68.6397 36.663C68.4358 36.7186 68.2254 36.5984 68.1698 36.3945C68.1142 36.1906 68.2344 35.9803 68.4383 35.9247L68.4848 35.9114C68.5172 35.902 68.5541 35.891 68.595 35.8784L68.6264 35.8687C68.7809 35.8206 68.9536 35.7628 69.1399 35.6953C69.6717 35.5026 70.2032 35.2719 70.6967 35.0045C71.2237 34.719 71.6748 34.4086 72.0228 34.0802L72.3335 33.7776C72.7022 33.4163 72.9679 33.145 73.1977 32.8916L73.2275 32.8586C73.3287 32.7461 73.4165 32.6435 73.4901 32.5516L73.5276 32.5038Z" fill="#2F4077"/>
  <path fill-rule="evenodd" clip-rule="evenodd" d="M69.8269 34.1768C69.8269 34.1768 70.9621 33.1947 71.3575 32.3784C71.7529 31.562 72.0208 30.937 71.8932 30.8222C71.7657 30.7074 71.0259 30.9115 70.7325 31.3962C70.4137 32.2125 69.0871 33.3222 69.0871 33.3222C69.2529 33.2585 70.0565 32.3528 70.4392 31.7916C70.8091 31.2304 70.8346 30.3631 69.6739 31.3324C69.6739 31.3324 68.4621 32.4166 67.9902 32.7355C67.9902 32.7355 65.8601 33.5391 65.3244 34.4447V34.4447C64.9672 35.0569 62.1483 39.7381 59.929 42.7865C58.5642 44.2151 55.9876 52.9651 60.1841 51.9957C61.0642 51.8171 62.0463 50.9881 62.3397 50.2355L67.9264 36.5748C69.2147 36.0391 70.082 35.4651 70.6432 34.9676C71.3703 34.3171 73.3983 31.6131 73.3856 31.3324C73.3346 30.5671 72.0846 30.886 71.4468 32.2763" fill="white"/>
  <path fill-rule="evenodd" clip-rule="evenodd" d="M70.8993 30.7063L70.9008 30.7054C71.3377 30.4177 71.8872 30.3016 72.1496 30.5377C72.2165 30.598 72.2619 30.6607 72.2889 30.7299L72.2914 30.7367L72.3298 30.7162C72.3711 30.6947 72.4125 30.6751 72.4541 30.6573L72.4957 30.6402C73.1249 30.391 73.7233 30.6405 73.7682 31.3151C73.7808 31.5916 73.3688 32.217 72.5979 33.2413L72.5127 33.3541C71.8741 34.1955 71.2463 34.9418 70.8974 35.2539C70.2588 35.82 69.3864 36.361 68.2778 36.8414L68.221 36.8656L62.6965 50.3744C62.3556 51.2489 61.287 52.1403 60.3181 52.3583L60.2705 52.3685C59.1082 52.637 58.2641 52.2534 57.835 51.3274C57.4914 50.5856 57.4264 49.5214 57.5919 48.2412C57.8705 46.0861 58.8168 43.4684 59.6011 42.5783L59.6336 42.5422L59.6853 42.4712C60.5827 41.2323 61.6345 39.6529 62.7547 37.8881L63.0833 37.3683C63.8854 36.0937 64.6854 34.7811 64.9954 34.2498C65.2434 33.8305 65.7354 33.4408 66.4085 33.0597C66.7256 32.8802 67.0634 32.7145 67.4009 32.5659C67.4992 32.5226 67.5918 32.4834 67.6771 32.4484L67.8103 32.3947L67.817 32.3901C67.9526 32.2943 68.1561 32.1327 68.4074 31.923L68.5707 31.7856C68.7231 31.6565 68.8816 31.5198 69.0399 31.3816L69.4289 31.0387C69.7407 30.7782 70.0019 30.6164 70.2261 30.5495C70.479 30.4741 70.7208 30.5161 70.8796 30.6842L70.8993 30.7063ZM71.4353 31.2771L71.4105 31.2897C71.269 31.3643 71.1499 31.4622 71.0774 31.5677L71.0739 31.5729L71.0692 31.5847C70.9992 31.7498 70.8986 31.9226 70.7707 32.1042L70.7315 32.1589C70.5894 32.3544 70.4183 32.5574 70.2241 32.7655C70.0617 32.9397 69.8902 33.1098 69.7174 33.2717L69.6704 33.3151L69.6667 33.3191C69.4887 33.4975 69.3352 33.6289 69.2401 33.6728L69.2248 33.6793C68.8281 33.8319 68.5208 33.3238 68.8256 33.043L68.9099 32.9703L68.9805 32.9082C69.005 32.8865 69.0305 32.8636 69.0568 32.8398L69.0969 32.8032L69.1769 32.729L69.2082 32.6959C69.2552 32.6458 69.305 32.5913 69.3566 32.5337L69.3956 32.4898C69.6731 32.1762 69.9522 31.827 70.12 31.581C70.1542 31.529 70.1848 31.4731 70.21 31.4173L70.2165 31.4015L70.2052 31.4091C70.132 31.458 70.0482 31.5204 69.9549 31.5968L69.9229 31.6233L69.705 31.8163L69.6636 31.8527C69.5032 31.9935 69.341 32.1344 69.1831 32.2694L68.9863 32.4363L68.8518 32.5489C68.5766 32.7775 68.3572 32.9494 68.2047 33.0525C68.18 33.0692 68.1535 33.0829 68.1256 33.0934L68.0142 33.1374L67.9189 33.1765C67.8531 33.2039 67.783 33.2339 67.7092 33.2664C67.3935 33.4053 67.0781 33.5601 66.7856 33.7257C66.2205 34.0456 65.8156 34.3663 65.6552 34.6374L65.5019 34.8971C65.1385 35.507 64.4822 36.5799 63.813 37.6455L63.483 38.1687C62.2968 40.0414 61.1832 41.7143 60.2386 43.0117C60.2286 43.0254 60.2177 43.0385 60.206 43.0508C59.5463 43.7412 58.6166 46.2837 58.3509 48.3393C58.2022 49.4892 58.2592 50.4224 58.5294 51.0057C58.8023 51.5946 59.2802 51.8118 60.1083 51.6206C60.8338 51.4734 61.7004 50.7665 61.9714 50.1261L67.5726 36.4299C67.6111 36.3355 67.6857 36.2605 67.7798 36.2214C68.9106 35.7511 69.7785 35.223 70.3884 34.6824L70.4294 34.6447C70.7421 34.3503 71.3217 33.6576 71.9066 32.8867L71.9864 32.7812C72.2857 32.3835 72.5542 32.0072 72.7455 31.7168L72.7961 31.6393C72.8605 31.5394 72.9129 31.4535 72.9517 31.3844L72.976 31.34L72.9909 31.3109L72.9873 31.3102C72.9516 31.3043 72.8867 31.3118 72.8012 31.3427L72.7774 31.3517C72.4304 31.4891 72.0497 31.8805 71.7949 32.4358C71.774 32.4815 71.7451 32.5211 71.7107 32.5538L71.6878 32.5736L71.6739 32.6018C71.625 32.6967 71.5677 32.7939 71.5026 32.8936L71.4625 32.9538C71.3198 33.1641 71.1449 33.3827 70.9447 33.6066C70.7551 33.8186 70.5529 34.0242 70.3508 34.2161L70.2684 34.2936C70.2417 34.3183 70.216 34.342 70.1913 34.3645L70.0847 34.46L70.0776 34.4661C69.9178 34.6044 69.6761 34.5869 69.5379 34.4271C69.4049 34.2734 69.4159 34.0441 69.5591 33.9038L69.6426 33.829L69.711 33.7667C69.7466 33.7338 69.7844 33.6986 69.8238 33.6611C70.0118 33.4826 70.1998 33.2915 70.3743 33.0964C70.5534 32.8961 70.7076 32.7034 70.8292 32.5241C70.9052 32.4121 70.9671 32.3072 71.0135 32.2115L71.096 32.0398C71.2272 31.7649 71.3268 31.5447 71.3999 31.366L71.4353 31.2771Z" fill="#2F4077"/>
  <path fill-rule="evenodd" clip-rule="evenodd" d="M60.0947 41.6885L63.1942 36.0508L68.0794 37.2115L63.8957 47.5941L60.0947 41.6885Z" fill="#465F9D"/>
  <path fill-rule="evenodd" clip-rule="evenodd" d="M40.1846 82.9904L40.3376 100.618H42.9652L43.1182 95.1205C43.1182 95.1205 44.1897 100.49 47.8504 100.733C51.5239 100.975 54.6871 99.9674 54.6616 99.8271C54.6489 99.7506 54.7764 98.6792 54.8912 97.6205C54.9932 96.7021 54.1259 95.8093 53.182 95.8731C51.7662 95.9496 49.9167 95.8476 48.7943 94.9037C46.7917 93.2328 47.0468 81.0771 47.0468 81.0771L40.1846 82.9904Z" fill="#2F4077"/>
  <path fill-rule="evenodd" clip-rule="evenodd" d="M44.6748 82.9904L47.2131 100.618H49.8406L49.9427 97.4802C49.9427 97.4802 51.0524 100.503 54.7258 100.745C58.3993 100.988 61.5626 99.9802 61.537 99.8398C61.5243 99.7633 61.6518 98.6919 61.7666 97.6332C61.8687 96.7148 61.0013 95.822 60.0575 95.8858C58.6416 95.9623 57.4427 94.049 56.3202 93.1052C54.3177 91.4342 53.9223 81.0898 53.9223 81.0898L44.6748 82.9904Z" fill="#2F4077"/>
  <path fill-rule="evenodd" clip-rule="evenodd" d="M61.1542 64.929C60.2103 62.7734 48.7562 56.4214 48.7562 56.4214C48.7562 56.4214 53.82 42.8245 50.9629 38.8194C48.4756 35.452 43.9858 35.6178 43.9858 35.6178L35.7843 35.3117V35.2734H34.445C33.0037 35.2734 31.0394 36.8168 30.8226 38.475C30.4271 41.5362 29.2409 45.7581 28.4246 49.2785C26.5113 55.1459 24.5726 63.8959 28.4629 67.5566C28.4884 67.6076 38.3991 67.5566 38.3991 67.5566L38.4118 94.7887H58.1695C58.1823 94.8015 62.0853 67.0719 61.1542 64.929Z" fill="#465F9D"/>
  <path fill-rule="evenodd" clip-rule="evenodd" d="M37.6225 31.1989C37.717 31.0099 37.9468 30.9333 38.1359 31.0278C38.3249 31.1223 38.4015 31.3521 38.307 31.5412C38.1195 31.9161 38.0519 32.4393 38.1389 32.9834C38.2872 33.9574 38.8614 34.6489 39.3361 34.6149L39.3594 34.6127C39.5692 34.5869 39.7601 34.7361 39.7859 34.9458C39.8116 35.1556 39.6625 35.3465 39.4527 35.3723C38.4724 35.4927 37.5875 34.447 37.3828 33.1014C37.2719 32.408 37.3603 31.7232 37.6225 31.1989Z" fill="#E4794A"/>
  <path fill-rule="evenodd" clip-rule="evenodd" d="M47.7504 30.8542C47.8449 30.6652 48.0748 30.5885 48.2638 30.6831C48.4528 30.7776 48.5294 31.0074 48.4349 31.1964C48.2474 31.5714 48.1798 32.0946 48.2669 32.6387C48.4151 33.6127 48.9893 34.3042 49.4641 34.2702L49.4873 34.268C49.6971 34.2422 49.888 34.3914 49.9138 34.6011C49.9395 34.8109 49.7904 35.0018 49.5806 35.0276C48.6003 35.148 47.7155 34.1023 47.5107 32.7567C47.3998 32.0633 47.4883 31.3785 47.7504 30.8542Z" fill="#E4794A"/>
  <path fill-rule="evenodd" clip-rule="evenodd" d="M38.5898 22.9008C40.146 21.7528 41.1791 15.7196 36.9572 11.6763C32.6715 7.58188 29.1128 11.7655 28.322 12.8625C27.5312 13.9594 26.9317 16.9951 30.6307 19.865C34.3424 22.7222 36.8169 24.2145 38.5898 22.9008Z" fill="#2F4077"/>
  <path fill-rule="evenodd" clip-rule="evenodd" d="M40.8606 25.5668L40.7585 25.6306C40.1846 26.0005 39.381 25.8474 38.9728 25.2734L37.8376 23.679C37.4295 23.105 37.5698 22.3397 38.1437 21.9698L38.2458 21.9061C38.8198 21.5362 39.6233 21.6892 40.0315 22.2632L41.1667 23.8576C41.5749 24.4316 41.4346 25.1969 40.8606 25.5668Z" fill="#E4794A"/>
  <path fill-rule="evenodd" clip-rule="evenodd" d="M40.0742 30.6256C40.3985 29.9452 40.079 29.1159 39.3604 28.7734C38.6418 28.4309 37.7964 28.7048 37.472 29.3852C37.1477 30.0656 37.4673 30.8949 38.1859 31.2374C38.9044 31.5799 39.7499 31.306 40.0742 30.6256Z" fill="white"/>
  <path fill-rule="evenodd" clip-rule="evenodd" d="M37.1269 29.2204C36.7096 30.096 37.1163 31.1512 38.0215 31.5827C38.9268 32.0142 40.0026 31.6657 40.4199 30.7901C40.8373 29.9146 40.4306 28.8594 39.5254 28.4279C38.6201 27.9963 37.5443 28.3449 37.1269 29.2204ZM37.8178 29.5497C38.0491 29.0644 38.6642 28.8652 39.196 29.1187C39.7279 29.3722 39.9604 29.9755 39.7291 30.4608C39.4978 30.9461 38.8827 31.1454 38.3508 30.8919C37.8189 30.6383 37.5864 30.035 37.8178 29.5497Z" fill="#2F4077"/>
  <path fill-rule="evenodd" clip-rule="evenodd" d="M49.9736 30.1617C50.298 29.4813 49.9784 28.652 49.2598 28.3095C48.5412 27.967 47.6958 28.2409 47.3715 28.9213C47.0471 29.6017 47.3667 30.431 48.0853 30.7735C48.8038 31.1161 49.6493 30.8421 49.9736 30.1617Z" fill="white"/>
  <path fill-rule="evenodd" clip-rule="evenodd" d="M47.0263 28.7566C46.609 29.6321 47.0157 30.6873 47.9209 31.1188C48.8262 31.5504 49.902 31.2018 50.3194 30.3263C50.7367 29.4508 50.33 28.3955 49.4248 27.964C48.5195 27.5325 47.4437 27.881 47.0263 28.7566ZM47.7172 29.0859C47.9485 28.6006 48.5636 28.4013 49.0955 28.6548C49.6273 28.9084 49.8598 29.5117 49.6285 29.997C49.3972 30.4823 48.7821 30.6815 48.2502 30.428C47.7183 30.1745 47.4858 29.5712 47.7172 29.0859Z" fill="#2F4077"/>
  <path fill-rule="evenodd" clip-rule="evenodd" d="M44.6355 34.0619L44.712 36.1027L46.4212 36.4853C46.5233 36.7659 46.6253 41.5874 42.212 40.9879C39.3166 40.5925 37.9646 38.0032 37.1865 35.6307L39.6483 35.7966L39.661 30.0312L44.6355 34.0619Z" fill="white"/>
  <path fill-rule="evenodd" clip-rule="evenodd" d="M39.2785 30.03L39.2667 35.3868L37.2124 35.2485C36.9417 35.2303 36.7386 35.4918 36.8231 35.7496C37.2957 37.1907 37.8603 38.3593 38.607 39.2898C39.5371 40.4487 40.7088 41.1684 42.1604 41.3666C44.2763 41.654 45.6606 40.8089 46.3602 39.2205C46.8026 38.2161 46.9366 36.7821 46.781 36.3541L46.7713 36.33C46.7224 36.2196 46.6239 36.1381 46.505 36.1115L45.0834 35.7932L45.0181 34.0471C45.0139 33.9368 44.9624 33.8336 44.8766 33.7641L39.9021 29.7335C39.6522 29.5311 39.2793 29.7084 39.2785 30.03ZM40.0419 30.8317L44.2598 34.2493L44.3298 36.1166L44.3314 36.1401C44.3476 36.3034 44.4668 36.4394 44.6286 36.4757L46.0683 36.7979L46.0683 36.7931C46.0724 36.9553 46.0656 37.1496 46.0464 37.3555C45.996 37.8949 45.8701 38.4346 45.6599 38.912C45.0933 40.1983 44.0289 40.8481 42.2637 40.6083L42.1948 40.5984C40.0903 40.282 38.7311 38.7363 37.7643 36.1255L37.737 36.0509L39.6227 36.1779C39.8433 36.1928 40.0306 36.0181 40.0311 35.797L40.0419 30.8317Z" fill="#2F4077"/>
  <path fill-rule="evenodd" clip-rule="evenodd" d="M44.8443 35.2361C47.3177 34.7817 48.8491 31.8354 48.2648 28.6553C47.6805 25.4752 45.2018 23.2657 42.7284 23.7201C40.2551 24.1746 38.7236 27.1209 39.3079 30.301C39.8922 33.481 42.3709 35.6906 44.8443 35.2361Z" fill="white"/>
  <path fill-rule="evenodd" clip-rule="evenodd" d="M42.6595 23.3434C39.9546 23.8403 38.3126 26.9995 38.9318 30.3697C39.551 33.7398 42.2088 36.109 44.9136 35.612C47.6185 35.1151 49.2605 31.9559 48.6413 28.5857C48.0221 25.2156 45.3643 22.8464 42.6595 23.3434ZM42.7977 24.0961C45.0396 23.6841 47.3393 25.7341 47.8886 28.724C48.438 31.714 47.0172 34.4474 44.7753 34.8594C42.5334 35.2713 40.2338 33.2214 39.6844 30.2314C39.1351 27.2414 40.5559 24.508 42.7977 24.0961Z" fill="#2F4077"/>
  <path fill-rule="evenodd" clip-rule="evenodd" d="M44.4739 27.9259C44.6709 27.8738 44.8727 27.9851 44.9354 28.1763L44.9418 28.1979L45.5648 30.5504C45.6566 30.8716 45.4292 31.2007 45.1045 31.216L45.0806 31.2166L44.2132 31.2421C44.002 31.2483 43.8257 31.0821 43.8195 30.8709C43.8135 30.6672 43.9678 30.496 44.1683 30.4784L44.1907 30.4771L44.7493 30.4608L44.202 28.3938C44.1498 28.1968 44.2612 27.995 44.4523 27.9323L44.4739 27.9259Z" fill="#2F4077"/>
  <path fill-rule="evenodd" clip-rule="evenodd" d="M41.8626 26.6308C42.2461 26.4135 42.6583 26.3316 43.0668 26.4891C43.2084 26.5438 43.3414 26.6262 43.4636 26.7361C43.6207 26.8775 43.6334 27.1194 43.492 27.2765C43.3561 27.4276 43.1272 27.4451 42.9701 27.3206L42.9516 27.305C42.898 27.2567 42.8449 27.2238 42.7914 27.2032C42.6356 27.1431 42.4435 27.1813 42.2399 27.2966C42.1889 27.3256 42.142 27.3567 42.1012 27.3875L42.0814 27.4026C42.0703 27.4114 42.0631 27.4174 42.0605 27.4197C41.9034 27.5611 41.6615 27.5484 41.5201 27.3913C41.3787 27.2342 41.3915 26.9923 41.5485 26.8509C41.6153 26.7908 41.7222 26.7104 41.8626 26.6308Z" fill="#2F4077"/>
  <path fill-rule="evenodd" clip-rule="evenodd" d="M45.3684 26.5005C45.621 26.4412 45.8842 26.4231 46.1429 26.4743C46.5157 26.5481 46.8245 26.7604 47.0151 27.1231C47.1134 27.3102 47.0414 27.5416 46.8543 27.6399C46.6742 27.7345 46.453 27.6713 46.349 27.4994L46.3376 27.4791C46.2601 27.3316 46.15 27.2559 45.9943 27.2251C45.8581 27.1981 45.6987 27.2091 45.5434 27.2455L45.5051 27.255C45.4817 27.2612 45.463 27.2667 45.4496 27.2711L45.4336 27.2766C45.2359 27.351 45.0152 27.2511 44.9407 27.0533C44.8662 26.8556 44.9661 26.6349 45.1639 26.5604L45.2021 26.5469C45.2449 26.5326 45.301 26.5163 45.3684 26.5005Z" fill="#2F4077"/>
  <path fill-rule="evenodd" clip-rule="evenodd" d="M43.4388 29.0866C43.4482 28.7979 43.3017 28.5589 43.1116 28.5527C42.9215 28.5465 42.7598 28.7755 42.7504 29.0642C42.741 29.3529 42.8875 29.5919 43.0776 29.5981C43.2677 29.6043 43.4294 29.3753 43.4388 29.0866Z" fill="#2F4077"/>
  <path fill-rule="evenodd" clip-rule="evenodd" d="M46.3702 29.7078C46.5599 29.694 46.6968 29.4494 46.6759 29.1613C46.6551 28.8732 46.4844 28.6508 46.2947 28.6646C46.105 28.6783 45.9681 28.923 45.989 29.2111C46.0098 29.4991 46.1805 29.7215 46.3702 29.7078Z" fill="#2F4077"/>
  <path fill-rule="evenodd" clip-rule="evenodd" d="M48.9647 29.8444C49.9495 29.6916 50.7288 30.7826 50.9451 32.2191C51.1515 33.5905 50.6117 34.8597 49.6177 35.0139C49.6048 35.0159 49.5917 35.0172 49.5787 35.0179L49.559 35.0184H49.5335C49.3222 35.0184 49.1509 34.8471 49.1509 34.6358C49.1509 34.432 49.3102 34.2654 49.5111 34.2538L49.5236 34.2534L49.5451 34.2484C49.9963 34.132 50.3246 33.3357 50.195 32.3802L50.1883 32.333C50.0295 31.2781 49.524 30.5573 49.102 30.5981L49.082 30.6006C48.8732 30.633 48.6776 30.49 48.6452 30.2812C48.6128 30.0723 48.7558 29.8768 48.9647 29.8444Z" fill="#E4794A"/>
  <path fill-rule="evenodd" clip-rule="evenodd" d="M38.7098 30.316C39.7071 30.1612 40.612 31.2089 40.8178 32.5759C41.0242 33.9473 40.4843 35.2165 39.4904 35.3707C39.4774 35.3727 39.4644 35.374 39.4513 35.3747L39.4317 35.3752H39.4062C39.1949 35.3752 39.0236 35.2039 39.0236 34.9926C39.0236 34.7888 39.1829 34.6222 39.3837 34.6106L39.3959 34.6102L39.4178 34.6052C39.869 34.4888 40.1972 33.6925 40.0677 32.7369L40.061 32.6898C39.9127 31.7051 39.3313 31.019 38.8503 31.0692L38.8271 31.0722C38.6183 31.1046 38.4227 30.9616 38.3903 30.7528C38.3579 30.5439 38.5009 30.3484 38.7098 30.316Z" fill="#E4794A"/>
  <path fill-rule="evenodd" clip-rule="evenodd" d="M41.9066 31.1422C41.9569 32.457 42.4657 33.1525 43.2925 33.2262C43.6028 33.2538 43.9173 33.188 44.2242 33.064C44.3768 33.0024 44.4956 32.9399 44.5695 32.8942C44.8038 32.7491 44.8125 32.4114 44.586 32.2544L42.5069 30.8131C42.2477 30.6333 41.8945 30.8269 41.9066 31.1422ZM42.7984 31.9464L43.5399 32.4605L43.514 32.4633C43.4607 32.4679 43.4093 32.4682 43.3604 32.4639C43.1177 32.4423 42.9271 32.3015 42.8077 31.9727L42.7984 31.9464Z" fill="#2F4077"/>
  <path fill-rule="evenodd" clip-rule="evenodd" d="M42.1484 22.3518L42.1357 22.3646C40.6561 22.5814 38.9979 23.2575 38.0795 24.2524C36.4469 26.0126 37.1994 29.7753 38.8576 30.0304C38.9979 30.0559 39.1382 30.0687 39.2785 30.0687C39.2658 29.9794 39.253 29.8774 39.2402 29.7881C39.202 29.4437 39.1892 29.0993 39.1892 28.7549C41.4596 27.9131 41.4469 24.5075 41.4469 24.2268C41.9316 24.6095 42.5566 25.26 42.3908 25.9871L47.4035 26.3059C47.8882 27.135 48.2198 28.1044 48.3346 29.1503C48.3346 29.1631 48.3346 29.1758 48.3346 29.1886C48.8066 28.5126 48.8193 27.4666 48.4367 26.3697L50.1331 26.4717C50.1331 26.4717 51.6892 20.7447 42.1484 22.3518Z" fill="#2F4077"/>
  <path fill-rule="evenodd" clip-rule="evenodd" d="M36.8195 43.3743C36.8468 43.1647 37.0388 43.017 37.2484 43.0443C37.4505 43.0706 37.5951 43.25 37.5807 43.4507L37.5785 43.4731L37.035 47.6467L47.2637 47.6712C47.4675 47.6716 47.6337 47.8313 47.6448 48.0322L47.6454 48.0547C47.6449 48.2585 47.4852 48.4247 47.2843 48.4359L47.2619 48.4365L36.5986 48.411C36.3757 48.4104 36.2022 48.2209 36.2178 48.0017L36.2201 47.9789L36.8195 43.3743Z" fill="white"/>
  <path fill-rule="evenodd" clip-rule="evenodd" d="M27.9381 49.6686C27.99 49.4638 28.1982 49.3398 28.4031 49.3917C28.6079 49.4436 28.7319 49.6518 28.68 49.8566C28.2644 51.4963 29.6391 53.4532 31.2571 53.5238L31.3062 53.5254L46.7781 53.5126C46.9895 53.5125 47.1609 53.6836 47.1611 53.895C47.1613 54.0988 47.0021 54.2655 46.8012 54.2773L46.7788 54.2779L31.2989 54.2906C29.1464 54.2479 27.4004 51.7906 27.9381 49.6686Z" fill="white"/>
  <path fill-rule="evenodd" clip-rule="evenodd" d="M34.5212 47.9279C35.1999 47.4817 35.9211 47.426 36.5769 47.5976C36.7037 47.6308 36.7994 47.6655 36.8587 47.692C37.0516 47.7784 37.1379 48.0048 37.0515 48.1977C36.9681 48.3837 36.7547 48.4706 36.5666 48.3991L36.5282 48.3832C36.4995 48.3721 36.45 48.3555 36.3831 48.338C35.9196 48.2167 35.4159 48.2556 34.9416 48.5674C34.6987 48.7271 34.4716 48.9554 34.2644 49.2628C34.1463 49.438 33.9085 49.4843 33.7333 49.3662C33.558 49.2481 33.5117 49.0103 33.6298 48.835C33.8925 48.4453 34.1916 48.1446 34.5212 47.9279Z" fill="white"/>
  <path fill-rule="evenodd" clip-rule="evenodd" d="M33.0906 47.4021C34.271 46.4239 35.4411 46.3705 36.4396 46.8826C36.5724 46.9508 36.6906 47.024 36.7932 47.0981L36.8383 47.1314C36.8801 47.163 36.9119 47.1895 36.9334 47.209C37.0901 47.3508 37.1022 47.5928 36.9603 47.7494C36.824 47.9001 36.595 47.917 36.4383 47.792L36.4074 47.766C36.3906 47.7522 36.3699 47.7363 36.3455 47.7188C36.273 47.6665 36.1875 47.6134 36.0904 47.5636C35.3491 47.1834 34.5076 47.2218 33.579 47.9914C33.4163 48.1262 33.175 48.1036 33.0402 47.9409C32.9053 47.7782 32.9279 47.537 33.0906 47.4021Z" fill="white"/>
  <path fill-rule="evenodd" clip-rule="evenodd" d="M34.4319 52.1357L42.2508 52.2123L44.8273 40.0949C44.8783 39.8271 45.1079 39.6357 45.3502 39.6357L64.4064 39.9291C64.7508 39.9291 65.0059 40.299 64.9293 40.6689L62.5059 53.5898C62.34 54.3934 61.3324 55.0056 60.6053 54.9929C55.9242 54.9164 37.0722 54.6485 36.511 54.6357C33.9982 54.623 34.4319 52.1357 34.4319 52.1357Z" fill="#E4794A"/>
  <path fill-rule="evenodd" clip-rule="evenodd" d="M67.3143 54.3291C67.5181 54.3291 67.6846 54.4884 67.6963 54.6893L67.6969 54.7118V99.9796C67.6969 100.191 67.5256 100.362 67.3143 100.362C67.1105 100.362 66.9439 100.203 66.9323 100.002L66.9316 99.9796V55.0943H24.3677L24.3678 99.9796C24.3678 100.183 24.2085 100.35 24.0077 100.362L23.9852 100.362C23.7814 100.362 23.6148 100.203 23.6032 100.002L23.6025 99.9796V54.7118C23.6025 54.508 23.7618 54.3414 23.9627 54.3298L23.9852 54.3291H67.3143Z" fill="#2F4077"/>
  <path fill-rule="evenodd" clip-rule="evenodd" d="M55.0567 100.286H52.1868C51.9062 100.311 50.4266 100.248 51.6894 99.4567C51.9445 99.3419 54.0618 97.9899 54.9036 97.8368C55.7455 97.6838 58.9725 97.6838 59.0363 97.6838C59.1128 97.6838 60.2225 94.495 60.248 94.3164L64.8144 94.5205C64.572 95.1327 63.1434 99.6353 62.0975 100.031C61.0388 100.439 55.0439 100.222 55.0439 100.222C55.0439 100.222 55.146 99.3292 56.3322 99.2016C57.5057 99.0741 58.0159 99.0741 58.0159 99.0741" fill="white"/>
  <path fill-rule="evenodd" clip-rule="evenodd" d="M64.2829 94.8796L60.5291 94.7118L60.4751 94.8786C60.3739 95.1865 60.2304 95.6042 60.0688 96.0626L59.9145 96.4967C59.8181 96.7654 59.7287 97.0097 59.6523 97.2126L59.5796 97.4033C59.5326 97.5247 59.4929 97.6233 59.4609 97.6976L59.435 97.756C59.4228 97.7828 59.4115 97.806 59.4009 97.8262L59.3563 97.9091C59.2792 98.0464 59.2405 98.0649 59.0607 98.0661L58.6794 98.0674C58.5732 98.0679 58.4605 98.0687 58.3427 98.0698C57.9059 98.0736 57.4701 98.0802 57.0569 98.09L56.6903 98.0999C55.8583 98.1249 55.248 98.163 54.9722 98.2131C54.717 98.2595 54.2477 98.4654 53.6356 98.7917C53.5533 98.8356 53.4687 98.8815 53.3817 98.9293L53.2044 99.0282C52.9057 99.1971 52.3552 99.5181 52.0533 99.6906L51.888 99.7837L51.8574 99.8032C51.8346 99.8179 51.8129 99.8322 51.7924 99.8462L51.739 99.8836L51.7584 99.8866C51.884 99.9042 52.0236 99.9118 52.1214 99.9067L52.1696 99.9034L52.187 99.903H54.7354L54.7421 99.8852C54.7922 99.7561 54.8619 99.6282 54.9546 99.5066L54.9904 99.4613C55.2758 99.1136 55.7083 98.8837 56.291 98.821L56.4708 98.8019C56.8525 98.7623 57.1833 98.7341 57.4653 98.7157L57.592 98.7078C57.805 98.6954 57.9447 98.6912 58.016 98.6912C58.2274 98.6912 58.3987 98.8625 58.3987 99.0739C58.3987 99.2777 58.2394 99.4442 58.0385 99.4559L57.9295 99.4584L57.8176 99.4625C57.7634 99.4649 57.703 99.468 57.6365 99.4718L57.4506 99.4837C57.1494 99.5045 56.7913 99.5365 56.3733 99.5819C56.0649 99.6151 55.8439 99.7064 55.6875 99.8395L55.6664 99.8581L56.0595 99.8681C56.8577 99.8869 57.6621 99.8978 58.4219 99.8967L58.6485 99.896C60.374 99.8879 61.6005 99.8121 61.9624 99.6726C62.0959 99.6221 62.3227 99.3623 62.5793 98.9292C62.8382 98.4921 63.1162 97.9062 63.4086 97.199L63.4452 97.1099C63.6152 96.6946 63.8786 95.9888 64.0949 95.3974L64.2829 94.8796ZM65.1703 94.6611L65.1759 94.648C65.1859 94.6385 64.4939 96.5682 64.1535 97.3998C63.8348 98.1785 63.53 98.826 63.2377 99.3193C62.8971 99.8943 62.5803 100.257 62.2353 100.388C61.7466 100.576 60.5071 100.653 58.6521 100.661C57.8943 100.665 57.0879 100.656 56.2829 100.639L56.0415 100.633C55.841 100.628 55.6522 100.623 55.4774 100.618L55.2567 100.612L55.2439 100.62C55.1947 100.647 55.1389 100.664 55.0793 100.668L55.0569 100.668H52.2L52.1751 100.67C51.9042 100.687 51.5089 100.648 51.2468 100.545L51.202 100.526C50.9117 100.395 50.7313 100.143 50.8281 99.8149C50.8991 99.5742 51.1155 99.3645 51.4864 99.1322L51.509 99.1191L51.5403 99.1035C51.6397 99.0496 52.5508 98.5153 52.9222 98.3089C53.0136 98.2581 53.1026 98.2094 53.1895 98.1625L53.2756 98.1164C53.9578 97.7526 54.4755 97.5256 54.8353 97.4601L54.8891 97.451C55.2548 97.3925 55.9351 97.3541 56.8609 97.3294C57.3303 97.3169 57.8325 97.3089 58.336 97.3045L58.7968 97.3014L58.8302 97.2182C58.8461 97.1781 58.8632 97.1341 58.8815 97.0865L58.9537 96.8961C59.0262 96.7025 59.1101 96.4727 59.2002 96.2213L59.39 95.6856C59.6366 94.9814 59.8635 94.3032 59.8694 94.2621C59.8962 94.0746 60.0556 93.9362 60.2427 93.9336L60.2653 93.9339L64.8316 94.138C65.0942 94.1498 65.2671 94.4167 65.1703 94.6611Z" fill="#2F4077"/>
  <path fill-rule="evenodd" clip-rule="evenodd" d="M101.587 69.4818C100.133 67.5941 94.1384 60.4385 94.1384 60.4385L89.1384 64.7242L90.0057 65.9104C85.8093 64.9028 81.6384 64.4181 80.5797 64.8645L80.9113 65.7446C76.447 64.5711 69.4445 63.4104 68.0031 67.2242C66.4725 70.0558 59.623 95.3492 59.623 95.3492L68.4496 95.5788L69.3424 92.0711C69.572 94.3543 69.8271 96.4206 70.1333 98.0278C70.5542 100.234 75.0695 100.745 77.3144 100.719L83.1307 100.643L91.8042 90.2599L87.3909 75.7446C90.873 76.4079 96.5108 77.2114 99.2914 76.242C99.4317 76.2293 99.5593 76.2165 99.6996 76.191C102.697 75.6298 103.922 72.7472 101.587 69.4818Z" fill="#2F4077"/>
  <path fill-rule="evenodd" clip-rule="evenodd" d="M74.0498 65.1582L76.9707 59.3291L82.0217 62.5434L81.3585 65.2985V65.2985C81.7794 67.5944 79.1263 69.1888 77.2896 67.7347L74.0498 65.1582Z" fill="white"/>
  <path fill-rule="evenodd" clip-rule="evenodd" d="M76.6285 59.1576L73.7076 64.9867C73.6265 65.1485 73.6698 65.345 73.8115 65.4576L77.0513 68.0341L77.115 68.0833C79.1822 69.638 82.0944 67.9203 81.7596 65.3871L81.7487 65.3118L82.3936 62.6329C82.4319 62.4739 82.365 62.3083 82.227 62.2205L77.176 59.0062C76.9847 58.8845 76.7301 58.9549 76.6285 59.1576ZM77.1228 59.8793L81.5856 62.7193L80.9863 65.2089C80.9738 65.2608 80.9723 65.3149 80.982 65.3674L80.9919 65.4257C81.2944 67.3441 79.0702 68.6563 77.527 67.4346L74.5309 65.0519L77.1228 59.8793Z" fill="#2F4077"/>
  <path fill-rule="evenodd" clip-rule="evenodd" d="M77.3917 51.2426C77.3917 51.2426 79.1646 58.0921 83.4248 56.4084C83.4248 56.4084 85.2233 55.6176 85.2743 54.5207C85.2743 54.5207 83.8458 54.8906 83.4886 53.8192C83.4886 53.8192 86.5754 54.5589 87.3279 52.161C87.3279 52.161 84.5218 53.0156 83.6162 51.2044C82.7233 49.3804 77.1621 49.4824 77.3917 51.2426Z" fill="#2F4077"/>
  <path fill-rule="evenodd" clip-rule="evenodd" d="M74.5727 57.6703C74.5727 57.6703 71.6646 53.1932 76.1544 50.183C76.5753 49.9024 79.4707 48.0402 81.2054 50.3616C82.3533 51.9177 83.2717 53.7545 83.8712 55.234C83.8712 55.2468 85.0574 58.0019 84.662 60.0045C84.2666 62.007 81.8049 62.9381 80.1977 62.7596C78.5906 62.581 78.1824 62.2876 77.4299 61.5606C76.6773 60.8335 74.5727 57.6703 74.5727 57.6703V57.6703Z" fill="white"/>
  <path fill-rule="evenodd" clip-rule="evenodd" d="M84.2304 55.1045L84.2307 55.1062L84.2251 55.0907C83.5349 53.3871 82.6184 51.6604 81.5979 50.2514L81.5112 50.1329C80.6466 48.9758 79.4506 48.6379 78.1072 48.9225C77.63 49.0236 77.1597 49.1984 76.7062 49.4237C76.403 49.5744 76.1588 49.72 75.9414 49.865C74.8417 50.6023 74.0969 51.4686 73.6755 52.438C73.0458 53.8864 73.1712 55.4196 73.7536 56.8767C73.8605 57.1442 73.9751 57.3869 74.0902 57.6011L74.1242 57.6634C74.1623 57.7325 74.1952 57.7888 74.2213 57.8316L74.2618 57.8951L74.4965 58.2442C74.555 58.3308 74.6169 58.422 74.6816 58.517C74.965 58.9329 75.253 59.3488 75.5329 59.7439L75.7095 59.9919L75.9082 60.2677C76.4479 61.011 76.8674 61.5436 77.1419 61.8152L77.1633 61.8361C78.0791 62.7208 78.6051 62.968 80.1548 63.1402C82.235 63.3713 84.6393 62.0917 85.0367 60.0789C85.1245 59.6345 85.1445 59.1436 85.106 58.6136C85.0541 57.8999 84.8992 57.1436 84.6732 56.3784C84.5756 56.0477 84.4713 55.7381 84.3654 55.4528L84.3232 55.3407C84.3095 55.3048 84.2962 55.2703 84.2831 55.2369L84.2304 55.1045ZM83.6479 55.7191C83.748 55.9888 83.8468 56.2821 83.9393 56.5951C84.1509 57.3118 84.2953 58.0166 84.3427 58.6691C84.3766 59.1353 84.3593 59.5591 84.2859 59.9307C83.9762 61.4993 81.9625 62.571 80.2393 62.3796L80.1107 62.3649C78.834 62.2145 78.4639 62.0285 77.695 61.2857C77.4632 61.0617 77.051 60.5393 76.5211 59.8091L76.3317 59.5463L76.2753 59.4674C75.962 59.0282 75.6351 58.5572 75.3141 58.0861L75.0876 57.7522L74.8906 57.4586C74.8883 57.4551 74.8773 57.4374 74.8609 57.4099C74.8321 57.3616 74.7996 57.3043 74.7643 57.2388C74.6624 57.0491 74.56 56.8322 74.4642 56.5927C73.9508 55.308 73.8418 53.9751 74.3773 52.7432C74.7388 51.9119 75.3864 51.1585 76.3668 50.5012C76.5585 50.3734 76.7761 50.2436 77.0468 50.1091C77.4464 49.9105 77.8577 49.7577 78.2658 49.6712C79.3207 49.4477 80.1999 49.6876 80.8651 50.5475L80.8967 50.5891L80.9787 50.7012C81.9596 52.0557 82.8475 53.7285 83.5158 55.3781L83.5225 55.3753L83.545 55.4427C83.5589 55.4833 83.574 55.525 83.5881 55.5633L83.6479 55.7191Z" fill="#2F4077"/>
  <path fill-rule="evenodd" clip-rule="evenodd" d="M81.1563 54.5827C81.3197 54.462 81.5475 54.4906 81.6764 54.6441L81.6914 54.6631L83.171 56.6657C83.299 56.839 83.2582 57.0821 83.085 57.2049L83.0652 57.2181L82.2233 57.741C82.0438 57.8526 81.8079 57.7974 81.6964 57.6179C81.589 57.4451 81.6361 57.2199 81.8001 57.1039L81.8195 57.091L82.309 56.7867L81.0759 55.1179C80.9551 54.9544 80.9838 54.7266 81.1372 54.5977L81.1563 54.5827Z" fill="#2F4077"/>
  <path fill-rule="evenodd" clip-rule="evenodd" d="M82.4149 54.3387C82.5442 54.2668 82.5573 54.0438 82.4443 53.8407C82.3312 53.6375 82.1348 53.5312 82.0055 53.6031C81.8763 53.6751 81.8631 53.8981 81.9762 54.1012C82.0892 54.3043 82.2857 54.4107 82.4149 54.3387Z" fill="#2F4077"/>
  <path fill-rule="evenodd" clip-rule="evenodd" d="M80.5297 55.9649C80.6701 55.9184 80.7247 55.7018 80.6516 55.4811C80.5785 55.2605 80.4055 55.1193 80.265 55.1658C80.1246 55.2123 80.07 55.4289 80.1431 55.6496C80.2162 55.8703 80.3893 56.0115 80.5297 55.9649Z" fill="#2F4077"/>
  <path fill-rule="evenodd" clip-rule="evenodd" d="M78.9491 53.6316C79.1509 53.5689 79.3653 53.6818 79.428 53.8836C79.4884 54.0782 79.3856 54.2845 79.1972 54.3552L79.1759 54.3625C78.9869 54.4211 78.8475 54.5215 78.7441 54.6544C78.6854 54.73 78.6417 54.8119 78.6115 54.8933L78.6005 54.9246C78.5927 54.9483 78.5881 54.9654 78.5862 54.9741L78.5854 54.9783C78.5506 55.1867 78.3535 55.3276 78.145 55.2928C77.9365 55.2581 77.7957 55.0609 77.8305 54.8525C77.8394 54.7988 77.8591 54.7214 77.8938 54.6275C77.9498 54.4764 78.0301 54.3259 78.14 54.1845C78.3367 53.9317 78.6055 53.7382 78.9491 53.6316Z" fill="#2F4077"/>
  <path fill-rule="evenodd" clip-rule="evenodd" d="M81.0149 51.9676C81.3653 51.715 81.7367 51.5838 82.1212 51.6661C82.2214 51.6876 82.3184 51.7238 82.4108 51.7749C82.5957 51.8772 82.6627 52.1101 82.5604 52.295C82.4619 52.4731 82.2423 52.5418 82.0611 52.4553L82.0403 52.4446C82.0139 52.43 81.9877 52.4202 81.9609 52.4145C81.8327 52.387 81.6546 52.4499 81.4625 52.5884C81.4004 52.6332 81.3424 52.6819 81.2911 52.7302L81.2507 52.7696L81.2347 52.7864C81.0935 52.9436 80.8515 52.9566 80.6943 52.8153C80.5371 52.6741 80.5241 52.4322 80.6654 52.275C80.7389 52.1931 80.8584 52.0805 81.0149 51.9676Z" fill="#2F4077"/>
  <path fill-rule="evenodd" clip-rule="evenodd" d="M76.1027 52.4924C76.1027 52.4924 81.243 58.5893 76.9062 61.4082C76.9062 61.4082 75.0057 62.5562 73.9598 61.8801C73.9598 61.8801 75.2353 60.796 74.4828 59.7883C74.4828 59.7883 73.1435 63.1046 70.4521 62.2373C70.4521 62.2373 73.0797 60.2092 71.9955 58.2067C70.9113 56.1914 74.6358 51.1404 76.1027 52.4924Z" fill="#2F4077"/>
  <path fill-rule="evenodd" clip-rule="evenodd" d="M81.6132 50.107C81.6132 50.107 77.8122 45.107 72.9908 49.4565C70.2102 51.9565 70.5163 54.6606 71.2688 56.51L68.9729 58.9335C68.4755 59.4565 68.501 60.2856 69.0239 60.783C69.279 61.0253 69.5979 61.1401 69.9295 61.1401C70.2739 61.1401 70.6183 60.9998 70.8862 60.732L81.6132 50.107Z" fill="#E4794A"/>
  <path fill-rule="evenodd" clip-rule="evenodd" d="M81.5371 58.7553L82.6596 58.4492Z" fill="white"/>
  <path fill-rule="evenodd" clip-rule="evenodd" d="M82.5588 58.08C82.7627 58.0244 82.9731 58.1446 83.0287 58.3485C83.0823 58.5451 82.9724 58.7477 82.7817 58.8118L82.7602 58.8183L81.6377 59.1244C81.4338 59.1801 81.2235 59.0598 81.1679 58.856C81.1143 58.6594 81.2241 58.4567 81.4148 58.3927L81.4364 58.3861L82.5588 58.08Z" fill="#2F4077"/>
  <path fill-rule="evenodd" clip-rule="evenodd" d="M93.9475 62.7981C92.7358 62.02 91.7026 61.2547 91.0776 60.5915C90.5291 60.0685 90.0827 59.6603 89.7128 59.3542C88.8327 58.6017 87.6847 58.2445 86.524 58.3721C85.6439 58.4741 84.6235 58.6144 84.1388 58.8057C83.2077 59.1756 80.1465 60.3491 80.3506 60.8338C80.4909 61.1782 82.1745 60.9103 83.0419 60.7318L84.7766 62.7981C84.7766 62.7981 85.5419 62.543 85.9883 62.5685C86.9067 62.6195 87.9271 62.9384 88.4245 62.6323C88.4245 62.6323 89.1643 63.8695 90.5801 65.5659" fill="white"/>
  <path fill-rule="evenodd" clip-rule="evenodd" d="M86.4818 57.9915C87.7445 57.8528 88.9983 58.24 89.9563 59.0593L90.0351 59.125C90.3152 59.3606 90.6415 59.6546 91.0421 60.0311L91.3412 60.3144L91.3556 60.3289C91.9189 60.9266 92.8765 61.6558 94.1538 62.4759C94.3316 62.5901 94.3832 62.8268 94.269 63.0047C94.1548 63.1825 93.9181 63.2341 93.7403 63.1199L93.5655 63.007C92.3555 62.2201 91.4306 61.5115 90.8403 60.8974L90.8066 60.8622L90.6343 60.6984C90.1895 60.2778 89.837 59.9585 89.5399 59.7085L89.4637 59.6449C88.6614 58.9589 87.6178 58.6366 86.5676 58.752L86.2778 58.7866C85.3164 58.9045 84.6498 59.0221 84.3043 59.1517L83.8176 59.344L83.5224 59.462L83.2867 59.5576C83.017 59.6678 82.7651 59.7735 82.5243 59.8784C82.2563 59.9951 82.011 60.107 81.7903 60.2136L81.6656 60.2746C81.4427 60.3851 81.2517 60.488 81.0966 60.5814L81.0386 60.6169L81.0472 60.6168C81.1174 60.6153 81.1936 60.6118 81.2753 60.6063L81.3909 60.5974C81.8521 60.5584 82.4354 60.4657 82.9643 60.3568C83.0934 60.3302 83.2264 60.372 83.317 60.4661L83.3345 60.4856L84.9071 62.3589L84.9297 62.3525C84.9552 62.3455 84.981 62.3385 85.0071 62.3316L85.0863 62.3111C85.2194 62.2777 85.3494 62.2494 85.4737 62.2279C85.6754 62.1931 85.8542 62.1774 86.0091 62.1863C86.1148 62.1921 86.2243 62.2014 86.3429 62.2141L86.4897 62.231C86.5458 62.2379 86.5999 62.2449 86.6616 62.2533L87.0785 62.3113C87.7556 62.4022 88.0367 62.4055 88.2013 62.3189L88.2235 62.3062C88.3984 62.1986 88.6255 62.2486 88.7398 62.4159L88.8398 62.5763L88.8838 62.6452C88.9957 62.8195 89.1296 63.0203 89.2853 63.2446C89.7315 63.8873 90.2616 64.5874 90.8735 65.3206C91.0089 65.4828 90.9871 65.7242 90.8249 65.8596C90.6626 65.995 90.4213 65.9732 90.2859 65.811C89.659 65.0598 89.1153 64.3417 88.6566 63.681L88.5627 63.5447C88.4713 63.4112 88.3879 63.2864 88.3125 63.171L88.2728 63.1098L88.2645 63.1121C87.9756 63.1822 87.61 63.1566 86.9527 63.0667L86.5314 63.008C86.4934 63.0029 86.4582 62.9983 86.423 62.9939L86.3965 62.9907C86.2351 62.9709 86.0958 62.9576 85.966 62.9504C85.8782 62.9453 85.7531 62.9564 85.6038 62.9821C85.5001 63 85.3886 63.0243 85.273 63.0533C85.2021 63.0712 85.1327 63.09 85.0667 63.1091L84.9623 63.1403C84.9323 63.1495 84.9102 63.1566 84.8971 63.1609C84.7565 63.2078 84.6022 63.1691 84.5005 63.0633L84.4831 63.044L82.894 61.151L82.8011 61.1687C82.3729 61.2487 81.9317 61.315 81.5496 61.3515L81.4554 61.36L81.358 61.3678C80.5773 61.427 80.1542 61.3671 79.9974 60.9821C79.8508 60.6339 80.0498 60.3741 80.4423 60.0947C80.683 59.9232 81.0242 59.7339 81.4573 59.5246C81.6589 59.4271 81.8789 59.3262 82.116 59.2217L82.2187 59.1768C82.5004 59.0541 82.7958 58.9307 83.1155 58.8011L83.4128 58.6815L83.9979 58.4497C84.4565 58.2686 85.2601 58.1332 86.4818 57.9915Z" fill="#2F4077"/>
  <path fill-rule="evenodd" clip-rule="evenodd" d="M84.5335 59.4814C84.5335 59.4814 82.5182 60.757 82.6967 61.5478C82.8753 62.3386 83.5003 62.0962 83.5003 62.0962" fill="white"/>
  <path fill-rule="evenodd" clip-rule="evenodd" d="M84.3201 59.164L84.3295 59.158C84.5081 59.045 84.7445 59.0981 84.8575 59.2767C84.9664 59.4487 84.9211 59.6742 84.7581 59.7916L84.6664 59.852L84.5907 59.9028C84.5512 59.9297 84.5095 59.9585 84.4658 59.9893C84.258 60.1357 84.0502 60.294 83.8576 60.4572C83.6089 60.668 83.4054 60.8708 83.2645 61.0541C83.1128 61.2513 83.0559 61.398 83.0707 61.4634C83.1113 61.6432 83.1647 61.713 83.2223 61.7369C83.2522 61.7493 83.2929 61.7514 83.3339 61.7449L83.3646 61.7386L83.3627 61.7394C83.5597 61.663 83.7814 61.7608 83.8578 61.9578C83.9342 62.1548 83.8364 62.3765 83.6394 62.4529C83.612 62.4635 83.5741 62.4755 83.527 62.4864C83.3373 62.5304 83.1327 62.5283 82.929 62.4438C82.6286 62.3191 82.4169 62.0425 82.3242 61.6319C82.2474 61.2918 82.3809 60.9478 82.6577 60.5877C82.8365 60.3551 83.0762 60.1164 83.3628 59.8734C83.5744 59.694 83.7998 59.5224 84.0251 59.3637C84.0723 59.3304 84.1177 59.299 84.1606 59.2698L84.2432 59.2143C84.2768 59.192 84.3027 59.1751 84.3201 59.164Z" fill="#2F4077"/>
  <path fill-rule="evenodd" clip-rule="evenodd" d="M85.0188 60.3105C85.0188 60.3105 83.3224 61.5988 83.5647 62.3769C83.8071 63.1549 84.4066 62.8616 84.4066 62.8616" fill="white"/>
  <path fill-rule="evenodd" clip-rule="evenodd" d="M84.7873 60.0057C84.9556 59.8779 85.1957 59.9107 85.3235 60.079C85.4513 60.2473 85.4184 60.4873 85.2501 60.6152L85.1938 60.6594L85.134 60.7076C85.1028 60.7331 85.0698 60.7606 85.0352 60.7899C84.8706 60.9294 84.7061 61.0805 84.5536 61.2366C84.3479 61.4473 84.1816 61.6498 84.0698 61.8323C83.9455 62.0352 83.9058 62.1854 83.93 62.2629C83.9811 62.4272 84.0379 62.4977 84.0921 62.522C84.1259 62.5371 84.1744 62.5364 84.2245 62.5216L84.2397 62.517L84.2383 62.5177C84.4281 62.4248 84.6573 62.5034 84.7502 62.6932C84.8431 62.8831 84.7645 63.1122 84.5747 63.2051C84.5426 63.2208 84.4977 63.2389 84.4413 63.2555C84.2314 63.3175 84.0039 63.3211 83.7792 63.2204C83.5111 63.1003 83.3122 62.853 83.1993 62.4905C83.0957 62.158 83.1891 61.8051 83.4172 61.4326C83.563 61.1945 83.7636 60.9502 84.0061 60.702C84.1768 60.5271 84.3586 60.3601 84.5404 60.2061L84.6179 60.1411C84.6907 60.0808 84.7488 60.0349 84.7873 60.0057Z" fill="#2F4077"/>
  <path fill-rule="evenodd" clip-rule="evenodd" d="M85.6438 61.3057C85.6438 61.3057 83.6285 62.8873 84.8785 63.2827C86.1158 63.6781 86.5112 63.372 86.5112 63.372C86.5112 63.372 86.9449 62.6832 85.6566 62.5429" fill="white"/>
  <path fill-rule="evenodd" clip-rule="evenodd" d="M85.407 61.0045C85.5732 60.874 85.8138 60.903 85.9442 61.0693C86.0697 61.2291 86.0477 61.4577 85.898 61.591L85.8358 61.6419C85.7984 61.6726 85.7565 61.708 85.7112 61.7475C85.5818 61.8603 85.4524 61.9821 85.3327 62.1073C85.1843 62.2624 85.0623 62.411 84.9766 62.5448L84.9456 62.5938C84.8014 62.8251 84.8165 62.8618 84.9944 62.9181C85.5397 63.0924 85.9181 63.1303 86.1572 63.0916L86.1774 63.0879C86.1653 63.0776 86.1491 63.0665 86.1263 63.0538L86.108 63.0441C86.004 62.9909 85.8412 62.9479 85.6145 62.9232C85.4044 62.9003 85.2527 62.7114 85.2756 62.5013C85.2984 62.2912 85.4873 62.1395 85.6974 62.1624C86.323 62.2305 86.7198 62.4334 86.8864 62.7785C86.9947 63.0026 86.9821 63.2294 86.9029 63.4355C86.88 63.495 86.8556 63.542 86.8344 63.5757C86.8105 63.6136 86.7802 63.647 86.7448 63.6744C86.6924 63.715 86.6143 63.7568 86.5086 63.7917C86.1171 63.9211 85.5449 63.8975 84.7625 63.6474C83.9946 63.4045 83.9193 62.7765 84.3321 62.132C84.4479 61.9513 84.5998 61.7663 84.7796 61.5783C84.9168 61.4349 85.0626 61.2977 85.2083 61.1706L85.2821 61.1071C85.3352 61.0621 85.3779 61.0274 85.407 61.0045Z" fill="#2F4077"/>
  <path fill-rule="evenodd" clip-rule="evenodd" d="M83.5908 90.6298C83.5908 90.6298 98.2082 75.1706 101.397 71.5864C104.586 68.0023 110.44 68.589 112.774 71.5227C115.109 74.4563 127.047 93.2446 127.047 93.2446L113.374 96.4844L108.412 82.3773L100.695 96.8033L83.5908 90.6298Z" fill="white"/>
  <path fill-rule="evenodd" clip-rule="evenodd" d="M101.111 71.332L100.87 71.6011C99.5862 73.0292 96.9209 75.8982 93.254 79.8094L92.0132 81.1319C90.2308 83.0304 88.3475 85.0312 86.4596 87.0333L83.3128 90.3668C83.1233 90.5672 83.2016 90.8961 83.4609 90.9897L100.565 97.1631L100.588 97.1705C100.761 97.2211 100.947 97.1442 101.033 96.9837L108.34 83.3241L113.013 96.6113C113.078 96.7959 113.272 96.9018 113.462 96.8567L127.136 93.6169C127.384 93.558 127.504 93.2785 127.382 93.0591L127.351 93.0084L126.003 90.8934L124.733 88.9085C123.29 86.6565 121.848 84.4159 120.476 82.3001L119.408 80.6568C116.191 75.7186 113.954 72.3903 113.074 71.2843C111.85 69.7461 109.713 68.7975 107.418 68.7278C104.998 68.6544 102.694 69.5528 101.111 71.332ZM107.395 69.4928C109.477 69.556 111.4 70.41 112.475 71.7608L112.532 71.8328C113.458 73.0195 115.783 76.4878 119.078 81.5541L119.628 82.4003C120.992 84.502 122.43 86.7344 123.872 88.9839L125.086 90.8809L126.436 92.9961L113.621 96.0325L108.773 82.2502L108.765 82.2283C108.642 81.9349 108.228 81.9102 108.075 82.1967L100.514 96.3309L84.27 90.4681L86.7466 87.8445L89.4341 84.9924C90.1452 84.237 90.8496 83.4881 91.5421 82.7513L94.1807 79.9397C97.6627 76.224 100.195 73.4968 101.441 72.111L101.683 71.8407C103.108 70.2386 105.192 69.4259 107.395 69.4928Z" fill="#2F4077"/>
  <path fill-rule="evenodd" clip-rule="evenodd" d="M83.59 90.6295L105.962 87.4535C106.919 87.3642 107.888 87.377 108.858 87.4663L130.235 90.1193L130.184 100.502L77.3145 100.54L83.59 90.6295Z" fill="white"/>
  <path fill-rule="evenodd" clip-rule="evenodd" d="M105.927 87.0724L105.909 87.0745L83.5366 90.2505C83.4256 90.2663 83.3271 90.3299 83.2671 90.4247L76.9916 100.335C76.8302 100.59 77.0135 100.923 77.3152 100.923L130.185 100.884C130.396 100.884 130.566 100.714 130.567 100.504L130.618 90.1211C130.619 89.9272 130.475 89.7633 130.283 89.7394L108.905 87.0864L108.893 87.0851C107.864 86.9903 106.877 86.9838 105.927 87.0724ZM108.817 87.8466L129.852 90.4571L129.804 100.119L78.0103 100.157L83.819 90.9833L106.006 87.8337L105.998 87.8344C106.851 87.7547 107.74 87.7561 108.668 87.8335L108.817 87.8466Z" fill="#2F4077"/>
  <path fill-rule="evenodd" clip-rule="evenodd" d="M106.677 69.8011C106.218 69.7119 105.759 70.0052 105.669 70.4644L102.608 86.1404L87.0342 88.245L87.0852 88.5894C87.1745 89.2527 87.7867 89.7246 88.45 89.6353L103.284 87.6328C103.947 87.5435 104.419 86.9312 104.33 86.268V86.268L107.34 70.8216C107.43 70.3496 107.136 69.9032 106.677 69.8011Z" fill="#E4794A"/>
  <path fill-rule="evenodd" clip-rule="evenodd" d="M176.052 88.7041L175.631 94.6352C175.631 94.6352 181.881 97.7347 181.32 100.936L168.131 100.885L168.36 89.4567L176.052 88.7041Z" fill="#E4794A"/>
  <path fill-rule="evenodd" clip-rule="evenodd" d="M163.564 39.125C169.406 40.0816 169.227 42.5816 171.204 46.3316C173.181 50.0816 178.449 94.648 178.449 94.648L162.965 94.8648L162.072 62.4158L156.013 91.4337L137.799 91.5995C137.799 91.5995 153.373 48.5383 154.712 45.6684C156.051 42.8112 157.556 41.6505 159.534 41.1148C161.511 40.5791 163.564 39.125 163.564 39.125Z" fill="#465F9D"/>
  <path fill-rule="evenodd" clip-rule="evenodd" d="M183.935 39.6602C180.848 34.1372 174.368 24.9663 171.422 23.9842C171.358 23.9587 171.294 23.9331 171.218 23.9204L168.322 23.3719C166.703 25.4893 163.412 27.6959 160.567 27.0454C156.052 26.0122 157.914 21.9944 158.08 21.7138L159.521 22.0326L159.356 21.6627L158.259 21.4459C157.149 21.178 155.708 21.2546 153.909 21.8541C149.407 23.3719 138.909 26.9689 138.909 26.9689L143.386 33.3464C143.386 33.3464 144.866 32.6066 149.636 31.0377C150.58 30.7316 151.626 30.4255 152.672 30.1194C152.851 32.275 153.973 34.7877 156.741 37.5939C158.144 39.3413 163.718 40.0811 163.718 40.0811C165.363 40.553 168.743 37.9255 169.636 36.4331C169.93 35.9485 170.236 35.4 170.542 34.8005C173.743 39.0224 178.794 45.2724 178.794 45.2724L180.134 44.928C183.169 43.6143 185.414 42.3133 183.935 39.6602Z" fill="#2F4077"/>
  <path fill-rule="evenodd" clip-rule="evenodd" d="M164.42 16.4339L164.841 16.7145C164.841 16.7145 167.366 18.0921 168.157 15.5411C168.757 13.6023 166.907 13.0028 165.976 12.8242" fill="white"/>
  <path fill-rule="evenodd" clip-rule="evenodd" d="M165.6 12.7521C165.64 12.5445 165.84 12.4085 166.048 12.4483C166.754 12.5838 167.398 12.8272 167.884 13.227C168.583 13.8024 168.84 14.6263 168.523 15.6543C168.191 16.7251 167.535 17.3064 166.674 17.4395C166.174 17.5168 165.656 17.4377 165.151 17.2614C164.93 17.1843 164.76 17.1061 164.657 17.0504L164.643 17.0419L164.628 17.0328L164.208 16.7522C164.032 16.635 163.984 16.3974 164.101 16.2216C164.214 16.0522 164.439 16.0019 164.612 16.1031L164.632 16.1154L165.037 16.3855L165.085 16.4092L165.119 16.4247C165.203 16.4634 165.299 16.5024 165.403 16.5389C165.8 16.6774 166.2 16.7384 166.557 16.6832C167.125 16.5954 167.545 16.2229 167.791 15.4279C168.016 14.7005 167.859 14.1981 167.397 13.818C167.03 13.5155 166.496 13.3135 165.904 13.1999C165.696 13.1601 165.56 12.9596 165.6 12.7521Z" fill="#2F4077"/>
  <path fill-rule="evenodd" clip-rule="evenodd" d="M158.553 19.8772L159.522 22.0201L158.081 21.7012C157.928 21.9818 156.065 25.9997 160.568 27.0328C163.527 27.7089 166.958 25.3109 168.502 23.117L166.002 22.6578L163.961 17.7344L158.553 19.8772Z" fill="white"/>
  <path fill-rule="evenodd" clip-rule="evenodd" d="M158.412 19.5214L158.39 19.5306C158.202 19.6186 158.117 19.8429 158.204 20.0349L158.858 21.4811L158.163 21.3275C157.997 21.2907 157.826 21.3683 157.745 21.5179C157.651 21.6889 157.512 22.0298 157.404 22.4004C157.24 22.965 157.159 23.544 157.197 24.1103C157.304 25.7203 158.339 26.9139 160.482 27.4057C161.968 27.7451 163.628 27.3877 165.252 26.4856C166.668 25.6985 167.975 24.5308 168.815 23.3371L168.827 23.3179C168.968 23.0914 168.838 22.7896 168.571 22.7406L166.275 22.319L164.314 17.5878C164.234 17.3947 164.014 17.3016 163.82 17.3786L158.412 19.5214ZM163.751 18.2288L165.648 22.8043L165.659 22.8278C165.712 22.9354 165.813 23.0123 165.932 23.0341L167.822 23.381L167.8 23.4083C165.981 25.6263 162.95 27.1844 160.653 26.6597C158.837 26.2429 158.045 25.3297 157.96 24.0592C157.929 23.5915 157.998 23.0989 158.139 22.6142L158.162 22.5376C158.201 22.4112 158.243 22.291 158.287 22.1793L158.302 22.142L159.439 22.3936L159.46 22.3976C159.758 22.4479 159.998 22.1431 159.871 21.8623L159.067 20.0851L163.751 18.2288Z" fill="#2F4077"/>
  <path fill-rule="evenodd" clip-rule="evenodd" d="M169.086 23.6326C171.044 22.8936 172.11 20.9162 171.468 19.216C170.826 17.5158 168.719 16.7365 166.762 17.4755C164.804 18.2144 163.738 20.1918 164.38 21.892C165.022 23.5923 167.129 24.3715 169.086 23.6326Z" fill="#2F4077"/>
  <path fill-rule="evenodd" clip-rule="evenodd" d="M172.772 26.4476C174.294 25.8728 175.123 24.3331 174.622 23.0085C174.122 21.6839 172.483 21.076 170.96 21.6507C169.438 22.2255 168.61 23.7652 169.11 25.0898C169.61 26.4144 171.249 27.0223 172.772 26.4476Z" fill="#2F4077"/>
  <path fill-rule="evenodd" clip-rule="evenodd" d="M176.007 29.0916C177.371 28.5766 178.114 27.1974 177.666 26.0112C177.218 24.825 175.749 24.2809 174.385 24.796C173.021 25.311 172.278 26.6901 172.726 27.8763C173.174 29.0626 174.643 29.6067 176.007 29.0916Z" fill="#2F4077"/>
  <path fill-rule="evenodd" clip-rule="evenodd" d="M179.471 29.8266C179.802 30.8215 179.165 31.9439 178.029 32.3393C176.894 32.7348 175.695 32.2501 175.364 31.2679C175.032 30.2858 175.619 29.0996 176.754 28.7041C177.889 28.296 179.139 28.8317 179.471 29.8266Z" fill="#2F4077"/>
  <path fill-rule="evenodd" clip-rule="evenodd" d="M181.563 32.5054C181.588 33.5768 182.124 34.0105 182.634 34.1763C182.877 34.2529 182.889 34.5972 182.66 34.6865C181.308 35.2222 178.871 35.8727 178.119 33.9722C177.762 33.0794 178.195 31.9952 179.19 31.5233C180.198 31.0513 181.537 31.536 181.563 32.5054Z" fill="#2F4077"/>
  <path fill-rule="evenodd" clip-rule="evenodd" d="M170.673 21.2959C170.869 21.0935 171.192 21.0883 171.395 21.2843C171.59 21.4737 171.602 21.7819 171.425 21.9851L171.406 22.0057L169.468 24.0083C169.272 24.2107 168.949 24.2159 168.746 24.0199C168.55 23.8305 168.539 23.5223 168.716 23.3191L168.734 23.2985L170.673 21.2959Z" fill="#E4794A"/>
  <path fill-rule="evenodd" clip-rule="evenodd" d="M174.243 24.3722C174.452 24.1831 174.775 24.1992 174.964 24.4081C175.147 24.61 175.138 24.9182 174.948 25.1094L174.928 25.1287L173.181 26.7103C172.972 26.8994 172.649 26.8834 172.46 26.6745C172.277 26.4725 172.286 26.1643 172.476 25.9732L172.496 25.9538L174.243 24.3722Z" fill="#E4794A"/>
  <path fill-rule="evenodd" clip-rule="evenodd" d="M176.435 28.3378C176.665 28.1759 176.984 28.2316 177.145 28.4622C177.302 28.6854 177.255 28.9906 177.043 29.1568L177.021 29.1729L176.422 29.5938C176.191 29.7558 175.873 29.7001 175.711 29.4695C175.554 29.2463 175.601 28.9411 175.813 28.7749L175.835 28.7587L176.435 28.3378Z" fill="#E4794A"/>
  <path fill-rule="evenodd" clip-rule="evenodd" d="M178.647 31.171C178.869 30.998 179.19 31.038 179.363 31.2605C179.53 31.4755 179.498 31.7822 179.295 31.9587L179.273 31.9764L178.699 32.4229C178.477 32.5959 178.156 32.5558 177.983 32.3334C177.816 32.1184 177.848 31.8117 178.051 31.6352L178.073 31.6174L178.647 31.171Z" fill="#E4794A"/>
  <path fill-rule="evenodd" clip-rule="evenodd" d="M155.377 11.6245C155.032 12.798 154.05 18.3465 157.609 19.724C161.167 21.1016 164.509 18.3337 165.772 14.9153C167.035 11.497 166.244 8.15513 164.012 7.23676C161.78 6.30564 157.877 3.15513 155.377 11.6245Z" fill="white"/>
  <path fill-rule="evenodd" clip-rule="evenodd" d="M159.296 5.60138C157.52 6.02265 156.112 7.84065 155.041 11.408L155.009 11.5167C154.714 12.5215 154.515 14.1817 154.647 15.6325C154.846 17.8051 155.728 19.4063 157.47 20.0808C160.986 21.4419 164.663 19.0208 166.13 15.0478C167.438 11.5085 166.64 7.96916 164.23 6.91401L164.086 6.85266C163.977 6.80575 163.857 6.75067 163.711 6.68107L162.986 6.32939L162.834 6.25706C161.397 5.5849 160.385 5.34286 159.296 5.60138ZM155.727 11.7891L155.743 11.7328C156.748 8.32976 158.001 6.69509 159.472 6.34602C160.364 6.13443 161.252 6.35509 162.583 6.98494L162.802 7.09009C162.983 7.17796 163.238 7.30252 163.277 7.32158L163.434 7.39668C163.599 7.47476 163.735 7.53587 163.864 7.58983C165.882 8.42027 166.607 11.5497 165.413 14.7827C164.078 18.3959 160.805 20.5511 157.746 19.3671C156.323 18.8159 155.585 17.4753 155.41 15.5627C155.289 14.2419 155.467 12.7131 155.727 11.7891Z" fill="#2F4077"/>
  <path fill-rule="evenodd" clip-rule="evenodd" d="M159.012 16.1271C158.285 16.2547 157.736 16.0506 157.43 15.8976C157.29 15.8338 157.137 15.9103 157.111 16.0634C157.035 16.497 157.06 17.2624 158.017 17.4919C159.024 17.7343 159.228 16.8542 159.279 16.3567C159.292 16.2292 159.165 16.1016 159.012 16.1271Z" fill="#2F4077"/>
  <path fill-rule="evenodd" clip-rule="evenodd" d="M158.814 9.83798C158.899 9.64455 159.125 9.55676 159.318 9.64189C159.505 9.72398 159.593 9.93689 159.523 10.1254L159.514 10.1463L157.82 13.9967L158.497 14.1758C158.694 14.2278 158.814 14.4244 158.774 14.6216L158.769 14.6435C158.717 14.8405 158.52 14.9608 158.323 14.9208L158.301 14.9156L157.191 14.6223C156.972 14.5642 156.852 14.3297 156.93 14.1198L156.939 14.0982L158.814 9.83798Z" fill="#2F4077"/>
  <path fill-rule="evenodd" clip-rule="evenodd" d="M160.041 10.3186C160.636 10.0521 161.176 10.2458 161.602 10.6937C161.696 10.7925 161.778 10.8972 161.847 11.002L161.877 11.048C161.905 11.0915 161.926 11.1274 161.939 11.1534C162.037 11.3405 161.965 11.5718 161.778 11.6699C161.598 11.7645 161.377 11.701 161.273 11.5291L161.253 11.4943C161.244 11.4789 161.23 11.4556 161.211 11.4265C161.164 11.3562 161.109 11.2856 161.047 11.221C160.83 10.9926 160.618 10.9113 160.38 11.0058L160.354 11.017C160.161 11.1034 159.934 11.0171 159.848 10.8242C159.762 10.6313 159.848 10.4049 160.041 10.3186Z" fill="#2F4077"/>
  <path fill-rule="evenodd" clip-rule="evenodd" d="M156.971 8.12539C157.543 7.76586 158.119 7.90268 158.611 8.31357C158.774 8.44985 158.893 8.58569 158.965 8.68489C159.088 8.8564 159.049 9.09553 158.878 9.21901C158.713 9.33775 158.486 9.30632 158.358 9.15126L158.329 9.11279C158.319 9.10112 158.306 9.08553 158.29 9.06694C158.24 9.01027 158.183 8.95329 158.12 8.90082C157.865 8.68736 157.633 8.62723 157.403 8.75841L157.378 8.7732C157.2 8.88572 156.963 8.83192 156.851 8.65304C156.738 8.47415 156.792 8.23792 156.971 8.12539Z" fill="#2F4077"/>
  <path fill-rule="evenodd" clip-rule="evenodd" d="M160.265 13.2839C160.332 12.9596 160.218 12.6621 160.011 12.6195C159.804 12.5769 159.582 12.8053 159.515 13.1296C159.449 13.4539 159.562 13.7513 159.769 13.7939C159.976 13.8365 160.198 13.6082 160.265 13.2839Z" fill="#2F4077"/>
  <path fill-rule="evenodd" clip-rule="evenodd" d="M156.621 12.5895C156.688 12.2652 156.575 11.9678 156.368 11.9252C156.16 11.8826 155.939 12.111 155.872 12.4353C155.805 12.7596 155.919 13.057 156.126 13.0996C156.333 13.1422 156.555 12.9138 156.621 12.5895Z" fill="#2F4077"/>
  <path fill-rule="evenodd" clip-rule="evenodd" d="M158.538 12.1792C158.214 14.0842 159.111 15.8538 160.594 16.1057C162.078 16.3576 163.508 14.9832 163.832 13.0781C164.155 11.1731 163.259 9.40349 161.775 9.1516C160.292 8.8997 158.861 10.2741 158.538 12.1792ZM159.104 12.2753C159.379 10.6522 160.551 9.52598 161.679 9.71748C162.807 9.90898 163.542 11.359 163.266 12.982C162.99 14.6051 161.818 15.7313 160.69 15.5398C159.563 15.3483 158.828 13.8984 159.104 12.2753Z" fill="#E4794A"/>
  <path fill-rule="evenodd" clip-rule="evenodd" d="M152.319 10.98C151.995 12.885 152.892 14.6546 154.376 14.9065C155.859 15.1584 157.29 13.7839 157.613 11.8789C157.937 9.97385 157.04 8.20427 155.556 7.95238C154.073 7.70048 152.642 9.07493 152.319 10.98ZM152.885 11.0761C153.16 9.45298 154.333 8.32677 155.46 8.51826C156.588 8.70976 157.323 10.1597 157.047 11.7828C156.772 13.4059 155.6 14.5321 154.472 14.3406C153.344 14.1491 152.609 12.6991 152.885 11.0761Z" fill="#E4794A"/>
  <path fill-rule="evenodd" clip-rule="evenodd" d="M157.186 10.9968C157.214 10.8479 157.353 10.748 157.501 10.7657L157.522 10.7688L158.988 11.0494C159.144 11.0792 159.246 11.2296 159.216 11.3853C159.188 11.5342 159.049 11.634 158.901 11.6163L158.881 11.6132L157.414 11.3326C157.258 11.3028 157.156 11.1525 157.186 10.9968Z" fill="#E4794A"/>
  <path fill-rule="evenodd" clip-rule="evenodd" d="M163.37 11.8262C163.418 11.6826 163.569 11.6025 163.714 11.6401L163.733 11.646L167.062 12.7684C167.213 12.8191 167.293 12.9819 167.243 13.1321C167.194 13.2757 167.043 13.3558 166.899 13.3182L166.879 13.3123L163.55 12.1899C163.4 12.1392 163.319 11.9764 163.37 11.8262Z" fill="#E4794A"/>
  <path fill-rule="evenodd" clip-rule="evenodd" d="M170.134 11.0381C169.866 9.26514 167.238 6.33146 164.828 6.35697C161.715 3.19371 157.06 0.0176864 154.343 5.59167C154.062 6.1784 154.381 6.89269 155.006 7.03299L163.858 9.32891C164.101 10.6682 164.789 12.7855 166.652 13.6274C167.187 13.8697 167.557 13.8442 167.787 13.6274C168.208 14.0483 168.437 14.6478 168.157 15.5151C167.417 17.9003 165.146 16.8544 164.866 16.7014C164.407 17.4156 163.845 18.0662 163.208 18.6019C165.134 19.6605 167.238 20.158 168.501 18.4743C170.159 16.3187 170.491 13.5126 170.134 11.0381Z" fill="#2F4077"/>
  <path fill-rule="evenodd" clip-rule="evenodd" d="M128.514 16.3314L128.055 17.3135L128.629 18.7803L129.777 19.0482C129.777 19.0482 130.618 18.6273 129.879 18.1426C129.139 17.6579 129.203 17.8492 129.203 17.8492L129.33 17.1222L130.848 16.2676" fill="white"/>
  <path fill-rule="evenodd" clip-rule="evenodd" d="M130.66 15.9341C130.844 15.8304 131.078 15.8956 131.181 16.0798C131.281 16.2571 131.224 16.48 131.056 16.5889L131.036 16.6009L129.676 17.3666L129.642 17.5552L129.644 17.556C129.754 17.6127 129.885 17.691 130.044 17.7938L130.088 17.8224C130.417 18.0378 130.589 18.3091 130.563 18.6165C130.543 18.8535 130.415 19.0423 130.228 19.2019C130.124 19.2901 130.024 19.3523 129.948 19.3904C129.877 19.4258 129.797 19.4383 129.719 19.4264L129.69 19.4207L128.542 19.1529C128.427 19.1262 128.332 19.0484 128.282 18.9427L128.272 18.9197L127.698 17.4528C127.663 17.3634 127.663 17.2644 127.698 17.1754L127.708 17.1513L128.167 16.1692C128.257 15.9778 128.484 15.8951 128.676 15.9846C128.86 16.0708 128.944 16.2852 128.87 16.4719L128.86 16.4933L128.471 17.3267L128.911 18.4533L129.707 18.6389L129.713 18.6347L129.731 18.6195C129.747 18.606 129.76 18.5936 129.77 18.5831L129.79 18.5621L129.786 18.5579C129.767 18.536 129.736 18.509 129.692 18.4783L129.669 18.4626L129.596 18.4157C129.469 18.3339 129.368 18.2748 129.294 18.2365L129.272 18.2253L129.26 18.2275C129.098 18.2516 128.92 18.1763 128.848 17.9927L128.839 17.9701L128.831 17.9424C128.83 17.9374 128.829 17.931 128.827 17.9214C128.815 17.8646 128.814 17.8044 128.831 17.7382L128.837 17.717L128.953 17.056C128.971 16.9517 129.032 16.8601 129.12 16.8024L129.142 16.7886L130.66 15.9341Z" fill="#2F4077"/>
  <path fill-rule="evenodd" clip-rule="evenodd" d="M127.697 16.7649L127.238 17.7471L127.812 19.2139L128.96 19.4818C128.96 19.4818 129.802 19.0609 129.062 18.5762C128.322 18.0915 128.386 18.2828 128.386 18.2828L128.514 17.5558L130.032 16.7012" fill="white"/>
  <path fill-rule="evenodd" clip-rule="evenodd" d="M129.844 16.3676C130.028 16.264 130.261 16.3292 130.365 16.5133C130.465 16.6907 130.408 16.9136 130.239 17.0225L130.219 17.0345L128.859 17.8002L128.826 17.9888L128.827 17.9896C128.937 18.0463 129.069 18.1246 129.228 18.2274L129.272 18.256C129.601 18.4714 129.773 18.7427 129.747 19.0501C129.726 19.2871 129.599 19.4759 129.411 19.6355C129.308 19.7237 129.207 19.7859 129.131 19.8239C129.06 19.8594 128.98 19.8719 128.902 19.86L128.873 19.8543L127.725 19.5865C127.611 19.5598 127.515 19.482 127.466 19.3763L127.456 19.3533L126.882 17.8864C126.847 17.797 126.847 17.698 126.881 17.6089L126.891 17.5849L127.351 16.6028C127.44 16.4113 127.668 16.3287 127.859 16.4182C128.044 16.5044 128.127 16.7188 128.053 16.9055L128.044 16.9269L127.654 17.7603L128.095 18.8869L128.891 19.0725L128.897 19.0683L128.915 19.0531C128.931 19.0396 128.944 19.0272 128.954 19.0167L128.973 18.9957L128.97 18.9915C128.951 18.9696 128.92 18.9426 128.876 18.9118L128.852 18.8962L128.78 18.8493C128.652 18.7675 128.552 18.7084 128.478 18.6701L128.456 18.6589L128.444 18.6611C128.281 18.6852 128.104 18.6099 128.031 18.4263L128.023 18.4037L128.015 18.376C128.014 18.371 128.012 18.3646 128.01 18.355C127.999 18.2982 127.997 18.238 128.015 18.1718L128.021 18.1506L128.137 17.4895C128.155 17.3853 128.216 17.2937 128.303 17.2359L128.326 17.2222L129.844 16.3676Z" fill="#2F4077"/>
  <path fill-rule="evenodd" clip-rule="evenodd" d="M126.779 16.9046L126.269 17.976L126.894 19.5704L128.144 19.8638C128.144 19.8638 129.062 19.4046 128.258 18.8816C127.455 18.3587 127.531 18.5628 127.531 18.5628L127.672 17.7719L129.33 16.8408" fill="white"/>
  <path fill-rule="evenodd" clip-rule="evenodd" d="M129.142 16.5081C129.327 16.4046 129.56 16.4701 129.663 16.6543C129.763 16.8318 129.706 17.0547 129.537 17.1633L129.517 17.1754L128.016 18.0177L127.972 18.2676L127.979 18.271C128.098 18.3323 128.244 18.4183 128.422 18.5326L128.467 18.5618C128.815 18.7886 128.996 19.0729 128.968 19.3936C128.946 19.6401 128.811 19.838 128.613 20.0062C128.503 20.1001 128.395 20.1666 128.315 20.2069C128.243 20.2425 128.163 20.2549 128.085 20.2429L128.056 20.2372L126.806 19.9438C126.692 19.917 126.597 19.8394 126.547 19.734L126.537 19.711L125.912 18.1166C125.877 18.0263 125.877 17.9262 125.912 17.8366L125.923 17.8124L126.433 16.741C126.524 16.5502 126.752 16.4691 126.943 16.56C127.127 16.6475 127.209 16.8625 127.133 17.0487L127.124 17.07L126.685 17.9916L127.176 19.2446L128.076 19.4559L128.099 19.4386L128.118 19.4231C128.156 19.391 128.181 19.3628 128.194 19.3452L128.201 19.3347L128.195 19.3263C128.174 19.2975 128.134 19.261 128.073 19.2192L128.049 19.2032L127.936 19.1307C127.817 19.0557 127.721 18.9996 127.647 18.9608L127.605 18.939L127.595 18.941C127.435 18.9674 127.259 18.8972 127.182 18.7198L127.173 18.698L127.165 18.6759C127.163 18.6693 127.161 18.6615 127.157 18.6457C127.145 18.5915 127.141 18.5338 127.155 18.4697L127.161 18.4418L127.168 18.4214L127.295 17.706C127.313 17.6019 127.374 17.5104 127.462 17.4529L127.484 17.4392L129.142 16.5081Z" fill="#2F4077"/>
  <path fill-rule="evenodd" clip-rule="evenodd" d="M131.689 15.5404C130.656 15.5531 129.444 15.5659 129.444 15.5659C129.444 15.5659 127.008 16.0378 126.626 16.1016C126.243 16.1654 124.355 17.1092 124.444 17.3133C124.636 17.8235 126.217 17.5046 127.021 17.1603C127.825 16.8286 129.636 17.173 129.636 17.173C129.636 17.173 130.133 18.6909 129.802 18.6909C129.47 18.6909 127.646 18.5506 127.365 19.1118C127.085 19.673 127.212 20.1067 127.914 20.0302C128.615 19.9536 129.61 20.4128 129.61 20.4128C129.61 20.4128 132.161 19.9791 132.786 19.6603C133.411 19.3414 136.013 25.4383 138.513 29.4307C141.013 33.423 142.672 33.8312 144.738 32.2368C146.74 30.6934 144.087 27.0327 142.863 25.7062C141.893 24.6475 136.422 18.9715 134.126 16.5735C133.488 15.8975 132.608 15.5276 131.689 15.5404Z" fill="white"/>
  <path fill-rule="evenodd" clip-rule="evenodd" d="M131.684 15.1576L129.441 15.1831C129.418 15.1833 129.395 15.1857 129.372 15.19L127.578 15.5349C127.16 15.6145 126.848 15.6732 126.673 15.7046L126.563 15.724C126.321 15.7643 125.742 16.0186 125.179 16.3165L125.061 16.38C124.829 16.5061 124.628 16.627 124.476 16.7323C124.369 16.8063 124.285 16.8739 124.222 16.9396L124.204 16.9577C124.076 17.0971 124.008 17.2433 124.083 17.4405L124.086 17.4475C124.263 17.9191 124.796 18.0225 125.546 17.9373C126.08 17.8767 126.714 17.708 127.172 17.5118C127.369 17.4304 127.708 17.3918 128.133 17.3996C128.431 17.405 128.752 17.4321 129.076 17.4739L129.153 17.484C129.203 17.4908 129.251 17.4977 129.298 17.5047L129.339 17.5111L129.36 17.5841C129.376 17.6387 129.391 17.6943 129.406 17.7502C129.43 17.8417 129.451 17.93 129.469 18.0135L129.479 18.0564C129.496 18.141 129.51 18.2179 129.519 18.2849L129.521 18.2999L129.538 18.3004C129.166 18.2888 128.871 18.2884 128.568 18.3071L128.462 18.3143C127.719 18.371 127.227 18.5328 127.023 18.9405C126.597 19.7925 126.96 20.5189 127.956 20.4104C128.07 20.3979 128.209 20.4039 128.367 20.4277C128.558 20.4565 128.767 20.5098 128.982 20.5805C129.103 20.6204 129.218 20.6632 129.323 20.7059L129.402 20.7388C129.423 20.7479 129.439 20.7551 129.45 20.7601C129.511 20.7884 129.579 20.7999 129.646 20.7937L129.687 20.7878L130.064 20.7206C130.108 20.7126 130.152 20.7044 130.198 20.6959C130.59 20.6231 130.982 20.5453 131.348 20.4656L131.511 20.4298C131.803 20.3643 132.063 20.3006 132.284 20.2391L132.339 20.2236C132.52 20.1722 132.672 20.1228 132.796 20.074L132.812 20.0674L132.828 20.0835C132.876 20.134 132.934 20.2048 133 20.2947L133.025 20.3292C133.235 20.6201 133.504 21.0658 133.85 21.6905L133.97 21.9108C134.47 22.8373 135.981 25.7353 136.337 26.3964L136.537 26.7672C136.975 27.5761 137.376 28.2853 137.759 28.9291L137.817 29.0252C137.943 29.2361 138.067 29.4388 138.189 29.6336C140.682 33.6141 142.577 34.3871 144.972 32.5396C146.049 31.7091 146.081 30.3574 145.36 28.7346C144.868 27.6262 144.023 26.4139 143.21 25.5184L142.923 25.2074C142.425 24.6756 141.452 23.6548 139.939 22.0762L134.402 16.3087C133.695 15.5588 132.713 15.1433 131.684 15.1576ZM131.695 15.9228C132.49 15.9118 133.25 16.2252 133.809 16.7957L140.801 24.0843C141.732 25.058 142.314 25.6731 142.581 25.9644C143.362 26.8105 144.193 27.992 144.661 29.0454C145.256 30.3838 145.232 31.3726 144.504 31.9335C142.539 33.4503 141.12 32.8717 138.838 29.2274C138.742 29.075 138.646 28.9175 138.547 28.7547L138.473 28.6317C138.04 27.9099 137.586 27.1023 137.077 26.1582L136.911 25.8479C136.415 24.9125 134.995 22.1906 134.587 21.4438L134.48 21.25C134.152 20.6594 133.89 20.2244 133.671 19.9163L133.646 19.8813C133.504 19.6846 133.378 19.5387 133.258 19.4392C133.067 19.2805 132.859 19.2079 132.639 19.3066L132.613 19.3192C132.517 19.3678 132.332 19.4315 132.08 19.5017C131.834 19.5699 131.531 19.6426 131.186 19.7178C130.827 19.7957 130.443 19.872 130.058 19.9435L129.803 19.9903L129.657 20.016L129.612 19.9971C129.491 19.9481 129.36 19.8992 129.221 19.8535C128.968 19.7704 128.719 19.7069 128.481 19.6709C128.263 19.638 128.059 19.6292 127.873 19.6496C127.679 19.6707 127.619 19.6487 127.614 19.6388C127.61 19.6306 127.606 19.6038 127.613 19.5556C127.623 19.482 127.655 19.3886 127.708 19.2828C127.746 19.2061 128.092 19.1031 128.615 19.0709C128.847 19.0567 129.079 19.0547 129.357 19.0611L129.772 19.0731C129.783 19.0733 129.793 19.0734 129.802 19.0734C130.006 19.0734 130.165 18.9524 130.24 18.7787C130.283 18.6814 130.298 18.5757 130.298 18.4535C130.298 18.2897 130.269 18.0882 130.217 17.8501C130.196 17.7557 130.173 17.6573 130.146 17.5561C130.122 17.4648 130.097 17.3747 130.071 17.2879L130.037 17.1732L130 17.0537C129.956 16.9213 129.844 16.823 129.707 16.7969L129.606 16.7789L129.557 16.7707C129.441 16.7517 129.312 16.7326 129.174 16.7149C128.824 16.6698 128.476 16.6404 128.147 16.6344C127.625 16.6249 127.196 16.6739 126.875 16.8064C126.481 16.9753 125.92 17.1247 125.46 17.1769L125.413 17.1819C125.335 17.1897 125.262 17.1945 125.195 17.1963L125.172 17.1966L125.205 17.1769C125.306 17.1183 125.418 17.0562 125.537 16.9928L125.617 16.9513C126.067 16.7173 126.538 16.5115 126.677 16.4811L126.829 16.4542C126.949 16.4324 127.123 16.4 127.344 16.3583L128.107 16.2129L129.483 15.948L131.695 15.9228Z" fill="#2F4077"/>
  <path fill-rule="evenodd" clip-rule="evenodd" d="M167.263 50.4901C167.263 50.4901 179.98 46.2681 183.705 42.8115C185.491 41.1533 181.766 36.1151 174.559 42.1865C167.353 48.2579 161.052 46.9186 161.052 46.9186L167.263 50.4901Z" fill="white"/>
  <path fill-rule="evenodd" clip-rule="evenodd" d="M174.313 41.8937C171.63 44.1546 168.896 45.5362 166.209 46.2059C164.364 46.6658 162.767 46.7429 161.519 46.601L161.425 46.5897C161.38 46.584 161.337 46.5781 161.298 46.5723L161.186 46.5543L161.132 46.5442C160.705 46.4535 160.483 47.0328 160.862 47.2502L167.073 50.8216C167.168 50.876 167.281 50.8874 167.385 50.8531L167.583 50.7864C167.726 50.738 167.889 50.6822 168.07 50.6194L168.507 50.4675C169.007 50.2921 169.548 50.0983 170.123 49.888C172.175 49.1368 174.227 48.3296 176.144 47.4972L176.432 47.3716C178.481 46.4724 180.241 45.5984 181.63 44.767C182.61 44.1812 183.394 43.6226 183.966 43.0918C185.123 42.017 184.439 40.0333 182.659 39.25C180.586 38.338 177.669 39.1004 174.412 41.811L174.313 41.8937ZM182.351 39.9505C183.679 40.5349 184.143 41.8823 183.445 42.5309C182.935 43.0039 182.224 43.5143 181.33 44.0543L181.237 44.1103C179.816 44.9607 177.984 45.8638 175.839 46.7952C174.037 47.5775 172.113 48.3385 170.182 49.051L169.86 49.1694C169.241 49.3958 168.661 49.603 168.13 49.7884L167.505 50.0046L167.305 50.0722L162.71 47.4305L162.762 47.4304C163.83 47.425 165.052 47.283 166.394 46.9485C169.155 46.2602 171.956 44.8545 174.694 42.5732L174.806 42.479C177.901 39.8722 180.562 39.1633 182.351 39.9505Z" fill="#2F4077"/>
  <path fill-rule="evenodd" clip-rule="evenodd" d="M177.073 46.1914L174.062 46.2679L171.486 34.1506C171.435 33.8827 171.205 33.6914 170.963 33.6914L151.907 33.9848C151.562 33.9848 151.307 34.3547 151.384 34.7246L153.807 47.6455C153.973 48.4491 154.981 49.0613 155.708 49.0485C160.389 48.972 174.432 48.7042 174.981 48.6914C177.506 48.6787 177.073 46.1914 177.073 46.1914Z" fill="#E4794A"/>
  <path fill-rule="evenodd" clip-rule="evenodd" d="M168.539 50.0297C164.291 51.8154 161.778 50.3996 160.49 48.0017C159.533 46.2159 158.411 43.818 159.164 43.4481C159.954 43.2823 160.911 46.267 160.911 46.267C160.911 46.267 159.317 42.8996 160.133 42.721C160.771 42.5935 161.383 43.9583 162.059 46.0629C162.059 46.0629 160.962 43.2568 160.975 42.8103C161.013 41.5348 162.11 41.4328 163.194 45.9736L162.25 42.7848C162.072 41.7772 163.003 41.9175 163.513 42.8358C164.061 43.818 165.516 47.1471 165.873 48.2313" fill="white"/>
  <path fill-rule="evenodd" clip-rule="evenodd" d="M160.923 41.8499C161.221 41.5694 161.62 41.6236 161.952 41.9301L161.975 41.9518L162.009 41.9853L162.012 41.981C162.145 41.7947 162.355 41.6899 162.627 41.7051L162.657 41.7073C163.094 41.7454 163.55 42.1147 163.848 42.6497C164.405 43.6485 165.87 46.9993 166.237 48.1119C166.303 48.3127 166.194 48.529 165.993 48.5951C165.792 48.6612 165.576 48.5521 165.51 48.3514L165.481 48.2672C165.087 47.1209 163.7 43.9547 163.179 43.0221C163.007 42.7126 162.775 42.5127 162.624 42.4754L162.617 42.4739L162.615 42.4836L162.613 42.4997C162.608 42.5482 162.611 42.6105 162.622 42.6855L162.624 42.6991L162.883 43.5737L162.889 43.5893C163.114 44.1857 163.334 44.9221 163.546 45.7972L163.567 45.8851C163.68 46.3605 162.991 46.5527 162.835 46.1051L162.828 46.0826L162.155 43.8088L162.142 43.7763C161.897 43.1389 161.66 42.7132 161.45 42.5085L161.426 42.486L161.412 42.4737L161.408 42.4846C161.386 42.552 161.365 42.6566 161.359 42.7882L161.358 42.8217C161.357 42.8583 161.397 43.0337 161.47 43.2797L161.48 43.3137C161.522 43.4516 161.572 43.6092 161.631 43.7837L161.658 43.8624L161.66 43.8682C161.88 44.3604 162.11 44.9843 162.365 45.7663L162.424 45.9463C162.575 46.4172 161.883 46.6633 161.703 46.2026L161.554 45.8165L161.532 45.7585C161.43 45.4896 161.328 45.2158 161.23 44.9474L161.131 44.6757L161.031 44.3913C161.014 44.3444 160.998 44.2984 160.983 44.2535L160.944 44.1415L160.922 44.0942C160.87 43.9797 160.818 43.8744 160.767 43.7778L160.745 43.7369C160.602 43.4707 160.468 43.2832 160.351 43.1774C160.332 43.1597 160.314 43.1451 160.297 43.1334L160.284 43.125L160.284 43.1341C160.283 43.1693 160.283 43.2114 160.287 43.2596L160.289 43.2893C160.311 43.5406 160.397 43.8894 160.534 44.3059L160.559 44.3824L160.588 44.4396C160.618 44.5011 160.649 44.5644 160.679 44.6295L160.709 44.6952C160.855 45.0143 160.993 45.3544 161.117 45.6942L161.159 45.8101C161.172 45.8478 161.185 45.8844 161.198 45.9198L161.257 46.0948L161.276 46.1506C161.419 46.598 160.791 46.8544 160.576 46.4515L160.566 46.4311C160.557 46.4131 160.542 46.3799 160.52 46.3333L160.476 46.2361C160.453 46.1851 160.429 46.1306 160.403 46.0731C160.283 45.7991 160.162 45.5099 160.049 45.218C159.985 45.0512 159.925 44.8882 159.87 44.7302L159.854 44.6847L159.841 44.6595C159.655 44.2987 159.476 44.0318 159.326 43.8964L159.307 43.8801L159.307 43.8845C159.302 43.9207 159.299 43.9645 159.3 44.0155L159.301 44.0469C159.313 44.2933 159.397 44.6401 159.547 45.0672C159.809 45.8115 160.252 46.7462 160.828 47.821C162.215 50.403 164.721 51.2202 168.391 49.6774C168.585 49.5955 168.81 49.687 168.892 49.8818C168.974 50.0766 168.882 50.301 168.687 50.3829C164.661 52.0755 161.731 51.1202 160.153 48.1828C159.56 47.076 159.103 46.1108 158.825 45.3215L158.789 45.216C158.417 44.1204 158.402 43.3968 158.995 43.1051C159.024 43.091 159.054 43.0805 159.085 43.074C159.232 43.0432 159.375 43.0601 159.511 43.1154L159.519 43.1184C159.53 42.7285 159.675 42.444 160.028 42.3533L160.058 42.3462C160.257 42.3066 160.44 42.335 160.613 42.4251L160.632 42.4356L160.639 42.402C160.687 42.1852 160.772 42.0044 160.899 41.8738L160.923 41.8499Z" fill="#2F4077"/>
  <path fill-rule="evenodd" clip-rule="evenodd" d="M164.891 46.3691C164.891 46.3691 165.732 44.5834 166.498 45.0936C167.263 45.6038 165.541 48.2824 165.541 48.2824" fill="white"/>
  <path fill-rule="evenodd" clip-rule="evenodd" d="M164.986 45.4622L165.042 45.3865C165.45 44.8422 165.881 44.5352 166.381 44.6363C166.496 44.6596 166.607 44.7063 166.71 44.7751C167.242 45.13 167.166 45.8251 166.761 46.7935C166.675 47.0019 166.572 47.2195 166.458 47.4432C166.328 47.6979 166.189 47.9476 166.051 48.1824L165.994 48.2773C165.976 48.3077 165.958 48.3368 165.941 48.3645L165.863 48.4892C165.749 48.6669 165.512 48.7184 165.334 48.6041C165.156 48.4898 165.105 48.2531 165.219 48.0753L165.265 48.0018L165.313 47.924C165.338 47.8831 165.364 47.8392 165.392 47.7927C165.523 47.5708 165.654 47.3347 165.777 47.0953C165.882 46.888 165.976 46.6878 166.055 46.4988C166.195 46.1649 166.281 45.8792 166.305 45.665C166.316 45.5667 166.312 45.4911 166.299 45.4424L166.293 45.4245C166.291 45.4181 166.289 45.415 166.287 45.4132L166.285 45.4118C166.264 45.3973 166.246 45.3897 166.23 45.3865C166.11 45.3622 165.868 45.5461 165.608 45.9085C165.51 46.0448 165.419 46.1927 165.337 46.3407L165.296 46.4153L165.261 46.4832C165.248 46.5079 165.24 46.5246 165.237 46.5321C165.147 46.7233 164.919 46.8052 164.727 46.7151C164.536 46.625 164.454 46.397 164.544 46.2058L164.57 46.1525C164.594 46.1048 164.627 46.0428 164.667 45.97C164.762 45.7976 164.869 45.625 164.986 45.4622Z" fill="#2F4077"/>
  <path fill-rule="evenodd" clip-rule="evenodd" d="M147.009 66.2549C146.983 66.2294 146.945 66.1911 146.92 66.1656C144.713 64.1886 142.596 61.7268 140.542 60.7575C140.006 57.9896 137.685 54.8774 128.348 56.612C122.481 58.0661 121.18 60.2217 121.843 62.3391C119.828 63.5508 115.721 66.51 112.034 72.2115C106.932 80.1197 123.399 92.6197 126.295 92.6197C129.19 92.6197 149.662 84.6222 149.662 84.6222L150.861 80.9743C152.596 75.7319 151.09 69.9539 147.009 66.2549Z" fill="#E4794A"/>
  <path fill-rule="evenodd" clip-rule="evenodd" d="M140.542 60.7324C140.771 61.8804 140.682 62.9646 140.644 63.6278C140.529 66.3957 139.049 67.7095 138.73 68.7426C140.746 67.5436 142.608 64.7758 143.526 62.9646C142.952 62.4161 141.549 61.2299 140.542 60.7324Z" fill="#2F4077"/>
  <path fill-rule="evenodd" clip-rule="evenodd" d="M129.062 68.9594C128.067 68.5002 122.646 65.388 121.792 62.1992C120.771 62.7477 119.496 63.5513 118.501 64.7375C119.649 65.439 126.129 69.2911 128.998 69.0742C129.037 69.0742 129.075 69.0615 129.113 69.0615C129.1 69.0232 129.088 68.9849 129.062 68.9594Z" fill="#2F4077"/>
  <path fill-rule="evenodd" clip-rule="evenodd" d="M127.238 60.7453L126.077 61.9443C126.077 61.9443 131.6 66.1407 133.399 76.2682C134.572 82.8499 135.172 89.0233 135.172 89.0233L138.59 88.8448C138.59 88.8448 135.682 72.4672 136.868 69.0106C138.054 65.554 136.97 61.6637 136.166 61.0387C135.363 60.3881 127.238 60.7453 127.238 60.7453Z" fill="white"/>
  <path fill-rule="evenodd" clip-rule="evenodd" d="M126.142 53.6148C126.142 53.6148 124.152 54.1505 124.943 55.8597C125.733 57.5689 127.698 55.9745 127.698 55.9745L126.767 53.5L126.142 53.6148Z" fill="white"/>
  <path fill-rule="evenodd" clip-rule="evenodd" d="M126.697 53.1235L126.072 53.2383L126.057 53.2414L126.042 53.2452C125.985 53.2606 125.894 53.2901 125.782 53.3355C125.596 53.4103 125.411 53.5051 125.236 53.623C124.439 54.1587 124.115 54.9817 124.595 56.0203C124.93 56.745 125.498 57.0718 126.182 57.0292C126.572 57.0048 126.97 56.8644 127.365 56.6478C127.619 56.5086 127.818 56.3693 127.939 56.2715C128.067 56.1677 128.114 55.9937 128.056 55.8396L127.125 53.3651C127.059 53.1918 126.879 53.0901 126.697 53.1235ZM126.521 53.9339L127.236 55.8336L127.207 55.8522C127.141 55.8948 127.07 55.9367 126.997 55.9768C126.692 56.144 126.394 56.2491 126.134 56.2653C125.761 56.2886 125.491 56.133 125.29 55.6989C124.983 55.0353 125.154 54.6 125.663 54.2582C125.79 54.1724 125.929 54.1014 126.068 54.0452L126.095 54.0347L126.143 54.0164C126.173 54.0055 126.198 53.9971 126.217 53.9912L126.228 53.9878L126.521 53.9339Z" fill="#2F4077"/>
  <path fill-rule="evenodd" clip-rule="evenodd" d="M130.466 46.5487C130.989 46.3701 134.548 45.2477 135.696 48.1686C136.844 51.0895 137.239 54.5334 137.277 56.1405C137.315 57.7477 130.211 58.7553 129.79 58.717C129.369 58.6788 128.782 58.3344 128.782 58.3344L126.69 53.9339C126.665 53.9211 124.905 48.4109 130.466 46.5487Z" fill="white"/>
  <path fill-rule="evenodd" clip-rule="evenodd" d="M131.267 45.9404C130.906 46.0123 130.599 46.0985 130.342 46.1865C127.77 47.0478 126.44 48.7262 126.105 50.8757C125.988 51.6239 126.002 52.3766 126.109 53.0929L126.116 53.1445C126.182 53.5707 126.252 53.8922 126.351 54.0865L126.355 54.093L126.344 54.0981L128.436 58.4986C128.469 58.5678 128.522 58.6256 128.588 58.6643L128.635 58.6913C128.728 58.7435 128.858 58.8102 129.008 58.8771C129.136 58.9338 129.261 58.9822 129.382 59.0196C129.514 59.0604 129.638 59.0874 129.755 59.0981L129.784 59.0999C130.217 59.1163 132.179 58.8062 133.687 58.444L133.796 58.4174C136.257 57.813 137.683 57.1294 137.659 56.1313C137.604 53.8094 137.037 50.5378 136.051 48.0286C135.484 46.5849 134.341 45.8976 132.867 45.8142C132.342 45.7845 131.803 45.8336 131.267 45.9404ZM127.032 53.7554C127.019 53.7138 127.004 53.6585 126.987 53.5945C126.942 53.4171 126.9 53.2084 126.865 52.9799C126.769 52.3356 126.757 51.6591 126.861 50.9939C127.151 49.1377 128.269 47.7096 130.516 46.9357L130.587 46.9115C130.817 46.8329 131.092 46.7556 131.417 46.6909C131.893 46.596 132.37 46.5526 132.824 46.5783C134.021 46.646 134.891 47.1695 135.339 48.3085C136.289 50.7267 136.841 53.9115 136.894 56.1496C136.904 56.5677 135.628 57.1794 133.614 57.6741C132.864 57.8583 132.049 58.0208 131.275 58.1476L130.997 58.1919C130.402 58.2836 129.891 58.342 129.824 58.3359C129.766 58.3306 129.692 58.3146 129.608 58.2885C129.519 58.2608 129.421 58.223 129.319 58.1777L129.255 58.1484C129.212 58.1285 129.17 58.1081 129.13 58.0875L129.074 58.0587L127.036 53.7695C126.999 53.6924 126.937 53.6298 126.861 53.5916C126.986 53.6541 126.951 53.4964 126.986 53.6045L127.032 53.7554Z" fill="#2F4077"/>
  <path fill-rule="evenodd" clip-rule="evenodd" d="M128.578 57.3652L128.45 59.5846L127.354 60.8474V60.8474C127.354 60.8474 130.593 62.8499 133.693 66.3831C133.693 66.3831 136.231 63.7045 136.677 59.5081L130.734 60.2479L130.262 57.9265L128.578 57.3652Z" fill="white"/>
  <path fill-rule="evenodd" clip-rule="evenodd" d="M128.196 57.3434L128.076 59.4324L127.065 60.5965C126.915 60.7685 126.949 61.0301 127.132 61.1596L127.279 61.2537L127.405 61.3372C127.48 61.3867 127.561 61.4414 127.648 61.5014C128.049 61.7766 128.497 62.1025 128.979 62.4774C130.358 63.5497 131.737 64.7982 133.023 66.209C133.152 66.3501 133.279 66.4922 133.405 66.6355C133.554 66.8048 133.816 66.8099 133.97 66.6464L133.992 66.6229C134.021 66.5912 134.063 66.5447 134.115 66.4838C134.224 66.3561 134.345 66.2059 134.475 66.034C134.844 65.5457 135.212 64.9794 135.555 64.3406C136.336 62.8891 136.873 61.283 137.058 59.5487L137.06 59.5265C137.071 59.2913 136.867 59.0989 136.63 59.1285L131.038 59.8244L130.637 57.8503C130.609 57.7162 130.512 57.6068 130.383 57.5635L128.699 57.0023C128.46 56.9226 128.21 57.0918 128.196 57.3434ZM128.931 57.8865L129.931 58.2197L130.359 60.3242L130.364 60.3465C130.413 60.5301 130.59 60.6514 130.781 60.6277L136.236 59.9487L136.219 60.0585C135.997 61.4636 135.528 62.7763 134.881 63.9782C134.557 64.5809 134.21 65.1145 133.864 65.5726L133.819 65.6314C133.79 65.67 133.761 65.7072 133.733 65.743L133.686 65.8008L133.589 65.6933C132.271 64.2482 130.86 62.9708 129.449 61.8733C128.987 61.5144 128.556 61.1988 128.165 60.9278L127.976 60.7983L127.93 60.7672L128.739 59.8357C128.795 59.7717 128.828 59.6912 128.832 59.6067L128.931 57.8865Z" fill="#2F4077"/>
  <path fill-rule="evenodd" clip-rule="evenodd" d="M127.34 53.7168C127.761 53.9591 129.152 55.6556 129.598 56.4974C129.598 56.4974 131.677 55.1836 134.917 54.3418C134.917 54.3418 136.69 53.9336 137.455 53.9719C137.455 53.9719 138.08 57.1734 137.06 59.176C136.027 61.1658 132.889 61.4591 131.218 60.8214C129.547 60.1836 129.203 59.7755 128.616 58.8061C128.029 57.8367 126.18 54.1122 126.18 54.1122L127.34 53.7168Z" fill="#869ECE"/>
  <path fill-rule="evenodd" clip-rule="evenodd" d="M126.575 54.6226C126.575 54.6226 125.274 53.3981 124.534 51.9696C123.846 50.6303 124.139 48.9721 125.3 48.0027C126.269 47.1992 127.187 47.416 127.187 47.416C127.187 47.416 125.529 45.7068 126.843 43.5129C127.315 42.7349 128.08 42.1864 128.96 41.9951C131.116 41.5231 132.238 43.1813 132.238 43.1813C132.238 43.1813 133.488 38.3981 138.82 39.7247C139.356 39.865 140.07 40.4262 140.44 40.8344C142.698 43.3216 138.412 47.9772 135.81 48.9083C132.953 49.9287 131.116 49.865 129.994 49.3803C130.81 49.6354 131.103 54.2272 126.575 54.6226Z" fill="#2F4077"/>
  <path fill-rule="evenodd" clip-rule="evenodd" d="M134.414 52.7709C134.605 52.7003 134.817 52.7919 134.897 52.9763L134.906 52.9971L135.901 55.6885C135.991 55.9332 135.816 56.1923 135.559 56.2034L135.537 56.2038L134.504 56.191C134.293 56.1884 134.123 56.015 134.126 55.8037C134.129 55.5999 134.29 55.4353 134.491 55.4261L134.513 55.4258L134.99 55.4316L134.188 53.2625C134.117 53.0714 134.209 52.8599 134.393 52.7793L134.414 52.7709Z" fill="#2F4077"/>
  <path fill-rule="evenodd" clip-rule="evenodd" d="M135.894 53.2916C136.052 53.2527 136.131 53.0272 136.072 52.7878C136.013 52.5485 135.838 52.3859 135.68 52.4248C135.523 52.4636 135.443 52.6892 135.503 52.9285C135.562 53.1679 135.737 53.3304 135.894 53.2916Z" fill="#2F4077"/>
  <path fill-rule="evenodd" clip-rule="evenodd" d="M133.341 53.902C133.503 53.8932 133.623 53.6866 133.61 53.4404C133.597 53.1942 133.455 53.0017 133.293 53.0105C133.131 53.0193 133.011 53.2259 133.024 53.4721C133.037 53.7183 133.179 53.9108 133.341 53.902Z" fill="#2F4077"/>
  <path fill-rule="evenodd" clip-rule="evenodd" d="M132.502 51.2817C132.713 51.2721 132.892 51.4354 132.901 51.6465C132.91 51.8501 132.759 52.0238 132.559 52.0445L132.536 52.0462C132.273 52.0581 132.069 52.1524 131.908 52.305C131.847 52.3626 131.796 52.4246 131.757 52.4856L131.74 52.5113C131.731 52.5265 131.725 52.5374 131.722 52.5431L131.721 52.5464C131.635 52.7395 131.409 52.8265 131.216 52.7406C131.023 52.6548 130.936 52.4287 131.021 52.2355C131.039 52.1952 131.07 52.1377 131.115 52.0686C131.186 51.9588 131.275 51.85 131.383 51.7482C131.672 51.4754 132.046 51.3024 132.502 51.2817Z" fill="#2F4077"/>
  <path fill-rule="evenodd" clip-rule="evenodd" d="M135.737 49.6897C136.041 49.6951 136.317 49.7976 136.537 50.0124C136.688 50.16 136.691 50.4023 136.543 50.5535C136.401 50.6987 136.173 50.7072 136.021 50.577L136.002 50.56C135.93 50.4899 135.842 50.457 135.724 50.4549C135.584 50.4524 135.417 50.4946 135.246 50.5686C135.201 50.5884 135.157 50.6093 135.117 50.6304L135.079 50.6514C135.059 50.6621 135.045 50.6707 135.035 50.6765L135.024 50.6832C134.848 50.7987 134.61 50.7489 134.495 50.5719C134.379 50.395 134.429 50.1579 134.606 50.0423C134.679 49.995 134.794 49.9303 134.942 49.8663C135.205 49.7526 135.472 49.6849 135.737 49.6897Z" fill="#2F4077"/>
  <path fill-rule="evenodd" clip-rule="evenodd" d="M134.841 56.6792L134.841 56.6766L133.272 56.7786C132.976 56.7979 132.814 57.1322 132.982 57.3769C133.008 57.4148 133.049 57.4647 133.109 57.5219C133.198 57.6079 133.308 57.6914 133.44 57.7676C133.717 57.9271 134.06 58.0364 134.471 58.077C134.487 58.0785 134.502 58.0791 134.517 58.0788C134.976 58.069 135.253 57.7973 135.288 57.4119C135.298 57.3085 135.29 57.2089 135.27 57.1079L135.257 57.0487L135.244 56.9962L135.241 56.9776C135.209 56.8167 135.083 56.6758 134.866 56.6758L134.841 56.6792Z" fill="#2F4077"/>
  <path fill-rule="evenodd" clip-rule="evenodd" d="M129.536 67.8557C129.723 67.7749 129.939 67.855 130.029 68.0348L130.045 68.0698L130.119 68.246L130.168 68.3639C130.217 68.4858 130.271 68.6192 130.328 68.7631C130.543 69.3106 130.758 69.8974 130.959 70.5008C131.174 71.1448 131.36 71.7703 131.508 72.364C131.681 73.0577 131.8 73.6918 131.854 74.2544C131.874 74.4648 131.72 74.6517 131.51 74.672C131.3 74.6923 131.113 74.5382 131.092 74.3279C131.042 73.8071 130.93 73.2091 130.766 72.5496C130.622 71.9764 130.442 71.3693 130.233 70.7428C130.056 70.2121 129.868 69.6939 129.679 69.205L129.615 69.0432C129.542 68.8558 129.473 68.6869 129.412 68.5391L129.336 68.3588C129.252 68.1648 129.342 67.9395 129.536 67.8557Z" fill="#2F4077"/>
  <path fill-rule="evenodd" clip-rule="evenodd" d="M137.919 67.979C138.122 67.9615 138.302 68.1059 138.331 68.3051L138.455 69.6932L138.501 70.2052C138.572 70.9722 138.644 71.7328 138.716 72.458L138.783 73.1311C138.812 73.414 138.841 73.6856 138.868 73.9447C138.891 74.1548 138.738 74.3433 138.528 74.3657C138.318 74.3881 138.13 74.2359 138.107 74.0258L138.065 73.6262C138.037 73.3538 138.008 73.0695 137.978 72.7745L137.906 72.0438C137.842 71.3849 137.778 70.7032 137.716 70.019L137.613 68.8709L137.571 68.393C137.553 68.1825 137.709 67.9971 137.919 67.979Z" fill="#2F4077"/>
  <path fill-rule="evenodd" clip-rule="evenodd" d="M125.556 73.2654C125.714 73.1251 125.955 73.1395 126.096 73.2976C126.231 73.4495 126.223 73.679 126.081 73.8211L126.064 73.8378L123.678 75.9551C123.552 76.0674 123.367 76.0833 123.223 75.9943C121.876 75.1606 120.76 75.1879 119.857 75.718C119.72 75.7983 119.601 75.8841 119.502 75.9688L119.467 75.9989C119.441 76.0222 119.421 76.0408 119.409 76.0538L119.396 76.0665C119.254 76.2229 119.012 76.2346 118.856 76.0926C118.699 75.9505 118.688 75.7085 118.83 75.5521C118.864 75.5141 118.923 75.4567 119.005 75.3864C119.138 75.2737 119.292 75.1619 119.47 75.058C120.539 74.4306 121.854 74.3613 123.332 75.1721L123.379 75.1979L125.556 73.2654Z" fill="#2F4077"/>
  <path fill-rule="evenodd" clip-rule="evenodd" d="M122.863 75.3512C122.964 75.1745 123.184 75.1087 123.364 75.1976L123.454 75.2483L125.224 76.2569L128.631 78.1908C129.148 78.4823 129.478 78.667 129.576 78.718L129.598 78.7289C129.788 78.8201 129.869 79.0485 129.778 79.2392C129.686 79.4298 129.458 79.5105 129.267 79.4193L129.182 79.3749C128.978 79.265 128.466 78.9774 127.686 78.5358L125.906 77.5255L123.006 75.8732C122.822 75.7685 122.758 75.5348 122.863 75.3512Z" fill="#2F4077"/>
  <path fill-rule="evenodd" clip-rule="evenodd" d="M142.837 72.4359C143.023 72.3537 143.24 72.4323 143.332 72.6114L143.341 72.6317L144.528 75.3231C144.613 75.5164 144.525 75.7423 144.332 75.8275C144.145 75.9097 143.929 75.8312 143.837 75.652L143.827 75.6317L142.641 72.9404C142.556 72.747 142.643 72.5212 142.837 72.4359Z" fill="#2F4077"/>
  <path fill-rule="evenodd" clip-rule="evenodd" d="M129.139 89.5718C129.139 89.5718 123.22 87.11 115.886 82.0335C108.565 76.957 103.896 84.8141 105.873 88.0284C107.608 90.86 117.366 100.605 117.366 100.605L150.554 100.337C150.554 100.337 158.348 90.5284 159.572 88.985C163.718 83.7809 160.286 81.0386 155.746 80.6432C151.46 80.2733 139.904 88.6917 138.488 89.7758L129.139 89.5718Z" fill="#2F4077"/>
  <path fill-rule="evenodd" clip-rule="evenodd" d="M149.444 75.1963H128.118C127.837 75.1963 127.595 75.3876 127.531 75.6555L124.636 87.8876H119.279C119.279 87.8876 118.794 90.4004 121.626 90.4004C122.353 90.4004 123.424 90.4004 124.636 90.4004C124.687 90.4131 124.751 90.4259 124.802 90.4259H146.128C146.409 90.4259 146.651 90.2346 146.715 89.9667L150.031 75.9488C150.12 75.5534 149.827 75.1963 149.444 75.1963Z" fill="#465F9D"/>
  <path fill-rule="evenodd" clip-rule="evenodd" d="M200.899 100.171C201.11 100.171 201.281 100.342 201.281 100.554C201.281 100.757 201.122 100.924 200.921 100.936L200.899 100.936H0.592614C0.381281 100.936 0.209961 100.765 0.209961 100.554C0.209961 100.35 0.369262 100.183 0.57013 100.172L0.592614 100.171H200.899Z" fill="#2F4077"/>
</svg>
