<svg width="258" height="125" viewBox="0 0 258 125" fill="none" xmlns="http://www.w3.org/2000/svg">
<path fill-rule="evenodd" clip-rule="evenodd" d="M61.3223 79.698C61.7389 79.34 61.9544 78.8102 61.8826 78.2661C60.719 67.8421 55.9495 57.1031 48.508 53.1654C40.8653 49.1132 35.6361 60.3534 46.2382 70.7918C54.2112 78.6527 58.4779 79.9271 60.1012 80.0703C60.5609 80.1276 60.9919 79.9844 61.3223 79.698Z" fill="#FAA184"/>
<path fill-rule="evenodd" clip-rule="evenodd" d="M42.0099 53.8084C42.1706 53.6465 42.4285 53.6386 42.5986 53.7859L42.6334 53.8189L42.8573 54.0429C43.0323 54.2191 43.2326 54.423 43.4563 54.6531L43.7311 54.9371C44.3938 55.6241 45.1217 56.3971 45.8997 57.2459C48.3566 59.926 50.8134 62.8123 53.1073 65.7959C55.8557 69.3706 58.182 72.8445 59.9525 76.1298C60.5086 77.1618 61.0066 78.1697 61.4434 79.1516C61.5398 79.3685 61.4417 79.6222 61.2241 79.7184C61.0065 79.8146 60.7519 79.7167 60.6554 79.4998C60.2277 78.5384 59.7393 77.5498 59.1931 76.5363C57.447 73.2961 55.1454 69.8592 52.4231 66.3185C50.227 63.462 47.8787 60.6933 45.5249 58.1114L45.2634 57.8253C44.4498 56.9377 43.6916 56.1339 43.0066 55.4256L42.7071 55.1174C42.6223 55.0304 42.5412 54.9477 42.4641 54.8693L42.1234 54.5256L42.0132 54.4158C41.844 54.249 41.8425 53.977 42.0099 53.8084Z" fill="#2F4077"/>
<path fill-rule="evenodd" clip-rule="evenodd" d="M44.672 68.0142L44.8484 68.0112C45.1354 68.0088 45.5073 68.0158 45.9544 68.0378L46.0392 68.0422C46.8434 68.0843 47.7203 68.167 48.6538 68.2998C51.213 68.6637 53.8024 69.3419 56.2925 70.4116C56.511 70.5055 56.6119 70.7582 56.5177 70.9761C56.4235 71.194 56.1699 71.2945 55.9513 71.2006C53.5365 70.1632 51.0199 69.504 48.5321 69.1503C47.6248 69.0212 46.7733 68.9409 45.9939 68.9001L45.8327 68.8921C45.4387 68.874 45.1108 68.8682 44.8573 68.8703L44.7013 68.8728C44.4634 68.8809 44.264 68.6952 44.2559 68.4581C44.2478 68.221 44.4341 68.0222 44.672 68.0142Z" fill="#2F4077"/>
<path fill-rule="evenodd" clip-rule="evenodd" d="M50.8964 55.0394C51.1037 54.9228 51.3666 54.9958 51.4836 55.2025L51.6065 55.4228C51.6514 55.5037 51.7007 55.5933 51.7543 55.6914L51.9064 55.9709C52.0796 56.2907 52.2664 56.6411 52.4639 57.0184C53.1976 58.4194 53.9313 59.9042 54.6164 61.4081C55.1585 62.5981 55.6478 63.7522 56.0716 64.8536L56.1623 65.0912C57.327 68.1649 57.9085 70.6455 57.7433 72.3649C57.7206 72.601 57.5101 72.7741 57.2732 72.7515C57.0362 72.7289 56.8625 72.5191 56.8852 72.283C57.0383 70.6897 56.4469 68.2281 55.2668 65.1612C54.8496 64.0769 54.3669 62.9385 53.8315 61.7633C53.1535 60.2749 52.4266 58.8039 51.6998 57.4159L51.5267 57.087C51.3945 56.837 51.2679 56.6006 51.148 56.3791L50.9664 56.0457L50.7588 55.6708C50.7474 55.6504 50.7387 55.6349 50.7328 55.6246C50.6159 55.418 50.6891 55.156 50.8964 55.0394Z" fill="#2F4077"/>
<path fill-rule="evenodd" clip-rule="evenodd" d="M51.404 74.4717L51.6247 74.4676C52.1299 74.4625 52.7749 74.4821 53.5126 74.5435C54.727 74.6444 55.9277 74.8398 57.0545 75.1528C58.1323 75.4522 59.0984 75.8481 59.9245 76.3537C60.1273 76.4778 60.1908 76.7424 60.0663 76.9445C59.9417 77.1467 59.6763 77.21 59.4735 77.0858C58.7216 76.6257 57.8284 76.2596 56.8231 75.9804C55.7535 75.6832 54.605 75.4964 53.441 75.3996C52.7 75.338 52.058 75.3202 51.5701 75.3274L51.4259 75.3306C51.1881 75.3394 50.9881 75.1544 50.9792 74.9173C50.9707 74.6887 51.143 74.4951 51.3686 74.4737L51.404 74.4717Z" fill="#2F4077"/>
<path fill-rule="evenodd" clip-rule="evenodd" d="M70.7751 70.1617C71.3497 70.5483 71.9962 70.6199 72.5134 70.3335C82.4976 64.921 90.9161 54.8263 91.0453 43.9298C91.189 32.7183 77.0673 30.37 71.9818 47.7386C68.1461 60.7972 69.0655 66.6822 69.7551 68.7871C69.9419 69.3455 70.3154 69.8467 70.7751 70.1617Z" fill="#FAA184"/>
<path fill-rule="evenodd" clip-rule="evenodd" d="M86.9782 36.5919C87.1882 36.4802 87.4492 36.5595 87.5612 36.7688C87.6732 36.9782 87.5937 37.2383 87.3837 37.35C82.9604 39.7005 79.2895 45.3361 76.348 53.256C74.9432 57.0386 73.7977 61.0949 72.8928 65.1517L72.8078 65.5365C72.5564 66.683 72.3402 67.7595 72.1579 68.7472L72.0983 69.0732C72.0423 69.3834 71.9928 69.6673 71.9497 69.9232L71.8693 70.4155L71.8479 70.5541C71.8129 70.7887 71.5937 70.9507 71.3583 70.9159C71.1312 70.8823 70.972 70.678 70.9922 70.453L70.9982 70.4085L71.0491 70.0864L71.0853 69.8668C71.1228 69.6418 71.1654 69.3945 71.2132 69.1261L71.25 68.9209C71.4657 67.727 71.732 66.3972 72.0514 64.9652C72.9642 60.8732 74.1199 56.7807 75.5397 52.9578C78.5483 44.857 82.3195 39.0675 86.9782 36.5919Z" fill="#2F4077"/>
<path fill-rule="evenodd" clip-rule="evenodd" d="M90.3103 45.2267C90.5278 45.1305 90.7825 45.2283 90.879 45.4451C90.9756 45.662 90.8775 45.9158 90.6599 46.012C88.4565 46.9867 85.921 48.2091 83.4667 49.554L83.2168 49.6915C79.7795 51.5917 77.1375 53.4029 75.6606 55.0026C75.4994 55.1772 75.2268 55.1885 75.0516 55.0278C74.8765 54.8672 74.8651 54.5955 75.0263 54.4209C76.5998 52.7165 79.3494 50.8386 82.9219 48.8722L83.0514 48.8011C85.53 47.443 88.0863 46.2105 90.3103 45.2267Z" fill="#2F4077"/>
<path fill-rule="evenodd" clip-rule="evenodd" d="M72.1417 47.57C72.1637 47.3338 72.3737 47.1601 72.6107 47.182C72.8477 47.204 73.022 47.4133 73 47.6495L72.9674 48.0057C72.45 53.7995 72.6004 58.4322 73.8043 60.0072C73.9486 60.1959 73.912 60.4654 73.7227 60.6092C73.5334 60.753 73.263 60.7165 73.1187 60.5278C72.3113 59.4716 71.9251 57.4382 71.8473 54.6055C71.7893 52.4928 71.9078 50.0786 72.1417 47.57Z" fill="#2F4077"/>
<path fill-rule="evenodd" clip-rule="evenodd" d="M85.6761 57.8416C85.8619 57.6933 86.1331 57.7232 86.2819 57.9084C86.4307 58.0936 86.4006 58.3639 86.2148 58.5122C84.8765 59.5803 82.9469 60.6845 80.5753 61.8011C78.9292 62.5761 77.1675 63.3116 75.406 63.9845L75.1247 64.0914C74.6612 64.2666 74.2251 64.427 73.8229 64.5712L73.4484 64.7043L73.0539 64.841C72.8284 64.9171 72.5838 64.7967 72.5074 64.572C72.4338 64.3553 72.5436 64.1208 72.7536 64.0361L73.2216 63.8729L73.4129 63.8051C73.921 63.6239 74.4874 63.4153 75.0975 63.1822C76.8402 62.5166 78.5827 61.7891 80.2072 61.0242C82.5231 59.9338 84.4007 58.8595 85.6761 57.8416Z" fill="#2F4077"/>
<path fill-rule="evenodd" clip-rule="evenodd" d="M78.0942 77.3797C78.3314 77.3598 78.5399 77.5352 78.5599 77.7716C78.5799 78.008 78.4038 78.2159 78.1666 78.2358C75.3516 78.4725 73.1154 80.004 71.3885 82.4285C70.7216 83.3648 70.179 84.3703 69.7522 85.3759C69.6178 85.6923 69.504 85.9881 69.4097 86.2567L69.3791 86.3453C69.3559 86.4128 69.3353 86.4751 69.3171 86.5319L69.2915 86.6128C69.2777 86.6575 69.2689 86.6872 69.2651 86.7008C69.201 86.9293 68.9632 87.0627 68.734 86.9988C68.5047 86.9349 68.3709 86.6979 68.435 86.4694L68.466 86.3649C68.4869 86.2973 68.5147 86.2109 68.5498 86.1074L68.5633 86.0678C68.6696 85.7573 68.8008 85.4122 68.9583 85.0411C69.4081 83.9817 69.9798 82.9223 70.6857 81.9312C72.5476 79.3171 74.996 77.6402 78.0942 77.3797Z" fill="#2F4077"/>
<path fill-rule="evenodd" clip-rule="evenodd" d="M78.2933 77.6285C78.7964 77.5594 79.0349 76.2777 78.826 74.7657C78.6172 73.2536 78.04 72.0838 77.537 72.1528C77.0339 72.2219 76.7954 73.5036 77.0043 75.0156C77.2131 76.5277 77.7903 77.6975 78.2933 77.6285Z" fill="#E4794A"/>
<path fill-rule="evenodd" clip-rule="evenodd" d="M80.7927 76.6714C81.8824 75.7885 82.5305 74.7842 82.2402 74.4282C81.95 74.0723 80.8312 74.4996 79.7415 75.3825C78.6517 76.2654 78.0036 77.2697 78.2939 77.6257C78.5842 77.9816 79.7029 77.5543 80.7927 76.6714Z" fill="#E4794A"/>
<path fill-rule="evenodd" clip-rule="evenodd" d="M78.2986 77.5683C78.5316 77.1186 77.6176 76.1863 76.257 75.4859C74.8965 74.7855 73.6046 74.5823 73.3716 75.032C73.1386 75.4817 74.0526 76.414 75.4132 77.1144C76.7737 77.8148 78.0655 78.018 78.2986 77.5683Z" fill="#E4794A"/>
<path fill-rule="evenodd" clip-rule="evenodd" d="M82.7756 80.0348C82.9943 79.6312 82.1701 78.7647 80.9346 78.0993C79.699 77.4338 78.5201 77.2215 78.3013 77.6251C78.0826 78.0286 78.9068 78.8951 80.1423 79.5606C81.3779 80.226 82.5568 80.4383 82.7756 80.0348Z" fill="#E4794A"/>
<path fill-rule="evenodd" clip-rule="evenodd" d="M77.9752 80.2962C78.5652 79.026 78.7049 77.8401 78.2873 77.6474C77.8697 77.4547 77.0529 78.3282 76.4629 79.5985C75.873 80.8687 75.7333 82.0546 76.1509 82.2473C76.5685 82.44 77.3853 81.5665 77.9752 80.2962Z" fill="#E4794A"/>
<path fill-rule="evenodd" clip-rule="evenodd" d="M55.0224 44.9809C55.1699 44.7947 55.441 44.7631 55.6277 44.9102L55.6975 44.9669C55.716 44.9823 55.7372 45 55.7609 45.02L55.8412 45.0887C55.9244 45.1606 56.0163 45.2422 56.1164 45.3336C56.495 45.679 56.9155 46.0953 57.3676 46.5833C58.6549 47.973 59.9406 49.6612 61.1396 51.6556C63.4733 55.5372 65.1914 60.0958 66.0368 65.352C67.0786 71.8286 66.7367 79.0442 64.7575 87.0178C64.7004 87.2481 64.4667 87.3886 64.2357 87.3316C64.0046 87.2747 63.8636 87.0418 63.9208 86.8115C65.8726 78.9484 66.209 71.8491 65.1858 65.488C64.3582 60.3428 62.6789 55.8873 60.4003 52.0972C59.2327 50.1551 57.9827 48.5138 56.7343 47.1661C56.3261 46.7254 55.9459 46.3469 55.6025 46.0298L55.5343 45.9672C55.4246 45.867 55.326 45.78 55.2395 45.7059L55.1485 45.6292C55.1226 45.6077 55.1041 45.5927 55.0933 45.5842C54.9065 45.4371 54.8748 45.167 55.0224 44.9809Z" fill="#2F4077"/>
<path fill-rule="evenodd" clip-rule="evenodd" d="M56.6213 46.12C57.4846 45.6176 57.3543 43.7931 56.3302 42.0448C55.3061 40.2965 53.7761 39.2864 52.9127 39.7888C52.0494 40.2912 52.1797 42.1158 53.2038 43.8641C54.2279 45.6124 55.7579 46.6224 56.6213 46.12Z" fill="#E4794A"/>
<path fill-rule="evenodd" clip-rule="evenodd" d="M56.8501 46.1073C56.87 45.1111 55.24 44.2708 53.2093 44.2305C51.1785 44.1902 49.5162 44.9651 49.4963 45.9613C49.4764 46.9575 51.1065 47.7978 53.1372 47.8381C55.1679 47.8784 56.8302 47.1035 56.8501 46.1073Z" fill="#E4794A"/>
<path fill-rule="evenodd" clip-rule="evenodd" d="M60.1314 44.5476C61.2284 43.1041 61.5435 41.5003 60.8352 40.9656C60.1269 40.4308 58.6634 41.1674 57.5663 42.6109C56.4693 44.0544 56.1542 45.6581 56.8625 46.1929C57.5708 46.7277 59.0343 45.991 60.1314 44.5476Z" fill="#E4794A"/>
<path fill-rule="evenodd" clip-rule="evenodd" d="M58.3829 51.3858C59.1918 51.0192 59.2379 49.3856 58.4859 47.7372C57.7339 46.0887 56.4685 45.0495 55.6596 45.4161C54.8507 45.7827 54.8045 47.4162 55.5566 49.0647C56.3086 50.7132 57.5739 51.7524 58.3829 51.3858Z" fill="#E4794A"/>
<path fill-rule="evenodd" clip-rule="evenodd" d="M61.2264 46.4017C61.3107 45.6074 60.0549 44.8239 58.4216 44.6516C56.7883 44.4794 55.3959 44.9838 55.3116 45.7781C55.2273 46.5724 56.483 47.3559 58.1163 47.5281C59.7497 47.7003 61.1421 47.196 61.2264 46.4017Z" fill="#E4794A"/>
<path fill-rule="evenodd" clip-rule="evenodd" d="M49.3843 88.3894L56.1363 118.516H77.5845L84.3365 88.3894C84.7244 86.6711 83.6326 84.9815 82.1385 84.9815H51.5823C50.0882 84.9672 48.9964 86.6568 49.3843 88.3894Z" fill="white"/>
<path fill-rule="evenodd" clip-rule="evenodd" d="M82.1385 84.5518L51.5864 84.5519C49.7889 84.5348 48.52 86.501 48.9637 88.4829L55.7156 118.61C55.7596 118.806 55.9344 118.945 56.1363 118.945H77.5845C77.7863 118.945 77.9611 118.806 78.0051 118.61L84.7571 88.483C85.201 86.5165 83.9331 84.5518 82.1385 84.5518ZM82.1385 85.411L82.1761 85.4114C83.3524 85.4408 84.2439 86.8427 83.916 88.295L77.2392 118.086H56.4815L49.8049 88.2957C49.4767 86.8298 50.3671 85.4294 51.5406 85.4111L82.1385 85.411Z" fill="#2F4077"/>
<path fill-rule="evenodd" clip-rule="evenodd" d="M229.92 42.3547L127.233 43.0993C125.595 43.1136 124.116 44.0586 123.412 45.5191L90.2983 113.204L25.3071 113.261C25.3071 113.261 23.8561 122.74 35.9809 123.327L85.4139 123.169L85.2703 123.456L198.344 123.055L233.799 48.3829C235.135 45.5764 233.052 42.326 229.92 42.3547Z" fill="#465F9D"/>
<path fill-rule="evenodd" clip-rule="evenodd" d="M222.017 41.9251C225.432 41.9095 227.713 45.4174 226.331 48.5017L226.288 48.5951L191.364 122.25C191.262 122.465 191.005 122.557 190.79 122.455C190.583 122.358 190.49 122.117 190.574 121.907L190.585 121.883L225.508 48.2281C226.709 45.6937 224.837 42.7714 222.021 42.7842C221.783 42.7853 221.589 42.5939 221.588 42.3566C221.587 42.1194 221.779 41.9262 222.017 41.9251Z" fill="white"/>
<path fill-rule="evenodd" clip-rule="evenodd" d="M101.101 109.996L186.033 109.567C189.006 109.552 191.721 107.848 193.029 105.185L218.614 51.175C219.706 48.9556 218.011 46.4069 215.439 46.4355L131.27 47.0512C129.934 47.0656 128.713 47.7958 128.138 48.9556L98.5299 105.915C97.5962 107.806 98.9896 110.011 101.101 109.996Z" fill="white"/>
<path fill-rule="evenodd" clip-rule="evenodd" d="M186.104 76.2756H170.891C169.9 76.2756 169.497 75.4737 169.986 74.4857L173.98 66.4529C174.468 65.4649 175.675 64.6631 176.68 64.6631H191.894C192.885 64.6631 193.287 65.4649 192.799 66.4529L188.805 74.4857C188.317 75.4737 187.11 76.2756 186.104 76.2756Z" fill="#465F9D"/>
<path fill-rule="evenodd" clip-rule="evenodd" d="M187.642 64.2192C188.558 64.2192 189.001 64.9935 188.619 65.8216L188.602 65.8566L183.83 75.4263C183.468 76.1297 182.616 76.6765 181.852 76.6765C181.614 76.6765 181.421 76.4842 181.421 76.247C181.421 76.0182 181.6 75.8312 181.827 75.8181L181.852 75.8174C182.273 75.8174 182.814 75.4773 183.042 75.0739L183.061 75.0391L187.829 65.4773C187.97 65.1888 187.908 65.0784 187.642 65.0784C187.403 65.0784 187.211 64.886 187.211 64.6488C187.211 64.4116 187.403 64.2192 187.642 64.2192Z" fill="white"/>
<path fill-rule="evenodd" clip-rule="evenodd" d="M184.941 76.1466L181.119 71.9513C180.789 71.5933 180.2 71.6935 180.013 72.1374L177.427 77.9508C177.198 78.4663 177.657 79.0104 178.203 78.8672L180.387 78.3231L180.631 82.3323C180.66 82.9051 181.206 83.306 181.766 83.1914L183.36 82.8478C183.906 82.7332 184.237 82.1605 184.05 81.6307L182.7 77.736L184.625 77.2492C185.099 77.1203 185.286 76.5189 184.941 76.1466Z" fill="#FAA184"/>
<path fill-rule="evenodd" clip-rule="evenodd" d="M179.51 92.685H162.473C161.97 92.685 161.769 92.284 162.013 91.7829L164.038 87.7307C164.283 87.2295 164.9 86.8286 165.403 86.8286H182.441C182.944 86.8286 183.145 87.2295 182.901 87.7307L180.875 91.7829C180.617 92.284 180.013 92.685 179.51 92.685Z" fill="#465F9D"/>
<path fill-rule="evenodd" clip-rule="evenodd" d="M218.643 50.8027C218.881 50.8027 219.074 50.9951 219.074 51.2323C219.074 51.4611 218.895 51.6481 218.668 51.6611L218.643 51.6619H127.176C126.938 51.6619 126.745 51.4695 126.745 51.2323C126.745 51.0035 126.924 50.8165 127.15 50.8035L127.176 50.8027H218.643Z" fill="#2F4077"/>
<path fill-rule="evenodd" clip-rule="evenodd" d="M201.872 46.7059C201.968 46.4889 202.222 46.3906 202.44 46.4864C202.65 46.5788 202.749 46.8179 202.67 47.0295L202.66 47.0529L200.764 51.3342C200.668 51.5512 200.413 51.6495 200.196 51.5536C199.986 51.4612 199.886 51.2221 199.966 51.0106L199.975 50.9872L201.872 46.7059Z" fill="#2F4077"/>
<path fill-rule="evenodd" clip-rule="evenodd" d="M187.947 46.7701C188.055 46.5588 188.315 46.4748 188.527 46.5826C188.731 46.6864 188.817 46.9302 188.726 47.1368L188.715 47.1605L186.517 51.4561C186.409 51.6674 186.149 51.7514 185.937 51.6436C185.733 51.5398 185.647 51.296 185.738 51.0894L185.749 51.0657L187.947 46.7701Z" fill="#2F4077"/>
<path fill-rule="evenodd" clip-rule="evenodd" d="M206.501 55.4132L133.074 55.8715C131.903 55.8882 130.853 56.5273 130.351 57.5433L106.768 102.236C105.915 103.918 107.175 105.901 109.074 105.901L183.089 105.658C185.481 105.642 187.67 104.274 188.718 102.138L209.277 59.5802C210.239 57.6293 208.739 55.3966 206.501 55.4132ZM133.083 56.7306L206.507 56.2723C208.102 56.2605 209.155 57.8049 208.522 59.1633L187.943 101.763C187.039 103.603 185.149 104.785 183.085 104.798L109.073 105.042C107.811 105.042 106.977 103.729 107.534 102.63L131.12 57.9328C131.474 57.2161 132.204 56.7615 133.034 56.7318L133.083 56.7306Z" fill="#2F4077"/>
<path fill-rule="evenodd" clip-rule="evenodd" d="M218.83 123.284H170.546V116.139C170.546 114.364 171.983 112.932 173.764 112.932H215.598C217.379 112.932 218.816 114.364 218.816 116.139V123.284H218.83Z" fill="#E4794A"/>
<path fill-rule="evenodd" clip-rule="evenodd" d="M118.254 96.2789H144.53C146.483 96.2789 148.969 94.6896 150.075 92.7422L164.599 67.0401C165.705 65.0928 165.001 63.5034 163.047 63.5034H135.68C133.726 63.5034 131.241 65.0928 130.135 67.0401L116.703 92.7422C115.597 94.6896 116.301 96.2789 118.254 96.2789Z" fill="#2F4077"/>
<path fill-rule="evenodd" clip-rule="evenodd" d="M164.742 21.8933C161.266 11.6984 157.459 9.59352 154.772 10.3381C152.086 11.0827 144.802 14.691 147.331 17.9843C149.859 21.2776 153.508 32.6896 153.508 32.6896C142.116 34.6369 131.974 38.9182 131.974 38.9182L119.633 43.8009C119.633 43.8009 114.404 45.6051 109.189 50.2443C103.975 54.8836 93.3726 65.3935 90.5282 69.4457C88.1722 72.8106 89.58 76.648 90.8442 77.6933C92.1084 78.7385 94.1628 81.588 103.501 78.4379C109.506 76.4046 114.404 75.6314 117.119 75.3307L131.342 89.091C131.342 89.091 135.019 92.1981 136.7 93.7159C136.801 93.988 136.944 94.2028 137.131 94.3459C139.53 96.2217 142.633 96.2646 146.383 95.0905C148.207 94.5178 149.744 93.2577 150.649 91.5681L164.455 65.7372C164.929 64.8494 164.455 63.7612 163.478 63.4891L159.14 62.315C153.02 59.9381 148.121 50.3732 148.121 50.3732C159.039 46.6217 167.587 36.57 167.587 36.57C167.587 36.57 168.233 32.1025 164.742 21.8933Z" fill="#E4794A"/>
<path fill-rule="evenodd" clip-rule="evenodd" d="M146.929 77.9798H110.238C109.161 77.9798 108.27 77.1063 108.27 76.0181V54.8694C108.27 53.7955 109.146 52.9077 110.238 52.9077H146.914C147.992 52.9077 148.882 53.7812 148.882 54.8694V76.0181C148.882 77.1063 148.006 77.9798 146.929 77.9798Z" fill="white"/>
<path fill-rule="evenodd" clip-rule="evenodd" d="M146.914 52.478H110.238C108.913 52.478 107.839 53.5536 107.839 54.8693V76.018C107.839 77.339 108.918 78.4092 110.238 78.4092H146.929C148.247 78.4092 149.313 77.3407 149.313 76.018V54.8693C149.313 53.5482 148.234 52.478 146.914 52.478ZM110.238 53.3372H146.914C147.759 53.3372 148.451 54.0237 148.451 54.8693V76.018C148.451 76.8672 147.77 77.5501 146.929 77.5501H110.238C109.393 77.5501 108.701 76.8636 108.701 76.018V54.8693C108.701 54.0272 109.39 53.3372 110.238 53.3372Z" fill="#2F4077"/>
<path fill-rule="evenodd" clip-rule="evenodd" d="M133.482 60.5394H126.357C125.753 60.5394 125.265 60.0526 125.265 59.4512V56.7879C125.265 56.1865 125.753 55.6997 126.357 55.6997H133.482C134.086 55.6997 134.574 56.1865 134.574 56.7879V59.4512C134.588 60.0383 134.086 60.5394 133.482 60.5394Z" fill="#FAA184"/>
<path fill-rule="evenodd" clip-rule="evenodd" d="M135.809 52.9219C137.102 52.9219 138.137 53.9099 138.137 55.127V75.7745C138.137 76.9916 137.088 77.9796 135.809 77.9796" fill="white"/>
<path fill-rule="evenodd" clip-rule="evenodd" d="M135.809 52.4924C137.316 52.4924 138.541 53.6399 138.567 55.0795L138.568 55.1271V75.7747C138.568 77.2322 137.323 78.4093 135.809 78.4093C135.571 78.4093 135.378 78.217 135.378 77.9797C135.378 77.7425 135.571 77.5502 135.809 77.5502C136.842 77.5502 137.681 76.7705 137.705 75.8168L137.706 75.7747V55.1271C137.706 54.1492 136.866 53.3516 135.809 53.3516C135.571 53.3516 135.378 53.1592 135.378 52.922C135.378 52.6848 135.571 52.4924 135.809 52.4924Z" fill="#2F4077"/>
<path fill-rule="evenodd" clip-rule="evenodd" d="M110.157 36.1822C110.292 35.9871 110.561 35.9384 110.756 36.0735C110.952 36.2085 111.001 36.4761 110.865 36.6712C110.382 37.3672 110.094 38.3666 110.094 39.4479C110.094 41.4594 111.064 43.0366 112.162 43.0708C112.4 43.0782 112.587 43.2764 112.58 43.5135C112.572 43.7507 112.373 43.9369 112.135 43.9295C110.469 43.8776 109.233 41.8657 109.233 39.4479C109.233 38.1984 109.569 37.0281 110.157 36.1822Z" fill="#E4794A"/>
<path fill-rule="evenodd" clip-rule="evenodd" d="M131.519 28.0073C131.749 27.9466 131.985 28.0833 132.046 28.3127C132.187 28.847 132.261 29.4143 132.261 29.9976C132.261 32.4383 130.987 34.4794 129.302 34.4794C129.178 34.4794 129.065 34.4684 128.91 34.4464C128.675 34.4129 128.511 34.1953 128.545 33.9605C128.578 33.7256 128.797 33.5624 129.032 33.596L129.105 33.6058C129.184 33.6157 129.245 33.6203 129.302 33.6203C130.403 33.6203 131.399 32.0241 131.399 29.9976C131.399 29.4883 131.335 28.9949 131.212 28.5325C131.151 28.3032 131.289 28.068 131.519 28.0073Z" fill="#E4794A"/>
<path fill-rule="evenodd" clip-rule="evenodd" d="M126.917 36.4412L128.598 40.7225L132.146 38.8324C132.505 39.2476 138.266 46.5931 130.494 49.4998C125.394 51.4042 119.734 48.8984 116.358 45.7054L119.576 43.758L116.157 36.5987L126.917 36.4412Z" fill="white"/>
<path fill-rule="evenodd" clip-rule="evenodd" d="M116.151 36.169L116.125 36.1701C115.826 36.1913 115.636 36.5082 115.768 36.7832L119.019 43.5921L116.134 45.3381C115.891 45.485 115.855 45.8219 116.061 46.0168C117.887 47.7435 120.221 49.1506 122.648 49.9232C125.399 50.7986 128.148 50.8346 130.645 49.902C134.268 48.547 135.47 46.1219 134.789 43.1365C134.552 42.094 134.097 41.0493 133.504 40.0472L133.431 39.9267C133.069 39.3289 132.688 38.8013 132.473 38.5518L132.454 38.5317C132.321 38.3961 132.113 38.363 131.943 38.4534L128.822 40.1156L127.318 36.2845C127.253 36.1177 127.09 36.0089 126.911 36.0115L116.151 36.169ZM126.624 36.8749L128.196 40.8789L128.207 40.9032C128.31 41.1253 128.581 41.2183 128.801 41.1012L132.03 39.3811L132.112 39.4926C132.123 39.5083 132.135 39.5243 132.146 39.5405C132.35 39.8235 132.559 40.1415 132.761 40.4838C133.313 41.4153 133.733 42.3813 133.949 43.3269C134.537 45.9054 133.549 47.8983 130.343 49.0975L130.21 49.146C125.995 50.6486 120.877 49.1127 117.122 45.819L117.072 45.7754L119.8 44.1251L119.822 44.1108C119.994 43.9917 120.056 43.7643 119.965 43.5733L116.835 37.0181L126.624 36.8749Z" fill="#2F4077"/>
<path fill-rule="evenodd" clip-rule="evenodd" d="M121.286 67.1547C122.033 66.6822 126.098 65.0212 127.089 64.9067C128.081 64.7921 128.583 65.4937 127.793 66.1094C127.018 66.7252 125.279 68.0711 125.279 68.0711" fill="white"/>
<path fill-rule="evenodd" clip-rule="evenodd" d="M127.04 64.4799C128.429 64.3193 129.204 65.5186 128.096 66.4183L127.68 66.7465L126.985 67.2903L126.139 67.9487L125.544 68.4103C125.356 68.5558 125.085 68.5219 124.939 68.3346C124.798 68.1544 124.825 67.898 124.994 67.7492L125.021 67.7267L126.038 66.9371L127.194 66.0341C127.321 65.9349 127.432 65.8468 127.528 65.771C127.654 65.6723 127.724 65.5822 127.746 65.5143C127.755 65.4868 127.753 65.4767 127.745 65.4635C127.725 65.4319 127.674 65.3949 127.589 65.3662C127.472 65.3263 127.318 65.3127 127.139 65.3333C126.309 65.4292 122.32 67.0093 121.516 67.5174C121.315 67.6445 121.049 67.5851 120.922 67.3848C120.794 67.1845 120.854 66.9191 121.055 66.792C121.96 66.2193 126.068 64.5922 127.04 64.4799Z" fill="#2F4077"/>
<path fill-rule="evenodd" clip-rule="evenodd" d="M118.7 67.3552C124.245 66.0093 129.704 68.0569 130.235 68.286C130.767 68.5151 130.954 69.546 129.761 69.6176C128.569 69.6749 124.475 69.0878 124.475 69.0878C126.27 69.5603 130.264 70.6485 130.552 70.9492C130.997 71.4074 130.322 72.3095 129.101 71.9945L123.972 70.7345C123.972 70.7345 128.871 72.8823 129.287 73.1973C129.704 73.5123 127.822 74.486 125.523 73.498C123.225 72.51 123.024 72.6388 123.024 72.6388C123.024 72.6388 126.745 74.0134 127.219 74.4C127.707 74.7866 125.179 76.1469 122.708 74.486C122.708 74.486 119.878 75.6171 117.565 74.8439" fill="white"/>
<path fill-rule="evenodd" clip-rule="evenodd" d="M118.598 66.9378C121.107 66.3288 123.768 66.3416 126.422 66.8068C128.117 67.1038 129.657 67.5684 130.407 67.8916C130.849 68.0825 131.131 68.5802 131.073 69.0625C131.004 69.6264 130.521 70.0023 129.782 70.0466C129.709 70.0501 129.625 70.0515 129.532 70.0509L129.45 70.0497L129.649 70.116C130.299 70.3356 130.717 70.513 130.851 70.64L130.861 70.6503C131.264 71.0646 131.18 71.6777 130.743 72.078C130.341 72.4459 129.721 72.5823 129.052 72.4249L128.422 72.2701L128.754 72.4292C129.147 72.6197 129.405 72.7559 129.523 72.8371L129.548 72.855C129.937 73.1496 129.81 73.5836 129.464 73.8541C129.244 74.0257 128.911 74.1666 128.519 74.2551C128.274 74.3103 128.017 74.3443 127.75 74.3559L127.688 74.358L127.695 74.3849C127.72 74.4884 127.715 74.5989 127.679 74.7068L127.669 74.7362C127.608 74.8947 127.489 75.0308 127.327 75.1527C127.049 75.3621 126.633 75.5342 126.16 75.6315C125.072 75.855 123.86 75.676 122.74 75.0147L122.655 74.9628L122.573 74.991C122.344 75.0679 122.088 75.1446 121.809 75.2161C120.739 75.4904 119.647 75.6151 118.615 75.5041C118.199 75.4594 117.802 75.3762 117.428 75.2511C117.202 75.1757 117.08 74.9322 117.156 74.7073C117.232 74.4823 117.476 74.3611 117.702 74.4366C118.015 74.5412 118.351 74.6116 118.708 74.65C119.622 74.7483 120.616 74.6348 121.595 74.384C121.82 74.3263 122.029 74.265 122.217 74.2035L122.297 74.1771C122.34 74.1625 122.38 74.1485 122.417 74.1354L122.547 74.0872C122.68 74.0342 122.83 74.0501 122.949 74.1297C123.943 74.7982 125.03 74.9865 125.986 74.7901C126.229 74.7401 126.446 74.6665 126.612 74.5846L126.648 74.5661L126.533 74.5107C126.299 74.4008 125.982 74.2622 125.603 74.1048L125.268 73.9673L124.986 73.8537L124.634 73.7141C124.276 73.5734 123.905 73.4302 123.534 73.2892L122.874 73.0416C122.541 72.9185 122.492 72.469 122.791 72.2774C122.838 72.247 122.889 72.2275 122.941 72.2161L122.968 72.2113C123.288 72.1641 124.047 72.3956 125.694 73.1034C126.632 73.5066 127.572 73.588 128.328 73.4172C128.426 73.3951 128.517 73.3693 128.598 73.3415L128.635 73.3281L128.488 73.2557C128.113 73.0728 127.565 72.8164 126.898 72.5123L126.466 72.3158L126.071 72.1377C125.671 71.9577 125.257 71.7727 124.84 71.5877L123.798 71.1276C123.324 70.9196 123.555 70.2156 124.05 70.3117L124.075 70.3173L129.209 71.5786C129.632 71.6877 129.972 71.6169 130.159 71.4455C130.246 71.366 130.268 71.3079 130.254 71.2691L130.251 71.262L130.25 71.2614C130.224 71.2473 130.187 71.2298 130.141 71.2098L130.113 71.1975C129.998 71.1487 129.841 71.09 129.647 71.0227L129.478 70.9651C129.121 70.8456 128.67 70.7054 128.138 70.5481L127.957 70.495C126.884 70.1806 125.563 69.8183 124.365 69.5031C123.849 69.3674 123.994 68.6114 124.51 68.6594L124.578 68.6684L124.979 68.7242L125.136 68.7455C125.52 68.7974 125.92 68.8493 126.32 68.8988L126.56 68.9282C126.824 68.9601 127.08 68.9899 127.327 69.0172L127.557 69.0422C128.587 69.1524 129.356 69.2069 129.735 69.1887C130.083 69.1679 130.203 69.0743 130.217 68.9591C130.23 68.8523 130.155 68.719 130.064 68.6802L129.989 68.6488C129.757 68.5553 129.341 68.4098 128.864 68.2657C128.073 68.0272 127.2 67.8154 126.273 67.653C123.727 67.2068 121.183 67.1946 118.802 67.7725C118.57 67.8287 118.337 67.6873 118.281 67.4568C118.225 67.2263 118.366 66.9939 118.598 66.9378Z" fill="#2F4077"/>
<path fill-rule="evenodd" clip-rule="evenodd" d="M111.732 36.5987C113.216 36.5987 114.419 35.4576 114.419 34.05C114.419 32.6423 113.216 31.5012 111.732 31.5012C110.249 31.5012 109.046 32.6423 109.046 34.05C109.046 35.4576 110.249 36.5987 111.732 36.5987Z" fill="white"/>
<path fill-rule="evenodd" clip-rule="evenodd" d="M111.732 31.0715C110.015 31.0715 108.615 32.4001 108.615 34.0498C108.615 35.6996 110.015 37.0281 111.732 37.0281C113.449 37.0281 114.85 35.6996 114.85 34.0498C114.85 32.4001 113.449 31.0715 111.732 31.0715ZM111.732 31.9307C112.982 31.9307 113.988 32.8843 113.988 34.0498C113.988 35.2153 112.982 36.169 111.732 36.169C110.482 36.169 109.477 35.2153 109.477 34.0498C109.477 32.8843 110.482 31.9307 111.732 31.9307Z" fill="#2F4077"/>
<path fill-rule="evenodd" clip-rule="evenodd" d="M128.037 27.8929C129.521 27.8929 130.724 26.7518 130.724 25.3441C130.724 23.9365 129.521 22.7954 128.037 22.7954C126.554 22.7954 125.351 23.9365 125.351 25.3441C125.351 26.7518 126.554 27.8929 128.037 27.8929Z" fill="white"/>
<path fill-rule="evenodd" clip-rule="evenodd" d="M128.038 22.3657C126.32 22.3657 124.92 23.6943 124.92 25.344C124.92 26.9937 126.32 28.3223 128.038 28.3223C129.755 28.3223 131.155 26.9937 131.155 25.344C131.155 23.6943 129.755 22.3657 128.038 22.3657ZM128.038 23.2248C129.288 23.2248 130.293 24.1785 130.293 25.344C130.293 26.5095 129.288 27.4632 128.038 27.4632C126.787 27.4632 125.782 26.5095 125.782 25.344C125.782 24.1785 126.787 23.2248 128.038 23.2248Z" fill="#2F4077"/>
<path fill-rule="evenodd" clip-rule="evenodd" d="M126.141 37.9465C129.946 35.2013 130.164 29.0289 126.628 24.1601C123.092 19.2914 117.141 17.5699 113.336 20.3152C109.531 23.0604 109.313 29.2328 112.849 34.1016C116.385 38.9703 122.336 40.6918 126.141 37.9465Z" fill="white"/>
<path fill-rule="evenodd" clip-rule="evenodd" d="M113.08 19.9639C109.063 22.862 108.838 29.3037 112.504 34.3502C116.169 39.3966 122.38 41.1962 126.397 38.298C130.415 35.3999 130.64 28.9582 126.974 23.9118C123.308 18.8653 117.098 17.0657 113.08 19.9639ZM113.586 20.6601C117.175 18.0714 122.866 19.7206 126.276 24.4152C129.686 29.1099 129.48 35.013 125.892 37.6018C122.303 40.1905 116.612 38.5413 113.202 33.8467C109.792 29.152 109.997 23.2489 113.586 20.6601Z" fill="#2F4077"/>
<path fill-rule="evenodd" clip-rule="evenodd" d="M124.14 31.0876L124.132 31.097C123.396 32.0574 122.215 32.7487 120.457 32.906C119.7 32.9868 119.334 33.8747 119.845 34.4382C120.365 35.023 120.969 35.4991 121.646 35.7798C122.539 36.15 123.483 36.1443 124.434 35.6816C125.414 35.2045 125.945 34.4481 126.069 33.5099C126.162 32.8113 126.025 32.0663 125.739 31.3193C125.464 30.6595 124.587 30.5373 124.14 31.0876ZM124.939 31.6377C125.499 33.1023 125.343 34.2827 124.056 34.9095C122.747 35.5463 121.534 35.0432 120.488 33.8653C120.455 33.8287 120.48 33.7676 120.541 33.761L120.633 33.7523C122.554 33.5599 123.909 32.7716 124.776 31.6715L124.81 31.6282C124.847 31.5821 124.92 31.5922 124.939 31.6377Z" fill="#2F4077"/>
<path fill-rule="evenodd" clip-rule="evenodd" d="M119.844 26.2188C120.018 26.0715 120.276 26.0867 120.433 26.2491L120.451 26.2693L123.611 29.9922C123.784 30.196 123.73 30.5039 123.503 30.6384L123.48 30.6513L121.756 31.539C121.545 31.6479 121.285 31.5653 121.176 31.3546C121.07 31.1516 121.143 30.9038 121.338 30.7885L121.361 30.7757L122.604 30.1353L119.793 26.8242C119.645 26.6501 119.66 26.3928 119.823 26.237L119.844 26.2188Z" fill="#2F4077"/>
<path fill-rule="evenodd" clip-rule="evenodd" d="M114.62 25.8588C115.211 25.165 115.989 24.8291 116.912 25.1045C117.141 25.1724 117.27 25.4118 117.202 25.6391C117.134 25.8664 116.894 25.9955 116.666 25.9276C116.115 25.7635 115.667 25.9571 115.277 26.415C115.166 26.5448 115.07 26.6857 114.991 26.8264C114.96 26.8814 114.936 26.9271 114.92 26.96L114.902 26.9995C114.81 27.2182 114.558 27.3212 114.338 27.2295C114.119 27.1377 114.015 26.886 114.107 26.6672L114.127 26.6238C114.152 26.5677 114.19 26.4931 114.24 26.405C114.344 26.2193 114.471 26.0337 114.62 25.8588Z" fill="#2F4077"/>
<path fill-rule="evenodd" clip-rule="evenodd" d="M120.499 22.9152C121.239 22.4396 122.034 22.2791 122.799 22.6647C122.911 22.7208 123.019 22.7883 123.124 22.867C123.315 23.0093 123.353 23.2786 123.211 23.4684C123.068 23.6581 122.798 23.6966 122.607 23.5543C122.542 23.5055 122.476 23.4647 122.41 23.4314C121.97 23.2099 121.475 23.3098 120.967 23.6371C120.851 23.7117 120.745 23.792 120.651 23.8718L120.614 23.9041C120.586 23.929 120.566 23.9485 120.553 23.9611L120.546 23.9678C120.381 24.1381 120.108 24.1424 119.937 23.9772C119.766 23.8121 119.762 23.5402 119.927 23.3698L119.956 23.3414C119.989 23.3097 120.033 23.2685 120.089 23.2204C120.211 23.1162 120.348 23.0124 120.499 22.9152Z" fill="#2F4077"/>
<path fill-rule="evenodd" clip-rule="evenodd" d="M117.619 29.8501C117.946 29.7075 118.038 29.1984 117.825 28.7129C117.612 28.2275 117.175 27.9496 116.847 28.0922C116.52 28.2347 116.428 28.7439 116.641 29.2293C116.854 29.7147 117.292 29.9927 117.619 29.8501Z" fill="#2F4077"/>
<path fill-rule="evenodd" clip-rule="evenodd" d="M123.743 27.3584C124.053 27.1825 124.088 26.661 123.822 26.1936C123.555 25.7262 123.087 25.4899 122.777 25.6658C122.467 25.8417 122.431 26.3633 122.698 26.8307C122.965 27.2981 123.432 27.5344 123.743 27.3584Z" fill="#2F4077"/>
<path fill-rule="evenodd" clip-rule="evenodd" d="M106.273 20.3755C108.385 17.4545 106.805 6.17134 96.9784 1.40321C87.0373 -3.43651 83.0866 5.99952 82.2965 8.40506C81.5208 10.8106 82.1816 16.5238 90.3845 19.5021C98.5874 22.4803 103.845 23.7118 106.273 20.3755Z" fill="#2F4077"/>
<path fill-rule="evenodd" clip-rule="evenodd" d="M108.529 24.2701L105.469 22.2798C104.377 21.5639 104.09 20.1463 104.837 19.1154L104.966 18.9436C105.713 17.8983 107.207 17.6406 108.313 18.3422L111.373 20.3325L108.529 24.2701Z" fill="#E4794A"/>
<path fill-rule="evenodd" clip-rule="evenodd" d="M128.038 19.0439C128.038 19.0439 126.227 8.9635 112.652 17.7552C110.411 19.0009 108.17 21.5496 107.308 24.2988C105.972 28.5515 108.888 34.952 111.89 34.0499C112.134 33.9783 112.379 33.8924 112.623 33.7921C112.522 33.649 112.422 33.4914 112.321 33.3339C111.976 32.7755 111.675 32.2171 111.416 31.6443C114.548 28.4226 112.178 22.9099 111.933 22.4088C113.054 22.6665 114.289 23.0961 114.591 24.4277L123.282 20.9483C124.762 21.9506 126.098 23.3108 127.147 24.9861C127.161 25.0005 127.176 25.0291 127.19 25.0434C127.449 23.5399 126.644 21.7644 125.093 20.218L128.038 19.0439Z" fill="#2F4077"/>
<path fill-rule="evenodd" clip-rule="evenodd" d="M90.5282 69.4457C87.6837 72.4527 89.58 76.648 90.8442 77.6933C92.1084 78.7386 94.1627 81.588 103.501 78.4379C109.506 76.4046 114.404 75.6314 117.119 75.3307C117.119 75.3307 119.633 68.9875 117.895 64.0476C117.895 64.0476 108.557 63.9044 101.59 66.7538" fill="#E4794A"/>
<path fill-rule="evenodd" clip-rule="evenodd" d="M151.827 7.58873C151.44 6.80121 150.491 4.75363 150.592 3.76564C150.721 2.49128 149.716 1.56056 149.012 3.16425C148.322 4.76795 148.954 6.62938 148.954 6.62938" fill="white"/>
<path fill-rule="evenodd" clip-rule="evenodd" d="M148.617 2.99215C149.03 2.05126 149.697 1.63859 150.334 2.01649C150.824 2.30672 151.087 3.0113 151.025 3.75915L151.021 3.80906C150.952 4.48361 151.489 5.92616 152.214 7.39951C152.319 7.61247 152.231 7.86986 152.017 7.9744C151.804 8.07895 151.545 7.99106 151.44 7.7781L151.36 7.61373C150.605 6.05724 150.092 4.64912 150.159 3.76836L150.163 3.72249C150.21 3.25791 150.065 2.85656 149.894 2.75499C149.864 2.73742 149.849 2.73765 149.801 2.76746C149.683 2.84043 149.542 3.02761 149.408 3.33353C149.336 3.50006 149.278 3.67517 149.234 3.85811C149.066 4.55127 149.094 5.30742 149.244 6.02945C149.266 6.13714 149.29 6.23599 149.314 6.32466L149.328 6.37662C149.338 6.41332 149.347 6.44236 149.353 6.46321L149.362 6.49173C149.439 6.71645 149.318 6.96028 149.092 7.03634C148.867 7.11239 148.622 6.99188 148.546 6.76716L148.53 6.71768C148.493 6.60134 148.446 6.42636 148.4 6.20394C148.226 5.36802 148.194 4.49076 148.396 3.65604C148.452 3.4275 148.524 3.20681 148.617 2.99215Z" fill="#2F4077"/>
<path fill-rule="evenodd" clip-rule="evenodd" d="M149.242 12.2423L151.813 16.5236C153.709 16.0511 155.649 14.9056 156.769 12.7864C154.801 10.295 151.497 6.19984 150.822 5.98506C148.925 5.38368 146.024 5.56982 145.449 5.74165C144.228 6.11393 144.874 6.8585 146.153 6.95874C147.374 7.05897 149.572 7.24511 149.572 7.24511C147.676 7.28807 145.305 7.43125 144.946 7.66035C144.4 8.01832 144.86 9.06359 146.153 9.00631L149.831 8.94904C149.831 8.94904 145.708 9.39292 145.205 9.6077C144.702 9.82248 144.759 11.24 147.302 10.8248C149.845 10.4095 150.017 10.5814 150.017 10.5814C150.017 10.5814 146.943 11.2257 146.354 11.4978C145.751 11.7841 146.34 13.2876 149.242 12.2423Z" fill="white"/>
<path fill-rule="evenodd" clip-rule="evenodd" d="M145.325 5.33026C144.516 5.57699 144.114 6.12258 144.508 6.6953L144.53 6.72625C144.652 6.88836 144.837 7.0251 145.067 7.13211L145.119 7.15568C144.932 7.19945 144.795 7.24695 144.714 7.2986C144.222 7.62136 144.165 8.24436 144.506 8.73416L144.531 8.76953C144.662 8.94442 144.833 9.08993 145.038 9.20007L145.05 9.20654L145.035 9.21292C144.479 9.45024 144.356 10.2083 144.777 10.724L144.802 10.7529C145.042 11.0294 145.407 11.2105 145.885 11.2875L145.915 11.2918L145.906 11.3014C145.543 11.697 145.691 12.3695 146.249 12.7298L146.284 12.7518C146.873 13.1111 147.787 13.14 148.955 12.7896L149.05 12.7602L151.443 16.7443C151.541 16.9067 151.733 16.9863 151.918 16.9404C154.175 16.378 156.065 15.0393 157.151 12.9868C157.23 12.8367 157.213 12.6541 157.108 12.5208L156.812 12.147C153.66 8.16819 151.626 5.7902 150.953 5.5759C149.306 5.05353 146.32 5.03286 145.325 5.33026ZM147.637 6.00301C148.8 6.01106 149.884 6.13865 150.691 6.39446L150.704 6.39926C151.131 6.57319 153.259 9.06194 155.92 12.4084L156.254 12.8282L156.218 12.8881C155.293 14.4416 153.816 15.4971 152.049 16.0149L152.015 16.0244L149.611 12.0218C149.505 11.8454 149.289 11.7686 149.095 11.8384C147.924 12.2604 147.111 12.2632 146.718 12.0091L146.694 11.993C146.634 11.9503 146.598 11.9085 146.582 11.8751L146.579 11.8685L146.633 11.8482C146.829 11.7774 147.206 11.6716 147.708 11.5466L148.029 11.468C148.097 11.4518 148.166 11.4353 148.237 11.4186C148.587 11.3358 148.959 11.2513 149.334 11.1685L149.672 11.0947L150.106 11.0018C150.441 10.9316 150.564 10.5189 150.322 10.2777C150.247 10.2031 150.159 10.1649 150.052 10.143C149.731 10.0776 148.977 10.1262 147.54 10.3517L147.232 10.4009C146.239 10.5632 145.653 10.4347 145.445 10.1811C145.396 10.1211 145.38 10.063 145.388 10.016L145.391 10.0019L145.394 9.99522C145.597 9.92474 146.485 9.78563 147.695 9.63231C148.087 9.58262 148.497 9.53314 148.908 9.48532L149.872 9.37668L149.894 9.37369C150.425 9.29259 150.359 8.51122 149.822 8.51959L146.146 8.57686C145.684 8.59716 145.36 8.45439 145.214 8.24405C145.129 8.12273 145.136 8.0501 145.183 8.01927C145.256 7.97258 145.867 7.87901 146.717 7.81118L146.945 7.7938C147.724 7.73729 148.667 7.69535 149.582 7.67462C150.117 7.6625 150.15 6.8909 149.636 6.82025L148.964 6.76267L146.188 6.53068C145.92 6.50962 145.681 6.45635 145.494 6.38078L145.463 6.36776C145.392 6.3372 145.335 6.30547 145.293 6.27629L145.286 6.27092L145.295 6.26537C145.357 6.23046 145.45 6.19057 145.575 6.15248L145.615 6.1417C145.925 6.06482 146.772 5.99702 147.637 6.00301Z" fill="#2F4077"/>
<path fill-rule="evenodd" clip-rule="evenodd" d="M112.206 34.9663C113.892 34.9663 115.166 37.0074 115.166 39.4481C115.166 41.8643 113.917 43.889 112.257 43.9292L112.206 43.9298H112.163C111.925 43.9298 111.732 43.7375 111.732 43.5003C111.732 43.2715 111.912 43.0845 112.138 43.0714L112.163 43.0707H112.206C113.308 43.0707 114.304 41.4745 114.304 39.4481C114.304 37.4216 113.308 35.8254 112.206 35.8254C111.968 35.8254 111.775 35.6331 111.775 35.3959C111.775 35.1586 111.968 34.9663 112.206 34.9663Z" fill="#E4794A"/>
<path fill-rule="evenodd" clip-rule="evenodd" d="M129.302 25.5159C130.565 25.5159 131.623 26.6596 132.047 28.3165C132.105 28.5464 131.966 28.7802 131.735 28.8388C131.505 28.8974 131.27 28.7586 131.211 28.5287C130.874 27.2114 130.101 26.375 129.302 26.375C129.064 26.375 128.871 26.1827 128.871 25.9454C128.871 25.7082 129.064 25.5159 129.302 25.5159Z" fill="#E4794A"/>
<path fill-rule="evenodd" clip-rule="evenodd" d="M163.047 63.0596C165.34 63.0596 166.212 64.9883 165.011 67.1705L164.974 67.2367L150.45 92.9396C149.281 94.9976 146.696 96.6607 144.593 96.6937L144.53 96.6942H118.254C115.961 96.6942 115.09 94.7654 116.291 92.5825L116.323 92.5243L121.981 81.7045C122.087 81.5019 122.332 81.4186 122.538 81.5107L122.562 81.5221C122.765 81.6276 122.849 81.8721 122.757 82.0779L122.745 82.1015L117.085 92.9265L117.078 92.9396C116.133 94.6029 116.648 95.8107 118.207 95.8347L118.254 95.8351H144.53C146.299 95.8351 148.616 94.3685 149.666 92.5751L149.699 92.5171L164.224 66.8142C165.178 65.1341 164.643 63.9187 163.047 63.9187C162.809 63.9187 162.616 63.7264 162.616 63.4891C162.616 63.2519 162.809 63.0596 163.047 63.0596Z" fill="#2F4077"/>
<path fill-rule="evenodd" clip-rule="evenodd" d="M256.898 122.468C257.136 122.467 257.329 122.658 257.33 122.896C257.331 123.124 257.153 123.312 256.926 123.326L256.901 123.327L1.04479 124.329C0.806772 124.33 0.61306 124.139 0.612125 123.901C0.611223 123.673 0.789902 123.485 1.01608 123.471L1.0414 123.47L256.898 122.468Z" fill="#2F4077"/>
</svg>
