<svg xmlns="http://www.w3.org/2000/svg" width="284" height="124" fill="none"><path fill="#2F4077" fill-rule="evenodd" d="M81.207 90.613c.272 0 .494.213.51.481v17.428a.511.511 0 0 1-1.02.03l-.002-.03V91.124c0-.282.23-.51.512-.51ZM62.531 68.411a.511.511 0 0 1 .03 1.022H35.9c-1.324 0-2.408 1.127-2.436 2.535V74a.511.511 0 0 1-.626.498 12.972 12.972 0 0 0-2.885-.328c-7.519 0-13.648 6.466-13.648 14.433 0 7.955 6.135 14.432 13.648 14.432.978 0 1.928-.11 2.885-.328a.51.51 0 0 1 .624.468l.001.03v5.538a.511.511 0 0 1-1.021.03l-.001-.03v-4.911l-.103.018c-.727.127-1.456.196-2.199.206l-.186.001c-8.09 0-14.67-6.946-14.67-15.454 0-8.52 6.574-15.455 14.67-15.455.799 0 1.597.07 2.386.208l.102.018v-1.35c0-1.966 1.509-3.58 3.4-3.612H62.531Z" clip-rule="evenodd"/><path fill="#2F4077" fill-rule="evenodd" d="M29.953 78.651c-5.213 0-9.457 4.478-9.457 9.951 0 5.48 4.232 9.951 9.457 9.951a8.875 8.875 0 0 0 3.181-.579.511.511 0 0 0 .329-.477v-17.79a.511.511 0 0 0-.329-.477 8.873 8.873 0 0 0-3.181-.579Zm.128 1.024c.81.012 1.593.142 2.338.386l.022.007v17.068l-.022.007a7.893 7.893 0 0 1-2.466.388c-4.647 0-8.434-4.002-8.434-8.929 0-4.92 3.798-8.928 8.434-8.928h.128ZM80.014 56.844l-17.397-.051a.511.511 0 0 0-.511.48l-.008 3.871-.027 18.475v.556c-.002 3.109.156 4.978.817 6.918.974 2.855 2.887 4.541 5.93 4.647h11.195a.511.511 0 0 0 .511-.51V57.354a.511.511 0 0 0-.51-.51Zm-16.888.973 16.376.048v32.853h-10.65c-2.579-.09-4.15-1.474-4.996-3.955-.604-1.77-.76-3.533-.763-6.446l.017-12.952.016-9.548Z" clip-rule="evenodd"/><path fill="#2F4077" fill-rule="evenodd" d="m66.809 62.67 10.769.018a.511.511 0 0 1 .028 1.021l-.03.001-10.769-.017a.511.511 0 0 1-.028-1.021l.03-.001ZM66.793 67.527l10.77.017a.511.511 0 0 1 .028 1.022h-.03l-10.77-.016a.511.511 0 0 1-.028-1.022h.03ZM66.774 72.4l10.786.017a.511.511 0 0 1 .028 1.022h-.03l-10.786-.016a.511.511 0 0 1-.028-1.022h.03ZM66.774 77.257l10.769.017a.511.511 0 0 1 .028 1.021l-.03.001-10.769-.017a.511.511 0 0 1-.028-1.021l.03-.001ZM66.758 82.13l10.786.017a.511.511 0 0 1 .028 1.021l-.03.001-10.785-.017a.511.511 0 0 1-.029-1.021l.03-.001Z" clip-rule="evenodd"/><path fill="#E4794A" fill-rule="evenodd" d="m98.041 91.33-29.205-.102c4.84.017 8.758-3.902 8.775-8.74l.528-35.05a8.766 8.766 0 0 1 8.776-8.742l-.886.034a8.766 8.766 0 0 1 8.74 8.776v2.164l-.289 12.2s-.443 10.343 9.542 7.616c-.102.273-5.98 21.845-5.98 21.845ZM128.914 1.21c-6.73 1.244-11.723 5.76-11.74 11.144l-.358 15.472 1.977-1.142 24.332-.102-.034-14.143c0-6.338-8.247-12.524-14.177-11.229Z" clip-rule="evenodd"/><path fill="#2F4077" fill-rule="evenodd" d="M86.9 38.202c1.905.01 3.897.792 5.412 2.174 1.697 1.55 2.688 3.728 2.73 6.32l.012.753c.029 2.113.03 3.875.01 6.31l-.034 3.807-.008 2.356c-.002 1.56.038 2.492.181 3.57.494 3.705 2.056 5.779 5.31 5.892.022.001.044.003.065.007l.048.007a7.511 7.511 0 0 0 3.201-.328.51.51 0 0 1 .323.97 8.504 8.504 0 0 1-3.346.403l-.1-.009a5.933 5.933 0 0 1-.191-.02l-.066-.01-.071-.002c-1.98-.092-3.473-.853-4.51-2.19l-.053-.069c-.868-1.153-1.376-2.666-1.623-4.516l-.02-.16c-.142-1.12-.175-2.11-.17-3.771l.003-.69.002-1.017c.002-.453.006-.96.013-1.735l.025-2.67c.02-2.621.016-4.466-.023-6.87-.037-2.31-.908-4.222-2.398-5.583-1.327-1.212-3.076-1.898-4.727-1.907a.511.511 0 1 1 .005-1.022ZM97.052 42.157l8.724.034a.512.512 0 0 1 .026 1.022h-.03l-8.724-.033a.511.511 0 0 1-.026-1.022h.03ZM97.903 46.11l9.082.017a.511.511 0 0 1 .028 1.022h-.03l-9.082-.016a.511.511 0 0 1-.028-1.022h.03Z" clip-rule="evenodd"/><path fill="#2F4077" fill-rule="evenodd" d="m97.868 50.047 9.9.034a.511.511 0 0 1 .027 1.021l-.03.001-9.9-.034a.511.511 0 0 1-.027-1.021l.03-.001ZM97.868 53.557l9.696.034a.511.511 0 0 1 .026 1.021l-.03.001-9.695-.034a.511.511 0 0 1-.027-1.022h.03ZM97.852 57.084l9.712.017a.512.512 0 0 1 .029 1.022h-.03l-9.713-.017a.511.511 0 0 1-.028-1.021l.03-.001ZM97.852 60.594l8.809.017a.512.512 0 0 1 .028 1.021l-.03.001-8.809-.017a.511.511 0 0 1-.028-1.021l.03-.001ZM97.852 64.103l7.753.018a.511.511 0 0 1 .028 1.021h-.03l-7.753-.016a.511.511 0 0 1-.028-1.022h.03ZM129.614.647c7.879.018 13.785 4.947 13.885 11.557l.001.2v31.49a.511.511 0 0 1-1.022.03l-.001-.03v-31.49c.017-6.105-5.436-10.718-12.865-10.734a.51.51 0 1 1 .002-1.023ZM102.966 38.049c1.912 0 3.91.78 5.427 2.168 1.696 1.55 2.684 3.734 2.718 6.328a.51.51 0 1 1-1.022.013c-.03-2.31-.897-4.225-2.386-5.587-1.305-1.193-3.018-1.875-4.646-1.9h-16.21a.511.511 0 0 1-.03-1.021l.03-.001h16.119ZM235.838 34.453l-22.151-.034-2.351 14.45c3.851 2.794 7.293 6.1 8.86 9.695 1.381 3.135 4.056 12.012 7.14 22.9l11.195-43.825c.409-1.618-.903-3.186-2.693-3.186Z" clip-rule="evenodd"/><path fill="#2F4077" fill-rule="evenodd" d="M174.38 95.385c-2.352-2.982-1.312-4.992.562-6.935-5.214-1.925-9.337-4.43-10.36-6.27-1.193-2.164.733-5.061 1.96-6.544-2.693-1.192-5.129-3.203-3.408-8.144.358-1.04 1.056-1.806 1.993-2.335l.869-5.299c-.664.239-1.329.494-2.01.767-8.605 3.442-12.2-4.737-6.185-8.094 1.925-1.073 6.338-3.084 10.172-4.737l.528-3.22-25.422-.034V34.385l-18.181-.103c-1.278 0-2.403.818-2.692 1.977l-17.432 59.893c-.409 1.619.903 3.17 2.693 3.186l71.394.137c-1.755-.784-2.931-2.113-4.481-4.09ZM214.965 26.255l36.263.068c2.635.019 4.809 3.583 4.21 6.34l-.019.083-19.05 79.982a.511.511 0 0 1-1.001-.207l.006-.03 19.05-79.982c.516-2.159-1.232-5.09-3.143-5.162l-.058-.002-36.26-.068a.511.511 0 0 1-.028-1.021l.03-.001Z" clip-rule="evenodd"/><path fill="#2F4077" fill-rule="evenodd" d="m119.171 26.085 23.77.051a.512.512 0 0 1 .027 1.022h-.03l-23.768-.05c-1.215 0-2.596 1.751-3.065 3.599l-.017.065-.006.023-22.662 77.682a.511.511 0 0 1-.989-.258l.008-.029 22.659-77.67.014-.058c.563-2.228 2.211-4.334 4.003-4.376l.056-.001Z" clip-rule="evenodd"/><path fill="#2F4077" fill-rule="evenodd" d="M200.209 121.675s-151.632.699-159.47.682c-15.472-.034-12.797-14.416-12.797-14.416l65.158.103 106.121-.017.988 13.648ZM245.942 26.357c2.797 0 4.713 1.978 4.144 4.558l-.018.078-16.818 69.503a.51.51 0 0 1-1-.211l.007-.029 16.817-69.502c.46-1.924-.925-3.374-3.132-3.374a.511.511 0 0 1 0-1.023ZM146.86 8.606l21.64.035a.511.511 0 0 1 .028 1.021h-.03l-21.64-.033a.51.51 0 0 1-.028-1.022h.03ZM148 13.82l21.64.034a.512.512 0 0 1 .029 1.022h-.03l-21.64-.033a.512.512 0 0 1-.029-1.022h.03ZM147.95 19.018l21.623.05a.512.512 0 0 1 .027 1.022l-.03.001-21.623-.051a.51.51 0 0 1-.027-1.022h.03ZM147.934 23.652l21.64.051a.511.511 0 0 1 .028 1.022h-.03l-21.64-.05a.511.511 0 0 1-.028-1.022h.03ZM147.934 28.287l21.623.051a.511.511 0 0 1 .028 1.022h-.03l-21.623-.05a.511.511 0 0 1-.028-1.022h.03ZM147.915 32.92l21.64.052a.512.512 0 0 1 .027 1.022h-.03l-21.64-.05a.512.512 0 0 1-.027-1.022l.03-.001ZM147.914 37.573l21.623.034a.512.512 0 0 1 .029 1.022h-.03l-21.623-.033a.512.512 0 0 1-.029-1.022h.03Z" clip-rule="evenodd"/><path fill="#2F4077" fill-rule="evenodd" d="M160.269.647c7.959.018 13.904 5.047 13.886 11.759a.51.51 0 1 1-1.022-.003c.016-6.043-5.328-10.624-12.642-10.731l-.223-.002h-30.159a.511.511 0 0 1-.03-1.022h30.19ZM282.982 121.3a.51.51 0 0 1 .034 1.021l-.03.001-281.863 1.091a.511.511 0 0 1-.034-1.022l.03-.001 281.863-1.09Z" clip-rule="evenodd"/><path fill="#2F4077" d="M173.889 34.484h43.963l11.617 38.268-5.78 22.543a5.466 5.466 0 0 1-5.295 4.109h-49.288l-21.868-42.596 12.984-12.301h13.667V34.484ZM178.448 108.06h52.619l-2.733 11.844a3.246 3.246 0 0 1-3.061 2.314l-27.918.42.455-4.784h-33.029 13.667v-9.794Z"/><path stroke="#2F4077" stroke-linecap="round" stroke-width=".911" d="M173.663 12.389v30.979M215.574 26.74h-41.913M232.979 99.404l-2.961 11.845m6.513-1.139-1.242 4.971a5.468 5.468 0 0 1-5.304 4.141h-2.337"/></svg>