<svg width="338" height="158" viewBox="0 0 338 158" fill="none" xmlns="http://www.w3.org/2000/svg">
<path fill-rule="evenodd" clip-rule="evenodd" d="M234.373 66.5948C267.024 64.7185 271.698 84.3638 270.464 99.3075C269.207 114.604 265.9 156.389 265.9 156.389C266.098 156.61 188.34 156.61 188.561 156.389C188.561 156.389 191.669 114.604 192.926 99.3075C194.161 84.3638 202.009 64.6965 234.373 66.5948Z" fill="#E4794A"/>
<path fill-rule="evenodd" clip-rule="evenodd" d="M259.106 106.568L256.244 143.489C255.818 148.937 255.485 153.122 255.205 156.553C255.175 156.918 254.856 157.189 254.492 157.16C254.128 157.13 253.857 156.81 253.887 156.446L254.456 149.348C254.701 146.26 254.981 142.678 255.311 138.44L257.995 103.819L258.362 99.231C258.974 91.8096 257.982 85.1302 254.986 79.8021C251.314 73.2687 244.779 69.0389 234.897 67.6256C234.536 67.5738 234.284 67.2384 234.336 66.8764C234.388 66.5143 234.723 66.2628 235.084 66.3145C245.361 67.7844 252.258 72.2486 256.139 79.1525C259.251 84.6874 260.291 91.5385 259.699 99.1097L259.207 105.275C259.175 105.692 259.141 106.123 259.106 106.568Z" fill="#2F4077"/>
<path fill-rule="evenodd" clip-rule="evenodd" d="M192.926 118.864C192.926 118.842 175.333 121.624 175.333 121.624L173.459 139.216L174.12 153.034C177.912 153.122 182.013 152.857 186.356 152.063C189.09 151.555 192.022 149.215 192.816 146.544C194.117 142.108 194.425 129.879 192.926 118.864Z" fill="white"/>
<path fill-rule="evenodd" clip-rule="evenodd" d="M193.03 118.21L192.952 118.202L192.898 118.203C192.885 118.203 192.881 118.203 192.871 118.204L192.811 118.211L192.631 118.237L189.432 118.732L181.249 120.019L175.23 120.97C174.934 121.016 174.707 121.256 174.675 121.553L172.801 139.146C172.798 139.18 172.797 139.214 172.798 139.248L173.46 153.066C173.476 153.413 173.758 153.688 174.105 153.696C178.171 153.791 182.298 153.478 186.475 152.714C189.533 152.146 192.605 149.576 193.45 146.733L193.492 146.585C194.878 141.617 194.994 129.154 193.581 118.775L193.571 118.776L193.566 118.747C193.543 118.622 193.532 118.602 193.481 118.504L193.348 118.367C193.295 118.314 193.284 118.308 193.254 118.289L193.129 118.238C193.081 118.218 193.067 118.216 193.03 118.21ZM192.358 119.617L192.393 119.888C193.666 130.009 193.503 141.848 192.181 146.358C191.484 148.703 188.821 150.932 186.235 151.412L185.864 151.478C182.153 152.134 178.482 152.425 174.859 152.384L174.751 152.383L174.122 139.236L175.937 122.198L189.363 120.084L192.358 119.617Z" fill="#2F4077"/>
<path fill-rule="evenodd" clip-rule="evenodd" d="M180.889 157.051L184.416 136.457C184.416 136.457 181.109 132.329 181.374 126.502C181.396 126.127 181.418 125.729 181.462 125.332C181.44 125.244 174.495 122.992 174.098 122.153C174.363 117.408 178.221 104.804 185.011 101.89C187.194 100.875 192.463 99.3737 193.543 98.9984C198.57 97.2988 209.13 94.5176 218.302 96.3496C218.302 96.3496 232.323 98.6453 235.454 100.499C237.151 101.515 245.639 107.011 247.249 122.22C247.271 122.462 232.588 127.606 232.588 127.606L231.133 157.029" fill="#2F4077"/>
<path fill-rule="evenodd" clip-rule="evenodd" d="M202.34 89.3745L202.208 97.4754L199.342 98.0272C198.857 98.7336 193.433 107.033 205.691 108.093C213.694 108.799 222.512 104.097 227.252 98.5128L219.404 96.3717L217.045 81.3398L202.34 89.3745Z" fill="white"/>
<path fill-rule="evenodd" clip-rule="evenodd" d="M202.023 88.7932L201.985 88.8158C201.798 88.9347 201.682 89.1402 201.678 89.3636L201.555 96.9264L199.217 97.3769C199.046 97.4098 198.895 97.5086 198.796 97.6521C198.482 98.1095 198.12 98.7386 197.798 99.4867C197.294 100.656 197.02 101.83 197.077 102.961C197.238 106.161 199.941 108.26 205.634 108.752C213.365 109.435 222.492 105.144 227.756 98.9416L227.781 98.9104C228.06 98.5407 227.881 97.9979 227.426 97.8739L219.991 95.8453L217.698 81.237C217.627 80.7844 217.13 80.539 216.728 80.7585L202.023 88.7932ZM216.537 82.3715L218.75 96.4745L218.758 96.517C218.812 96.755 218.993 96.9459 219.23 97.0106L226.048 98.8706L225.971 98.954C220.879 104.374 212.663 108.043 205.749 107.433C200.649 106.992 198.521 105.339 198.398 102.894C198.353 101.993 198.582 101.009 199.012 100.011C199.174 99.6364 199.355 99.2799 199.545 98.9498L199.588 98.876C199.631 98.8037 199.671 98.7361 199.71 98.6734L199.741 98.6247L202.332 98.1257L202.372 98.1168C202.659 98.0432 202.864 97.786 202.869 97.4862L202.995 89.7709L216.537 82.3715Z" fill="#2F4077"/>
<rect width="3.68351" height="6.48625" transform="matrix(0.771134 0.636672 -0.635751 0.771894 231.497 47.6002)" fill="#E4794A"/>
<path fill-rule="evenodd" clip-rule="evenodd" d="M236.799 50.5695C240.378 50.5695 243.28 47.664 243.28 44.08C243.28 40.4959 240.378 37.5904 236.799 37.5904C233.219 37.5904 230.317 40.4959 230.317 44.08C230.317 47.664 233.219 50.5695 236.799 50.5695Z" fill="#2F4077"/>
<path fill-rule="evenodd" clip-rule="evenodd" d="M229.567 50.1281C224.739 46.8612 219.183 44.389 213.253 44.8967C194.976 47.3027 190.545 58.847 195.109 65.9988C197.975 57.7434 200.4 55.0063 203.993 53.9688C205.272 59.7741 214.377 68.5593 223.637 71.3405C223.659 71.3185 221.168 79.6622 220.374 79.3752C220.087 79.8167 217.133 83.812 217.133 83.812L219.007 93.1269L239.841 95.6654C241.098 95.9965 242.42 95.0473 242.464 93.7671C242.707 85.8427 244.956 60.8998 229.567 50.1281Z" fill="#2F4077"/>
<path fill-rule="evenodd" clip-rule="evenodd" d="M217.772 81.3177L218.919 81.9137C218.919 81.9137 225.864 84.8274 227.914 78.2054C229.479 73.1726 224.408 72.0469 221.851 71.782" fill="white"/>
<path fill-rule="evenodd" clip-rule="evenodd" d="M221.193 71.7139C221.231 71.3501 221.556 71.0857 221.919 71.1233C223.808 71.3189 225.512 71.7845 226.799 72.6574C228.642 73.9071 229.341 75.8427 228.545 78.4014C227.714 81.087 226.049 82.5862 223.835 83.0564C222.499 83.3402 221.095 83.2283 219.741 82.8735L219.573 82.8283C219.166 82.7153 218.855 82.6048 218.663 82.5244L218.638 82.5134L218.614 82.5014L217.468 81.9054C217.143 81.7369 217.017 81.3371 217.185 81.0125C217.347 80.7 217.724 80.5711 218.041 80.7125L218.077 80.73L219.197 81.3122L219.259 81.3361C219.288 81.3469 219.322 81.3595 219.362 81.3736L219.403 81.3882C219.601 81.4574 219.827 81.5271 220.076 81.5923C221.247 81.8993 222.456 81.9955 223.561 81.7608C225.309 81.3894 226.594 80.233 227.282 78.0085C227.903 76.0118 227.422 74.6793 226.058 73.754C224.99 73.0299 223.474 72.6158 221.783 72.4407C221.42 72.4031 221.156 72.0776 221.193 71.7139Z" fill="#2F4077"/>
<path fill-rule="evenodd" clip-rule="evenodd" d="M195.109 66.0209C197.975 57.7654 200.268 55.3374 203.861 54.2999C205.118 60.0169 213.054 68.3386 223.394 71.3185C223.284 72.5325 223.416 71.4509 223.108 72.7532C222.689 74.0556 222.226 75.5345 221.763 76.7706C219.713 81.3398 217.133 83.8561 217.133 83.8561C213.363 87.8514 208.248 90.2795 202.516 89.3303C192.529 87.6748 193.477 73.2168 194.05 70.1044C194.315 68.5372 195.087 66.0209 195.109 66.0209C195.087 66.0209 195.087 66.0209 195.109 66.0209Z" fill="white"/>
<path fill-rule="evenodd" clip-rule="evenodd" d="M203.555 53.6997C199.531 54.9073 197.226 57.9038 194.484 65.8035L194.486 65.8041L194.453 65.8954C194.201 66.602 193.637 68.6873 193.423 69.8507L193.398 69.9941C192.917 72.607 192.885 76.8586 193.678 80.4081C194.856 85.6869 197.657 89.196 202.408 89.9836L202.577 90.0107C208.088 90.8637 213.348 88.7612 217.487 84.4438L217.606 84.3192L217.671 84.254C217.773 84.1498 217.914 83.9994 218.088 83.8032C218.444 83.4014 218.831 82.9289 219.236 82.3876C220.381 80.8567 221.456 79.0704 222.366 77.042L222.382 77.0031C222.588 76.4545 222.799 75.8457 223.045 75.1003L223.264 74.4309L223.737 72.9562L223.745 72.9313L223.806 72.6803C223.84 72.5474 223.867 72.4488 223.888 72.3798L223.912 72.3087L223.926 72.2789L223.931 72.2682C223.971 72.1778 223.985 72.1199 223.997 72.0169L224.053 71.3784C224.082 71.0621 223.882 70.77 223.577 70.6821C218.801 69.3055 214.28 66.6789 210.67 63.3486C207.367 60.3025 205.11 56.9015 204.507 54.1576C204.425 53.7841 204.045 53.5577 203.678 53.6636L203.555 53.6997ZM203.31 55.1793L203.398 55.1467L203.4 55.1544C204.26 58.0404 206.556 61.3551 209.773 64.3226L209.94 64.475C213.502 67.7166 217.891 70.2999 222.554 71.7573L222.689 71.799L222.688 71.8076L222.668 71.859C222.658 71.8854 222.648 71.914 222.638 71.9455L222.627 71.9791C222.591 72.0942 222.549 72.2501 222.498 72.4596L222.47 72.5736L221.93 74.2557L221.745 74.8175C221.537 75.4426 221.356 75.9664 221.181 76.4378L221.151 76.5165L221.159 76.4992C220.291 78.4344 219.266 80.1376 218.177 81.5937C217.794 82.1049 217.431 82.5489 217.099 82.9238L216.986 83.0495C216.95 83.0894 216.915 83.1273 216.881 83.1631L216.763 83.2884L216.652 83.4014C212.737 87.5506 207.789 89.5322 202.624 88.677C198.49 87.9917 196.041 84.9236 194.969 80.1193C194.218 76.7565 194.248 72.6819 194.701 70.2245C194.813 69.5582 195.029 68.6601 195.298 67.6861L195.366 67.4419C195.423 67.2407 195.479 67.0466 195.532 66.8691L195.639 66.5162L195.712 66.2913L195.717 66.2812C195.723 66.2671 195.728 66.2528 195.733 66.2383L195.88 65.8185C198.271 59.0459 200.215 56.3468 203.31 55.1793Z" fill="#2F4077"/>
<path fill-rule="evenodd" clip-rule="evenodd" d="M202.818 64.1572C202.969 63.8243 203.362 63.6774 203.694 63.8289C204.015 63.975 204.163 64.3454 204.037 64.6701L204.022 64.706L199.518 74.6098L201.584 75.1593C201.924 75.2499 202.132 75.5903 202.062 75.9315L202.053 75.9694C201.963 76.3102 201.623 76.518 201.282 76.4483L201.244 76.4394L198.422 75.6889C198.039 75.587 197.834 75.1753 197.975 74.8107L197.99 74.7745L202.818 64.1572Z" fill="#2F4077"/>
<path fill-rule="evenodd" clip-rule="evenodd" d="M207.264 64.1798C208.657 63.7058 209.845 64.2154 210.754 65.2932C210.976 65.5569 211.165 65.8366 211.324 66.1166C211.42 66.2872 211.487 66.4239 211.524 66.5111C211.668 66.8474 211.512 67.2365 211.176 67.3803C210.852 67.5189 210.479 67.3787 210.324 67.067L210.28 66.9717C210.256 66.9218 210.22 66.8526 210.173 66.7693C210.053 66.5566 209.908 66.3437 209.743 66.1476C209.151 65.4457 208.489 65.1617 207.689 65.4338C207.344 65.5515 206.968 65.3662 206.85 65.0199C206.733 64.6736 206.918 64.2975 207.264 64.1798Z" fill="#2F4077"/>
<path fill-rule="evenodd" clip-rule="evenodd" d="M203.893 79.4221C204.147 79.1594 204.566 79.1529 204.828 79.4074C205.091 79.662 205.097 80.0812 204.843 80.3438C204.338 80.8659 203.692 81.1697 202.954 81.2892C202.252 81.4029 201.523 81.3455 200.818 81.1834L200.688 81.1524C200.482 81.1009 200.321 81.0507 200.217 81.0126C199.874 80.8872 199.697 80.507 199.823 80.1635C199.943 79.8322 200.301 79.656 200.634 79.7563L200.728 79.7879C200.742 79.7924 200.759 79.7976 200.778 79.8033C200.876 79.8334 200.989 79.8639 201.114 79.8925C201.667 80.0196 202.234 80.0642 202.743 79.9818C203.188 79.9098 203.555 79.7449 203.841 79.4741L203.893 79.4221Z" fill="#2F4077"/>
<path fill-rule="evenodd" clip-rule="evenodd" d="M196.502 61.8717C197.58 61.3961 198.687 61.6492 199.722 62.3226C200.104 62.5714 200.393 62.8209 200.566 62.9995C200.82 63.2621 200.814 63.6814 200.551 63.9359C200.299 64.1802 199.903 64.1839 199.647 63.9515L199.578 63.8844C199.551 63.8581 199.511 63.8224 199.462 63.7797C199.326 63.6618 199.17 63.5432 199.001 63.4331C198.302 62.9784 197.625 62.8235 197.036 63.0835C196.913 63.1376 196.792 63.2103 196.672 63.3033L196.612 63.3515C196.331 63.5853 195.914 63.5469 195.68 63.2656C195.447 62.9844 195.485 62.5669 195.766 62.3331C195.999 62.1388 196.245 61.9851 196.502 61.8717Z" fill="#2F4077"/>
<path fill-rule="evenodd" clip-rule="evenodd" d="M206.972 69.1371C207.153 68.3281 206.876 67.5774 206.353 67.4603C205.83 67.3432 205.26 67.9041 205.079 68.7131C204.898 69.5221 205.176 70.2728 205.698 70.3899C206.221 70.507 206.792 69.9461 206.972 69.1371Z" fill="#2F4077"/>
<path fill-rule="evenodd" clip-rule="evenodd" d="M197.933 67.4161C198.114 66.6071 197.837 65.8564 197.314 65.7393C196.791 65.6222 196.221 66.1831 196.04 66.9921C195.859 67.8011 196.136 68.5518 196.659 68.6689C197.182 68.786 197.753 68.2251 197.933 67.4161Z" fill="#2F4077"/>
<path fill-rule="evenodd" clip-rule="evenodd" d="M203.33 67.8146C202.264 72.4997 204.306 77.0242 208.008 77.87C211.711 78.7158 215.509 75.5252 216.575 70.8401C217.641 66.155 215.599 61.6305 211.897 60.7847C208.194 59.9389 204.396 63.1295 203.33 67.8146ZM204.62 68.1093C205.539 64.0715 208.703 61.4133 211.603 62.0757C214.502 62.7381 216.204 66.5076 215.285 70.5454C214.366 74.5832 211.202 77.2414 208.302 76.579C205.402 75.9166 203.701 72.1471 204.62 68.1093Z" fill="#E4794A"/>
<path fill-rule="evenodd" clip-rule="evenodd" d="M187.332 64.75C186.266 69.4351 188.307 73.9596 192.01 74.8053C195.712 75.6511 199.51 72.4605 200.576 67.7754C201.642 63.0904 199.6 58.5659 195.898 57.7201C192.195 56.8743 188.398 60.0649 187.332 64.75ZM188.622 65.0447C189.541 61.0068 192.704 58.3487 195.604 59.0111C198.504 59.6735 200.205 63.4429 199.286 67.4808C198.367 71.5186 195.203 74.1767 192.304 73.5143C189.404 72.8519 187.703 69.0825 188.622 65.0447Z" fill="#E4794A"/>
<path fill-rule="evenodd" clip-rule="evenodd" d="M199.761 66.3581C199.851 66.0173 200.191 65.8097 200.532 65.8797L200.57 65.8886L204.296 66.8819C204.649 66.976 204.859 67.3388 204.765 67.6922C204.674 68.033 204.334 68.2406 203.993 68.1706L203.955 68.1617L200.23 67.1684C199.877 67.0743 199.667 66.7115 199.761 66.3581Z" fill="#E4794A"/>
<path fill-rule="evenodd" clip-rule="evenodd" d="M215.588 69.0763C215.712 68.7463 216.071 68.5737 216.403 68.6774L216.44 68.6901L224.223 71.6259C224.564 71.7548 224.737 72.1368 224.608 72.479C224.484 72.809 224.125 72.9816 223.793 72.8779L223.756 72.8652L215.974 69.9295C215.632 69.8005 215.459 69.4185 215.588 69.0763Z" fill="#E4794A"/>
<path fill-rule="evenodd" clip-rule="evenodd" d="M69.5979 35.8908C69.5979 35.4493 66.0926 30.3062 65.0123 28.5845C63.932 26.8628 66.5335 25.3176 68.2752 27.9002C69.9948 30.4828 71.1632 32.7784 71.1632 32.7784" fill="white"/>
<path fill-rule="evenodd" clip-rule="evenodd" d="M65.3507 26.0092C66.5077 25.5693 67.8753 26.124 68.8254 27.5329C69.5874 28.6772 70.2983 29.8475 70.9396 30.9815L71.0856 31.2414C71.2042 31.4537 71.3151 31.6555 71.4178 31.8453L71.5726 32.134L71.7362 32.446C71.743 32.4592 71.7485 32.4699 71.7525 32.4777C71.9183 32.8036 71.789 33.2024 71.4635 33.3684C71.1501 33.5283 70.7692 33.4141 70.5933 33.1145L70.5679 33.0674L70.4676 32.8748C70.438 32.8186 70.4056 32.7574 70.3704 32.6915L70.2545 32.4757C70.1146 32.2172 69.9589 31.9354 69.7885 31.634C69.1621 30.5263 68.4675 29.383 67.727 28.2708C67.1013 27.3431 66.3596 27.0422 65.8202 27.2473C65.4179 27.4002 65.2878 27.7788 65.5723 28.2322L65.713 28.4545C65.8364 28.6479 65.9869 28.8804 66.1733 29.1663L67.7779 31.6109C69.7064 34.5559 70.2593 35.4517 70.2593 35.8908C70.2593 36.2565 69.9632 36.553 69.5979 36.553C69.2848 36.553 69.0225 36.3351 68.954 36.0426L68.9464 36.0064L68.9401 35.9918C68.9221 35.9509 68.8954 35.8967 68.8607 35.8306L68.8152 35.7458C68.7065 35.5465 68.5491 35.2793 68.3459 34.9486L68.0769 34.5159C67.7957 34.068 67.456 33.5396 67.0383 32.8983L64.9727 29.7475C64.7515 29.4076 64.5841 29.147 64.4522 28.9367C63.7207 27.7709 64.1724 26.4571 65.3507 26.0092Z" fill="#2F4077"/>
<path fill-rule="evenodd" clip-rule="evenodd" d="M73.0372 43.3736C73.0372 43.3736 69.9507 38.2747 69.6641 36.1777C69.3775 34.0807 69.0468 24.1477 69.4877 23.1544C69.9286 22.1611 71.7585 22.1611 71.8026 24.5671C71.8467 26.9731 71.8026 32.1162 71.8026 32.1162" fill="white"/>
<path fill-rule="evenodd" clip-rule="evenodd" d="M68.8832 22.8855C69.2431 22.0747 70.166 21.6725 71.007 21.9592C71.8979 22.2628 72.4391 23.2091 72.4638 24.555L72.4723 25.1398C72.4792 25.7387 72.4827 26.4672 72.4834 27.3022L72.4828 28.3721C72.4822 28.695 72.4813 29.0237 72.4801 29.3559L72.4728 30.8556L72.4639 32.1219C72.4608 32.4876 72.1621 32.7815 71.7968 32.7784C71.4446 32.7754 71.1591 32.4972 71.1419 32.1494L71.142 32.0083L71.1509 30.6899L71.1573 29.3513C71.1585 29.0199 71.1594 28.692 71.16 28.3699L71.1597 26.7592C71.1575 25.8789 71.1515 25.1408 71.1412 24.5793C71.1259 23.744 70.8807 23.3151 70.5807 23.2129C70.3867 23.1468 70.1736 23.2397 70.092 23.4234C69.7749 24.1377 69.9848 33.6407 70.3193 36.0879C70.4033 36.7028 70.8006 37.7406 71.4318 39.0446C71.5854 39.3621 71.751 39.6915 71.9269 40.0306C72.2324 40.6195 72.5565 41.2142 72.8837 41.7932L73.0803 42.1385C73.159 42.2757 73.2345 42.4061 73.3061 42.5289L73.6027 43.0304C73.7921 43.3432 73.6923 43.7504 73.3799 43.9399C73.0791 44.1225 72.6908 44.0366 72.4934 43.7507L72.4317 43.6506L72.3221 43.4663C72.2046 43.2676 72.0739 43.0433 71.9332 42.7979C71.5311 42.0966 71.1289 41.3657 70.753 40.641C70.5717 40.2915 70.4006 39.9511 70.2414 39.6222L70.1223 39.3738C69.5018 38.0651 69.111 37.0159 69.0087 36.2675L68.9887 36.1096C68.8528 34.9608 68.7126 32.2371 68.6479 29.5327L68.6335 28.8701C68.5694 25.6084 68.6303 23.4552 68.8832 22.8855Z" fill="#2F4077"/>
<path fill-rule="evenodd" clip-rule="evenodd" d="M70.8325 39.7977C70.127 37.3255 69.664 35.3389 69.7522 34.6767C70.0168 32.5135 72.4198 22.8454 73.2576 22.0949C74.0954 21.3444 75.6386 23.022 74.9993 25.3838L73.3899 32.2266C73.3899 32.2266 75.837 24.832 76.4102 24.0594C76.9835 23.2869 79.2983 24.4567 77.5567 28.9156C75.815 33.3523 76.0134 33.8158 76.0134 33.8158C76.0134 33.8158 78.3724 28.5403 79.0558 27.6574C79.7393 26.7744 81.988 28.9818 79.0779 33.6393L86.1548 48.605L75.0875 53.2404C75.0875 53.2404 72.3978 45.3602 70.8325 39.7977Z" fill="white"/>
<path fill-rule="evenodd" clip-rule="evenodd" d="M72.8166 21.6014C73.5851 20.913 74.618 21.2756 75.2338 22.2066C75.5265 22.6492 75.715 23.1874 75.7831 23.7769L75.7864 23.808L75.7985 23.7877C75.8215 23.7492 75.8433 23.7152 75.864 23.6858L75.8794 23.6646C76.5255 22.7937 77.8131 23.1304 78.4249 24.1956C78.8207 24.8846 78.9517 25.8094 78.7889 26.932L78.7763 27.0144L78.8089 26.9916C79.17 26.7485 79.6335 26.7432 80.0456 26.9673L80.0947 26.9953C80.5362 27.258 80.8757 27.7587 81.0518 28.3935C81.4229 29.7319 81.0741 31.5154 79.9106 33.5373L79.8282 33.6783L86.7526 48.3216C86.9083 48.6508 86.7688 49.0412 86.4466 49.1993L86.4101 49.2159L75.3427 53.8513C75.0019 53.9941 74.6132 53.8293 74.4754 53.4914L74.4565 53.4395L73.9686 51.9922C73.8589 51.6643 73.7437 51.3185 73.6238 50.957C72.9958 49.0633 72.3677 47.1268 71.7813 45.2587L71.5867 44.6362C71.5227 44.4305 71.4595 44.2269 71.3973 44.0253L71.172 43.2911C70.8534 42.2468 70.565 41.2736 70.3108 40.3827L70.0842 39.5828C69.3659 37.0266 69.0131 35.3617 69.0914 34.6325L69.0958 34.5962C69.2307 33.4928 69.8841 30.5871 70.6164 27.8157L70.7542 27.2989C71.6201 24.0783 72.3036 22.061 72.8166 21.6014ZM73.7543 22.585L73.7298 22.5767C73.7153 22.5727 73.7125 22.576 73.6986 22.5884C73.1476 23.0821 70.7692 32.0227 70.4178 34.6855L70.4078 34.7642C70.3456 35.2317 70.7082 36.9253 71.4014 39.3798L71.5829 40.0196C71.8541 40.9702 72.1652 42.017 72.5109 43.1456L72.6611 43.6343C72.7849 44.0354 72.9124 44.4448 73.0433 44.8616C73.5543 46.4896 74.0974 48.1708 74.6445 49.8301L75.1117 51.2387L75.4861 52.3555L85.2606 48.2615L78.4801 33.9226C78.3901 33.7322 78.3962 33.5112 78.4947 33.327L78.5172 33.2881C79.7152 31.3707 80.0656 29.7879 79.7772 28.7478C79.7091 28.5022 79.6106 28.3207 79.5139 28.2145L79.4902 28.1898L79.4301 28.286C79.182 28.6932 78.7726 29.4857 78.2661 30.5342L78.1426 30.7909L78.0619 30.9597C77.7766 31.5578 77.4799 32.1939 77.1856 32.8348L76.7868 33.7097L76.6171 34.0864C76.3816 34.6132 75.6326 34.6072 75.4055 34.0767C75.3818 34.0212 75.3662 33.9642 75.3568 33.9048C75.2731 33.3764 75.6715 31.9076 76.9407 28.6744C77.6486 26.8623 77.6826 25.5599 77.2782 24.8559C77.1686 24.665 77.0419 24.5532 76.9353 24.5142L76.9081 24.5055L76.8781 24.5598C76.6844 24.9258 76.2607 26.0003 75.7242 27.4859L75.5824 27.8806L75.4222 28.3315L75.2088 28.9385C75.0296 29.4512 74.8474 29.9795 74.6656 30.5122L74.3063 31.572L74.0177 32.4349C73.7567 33.2237 72.5912 32.9076 72.7378 32.1142L72.7461 32.0748L74.3555 25.2321L74.3609 25.2106C74.6049 24.3092 74.4865 23.4754 74.1309 22.9379C74.0024 22.7435 73.8617 22.6227 73.7543 22.585Z" fill="#2F4077"/>
<path fill-rule="evenodd" clip-rule="evenodd" d="M176.788 98.3142C176.788 98.3142 181.175 96.1951 182.895 96.1068C184.614 96.0185 192.772 96.5704 193.543 97.0118C194.315 97.4533 194.161 98.9543 192.198 98.7777C190.214 98.6232 186.07 98.1376 186.07 98.1376" fill="white"/>
<path fill-rule="evenodd" clip-rule="evenodd" d="M182.861 95.4455L182.998 95.4397C185.341 95.3592 193.045 95.9642 193.872 96.4369C194.556 96.8284 194.827 97.6841 194.497 98.403C194.159 99.1406 193.323 99.5227 192.224 99.4441L191.889 99.417C191.347 99.3716 190.66 99.3053 189.855 99.2221L189.07 99.1394C188.542 99.0829 188.001 99.0235 187.464 98.9632L185.993 98.7953C185.63 98.7528 185.37 98.4239 185.413 98.0606C185.454 97.7103 185.761 97.4561 186.108 97.4765L187.077 97.5869L188.146 97.7067C188.325 97.7265 188.503 97.746 188.681 97.7654L189.72 97.8765L190.626 97.9693C191.153 98.0218 191.615 98.065 192.002 98.0974L192.258 98.1182C192.892 98.1752 193.21 98.0345 193.295 97.8501C193.34 97.7529 193.303 97.637 193.215 97.5868C192.682 97.2819 184.983 96.6828 182.987 96.7654L182.929 96.7682C182.429 96.7938 181.541 97.0476 180.415 97.4733C180.131 97.5805 179.835 97.6972 179.531 97.8219C178.95 98.0601 178.364 98.3158 177.803 98.5715L177.522 98.7006L177.075 98.9106C176.746 99.0695 176.351 98.9313 176.192 98.6019C176.034 98.2725 176.172 97.8766 176.501 97.7177L176.706 97.62C176.869 97.5433 177.053 97.458 177.255 97.3661C177.83 97.1038 178.431 96.8415 179.03 96.5962C179.345 96.4671 179.652 96.3459 179.948 96.2341L180.187 96.1451C181.324 95.7265 182.227 95.4781 182.861 95.4455Z" fill="#2F4077"/>
<path fill-rule="evenodd" clip-rule="evenodd" d="M170.262 98.1817C170.262 98.1817 175.223 97.652 179.852 96.7911L170.262 98.1817Z" fill="white"/>
<path fill-rule="evenodd" clip-rule="evenodd" d="M179.732 96.14C180.091 96.0733 180.436 96.3106 180.503 96.6702C180.569 97.0298 180.332 97.3754 179.973 97.4422C179.686 97.4955 179.394 97.5484 179.096 97.6008C177.315 97.9144 175.418 98.1994 173.512 98.452L172.648 98.5643C172.16 98.6264 171.698 98.6828 171.27 98.7334L170.332 98.8402C169.969 98.879 169.643 98.6156 169.605 98.252C169.566 97.8883 169.829 97.562 170.192 97.5233L170.735 97.4624L171.299 97.3963C171.795 97.3371 172.332 97.2703 172.902 97.1963C174.937 96.932 176.971 96.6303 178.867 96.2964C179.161 96.2447 179.449 96.1926 179.732 96.14Z" fill="#2F4077"/>
<path fill-rule="evenodd" clip-rule="evenodd" d="M177.053 97.5416C179.103 97.1663 183.622 96.0847 184.152 96.2172C185.893 96.6145 193.543 99.4178 194.072 100.146C194.602 100.897 193.124 102 191.251 101.272L185.827 99.3737C185.827 99.3737 191.625 102 192.199 102.53C192.772 103.06 191.625 104.848 188.164 103.038C184.703 101.25 184.306 101.36 184.306 101.36C184.306 101.36 188.384 103.722 189.068 104.362C189.751 105.002 187.745 106.636 184.196 103.855L177.251 106.481C175.642 106.415 163.714 102.596 164.464 101.515C165.214 100.433 170.395 93.149 170.395 93.149L177.053 97.5416Z" fill="white"/>
<path fill-rule="evenodd" clip-rule="evenodd" d="M184.087 104.603L184.172 104.665C185.732 105.79 187.177 106.233 188.326 106.045C188.889 105.953 189.355 105.704 189.626 105.338L189.657 105.294C189.846 105.015 189.906 104.691 189.83 104.394L189.826 104.378L189.84 104.381C190.672 104.563 191.389 104.521 191.962 104.267L192.012 104.244C192.895 103.824 193.3 102.851 192.781 102.188L192.758 102.16L192.788 102.158C193.18 102.122 193.546 102.018 193.867 101.852C194.73 101.404 195.147 100.521 194.613 99.7644C194.264 99.2834 192.713 98.5652 190.173 97.5815L189.803 97.4391C187.599 96.5945 185.282 95.8049 184.346 95.5825L184.265 95.564C183.893 95.4881 183.148 95.6034 181.197 96.0073L177.87 96.7075C177.637 96.7555 177.458 96.7911 177.292 96.8232L177.194 96.8417L170.758 92.5961C170.473 92.4075 170.093 92.4692 169.88 92.7324L169.519 93.2388L164.394 100.462C164.173 100.776 164.013 101.004 163.921 101.137C163.555 101.664 163.809 102.141 164.317 102.551C164.613 102.79 165.05 103.048 165.628 103.332C166.633 103.827 168.07 104.405 169.752 105.003L169.97 105.08C173.038 106.16 176.338 107.106 177.224 107.143C177.313 107.147 177.401 107.132 177.485 107.101L184.087 104.603ZM170.563 94.0534L176.689 98.0946C176.831 98.1884 177.004 98.2237 177.171 98.193L177.594 98.1135C177.779 98.0778 177.98 98.0372 178.252 97.9809L181.231 97.3531C181.869 97.2206 182.344 97.126 182.765 97.0483L183.009 97.0043C183.3 96.9529 183.539 96.9156 183.725 96.8929C183.817 96.8817 183.893 96.8743 183.953 96.8707L184.019 96.8682L184.028 96.8681L184.13 96.8934C185.014 97.1184 187.024 97.8022 188.996 98.5487L189.427 98.7132L189.827 98.8685C191.669 99.5895 193.13 100.248 193.469 100.478L193.495 100.497L193.479 100.516C193.434 100.566 193.36 100.623 193.258 100.676C192.841 100.892 192.221 100.919 191.563 100.682L191.469 100.647L186.045 98.7486C185.262 98.4743 184.801 99.5924 185.519 99.9598L186.553 100.434L187.114 100.694C187.581 100.911 188.042 101.127 188.486 101.338L189.024 101.595C189.674 101.907 190.234 102.184 190.685 102.416L190.918 102.537L191.107 102.638C191.266 102.723 191.401 102.799 191.507 102.861L191.623 102.93L191.611 102.941C191.569 102.98 191.508 103.02 191.427 103.056C190.873 103.301 189.89 103.176 188.559 102.497L188.055 102.238C185.743 101.059 184.687 100.663 184.251 100.7L184.233 100.702C184.184 100.709 184.184 100.709 184.129 100.722C183.577 100.876 183.472 101.605 183.941 101.913L184.028 101.965L184.729 102.375C185.215 102.662 185.7 102.952 186.162 103.232L186.606 103.504L186.957 103.722C187.507 104.065 187.95 104.354 188.249 104.564L188.387 104.663L188.363 104.673C188.295 104.699 188.211 104.722 188.112 104.738C187.274 104.875 186.041 104.46 184.603 103.333L184.566 103.306C184.389 103.186 184.164 103.159 183.962 103.235L177.157 105.809L177.128 105.805C176.171 105.678 173.009 104.755 170.194 103.755L169.88 103.642C168.43 103.119 167.189 102.618 166.305 102.189L166.13 102.103L165.963 102.018C165.667 101.864 165.431 101.726 165.263 101.607L165.225 101.58L166.836 99.3019L170.563 94.0534Z" fill="#2F4077"/>
<path fill-rule="evenodd" clip-rule="evenodd" d="M156.417 11.1245C156.417 11.1245 143.123 1.34598 141.469 1.89781L134.04 1.23561C125.375 0.463044 117.725 6.86431 116.932 15.5391L107.297 63.4383L151.214 69.2657L155.226 24.236C155.513 24.1036 155.8 23.9491 156.064 23.7725C159.239 21.6314 159.261 16.3117 156.417 11.1245Z" fill="#2F4077"/>
<path fill-rule="evenodd" clip-rule="evenodd" d="M175.575 94.1865L160.716 83.7237L165.059 69.4202C166.757 62.0698 165.302 52.7769 157.387 50.0619C153.573 48.7595 152.294 48.4064 151.853 48.2518C151.853 48.2518 126.985 41.5415 123.898 40.3717C121.782 39.577 112.875 39.9302 106.349 46.1549L91.9531 57.1915L84.7219 36.2881L67.6138 43.3074L78.8795 76.881C78.8795 76.881 82.5833 89.8822 92.4822 85.0702L107.65 76.2629C107.76 81.3177 107.805 88.337 105.203 95.6654C101.367 106.459 99.4048 117.827 99.4269 129.261C99.4489 143.013 99.493 155.705 99.493 155.705L164.376 156.279C164.376 156.279 153.683 107.188 153.683 102.95C153.639 102.641 153.639 102.309 153.617 101.978C159.107 105.466 165.919 108.556 165.919 108.556L175.575 94.1865Z" fill="#E4794A"/>
<path fill-rule="evenodd" clip-rule="evenodd" d="M154.189 58.6794C154.537 58.5688 154.909 58.7618 155.019 59.1104L155.575 60.8353C156.023 62.2154 156.565 63.8779 156.711 64.3357L156.828 64.7048C157.382 66.4618 157.773 67.8323 158.079 69.1335C158.89 72.5816 159.039 75.3993 158.426 78.131C157.614 81.7507 155.434 85.1784 151.536 88.7886L151.383 88.9297L155.964 112.469C156.031 112.815 155.816 113.151 155.479 113.237L155.441 113.246C155.095 113.313 154.76 113.098 154.674 112.76L154.665 112.722L150.014 88.8168C149.969 88.5885 150.048 88.3535 150.22 88.1979C154.199 84.6138 156.36 81.299 157.135 77.8408C157.699 75.3294 157.56 72.7055 156.791 69.437L156.728 69.1742C156.429 67.9416 156.046 66.6166 155.509 64.921L155.174 63.8817C154.748 62.5694 154.011 60.308 153.758 59.5108C153.648 59.1622 153.841 58.7899 154.189 58.6794Z" fill="#2F4077"/>
<path fill-rule="evenodd" clip-rule="evenodd" d="M108.51 76.3512L121.517 68.2503L108.51 76.3512Z" fill="white"/>
<path fill-rule="evenodd" clip-rule="evenodd" d="M121.168 67.688C121.478 67.4948 121.886 67.59 122.079 67.9005C122.265 68.1996 122.184 68.5893 121.9 68.7902L121.867 68.8126L108.859 76.9135C108.549 77.1067 108.141 77.0115 107.948 76.701C107.763 76.4019 107.844 76.0122 108.127 75.8112L108.161 75.7889L121.168 67.688Z" fill="#2F4077"/>
<path fill-rule="evenodd" clip-rule="evenodd" d="M92.3179 56.9784C92.606 56.7535 93.0216 56.8049 93.2462 57.0933L93.3533 57.2348L93.4051 57.305C93.527 57.4709 93.6623 57.6615 93.8076 57.8743C94.2219 58.481 94.6359 59.1469 95.0229 59.8532C95.7918 61.2564 96.3581 62.6416 96.636 63.957C96.9166 65.285 96.8913 66.496 96.497 67.5545C96.3694 67.8972 95.9885 68.0714 95.6462 67.9437C95.304 67.8159 95.13 67.4345 95.2576 67.0918C95.5543 66.2952 95.5744 65.3319 95.3419 64.231C95.0944 63.0599 94.5748 61.789 93.8632 60.4902C93.4984 59.8244 93.1069 59.1947 92.7157 58.6219L92.6012 58.4559C92.5266 58.3488 92.4556 58.2491 92.3888 58.1572L92.2248 57.936C92.2161 57.9246 92.2089 57.9152 92.2031 57.9078C91.9785 57.6194 92.0299 57.2033 92.3179 56.9784Z" fill="#2F4077"/>
<path fill-rule="evenodd" clip-rule="evenodd" d="M145.989 37.2372L146.121 46.9495L151.214 48.4726C151.435 49.3334 149.472 64.0564 136.531 60.2818C128.043 57.8096 124.913 48.3843 124.406 40.8573L131.482 43.2191L131.019 25.0086L145.989 37.2372Z" fill="white"/>
<path fill-rule="evenodd" clip-rule="evenodd" d="M130.358 25.0255L130.797 42.2923L124.615 40.229C124.168 40.0801 123.714 40.432 123.746 40.9018C124.033 45.1738 125.084 49.3585 126.891 52.7749C129.056 56.8686 132.207 59.7121 136.346 60.9176C142.331 62.6632 146.65 60.7999 149.368 56.4677C150.335 54.9265 151.034 53.1592 151.475 51.3702L151.518 51.1907C151.821 49.9075 151.958 48.7131 151.855 48.3081L151.843 48.2664C151.775 48.0611 151.612 47.9004 151.403 47.8381L146.776 46.4542L146.65 37.2282C146.648 37.0325 146.559 36.8479 146.407 36.7241L131.438 24.4955C130.999 24.1376 130.344 24.4595 130.358 25.0255ZM131.717 26.4332L145.332 37.5551L145.46 46.9585L145.462 46.9996C145.482 47.2716 145.668 47.5051 145.932 47.584L150.555 48.9663L150.551 49.0073C150.544 49.0974 150.533 49.1964 150.521 49.3023C150.459 49.81 150.347 50.416 150.191 51.0532C149.782 52.7137 149.133 54.352 148.248 55.7632C145.833 59.6131 142.11 61.2192 136.716 59.646C132.946 58.5479 130.067 55.9505 128.06 52.1552L127.967 51.9778C126.465 49.0682 125.523 45.5586 125.159 41.9275L125.146 41.8027L131.273 43.8473C131.708 43.9925 132.155 43.6612 132.144 43.2023L131.717 26.4332Z" fill="#2F4077"/>
<path fill-rule="evenodd" clip-rule="evenodd" d="M125.271 28.6375C125.437 28.3115 125.835 28.1816 126.16 28.3474C126.486 28.5131 126.616 28.9118 126.45 29.2378C125.837 30.4457 125.615 32.1297 125.875 33.8948C126.36 37.1493 128.297 39.4849 130.082 39.2726C130.444 39.2294 130.773 39.4889 130.816 39.852C130.86 40.2152 130.6 40.5446 130.238 40.5877C127.582 40.9037 125.144 37.9639 124.567 34.0892C124.268 32.0642 124.526 30.104 125.271 28.6375Z" fill="#E4794A"/>
<path fill-rule="evenodd" clip-rule="evenodd" d="M155.276 27.7987C155.442 27.4727 155.84 27.3428 156.166 27.5086C156.491 27.6744 156.621 28.073 156.456 28.399C155.842 29.6069 155.62 31.2909 155.881 33.056C156.365 36.3106 158.302 38.6461 160.087 38.4338C160.45 38.3907 160.779 38.6501 160.822 39.0133C160.865 39.3764 160.606 39.7058 160.243 39.749C157.587 40.0649 155.149 37.1251 154.572 33.2504C154.274 31.2254 154.532 29.2652 155.276 27.7987Z" fill="#E4794A"/>
<path fill-rule="evenodd" clip-rule="evenodd" d="M132.085 27.1625C133.219 24.8274 132.15 21.9661 129.698 20.7717C127.245 19.5772 124.337 20.502 123.202 22.8371C122.068 25.1723 123.137 28.0336 125.59 29.228C128.042 30.4224 130.95 29.4977 132.085 27.1625Z" fill="white"/>
<path fill-rule="evenodd" clip-rule="evenodd" d="M122.606 22.5463C121.31 25.2165 122.526 28.4704 125.302 29.8223C128.077 31.1742 131.384 30.1237 132.681 27.4534C133.978 24.7831 132.761 21.5293 129.986 20.1774C127.21 18.8255 123.903 19.876 122.606 22.5463ZM123.796 23.1259C124.767 21.127 127.276 20.33 129.407 21.3681C131.539 22.4063 132.462 24.875 131.491 26.8738C130.52 28.8727 128.011 29.6697 125.88 28.6316C123.749 27.5934 122.826 25.1247 123.796 23.1259Z" fill="#2F4077"/>
<path fill-rule="evenodd" clip-rule="evenodd" d="M161.64 25.5004C162.641 23.4393 161.696 20.9126 159.528 19.8568C157.359 18.801 154.79 19.616 153.789 21.6771C152.788 23.7381 153.734 26.2648 155.902 27.3206C158.07 28.3764 160.639 27.5615 161.64 25.5004Z" fill="white"/>
<path fill-rule="evenodd" clip-rule="evenodd" d="M153.193 21.3863C152.029 23.7828 153.123 26.702 155.613 27.9151C158.104 29.1281 161.072 28.1876 162.236 25.7911C163.4 23.3947 162.306 20.4755 159.816 19.2624C157.325 18.0493 154.357 18.9899 153.193 21.3863ZM154.383 21.9659C155.221 20.2413 157.391 19.5536 159.237 20.4531C161.084 21.3527 161.884 23.4869 161.046 25.2116C160.209 26.9362 158.038 27.6238 156.192 26.7243C154.345 25.8248 153.545 23.6905 154.383 21.9659Z" fill="#2F4077"/>
<path fill-rule="evenodd" clip-rule="evenodd" d="M146.155 40.2034C153.446 38.9211 158.01 30.202 156.348 20.7287C154.686 11.2554 147.428 4.61532 140.137 5.8976C132.845 7.17987 128.282 15.899 129.944 25.3722C131.606 34.8455 138.864 41.4856 146.155 40.2034Z" fill="white"/>
<path fill-rule="evenodd" clip-rule="evenodd" d="M140.025 5.24786C132.33 6.60225 127.572 15.6888 129.29 25.4893C131.008 35.2898 138.572 42.2075 146.267 40.8531C153.962 39.4987 158.72 30.4122 157.002 20.6117C155.284 10.8112 147.72 3.89347 140.025 5.24786ZM140.254 6.55204C147.144 5.33929 154.096 11.6976 155.699 20.8411C157.302 29.9846 152.929 38.3362 146.038 39.549C139.148 40.7617 132.196 34.4034 130.593 25.2599C128.99 16.1164 133.363 7.76479 140.254 6.55204Z" fill="#2F4077"/>
<path fill-rule="evenodd" clip-rule="evenodd" d="M145.781 19.0915C146.123 19.0042 146.47 19.2 146.575 19.5318L146.586 19.5692L148.416 26.7463C148.582 27.4084 148.101 28.0695 147.439 28.0977L144.771 28.1649C144.406 28.1741 144.102 27.8852 144.093 27.5196C144.084 27.167 144.352 26.8719 144.699 26.843L144.738 26.8409L147.06 26.7824L145.304 19.8969C145.217 19.5552 145.412 19.2077 145.744 19.1022L145.781 19.0915Z" fill="#2F4077"/>
<path fill-rule="evenodd" clip-rule="evenodd" d="M137.99 15.0904C139.038 14.5051 140.147 14.2911 141.222 14.7085C141.601 14.8557 141.958 15.0791 142.289 15.3803C142.559 15.6263 142.579 16.0451 142.334 16.3157C142.088 16.5863 141.67 16.6062 141.399 16.3602C141.188 16.1674 140.969 16.0309 140.744 15.9434C140.102 15.6942 139.372 15.8351 138.634 16.2471C138.46 16.3441 138.301 16.4483 138.162 16.5518L138.083 16.6117C138.068 16.6234 138.055 16.6338 138.044 16.643L138.006 16.6747C137.733 16.9174 137.315 16.8923 137.072 16.6186C136.83 16.345 136.855 15.9265 137.128 15.6838C137.305 15.5268 137.6 15.3078 137.99 15.0904Z" fill="#2F4077"/>
<path fill-rule="evenodd" clip-rule="evenodd" d="M148.488 14.8308C149.191 14.6721 149.923 14.6276 150.63 14.7723C151.618 14.9747 152.423 15.5317 152.924 16.4898C153.094 16.8137 152.969 17.214 152.646 17.3838C152.334 17.5473 151.952 17.4375 151.772 17.14L151.753 17.1048C151.445 16.5176 150.981 16.1961 150.364 16.0698C149.868 15.9682 149.314 16.0019 148.779 16.1228C148.692 16.1424 148.612 16.163 148.539 16.1837L148.415 16.2218L148.397 16.2278C148.054 16.3526 147.675 16.1751 147.55 15.8313C147.425 15.4875 147.603 15.1077 147.946 14.9829C148.059 14.9417 148.245 14.8856 148.488 14.8308Z" fill="#2F4077"/>
<path fill-rule="evenodd" clip-rule="evenodd" d="M143.154 22.8368C143.189 21.9719 142.744 21.2517 142.16 21.2281C141.576 21.2045 141.074 21.8865 141.039 22.7513C141.004 23.6162 141.45 24.3364 142.034 24.36C142.618 24.3836 143.119 23.7016 143.154 22.8368Z" fill="#2F4077"/>
<path fill-rule="evenodd" clip-rule="evenodd" d="M151.024 24.567C151.595 24.5301 152.013 23.8 151.957 22.9362C151.902 22.0725 151.393 21.4023 150.822 21.4392C150.251 21.4762 149.834 22.2063 149.889 23.07C149.945 23.9337 150.453 24.604 151.024 24.567Z" fill="#2F4077"/>
<path fill-rule="evenodd" clip-rule="evenodd" d="M138.317 28.2953C138.431 32.0728 139.807 33.9663 142.047 34.1649C142.89 34.2397 143.763 34.0604 144.621 33.7202C145.05 33.5496 145.383 33.3776 145.583 33.2559C145.99 33.008 146.01 32.4234 145.62 32.1487L139.359 27.734C138.913 27.4198 138.301 27.7499 138.317 28.2953ZM139.748 29.6277L143.92 32.5694C143.309 32.7869 142.706 32.8938 142.163 32.8456C140.947 32.7378 140.097 31.8568 139.775 29.8131L139.748 29.6277Z" fill="#2F4077"/>
<path fill-rule="evenodd" clip-rule="evenodd" d="M158.636 25.0377C161.257 24.6518 163.408 27.7284 164.016 31.8652C164.592 35.783 163.039 39.3505 160.349 39.7465L160.301 39.7518L160.253 39.7536H160.165C159.8 39.7536 159.504 39.4571 159.504 39.0914C159.504 38.7387 159.779 38.4505 160.126 38.4303L160.165 38.4292L160.201 38.429L160.211 38.4275C161.966 38.1174 163.161 35.3676 162.721 32.1566L162.707 32.0582C162.192 28.5519 160.481 26.1047 158.828 26.348C158.467 26.4012 158.131 26.1511 158.078 25.7892C158.024 25.4274 158.274 25.0909 158.636 25.0377Z" fill="#E4794A"/>
<path fill-rule="evenodd" clip-rule="evenodd" d="M128.234 26.2297C130.927 25.833 133.436 28.7936 134.011 32.7261C134.587 36.6439 133.034 40.2114 130.344 40.6074L130.296 40.6127L130.248 40.6145H130.16C129.794 40.6145 129.498 40.318 129.498 39.9523C129.498 39.5996 129.774 39.3113 130.121 39.2912L130.16 39.2901L130.196 39.2898L130.206 39.2884C131.961 38.9782 133.156 36.2284 132.716 33.0169L132.702 32.9185C132.22 29.6177 130.234 27.2739 128.426 27.54C128.065 27.5932 127.729 27.343 127.675 26.9812C127.622 26.6194 127.872 26.2829 128.234 26.2297Z" fill="#E4794A"/>
<path fill-rule="evenodd" clip-rule="evenodd" d="M138.736 1.69915L138.714 1.7433C134.238 2.36135 129.212 4.3921 126.39 7.34993C123.083 10.8596 122.928 17.0843 124.692 21.1016C126.081 20.1304 127.999 19.9538 129.697 20.7705C129.785 20.8147 129.873 20.8588 129.939 20.903C136.509 18.2321 136.597 8.23286 136.597 7.34993C138.052 8.51982 139.926 10.5285 139.419 12.6917L162.833 14.3472C162.833 14.3693 167.639 -2.93625 138.736 1.69915ZM135.517 7.90176C135.826 7.65896 136.134 7.4603 136.465 7.26164C136.487 7.28371 136.509 7.30578 136.531 7.30578L135.517 7.90176Z" fill="#2F4077"/>
<path fill-rule="evenodd" clip-rule="evenodd" d="M206.242 149.966H177.868L169.711 114.163C169.535 113.39 168.873 112.838 168.102 112.838H107.275C106.195 112.838 105.423 113.876 105.666 114.957L114.771 154.954C114.948 155.727 115.609 156.279 116.381 156.279C116.381 156.279 197.071 156.279 200.554 156.279C207.433 156.279 206.242 149.966 206.242 149.966Z" fill="#2F4077"/>
<path fill-rule="evenodd" clip-rule="evenodd" d="M226.856 123.412L228.465 137.693C228.465 137.693 204.677 140.849 194.095 141.777C193.61 141.821 184.681 147.471 185.651 147.935C191.405 150.672 184.923 153.211 192.507 152.195C192.507 152.195 217.023 154.91 239.775 150.738C242.509 150.231 245.441 147.891 246.235 145.22C247.557 140.805 247.866 128.555 246.345 117.562C246.389 117.518 226.856 123.412 226.856 123.412Z" fill="white"/>
<path fill-rule="evenodd" clip-rule="evenodd" d="M246.33 116.9L246.258 116.905C246.245 116.906 246.238 116.908 246.229 116.909L246.173 116.921L246.091 116.944L245.66 117.069L242.754 117.935L236.372 119.852L226.665 122.778L226.627 122.79C226.343 122.895 226.164 123.181 226.198 123.486L227.735 137.121L223.948 137.615L223.183 137.714C219.242 138.222 215.21 138.73 211.32 139.204L209.745 139.395L207.731 139.636C201.97 140.321 197.286 140.832 194.037 141.117C193.601 141.157 191.243 142.595 188.955 144.151L188.576 144.41C187.542 145.123 186.676 145.764 186.067 146.276C185.666 146.614 185.373 146.897 185.19 147.136C185.055 147.313 184.965 147.48 184.93 147.671C184.865 148.026 185.029 148.372 185.366 148.533C186.481 149.063 187.128 149.588 187.445 150.113C187.646 150.446 187.699 150.697 187.721 151.235L187.724 151.311C187.755 152.224 187.942 152.678 188.729 152.94L188.768 152.952C189.413 153.152 190.475 153.126 192.362 152.882L192.515 152.862L193.005 152.912C193.183 152.929 193.376 152.948 193.585 152.967L194.427 153.041C195.355 153.121 196.385 153.199 197.508 153.274L197.75 153.29C209.835 154.079 222.942 153.918 235.272 152.144C236.843 151.918 238.384 151.667 239.894 151.39C242.952 150.822 246.024 148.252 246.868 145.409L246.911 145.262C248.319 140.323 248.435 127.84 247 117.471L246.98 117.474L246.979 117.47C246.956 117.231 246.915 117.195 246.701 117.004L246.488 116.924C246.393 116.89 246.378 116.893 246.33 116.9ZM245.791 118.411L245.814 118.586C247.106 128.695 246.943 140.551 245.601 145.03C244.903 147.379 242.24 149.607 239.654 150.087C238.163 150.361 236.638 150.609 235.084 150.833C222.858 152.592 209.838 152.752 197.836 151.969L197.359 151.937C196.179 151.857 195.106 151.773 194.151 151.688L193.466 151.626C193.272 151.607 193.094 151.59 192.932 151.574L192.58 151.537C192.526 151.531 192.473 151.532 192.419 151.539L192.105 151.58C190.474 151.787 189.566 151.809 189.17 151.691L189.109 151.671C189.069 151.656 189.06 151.637 189.054 151.508L189.046 151.266C189.019 150.466 188.934 150.02 188.577 149.428L188.535 149.36C188.147 148.751 187.518 148.196 186.594 147.677L186.525 147.639L186.54 147.625C186.645 147.525 186.772 147.413 186.918 147.29L187.06 147.172C187.698 146.65 188.615 145.983 189.698 145.246C190.655 144.596 191.699 143.921 192.6 143.367L192.778 143.258C193.185 143.01 193.539 142.801 193.811 142.649L193.872 142.615C193.991 142.549 194.089 142.497 194.164 142.46L194.228 142.43L194.719 142.386C198.143 142.074 202.979 141.54 208.871 140.834L210.425 140.647C210.774 140.605 211.126 140.562 211.48 140.519C215.019 140.087 218.675 139.628 222.274 139.166L225.572 138.74L228.552 138.349L228.59 138.343C228.927 138.279 229.161 137.964 229.122 137.619L227.575 123.886L244.175 118.892L245.791 118.411Z" fill="#2F4077"/>
<path fill-rule="evenodd" clip-rule="evenodd" d="M184.085 150.12C181.44 153.166 178.309 154.049 178.75 152.085C178.904 151.356 185.188 144.955 187.48 143.829C189.244 142.969 191.89 142.041 195.527 141.622" fill="white"/>
<path fill-rule="evenodd" clip-rule="evenodd" d="M179.386 152.274C179.373 152.344 179.368 152.399 179.369 152.439L179.371 152.463L179.384 152.466C179.488 152.485 179.702 152.464 179.994 152.372L180.05 152.354C181.077 152.008 182.42 151.029 183.586 149.686C183.826 149.41 184.244 149.381 184.519 149.621C184.795 149.861 184.824 150.279 184.585 150.555C183.274 152.064 181.741 153.182 180.471 153.609C178.941 154.124 177.757 153.491 178.103 151.947C178.344 150.812 185.008 144.306 187.191 143.234C189.41 142.151 192.166 141.343 195.452 140.964C195.815 140.922 196.143 141.183 196.185 141.546C196.226 141.91 195.966 142.238 195.603 142.28C192.466 142.642 189.856 143.407 187.772 144.424C186.819 144.892 184.883 146.523 182.775 148.58L182.516 148.835C181.743 149.598 181.016 150.352 180.443 150.984L180.217 151.237C179.982 151.502 179.786 151.734 179.638 151.922L179.598 151.973C179.526 152.066 179.468 152.146 179.427 152.209L179.395 152.258C179.39 152.264 179.389 152.261 179.393 152.243L179.386 152.274Z" fill="#2F4077"/>
<path fill-rule="evenodd" clip-rule="evenodd" d="M188.539 147.56C188.539 147.56 185.915 148.178 184.306 149.922C182.697 151.687 181.462 152.791 181.749 153.166C182.013 153.542 183.733 153.939 184.835 152.924C186.246 151.092 190.258 149.877 190.258 149.877C189.818 149.922 187.04 150.849 185.695 151.997C184.372 153.122 183.667 155.33 187.282 153.696C187.282 153.696 190.986 152.593 192.419 152.129" fill="white"/>
<path fill-rule="evenodd" clip-rule="evenodd" d="M188.387 146.915C188.743 146.831 189.099 147.052 189.183 147.408C189.266 147.764 189.046 148.121 188.69 148.204L188.659 148.212C188.621 148.222 188.563 148.237 188.488 148.259C188.314 148.309 188.12 148.372 187.91 148.448C187.31 148.664 186.71 148.941 186.154 149.28C185.625 149.603 185.164 149.967 184.794 150.368L184.188 151.02C183.659 151.586 182.986 152.304 182.814 152.501L182.715 152.616C182.669 152.671 182.627 152.722 182.589 152.77L182.533 152.842L182.581 152.853C182.687 152.877 182.804 152.894 182.925 152.901L182.999 152.905C183.508 152.921 183.982 152.781 184.337 152.48L184.353 152.466L184.372 152.443C184.433 152.366 184.499 152.291 184.568 152.216L184.628 152.152L184.634 152.145C184.803 151.932 184.997 151.728 185.208 151.543L185.266 151.493C186.458 150.475 189.262 149.312 190.193 149.219C190.975 149.14 191.208 150.241 190.488 150.499L190.213 150.588L190.011 150.656C189.872 150.705 189.723 150.758 189.566 150.816C188.897 151.066 188.228 151.354 187.607 151.674C186.787 152.096 186.123 152.539 185.67 152.982L185.647 153.004L185.618 153.042C185.458 153.256 185.346 153.459 185.301 153.597L185.295 153.616L185.315 153.616C185.63 153.612 186.144 153.47 186.84 153.168L187.01 153.093L187.051 153.076L187.113 153.056L187.982 152.796L189.394 152.37L190.756 151.955C191.373 151.766 191.87 151.611 192.216 151.499C192.563 151.386 192.936 151.577 193.048 151.925C193.161 152.273 192.97 152.647 192.622 152.759L192.076 152.933C191.815 153.015 191.512 153.108 191.174 153.212L190.321 153.473L189.217 153.807L187.512 154.319L187.451 154.346C186.601 154.722 185.922 154.918 185.393 154.939L185.331 154.94C184.687 154.948 184.19 154.665 184.02 154.133L184.008 154.093L184 154.096C182.911 154.394 181.704 154.187 181.237 153.588L181.223 153.568C180.962 153.228 181.001 152.855 181.197 152.477L181.221 152.431C181.335 152.222 181.508 151.99 181.759 151.698L181.818 151.63C182.097 151.31 183.495 149.828 183.82 149.472C184.282 148.972 184.837 148.533 185.465 148.149C186.103 147.759 186.783 147.447 187.462 147.202L187.611 147.149C187.95 147.032 188.218 146.955 188.387 146.915Z" fill="#2F4077"/>
<path fill-rule="evenodd" clip-rule="evenodd" d="M279.106 49.8852C287.422 49.8852 294.164 43.1355 294.164 34.8092C294.164 26.4829 287.422 19.7331 279.106 19.7331C270.79 19.7331 264.048 26.4829 264.048 34.8092C264.048 43.1355 270.79 49.8852 279.106 49.8852Z" fill="white"/>
<path fill-rule="evenodd" clip-rule="evenodd" d="M279.106 19.0709C270.424 19.0709 263.387 26.1171 263.387 34.8092C263.387 43.5012 270.424 50.5474 279.106 50.5474C287.787 50.5474 294.825 43.5012 294.825 34.8092C294.825 26.1171 287.787 19.0709 279.106 19.0709ZM279.106 20.3953C287.057 20.3953 293.502 26.8486 293.502 34.8092C293.502 42.7697 287.057 49.223 279.106 49.223C271.155 49.223 264.709 42.7697 264.709 34.8092C264.709 26.8486 271.155 20.3953 279.106 20.3953Z" fill="#2F4077"/>
<path fill-rule="evenodd" clip-rule="evenodd" d="M285.413 25.1468C285.617 24.8433 286.028 24.7627 286.331 24.9667C286.623 25.1632 286.709 25.552 286.533 25.8515L286.511 25.8857L280.272 35.1786C280.085 35.4571 279.721 35.5498 279.426 35.4008L279.389 35.3809L272.07 31.0987C271.755 30.9142 271.648 30.5086 271.833 30.1928C272.01 29.8888 272.392 29.7788 272.702 29.9359L272.737 29.9552L279.521 33.9236L285.413 25.1468Z" fill="#2F4077"/>
<path fill-rule="evenodd" clip-rule="evenodd" d="M123.017 156.279H75.8811C75.3079 156.279 74.8229 155.815 74.8229 155.219V145.639C74.8229 145.066 75.2859 144.58 75.8811 144.58H123.017C123.59 144.58 124.075 145.043 124.075 145.639V155.219C124.075 155.815 123.59 156.279 123.017 156.279Z" fill="#2F4077"/>
<path fill-rule="evenodd" clip-rule="evenodd" d="M117.549 153.608C118.888 153.608 119.974 152.481 119.974 151.092C119.974 149.702 118.888 148.575 117.549 148.575C116.21 148.575 115.124 149.702 115.124 151.092C115.124 152.481 116.21 153.608 117.549 153.608Z" fill="white"/>
<path fill-rule="evenodd" clip-rule="evenodd" d="M104.189 153.608H79.3644C78.8574 153.608 78.4385 153.189 78.4385 152.681V149.48C78.4385 148.973 78.8574 148.553 79.3644 148.553H104.189C104.696 148.553 105.115 148.973 105.115 149.48V152.681C105.115 153.211 104.696 153.608 104.189 153.608Z" fill="white"/>
<path fill-rule="evenodd" clip-rule="evenodd" d="M130.777 144.536H83.6415C83.0683 144.536 82.5833 144.072 82.5833 143.476V133.896C82.5833 133.323 83.0462 132.837 83.6415 132.837H130.777C131.35 132.837 131.835 133.3 131.835 133.896V143.476C131.835 144.05 131.372 144.536 130.777 144.536Z" fill="#FAA184"/>
<path fill-rule="evenodd" clip-rule="evenodd" d="M125.331 141.865C126.671 141.865 127.756 140.738 127.756 139.349C127.756 137.959 126.671 136.832 125.331 136.832C123.992 136.832 122.906 137.959 122.906 139.349C122.906 140.738 123.992 141.865 125.331 141.865Z" fill="white"/>
<path fill-rule="evenodd" clip-rule="evenodd" d="M111.971 141.865H87.1248C86.6177 141.865 86.1989 141.446 86.1989 140.938V137.737C86.1989 137.23 86.6177 136.81 87.1248 136.81H111.949C112.456 136.81 112.875 137.23 112.875 137.737V140.938C112.875 141.468 112.478 141.865 111.971 141.865Z" fill="white"/>
<path fill-rule="evenodd" clip-rule="evenodd" d="M336.934 156.014C337.299 156.014 337.595 156.31 337.595 156.676C337.595 157.029 337.32 157.317 336.973 157.337L336.934 157.338H1.09938C0.734105 157.338 0.437988 157.042 0.437988 156.676C0.437988 156.323 0.713331 156.035 1.06052 156.015L1.09938 156.014H336.934Z" fill="#2F4077"/>
</svg>
