<svg width="661" height="391" viewBox="0 0 661 391" fill="none" xmlns="http://www.w3.org/2000/svg">
<path fill-rule="evenodd" clip-rule="evenodd" d="M172.977 333.183C178.331 295.573 190.048 213.56 154.985 174.854C119.923 136.149 114.35 145.354 108.25 113.53C102.15 81.7067 69.8085 68.8195 53.5279 87.3175C37.2034 105.772 56.8191 141.146 63.1383 148.861C69.4574 156.575 63.7526 204.091 84.3337 236.967C104.915 269.843 137.959 246.304 136.554 274.884C138.441 331.21 172.977 333.183 172.977 333.183Z" fill="#FFC29E"/>
<path fill-rule="evenodd" clip-rule="evenodd" d="M68.7996 99.5742C69.4148 99.1871 70.2277 99.3715 70.6151 99.9861L71.1876 100.901L72.3378 102.754C73.1823 104.121 74.1304 105.666 75.1749 107.382L76.1732 109.025C79.5342 114.57 83.2293 120.783 87.1808 127.572C99.5993 148.907 112.018 171.556 123.61 194.533C133.171 213.487 141.754 231.86 149.114 249.362C163.049 282.498 172.146 311.402 175.379 334.889C175.478 335.608 174.974 336.272 174.254 336.37C173.533 336.469 172.869 335.966 172.77 335.247C169.574 312.028 160.54 283.324 146.687 250.38C139.352 232.938 130.794 214.619 121.258 195.717C109.692 172.79 97.2983 150.187 84.9046 128.893L83.3411 126.214C79.7257 120.036 76.3426 114.37 73.255 109.29L71.64 106.644C71.2297 105.974 70.8376 105.336 70.4644 104.731L68.7732 102.004L68.3872 101.388C67.9997 100.773 68.1844 99.9612 68.7996 99.5742Z" fill="white"/>
<path fill-rule="evenodd" clip-rule="evenodd" d="M191.891 39.8452C157.618 36.5576 150.509 71.2742 149.412 100.643C148.315 130.012 153.757 140.576 137.037 156.181C120.318 171.83 147.525 192.958 145.199 208.475C142.874 223.992 126.812 265.459 189.258 357.335C191.54 360.667 194.787 387.493 194.787 387.493L208.303 383.855C208.303 383.855 199.614 362.07 209.444 335.681C219.274 309.249 235.949 296.844 237.529 263.793C239.109 230.743 215.456 237.142 219.8 215.401C224.145 193.659 246.35 178.624 244.638 156.838C242.927 135.009 201.896 119.141 210.98 94.0241C220.064 68.8633 221.556 42.6944 191.891 39.8452Z" fill="#FFC29E"/>
<path fill-rule="evenodd" clip-rule="evenodd" d="M178.965 51.528C179.63 51.7483 180.002 52.448 179.822 53.1159L179.618 53.7593L179.458 54.2724C179.346 54.6353 179.223 55.0398 179.091 55.4856L178.908 56.1023C178.386 57.8833 177.813 59.949 177.2 62.2925L176.932 63.3221C175.061 70.585 173.195 79.0033 171.447 88.5098C165.356 121.635 162.133 159.595 163.303 201.489C164.831 256.223 173.803 313.091 191.745 371.194C191.959 371.888 191.569 372.624 190.875 372.838C190.18 373.052 189.443 372.663 189.229 371.969C171.215 313.633 162.206 256.529 160.671 201.562C159.495 159.477 162.734 121.334 168.857 88.0347L169.109 86.6752C170.88 77.2107 172.766 68.839 174.652 61.6275L174.977 60.3993C175.475 58.5294 175.946 56.8489 176.382 55.3617L176.567 54.7362C176.747 54.13 176.91 53.5972 177.053 53.1387L177.301 52.3626C177.53 51.6732 178.274 51.2995 178.965 51.528Z" fill="white"/>
<path fill-rule="evenodd" clip-rule="evenodd" d="M189.872 330.202C178.112 300.526 152.484 235.74 110.971 221.844C69.4574 207.949 69.2819 216.935 51.597 196.158C33.9122 175.38 5.16882 179.238 1.04382 199.401C-3.08118 219.565 25.8377 237.362 33.605 240.43C41.3723 243.498 57.0385 280.538 85.6063 296.143C114.174 311.748 128.304 281.02 139.187 302.499C164.025 342.87 189.872 330.202 189.872 330.202Z" fill="#FFC29E"/>
<path fill-rule="evenodd" clip-rule="evenodd" d="M14.9303 197.128C15.2075 196.485 15.9375 196.175 16.5881 196.411L16.6948 196.455L17.1403 196.649C17.4344 196.778 17.768 196.925 18.14 197.091L18.5249 197.262C20.0375 197.938 21.7912 198.739 23.7658 199.659L25.4765 200.461C30.6654 202.907 36.362 205.707 42.4495 208.842C61.775 218.794 81.1012 230.061 99.1454 242.422C117.582 255.052 133.642 268.137 146.64 281.566C161.704 297.128 172.316 312.806 177.775 328.499C178.014 329.185 177.651 329.935 176.964 330.173C176.277 330.412 175.527 330.049 175.288 329.363C165.264 300.546 137.564 271.93 97.6562 244.591C79.7111 232.298 60.4774 221.085 41.243 211.18L39.903 210.492C34.1247 207.535 28.7162 204.889 23.7821 202.571L22.652 202.043C20.9355 201.242 19.3881 200.534 18.0233 199.92L16.5467 199.262L15.6191 198.856C14.9513 198.569 14.6429 197.795 14.9303 197.128Z" fill="white"/>
<path fill-rule="evenodd" clip-rule="evenodd" d="M174.689 337.698C175.391 303.419 176.971 228.595 213.569 199.094C250.167 169.594 253.722 178.58 263.727 151.052C273.733 123.524 304.144 116.643 315.86 135.403C327.577 154.164 305.153 182.92 298.483 188.881C291.812 194.842 289.925 238.019 266.975 264.451C244.024 290.839 218.308 265.196 215.412 290.883C205.451 340.766 174.689 337.698 174.689 337.698Z" fill="#FFC29E"/>
<path fill-rule="evenodd" clip-rule="evenodd" d="M301.278 138.485C301.78 139.01 301.76 139.842 301.234 140.344L300.488 141.065L299.569 141.963C298.716 142.8 297.759 143.75 296.705 144.809L295.642 145.88C292.025 149.536 288.036 153.69 283.761 158.292C270.643 172.413 257.524 187.829 245.283 204.026C224.735 231.212 208.792 257.788 199.242 282.685C192.529 300.19 189.149 316.477 189.477 331.313C189.493 332.039 188.917 332.64 188.19 332.657C187.463 332.673 186.861 332.097 186.845 331.371C186.508 316.161 189.956 299.546 196.784 281.744C206.434 256.583 222.497 229.808 243.181 202.441C255.207 186.529 268.071 171.374 280.953 157.45L281.831 156.503C286.289 151.704 290.44 147.387 294.185 143.611L295.361 142.43C296.218 141.572 297.007 140.79 297.723 140.087L298.768 139.067L299.417 138.441C299.943 137.94 300.776 137.959 301.278 138.485Z" fill="white"/>
<path fill-rule="evenodd" clip-rule="evenodd" d="M223.179 390.079L239.548 314.86C240.908 309.162 236.476 303.726 230.508 303.726H128.699C122.731 303.726 118.343 309.118 119.616 314.773L136.335 389.597" fill="#FF8D7E"/>
<rect x="244.287" y="271.35" width="118.966" height="29.7965" transform="rotate(90 244.287 271.35)" fill="#2E186A"/>
<rect x="236.599" y="281.476" width="55.4063" height="16.0173" transform="rotate(90 236.599 281.476)" fill="white"/>
<rect x="236.595" y="339.202" width="5.17242" height="16.0173" transform="rotate(90 236.595 339.202)" fill="#FF8D7E"/>
<path fill-rule="evenodd" clip-rule="evenodd" d="M228.314 362.946C224.485 362.946 221.38 366.047 221.38 369.872C221.38 373.697 224.485 376.798 228.314 376.798C232.143 376.798 235.247 373.697 235.247 369.872C235.247 366.047 232.143 362.946 228.314 362.946ZM228.314 365.576C230.689 365.576 232.614 367.499 232.614 369.872C232.614 372.244 230.689 374.168 228.314 374.168C225.939 374.168 224.013 372.244 224.013 369.872C224.013 367.499 225.939 365.576 228.314 365.576Z" fill="white"/>
<path fill-rule="evenodd" clip-rule="evenodd" d="M234.765 293.338C235.492 293.338 236.081 293.926 236.081 294.653C236.081 295.353 235.533 295.925 234.842 295.965L234.765 295.968H222.872C222.145 295.968 221.556 295.379 221.556 294.653C221.556 293.952 222.104 293.38 222.795 293.34L222.872 293.338H234.765Z" fill="#FF8D7E"/>
<path fill-rule="evenodd" clip-rule="evenodd" d="M234.765 299.431C235.492 299.431 236.081 300.019 236.081 300.746C236.081 301.446 235.533 302.018 234.842 302.058L234.765 302.061H222.872C222.145 302.061 221.556 301.472 221.556 300.746C221.556 300.045 222.104 299.473 222.795 299.433L222.872 299.431H234.765Z" fill="#FF8D7E"/>
<path fill-rule="evenodd" clip-rule="evenodd" d="M234.765 305.524C235.492 305.524 236.081 306.112 236.081 306.839C236.081 307.539 235.533 308.111 234.842 308.151L234.765 308.154H222.872C222.145 308.154 221.556 307.565 221.556 306.839C221.556 306.138 222.104 305.566 222.795 305.526L222.872 305.524H234.765Z" fill="#FF8D7E"/>
<rect x="274.004" y="271.454" width="118.966" height="29.7966" transform="rotate(90 274.004 271.454)" fill="#2E186A"/>
<rect x="266.272" y="281.58" width="55.4063" height="16.0173" transform="rotate(90 266.272 281.58)" fill="white"/>
<rect x="266.313" y="339.306" width="5.17242" height="16.0173" transform="rotate(90 266.313 339.306)" fill="#FF8D7E"/>
<path fill-rule="evenodd" clip-rule="evenodd" d="M257.979 363.078C254.149 363.078 251.045 366.178 251.045 370.003C251.045 373.828 254.149 376.929 257.979 376.929C261.808 376.929 264.912 373.828 264.912 370.003C264.912 366.178 261.808 363.078 257.979 363.078ZM257.979 365.708C260.354 365.708 262.279 367.631 262.279 370.003C262.279 372.376 260.354 374.299 257.979 374.299C255.604 374.299 253.678 372.376 253.678 370.003C253.678 367.631 255.604 365.708 257.979 365.708Z" fill="white"/>
<path fill-rule="evenodd" clip-rule="evenodd" d="M264.298 318.849C265.025 318.849 265.614 319.438 265.614 320.164C265.614 320.864 265.066 321.437 264.375 321.477L264.298 321.479H252.405C251.678 321.479 251.089 320.89 251.089 320.164C251.089 319.464 251.637 318.891 252.328 318.851L252.405 318.849H264.298Z" fill="#FF8D7E"/>
<path fill-rule="evenodd" clip-rule="evenodd" d="M264.298 287.332C265.025 287.332 265.614 287.921 265.614 288.647C265.614 289.348 265.066 289.92 264.375 289.96L264.298 289.962H252.405C251.678 289.962 251.089 289.374 251.089 288.647C251.089 287.947 251.637 287.375 252.328 287.335L252.405 287.332H264.298Z" fill="#FF8D7E"/>
<path fill-rule="evenodd" clip-rule="evenodd" d="M264.298 324.942C265.025 324.942 265.614 325.531 265.614 326.257C265.614 326.957 265.066 327.53 264.375 327.57L264.298 327.572H252.405C251.678 327.572 251.089 326.983 251.089 326.257C251.089 325.557 251.637 324.984 252.328 324.944L252.405 324.942H264.298Z" fill="#FF8D7E"/>
<path fill-rule="evenodd" clip-rule="evenodd" d="M264.298 331.035C265.025 331.035 265.614 331.624 265.614 332.35C265.614 333.05 265.066 333.623 264.375 333.663L264.298 333.665H252.405C251.678 333.665 251.089 333.076 251.089 332.35C251.089 331.65 251.637 331.077 252.328 331.037L252.405 331.035H264.298Z" fill="#FF8D7E"/>
<rect x="362.648" y="271.453" width="118.966" height="29.7966" transform="rotate(90 362.648 271.453)" fill="#2E186A"/>
<rect x="354.917" y="281.579" width="55.4063" height="16.0173" transform="rotate(90 354.917 281.579)" fill="white"/>
<rect x="354.957" y="339.305" width="5.17239" height="16.0173" transform="rotate(90 354.957 339.305)" fill="#FF8D7E"/>
<path fill-rule="evenodd" clip-rule="evenodd" d="M346.622 363.078C342.793 363.078 339.689 366.178 339.689 370.003C339.689 373.828 342.793 376.929 346.622 376.929C350.452 376.929 353.556 373.828 353.556 370.003C353.556 366.178 350.452 363.078 346.622 363.078ZM346.622 365.708C348.997 365.708 350.923 367.631 350.923 370.003C350.923 372.376 348.997 374.299 346.622 374.299C344.247 374.299 342.322 372.376 342.322 370.003C342.322 367.631 344.247 365.708 346.622 365.708Z" fill="white"/>
<path fill-rule="evenodd" clip-rule="evenodd" d="M352.941 318.849C353.668 318.849 354.258 319.438 354.258 320.164C354.258 320.864 353.71 321.437 353.019 321.477L352.941 321.479H341.049C340.322 321.479 339.733 320.89 339.733 320.164C339.733 319.464 340.281 318.891 340.972 318.851L341.049 318.849H352.941Z" fill="#FF8D7E"/>
<path fill-rule="evenodd" clip-rule="evenodd" d="M352.941 287.332C353.668 287.332 354.258 287.921 354.258 288.647C354.258 289.348 353.71 289.92 353.019 289.96L352.941 289.962H341.049C340.322 289.962 339.733 289.374 339.733 288.647C339.733 287.947 340.281 287.375 340.972 287.335L341.049 287.332H352.941Z" fill="#2E186A"/>
<path fill-rule="evenodd" clip-rule="evenodd" d="M352.941 324.942C353.668 324.942 354.258 325.531 354.258 326.257C354.258 326.957 353.71 327.53 353.019 327.57L352.941 327.572H341.049C340.322 327.572 339.733 326.983 339.733 326.257C339.733 325.557 340.281 324.984 340.972 324.944L341.049 324.942H352.941Z" fill="#FF8D7E"/>
<path fill-rule="evenodd" clip-rule="evenodd" d="M352.941 331.035C353.668 331.035 354.258 331.624 354.258 332.35C354.258 333.05 353.71 333.623 353.019 333.663L352.941 333.665H341.049C340.322 333.665 339.733 333.076 339.733 332.35C339.733 331.65 340.281 331.077 340.972 331.037L341.049 331.035H352.941Z" fill="#FF8D7E"/>
<rect x="214.933" y="271.459" width="118.966" height="29.7965" transform="rotate(90 214.933 271.459)" fill="#2E186A"/>
<rect x="207.201" y="281.584" width="55.4063" height="16.0173" transform="rotate(90 207.201 281.584)" fill="white"/>
<rect x="207.241" y="339.31" width="5.17242" height="16.0173" transform="rotate(90 207.241 339.31)" fill="#FF8D7E"/>
<path fill-rule="evenodd" clip-rule="evenodd" d="M198.912 363.078C195.083 363.078 191.979 366.178 191.979 370.003C191.979 373.828 195.083 376.929 198.912 376.929C202.742 376.929 205.846 373.828 205.846 370.003C205.846 366.178 202.742 363.078 198.912 363.078ZM198.912 365.708C201.287 365.708 203.213 367.631 203.213 370.003C203.213 372.376 201.287 374.299 198.912 374.299C196.537 374.299 194.612 372.376 194.612 370.003C194.612 367.631 196.537 365.708 198.912 365.708Z" fill="white"/>
<path fill-rule="evenodd" clip-rule="evenodd" d="M205.188 318.849C205.915 318.849 206.504 319.438 206.504 320.164C206.504 320.864 205.956 321.437 205.265 321.477L205.188 321.479H193.295C192.568 321.479 191.979 320.89 191.979 320.164C191.979 319.464 192.527 318.891 193.218 318.851L193.295 318.849H205.188Z" fill="#FF8D7E"/>
<path fill-rule="evenodd" clip-rule="evenodd" d="M205.188 287.332C205.915 287.332 206.504 287.921 206.504 288.647C206.504 289.348 205.956 289.92 205.265 289.96L205.188 289.962H193.295C192.568 289.962 191.979 289.374 191.979 288.647C191.979 287.947 192.527 287.375 193.218 287.335L193.295 287.332H205.188Z" fill="#FF8D7E"/>
<path fill-rule="evenodd" clip-rule="evenodd" d="M205.188 324.942C205.915 324.942 206.504 325.531 206.504 326.257C206.504 326.957 205.956 327.53 205.265 327.57L205.188 327.572H193.295C192.568 327.572 191.979 326.983 191.979 326.257C191.979 325.557 192.527 324.984 193.218 324.944L193.295 324.942H205.188Z" fill="#FF8D7E"/>
<path fill-rule="evenodd" clip-rule="evenodd" d="M205.188 331.035C205.915 331.035 206.504 331.624 206.504 332.35C206.504 333.05 205.956 333.623 205.265 333.663L205.188 333.665H193.295C192.568 333.665 191.979 333.076 191.979 332.35C191.979 331.65 192.527 331.077 193.218 331.037L193.295 331.035H205.188Z" fill="#FF8D7E"/>
<rect x="303.632" y="271.447" width="118.966" height="29.7965" transform="rotate(90 303.632 271.447)" fill="#2E186A"/>
<rect x="295.9" y="281.573" width="55.4063" height="16.0173" transform="rotate(90 295.9 281.573)" fill="white"/>
<rect x="295.94" y="339.299" width="5.17242" height="16.0173" transform="rotate(90 295.94 339.299)" fill="#FF8D7E"/>
<path fill-rule="evenodd" clip-rule="evenodd" d="M287.6 363.078C283.77 363.078 280.666 366.178 280.666 370.003C280.666 373.828 283.77 376.929 287.6 376.929C291.429 376.929 294.533 373.828 294.533 370.003C294.533 366.178 291.429 363.078 287.6 363.078ZM287.6 365.708C289.975 365.708 291.9 367.631 291.9 370.003C291.9 372.376 289.975 374.299 287.6 374.299C285.225 374.299 283.299 372.376 283.299 370.003C283.299 367.631 285.225 365.708 287.6 365.708Z" fill="white"/>
<path fill-rule="evenodd" clip-rule="evenodd" d="M293.919 318.849C294.646 318.849 295.235 319.438 295.235 320.164C295.235 320.864 294.687 321.437 293.996 321.477L293.919 321.479H282.027C281.3 321.479 280.71 320.89 280.71 320.164C280.71 319.464 281.258 318.891 281.949 318.851L282.027 318.849H293.919Z" fill="#FF8D7E"/>
<path fill-rule="evenodd" clip-rule="evenodd" d="M293.919 287.332C294.646 287.332 295.235 287.921 295.235 288.647C295.235 289.348 294.687 289.92 293.996 289.96L293.919 289.962H282.027C281.3 289.962 280.71 289.374 280.71 288.647C280.71 287.947 281.258 287.375 281.949 287.335L282.027 287.332H293.919Z" fill="#2E186A"/>
<path fill-rule="evenodd" clip-rule="evenodd" d="M293.919 324.942C294.646 324.942 295.235 325.531 295.235 326.257C295.235 326.957 294.687 327.53 293.996 327.57L293.919 327.572H282.027C281.3 327.572 280.71 326.983 280.71 326.257C280.71 325.557 281.258 324.984 281.949 324.944L282.027 324.942H293.919Z" fill="#FF8D7E"/>
<path fill-rule="evenodd" clip-rule="evenodd" d="M293.919 331.035C294.646 331.035 295.235 331.624 295.235 332.35C295.235 333.05 294.687 333.623 293.996 333.663L293.919 333.665H282.027C281.3 333.665 280.71 333.076 280.71 332.35C280.71 331.65 281.258 331.077 281.949 331.037L282.027 331.035H293.919Z" fill="#FF8D7E"/>
<rect x="332.986" y="271.339" width="118.966" height="29.7965" transform="rotate(90 332.986 271.339)" fill="#2E186A"/>
<rect x="325.298" y="281.464" width="55.4062" height="16.0173" transform="rotate(90 325.298 281.464)" fill="white"/>
<rect x="325.294" y="339.19" width="5.17242" height="16.0173" transform="rotate(90 325.294 339.19)" fill="#FF8D7E"/>
<path fill-rule="evenodd" clip-rule="evenodd" d="M317.001 362.946C313.172 362.946 310.068 366.047 310.068 369.872C310.068 373.697 313.172 376.798 317.001 376.798C320.831 376.798 323.935 373.697 323.935 369.872C323.935 366.047 320.831 362.946 317.001 362.946ZM317.001 365.576C319.376 365.576 321.302 367.499 321.302 369.872C321.302 372.244 319.376 374.168 317.001 374.168C314.626 374.168 312.701 372.244 312.701 369.872C312.701 367.499 314.626 365.576 317.001 365.576Z" fill="white"/>
<path fill-rule="evenodd" clip-rule="evenodd" d="M323.496 293.338C324.223 293.338 324.813 293.926 324.813 294.653C324.813 295.353 324.265 295.926 323.573 295.966L323.496 295.968H311.604C310.877 295.968 310.287 295.379 310.287 294.653C310.287 293.952 310.835 293.38 311.526 293.34L311.604 293.338H323.496Z" fill="#FF8D7E"/>
<path fill-rule="evenodd" clip-rule="evenodd" d="M323.496 299.431C324.223 299.431 324.813 300.019 324.813 300.746C324.813 301.446 324.265 302.018 323.573 302.058L323.496 302.061H311.604C310.877 302.061 310.287 301.472 310.287 300.746C310.287 300.045 310.835 299.473 311.526 299.433L311.604 299.431H323.496Z" fill="#FF8D7E"/>
<path fill-rule="evenodd" clip-rule="evenodd" d="M323.496 305.524C324.223 305.524 324.813 306.112 324.813 306.839C324.813 307.539 324.265 308.111 323.573 308.151L323.496 308.154H311.604C310.877 308.154 310.287 307.565 310.287 306.839C310.287 306.138 310.835 305.566 311.526 305.526L311.604 305.524H323.496Z" fill="#FF8D7E"/>
<path fill-rule="evenodd" clip-rule="evenodd" d="M584.38 171.742C584.38 171.742 601.977 165.035 611.237 154.208C616.766 147.721 623.831 139.042 623.392 136.499C622.646 131.721 613.299 140.138 611.719 141.321" fill="white"/>
<path fill-rule="evenodd" clip-rule="evenodd" d="M621.086 133.801C622.95 133.465 624.388 134.344 624.69 136.276C625.168 139.046 620.929 144.865 612.238 155.062C609.412 158.367 605.698 161.476 601.311 164.383C597.71 166.769 593.859 168.886 590.009 170.715C588.661 171.355 587.409 171.913 586.284 172.387L585.65 172.651L584.85 172.971C584.17 173.229 583.41 172.889 583.15 172.211C582.9 171.556 583.208 170.826 583.84 170.543L584.255 170.378C584.544 170.262 584.881 170.124 585.261 169.964C586.351 169.505 587.568 168.962 588.878 168.34C592.623 166.561 596.368 164.502 599.855 162.191C604.054 159.409 607.587 156.452 610.234 153.356L611.335 152.057C618.096 144.038 622.251 138.26 622.098 136.749L622.076 136.605C622.026 136.298 621.995 136.31 621.554 136.389C620.775 136.53 619.607 137.104 618.188 138.033C617.698 138.354 617.185 138.712 616.649 139.105L616.242 139.407C615.006 140.341 612.482 142.393 612.509 142.373C611.928 142.809 611.102 142.691 610.666 142.11C610.247 141.551 610.34 140.768 610.864 140.321L611.902 139.48C612.787 138.766 614.065 137.748 614.805 137.196C615.48 136.694 616.125 136.239 616.745 135.833C618.437 134.725 619.872 134.02 621.086 133.801Z" fill="#2E186A"/>
<path fill-rule="evenodd" clip-rule="evenodd" d="M594.825 155.742C594.825 155.742 602.197 148.904 605.62 142.899C608.999 136.894 611.763 132.949 610.754 132.072C609.745 131.195 604.654 131.239 602.197 134.746C599.432 140.839 589.515 148.992 589.515 148.992C590.743 148.554 597.282 142.022 600.354 137.946C603.382 133.869 603.864 127.207 594.737 134.176C594.737 134.176 585.083 141.935 581.352 144.214C581.352 144.214 564.896 149.474 560.508 156.137C557.568 160.652 540.936 202.294 530.448 228.989C516.23 215.62 502.714 202.733 502.714 202.733L434.52 217.286C434.52 217.286 438.206 222.107 493.016 274.84C520.662 301.447 538.918 303.332 549.932 296.187C556.032 293.25 561.693 285.185 562.439 279.179L579.465 173.32C589.471 169.769 596.273 165.78 600.749 162.186C606.497 157.54 620.013 135.36 620.013 133.168C619.969 127.338 611.676 131.941 606.234 142.242" fill="white"/>
<path fill-rule="evenodd" clip-rule="evenodd" d="M614.454 130.538C618.099 128.28 621.299 129.117 621.33 133.168C621.33 136.364 606.894 158.911 601.574 163.211C596.621 167.188 589.872 170.888 581.278 174.062L580.642 174.295L563.741 279.373L563.719 279.54C562.813 286.045 556.921 294.174 550.695 297.278L550.58 297.334L550.441 297.424C544.236 301.357 536.56 302.21 527.624 299.519L527.322 299.427C517.17 296.289 505.56 288.667 492.499 276.167L490.673 274.411C468.422 252.995 453.102 238.036 443.479 228.415L441.843 226.775C438.957 223.877 436.853 221.723 435.408 220.202L434.711 219.463C433.972 218.673 433.607 218.258 433.474 218.084C432.904 217.338 433.278 216.263 434.167 216.018L434.245 216L502.439 201.447C502.836 201.362 503.249 201.465 503.558 201.724L503.687 201.842L512.156 209.894L516.067 213.602C519.982 217.312 523.9 221.015 527.731 224.625L529.934 226.699L532.308 220.673C545.945 186.109 556.793 159.642 559.329 155.54L559.408 155.414C561.229 152.65 564.861 150.044 569.805 147.552C572.246 146.321 574.853 145.199 577.46 144.206L578.058 143.98C578.744 143.724 579.388 143.493 579.98 143.288L580.564 143.089L580.794 143.013L580.879 142.96C582.015 142.245 583.734 141.018 585.877 139.407L586.824 138.691L587.126 138.461C588.649 137.3 590.248 136.055 591.825 134.81L593.144 133.765L593.937 133.131C596.234 131.378 598.1 130.336 599.577 129.974C601.256 129.563 602.639 130.026 603.285 131.339C603.33 131.43 603.371 131.525 603.406 131.623L603.457 131.773L603.579 131.697C604.483 131.145 605.493 130.751 606.56 130.518L606.761 130.476C608.728 130.084 610.693 130.276 611.618 131.08C611.961 131.378 612.159 131.729 612.241 132.124L612.253 132.186L612.32 132.127C612.978 131.558 613.634 131.062 614.278 130.649L614.454 130.538ZM618.273 131.95C617.832 131.834 616.953 132.084 615.842 132.773C613.063 134.495 609.844 138.226 607.398 142.855C607.273 143.093 607.084 143.277 606.864 143.396L606.844 143.406L606.764 143.55C606.384 144.216 605.951 144.904 605.468 145.614C604.511 147.022 603.368 148.496 602.08 150.013C600.689 151.651 599.202 153.254 597.715 154.757L597.331 155.142C597.018 155.455 596.72 155.748 596.441 156.019L596.019 156.424L595.72 156.706C595.187 157.2 594.354 157.17 593.86 156.637C593.365 156.105 593.396 155.273 593.929 154.779L594.28 154.446L594.772 153.971C595.104 153.647 595.463 153.291 595.842 152.908C597.285 151.449 598.728 149.894 600.072 148.311C601.304 146.861 602.39 145.459 603.291 144.136C603.736 143.481 604.132 142.851 604.472 142.255L604.925 141.461C606.005 139.585 608.206 135.812 608.671 134.943L608.836 134.631C609.175 133.977 609.406 133.47 609.535 133.09L609.569 132.988L609.538 132.982C609.472 132.969 609.4 132.958 609.325 132.949L609.208 132.936C608.645 132.88 607.965 132.918 607.276 133.055C605.673 133.374 604.275 134.159 603.37 135.369L603.337 135.414L603.291 135.514C603.112 135.89 602.908 136.276 602.68 136.67L602.555 136.882L602.505 136.98C602.218 137.533 601.883 138.077 601.509 138.596L601.406 138.737C598.305 142.852 591.583 149.65 589.957 150.23C588.592 150.718 587.574 148.975 588.621 148.026L588.695 147.963L589.234 147.508L589.581 147.21C589.938 146.901 590.322 146.564 590.727 146.2C592.273 144.814 593.819 143.336 595.258 141.831C596.595 140.432 597.772 139.08 598.743 137.805C599.276 137.104 599.741 136.435 600.133 135.802L600.204 135.683L600.215 135.663C600.87 134.355 601.156 133.091 600.944 132.549L600.915 132.481L600.906 132.478C600.791 132.44 600.559 132.442 600.204 132.529C599.147 132.788 597.57 133.668 595.562 135.201L594.148 136.328C593.926 136.503 593.696 136.686 593.458 136.874L592.264 137.812C591.268 138.593 590.273 139.365 589.302 140.109L588.418 140.784L587.446 141.519C585.106 143.277 583.258 144.591 582.039 145.336C581.95 145.391 581.854 145.435 581.754 145.467L581.521 145.543C581.365 145.595 581.188 145.654 580.992 145.722L580.842 145.773C580.105 146.028 579.284 146.326 578.398 146.663C575.87 147.627 573.343 148.714 570.991 149.9C566.428 152.199 563.108 154.582 561.611 156.854C559.22 160.527 546.658 191.33 531.674 229.47C531.333 230.336 530.224 230.585 529.546 229.947L526.016 226.624C521.272 222.154 516.394 217.541 511.552 212.948L502.308 204.163L437.035 218.093L438.008 219.114C439.353 220.514 441.16 222.358 443.497 224.707L445.038 226.253C454.728 235.948 470.349 251.201 493.213 273.203L493.929 273.893C506.88 286.356 518.289 293.882 528.1 296.914C536.543 299.523 543.583 298.737 549.215 295.084C549.262 295.054 549.31 295.026 549.361 295.002C554.86 292.354 560.308 284.887 561.109 279.196L561.139 278.971L578.166 173.111C578.242 172.637 578.571 172.242 579.025 172.081C588.008 168.893 594.952 165.154 599.921 161.164C602.314 159.229 606.578 153.575 611.1 146.558L611.428 146.048C613.35 143.046 615.151 140.052 616.504 137.617L616.659 137.339C617.33 136.121 617.864 135.087 618.226 134.303L618.337 134.058C618.459 133.784 618.553 133.551 618.619 133.366L618.682 133.181C618.692 133.154 618.697 133.15 618.697 133.178C618.69 132.306 618.519 132.014 618.273 131.95Z" fill="#2E186A"/>
<path fill-rule="evenodd" clip-rule="evenodd" d="M530.404 228.945C530.404 228.945 513.816 257.175 523.295 272.297L530.404 228.945Z" fill="white"/>
<path fill-rule="evenodd" clip-rule="evenodd" d="M531.071 227.811C531.674 228.165 531.892 228.926 531.578 229.541L531.321 229.993C531.261 230.1 531.195 230.217 531.125 230.344L530.895 230.764C530.659 231.197 530.407 231.671 530.142 232.184L530.008 232.444C528.848 234.701 527.687 237.186 526.605 239.821C524.388 245.219 522.792 250.526 522.084 255.463C521.147 262.005 521.834 267.487 524.411 271.599C524.797 272.215 524.61 273.027 523.994 273.412C523.378 273.797 522.565 273.611 522.179 272.995C519.222 268.277 518.46 262.193 519.478 255.091C520.22 249.911 521.876 244.406 524.169 238.823C525.282 236.114 526.473 233.563 527.665 231.243L527.939 230.714C528.209 230.197 528.464 229.72 528.703 229.285L529.09 228.592L529.269 228.28C529.637 227.653 530.444 227.444 531.071 227.811Z" fill="#2E186A"/>
<path fill-rule="evenodd" clip-rule="evenodd" d="M244.726 200.848C244.726 200.848 226.515 196.158 216.07 186.47C209.839 180.684 201.852 172.838 201.984 170.252C202.203 165.43 212.428 172.706 214.096 173.714" fill="white"/>
<path fill-rule="evenodd" clip-rule="evenodd" d="M213.414 174.839L213.23 174.717C212.598 174.308 210.571 173.009 209.538 172.396L209.468 172.355C208.796 171.959 208.157 171.604 207.55 171.293C206.042 170.518 204.802 170.049 203.964 169.95L203.866 169.94C203.343 169.895 203.319 169.895 203.301 170.268L203.299 170.318C203.221 171.855 208.716 177.845 216.966 185.507C219.762 188.1 223.312 190.489 227.441 192.664C231.293 194.693 235.428 196.427 239.565 197.864C240.893 198.325 242.133 198.724 243.258 199.062L243.562 199.153C243.862 199.242 244.138 199.322 244.387 199.392L245.055 199.574C245.759 199.756 246.182 200.473 246.001 201.176C245.826 201.854 245.152 202.272 244.473 202.138L244.284 202.091L243.974 202.007C243.638 201.915 243.25 201.804 242.814 201.675C241.571 201.307 240.189 200.865 238.7 200.348C234.447 198.871 230.193 197.087 226.213 194.991C221.894 192.715 218.158 190.201 215.174 187.433L214.328 186.645C205.335 178.246 200.53 172.921 200.669 170.192C200.761 168.172 202.147 167.153 204.091 167.32C205.355 167.428 206.904 168.003 208.755 168.954C209.316 169.242 209.897 169.562 210.501 169.912L210.805 170.089C211.475 170.484 212.579 171.178 213.455 171.736L214.777 172.589C215.399 172.966 215.599 173.774 215.222 174.395C214.846 175.017 214.036 175.216 213.414 174.839Z" fill="#2E186A"/>
<path fill-rule="evenodd" clip-rule="evenodd" d="M232.527 186.12C232.527 186.12 224.408 180.158 220.371 174.591C216.334 168.98 213.174 165.386 214.052 164.422C214.93 163.413 220.02 162.887 222.829 166.131C226.295 171.873 237.047 178.843 237.047 178.843C235.774 178.58 228.533 172.794 225.023 169.068C221.556 165.342 220.327 158.811 230.201 164.685C230.201 164.685 240.689 171.304 244.638 173.145C244.638 173.145 261.621 176.476 266.712 182.613C270.178 186.733 291.374 226.228 304.846 251.564C317.44 236.66 329.42 222.326 329.42 222.326L398.799 229.077C398.799 229.077 395.684 234.293 347.237 292.855C322.75 322.443 304.89 326.345 293.129 320.515C286.722 318.279 280.184 310.915 278.779 305.041L249.86 201.768C239.548 199.357 232.263 196.201 227.48 193.133C221.249 189.144 205.275 168.674 205.056 166.482C204.442 160.696 213.218 164.29 219.757 173.934" fill="white"/>
<path fill-rule="evenodd" clip-rule="evenodd" d="M248.801 202.868L248.632 202.828C239.412 200.594 232.045 197.624 226.77 194.24C220.972 190.529 204.063 169.777 203.747 166.621C203.321 162.609 206.409 161.408 210.285 163.232C210.948 163.544 211.632 163.934 212.327 164.393L212.589 164.569L212.591 164.553C212.634 164.221 212.762 163.914 212.993 163.634L213.058 163.559C213.874 162.622 215.813 162.2 217.828 162.372C219.023 162.474 220.175 162.775 221.217 163.282L221.245 163.296L221.248 163.278C221.27 163.162 221.299 163.049 221.334 162.938L221.371 162.829C221.868 161.456 223.19 160.844 224.905 161.063C226.416 161.256 228.39 162.077 230.904 163.573L231.941 164.223C232.312 164.454 232.71 164.702 233.131 164.962L234.578 165.855C235.785 166.596 236.99 167.326 238.153 168.021L239.312 168.708C241.76 170.152 243.709 171.238 244.967 171.845L245.055 171.887L245.765 172.038L245.933 172.075C246.749 172.256 247.658 172.472 248.636 172.722C251.432 173.436 254.23 174.283 256.849 175.263C261.882 177.146 265.66 179.284 267.719 181.767C270.52 185.095 283.554 208.814 302.386 244.142L305.095 249.23L309.34 244.198C312.019 241.018 314.735 237.79 317.45 234.558L324.523 226.126L328.41 221.484C328.67 221.172 329.058 220.999 329.461 221.012L329.548 221.018L398.927 227.768C399.888 227.862 400.424 228.922 399.93 229.751L399.837 229.897C399.677 230.138 399.372 230.568 398.857 231.263L398.61 231.594C397.348 233.283 395.394 235.808 392.603 239.334L390.617 241.836C381.937 252.734 368.18 269.603 348.251 293.693C336.54 307.845 325.757 316.866 315.94 321.171C307.265 324.975 299.459 325.034 292.766 321.802L292.616 321.728L292.494 321.685C285.94 319.297 279.165 311.892 277.547 305.541L277.511 305.396L248.801 202.868ZM206.355 166.245L206.365 166.338C206.367 166.313 206.398 166.397 206.462 166.529C206.559 166.73 206.7 166.988 206.883 167.295L206.954 167.413C207.399 168.15 208.045 169.115 208.85 170.249L209.222 170.77C210.686 172.803 212.54 175.218 214.516 177.665L215.034 178.303C220.461 184.963 225.527 190.321 228.191 192.026C233.373 195.351 240.782 198.295 250.16 200.488C250.6 200.591 250.955 200.911 251.103 201.334L251.128 201.414L280.047 304.687L280.06 304.736C281.394 310.317 287.721 317.235 293.563 319.273C293.615 319.291 293.665 319.313 293.714 319.337C299.734 322.321 306.803 322.305 314.881 318.763C324.18 314.685 334.542 306.053 345.878 292.432L352.371 284.577C369.008 264.421 380.809 249.926 388.555 240.2L390.725 237.467C392.904 234.712 394.555 232.588 395.751 231.014L396.393 230.164L329.985 223.702L322.865 232.201L318.572 237.314C314.275 242.428 309.985 247.521 305.852 252.412C305.251 253.123 304.12 253.003 303.683 252.181L300.069 245.393C281.529 210.615 268.316 186.564 265.698 183.452C264.002 181.407 260.561 179.46 255.926 177.726C253.405 176.783 250.695 175.962 247.984 175.27C247.034 175.027 246.153 174.818 245.363 174.643L244.764 174.513L244.385 174.435C244.28 174.414 244.178 174.381 244.082 174.336C242.698 173.691 240.517 172.478 237.728 170.829L236.803 170.278C235.394 169.438 233.929 168.546 232.471 167.647L230.773 166.595L229.527 165.814C227.326 164.505 225.656 163.81 224.572 163.672C223.977 163.596 223.876 163.642 223.847 163.723C223.649 164.272 224.108 165.593 224.98 166.898L225.054 167.007L225.133 167.106C225.289 167.299 225.454 167.496 225.626 167.695L225.801 167.895C226.987 169.234 228.497 170.665 230.254 172.144C231.896 173.526 233.659 174.875 235.423 176.132L235.878 176.454C236.175 176.663 236.46 176.861 236.732 177.047L237.333 177.455L237.763 177.74C238.985 178.532 238.206 180.425 236.78 180.131C235.086 179.781 227.646 173.771 224.058 169.963C223.662 169.537 223.294 169.085 222.964 168.621L222.884 168.506L222.726 168.302C222.392 167.866 222.093 167.438 221.83 167.019L221.768 166.919L221.725 166.871C220.738 165.801 219.334 165.177 217.777 165.009L217.604 164.992C216.906 164.933 216.228 164.973 215.679 165.092C215.563 165.117 215.457 165.145 215.362 165.175L215.342 165.182L215.348 165.196C215.515 165.566 215.813 166.07 216.255 166.727L216.453 167.019C217.106 167.967 220.596 172.651 221.437 173.82C221.671 174.142 221.923 174.471 222.193 174.807C223.288 176.169 224.659 177.619 226.242 179.119C227.787 180.583 229.446 182.013 231.106 183.35C231.542 183.701 231.954 184.026 232.336 184.323L232.902 184.756L233.306 185.06C233.892 185.49 234.018 186.313 233.587 186.898C233.157 187.484 232.333 187.609 231.747 187.179L231.403 186.922L231.108 186.698C230.608 186.315 230.052 185.88 229.453 185.397C227.742 184.019 226.031 182.544 224.43 181.027C222.768 179.451 221.318 177.918 220.141 176.454C219.918 176.177 219.705 175.903 219.502 175.631L219.091 175.068L219.056 175.047C218.927 174.966 218.811 174.862 218.714 174.736L218.667 174.671C215.732 170.344 212.121 167.003 209.163 165.611C207.981 165.055 207.079 164.908 206.652 165.075C206.421 165.164 206.285 165.453 206.355 166.245Z" fill="#2E186A"/>
<path fill-rule="evenodd" clip-rule="evenodd" d="M304.846 251.564C304.846 251.564 324.505 277.733 316.87 293.82L304.846 251.564Z" fill="white"/>
<path fill-rule="evenodd" clip-rule="evenodd" d="M304.056 250.512C304.637 250.076 305.462 250.194 305.899 250.774L306.064 250.998C306.194 251.176 306.344 251.385 306.513 251.623L306.807 252.041C307.207 252.614 307.64 253.252 308.099 253.949C309.737 256.434 311.374 259.161 312.903 262.051C315.903 267.723 318.115 273.308 319.206 278.572C320.453 284.589 320.173 289.929 318.059 294.383C317.748 295.039 316.963 295.319 316.306 295.008C315.649 294.697 315.369 293.913 315.68 293.256C317.518 289.385 317.768 284.607 316.628 279.105C315.594 274.116 313.469 268.751 310.575 263.28C309.088 260.47 307.494 257.813 305.9 255.395L305.535 254.845C305.176 254.309 304.836 253.814 304.52 253.364L304.179 252.883L303.793 252.353C303.356 251.772 303.474 250.948 304.056 250.512Z" fill="#2E186A"/>
<path fill-rule="evenodd" clip-rule="evenodd" d="M472.654 182.394C495.166 189.232 524.48 221.406 524.48 221.406L481.519 268.396L500.037 389.553L346.271 390.605L356.101 312.186C356.101 312.186 339.601 298.159 339.821 279.267C340.04 260.374 340.742 261.12 340.742 261.12L318.142 233.416C318.142 233.416 336.09 202.163 355.136 194.93C374.181 187.698 451.064 175.818 472.654 182.394Z" fill="#6A6AF4"/>
<path fill-rule="evenodd" clip-rule="evenodd" d="M383.791 173.057L385.108 187.917L376.156 190.196C372.382 192.519 370.539 220.88 398.273 218.031C426.007 215.181 441.673 197.253 445.491 181.473L433.203 182.043L425.392 144.696L383.791 173.057Z" fill="white"/>
<path fill-rule="evenodd" clip-rule="evenodd" d="M383.049 171.971L382.977 172.023C382.629 172.297 382.44 172.728 382.48 173.173L383.697 186.918L375.83 188.922C375.701 188.955 375.578 189.007 375.465 189.077C372.532 190.882 371.719 199.732 374.16 206.499C377.442 215.597 385.539 220.661 398.407 219.339C411.712 217.972 423.028 213.119 431.713 205.594C439.412 198.923 444.687 190.392 446.77 181.782L446.787 181.705C446.936 180.882 446.28 180.12 445.43 180.16L434.262 180.677L426.681 144.427C426.489 143.51 425.425 143.082 424.65 143.61L383.049 171.971ZM424.506 146.892L431.915 182.312L431.933 182.39C432.095 182.98 432.646 183.385 433.264 183.357L443.753 182.87L443.7 183.05C441.468 190.481 436.709 197.783 429.987 203.608C421.714 210.776 410.907 215.411 398.138 216.723C386.471 217.921 379.508 213.566 376.637 205.607C375.535 202.552 375.147 199.127 375.43 196.046C375.552 194.715 375.797 193.527 376.124 192.621L376.166 192.506C376.366 191.979 376.576 191.607 376.729 191.425L376.75 191.402L385.433 189.191L385.51 189.169C386.092 188.983 386.473 188.416 386.419 187.801L385.17 173.708L424.506 146.892Z" fill="#2E186A"/>
<path fill-rule="evenodd" clip-rule="evenodd" d="M425.524 131.721L429.342 132.467C429.342 132.467 451.547 135.053 450.274 114.758C449.308 99.328 434.125 100.292 426.84 101.607" fill="white"/>
<path fill-rule="evenodd" clip-rule="evenodd" d="M426.606 100.313C431.916 99.3548 436.997 99.2842 441.324 100.649C447.399 102.567 451.116 107.141 451.588 114.675C452.197 124.395 447.8 130.172 440.241 132.626C436.727 133.766 433.071 134.039 429.895 133.832L429.596 133.811C429.417 133.797 429.28 133.783 429.189 133.773L429.139 133.766L429.089 133.757L425.272 133.012C424.558 132.873 424.093 132.182 424.232 131.469C424.366 130.782 425.014 130.325 425.7 130.418L425.776 130.431L429.539 131.165L429.677 131.178C429.758 131.186 429.857 131.193 429.975 131.202L430.066 131.208C432.937 131.394 436.282 131.145 439.427 130.124C445.894 128.025 449.491 123.3 448.96 114.84C448.558 108.409 445.586 104.753 440.53 103.157C436.695 101.947 432.001 102.012 427.075 102.901C426.359 103.031 425.674 102.556 425.545 101.841C425.416 101.127 425.891 100.442 426.606 100.313Z" fill="#2E186A"/>
<path fill-rule="evenodd" clip-rule="evenodd" d="M346.359 123.174C347.061 132.423 355.18 174.591 384.932 174.284C414.685 173.977 431.404 144.959 431.229 117.125C431.053 89.29 416.045 67.8552 397.219 67.636C378.394 67.4168 341.225 56.0638 346.359 123.174Z" fill="white"/>
<path fill-rule="evenodd" clip-rule="evenodd" d="M376.714 65.5473C366.209 66.0827 358.335 69.4151 352.788 77.0128C346.165 86.0831 343.41 100.86 344.997 122.613L345.046 123.273C345.633 131.003 348.704 143.171 353.574 152.901C360.766 167.268 371.123 175.742 384.946 175.599C399.461 175.45 411.719 168.629 420.367 156.803C428.277 145.985 432.636 131.569 432.545 117.116C432.367 88.7859 416.999 66.5512 397.235 66.3211L396.229 66.3023C395.302 66.2772 394.353 66.2277 392.789 66.1238L388.253 65.8074C383.192 65.4632 380.141 65.3726 376.714 65.5473ZM392.647 68.7503C394.799 68.8931 395.814 68.9348 397.204 68.9509C415.286 69.1615 429.742 90.077 429.912 117.133C430 131.039 425.808 144.903 418.24 155.252C410.065 166.432 398.568 172.829 384.919 172.969C372.271 173.1 362.716 165.282 355.929 151.724C351.282 142.441 348.311 130.785 347.695 123.361L347.672 123.074C346.023 101.525 348.658 87.1313 354.915 78.5626C359.88 71.7634 366.92 68.7351 376.547 68.1901L376.848 68.1739C380.148 68.0058 383.12 68.0942 388.089 68.4324L392.647 68.7503Z" fill="#2E186A"/>
<rect width="10.6623" height="18.8071" transform="matrix(0.944513 0.328473 -0.329127 0.944286 429.671 30.8871)" fill="#FF8D7E"/>
<path fill-rule="evenodd" clip-rule="evenodd" d="M440.663 37.6535C451.061 37.6535 459.489 29.2343 459.489 18.8487C459.489 8.46305 451.061 0.0438385 440.663 0.0438385C430.266 0.0438385 421.838 8.46305 421.838 18.8487C421.838 29.2343 430.266 37.6535 440.663 37.6535Z" fill="#2E186A"/>
<path fill-rule="evenodd" clip-rule="evenodd" d="M424.295 42.7821C407.576 37.4781 389.628 35.0234 373.83 41.2917C325.953 62.9019 325.866 98.9774 345.964 115.371C345.218 89.816 351.449 77.4548 360.226 71.6249C369.836 86.923 400.862 100.161 429.254 100.468C429.298 100.731 429.386 100.994 429.429 101.213C437.241 100.249 449.484 100.95 450.318 114.758C451.503 133.782 432.106 132.73 429.649 132.51C429.342 134.001 425.348 147.633 425.348 147.633L429.649 167.139L492.796 157.321C496.614 157.233 499.247 153.463 498.019 149.869C490.427 127.294 478.052 60.5787 424.295 42.7821Z" fill="#2E186A"/>
<path fill-rule="evenodd" clip-rule="evenodd" d="M389.049 143.204L388.903 143.207L388.579 143.222L388.361 143.234C387.89 143.263 387.316 143.306 386.699 143.36C385.013 143.51 383.28 143.72 381.664 143.991C379.565 144.344 377.8 144.776 376.462 145.309C374.548 146.071 373.391 147.062 373.391 148.554C373.391 151.172 377.196 153.423 381.009 153.474C385.609 153.535 389.214 150.597 390.349 144.772C390.365 144.69 390.374 144.605 390.374 144.521L390.287 144.186C390.162 143.722 390.115 143.684 389.83 143.457L389.652 143.35C389.582 143.31 389.553 143.3 389.474 143.273L389.309 143.23C389.284 143.224 389.267 143.222 389.235 143.217L389.116 143.206L389.049 143.204ZM387.33 145.946L387.294 146.054C386.151 149.381 383.901 150.882 381.044 150.844C379.704 150.826 378.339 150.44 377.299 149.825L377.197 149.763C376.492 149.326 376.096 148.868 376.033 148.619L376.027 148.592L376.048 148.565C376.078 148.529 376.121 148.484 376.181 148.433C376.433 148.217 376.86 147.982 377.437 147.752C378.568 147.302 380.17 146.909 382.101 146.585C383.643 146.326 385.309 146.124 386.931 145.98L387.33 145.946Z" fill="#2E186A"/>
<path fill-rule="evenodd" clip-rule="evenodd" d="M369.51 99.5928C370.21 99.629 370.754 100.205 370.758 100.897L370.756 100.974L368.994 134.958L376.301 134.055C376.997 133.969 377.633 134.442 377.758 135.122L377.769 135.198C377.855 135.893 377.382 136.529 376.701 136.653L376.625 136.665L367.76 137.761C366.974 137.858 366.287 137.246 366.282 136.466L366.284 136.387L368.127 100.838C368.163 100.139 368.74 99.5953 369.432 99.591L369.51 99.5928Z" fill="#2E186A"/>
<path fill-rule="evenodd" clip-rule="evenodd" d="M350.363 102.491C351.879 102.228 353.454 102.365 354.978 102.745C355.562 102.891 356.01 103.04 356.28 103.147C356.956 103.415 357.286 104.18 357.017 104.855C356.758 105.505 356.037 105.835 355.38 105.617L355.181 105.545C355.15 105.534 355.113 105.522 355.073 105.508C354.857 105.437 354.611 105.364 354.339 105.297C353.142 104.998 351.915 104.892 350.813 105.082C349.342 105.337 348.245 106.092 347.542 107.531C347.224 108.184 346.436 108.455 345.782 108.137C345.129 107.819 344.857 107.032 345.176 106.379C346.268 104.141 348.095 102.884 350.363 102.491Z" fill="#2E186A"/>
<path fill-rule="evenodd" clip-rule="evenodd" d="M396.561 106.298C396.561 106.298 385.766 107.876 384.449 100.862L396.561 106.298Z" fill="white"/>
<path fill-rule="evenodd" clip-rule="evenodd" d="M384.207 99.5697C384.922 99.4359 385.609 99.9061 385.743 100.62C386.173 102.906 387.901 104.23 390.71 104.818C392.349 105.161 394.126 105.202 395.745 105.063L395.999 105.04L396.221 105.015C396.299 105.006 396.35 105 396.371 104.996C397.09 104.891 397.759 105.389 397.864 106.107C397.969 106.826 397.471 107.494 396.752 107.599L396.56 107.624C396.409 107.642 396.21 107.663 395.97 107.684C394.116 107.842 392.1 107.795 390.17 107.392C386.424 106.608 383.814 104.61 383.156 101.105C383.022 100.391 383.492 99.7036 384.207 99.5697Z" fill="#2E186A"/>
<path fill-rule="evenodd" clip-rule="evenodd" d="M392.253 118.283C393.858 118.034 394.844 115.815 394.456 113.327C394.068 110.839 392.453 109.025 390.849 109.275C389.244 109.524 388.258 111.743 388.646 114.231C389.034 116.719 390.649 118.533 392.253 118.283Z" fill="#2E186A"/>
<path fill-rule="evenodd" clip-rule="evenodd" d="M359.607 124.153C361.212 123.903 362.198 121.684 361.81 119.196C361.422 116.708 359.807 114.894 358.203 115.144C356.598 115.393 355.612 117.612 356 120.1C356.388 122.588 358.003 124.402 359.607 124.153Z" fill="#2E186A"/>
<path fill-rule="evenodd" clip-rule="evenodd" d="M393.1 82.0533C382.061 83.7228 375.033 96.6248 377.178 110.754C379.322 124.883 389.864 135.128 400.904 133.459C411.943 131.789 418.971 118.887 416.826 104.758C414.682 90.6289 404.14 80.3839 393.1 82.0533ZM393.495 84.654C402.916 83.2294 412.277 92.3268 414.224 105.152C416.17 117.977 409.93 129.433 400.509 130.858C391.088 132.283 381.727 123.185 379.78 110.36C377.834 97.5355 384.075 86.0787 393.495 84.654Z" fill="#FF8D7E"/>
<path fill-rule="evenodd" clip-rule="evenodd" d="M342.413 91.041C331.374 92.7104 324.345 105.612 326.49 119.742C328.635 133.871 339.177 144.116 350.216 142.446C361.256 140.777 368.284 127.875 366.139 113.746C363.994 99.6165 353.452 89.3715 342.413 91.041ZM342.808 93.6417C352.228 92.217 361.589 101.314 363.536 114.139C365.483 126.964 359.242 138.421 349.821 139.846C340.401 141.27 331.04 132.173 329.093 119.348C327.146 106.523 333.387 95.0663 342.808 93.6417Z" fill="#FF8D7E"/>
<path fill-rule="evenodd" clip-rule="evenodd" d="M377.73 106.668C378.446 106.544 379.127 107.023 379.252 107.739C379.372 108.429 378.93 109.086 378.256 109.244L378.18 109.259L364.269 111.67C363.552 111.794 362.871 111.315 362.747 110.599C362.627 109.909 363.069 109.251 363.743 109.094L363.819 109.079L377.73 106.668Z" fill="#FF8D7E"/>
<path fill-rule="evenodd" clip-rule="evenodd" d="M415.472 98.761L433.069 99.9006C433.795 99.9476 434.345 100.573 434.298 101.298C434.252 101.997 433.668 102.533 432.976 102.528L432.899 102.525L415.302 101.385C414.576 101.338 414.026 100.713 414.073 99.9881C414.118 99.2893 414.702 98.7534 415.395 98.7582L415.472 98.761Z" fill="#FF8D7E"/>
</svg>
