<svg xmlns="http://www.w3.org/2000/svg" width="162" height="78" fill="none"><path fill="#fff" d="M12 12h33v12H12z"/><path fill="#000091" d="M22.656 22.55c.004 0 .008-.006.008-.006a.486.486 0 0 0 .092-.088c-.004 0-.008 0-.012-.006-.028.03-.06.065-.088.1ZM27.07 21.063l-.07.06c.04-.01.07-.02.07-.06Z"/><path fill="#000091" fill-rule="evenodd" d="M25.643 22.582c.127-.129.255-.265.383-.405h-.004c.24-.273.473-.534.752-.772.085-.078.166-.144.244-.199.011-.011.017-.028.023-.045.006-.017.011-.034.023-.044-.055.02-.099.054-.143.088a.582.582 0 0 1-.151.091c-.023 0-.047-.023-.023-.047.08-.058.162-.12.24-.183h-.016c-.023 0-.023-.023-.023-.047-.288-.045-.51.152-.708.328l-.012.011c-.031.016-.06 0-.083-.012-.012-.006-.022-.011-.03-.011-.175.059-.326.167-.479.276-.14.1-.281.202-.443.265v-.046c-.055.019-.109.043-.163.068-.08.037-.16.073-.244.091-.151.036-.292.031-.428.027a3.98 3.98 0 0 0-.133-.003 6.535 6.535 0 0 0-.738.13l-.08.018a.06.06 0 0 1-.011.004 1.69 1.69 0 0 0-.43.175l-.015.008-.016.02a.524.524 0 0 1-.17.156 1.257 1.257 0 0 0-.265.198c-.035.032-.071.064-.107.093-.008.008-.024.012-.035.012a14.9 14.9 0 0 1-.364.347c-.008.008-.043.012-.07.008 0 0 .004 0 .004-.004l.011-.024.059-.093.032-.053.033-.052c.031-.047.063-.094.097-.137.008-.011.008-.023 0-.03a.044.044 0 0 0-.03-.013c.112-.108.243-.202.379-.284v-.004c-.016.004-.039-.008-.027-.023.011-.014.02-.03.03-.046l.008-.017c.003-.003.003-.006.004-.01l.004-.009-.008-.01-.007-.01-.024.016a.403.403 0 0 0-.13.114c-.036.045-.073.093-.129.093-.004 0-.023 0-.035-.004-.012 0-.02-.004-.023-.008v-.004h.004s.004-.004.004-.008c0 0 0-.004.003-.004a.102.102 0 0 1 .006-.01.083.083 0 0 0 .006-.01.08.08 0 0 1 .006-.009l.006-.01a.019.019 0 0 0 .004-.007c0-.003.002-.006.004-.008l.004-.008.011-.023.006-.01a.071.071 0 0 0 .006-.01.215.215 0 0 0 .015-.025l.016-.026a.083.083 0 0 1 .015-.023l.012-.021.011-.022c.012-.02 0-.035-.015-.039a.522.522 0 0 1 .155-.136h-.008c.053-.027.108-.058.163-.09l.097-.054c.011-.012.023-.024.038-.031a1.391 1.391 0 0 0-.356.179s-.031.012-.039.02c0 0-.023.007-.054-.02-.004-.004-.004-.008-.004-.016.014-.027.041-.045.071-.064.022-.014.045-.029.065-.049.023 0 .042 0 .042.024.446-.35.996-.431 1.548-.512.34-.05.68-.1.997-.213l.1-.068.102-.068c.056-.024.107-.064.16-.107.053-.042.11-.086.177-.12.178-.136.313-.292.383-.521 0-.024-.023-.047-.023-.047a3.562 3.562 0 0 1-.992.748c-.343.181-.711.208-1.076.235-.137.01-.273.02-.407.038.023-.047.07-.047.112-.047 0-.055.026-.08.06-.11l.03-.027h.065c.012 0 .017-.011.023-.023.006-.012.012-.023.023-.023.047 0 .113-.024.09-.024-.036-.045-.088-.027-.145-.007-.054.019-.114.04-.17.007.021-.022.027-.05.033-.074.006-.026.011-.05.034-.062h.089c0-.047.046-.09.046-.09.202-.121.397-.227.589-.331.128-.07.254-.138.38-.21-.026 0-.048.01-.07.02-.035.017-.068.032-.109.003.024 0 .024-.016.024-.033 0-.016 0-.033.023-.033.145-.039.274-.102.407-.166.093-.045.188-.091.29-.13a.306.306 0 0 0-.086.016c-.053.015-.103.03-.162-.016a.232.232 0 0 0 .04-.027c.025-.02.05-.04.096-.04v-.066c0-.023.023-.023.046-.023-.023 0-.046-.023-.046-.023.012-.025.036-.03.063-.036a.14.14 0 0 0 .072-.03c-.023 0-.066 0-.066-.024.066-.09.179-.113.291-.136-.012-.024-.034-.024-.053-.024-.02 0-.036 0-.036-.023s.023-.023.046-.023h-.046c-.037-.019-.03-.052-.026-.074l.003-.016c.09-.107.12-.234.15-.36.015-.061.03-.123.051-.182-.023 0-.046 0-.046-.023-.218.242-.563.333-.891.42l-.031.009h-.113a.444.444 0 0 1-.383-.024c-.054-.028-.092-.063-.133-.1a1.12 1.12 0 0 0-.092-.079 2.773 2.773 0 0 0-.561-.273 5.04 5.04 0 0 0-1.732-.25c.163-.089.337-.125.513-.16a3.44 3.44 0 0 0 .445-.117c.32-.098.633-.194.975-.174a.377.377 0 0 0-.155-.005c-.025.003-.049.005-.07.005-.259-.02-.52.038-.793.098l-.175.038a3.23 3.23 0 0 0-.31.087c-.113.035-.225.07-.345.093a.512.512 0 0 0-.134.078c-.065.047-.128.093-.226.081v-.07c.225-.273.496-.541.856-.565.348-.056.677-.016 1.02.026l.173.021c.281.023.544.085.827.153l.03.007c.061 0 .096.054.13.107.027.043.054.085.094.095.055.02.11.023.165.026.08.006.161.01.242.064a.271.271 0 0 0-.006-.046c-.005-.03-.01-.06.006-.09.05-.05.107-.037.163-.024.044.01.088.02.127 0 .123-.076.008-.193-.108-.31-.055-.057-.11-.113-.14-.165 0-.023.024-.047.024-.047.05.046.098.093.145.14.117.117.232.231.393.312.112.047.383.113.337-.023-.08-.177-.216-.33-.353-.485-.056-.063-.113-.127-.166-.193v-.09c-.035 0-.044-.013-.054-.03a.138.138 0 0 0-.012-.017v-.09c-.057-.029-.07-.076-.082-.124-.008-.027-.015-.054-.03-.078-.04-.063-.042-.14-.045-.22a.656.656 0 0 0-.025-.189 2.314 2.314 0 0 1-.09-.386c-.024-.14-.052-.272-.08-.403-.047-.23-.093-.452-.12-.684-.036-.33.13-.61.301-.896.05-.084.102-.17.148-.257.159-.273.337-.541.631-.725.064-.266.24-.487.413-.708l.013-.016c.172-.214.459-.345.67-.441l.024-.011c.313-.14.596-.23.6-.23H12v11.996h11.04c.295-.214.588-.35.938-.51a17.12 17.12 0 0 0 .658-.315c.315-.155.817-.402 1.007-.59Zm-3.503-1.619c-.044.005-.09.01-.073-.026.016-.079.097-.102.176-.125.034-.01.067-.02.095-.034l.012-.007.01-.005c.044-.023.097-.051.137-.035.026.038.06.048.091.057.024.008.047.014.067.033-.084.084-.181.092-.28.1a.595.595 0 0 0-.196.04c-.011 0-.025 0-.04.002Zm-3.427-.548c0 .024.023.047.023.047.542-.611 1.034-1.134 1.731-1.566.019-.008.012.002.003.015-.014.02-.033.046.02.032.231-.053.335-.25.436-.443.026-.05.052-.1.08-.146.105-.172.256-.282.407-.393.11-.08.22-.16.313-.265 0 .023 0 .047-.023.07.023.024.047.024.07.024.04-.031.085-.044.128-.056.055-.016.106-.03.143-.08-.178-.071-.407-.094-.585-.024-.473.226-.875.588-1.259.997-.232.246-.473.475-.767.635a6.924 6.924 0 0 1-.72 1.153Zm1.89-1.449c-.011.025-.024.037-.035.05-.01.01-.02.021-.03.04a.181.181 0 0 1-.09.089c-.022 0-.046 0-.046-.023.024-.09.09-.179.178-.202.024.004.024.027.024.046Zm.991 3.46a.289.289 0 0 0 .054-.066c.02-.047-.1-.035-.12-.023a.258.258 0 0 0-.042.045l-.004.005a.635.635 0 0 1-.054.054l-.039.036c-.054.055-.108.11-.166.16-.039.035.085.05.112.027a.797.797 0 0 0 .085-.078c.01 0 .02-.002.028-.003h.007c.064-.022.112-.067.158-.11l.012-.012c.016-.015-.004-.03-.03-.035Zm-.35-.253h-.001v.004a5.225 5.225 0 0 0-.071.05c-.06.042-.12.085-.185.121a2.949 2.949 0 0 1-.188.095 5.825 5.825 0 0 0-.11.053s0-.004-.004-.004c-.008-.011-.023-.015-.039-.007a.999.999 0 0 0-.225.175.116.116 0 0 0-.03.031l-.035.035v.004c-.016.016-.032.031-.05.055a.104.104 0 0 0-.01.012c-.006.007-.012.014-.022.019-.015.008-.054.008-.05-.016v-.004a.18.18 0 0 1-.039.02.152.152 0 0 1-.017.01.146.146 0 0 0-.018.01c-.004-.005-.011-.005-.015-.005s-.012 0-.016.004l-.027.023a1.51 1.51 0 0 0-.186.188s0 .003-.004.003c0 .003 0 .003-.002.004l-.002.004-.007.008-.003.004c-.002.002-.003.004-.005.004l-.004.004c-.004.008-.008.015-.015.023a.03.03 0 0 1-.02.008c-.004-.004-.008-.008-.008-.012l-.003-.006-.004-.005-.01-.018a.17.17 0 0 0-.01-.018v-.003c0-.002 0-.004-.002-.006a.013.013 0 0 1-.002-.006l.07-.082.004-.004a.188.188 0 0 0 .012-.013l.011-.014a.445.445 0 0 0 .05-.066c.024-.031.047-.063.07-.098v-.004c.004-.003.008-.007.008-.015a.315.315 0 0 0 .031-.047l.023-.047v-.003l.004-.004.002-.004.002-.004.012-.027a.678.678 0 0 0 .011-.028v-.004l.004-.015.004-.012.004-.012v-.003a.123.123 0 0 0 .004-.018c0-.006.002-.012.004-.018 0-.004 0-.011-.004-.015a.65.65 0 0 1 .089-.121l-.006.002a.024.024 0 0 1-.003.002h-.003a.296.296 0 0 0-.047.04c-.012.012-.024.024-.038.034-.023.02-.07-.012-.039-.035.02-.016.035-.031.05-.047 0 0 0-.004.005-.004a.817.817 0 0 0 .045-.046c.022-.024.045-.048.07-.067a1.086 1.086 0 0 0 .082-.062.668.668 0 0 1 .05-.058s.004 0 .004-.004c.133-.13.32-.175.511-.221.12-.03.242-.06.353-.11.063-.027.133-.016.202-.006.054.008.109.016.158.005.066 0 .136 0 .202.047-.153.082-.3.175-.444.267l-.126.08h-.002Zm.484-1.588c-.018.002-.03.003-.02.014.066.066.202.043.295-.008.066-.047.135-.047.224-.047.023 0 .023-.043.023-.066a.47.47 0 0 0 .179.023c.538-.113 1.057-.226 1.553-.475-.502-.388-1.12-.56-1.726-.73l-.3-.084c.022 0 .044.007.066.014.044.015.089.03.136-.014a.374.374 0 0 0-.198-.068.421.421 0 0 1-.163-.045c.006 0 .012 0 .019.002.023.005.053.01.07-.026-.117-.059-.235-.079-.354-.1a2.24 2.24 0 0 1-.184-.036.222.222 0 0 0 .182-.226c0-.023-.046-.023-.07-.023-.267.136-.449.385-.561.677.1.06.21.053.317.046.06-.003.12-.007.178.001-.05.048-.124.062-.194.074l-.077.016c-.07.015-.135.066-.112.113a.08.08 0 0 0 .05.031.323.323 0 0 0-.14.082c.065.05.13.04.195.03.026-.003.052-.007.077-.007 0 .029.019.038.038.048.01.005.02.01.028.018a.405.405 0 0 0-.225.203.416.416 0 0 1-.13.155c-.034.03-.068.058-.094.094v.07a4.256 4.256 0 0 1-.228.184c-.156.12-.307.237-.427.405.023 0 .023.023.023.047a.312.312 0 0 1-.08.075c-.034.025-.066.049-.079.084 0 .024 0 .047.024.047.142-.047.265-.126.385-.204.11-.07.217-.139.335-.182.096-.023.18-.067.262-.11.07-.035.138-.07.21-.092.057-.012.119-.028.18-.045.063-.017.125-.033.18-.045 0 .024 0 .047.024.047h.178c-.01.026-.045.03-.069.033Z" clip-rule="evenodd"/><path fill="#E1000F" d="M45 12H32.097s.023.004.12.055c.106.054.242.128.324.171.168.086.328.195.433.363.047.066.113.203.07.293-.046.113-.07.296-.183.34-.136.07-.316.07-.476.046-.09 0-.18-.024-.273-.047.34.137.66.297.886.613.023.046.113.066.203.066.023 0 .023.047.023.066-.047.047-.09.07-.066.137h.066c.113-.047.09-.273.25-.203.113.066.16.226.09.34-.09.089-.18.16-.274.226a.191.191 0 0 0 0 .16c.066.09.09.179.113.273.07.16.09.339.16.499.09.34.18.679.16 1.022 0 .18-.09.34-.023.523.047.18.16.316.25.476.09.136.179.226.25.363.136.226.385.452.272.725-.066.16-.316.137-.476.226-.136.114-.023.297.047.41.113.203-.136.34-.296.41.046.07.136.046.16.09.023.113.136.179.066.296-.09.136-.363.203-.226.41.09.16.03.335-.024.499-.066.203-.25.292-.41.34a.894.894 0 0 1-.428.023c-.047-.024-.09-.047-.137-.047-.386-.047-.772-.156-1.155-.156-.113.023-.226.043-.316.09a1.832 1.832 0 0 0-.273.241l-.004.004c-.015.02-.035.035-.05.055-.008.012-.02.023-.027.035-.008.008-.012.016-.02.023a2.395 2.395 0 0 0-.191.277c-.004.012-.012.02-.02.032a2.244 2.244 0 0 0-.171.417c-.156.519-.086.964.023 1.073.031.031.75.254 1.248.476.234.105.398.183.535.269h12.67V12H45Z"/><path fill="gray" d="M32.863 16.375c.09.023.226.023.226.07-.047.18-.315.226-.451.41h-.07c-.067.046-.047.16-.113.16-.066-.024-.136 0-.203.023.09.09.203.16.339.136.023 0 .066.047.066.09 0 0 .023 0 .047-.024.023 0 .046 0 .046.024v.09c-.066.089-.183.046-.272.065a.984.984 0 0 0 .521 0c.136-.046 0-.272.09-.385-.047 0 0-.07-.047-.07.047-.047.09-.113.136-.137.047 0 .113-.023.136-.07 0-.047-.09-.066-.07-.113.137-.09.25-.226.203-.362-.024-.07-.203-.07-.315-.113-.113-.043-.25 0-.386.023-.112 0-.225.07-.338.09a1.55 1.55 0 0 0-.428.226c.16-.067.315-.09.498-.137.136.004.249-.027.385.004Z"/><path fill="#161616" d="M13.236 39h1.704v-3.396h.876L18.06 39h2.004l-2.628-3.72c.864-.396 1.356-1.152 1.356-2.172 0-1.56-1.14-2.508-2.988-2.508h-2.568V39Zm2.664-6.984c.72 0 1.14.432 1.14 1.068 0 .684-.42 1.104-1.14 1.104h-.96v-2.172h.96Zm8.627-2.136 1.56-1.62h-1.752l-1.356 1.62h1.548ZM21.323 39h4.896v-1.416h-3.192v-2.16h2.712v-1.416h-2.712v-1.992h3.192V30.6h-4.896V39Zm7.056 0h1.704v-3.396h1.068c1.848 0 2.976-.948 2.976-2.496 0-1.56-1.128-2.508-2.976-2.508H28.38V39Zm2.844-6.984c.72 0 1.152.432 1.152 1.068 0 .684-.432 1.104-1.152 1.104h-1.14v-2.172h1.14Zm9.447 3.84c0 1.128-.648 1.788-1.692 1.788-1.068 0-1.703-.66-1.703-1.788V30.6H35.57v5.112c0 2.208 1.296 3.528 3.396 3.528 2.111 0 3.407-1.32 3.407-3.528V30.6H40.67v5.256ZM44.671 39h2.652c1.932 0 3.12-.936 3.12-2.472 0-.876-.492-1.596-1.38-1.992.588-.384.9-.972.9-1.656 0-1.416-1.068-2.28-2.82-2.28h-2.472V39Zm2.508-6.984c.648 0 1.032.348 1.032.936 0 .612-.384.96-1.032.96h-.804v-1.896h.804Zm.24 3.312c.792 0 1.272.408 1.272 1.128 0 .708-.48 1.128-1.272 1.128h-1.044v-2.256h1.044ZM52.372 39h4.896v-1.548h-3.192V30.6h-1.704V39Zm6.576 0h1.704v-8.4h-1.704V39Zm11.275-.216-.504-.48c1.032-.816 1.656-2.1 1.656-3.504 0-2.4-1.812-4.44-4.452-4.44-2.652 0-4.464 2.04-4.464 4.44 0 2.4 1.812 4.44 4.464 4.44.408 0 .792-.048 1.152-.144l.996.888c.828.72 1.692 1.104 2.628 1.104.372 0 .612-.048.888-.156v-1.44c-.18.072-.42.096-.6.096-.54 0-1.116-.216-1.764-.804Zm-3.3-1.14c-1.584 0-2.712-1.236-2.712-2.844 0-1.608 1.128-2.844 2.712-2.844 1.572 0 2.7 1.236 2.7 2.844 0 1.608-1.128 2.844-2.7 2.844Zm11.22-1.788c0 1.128-.649 1.788-1.693 1.788-1.068 0-1.704-.66-1.704-1.788V30.6h-1.704v5.112c0 2.208 1.296 3.528 3.396 3.528 2.112 0 3.408-1.32 3.408-3.528V30.6h-1.704v5.256Zm4 3.144h4.896v-1.416h-3.192v-2.16h2.712v-1.416h-2.712v-1.992h3.192V30.6h-4.896V39Zm10.35 0h1.705v-3.576h2.712v-1.416h-2.712v-1.992h3.192V30.6h-4.896V39Zm6.576 0h1.704v-3.396h.876L103.893 39h2.004l-2.628-3.72c.864-.396 1.356-1.152 1.356-2.172 0-1.56-1.14-2.508-2.988-2.508h-2.568V39Zm2.664-6.984c.72 0 1.14.432 1.14 1.068 0 .684-.42 1.104-1.14 1.104h-.96v-2.172h.96ZM106.464 39h1.812l.804-2.184h3.36l.804 2.184h1.812l-3.18-8.4h-2.232l-3.18 8.4Zm3.144-3.636 1.152-3.156 1.152 3.156h-2.304ZM116.533 39h1.704v-6.072L121.993 39h2.184v-8.4h-1.704v6.072l-3.756-6.072h-2.184V39Zm13.917-1.356c-1.584 0-2.712-1.236-2.712-2.844 0-1.608 1.128-2.844 2.712-2.844.96 0 1.716.468 2.196 1.152l1.344-1.044c-.768-1.02-2.016-1.704-3.54-1.704-2.652 0-4.464 2.04-4.464 4.44 0 2.136 1.44 3.984 3.624 4.368l-1.056 1.764h1.512l1.044-1.74c1.224-.156 2.232-.78 2.88-1.668l-1.344-1.032c-.48.684-1.236 1.152-2.196 1.152ZM134.535 39h1.812l.804-2.184h3.36l.804 2.184h1.812l-3.18-8.4h-2.232l-3.18 8.4Zm3.144-3.636 1.152-3.156 1.152 3.156h-2.304ZM144.604 39h1.704v-8.4h-1.704V39Zm3.476-1.164c.744.888 1.692 1.404 3.108 1.404 1.548 0 2.772-.948 2.796-2.532 0-2.88-3.816-2.448-3.816-3.972 0-.504.396-.888.996-.888.636 0 1.188.42 1.68 1.056l1.248-1.128c-.72-.852-1.68-1.416-2.94-1.416-1.608 0-2.712 1.104-2.712 2.436 0 2.844 3.816 2.424 3.816 3.972 0 .6-.408.96-1.08.96-.684 0-1.356-.384-1.86-1.032l-1.236 1.14ZM155.95 39h4.896v-1.416h-3.192v-2.16h2.712v-1.416h-2.712v-1.992h3.192V30.6h-4.896V39Z"/><path fill="#000" fill-rule="evenodd" d="m43.18 60.615-1.116 1.02h-.288l.66-1.164h.744v.144Zm-.804 3.947h-.24c-.3.36-.636.648-.96.648-.336 0-.504-.204-.504-.648 0-.18.024-.372.06-.54l1.956-.648c.384-.912-.072-1.308-.612-1.308-.924 0-1.98 1.62-1.98 2.916 0 .612.288.948.744.948.528-.012 1.08-.528 1.536-1.368Zm-.671-1.968c.264 0 .492.204.372.672l-1.213.325c.193-.577.553-.997.84-.997Zm-3.816.024h.648l-1.032 2.832c-.097.24.035.48.287.48.733 0 1.609-.624 1.945-1.512h-.18c-.264.372-.84.78-1.272.852l.948-2.652h.972l.12-.408h-.948l.36-1.02h-.372l-.672 1.02-.804.108v.3Zm-.901-.54c.132 0 .312.145.228.409l-1.164 2.82c.3-.048.612-.336.792-.6h.192c-.276.708-.9 1.224-1.44 1.224-.132 0-.324-.144-.228-.408l1.08-2.82c-.3.048-.612.336-.792.6h-.18c.276-.72.948-1.224 1.512-1.224Zm.337-.72a.443.443 0 1 0 0-.887.443.443 0 1 0 0 .888Zm-5.245 2.34c.264-.575.168-.84 0-.84-.144 0-.312.157-.48.445h-.18c.276-.612.636-1.224 1.032-1.224.336 0 .456.336.456.708v.528l.158-.185v-.001h.002c.507-.596.894-1.05 1.34-1.05.348 0 .528.216.528.54 0 .192-.06.432-.192.684l-.996 2.004c.3-.048.612-.336.792-.6h.18c-.276.72-.948 1.224-1.512 1.224-.252 0-.396-.264-.288-.48l1.152-2.22c.132-.252.156-.42-.048-.42-.276 0-.924.456-1.272.876l-.756 1.992c-.084.204-.168.252-.36.252-.312 0-.468-.204-.324-.528l.768-1.704Zm-.781-.768c.132-.456.06-.864-.288-.864-.434 0-.57.287-.991 1.174l-.03.062v-.528c0-.372-.12-.708-.456-.708-.396 0-.756.612-1.032 1.224h.18c.192-.276.372-.444.516-.444.168 0 .264.264 0 .84l-.768 1.704c-.144.324.012.528.324.528.192 0 .276-.048.36-.252l.756-1.992c.216-.264.409-.492.649-.744h.78Zm-3.793.337c.12-.469-.108-.673-.372-.673-.288 0-.648.42-.84.996l1.212-.324Zm.3 1.295h-.24c-.3.36-.636.648-.96.648-.337 0-.505-.204-.505-.648 0-.18.024-.372.06-.54l1.957-.648c.384-.912-.072-1.308-.612-1.308-.925 0-1.98 1.62-1.98 2.916 0 .612.287.948.744.948.528-.012 1.08-.528 1.536-1.368Zm-3.84-1.944h-.648v-.3l.804-.108.673-1.02h.372l-.36 1.02h.948l-.12.408h-.972l-.949 2.652c.433-.072 1.009-.48 1.273-.852h.18c-.336.888-1.213 1.512-1.945 1.512-.252 0-.384-.24-.288-.48l1.032-2.832Zm-4.08 2.196c0-.876.973-2.051 1.513-2.051.12 0 .24.012.336.047l-.564 1.512c-.324.396-.828.876-1.069.876-.131 0-.215-.12-.215-.384Zm2.677-2.927.3.024-1.044 2.4c-.252.575-.144.84 0 .84s.324-.169.516-.445h.18c-.276.612-.636 1.224-1.032 1.224-.336 0-.54-.36-.48-1.008l.024-.228-.065.092c-.43.6-.82 1.144-1.22 1.144-.347 0-.527-.216-.527-.54 0-1.392 1.524-3.168 2.952-3.168h.06l.336-.335Zm-2.749 1.043c.132-.456.06-.864-.288-.864-.434 0-.57.287-.99 1.174l-.03.062v-.528c0-.372-.12-.708-.456-.708-.396 0-.756.612-1.032 1.224h.18c.192-.276.372-.444.504-.444.168 0 .264.264 0 .84l-.768 1.716c-.144.324.012.528.324.528.192 0 .276-.048.36-.252l.756-1.992c.216-.264.408-.492.648-.744h.792v-.012Zm-4.946 2.64-.072.215H12l.072-.228c.864-.156 1.008-.228 1.368-1.2l.78-2.087c.348-.973.276-1.045-.48-1.2l.072-.216h3.637l-.216 1.163h-.264c0-.696-.072-.875-.732-.875h-.168c-.648 0-.732.095-.912.6l-.517 1.403h.756c.505 0 .697-.312.925-.72h.264l-.624 1.704h-.264c.06-.516.06-.72-.408-.72h-.757l-.348.96c-.376 1-.268 1.02.628 1.19l.056.01ZM17.245 51.433l-1.116.804v.012h-.289l.66-.96h.745v.144Zm7.802 5.63 1.788-4.754-.06-.072-1.236.145v.144l.24.18c.205.16.151.308-.019.773l-.029.08-1.368 3.649c-.108.216.036.48.288.48.564 0 1.164-.516 1.44-1.224h-.18c-.192.264-.576.552-.864.6Zm8.197-3.661 1.116-1.02v-.145h-.744l-.66 1.165h.288Zm.071 2.917h.24c-.444.853-.996 1.37-1.524 1.37-.456 0-.744-.337-.744-.95 0-1.296 1.056-2.917 1.98-2.917.528 0 .996.396.612 1.309l-1.968.648a2.66 2.66 0 0 0-.06.54c0 .445.168.649.504.649.324 0 .66-.288.96-.649Zm-.06-1.296c.12-.456-.109-.66-.373-.66-.276 0-.636.42-.84.984l1.212-.324Zm-3.53-.637h-.647v-.3l.804-.108.672-1.02h.372l-.36 1.02h.948l-.12.408h-.972l-.948 2.653c.432-.072 1.008-.48 1.272-.852h.18c-.336.889-1.212 1.513-1.944 1.513-.252 0-.384-.24-.288-.48l1.032-2.834Zm-1.32-.144c.072-.264-.096-.408-.24-.408-.564 0-1.236.516-1.512 1.224h.18c.18-.264.492-.552.792-.6l-1.08 2.822c-.096.264.096.408.228.408.54 0 1.164-.516 1.44-1.225h-.18c-.18.264-.492.553-.792.6l1.165-2.82Zm.553-1.56c0 .24-.204.444-.444.444a.443.443 0 1 1 .444-.444Zm-6.06 1.849c-.54 0-1.512 1.176-1.512 2.053 0 .264.084.384.229.384.228 0 .732-.48 1.056-.877l.564-1.512a1.035 1.035 0 0 0-.336-.048Zm1.465-.853-.3-.024-.336.336h-.06c-1.428 0-2.952 1.777-2.952 3.17 0 .324.18.54.528.54.4 0 .789-.544 1.219-1.145l.065-.091-.024.228c-.06.648.144 1.008.48 1.008.396 0 .756-.612 1.032-1.225h-.18c-.192.277-.372.445-.516.445-.144 0-.252-.264 0-.84l1.044-2.402Zm-6.05 3.89c-.516.204-.876.444-.876.817 0 .348.324.492.996.492.9 0 1.393-.264 1.393-.613 0-.156-.204-.228-.744-.408a5.37 5.37 0 0 1-.768-.288Zm.6-1.477c-.24 0-.324-.204-.324-.42 0-.696.336-1.56.876-1.56.24 0 .324.204.324.42-.012.708-.348 1.56-.876 1.56Zm.457 1.129c.66.204 1.068.36 1.068.816 0 .589-1.08 1.285-2.388 1.273-.756 0-1.404-.204-1.404-.696 0-.469.432-.853 1.488-1.165a.422.422 0 0 1-.204-.384c0-.288.264-.517.72-.733-.444-.06-.732-.396-.732-.888 0-.756.624-1.62 1.608-1.62.204 0 .384.047.528.143h1.08l-.12.408h-.636c.036.108.06.229.06.36 0 .733-.588 1.573-1.524 1.621-.24.133-.36.313-.36.457 0 .17.196.227.63.353l.186.055Zm-3.805-2.053c.468 0 .48.204.408.72h.264l.624-1.705h-.264c-.228.409-.42.72-.924.72H14.64l.505-1.404c.18-.504.264-.6.912-.6h.456c.66 0 .732.18.732.876h.264l.216-1.164h-3.913l-.072.216c.756.156.828.228.48 1.2l-.78 2.101c-.36.973-.504 1.045-1.38 1.201l-.06.228h4.345l.78-1.236h-.3c-.504.492-1.008.948-1.992.948-1.083 0-1.064-.053-.739-.946l.066-.183.36-.96h1.045v-.012ZM19.15 44.888a.45.45 0 0 0 .444-.444.45.45 0 0 0-.444-.444.443.443 0 0 0-.444.444c0 .252.192.444.444.444Zm3.552 1.51c0-.575-.144-.791-.552-.791-.504 0-.971.54-1.44 1.187l1.008-2.698-.06-.084-1.235.144v.144l.24.18c.209.162.148.324-.03.802l-.018.05-1.092 2.854c-.096.24-.204.528-.204.6 0 .335.456.66.876.66.936.011 2.507-1.716 2.507-3.047Zm10.402-1.223 1.116-1.02v-.143h-.744l-.66 1.163h.288Zm.072 2.915h.24c-.455.851-1.007 1.367-1.535 1.355-.456 0-.744-.324-.744-.935 0-1.296 1.056-2.915 1.98-2.915.527 0 .995.396.611 1.307l-1.955.648c-.036.168-.06.36-.06.54 0 .444.168.648.504.648.324 0 .66-.288.96-.648Zm-.06-1.296c.12-.455-.109-.66-.373-.66-.288 0-.648.42-.84.984l1.212-.324Zm-3.541-.634h-.648v-.3l.804-.108.671-1.02h.372l-.36 1.02h.948l-.12.407h-.972l-.947 2.651c.432-.072 1.008-.48 1.271-.851h.18c-.335.887-1.211 1.511-1.943 1.511-.252 0-.384-.24-.288-.48l1.032-2.83Zm-.982.311c.132-.455.06-.863-.288-.863-.434 0-.57.286-.99 1.173l-.03.062v-.528c0-.371-.12-.707-.456-.707-.395 0-.755.611-1.031 1.223h.18c.192-.276.372-.444.503-.444.168 0 .264.264 0 .84l-.767 1.703c-.144.324.012.528.324.528.192 0 .276-.048.36-.252l.755-1.991c.216-.264.408-.492.648-.744h.792Zm-3.803.324c.12-.456-.108-.66-.372-.66-.288 0-.636.42-.84.983l1.212-.324Zm.3 1.295h-.24c-.3.36-.637.648-.96.648-.336 0-.504-.204-.504-.648 0-.18.024-.372.06-.54l1.955-.648c.384-.911-.072-1.307-.612-1.307-.923 0-1.98 1.62-1.98 2.915 0 .611.289.935.745.935.527.012 1.08-.504 1.535-1.355Zm-5.039.456c0 .156.276.336.468.336.78 0 1.512-1.403 1.5-2.183 0-.264-.132-.372-.312-.372-.288 0-.816.432-1.152.84l-.312.84c-.108.275-.192.491-.192.54Zm-1.26-2.938c.145 0 .313.144.24.408l-1.151 2.818c.3-.048.612-.336.792-.6h.18c-.276.708-.9 1.224-1.44 1.224-.144 0-.336-.144-.24-.408l1.08-2.819c-.3.048-.612.336-.792.6h-.18c.276-.708.948-1.223 1.512-1.223Zm-4.98-1.248h2.58l-.072.228c-.876.156-1.02.228-1.38 1.2l-.767 2.11c-.372 1.008-.276 1.128.383 1.128.816 0 1.35-.592 1.817-1.11l.103-.113h.3l-.852 1.511H12l.072-.216c.864-.156 1.008-.228 1.368-1.2l.78-2.122c.348-.972.275-1.044-.48-1.2l.072-.216Z" clip-rule="evenodd"/></svg>