<svg width="40" height="40" viewBox="0 0 40 40" fill="none" xmlns="http://www.w3.org/2000/svg">
<g id="avatar">
<circle id="bg" cx="20" cy="20" r="19" fill="white" stroke="#0063CB" stroke-width="2"/>
<g id="head_6_">
<path id="ear_5_" fill-rule="evenodd" clip-rule="evenodd" d="M28.3159 19.7363C28.3159 19.7363 31.2035 19.7923 30.6819 22.3858C30.1602 24.9792 26.9746 23.4866 26.9746 23.4866L27.4031 19.811L28.3159 19.7363Z" fill="white"/>
<path id="ear_6_" fill-rule="evenodd" clip-rule="evenodd" d="M28.3271 19.1764C28.3083 19.176 28.2895 19.1766 28.2708 19.1781L27.3579 19.2528C27.0925 19.2745 26.8792 19.4808 26.8483 19.7457L26.4198 23.4214C26.3919 23.6607 26.5201 23.8911 26.7381 23.9933L26.8015 24.022C26.9387 24.0823 27.1374 24.1588 27.3815 24.2346C27.8819 24.39 28.387 24.481 28.8737 24.4729C30.076 24.453 30.9639 23.8192 31.2301 22.496C31.5299 21.0052 30.9097 19.9978 29.7524 19.4968C29.4395 19.3614 29.1105 19.2734 28.7824 19.2218C28.5846 19.1907 28.4269 19.1783 28.3271 19.1764ZM27.9052 20.3314L28.3285 20.2969L28.3769 20.3002C28.446 20.3056 28.5242 20.3146 28.609 20.3279C28.8503 20.3658 29.0906 20.4301 29.3089 20.5246C30.0088 20.8276 30.3228 21.3377 30.1342 22.2751C29.9794 23.0451 29.5634 23.3421 28.8552 23.3538C28.5029 23.3597 28.109 23.2887 27.7125 23.1655L27.6323 23.1399L27.5798 23.1221L27.9052 20.3314Z" fill="#2E186A"/>
<path id="face_6_" fill-rule="evenodd" clip-rule="evenodd" d="M20.0825 11.5826C19.3187 11.5266 14.1024 11.1908 13.5249 15.5568C12.9474 19.9227 13.5622 24.7365 14.0465 26.9381C14.5309 29.1398 24.5163 28.1136 25.0752 27.927C25.634 27.7404 26.3233 27.0687 26.3233 27.0687L27.7019 20.3705C27.7019 20.3519 28.2608 12.2543 20.0825 11.5826Z" fill="white"/>
<path id="face_7_" fill-rule="evenodd" clip-rule="evenodd" d="M28.26 20.4078L28.264 20.3288L28.265 20.3025C28.2812 19.8523 28.2594 19.2757 28.1697 18.6124C28.0357 17.621 27.7733 16.6412 27.3503 15.72C26.125 13.0514 23.7836 11.3243 20.1287 11.0241C19.7095 10.9934 19.2995 10.982 18.7908 11.0063C18.0242 11.0428 17.2743 11.1582 16.5696 11.376C14.5858 11.989 13.2581 13.3155 12.9714 15.4826C12.475 19.235 12.8004 23.8725 13.5013 27.058C13.7999 28.4152 15.889 28.8752 19.3225 28.8871L19.6952 28.8866C21.9082 28.8712 24.7567 28.6229 25.2524 28.4574C25.3704 28.418 25.4904 28.3645 25.6134 28.2984C25.7791 28.2093 25.9484 28.0984 26.1205 27.9704C26.2672 27.8612 26.4081 27.7453 26.5393 27.6295L26.643 27.536C26.6722 27.509 26.696 27.4865 26.7136 27.4693C26.7937 27.3912 26.8487 27.2908 26.8712 27.1812L28.2498 20.4829C28.2549 20.4581 28.2583 20.433 28.26 20.4078ZM20.0421 12.1405C23.2792 12.4064 25.2738 13.8777 26.3346 16.188C26.7077 17.0006 26.9419 17.8748 27.0619 18.7629C27.1377 19.3232 27.1593 19.8115 27.1499 20.1923L27.1462 20.2989L25.8125 26.7787L25.7998 26.7902C25.6906 26.8866 25.5732 26.9831 25.4537 27.072C25.3223 27.1698 25.1972 27.2517 25.0845 27.3123C25.0144 27.35 24.9515 27.3781 24.8988 27.3957L24.8807 27.4006C24.7297 27.4366 23.9807 27.5301 23.1368 27.6028C21.9634 27.7039 20.6997 27.766 19.5323 27.7681L19.2436 27.7672C16.5171 27.746 14.7106 27.3534 14.5927 26.8174C13.9181 23.7509 13.6016 19.2413 14.0793 15.6299C14.3032 13.9376 15.3024 12.9394 16.899 12.446C17.5053 12.2586 18.1647 12.1571 18.8438 12.1248C19.3009 12.103 19.6689 12.1132 20.0421 12.1405Z" fill="#2E186A"/>
<path id="beard_1_" fill-rule="evenodd" clip-rule="evenodd" d="M26.7143 20.2954C26.2113 20.7805 24.8886 23.5419 24.5719 24.8293C24.5719 24.8293 21.2745 23.7471 16.5799 23.6725C16.5799 23.6725 14.009 23.7285 12.9844 24.027C12.9844 24.027 13.2079 28.5982 15.2944 30.9678C17.3809 33.3374 21.7775 32.6657 23.8453 31.2477C25.9132 29.8297 26.2485 29.1393 26.7329 27.628C27.2173 26.0981 28.4654 20.426 28.4654 20.426L26.7143 20.2954Z" fill="#968BB4"/>
<path id="hair_5_" fill-rule="evenodd" clip-rule="evenodd" d="M28.0555 21.2662C28.0555 21.2662 29.4154 19.1578 29.937 16.9748C30.4214 14.9225 29.4713 12.7581 27.5711 11.8439C25.9876 11.0789 24.7953 11.676 24.7953 11.676C24.7953 11.676 26.4906 8.80262 23.957 6.24648C23.0628 5.35089 21.8332 4.84713 20.5664 4.88444C17.474 4.97773 16.5239 7.58985 16.5239 7.58985C16.5239 7.58985 13.2078 1.48868 6.42669 5.10834C5.73741 5.46284 4.9736 6.48903 4.60101 7.16072C2.36548 11.3028 9.74273 16.2099 13.599 16.583C17.8279 17.0121 20.3056 16.3031 21.6656 15.277C20.641 15.9113 21.7774 22.2364 28.0555 21.2662Z" fill="#2E186A"/>
<path id="eye_II_6_" fill-rule="evenodd" clip-rule="evenodd" d="M15.0895 22.2731C15.3159 22.2731 15.4994 21.9891 15.4994 21.6388C15.4994 21.2884 15.3159 21.0044 15.0895 21.0044C14.8632 21.0044 14.6797 21.2884 14.6797 21.6388C14.6797 21.9891 14.8632 22.2731 15.0895 22.2731Z" fill="#2E186A"/>
<path id="eye_6_" fill-rule="evenodd" clip-rule="evenodd" d="M18.8337 22.1804C19.06 22.1804 19.2435 21.8963 19.2435 21.546C19.2435 21.1956 19.06 20.9116 18.8337 20.9116C18.6073 20.9116 18.4238 21.1956 18.4238 21.546C18.4238 21.8963 18.6073 22.1804 18.8337 22.1804Z" fill="#2E186A"/>
<path id="brow_II_4_" fill-rule="evenodd" clip-rule="evenodd" d="M19.1198 17.746C19.8328 17.6326 20.4497 17.8133 20.946 18.1809C21.083 18.2824 21.2009 18.3914 21.3006 18.5017C21.3641 18.5721 21.4101 18.6314 21.4392 18.6741C21.6129 18.9297 21.5469 19.2779 21.2917 19.4518C21.046 19.6194 20.7146 19.5643 20.5352 19.3318L20.5152 19.3042C20.4872 19.2629 20.4068 19.174 20.2813 19.081C20.0268 18.8924 19.7243 18.7981 19.354 18.8433L19.295 18.8516C18.9902 18.9001 18.7038 18.6919 18.6554 18.3866C18.607 18.0812 18.8149 17.7944 19.1198 17.746Z" fill="#2E186A"/>
<path id="brow_7_" fill-rule="evenodd" clip-rule="evenodd" d="M14.5912 17.692C14.8763 17.623 15.1629 17.6252 15.4336 17.6681C15.5067 17.6797 15.5642 17.6921 15.603 17.7023C15.9016 17.7807 16.0801 18.0867 16.0018 18.3857C15.9263 18.674 15.6395 18.8506 15.3514 18.7925L15.3061 18.7822C15.2956 18.7801 15.2795 18.7771 15.2589 18.7738C15.1214 18.752 14.9747 18.7509 14.8539 18.7802C14.716 18.8135 14.6381 18.8744 14.5904 19.0089L14.5807 19.0389C14.492 19.335 14.1804 19.503 13.8848 19.4142C13.5891 19.3254 13.4214 19.0133 13.51 18.7172C13.6778 18.157 14.0769 17.8166 14.5912 17.692Z" fill="#2E186A"/>
<path id="mouth_6_" fill-rule="evenodd" clip-rule="evenodd" d="M19.3068 26.7599C19.3537 26.4543 19.639 26.2447 19.9441 26.2917C20.2492 26.3388 20.4585 26.6245 20.4115 26.9301C20.4029 26.9865 20.3853 27.0677 20.3557 27.1667C20.3073 27.3283 20.24 27.4902 20.1484 27.6454C19.8066 28.2242 19.2238 28.5444 18.4543 28.4031C18.1507 28.3473 17.9497 28.0556 18.0054 27.7516C18.059 27.4584 18.3318 27.2607 18.6234 27.2969L18.6559 27.3019C18.9289 27.3521 19.0682 27.2756 19.1863 27.0755C19.2279 27.0051 19.261 26.9254 19.285 26.8454L19.2951 26.8097C19.3007 26.7886 19.3042 26.7731 19.3059 26.7647L19.3068 26.7599Z" fill="#2E186A"/>
<path id="nose_6_" fill-rule="evenodd" clip-rule="evenodd" d="M16.1923 21.8537C16.2281 21.5467 16.5057 21.3269 16.8123 21.3627C17.1079 21.3973 17.3225 21.657 17.3054 21.9509L17.3025 21.9836L16.9317 25.1613L17.5553 24.997C17.8431 24.9212 18.1376 25.0845 18.2287 25.3643L18.238 25.3959C18.3137 25.6842 18.1507 25.9791 17.8713 26.0704L17.8397 26.0796L16.4239 26.4528C16.0537 26.5504 15.701 26.2554 15.7237 25.879L15.7266 25.8465L16.1923 21.8537Z" fill="#2E186A"/>
</g>
</g>
</svg>
